<?xml version="1.0" standalone="no"?>
<!DOCTYPE svg PUBLIC "-//W3C//DTD SVG 20010904//EN"
 "http://www.w3.org/TR/2001/REC-SVG-20010904/DTD/svg10.dtd">
<svg version="1.0" xmlns="http://www.w3.org/2000/svg"
 width="1024.000000pt" height="576.000000pt" viewBox="0 0 1024.000000 576.000000"
 preserveAspectRatio="xMidYMid meet">
<metadata>
Created by potrace 1.16, written by Peter Selinger 2001-2019
</metadata>
<g transform="translate(0.000000,576.000000) scale(0.100000,-0.100000)"
fill="#FFFFFF" stroke="none">
<path d="M0 2880 l0 -2880 5120 0 5120 0 0 2880 0 2880 -5120 0 -5120 0 0
-2880z m5375 1609 c235 -34 457 -121 665 -260 341 -229 596 -615 687 -1039 26
-121 26 -496 0 -622 -88 -433 -372 -848 -732 -1068 -223 -137 -390 -198 -639
-235 -487 -71 -996 87 -1342 418 -211 202 -350 419 -442 692 -53 157 -72 266
-79 450 -22 637 319 1211 902 1516 276 145 634 199 980 148z"/>
<path d="M4995 4466 c-173 -43 -324 -193 -371 -370 -8 -28 -14 -83 -14 -123
l0 -72 68 30 c263 119 660 116 903 -7 26 -13 49 -20 53 -17 12 12 6 119 -10
178 -23 90 -62 160 -131 235 -100 108 -223 161 -373 159 -41 0 -97 -6 -125
-13z"/>
<path d="M4810 4454 c-105 -22 -282 -83 -386 -133 l-97 -46 134 -82 c129 -78
134 -81 143 -60 57 142 112 213 222 287 82 54 81 55 -16 34z"/>
<path d="M5350 4466 c0 -2 26 -19 59 -39 83 -52 171 -150 206 -231 16 -36 33
-66 38 -66 5 0 35 15 66 33 31 19 86 51 124 71 37 20 67 39 67 41 0 7 -93 53
-177 86 -96 38 -171 61 -286 88 -95 22 -97 23 -97 17z"/>
<path d="M4252 4226 c-132 -87 -329 -266 -391 -354 l-23 -33 63 41 c94 61 182
85 305 84 l101 -1 7 105 c8 139 8 192 -2 192 -4 0 -31 -16 -60 -34z"/>
<path d="M5920 4104 l0 -156 23 6 c121 35 301 -1 419 -85 100 -71 -42 91 -197
225 -81 70 -214 166 -231 166 -11 0 -14 -30 -14 -156z"/>
<path d="M4347 4223 c-4 -3 -7 -55 -7 -115 0 -80 3 -108 13 -108 6 0 54 25
105 54 l93 54 -76 46 c-41 25 -86 53 -99 61 -12 8 -26 12 -29 8z"/>
<path d="M5792 4176 c-51 -29 -95 -55 -98 -59 -6 -6 179 -117 195 -117 7 0 11
41 11 115 0 63 -3 115 -7 115 -5 0 -50 -25 -101 -54z"/>
<path d="M5657 4073 c4 -16 7 -65 7 -110 0 -76 1 -82 23 -92 34 -15 35 -15
100 24 31 19 70 37 85 40 15 4 28 10 28 15 0 7 -233 150 -245 150 -3 0 -2 -12
2 -27z"/>
<path d="M4451 4020 c-121 -67 -124 -69 -97 -79 15 -6 31 -11 36 -11 5 0 36
-16 69 -35 64 -38 78 -41 102 -22 12 9 17 37 21 115 4 56 3 102 0 102 -4 0
-63 -32 -131 -70z"/>
<path d="M4965 3983 c-59 -8 -191 -45 -269 -75 l-78 -30 6 -42 c8 -50 47 -131
84 -176 l28 -32 177 176 c97 97 177 179 177 181 0 6 -80 4 -125 -2z"/>
<path d="M5325 3810 c99 -99 183 -180 187 -180 23 0 118 187 118 231 0 35
-319 129 -437 129 l-47 0 179 -180z"/>
<path d="M4938 3788 c-98 -100 -178 -184 -178 -189 0 -10 86 -72 136 -97 177
-90 424 -57 567 76 l28 26 -183 183 c-101 101 -185 183 -188 182 -3 0 -85 -82
-182 -181z"/>
<path d="M4062 3920 c-151 -40 -262 -130 -332 -272 -116 -236 -38 -514 184
-659 32 -21 62 -37 66 -34 4 2 10 38 13 78 20 263 203 584 428 747 38 28 69
55 69 61 0 17 -142 79 -206 89 -85 14 -139 12 -222 -10z"/>
<path d="M5930 3924 c-62 -16 -153 -58 -169 -77 -8 -10 5 -25 55 -62 231 -169
400 -455 435 -735 6 -52 13 -96 14 -98 8 -9 109 61 155 108 166 170 196 443
71 639 -117 182 -358 279 -561 225z"/>
<path d="M4470 3784 c-80 -62 -209 -196 -261 -271 -67 -98 -132 -237 -163
-353 -28 -103 -38 -220 -20 -227 15 -5 654 632 654 653 0 41 -132 236 -158
233 -4 0 -27 -16 -52 -35z"/>
<path d="M5675 3773 c-25 -27 -63 -81 -82 -121 l-37 -73 327 -327 c293 -293
328 -325 342 -311 14 13 14 24 0 101 -50 290 -191 531 -414 712 -36 29 -71 56
-78 60 -6 3 -31 -14 -58 -41z"/>
<path d="M4724 3534 c3 -26 6 -57 6 -70 0 -24 0 -24 123 -23 73 0 112 4 97 8
-49 15 -131 62 -169 96 -53 48 -65 46 -57 -11z"/>
<path d="M5470 3549 c-38 -32 -92 -64 -155 -91 l-40 -17 116 0 117 -1 11 61
c15 88 7 96 -49 48z"/>
<path d="M3635 3484 c-62 -148 -124 -457 -113 -561 l3 -32 125 70 c69 39 131
73 138 76 9 4 12 -31 12 -157 l0 -161 48 39 c26 22 66 49 90 61 39 20 42 25
42 60 0 37 -3 41 -52 70 -118 67 -210 174 -249 288 -19 54 -23 90 -24 175 0
60 -1 108 -2 108 -2 0 -9 -16 -18 -36z"/>
<path d="M6596 3460 c11 -125 -37 -280 -113 -369 -18 -22 -33 -41 -33 -44 0
-9 271 -169 277 -163 9 9 -16 232 -37 334 -19 91 -71 260 -90 291 -7 11 -8 -5
-4 -49z"/>
<path d="M4597 3403 c-11 -10 -8 -293 2 -293 26 0 95 166 108 255 l6 45 -55 0
c-30 0 -58 -3 -61 -7z"/>
<path d="M4737 3403 c-4 -3 -7 -23 -7 -43 0 -20 -7 -61 -16 -91 -16 -56 -82
-176 -108 -198 -12 -10 -15 -44 -15 -187 l0 -175 35 -46 c64 -84 104 -190 104
-275 l0 -38 388 0 388 0 12 76 c13 83 54 178 102 239 l30 38 0 175 0 175 -45
66 c-51 75 -80 150 -90 234 l-7 57 -382 0 c-211 0 -386 -3 -389 -7z"/>
<path d="M5540 3376 c0 -65 68 -241 101 -261 5 -4 9 55 9 144 l0 151 -55 0
-55 0 0 -34z"/>
<path d="M5680 3238 l0 -177 43 -35 c24 -19 79 -52 122 -73 75 -36 86 -38 193
-42 143 -4 154 4 92 61 -25 23 -136 132 -247 242 l-203 201 0 -177z"/>
<path d="M4313 3162 c-128 -130 -233 -239 -233 -244 0 -4 47 -8 103 -8 144 0
253 39 342 121 l44 40 -4 157 c-2 86 -4 160 -5 165 0 4 -3 6 -7 6 -5 -1 -113
-107 -240 -237z"/>
<path d="M6406 3011 c-16 -16 -55 -44 -87 -61 -56 -29 -59 -33 -59 -68 0 -34
4 -39 45 -61 24 -13 62 -39 85 -58 23 -20 42 -34 44 -32 7 8 14 309 7 309 -4
0 -20 -13 -35 -29z"/>
<path d="M4535 3000 c-27 -30 -168 -98 -220 -106 -57 -8 -58 -20 -1 -27 58 -8
140 -45 199 -90 26 -21 49 -37 51 -37 2 0 3 63 3 140 0 77 -4 140 -7 140 -4 0
-15 -9 -25 -20z"/>
<path d="M5680 2879 l0 -141 50 37 c59 43 173 94 212 95 44 0 41 17 -5 23 -58
8 -165 57 -209 96 -20 17 -38 31 -42 31 -3 0 -6 -63 -6 -141z"/>
<path d="M3668 2941 c-54 -31 -98 -58 -98 -61 0 -3 44 -31 98 -62 l97 -57 5
112 c3 61 3 115 0 118 -3 4 -49 -19 -102 -50z"/>
<path d="M6467 2883 c-3 -60 -3 -111 0 -116 5 -8 203 94 203 105 0 8 -176 118
-188 118 -5 0 -12 -48 -15 -107z"/>
<path d="M3520 2830 c0 -88 23 -241 55 -365 29 -111 69 -225 79 -225 2 0 1 33
-2 73 -8 127 28 253 99 346 22 29 39 54 37 56 -18 15 -256 155 -264 155 -2 0
-4 -18 -4 -40z"/>
<path d="M4130 2853 c-19 -2 -42 -6 -49 -9 -10 -3 67 -87 229 -249 134 -134
246 -242 248 -240 3 3 6 80 8 171 l3 167 -36 33 c-95 87 -272 143 -403 127z"/>
<path d="M5975 2850 c-94 -16 -203 -68 -267 -128 l-28 -26 0 -173 c0 -95 2
-173 4 -173 11 0 494 490 488 494 -16 10 -150 14 -197 6z"/>
<path d="M6675 2842 c-16 -10 -74 -41 -127 -70 -54 -30 -98 -56 -98 -59 0 -2
16 -23 35 -46 20 -23 47 -65 61 -93 33 -68 57 -202 48 -276 -3 -32 -4 -58 -1
-58 8 0 54 127 76 210 22 82 46 223 56 338 8 80 4 84 -50 54z"/>
<path d="M4014 2815 c-9 -23 12 -148 41 -250 65 -224 217 -442 409 -585 l59
-44 46 50 c46 49 111 159 111 185 0 15 -639 659 -653 659 -4 0 -10 -7 -13 -15z"/>
<path d="M5881 2503 l-324 -323 36 -73 c21 -42 56 -92 86 -121 l50 -49 63 51
c87 69 205 194 256 272 88 133 137 257 173 434 21 107 21 137 -3 135 -7 -1
-159 -147 -337 -326z"/>
<path d="M3939 2789 c-56 -28 -145 -115 -183 -177 -62 -102 -79 -171 -74 -299
4 -108 6 -115 46 -195 84 -168 215 -263 399 -289 116 -16 274 18 339 74 l25
22 -63 47 c-228 167 -411 481 -434 742 -9 95 -11 98 -55 75z"/>
<path d="M6252 2715 c-23 -185 -101 -371 -222 -530 -79 -104 -118 -143 -213
-213 -68 -51 -68 -51 -45 -66 56 -37 147 -70 217 -79 189 -25 398 72 501 233
150 233 79 561 -154 712 -32 21 -62 38 -66 38 -4 0 -12 -43 -18 -95z"/>
<path d="M4590 2506 l0 -156 60 0 c56 0 60 2 60 23 0 39 -40 170 -67 220 -50
91 -53 86 -53 -87z"/>
<path d="M5613 2608 c-40 -67 -73 -165 -73 -218 l0 -40 55 0 55 0 0 155 c0 85
-1 155 -3 155 -1 0 -17 -24 -34 -52z"/>
<path d="M4737 2313 c-9 -15 -18 -123 -12 -133 4 -6 26 6 55 30 27 22 81 56
122 75 l73 34 -117 1 c-64 0 -119 -3 -121 -7z"/>
<path d="M5332 2291 c37 -16 93 -49 125 -75 32 -25 61 -42 66 -37 4 4 3 38 -3
75 l-12 66 -122 0 -121 -1 67 -28z"/>
<path d="M5006 2294 c-72 -17 -184 -75 -222 -115 l-28 -30 179 -179 c99 -99
184 -180 189 -180 5 0 91 82 190 181 l180 182 -39 34 c-53 46 -166 99 -239
112 -77 14 -137 13 -210 -5z"/>
<path d="M4707 2099 c-37 -50 -76 -132 -83 -177 -6 -37 -4 -40 30 -56 115 -54
387 -117 423 -98 9 5 -43 63 -166 186 l-178 178 -26 -33z"/>
<path d="M5331 1953 c-100 -101 -169 -179 -164 -184 21 -21 266 32 401 88 62
26 64 28 58 57 -12 60 -97 218 -115 215 -3 -1 -84 -80 -180 -176z"/>
<path d="M3851 1899 c41 -59 181 -199 264 -266 79 -63 178 -133 189 -133 3 0
6 69 6 154 l0 153 -52 -9 c-114 -19 -259 17 -369 92 l-62 42 24 -33z"/>
<path d="M6386 1911 c-25 -28 -122 -77 -191 -97 -64 -18 -176 -23 -237 -11
l-38 8 0 -161 c0 -88 3 -160 6 -160 14 0 146 94 235 168 116 96 275 272 246
272 -2 0 -12 -9 -21 -19z"/>
<path d="M4479 1879 c-23 -16 -64 -37 -91 -47 -26 -9 -48 -19 -48 -22 1 -7
240 -153 245 -149 2 2 1 52 -2 110 -5 102 -7 106 -33 121 -26 15 -29 14 -71
-13z"/>
<path d="M5684 1885 c-19 -12 -21 -25 -22 -105 -1 -49 -4 -95 -7 -100 -13 -20
16 -9 112 46 164 94 154 82 91 108 -30 13 -71 32 -90 44 -42 26 -56 27 -84 7z"/>
<path d="M4607 1829 c-9 -33 9 -159 31 -216 47 -124 148 -233 270 -291 77 -37
77 -37 212 -37 125 0 140 2 199 27 159 68 274 208 310 376 12 57 15 162 5 162
-4 0 -47 -16 -97 -36 -250 -100 -585 -101 -820 -3 -103 44 -103 44 -110 18z"/>
<path d="M5854 1749 c-16 -11 -59 -36 -96 -56 -38 -19 -68 -38 -68 -42 1 -10
198 -120 204 -113 9 9 7 220 -2 226 -5 3 -21 -4 -38 -15z"/>
<path d="M4341 1644 c-1 -64 2 -114 6 -112 21 8 203 112 200 113 -17 14 -190
115 -197 115 -4 0 -9 -52 -9 -116z"/>
<path d="M5640 1628 c0 -7 -15 -45 -34 -83 -37 -79 -151 -196 -221 -229 -60
-29 -26 -31 78 -6 155 38 424 141 441 169 6 9 -26 31 -159 109 -88 52 -105 58
-105 40z"/>
<path d="M4465 1564 c-66 -36 -124 -69 -129 -74 -19 -19 236 -125 408 -170
153 -39 177 -39 106 2 -80 46 -174 144 -210 220 -16 34 -30 69 -30 76 0 22
-23 13 -145 -54z"/>
</g>
</svg>
