<svg width="10" height="10" viewBox="0 0 10 10" fill="none" xmlns="http://www.w3.org/2000/svg">
<g filter="url(#filter0_i_1223_1359)">
<path d="M7.50735 5.20837C7.51097 5.49578 7.23724 5.83717 6.689 6.51892L6.18509 7.14587C5.66902 7.78762 5.41054 8.10856 5.07181 8.13904C5.02445 8.14328 4.97659 8.14326 4.92923 8.13904C4.5904 8.10868 4.33209 7.78771 3.81595 7.14587L3.31107 6.51892C2.76291 5.83728 2.48909 5.49575 2.49271 5.20837C2.4958 4.9733 2.60237 4.75156 2.78372 4.60193C2.8539 4.54407 2.94565 4.50474 3.06603 4.47798C3.44118 4.39458 3.62875 4.35287 3.71413 4.25877C3.72671 4.24491 3.73377 4.23611 3.74457 4.22082C3.8179 4.11705 3.8179 3.96709 3.8179 3.66717V2.65759C3.8179 2.21576 4.17686 1.85779 4.61868 1.85779H5.41849C5.86021 1.85791 6.21829 2.21584 6.21829 2.65759V3.66887C6.21829 3.96197 6.21829 4.10853 6.28856 4.21084C6.29914 4.22625 6.30544 4.23436 6.31778 4.2484C6.3997 4.34165 6.58896 4.38962 6.9675 4.48557C7.0721 4.51208 7.15364 4.54939 7.21732 4.60193C7.3985 4.75156 7.50426 4.97342 7.50735 5.20837Z" fill="white"/>
</g>
<defs>
<filter id="filter0_i_1223_1359" x="0" y="0" width="10" height="10" filterUnits="userSpaceOnUse" color-interpolation-filters="sRGB">
<feFlood flood-opacity="0" result="BackgroundImageFix"/>
<feBlend mode="normal" in="SourceGraphic" in2="BackgroundImageFix" result="shape"/>
<feColorMatrix in="SourceAlpha" type="matrix" values="0 0 0 0 0 0 0 0 0 0 0 0 0 0 0 0 0 0 127 0" result="hardAlpha"/>
<feOffset/>
<feGaussianBlur stdDeviation="1"/>
<feComposite in2="hardAlpha" operator="arithmetic" k2="-1" k3="1"/>
<feColorMatrix type="matrix" values="0 0 0 0 0.942 0 0 0 0 0.94 0 0 0 0 1 0 0 0 0.1 0"/>
<feBlend mode="hard-light" in2="shape" result="effect1_innerShadow_1223_1359"/>
</filter>
</defs>
</svg>
