<svg width="10" height="10" viewBox="0 0 10 10" fill="none" xmlns="http://www.w3.org/2000/svg">
<g filter="url(#filter0_i_1134_3247)">
<path d="M3.59961 2.2998C3.98621 2.2998 4.2998 2.6134 4.2998 3V7C4.2997 7.38651 3.98614 7.7002 3.59961 7.7002C3.21326 7.69998 2.9005 7.38638 2.90039 7V3C2.90039 2.61353 3.21319 2.30002 3.59961 2.2998ZM6.40039 2.2998C6.78681 2.30002 7.09961 2.61353 7.09961 3V7C7.0995 7.38638 6.78674 7.69998 6.40039 7.7002C6.01386 7.7002 5.7003 7.38651 5.7002 7V3C5.7002 2.6134 6.01379 2.2998 6.40039 2.2998Z" fill="white"/>
</g>
<defs>
<filter id="filter0_i_1134_3247" x="0" y="0" width="10" height="10" filterUnits="userSpaceOnUse" color-interpolation-filters="sRGB">
<feFlood flood-opacity="0" result="BackgroundImageFix"/>
<feBlend mode="normal" in="SourceGraphic" in2="BackgroundImageFix" result="shape"/>
<feColorMatrix in="SourceAlpha" type="matrix" values="0 0 0 0 0 0 0 0 0 0 0 0 0 0 0 0 0 0 127 0" result="hardAlpha"/>
<feOffset/>
<feGaussianBlur stdDeviation="1"/>
<feComposite in2="hardAlpha" operator="arithmetic" k2="-1" k3="1"/>
<feColorMatrix type="matrix" values="0 0 0 0 0.942 0 0 0 0 0.94 0 0 0 0 1 0 0 0 0.1 0"/>
<feBlend mode="hard-light" in2="shape" result="effect1_innerShadow_1134_3247"/>
</filter>
</defs>
</svg>
