<?xml version="1.0" standalone="no"?>
<!DOCTYPE svg PUBLIC "-//W3C//DTD SVG 1.1//EN" "http://www.w3.org/Graphics/SVG/1.1/DTD/svg11.dtd" >
<svg xmlns="http://www.w3.org/2000/svg">
<defs>
  <font id="game-icons" horiz-adv-x="1000">
    <font-face font-family="game-icons"
      units-per-em="1000" ascent="1000"
      descent="0" />
    <missing-glyph horiz-adv-x="0" />
    <glyph glyph-name="Editing_Tools_align-bottom"
      unicode="&#xEA01;"
      horiz-adv-x="1000" d="M390.039 355.078C423.168 355.081 449.991 381.9120000000001 450 415.039V735.059C449.989 768.185 423.1670000000001 795.016 390.039 795.02C356.909 795.02 330.089 768.187 330.0780000000001 735.059V415.039C330.088 381.91 356.908 355.078 390.039 355.078zM610.0590000000001 355.078C643.187 355.081 670.01 381.9120000000001 670.02 415.039V535.059C670.009 568.185 643.186 595.0160000000001 610.0590000000001 595.02C576.928 595.02 550.108 568.187 550.0980000000001 535.059V415.039C550.1070000000001 381.91 576.927 355.078 610.0590000000001 355.078zM750 204.98C772.079 204.98 790.019 222.9449999999999 790.039 245.02C790.039 267.111 772.091 285.0590000000001 750 285.0590000000001H250C227.929 285.035 209.961 267.096 209.961 245.02C209.981 222.9599999999999 227.941 205.004 250 204.98H750z" />
    <glyph glyph-name="Editing_Tools_align-bottom2"
      unicode="&#xEA02;"
      horiz-adv-x="1000" d="M750 257.52C774.853 257.52 795.02 277.6860000000001 795.02 302.539C794.9970000000001 327.373 774.8389999999999 347.5590000000001 750 347.5590000000001H727.02C701.641 347.5590000000001 688.952 347.5590000000001 680.5360000000001 354.746C679.341 355.767 678.2280000000001 356.88 677.207 358.0750000000001C670.02 366.491 670.02 379.1800000000001 670.02 404.559V482.52C669.998 515.637 643.18 542.477 610.0590000000001 542.48C576.9350000000001 542.48 550.119 515.639 550.0980000000001 482.52V397.607C550.0980000000001 378.8690000000001 550.0980000000001 369.5 546.059 362.525C543.433 357.991 539.6659999999999 354.223 535.131 351.597C528.157 347.5590000000001 518.787 347.5590000000001 500.049 347.5590000000001C481.3100000000001 347.5590000000001 471.941 347.5590000000001 464.967 351.597C460.432 354.223 456.664 357.991 454.038 362.525C450 369.5 450 378.8690000000001 450 397.607V682.52C449.979 715.637 423.1600000000001 742.4770000000001 390.039 742.48C356.915 742.48 330.099 715.639 330.0780000000001 682.52V404.559C330.0780000000001 379.1800000000001 330.0780000000001 366.491 322.89 358.0750000000001C321.87 356.88 320.757 355.767 319.562 354.746C311.146 347.5590000000001 298.457 347.5590000000001 273.0780000000001 347.5590000000001H250C225.181 347.5360000000001 205.003 327.3590000000001 204.98 302.539C204.98 277.701 225.167 257.543 250 257.52H750z" />
    <glyph glyph-name="Editing_Tools_align-horizontal-centers"
      unicode="&#xEA03;"
      horiz-adv-x="1000" d="M189.99 780.029C212.076 780.029 230.02 762.0740000000001 230.029 739.99V260.01C230.029 237.918 212.082 219.971 189.99 219.971C167.909 219.9830000000001 149.951 237.9260000000001 149.951 260.01V739.99C149.96 762.066 167.915 780.017 189.99 780.029zM810.01 780.029C832.091 780.024 850.039 762.0699999999999 850.049 739.99V260.01C850.049 237.9220000000001 832.0970000000001 219.976 810.01 219.971C787.918 219.971 769.971 237.918 769.971 260.01V739.99C769.98 762.0740000000001 787.924 780.029 810.01 780.029zM550.049 449.951C583.167 449.935 610 423.11 610.01 389.99C610.01 356.863 583.172 330.045 550.049 330.029H450.0490000000001C416.9120000000001 330.029 390.088 356.853 390.088 389.99C390.097 423.1190000000001 416.9170000000001 449.951 450.0490000000001 449.951H550.049zM629.932 669.971C663.056 669.971 689.97 643.13 689.99 610.01C689.99 576.873 663.0690000000001 550.049 629.932 550.049H369.971C336.855 550.0740000000001 310.01 576.888 310.01 610.01C310.03 643.114 336.867 669.946 369.971 669.971H629.932z" />
    <glyph glyph-name="Editing_Tools_align-horizontal-centers2"
      unicode="&#xEA04;"
      horiz-adv-x="1000" d="M499.902 795.02C524.755 795.02 544.922 774.8530000000001 544.922 750V727.02C544.922 701.6410000000001 544.922 688.952 552.11 680.5360000000001C553.13 679.341 554.243 678.2280000000001 555.438 677.207C563.854 670.02 576.543 670.02 601.922 670.02H689.9409999999999C723.066 670.02 749.9799999999999 643.179 750 610.059C750 576.922 723.078 550.098 689.9409999999999 550.098H594.971C576.232 550.098 566.863 550.098 559.889 546.059C555.354 543.433 551.586 539.6659999999999 548.96 535.131C544.922 528.157 544.922 518.787 544.922 500.049V495.02C544.922 481.023 544.922 474.025 547.211 468.505C550.256 461.1659999999999 556.088 455.3340000000001 563.427 452.289C568.947 450 575.945 450 589.9409999999999 450C623.073 450 649.991 423.168 650 390.039C650 356.9020000000001 623.078 330.078 589.9409999999999 330.078C575.945 330.078 568.947 330.078 563.427 327.789C556.088 324.7440000000001 550.256 318.9120000000001 547.211 311.573C544.922 306.053 544.922 299.055 544.922 285.0590000000001V250C544.91 225.1570000000001 524.748 204.98 499.902 204.98C475.069 204.995 454.895 225.1660000000001 454.883 250V285.1560000000001C454.883 299.0610000000001 454.883 306.014 452.623 311.5020000000001C449.577 318.898 443.703 324.7720000000001 436.307 327.818C430.818 330.078 423.8660000000001 330.078 409.961 330.078C376.844 330.102 350 356.9169999999999 350 390.039C350.009 423.154 376.85 449.976 409.961 450C423.8660000000001 450 430.818 450 436.307 452.26C443.703 455.306 449.577 461.1799999999999 452.623 468.576C454.883 474.0649999999999 454.883 481.0170000000001 454.883 494.922V500.049C454.883 518.787 454.883 528.157 450.8440000000001 535.131C448.219 539.6659999999999 444.451 543.433 439.916 546.059C432.942 550.098 423.5730000000001 550.098 404.834 550.098H309.961C276.842 550.119 250 576.935 250 610.059C250.02 643.1659999999999 276.854 669.998 309.961 670.02H397.883C423.261 670.02 435.95 670.02 444.3660000000001 677.207C445.5610000000001 678.2280000000001 446.674 679.341 447.6950000000001 680.5360000000001C454.883 688.952 454.883 701.6410000000001 454.883 727.02V750C454.883 774.844 475.062 795.005 499.902 795.02z" />
    <glyph glyph-name="Editing_Tools_align-left"
      unicode="&#xEA05;"
      horiz-adv-x="1000" d="M245.02 780.029C267.101 780.024 285.0490000000001 762.0699999999999 285.059 739.99V260.01C285.059 237.9220000000001 267.106 219.976 245.02 219.971C222.928 219.971 204.98 237.918 204.98 260.01V739.99C204.99 762.0740000000001 222.934 780.029 245.02 780.029zM535.0590000000001 449.951C568.174 449.933 595.01 423.1080000000001 595.02 389.99C595.02 356.865 568.18 330.048 535.0590000000001 330.029H415.039C381.902 330.029 355.0780000000001 356.853 355.0780000000001 389.99C355.0870000000001 423.1190000000001 381.908 449.951 415.039 449.951H535.0590000000001zM735.0590000000001 669.971C768.1610000000001 669.944 795 643.114 795.02 610.01C795.02 576.889 768.173 550.075 735.0590000000001 550.049H415.039C381.902 550.049 355.0780000000001 576.873 355.0780000000001 610.01C355.098 643.13 381.914 669.971 415.039 669.971H735.0590000000001z" />
    <glyph glyph-name="Editing_Tools_align-left2"
      unicode="&#xEA06;"
      horiz-adv-x="1000" d="M302.539 795.02C327.376 795.001 347.559 774.841 347.559 750V727.02C347.559 701.6410000000001 347.559 688.952 354.746 680.5360000000001C355.767 679.341 356.88 678.2280000000001 358.075 677.207C366.491 670.02 379.18 670.02 404.559 670.02H682.52C715.63 670.002 742.461 643.168 742.48 610.059C742.48 576.932 715.6419999999999 550.115 682.52 550.098H397.607C378.869 550.098 369.5 550.098 362.525 546.059C357.991 543.433 354.223 539.6659999999999 351.597 535.131C347.559 528.157 347.559 518.787 347.559 500.049C347.559 481.3100000000001 347.559 471.941 351.597 464.9670000000001C354.223 460.432 357.991 456.664 362.525 454.038C369.5 450 378.869 450 397.607 450H482.617C515.7180000000001 449.9640000000001 542.5690000000001 423.1460000000001 542.578 390.039C542.578 356.924 515.7239999999999 330.1140000000001 482.617 330.078H404.559C379.18 330.078 366.491 330.078 358.075 322.89C356.88 321.87 355.767 320.757 354.746 319.562C347.559 311.146 347.559 298.457 347.559 273.078V250C347.5470000000001 225.169 327.3690000000001 204.999 302.539 204.98C277.694 204.98 257.531 225.1570000000001 257.5200000000001 250V750C257.5200000000001 774.8530000000001 277.6860000000001 795.02 302.539 795.02z" />
    <glyph glyph-name="Editing_Tools_align-right"
      unicode="&#xEA07;"
      horiz-adv-x="1000" d="M754.98 780.029C732.899 780.024 714.951 762.0699999999999 714.9409999999999 739.99V260.01C714.9409999999999 237.9220000000001 732.894 219.976 754.98 219.971C777.072 219.971 795.02 237.918 795.02 260.01V739.99C795.01 762.0740000000001 777.066 780.029 754.98 780.029zM464.941 449.951C431.826 449.933 404.99 423.1080000000001 404.98 389.99C404.98 356.865 431.82 330.048 464.941 330.029H584.961C618.098 330.029 644.922 356.853 644.922 389.99C644.913 423.1190000000001 618.0920000000001 449.951 584.961 449.951H464.941zM264.9410000000001 669.971C231.839 669.944 205 643.114 204.98 610.01C204.98 576.889 231.827 550.075 264.9410000000001 550.049H584.961C618.098 550.049 644.922 576.873 644.922 610.01C644.902 643.13 618.086 669.971 584.961 669.971H264.9410000000001z" />
    <glyph glyph-name="Editing_Tools_align-right2"
      unicode="&#xEA08;"
      horiz-adv-x="1000" d="M697.461 795.02C672.624 795.001 652.4409999999999 774.841 652.4409999999999 750V727.02C652.4409999999999 701.6410000000001 652.4409999999999 688.952 645.254 680.5360000000001C644.2330000000001 679.341 643.12 678.2280000000001 641.925 677.207C633.509 670.02 620.8199999999999 670.02 595.441 670.02H317.48C284.37 670.002 257.539 643.168 257.5200000000001 610.059C257.5200000000001 576.932 284.358 550.115 317.48 550.098H602.393C621.131 550.098 630.5 550.098 637.475 546.059C642.009 543.433 645.777 539.6659999999999 648.403 535.131C652.4409999999999 528.157 652.4409999999999 518.787 652.4409999999999 500.049C652.4409999999999 481.3100000000001 652.4409999999999 471.941 648.403 464.9670000000001C645.777 460.432 642.009 456.664 637.475 454.038C630.5 450 621.131 450 602.393 450H517.3829999999999C484.282 449.9640000000001 457.431 423.1460000000001 457.422 390.039C457.422 356.924 484.276 330.1140000000001 517.3829999999999 330.078H595.441C620.8199999999999 330.078 633.509 330.078 641.925 322.89C643.12 321.87 644.2330000000001 320.757 645.254 319.562C652.4409999999999 311.146 652.4409999999999 298.457 652.4409999999999 273.078V250C652.4530000000001 225.169 672.631 204.999 697.461 204.98C722.306 204.98 742.469 225.1570000000001 742.48 250V750C742.48 774.8530000000001 722.314 795.02 697.461 795.02z" />
    <glyph glyph-name="Editing_Tools_align-top"
      unicode="&#xEA09;"
      horiz-adv-x="1000" d="M390.039 644.922C423.168 644.9190000000001 449.991 618.088 450 584.961V264.9409999999999C449.989 231.8150000000001 423.1670000000001 204.9839999999999 390.039 204.98C356.909 204.98 330.089 231.813 330.0780000000001 264.9409999999999V584.961C330.088 618.0899999999999 356.908 644.922 390.039 644.922zM610.0590000000001 644.922C643.187 644.9190000000001 670.01 618.088 670.02 584.961V464.9409999999999C670.009 431.8150000000001 643.186 404.9839999999999 610.0590000000001 404.98C576.928 404.98 550.108 431.813 550.0980000000001 464.9409999999999V584.961C550.1070000000001 618.0899999999999 576.927 644.922 610.0590000000001 644.922zM750 795.02C772.079 795.02 790.019 777.0550000000001 790.039 754.98C790.039 732.889 772.091 714.941 750 714.941H250C227.929 714.9649999999999 209.961 732.904 209.961 754.98C209.981 777.04 227.941 794.996 250 795.02H750z" />
    <glyph glyph-name="Editing_Tools_align-top2"
      unicode="&#xEA0A;"
      horiz-adv-x="1000" d="M750 742.48C774.853 742.48 795.02 722.314 795.02 697.461C794.9970000000001 672.627 774.8389999999999 652.441 750 652.441H727.02C701.641 652.441 688.952 652.441 680.5360000000001 645.254C679.341 644.233 678.2280000000001 643.12 677.207 641.925C670.02 633.509 670.02 620.8199999999999 670.02 595.441V517.48C669.998 484.3630000000001 643.18 457.523 610.0590000000001 457.52C576.9350000000001 457.52 550.119 484.361 550.0980000000001 517.48V602.393C550.0980000000001 621.1310000000001 550.0980000000001 630.5 546.059 637.475C543.433 642.009 539.6659999999999 645.777 535.131 648.403C528.157 652.441 518.787 652.441 500.049 652.441C481.3100000000001 652.441 471.941 652.441 464.967 648.403C460.432 645.777 456.664 642.009 454.038 637.475C450 630.5 450 621.1310000000001 450 602.393V317.48C449.979 284.3630000000001 423.1600000000001 257.523 390.039 257.52C356.915 257.52 330.099 284.361 330.0780000000001 317.48V595.441C330.0780000000001 620.8199999999999 330.0780000000001 633.509 322.89 641.925C321.87 643.12 320.757 644.233 319.562 645.254C311.146 652.441 298.457 652.441 273.0780000000001 652.441H250C225.181 652.4639999999999 205.003 672.6410000000001 204.98 697.461C204.98 722.299 225.167 742.457 250 742.48H750z" />
    <glyph glyph-name="Editing_Tools_align-vertical-centers"
      unicode="&#xEA0B;"
      horiz-adv-x="1000" d="M750 230.078C772.0609999999999 230.058 790.017 212.0990000000001 790.039 190.039C790.039 167.96 772.0749999999999 150.02 750 150H250C227.909 150 209.961 167.948 209.961 190.039C209.983 212.111 227.922 230.078 250 230.078H750zM389.9410000000001 689.941C423.0780000000001 689.941 449.902 663.1179999999999 449.902 629.98V370.02C449.893 336.89 423.0730000000001 309.961 389.9410000000001 309.961C356.814 309.966 329.99 336.8930000000001 329.98 370.02V629.98C329.98 663.114 356.8090000000001 689.936 389.9410000000001 689.941zM609.961 609.961C643.096 609.96 669.9200000000001 583.135 669.922 550V450C669.922 416.8640000000001 643.097 390.0400000000001 609.961 390.039C576.824 390.039 550 416.8630000000001 550 450V550C550.001 583.136 576.825 609.961 609.961 609.961zM750 850C772.077 849.983 790.039 832.042 790.039 809.961C790.019 787.896 772.065 769.938 750 769.922H250C227.921 769.922 209.981 787.886 209.961 809.961C209.961 832.052 227.909 850 250 850H750z" />
    <glyph glyph-name="Editing_Tools_align-vertical-centers2"
      unicode="&#xEA0C;"
      horiz-adv-x="1000" d="M390.039 750C423.161 749.997 449.98 723.1569999999999 450 690.039V595.068C450 576.3299999999999 450 566.961 454.038 559.986C456.664 555.452 460.432 551.684 464.967 549.058C471.941 545.02 481.3100000000001 545.02 500.049 545.02H505.078C519.075 545.02 526.073 545.02 531.592 547.309C538.932 550.354 544.764 556.185 547.808 563.5250000000001C550.0980000000001 569.044 550.0980000000001 576.0419999999999 550.0980000000001 590.039C550.1179999999999 623.159 576.934 650 610.0590000000001 650C643.1809999999999 649.997 670 623.1569999999999 670.02 590.039C670.02 576.0419999999999 670.02 569.044 672.309 563.5250000000001C675.354 556.185 681.185 550.354 688.525 547.309C694.044 545.02 701.042 545.02 715.039 545.02H750C774.853 545.02 795.02 524.853 795.02 500C795.0179999999999 475.148 774.852 454.98 750 454.98H714.9409999999999C701.037 454.98 694.084 454.98 688.596 452.7199999999999C681.199 449.674 675.326 443.8010000000001 672.2800000000001 436.404C670.02 430.9160000000001 670.02 423.963 670.02 410.0590000000001C670.02 376.924 643.193 350.003 610.0590000000001 350C576.922 350 550.0980000000001 376.9220000000001 550.0980000000001 410.0590000000001C550.0980000000001 423.963 550.0980000000001 430.9160000000001 547.837 436.404C544.791 443.8010000000001 538.918 449.674 531.5210000000001 452.7199999999999C526.033 454.98 519.081 454.98 505.176 454.98H500.049C481.3100000000001 454.98 471.941 454.98 464.967 450.942C460.432 448.3160000000001 456.664 444.548 454.038 440.014C450 433.039 450 423.67 450 404.932V310.0590000000001C450 276.924 423.173 250.003 390.039 250C356.902 250 330.0780000000001 276.9220000000001 330.0780000000001 310.0590000000001V397.98C330.0780000000001 423.3590000000001 330.0780000000001 436.048 322.89 444.464C321.87 445.659 320.757 446.772 319.562 447.793C311.146 454.98 298.457 454.98 273.0780000000001 454.98H250C225.168 455.004 204.982 475.163 204.98 500C204.98 524.8389999999999 225.167 544.996 250 545.02H273.0780000000001C298.457 545.02 311.146 545.02 319.562 552.2070000000001C320.757 553.2280000000001 321.87 554.3409999999999 322.89 555.5360000000001C330.0780000000001 563.952 330.0780000000001 576.641 330.0780000000001 602.02V690.039C330.098 723.159 356.914 750 390.039 750z" />
    <glyph glyph-name="Editing_Tools_bold"
      unicode="&#xEA0D;"
      horiz-adv-x="1000" d="M492.746 829.98C621.149 829.93 712.596 705.1510000000001 673.898 582.7149999999999C665.989 557.716 662.034 545.217 662.6999999999999 538.972C662.994 536.21 662.963 536.3679999999999 663.746 533.703C665.515 527.6779999999999 673.688 517.94 690.034 498.464C730.7349999999999 449.973 748.563 382.6120000000001 729.269 315.039C704.736 229.218 626.239 170.054 536.984 170.0200000000001H376.926C366.85 170.0200000000001 354.49 169.976 343.918 171.0940000000001C332.359 172.3229999999999 315.7220000000001 175.521 299.777 187.012C290.194 193.92 282.063 202.6469999999999 275.851 212.6949999999999C265.516 229.432 263.459 246.291 263.058 257.9100000000001C262.697 268.5360000000001 263.7080000000001 280.866 264.426 290.918L280.344 514.258V514.648L298.215 746.094C298.251 746.5889999999999 298.297 747.788 298.4100000000001 748.9259999999999L299.68 757.3240000000001C307.7100000000001 798.392 343.324 829.006 385.9100000000001 829.98H492.746zM389.002 351.1C387.073 324.092 386.108 310.588 393.301 301.4649999999999C394.318 300.1750000000001 395.44 298.9700000000001 396.654 297.8640000000001C405.242 290.039 418.7800000000001 290.039 445.857 290.039H536.984C572.67 290.073 604.034 313.7290000000001 613.84 348.0470000000001C628.4069999999999 399.116 590.082 449.9500000000001 536.984 450H449.14C425.364 450 413.476 450 405.258 443.4260000000001C404.087 442.488 402.987 441.4650000000001 401.969 440.363C394.826 432.635 393.979 420.7770000000001 392.285 397.0609999999999L389.002 351.1zM409.706 631.419C407.605 604.277 406.5540000000001 590.706 413.746 581.5229999999999C414.762 580.224 415.884 579.012 417.1 577.8979999999999C425.701 570.02 439.3130000000001 570.02 466.5359999999999 570.02H492.746C523.2389999999999 570.0529999999999 550.245 589.867 559.445 618.9449999999999C573.654 664.021 540.008 710.008 492.746 710.059H468.551C444.905 710.059 433.082 710.059 424.882 703.534C423.712 702.604 422.614 701.587 421.596 700.4929999999999C414.459 692.821 413.546 681.034 411.721 657.4580000000001L409.706 631.419z" />
    <glyph glyph-name="Editing_Tools_brush"
      unicode="&#xEA0E;"
      horiz-adv-x="1000" d="M237.88 329.7970000000001C308.591 372.2240000000001 237.88 428.7919999999999 294.449 485.361C327.574 518.4859999999999 365.549 527.365 391.335 529.0339999999999C409.634 530.219 418.783 530.8119999999999 423.324 532.673C424.2340000000001 533.046 424.413 533.127 425.294 533.565C429.689 535.748 434.226 540.285 443.2990000000001 549.358L633.8599999999999 739.919C661.197 767.256 705.518 767.256 732.855 739.919C760.192 712.582 760.192 668.261 732.855 640.924L547.3 455.3689999999999C536.72 444.789 531.4300000000001 439.499 529.176 434.52C528.695 433.457 528.668 433.3910000000001 528.274 432.294C526.426 427.15 526.608 415.4060000000001 526.971 391.918C527.378 365.6450000000001 519.927 329.001 485.368 294.442C393.444 202.518 167.17 287.371 237.88 329.7970000000001z" />
    <glyph glyph-name="Editing_Tools_copy"
      unicode="&#xEA0F;"
      horiz-adv-x="1000" d="M418.213 605.028C469.925 605.028 505.183 604.9300000000001 531.787 601.707C557.404 598.596 569.747 593.059 578.174 585.887C581.3430000000001 583.1800000000001 584.351 580.168 587.061 577C594.254 568.578 599.858 556.262 602.979 530.614C606.207 504.01 606.201 468.765 606.201 417.039V357.079C606.201 289.406 606.225 255.497 587.061 233.055C584.351 229.884 581.344 226.976 578.174 224.266C555.732 205.0989999999999 521.826 205.028 454.15 205.028H358.154C290.508 205.028 256.666 205.103 234.229 224.266C231.058 226.976 228.051 229.884 225.342 233.055C206.177 255.497 206.201 289.405 206.201 357.079V453.075C206.201 520.716 206.193 554.5600000000001 225.342 577C228.0600000000001 580.183 231.046 583.1680000000001 234.229 585.887C251.059 600.26 274.3090000000001 603.844 313.428 604.7349999999999L358.154 605.028H418.213zM641.748 794.969C709.407 794.969 743.232 794.982 765.674 775.829C768.86 773.107 771.839 770.128 774.561 766.942C793.726 744.5 793.799 710.685 793.799 643.016V547.02C793.799 479.355 793.719 445.5370000000001 774.561 423.0940000000001C771.84 419.908 768.86 416.929 765.674 414.207C752.192 402.698 734.606 398.065 708.044 396.204C696.129 395.37 686.279 405.0950000000001 686.279 417.039C686.279 466.765 686.327 507.733 682.373 540.282C678.3019999999999 573.752 669.442 603.731 647.9 628.954C642.4680000000001 635.309 636.485 641.297 630.127 646.7270000000001C604.906 668.2370000000001 574.915 677.135 541.455 681.2C508.908 685.146 467.9229999999999 685.008 418.213 685.008C404.967 685.008 394.152 695.8969999999999 395.0470000000001 709.1120000000001C396.852 735.7850000000001 401.4020000000001 753.428 412.939 766.942C415.661 770.127 418.64 773.108 421.826 775.829C444.2680000000001 794.9879999999999 478.088 794.969 545.752 794.969H641.748z" />
    <glyph glyph-name="Editing_Tools_cursor-alternate-select"
      unicode="&#xEA10;"
      horiz-adv-x="1000" d="M503.908 839.112C522.297 837.665 537.2810000000001 822.732 567.1890000000001 792.823L609.572 750.441C644.759 715.2529999999999 662.373 697.625 665.139 682.179C668.387 664.02 661.357 645.557 646.8770000000001 634.1320000000001C640.161 628.845 629.713 625.983 613.563 624.001C588.6840000000001 620.9480000000001 576.244 619.421 568.992 612.3330000000001C567.911 611.2760000000001 567.033 610.283 566.115 609.0809999999999C559.9630000000001 601.02 559.9630000000001 589.422 559.9630000000001 566.226V219.972C559.948 186.8499999999999 533.126 160.0149999999999 500.002 160.0110000000001C466.874 160.0110000000001 440.056 186.847 440.041 219.972V566.226C440.041 589.422 440.041 601.02 433.889 609.0809999999999C432.9710000000001 610.283 432.093 611.2760000000001 431.011 612.3330000000001C423.76 619.421 411.32 620.9480000000001 386.441 624.001C370.291 625.983 359.843 628.845 353.127 634.1320000000001C338.644 645.557 331.617 664.018 334.865 682.179C337.6310000000001 697.625 355.244 715.2529999999999 390.432 750.441L432.814 792.823C462.723 822.732 477.707 837.665 496.096 839.112C498.6970000000001 839.316 501.307 839.317 503.908 839.112z" />
    <glyph glyph-name="Editing_Tools_cursor-busy"
      unicode="&#xEA11;"
      horiz-adv-x="1000" d="M596.341 830.029C642.598 830.029 665.7370000000001 830.004 683.255 812.744C685.3570000000001 810.671 688.28 807.234 689.993 804.8340000000001C704.25 784.83 701.148 765.438 694.974 726.7090000000001C684.986 664.079 659.286 586.097 595.755 532.2750000000001C586.212 524.171 580.043 512.568 580.032 500.049C580.032 487.5110000000001 586.195 475.836 595.755 467.725C659.293 413.897 684.9879999999999 335.924 694.974 273.2910000000001C701.149 234.5560000000001 704.266 215.1760000000001 689.993 195.1660000000001C688.2769999999999 192.762 685.358 189.3280000000001 683.255 187.256C665.7379999999999 170.0010000000001 642.593 169.971 596.341 169.971H363.626C317.3810000000001 169.971 294.2270000000001 169.9980000000001 276.712 187.256C274.6090000000001 189.3290000000001 271.6880000000001 192.764 269.974 195.1660000000001C255.708 215.172 258.819 234.5640000000001 264.993 273.2910000000001C274.978 335.924 300.673 413.897 364.212 467.725C373.778 475.837 380.0320000000001 487.5060000000001 380.0320000000001 500.049C380.021 512.572 373.761 524.171 364.212 532.2750000000001C300.6790000000001 586.097 274.98 664.079 264.993 726.7090000000001C258.82 765.432 255.724 784.833 269.974 804.8340000000001C271.684 807.23 274.61 810.6700000000001 276.712 812.744C294.2270000000001 830.002 317.3810000000001 830.029 363.626 830.029L596.341 830.029zM402.7860000000001 750.537C375.538 750.347 361.861 750.219 352.981 740.088C351.897 738.847 350.4980000000001 737.014 349.661 735.596C342.826 723.986 346.63 712.4200000000001 354.0560000000001 689.404C373.8210000000001 628.155 414.909 560.037 480.032 560.01C545.149 560.008 586.19 628.1 605.9110000000001 689.404C613.319 712.431 617.041 724 610.208 735.596C609.37 737.014 607.974 738.847 606.888 740.088C598.009 750.211 584.3549999999999 750.346 557.083 750.537C507.61 750.883 452.259 750.8820000000001 402.7860000000001 750.537z" />
    <glyph glyph-name="Editing_Tools_cursor-busy2"
      unicode="&#xEA12;"
      horiz-adv-x="1000" d="M616.357 830.014C662.608 830.014 685.755 829.988 703.271 812.729C705.374 810.655 708.298 807.216 710.01 804.819C724.263 784.816 721.164 765.419 714.99 726.694C705.0029999999999 664.064 679.303 586.0820000000001 615.771 532.26C606.225 524.156 599.962 512.555 599.951 500.0339999999999C599.951 487.4930000000001 606.208 475.821 615.771 467.7089999999999C679.31 413.882 705.005 335.909 714.99 273.276C721.165 234.545 724.279 215.158 710.01 195.1510000000001C708.294 192.747 705.375 189.3129999999999 703.271 187.241C685.755 169.9820000000001 662.608 169.9550000000001 616.357 169.9550000000001H383.6430000000001C337.392 169.9550000000001 314.245 169.9830000000001 296.7290000000001 187.241C294.625 189.3129999999999 291.706 192.747 289.99 195.1510000000001C275.721 215.159 278.835 234.544 285.01 273.276C294.995 335.909 320.69 413.882 384.2290000000001 467.7089999999999C393.791 475.821 399.951 487.4930000000001 399.951 500.0339999999999C399.94 512.554 393.774 524.156 384.2290000000001 532.26C320.697 586.0820000000001 294.997 664.064 285.01 726.694C278.836 765.42 275.736 784.816 289.99 804.819C291.702 807.217 294.6260000000001 810.655 296.7290000000001 812.729C314.245 829.988 337.391 830.014 383.6430000000001 830.014L616.357 830.014zM459.814 667.905C426.621 667.905 410.0590000000001 667.833 401.4160000000001 652.768C400.474 651.124 399.127 648.245 398.584 646.4200000000001C393.658 629.762 402.997 619.934 421.631 600.424C425.0300000000001 596.865 428.5630000000001 593.4859999999999 432.2 590.306C444.5560000000001 579.502 450.734 574.101 453.275 569.5229999999999C453.722 568.719 453.931 568.3040000000001 454.315 567.4680000000001C456.497 562.7090000000001 456.978 557.034 457.939 545.683C459.194 530.85 460.009 515.446 460.01 500.0339999999999C460.01 456.225 453.956 412.4170000000001 448.487 381.745C446.176 368.786 445.021 362.306 442.049 357.467C441.414 356.432 441.376 356.375 440.6570000000001 355.397C437.293 350.8210000000001 426.087 343.7520000000001 403.675 329.613C383.8830000000001 317.129 368.877 297.294 364.502 274.057C361.609 258.622 374.473 250.01 390.1860000000001 249.838C457.347 249.105 542.559 249.111 609.717 249.838C625.417 250.0079999999999 638.289 258.626 635.4 274.057C631.0450000000001 297.3 616.0459999999999 317.135 596.2570000000001 329.617C573.834 343.7610000000001 562.622 350.833 559.256 355.4160000000001C558.537 356.395 558.4979999999999 356.4530000000001 557.863 357.4890000000001C554.89 362.336 553.741 368.817 551.442 381.778C546.002 412.454 539.99 456.2479999999999 539.99 500.0339999999999C539.991 515.393 540.77 530.748 541.9929999999999 545.537C542.932 556.8800000000001 543.402 562.5519999999999 545.582 567.3219999999999C545.965 568.1600000000001 546.174 568.576 546.621 569.382C549.161 573.97 555.3530000000001 579.3910000000001 567.739 590.233C571.396 593.434 574.949 596.838 578.369 600.424C596.9789999999999 619.944 606.2520000000001 629.768 601.318 646.4200000000001C600.774 648.239 599.524 651.125 598.584 652.768C589.938 667.8240000000001 573.366 667.905 540.186 667.905H459.814z" />
    <glyph glyph-name="Editing_Tools_cursor-busy3"
      unicode="&#xEA13;"
      horiz-adv-x="1000" d="M616.354 830.014C662.608 830.014 685.752 829.988 703.268 812.729C705.371 810.655 708.2950000000001 807.217 710.007 804.819C724.262 784.816 721.1610000000001 765.421 714.987 726.694C705 664.064 679.3000000000001 586.0820000000001 615.768 532.26C606.224 524.156 600.057 512.554 600.046 500.0339999999999C600.046 487.4939999999999 606.207 475.821 615.768 467.7089999999999C679.307 413.882 705.002 335.909 714.987 273.276C721.162 234.543 724.278 215.159 710.007 195.1510000000001C708.291 192.747 705.3720000000001 189.3129999999999 703.268 187.241C685.752 169.984 662.606 169.9550000000001 616.354 169.9550000000001H383.64C337.391 169.9550000000001 314.241 169.9820000000001 296.725 187.241C294.622 189.3129999999999 291.702 192.7479999999999 289.987 195.1510000000001C275.7200000000001 215.158 278.832 234.5460000000001 285.007 273.276C294.992 335.909 320.687 413.882 384.225 467.7089999999999C393.79 475.821 400.0460000000001 487.4920000000001 400.0460000000001 500.0339999999999C400.0350000000001 512.556 393.773 524.156 384.225 532.26C320.693 586.0820000000001 294.994 664.064 285.007 726.694C278.8330000000001 765.418 275.735 784.817 289.987 804.819C291.6980000000001 807.216 294.623 810.655 296.725 812.729C314.241 829.987 337.391 830.014 383.64 830.014L616.354 830.014zM500.046 439.975C432.285 439.9460000000001 391.17 374.2820000000001 372.3110000000001 310.19C365.5130000000001 287.0840000000001 362.134 275.512 368.991 264.194C369.844 262.791 371.215 260.924 372.3110000000001 259.702C381.165 249.834 394.7560000000001 249.737 421.9210000000001 249.545C471.869 249.192 527.924 249.192 577.878 249.545C605.081 249.738 618.7299999999999 249.841 627.585 259.702C628.676 260.918 630.053 262.7 630.905 264.096C637.794 275.4120000000001 634.37 287.04 627.585 310.19C608.797 374.2860000000001 567.882 439.975 500.046 439.975z" />
    <glyph glyph-name="Editing_Tools_cursor-default"
      unicode="&#xEA14;"
      horiz-adv-x="1000" d="M317.534 823.894C348.6860000000001 834.967 386.6 805.226 462.333 745.772L638.639 607.285C725.119 539.394 768.387 505.444 763.033 470.752C762.312 466.096 761.018 461.523 759.231 457.163C752.5459999999999 440.8680000000001 735.489 431.0850000000001 706.37 423.683C655.6709999999999 410.794 630.321 404.35 622.081 388.294C620.856 385.908 620.0459999999999 383.88 619.29 381.307C614.202 363.992 626.773 344.0229999999999 651.914 304.086L656.669 296.5320000000001C682.247 255.8530000000001 666.837 201.966 623.646 180.9C580.456 159.8459999999999 528.586 180.9110000000001 512.283 226.11L509.2209999999999 234.5900000000001C493.203 278.957 485.193 301.14 468.4160000000001 307.779C465.923 308.766 463.826 309.375 461.192 309.877C443.469 313.2580000000001 422.805 297.254 381.479 265.245C357.68 246.812 339.4460000000001 239.3690000000001 322.473 244.142C317.945 245.4170000000001 313.53 247.218 309.423 249.512C278.8110000000001 266.665 278.675 321.674 278.4190000000001 431.5940000000001L277.9220000000001 655.829C277.698 752.118 277.594 800.304 305.509 818.029C309.2820000000001 820.421 313.325 822.396 317.534 823.894z" />
    <glyph glyph-name="Editing_Tools_cursor-default2"
      unicode="&#xEA15;"
      horiz-adv-x="1000" d="M326.6430000000001 782.8720000000001C357.7970000000001 793.957 395.7 764.211 471.442 704.75L617.584 590.014C714.482 513.9449999999999 762.98 475.904 755.908 439.8480000000001C754.969 435.0660000000001 753.424 430.42 751.36 426.004C735.78 392.7290000000001 674.187 390.628 551.068 386.445C536.058 385.923 521.9159999999999 379.274 511.94 368.0470000000001L486.665 339.605C407.965 251.1230000000001 368.588 206.8870000000001 333.452 215.549C328.771 216.7049999999999 324.233 218.466 319.963 220.7049999999999C287.94 237.5320000000001 287.784 296.7200000000001 287.508 415.1180000000001L287.032 614.806C286.807 711.101 286.7030000000001 759.282 314.618 777.0070000000001C318.394 779.404 322.429 781.37 326.6430000000001 782.8720000000001z" />
    <glyph glyph-name="Editing_Tools_cursor-diagonal-resize"
      unicode="&#xEA16;"
      horiz-adv-x="1000" d="M262.395 744.165C275.765 755.233 295.581 755.677 335.039 756.595L389.246 757.907C427.7910000000001 758.803 447.096 759.192 457.816 754.109C479.527 743.797 490.851 719.491 484.747 696.242C483.684 692.1949999999999 481.405 687.777 477.782 682.485C463.092 661.027 455.747 650.298 455.972 640.6320000000001C456.0069999999999 639.123 456.112 637.9849999999999 456.356 636.496C457.913 626.953 465.715 619.152 481.318 603.549L603.564 481.302C619.168 465.6990000000001 626.9689999999999 457.897 636.5120000000001 456.3390000000001C638.0010000000001 456.096 639.139 455.991 640.648 455.9549999999999C650.314 455.731 661.043 463.076 682.501 477.765C687.793 481.388 692.211 483.667 696.2570000000001 484.731C719.52 490.845 743.888 479.465 754.193 457.732C759.2629999999999 447.009 758.818 427.731 757.922 389.231L756.679 334.955C755.762 295.4970000000001 755.249 275.749 744.181 262.38C742.1859999999999 259.973 739.959 257.743 737.551 255.75C724.186 244.698 704.464 244.2370000000001 665.0450000000001 243.3210000000001L610.769 242.078C572.2620000000001 241.182 552.998 240.7440000000001 542.268 245.807C520.535 256.112 509.155 280.48 515.269 303.743C516.341 307.785 518.622 312.202 522.243 317.492C536.9309999999999 338.953 544.275 349.683 544.05 359.348C544.015 360.857 543.909 361.995 543.6659999999999 363.4839999999999C542.108 373.0260000000001 534.304 380.8290000000001 518.698 396.4360000000001L396.451 518.682C380.846 534.287 373.043 542.0899999999999 363.501 543.648C362.012 543.891 360.874 543.997 359.366 544.0319999999999C349.7 544.2570000000001 338.97 536.913 317.51 522.224C312.219 518.603 307.802 516.3230000000001 303.7580000000001 515.2529999999999C280.5 509.141 256.2 520.459 245.891 542.184C240.808 552.905 241.197 572.196 242.093 610.754L243.405 664.961C244.323 704.4069999999999 244.7080000000001 724.1659999999999 255.766 737.5360000000001C257.7580000000001 739.943 259.989 742.172 262.395 744.165z" />
    <glyph glyph-name="Editing_Tools_cursor-diagonal-resize2"
      unicode="&#xEA17;"
      horiz-adv-x="1000" d="M744.191 737.604C755.259 724.2339999999999 755.703 704.418 756.621 664.9590000000001L757.933 610.752C758.829 572.2070000000001 759.217 552.902 754.135 542.182C743.823 520.472 719.517 509.147 696.268 515.252C692.221 516.315 687.803 518.5930000000001 682.511 522.2159999999999C661.053 536.9069999999999 650.324 544.252 640.658 544.027C639.149 543.992 638.011 543.886 636.5219999999999 543.643C626.979 542.085 619.178 534.284 603.575 518.681L481.328 396.434C465.725 380.831 457.923 373.029 456.365 363.4870000000001C456.122 361.9970000000001 456.0170000000001 360.8590000000001 455.981 359.351C455.757 349.6850000000001 463.101 338.955 477.7910000000001 317.497C481.414 312.205 483.693 307.7870000000001 484.757 303.741C490.871 280.478 479.491 256.11 457.758 245.8050000000001C447.035 240.736 427.757 241.1810000000001 389.257 242.077L334.981 243.319C295.523 244.2370000000001 275.7750000000001 244.75 262.406 255.818C259.999 257.812 257.77 260.04 255.776 262.447C244.724 275.813 244.264 295.534 243.347 334.953L242.104 389.2290000000001C241.208 427.7370000000001 240.77 447.001 245.8330000000001 457.73C256.1380000000001 479.4640000000001 280.5060000000001 490.843 303.769 484.73C307.8110000000001 483.658 312.228 481.377 317.5180000000001 477.756C338.979 463.067 349.709 455.723 359.374 455.9490000000001C360.8830000000001 455.984 362.021 456.0889999999999 363.51 456.333C373.052 457.891 380.855 465.694 396.462 481.301L518.708 603.548C534.313 619.153 542.116 626.955 543.674 636.4970000000001C543.917 637.987 544.0229999999999 639.124 544.058 640.633C544.283 650.299 536.939 661.029 522.25 682.489C518.6289999999999 687.779 516.349 692.1959999999999 515.279 696.241C509.167 719.499 520.485 743.799 542.21 754.107C552.9309999999999 759.191 572.222 758.802 610.78 757.905L664.987 756.593C704.433 755.676 724.192 755.2909999999999 737.562 744.233C739.9689999999999 742.24 742.197 740.009 744.191 737.604z" />
    <glyph glyph-name="Editing_Tools_cursor-help"
      unicode="&#xEA18;"
      horiz-adv-x="1000" d="M247.5 823.863C278.651 834.947 316.599 805.187 392.325 745.738C399.917 739.777 404.92 731.168 406.875 721.715C420.343 656.557 451.644 607.25 482.852 572.691C498.973 554.847 515.139 540.858 528.848 530.406C533.193 527.0920000000001 536.627 522.72 538.809 517.711C542.962 508.163 542.898 497.121 538.614 487.633C530.407 469.505 525.836 449.581 525.821 429.332V429.2340000000001C525.841 395.6900000000001 538.048 363.087 559.219 337.828C562.692 333.6859999999999 564.477 331.588 565.274 330.504C565.447 330.2670000000001 565.499 330.25 565.664 330.016C566.434 328.93 567.3739999999999 327.3590000000001 569.278 324.254C573.0310000000001 318.1320000000001 577.2330000000001 311.413 581.875 304.039L586.661 296.4220000000001C612.188 255.765 596.884 201.971 553.75 180.894C510.586 159.8580000000001 458.658 180.867 442.3250000000001 226.012L439.2000000000001 234.5080000000001C423.1810000000001 278.874 415.156 301.111 398.379 307.75C395.91 308.7240000000001 393.767 309.302 391.153 309.8010000000001C373.441 313.14 352.753 297.1479999999999 311.4650000000001 265.1720000000001C287.685 246.7620000000001 269.441 239.31 252.481 244.078C247.962 245.353 243.592 247.159 239.493 249.449C208.851 266.5740000000001 208.694 321.572 208.438 431.48L207.95 655.797C207.725 752.04 207.6 800.269 235.489 818.004C239.251 820.392 243.304 822.364 247.5 823.863zM662.93 479.1369999999999C688.896 479.126 709.9770000000001 456.841 710 429.332C710 401.802 688.911 379.4400000000001 662.93 379.43C636.95 379.4410000000001 615.86 401.803 615.86 429.332C615.883 456.8399999999999 636.964 479.125 662.93 479.1369999999999zM662.93 850.035C740.449 850.025 810.0360000000001 794.231 810 712.828L809.61 700.328C807.6560000000001 671.691 798.997 647.665 785.293 627.867C770.378 606.345 751.4540000000001 592.803 737.149 583.7270000000001C730.4630000000001 579.486 722.478 574.8700000000001 717.911 572.105C712.178 568.625 708.739 562.312 706.094 555.894C698.84 538.2760000000001 682.2230000000001 525.923 662.93 525.914C636.965 525.943 615.957 548.298 615.957 575.816C615.978 610.107 634.7489999999999 631.8140000000001 650.039 644.1759999999999C657.307 650.0440000000001 665.066 654.896 671.231 658.629C678.368 662.9490000000001 683.018 665.6 688.809 669.273C699.444 676.0219999999999 705.599 681.36 709.414 686.8520000000001C712.469 691.279 715.951 698.5160000000001 715.957 712.9259999999999L715.274 718.004C712.263 730.9259999999999 697.985 750.32 662.93 750.328C643.4689999999999 750.318 630.8670000000001 744.325 622.5 736.9490000000001C613.7760000000001 729.2460000000001 606.663 717.261 602.774 700.816C596.4699999999999 674.111 570.851 657.918 545.645 664.586C520.48 671.2850000000001 505.196 698.259 511.465 724.937C519.3430000000001 758.302 535.711 790.0699999999999 562.247 813.512C589.149 837.25 623.659 850.024 662.93 850.035z" />
    <glyph glyph-name="Editing_Tools_cursor-help2"
      unicode="&#xEA19;"
      horiz-adv-x="1000" d="M240.3030000000001 780.243C271.449 791.292 309.4190000000001 761.553 385.127 702.1179999999999C387.918 699.929 389.3130000000001 698.812 390.401 697.822C396.937 691.863 400.543 685.742 402.51 677.1179999999999C402.837 675.671 403.182 673.313 403.8770000000001 668.72C415.041 595.042 449.103 540.21 482.979 502.7040000000001C499.036 484.9350000000001 515.113 471.04 528.779 460.614C533.149 457.282 536.559 452.768 538.74 447.7240000000001C542.884 438.1280000000001 542.7940000000001 427.098 538.545 417.548C538.331 417.068 538.1669999999999 416.5660000000001 537.9590000000001 416.083C532.471 403.372 520.843 393.731 507.0020000000001 393.525C489.5120000000001 393.2820000000001 470.3750000000001 393.124 449.58 393.0360000000001C444.356 393.033 439.318 390.742 435.908 386.7860000000001L401.729 346.8450000000001C322.829 254.8440000000001 283.257 208.823 247.725 217.1570000000001C243.015 218.271 238.359 220.0269999999999 234.0530000000001 222.236C201.633 238.979 201.425 299.6800000000001 201.143 420.8680000000001L200.752 612.177C200.528 708.44 200.403 756.645 228.2910000000001 774.384C232.046 776.766 236.115 778.748 240.3030000000001 780.243zM662.9590000000001 409.15C688.907 409.122 709.998 386.836 710.029 359.3450000000001C710.029 331.826 688.926 309.4699999999999 662.9590000000001 309.443C636.979 309.4540000000001 615.889 331.8160000000001 615.889 359.3450000000001C615.9200000000001 386.846 636.998 409.1380000000001 662.9590000000001 409.15zM662.9590000000001 779.95C740.478 779.94 810.0649999999999 724.244 810.0289999999999 642.841L809.6389999999999 630.341C807.686 601.69 798.9390000000001 577.684 785.225 557.88C770.303 536.35 751.388 522.816 737.08 513.739C730.404 509.506 722.503 504.88 717.94 502.118C712.202 498.644 708.77 492.324 706.123 485.907C698.869 468.289 682.252 455.936 662.9590000000001 455.927C638.1560000000001 455.938 618.068 476.316 616.279 502.118C616.667 496.6249999999999 617.6750000000001 491.3459999999999 619.6 486.4930000000001L619.5020000000001 486.396C617.147 492.324 615.899 498.903 615.889 505.732L616.0840000000001 508.9540000000001C617.209 541.433 635.251 562.2090000000001 650.068 574.189C657.334 580.053 665.1 584.912 671.26 588.642C678.3870000000001 592.956 683.053 595.52 688.838 599.189C699.479 605.941 705.529 611.3710000000001 709.346 616.865C712.4050000000001 621.2909999999999 715.884 628.5 715.889 642.9390000000001L715.303 648.017C712.287 660.939 698.006 680.333 662.9590000000001 680.341C643.48 680.337 630.901 674.244 622.529 666.865C613.819 659.164 606.689 647.251 602.803 630.829C596.502 604.126 570.878 587.843 545.674 594.501C520.489 601.1859999999999 505.124 628.26 511.397 654.95C519.277 688.325 535.726 720.081 562.2760000000001 743.525C589.184 767.269 623.675 779.9459999999999 662.9590000000001 779.95z" />
    <glyph glyph-name="Editing_Tools_cursor-horizontal-resize"
      unicode="&#xEA1A;"
      horiz-adv-x="1000" d="M159.338 504.629C160.965 521.9089999999999 174.664 536.235 201.916 564.7850000000001L239.318 604.043C265.94 631.933 279.316 645.858 290.49 649.844C313.1330000000001 657.904 338.3280000000001 648.725 350.451 627.969C352.561 624.356 354.074 619.6210000000001 355.254 613.317C360.039 587.756 362.432 574.976 369.426 568.3C370.518 567.258 371.3970000000001 566.528 372.622 565.646C380.4720000000001 560 391.504 560 413.57 560H586.453C608.52 560 619.553 560 627.402 565.646C628.627 566.5269999999999 629.5060000000001 567.2570000000001 630.598 568.299C637.592 574.9749999999999 639.985 587.756 644.771 613.316C645.951 619.62 647.4639999999999 624.355 649.572 627.969C661.6990000000001 648.741 686.976 657.925 709.631 649.844C720.797 645.847 734.114 631.9010000000001 760.705 604.043L798.205 564.7850000000001C825.4569999999999 536.235 839.058 521.9089999999999 840.6850000000001 504.629C840.977 501.5170000000001 840.978 498.366 840.6850000000001 495.254C839.05 477.9880000000001 825.4300000000001 463.717 798.205 435.1960000000001L760.705 395.938C734.109 368.076 720.798 354.144 709.631 350.137C686.976 342.0560000000001 661.6990000000001 351.24 649.572 372.012C647.472 375.6280000000001 645.962 380.365 644.781 386.6660000000001C639.993 412.2270000000001 637.5980000000001 425.0079999999999 630.604 431.683C629.513 432.725 628.634 433.454 627.408 434.336C619.56 439.981 608.524 439.981 586.453 439.981H413.57C391.5010000000001 439.981 380.4670000000001 439.981 372.618 434.3350000000001C371.393 433.454 370.513 432.724 369.4220000000001 431.682C362.428 425.007 360.034 412.2270000000001 355.246 386.665C354.066 380.3639999999999 352.554 375.6280000000001 350.451 372.012C338.327 351.2440000000001 313.141 342.064 290.49 350.137C279.314 354.124 265.949 368.039 239.318 395.938L201.916 435.1960000000001C174.672 463.737 160.972 477.981 159.338 495.254C159.045 498.365 159.046 501.518 159.338 504.629z" />
    <glyph glyph-name="Editing_Tools_cursor-link"
      unicode="&#xEA1B;"
      horiz-adv-x="1000" d="M450.015 819.963C483.145 819.9549999999999 509.975 793.134 509.976 760.002V713.518C509.9929999999999 685.579 509.969 671.5509999999999 515.1519999999999 659.904C518.697 651.962 523.933 644.825 530.484 639.104C540.093 630.716 553.484 626.6179999999999 580.191 618.401C651.185 596.556 686.76 585.6279999999999 709.683 562.5409999999999C725.243 546.865 736.505 527.453 742.496 506.194C751.32 474.8789999999999 743.3589999999999 438.611 727.457 366.057L723.062 345.7440000000001C709.623 284.43 702.871 253.76 684.1949999999999 232.463C675.793 222.885 665.761 214.887 654.605 208.733C629.802 195.0509999999999 598.437 194.9630000000001 535.6600000000001 194.9630000000001C485.13 194.9630000000001 459.811 194.9920000000001 436.7340000000001 202.678C426.257 206.17 416.213 210.8439999999999 406.754 216.545C385.924 229.106 369.444 248.3290000000001 336.636 286.76L310.172 317.717L216.031 419.182C193.504 443.4580000000001 194.899 481.402 219.156 503.9469999999999C243.431 526.488 281.371 525.083 303.922 500.8219999999999C317.705 485.975 324.597 478.551 329.602 475.5930000000001C352.006 462.348 380.8930000000001 473.6900000000001 388.302 498.64C389.957 504.213 389.957 514.342 389.957 534.6020000000001V729.973C389.957 730 389.979 730.0219999999999 390.005 730.0219999999999C390.032 730.0219999999999 390.054 730.044 390.054 730.0699999999999V760.002C390.055 793.139 416.879 819.963 450.015 819.963z" />
    <glyph glyph-name="Editing_Tools_cursor-loading"
      unicode="&#xEA1C;"
      horiz-adv-x="1000" d="M247.509 823.828C278.656 834.8910000000001 316.525 805.139 392.235 745.703L486.278 671.973C488.614 670.139 490.559 667.946 492.138 665.4300000000001C497.989 656.082 498.029 643.99 492.138 634.668C477.2809999999999 611.233 467.706 587.138 461.669 565.918C458.551 554.9549999999999 452.059 533.573 450.7310000000001 512.207C448.9830000000001 483.866 455.663 457.138 471.1420000000001 432.129C475.347 425.338 481.285 417.4360000000001 486.669 411.523C487.169 410.975 487.727 410.399 488.2310000000001 409.8630000000001C541.532 353.2580000000001 568.214 324.9700000000001 569.579 323.2420000000001C570.906 321.5610000000001 568.8710000000001 324.168 570.165 322.461C571.485 320.719 573.7320000000001 317.086 578.27 309.8630000000001C579.442 307.9989999999999 580.6510000000001 306.06 581.884 304.102L586.571 296.4839999999999C612.131 255.8200000000001 596.8149999999999 202.0360000000001 553.661 180.9570000000001C510.4829999999999 159.913 458.552 180.9010000000001 442.235 226.0740000000001L439.11 234.57C423.114 278.875 415.131 301.057 398.3880000000001 307.7149999999999C395.916 308.692 393.772 309.3639999999999 391.161 309.8630000000001C373.445 313.2200000000001 352.681 297.2240000000001 311.3760000000001 265.2339999999999C287.594 246.822 269.353 239.371 252.392 244.1410000000001C247.889 245.4150000000001 243.4890000000001 247.2290000000001 239.403 249.512C208.806 266.67 208.605 321.664 208.349 431.543L207.86 655.762C207.636 751.975 207.551 800.21 235.399 817.969C239.168 820.362 243.304 822.328 247.509 823.828zM712.06 844.043C750.634 844.043 769.947 844.006 784.813 827.7339999999999C786.471 825.9159999999999 789.084 822.405 790.38 820.312C801.999 801.55 797.956 787.201 789.794 758.496C782.308 732.169 768.9350000000001 704.762 745.458 684.375C735.283 675.534 727.8870000000001 663.38 727.88 649.902C727.88 636.4259999999999 735.289 624.2729999999999 745.458 615.4300000000001C768.931 595.0459999999999 782.307 567.631 789.794 541.309C797.961 512.587 802.003 498.162 790.38 479.395C789.076 477.299 786.461 473.877 784.813 472.0699999999999C769.944 455.7769999999999 750.651 455.7619999999999 712.06 455.7619999999999H625.927C587.343 455.7619999999999 568.04 455.7660000000001 553.173 472.0699999999999C551.522 473.881 548.908 477.3 547.606 479.395C535.984 498.162 540.123 512.587 548.29 541.309C555.7769999999999 567.626 569.061 595.051 592.528 615.4300000000001C602.707 624.275 610.204 636.418 610.204 649.902C610.197 663.386 602.71 675.5329999999999 592.528 684.375C569.053 704.762 555.776 732.17 548.29 758.496C540.126 787.206 535.995 801.553 547.606 820.312C548.902 822.405 551.515 825.9159999999999 553.173 827.7339999999999C568.037 844.017 587.361 844.043 625.927 844.043H712.06z" />
    <glyph glyph-name="Editing_Tools_cursor-loading2"
      unicode="&#xEA1D;"
      horiz-adv-x="1000" d="M286.648 782.882C317.794 793.925 355.767 764.19 431.473 704.7570000000001L451.687 688.8389999999999C456.529 685.048 459.959 679.81 461.648 673.898C463.596 667.048 465.838 659.828 468.582 652.511C481.736 617.427 488.401 599.898 488.699 591.769C488.777 589.62 488.775 590.3050000000001 488.699 588.155C488.401 580.019 481.8050000000001 562.4110000000001 468.68 527.316C465.932 519.9659999999999 463.604 512.8009999999999 461.648 505.929C458.5309999999999 494.967 452.04 473.578 450.711 452.218C449.706 435.938 451.447 420.1430000000001 456.082 404.952C461.864 386.0260000000001 460.8920000000001 364.6510000000001 448.074 349.581C369.149 257.55 329.61 211.4480000000001 294.07 219.7960000000001C289.344 220.913 284.718 222.655 280.398 224.874C247.952 241.6 247.771 302.274 247.4880000000001 423.5070000000001L247.098 614.816C246.873 711.054 246.747 759.29 274.637 777.023C278.391 779.402 282.463 781.388 286.648 782.882zM712.039 783.956C750.651 783.956 769.9200000000001 783.957 784.793 767.648C786.446 765.835 789.0600000000001 762.417 790.359 760.323C801.9780000000001 741.563 797.934 727.208 789.773 698.5070000000001C782.288 672.1800000000001 768.914 644.773 745.437 624.386C735.269 615.548 727.872 603.383 727.859 589.913C727.859 576.424 735.2529999999999 564.1890000000001 745.437 555.343C768.905 534.9639999999999 782.2860000000001 507.637 789.773 481.319C797.94 452.598 801.982 438.173 790.359 419.405C789.0550000000001 417.309 786.4399999999999 413.8880000000001 784.793 412.081C769.922 395.789 750.6370000000001 395.773 712.039 395.773H626.004C587.389 395.773 568.025 395.769 553.152 412.081C551.498 413.91 548.872 417.334 547.586 419.405C535.963 438.173 540.1030000000001 452.598 548.269 481.319C555.7529999999999 507.621 569.0649999999999 534.969 592.508 555.343C602.695 564.1890000000001 610.184 576.421 610.184 589.913C610.1709999999999 603.392 602.687 615.547 592.508 624.386C569.044 644.771 555.7529999999999 672.188 548.269 698.5070000000001C540.109 727.205 535.977 741.568 547.586 760.323C548.874 762.403 551.4929999999999 765.821 553.152 767.648C568.025 783.96 587.389 783.956 626.004 783.956H712.039zM540.848 448.8000000000001C540.89 449.2670000000001 540.888 449.7919999999999 540.9449999999999 450.265L543.0939999999999 462.179C541.95 457.366 541.251 452.923 540.848 448.8000000000001z" />
    <glyph glyph-name="Editing_Tools_cursor-move"
      unicode="&#xEA1E;"
      horiz-adv-x="1000" d="M511.02 859.846C524.455 856.812 535.872 845.861 558.774 824.104L591 793.538C613.037 772.6030000000001 624.0219999999999 762.108 628.0120000000001 753.694C639.902 728.605 629.073 698.692 603.891 686.995C601.3480000000001 685.817 598.199 684.895 594.212 684.125C572.984 680.028 562.369 677.979 556.848 672.159C555.985 671.249 555.3829999999999 670.52 554.653 669.5C549.985 662.975 549.985 653.825 549.985 635.525V597.483C549.985 576.335 549.985 565.76 555.975 558.747C556.825 557.751 557.753 556.8240000000001 558.749 555.973C565.762 549.983 576.336 549.983 597.485 549.983H635.5260000000001C653.8439999999999 549.983 663.0029999999999 549.983 669.5319999999999 554.6610000000001C670.552 555.392 671.283 555.9960000000001 672.192 556.86C678.015 562.393 680.045 572.999 684.107 594.212C684.88 598.2470000000001 685.808 601.429 686.996 603.9870000000001C698.712 629.13 728.624 639.894 753.6959999999999 628.011C762.11 624.021 772.605 613.035 793.539 590.999L824.1059999999999 558.7719999999999C845.861 535.8720000000001 856.813 524.453 859.8480000000001 511.018C861.485 503.7670000000001 861.486 496.199 859.8480000000001 488.948C856.8059999999999 475.524 845.8500000000001 464.082 824.1059999999999 441.1940000000001L793.539 408.9680000000001C772.613 386.94 762.1080000000001 375.9450000000001 753.6959999999999 371.956C728.6089999999999 360.074 698.692 370.9010000000001 686.996 396.077C685.816 398.6189999999999 684.8919999999999 401.7680000000001 684.122 405.756C680.024 426.985 677.975 437.599 672.154 443.12C671.244 443.9840000000001 670.515 444.5850000000001 669.496 445.315C662.971 449.9830000000001 653.8230000000001 449.9830000000001 635.5260000000001 449.9830000000001H597.485C576.336 449.9830000000001 565.762 449.9830000000001 558.749 443.9930000000001C557.753 443.1430000000001 556.825 442.2150000000001 555.975 441.219C549.985 434.206 549.985 423.6320000000001 549.985 402.483V364.442C549.985 346.1280000000001 549.985 336.971 554.6719999999999 330.438C555.403 329.4190000000001 556.011 328.6850000000001 556.876 327.7770000000001C562.419 321.952 573.019 319.938 594.219 315.9110000000001C598.202 315.154 601.3499999999999 314.2420000000001 603.891 313.0690000000001C629.076 301.371 639.91 271.3640000000001 628.0120000000001 246.2720000000001C624.015 237.861 613.0219999999999 227.349 591 206.429L558.774 175.8620000000001C535.888 154.12 524.448 143.2539999999999 511.02 140.218C503.766 138.579 496.203 138.579 488.95 140.218C475.5309999999999 143.2639999999999 464.076 154.126 441.196 175.8620000000001L408.969 206.429C386.938 227.3590000000001 375.949 237.8590000000001 371.957 246.2720000000001C360.059 271.3640000000001 370.892 301.371 396.0780000000001 313.0690000000001C398.6190000000001 314.246 401.766 315.159 405.749 315.916C426.95 319.945 437.5510000000001 321.9590000000001 443.094 327.784C443.959 328.692 444.5660000000001 329.4260000000001 445.297 330.4450000000001C449.985 336.9780000000001 449.985 346.1330000000001 449.985 364.442V402.483C449.985 423.6320000000001 449.985 434.206 443.995 441.219C443.144 442.2150000000001 442.2170000000001 443.1430000000001 441.221 443.9930000000001C434.2080000000001 449.9830000000001 423.633 449.9830000000001 402.485 449.9830000000001H364.443C346.134 449.9830000000001 336.979 449.9830000000001 330.4460000000001 445.2960000000001C329.427 444.565 328.693 443.957 327.785 443.093C321.96 437.549 319.9460000000001 426.9490000000001 315.918 405.7480000000001C315.161 401.765 314.247 398.6170000000001 313.0710000000001 396.077C301.373 370.8920000000001 271.365 360.0590000000001 246.274 371.956C237.86 375.948 227.362 386.934 206.43 408.9680000000001L175.864 441.1940000000001C154.128 464.074 143.266 475.53 140.219 488.948C138.581 496.202 138.581 503.765 140.219 511.018C143.255 524.447 154.121 535.886 175.864 558.7719999999999L206.43 590.999C227.35 613.019 237.863 624.0139999999999 246.274 628.011C271.366 639.909 301.373 629.076 313.0710000000001 603.889C314.2440000000001 601.3489999999999 315.156 598.201 315.9120000000001 594.218C319.94 573.018 321.953 562.418 327.778 556.874C328.686 556.009 329.42 555.402 330.439 554.671C336.972 549.983 346.129 549.983 364.443 549.983H402.485C423.633 549.983 434.2080000000001 549.983 441.221 555.973C442.2170000000001 556.8240000000001 443.144 557.751 443.995 558.747C449.985 565.76 449.985 576.335 449.985 597.483V635.525C449.985 653.8209999999999 449.985 662.969 445.317 669.4939999999999C444.5870000000001 670.514 443.985 671.2429999999999 443.122 672.153C437.601 677.973 426.9860000000001 680.0219999999999 405.757 684.12C401.77 684.89 398.621 685.8140000000001 396.0780000000001 686.995C370.901 698.69 360.076 728.607 371.957 753.694C375.946 762.106 386.942 772.612 408.969 793.538L441.196 824.104C464.085 845.849 475.525 856.804 488.95 859.846C496.201 861.485 503.768 861.484 511.02 859.846z" />
    <glyph glyph-name="Editing_Tools_cursor-pen"
      unicode="&#xEA1F;"
      horiz-adv-x="1000" d="M645.621 241.2770000000001C669.049 217.877 706.994 217.87 730.418 241.2770000000001L758.73 269.5890000000001C782.1419999999999 293.012 782.1320000000001 330.956 758.73 354.386C742.196 370.921 733.929 379.188 724.323 382.0940000000001C716.77 384.378 708.711 384.378 701.159 382.0940000000001C691.553 379.188 683.2860000000001 370.921 666.751 354.386L645.621 333.256C629.086 316.721 620.819 308.454 617.913 298.848C615.629 291.2960000000001 615.629 283.237 617.913 275.6840000000001C620.819 266.078 629.086 257.8109999999999 645.621 241.2770000000001zM235.029 764.149C222.658 751.778 219.799 732.76 227.917 717.262L284.886 608.365C289.579 599.404 295.687 591.211 302.84 584.058L482.224 404.674C506.151 380.7470000000001 518.114 368.783 532.826 367.625C534.915 367.461 537.0129999999999 367.461 539.102 367.625C553.8140000000001 368.783 565.777 380.7470000000001 589.704 404.674L595.333 410.303C619.26 434.23 631.224 446.193 632.3820000000001 460.905C632.5459999999999 462.994 632.5459999999999 465.092 632.3820000000001 467.1809999999999C631.224 481.893 619.26 493.856 595.333 517.783L415.949 697.167C408.796 704.3199999999999 400.603 710.428 391.642 715.121L282.745 772.0899999999999C267.247 780.2080000000001 248.229 777.3489999999999 235.858 764.978L235.029 764.149z" />
    <glyph glyph-name="Editing_Tools_cursor-precision-select"
      unicode="&#xEA20;"
      horiz-adv-x="1000" d="M559.985 229.887C559.985 196.7719999999999 533.14 169.9260000000001 500.024 169.9260000000001C466.909 169.9260000000001 440.063 196.7719999999999 440.063 229.887V300.005C440.063 333.12 466.909 359.966 500.024 359.966C533.14 359.966 559.985 333.12 559.985 300.005V229.887zM500.024 570.024C538.6709999999999 570.009 570.0440000000001 538.655 570.0440000000001 500.005C570.0440000000001 461.354 538.6709999999999 430.001 500.024 429.985C461.364 429.985 430.005 461.345 430.005 500.005C430.005 538.664 461.365 570.024 500.024 570.024zM360.0830000000001 500.005C360.0830000000001 466.889 333.238 440.044 300.122 440.044H230.005C196.889 440.044 170.044 466.889 170.044 500.005C170.044 533.12 196.889 559.966 230.005 559.966H300.122C333.238 559.966 360.0830000000001 533.12 360.0830000000001 500.005zM830.1030000000001 500.005C830.1030000000001 466.889 803.257 440.044 770.1419999999999 440.044H700.024C666.909 440.044 640.063 466.889 640.063 500.005C640.063 533.12 666.909 559.966 700.024 559.966H770.1419999999999C803.257 559.966 830.1030000000001 533.12 830.1030000000001 500.005zM559.985 699.907C559.985 666.7909999999999 533.14 639.9459999999999 500.024 639.9459999999999C466.909 639.9459999999999 440.063 666.7909999999999 440.063 699.907V770.024C440.063 803.14 466.909 829.985 500.024 829.985C533.14 829.985 559.985 803.14 559.985 770.024V699.907z" />
    <glyph glyph-name="Editing_Tools_cursor-text-select"
      unicode="&#xEA21;"
      horiz-adv-x="1000" d="M629.98 804.98C660.347 804.97 685.0590000000001 780.369 685.0590000000001 750C685.0590000000001 719.631 660.347 695.03 629.98 695.02C597.106 695.02 580.668 695.02 569.605 685.94C567.5790000000001 684.278 565.722 682.421 564.0600000000001 680.395C554.98 669.332 554.98 652.894 554.98 620.02V379.98C554.98 347.106 554.98 330.668 564.0600000000001 319.605C565.722 317.5790000000001 567.5790000000001 315.722 569.605 314.0600000000001C580.668 304.98 597.106 304.98 629.98 304.98C660.347 304.9699999999999 685.0590000000001 280.3689999999999 685.0590000000001 250C685.0590000000001 219.6310000000001 660.347 195.0300000000001 629.98 195.0200000000001H370.0200000000001C339.644 195.0200000000001 315.039 219.624 315.039 250C315.039 280.376 339.644 304.98 370.0200000000001 304.98C402.8940000000001 304.98 419.332 304.98 430.3950000000001 314.0600000000001C432.421 315.722 434.278 317.5790000000001 435.94 319.605C445.02 330.668 445.02 347.106 445.02 379.98V620.02C445.02 652.894 445.02 669.332 435.94 680.395C434.278 682.421 432.421 684.278 430.3950000000001 685.94C419.332 695.02 402.8940000000001 695.02 370.0200000000001 695.02C339.644 695.02 315.039 719.624 315.039 750C315.039 780.376 339.644 804.98 370.0200000000001 804.98H629.98z" />
    <glyph glyph-name="Editing_Tools_cursor-unavailable"
      unicode="&#xEA22;"
      horiz-adv-x="1000" d="M247.592 823.828C261.333 828.712 276.406 825.674 295.444 815.625C305.05 810.5550000000001 309.876 807.995 318.3930000000001 800.684C319.334 799.875 321.215 798.207 322.104 797.364C330.239 789.641 335.253 782.0840000000001 345.248 767.09L436.166 630.664C437.7500000000001 628.289 439.0590000000001 625.587 439.877 622.8520000000001C442.837 612.927 439.934 602.358 433.627 594.1410000000001C391.54 539.283 395.645 460.402 445.737 410.157L445.834 410.0590000000001V409.961C455.523 400.284 466.32 392.362 477.768 386.1329999999999C514.5120000000001 366.1380000000001 559.682 339.404 581.967 304.004L586.752 296.485C612.282 255.833 596.9630000000001 201.9440000000001 553.842 180.86C510.665 159.8010000000001 458.6439999999999 180.903 442.319 226.075L439.291 234.4730000000001C423.2820000000001 278.8140000000001 415.228 301.062 398.471 307.7149999999999C395.9940000000001 308.695 393.859 309.2660000000001 391.2440000000001 309.7660000000001C373.524 313.139 352.875 297.136 311.557 265.137C287.7940000000001 246.735 269.521 239.308 252.573 244.043C248.061 245.315 243.677 247.228 239.5840000000001 249.512C208.945 266.644 208.786 321.612 208.53 431.543L207.944 655.762C207.719 752.052 207.665 800.245 235.58 817.969C239.35 820.361 243.3870000000001 822.329 247.592 823.828zM725.717 760.547C745.2429999999999 780.043 776.903 780.056 796.42 760.547C815.9150000000001 741.029 815.9110000000001 709.365 796.42 689.844L763.901 657.422C745.9590000000001 639.48 737.037 630.465 736.1659999999999 619.434C736.044 617.875 736.0450000000001 616.306 736.1659999999999 614.7460000000001C737.034 603.7149999999999 745.961 594.698 763.901 576.758L796.42 544.336C815.9219999999999 524.8199999999999 815.9100000000001 493.157 796.42 473.6329999999999C776.898 454.12 745.242 454.1229999999999 725.717 473.6329999999999L693.197 506.055C675.2729999999999 523.979 666.3249999999999 533.005 655.307 533.887C653.74 534.01 652.088 534.01 650.5219999999999 533.887C639.508 532.999 630.5519999999999 523.9760000000001 612.631 506.055L580.209 473.6329999999999C560.69 454.114 529.034 454.129 509.506 473.6329999999999C489.9879999999999 493.16 489.9829999999999 524.813 509.506 544.336L541.928 576.758C559.8720000000001 594.703 568.794 603.713 569.662 614.7460000000001C569.784 616.306 569.785 617.874 569.662 619.434C568.7909999999999 630.4639999999999 559.869 639.481 541.928 657.422L509.506 689.844C489.9829999999999 709.3679999999999 489.9879999999999 741.02 509.506 760.547C529.035 780.0409999999999 560.694 780.063 580.209 760.547L612.631 728.125C630.5519999999999 710.205 639.509 701.183 650.5219999999999 700.293C652.088 700.1700000000001 653.74 700.1700000000001 655.307 700.293C666.326 701.176 675.269 710.197 693.197 728.125L725.717 760.547z" />
    <glyph glyph-name="Editing_Tools_cursor-unavailable2"
      unicode="&#xEA23;"
      horiz-adv-x="1000" d="M247.674 783.848C261.408 788.725 276.42 785.622 295.428 775.547C305.077 770.434 309.911 767.883 318.377 760.606C319.31 759.804 321.1930000000001 758.136 322.088 757.2860000000001C330.2 749.581 335.227 742.0129999999999 345.233 727.012L436.151 590.684C437.7430000000001 588.298 439.043 585.621 439.862 582.872C442.829 572.9079999999999 439.924 562.321 433.612 554.063C403.0660000000001 514.1980000000001 396.907 461.66 415.057 416.6610000000001C423.923 394.679 424.505 368.462 409.1 350.4500000000001C330.198 258.4460000000001 290.627 212.351 255.096 220.665C250.387 221.778 245.731 223.534 241.424 225.7430000000001C208.981 242.467 208.797 303.1670000000001 208.514 424.375L208.026 615.7819999999999C207.801 712.049 207.751 760.2660000000001 235.663 777.989C239.4280000000001 780.376 243.475 782.352 247.674 783.848zM725.702 720.567C745.2270000000001 740.057 776.888 740.0699999999999 796.405 720.567C815.9119999999999 701.0509999999999 815.8960000000001 669.3900000000001 796.405 649.864L763.885 617.344C745.98 599.4390000000001 737.031 590.4670000000001 736.151 579.454C736.029 577.902 736.0310000000001 576.318 736.151 574.766C737.019 563.738 745.957 554.706 763.885 536.778L796.405 504.3560000000001C815.9190000000001 484.842 815.8950000000001 453.182 796.405 433.653C776.8779999999999 414.135 745.225 414.129 725.702 433.653L693.182 466.075C675.266 483.991 666.31 492.931 655.292 493.809C653.736 493.931 652.159 493.93 650.6039999999999 493.809C639.572 492.941 630.558 484.0169999999999 612.616 466.075V465.977L580.194 433.555L572.3810000000001 427.11C569.722 425.357 566.863 424.0030000000001 563.983 422.813C569.858 425.247 575.414 428.784 580.194 433.555V433.653C560.6709999999999 414.13 529.018 414.135 509.491 433.653C489.977 453.1799999999999 489.9689999999999 484.8340000000001 509.491 504.3560000000001L541.913 536.778C559.854 554.72 568.876 563.7339999999999 569.745 574.766C569.864 576.317 569.867 577.903 569.745 579.454C568.866 590.473 559.8340000000001 599.423 541.913 617.344L509.491 649.864C489.971 669.388 489.974 701.0409999999999 509.491 720.567C529.019 740.056 560.679 740.077 580.194 720.567L612.616 688.047C630.549 670.114 639.574 661.181 650.6039999999999 660.313C652.159 660.193 653.737 660.191 655.292 660.313C666.308 661.19 675.2729999999999 670.1379999999999 693.182 688.047L725.702 720.567z" />
    <glyph glyph-name="Editing_Tools_cursor-vertical-resize"
      unicode="&#xEA24;"
      horiz-adv-x="1000" d="M504.652 840.667C521.932 839.039 536.258 825.341 564.808 798.0889999999999L604.066 760.686C631.956 734.065 645.881 720.688 649.867 709.5139999999999C657.927 686.871 648.7479999999999 661.6769999999999 627.992 649.553C624.379 647.444 619.644 645.931 613.339 644.751C587.779 639.9649999999999 574.999 637.572 568.322 630.578C567.2810000000001 629.4870000000001 566.55 628.607 565.669 627.3820000000001C560.023 619.5329999999999 560.023 608.5 560.023 586.434V413.5510000000001C560.023 391.485 560.023 380.452 565.669 372.603C566.55 371.378 567.28 370.4980000000001 568.322 369.4070000000001C574.9979999999999 362.413 587.779 360.02 613.339 355.2340000000001C619.643 354.053 624.378 352.541 627.992 350.432C648.764 338.3060000000001 657.948 313.028 649.867 290.374C645.87 279.207 631.923 265.891 604.066 239.3L564.808 201.8C536.258 174.5469999999999 521.932 160.947 504.652 159.319C501.54 159.0270000000001 498.389 159.0260000000001 495.277 159.319C478.011 160.9540000000001 463.7400000000001 174.574 435.2190000000001 201.8L395.961 239.3C368.099 265.895 354.167 279.207 350.16 290.374C342.079 313.028 351.2630000000001 338.3060000000001 372.035 350.432C375.651 352.533 380.388 354.043 386.689 355.223C412.25 360.0120000000001 425.031 362.406 431.706 369.4C432.7480000000001 370.4920000000001 433.477 371.371 434.359 372.596C440.004 380.4450000000001 440.004 391.48 440.004 413.5510000000001V586.434C440.004 608.503 440.004 619.538 434.358 627.387C433.477 628.612 432.747 629.491 431.705 630.583C425.0300000000001 637.577 412.249 639.971 386.688 644.759C380.387 645.9390000000001 375.651 647.45 372.035 649.553C351.267 661.678 342.087 686.863 350.16 709.5139999999999C354.147 720.69 368.062 734.056 395.961 760.686L435.2190000000001 798.0889999999999C463.76 825.332 478.004 839.032 495.277 840.667C498.388 840.96 501.541 840.958 504.652 840.667z" />
    <glyph glyph-name="Editing_Tools_eraser"
      unicode="&#xEA25;"
      horiz-adv-x="1000" d="M719.173 705.0889999999999C778.977 645.2850000000001 808.9359999999999 615.35 811.8420000000001 578.583C812.2529999999999 573.361 812.2529999999999 568.062 811.8420000000001 562.8389999999999C808.9359999999999 526.072 778.977 496.1369999999999 719.173 436.3330000000001L563.664 280.8250000000001C503.86 221.021 473.926 191.061 437.158 188.1550000000001C431.936 187.744 426.637 187.744 421.4140000000001 188.1550000000001C384.647 191.061 354.713 221.021 294.908 280.8250000000001L280.822 294.9119999999999C221.017 354.716 191.058 384.6510000000001 188.152 421.418C187.741 426.64 187.741 431.9390000000001 188.152 437.1620000000001C191.058 473.929 221.017 503.8630000000001 280.822 563.668L436.33 719.1759999999999C496.134 778.98 526.0690000000001 808.94 562.836 811.846C568.058 812.2570000000001 573.357 812.2570000000001 578.58 811.846C615.3470000000001 808.94 645.2810000000001 778.98 705.086 719.1759999999999L719.173 705.0889999999999zM454.042 489.332C430.889 512.485 419.312 524.061 405.596 527.3520000000001C397.928 529.192 389.9340000000001 529.192 382.266 527.3520000000001C368.55 524.061 356.973 512.485 333.82 489.332C310.667 466.178 299.09 454.6020000000001 295.7990000000001 440.885C293.96 433.218 293.96 425.224 295.7990000000001 417.5560000000001C299.09 403.839 310.667 392.2630000000001 333.82 369.11L369.106 333.823C392.26 310.67 403.836 299.0940000000001 417.552 295.803C425.2200000000001 293.963 433.214 293.963 440.8820000000001 295.803C454.598 299.0940000000001 466.175 310.67 489.328 333.823C512.481 356.977 524.058 368.553 527.3489999999999 382.27C529.188 389.937 529.188 397.9310000000001 527.3489999999999 405.5990000000001C524.058 419.3160000000001 512.481 430.892 489.328 454.045L454.042 489.332z" />
    <glyph glyph-name="Editing_Tools_eyedropper"
      unicode="&#xEA26;"
      horiz-adv-x="1000" d="M753.593 755.538C785.3589999999999 723.7719999999999 785.3589999999999 672.261 753.593 640.495L688.545 575.4459999999999C678.146 565.0360000000001 678.1469999999999 548.155 688.545 537.743C709.3720000000001 516.9159999999999 709.37 483.165 688.545 462.337L687.371 461.163C665.892 439.684 631.096 439.685 609.617 461.163L606.095 464.6849999999999C594.379 476.4 575.343 476.332 563.627 464.616L407.843 308.831C405.286 306.274 403.965 305.0270000000001 402.6640000000001 303.79C391.969 293.6320000000001 379.73 285.201 366.411 278.862C364.783 278.088 363.102 277.3 359.782 275.824L277.815 239.433C266.816 234.5650000000001 253.939 236.935 245.429 245.44C236.921 253.948 234.556 266.826 239.422 277.826L275.813 359.793C277.289 363.113 278.077 364.794 278.851 366.4220000000001C285.19 379.742 293.62 391.9780000000001 303.779 402.675C305.016 403.976 306.263 405.2970000000001 308.82 407.8540000000001L464.605 563.6379999999999C476.319 575.352 476.384 594.3900000000001 464.674 606.106L461.152 609.628C439.673 631.107 439.673 665.903 461.152 687.3820000000001L463.569 689.799C483.69 709.9200000000001 516.289 709.9739999999999 536.4200000000001 689.8679999999999C546.485 679.803 562.816 679.803 572.88 689.8679999999999L638.5500000000001 755.538C670.312 787.3 721.826 787.2909999999999 753.593 755.538z" />
    <glyph glyph-name="Editing_Tools_fill"
      unicode="&#xEA27;"
      horiz-adv-x="1000" d="M698.862 632.7560000000001C737.914 593.704 737.913 530.387 698.862 491.335L451.374 243.847C412.322 204.7959999999999 349.005 204.7950000000001 309.9530000000001 243.847L168.532 385.269C129.501 424.322 129.488 487.645 168.532 526.6899999999999L258.6930000000001 616.851C274.0130000000001 632.171 281.673 639.831 283.188 649.4839999999999C283.405 650.867 283.525 652.264 283.547 653.664C283.701 663.433 277.459 672.288 264.9770000000001 689.996L240.831 724.252C224.975 746.832 230.415 777.976 252.984 793.858C275.558 809.697 306.708 804.256 322.5900000000001 781.704L325.343 777.804C342.432 753.596 350.9770000000001 741.4929999999999 363.189 739.366C364.906 739.067 366.646 738.918 368.388 738.921C380.784 738.943 391.261 749.419 412.214 770.3720000000001L416.019 774.177C455.064 813.221 518.387 813.208 557.4399999999999 774.177L698.862 632.7560000000001zM451.982 668.719C441.194 657.931 435.8010000000001 652.538 433.536 646.125C431.842 641.3299999999999 431.3950000000001 636.183 432.237 631.1669999999999C433.362 624.46 437.7460000000001 618.218 446.512 605.732L456.968 590.841C472.842 568.278 467.414 537.07 444.883 521.1659999999999C422.3 505.274 391.031 510.736 375.139 533.319C371.815 538.049 370.153 540.414 368.536 542.0899999999999C358.132 552.872 341.366 554.3249999999999 329.262 545.491C327.3810000000001 544.1179999999999 325.337 542.0740000000001 321.25 537.986L311.764 528.501C288.08 504.817 276.238 492.975 274.891 482.9200000000001C273.461 472.248 277.86 461.6279999999999 286.4170000000001 455.093C294.48 448.9359999999999 311.2270000000001 448.9359999999999 344.721 448.9359999999999L491.431 448.9359999999999C502.459 448.9359999999999 507.973 448.9359999999999 512.999 450.7900000000001C513.736 451.062 514.462 451.3630000000001 515.175 451.692C520.04 453.934 523.9390000000001 457.833 531.7370000000001 465.6310000000001L587.846 521.74C605.7909999999999 539.685 614.764 548.658 615.632 559.692C615.755 561.258 615.755 562.8320000000001 615.632 564.3989999999999C614.764 575.433 605.7909999999999 584.405 587.846 602.3499999999999L521.4780000000001 668.719C508.835 681.361 502.514 687.683 495.144 689.836C489.649 691.442 483.81 691.442 478.316 689.836C470.946 687.683 464.624 681.361 451.982 668.719zM814.216 427.822C814.285 427.7190000000001 814.3629999999999 427.6239999999999 814.45 427.5360000000001C814.5469999999999 427.4400000000001 814.631 427.332 814.6750000000001 427.203C814.7069999999999 427.107 814.7420000000001 427.001 814.802 426.908C815.053 426.525 815.494 426.026 815.9069999999999 425.389C816.761 424.064 817.8660000000001 422.097 819.2909999999999 419.795C822.1629999999999 415.155 826.2 408.63 830.547 400.8060000000001C839.047 385.504 850.0450000000001 363.703 857.6850000000001 340.798C864.494 320.37 872.5350000000001 287.985 862.3799999999999 257.52C856.606 240.229 845.162 224.304 827.2320000000001 213.533C810.2539999999999 203.346 791.072 199.93 772.749 199.929C754.447 199.9309999999999 735.366 203.3730000000001 718.404 213.533C700.452 224.304 688.896 240.217 683.1179999999999 257.52C672.965 287.982 681.004 320.371 687.813 340.798C695.454 363.709 706.519 385.573 715.02 400.875C719.336 408.64 723.277 415.1030000000001 726.138 419.726C727.569 422.038 728.734 424.058 729.591 425.389C729.999 426.0180000000001 730.446 426.5270000000001 730.6949999999999 426.908C730.755 427 730.79 427.1080000000001 730.823 427.204C730.8670000000001 427.332 730.951 427.4400000000001 731.0469999999999 427.5350000000001C731.134 427.6230000000001 731.213 427.7190000000001 731.282 427.823L733.7570000000001 431.538C746.246 450.293 752.49 459.6700000000001 760.212 463.222C768.169 466.8820000000001 777.328 466.8820000000001 785.285 463.222C793.008 459.6700000000001 799.252 450.293 811.741 431.538L814.216 427.822zM260 1000H740A260 260 0 0 0 1000 740V260A260 260 0 0 0 740 0H260.0000000000001A260 260 0 0 0 0 260V740A260 260 0 0 0 260.0000000000001 1000z" />
    <glyph glyph-name="Editing_Tools_font"
      unicode="&#xEA28;"
      horiz-adv-x="1000" d="M467.578 795.796C492.797 838.899 560.236 833.672 576.27 783.0029999999999L747.6560000000001 240.1320000000001C755.94 213.813 741.356 185.747 715.039 177.4369999999999C688.727 169.151 660.6659999999999 183.752 652.3439999999999 210.054L621.8009999999999 306.6320000000001C619.1709999999999 314.948 611.454 320.601 602.732 320.601H404.1540000000001C395.884 320.601 388.468 315.511 385.493 307.7950000000001L346.68 207.124C336.728 181.387 307.78 168.583 282.031 178.511C256.284 188.453 243.399 217.4070000000001 253.32 243.159L463.086 786.519L467.578 795.796zM439.4960000000001 447.799C434.441 434.6960000000001 444.112 420.601 458.1559999999999 420.601H558.549C572.067 420.601 581.692 433.7340000000001 577.62 446.625L532.424 589.713C526.7280000000001 607.7470000000001 501.4999999999999 608.5319999999999 494.693 590.8870000000001L439.4960000000001 447.799z" />
    <glyph glyph-name="Editing_Tools_font2"
      unicode="&#xEA29;"
      horiz-adv-x="1000" d="M849.9879999999999 549.76C877.587 549.742 899.9879999999999 527.363 899.9879999999999 499.76V269.779C899.9399999999999 242.217 877.557 219.797 849.9879999999999 219.779C836.36 219.783 824.053 225.275 815.0790000000001 234.153C802.942 246.158 796.874 252.161 794.128 252.804C793.457 252.961 793.61 252.935 792.924 253.01C790.12 253.313 784.608 250.706 773.585 245.491C754.277 236.357 732.725 231.2100000000001 709.9490000000001 231.2050000000001C627.1510000000001 231.2150000000001 560.068 298.387 560.046 381.2050000000001C560.067 464.024 627.1510000000001 531.195 709.9490000000001 531.205C730.5519999999999 531.2 750.178 526.9929999999999 768.043 519.432C780.483 514.167 786.702 511.535 789.457 511.93C790.182 512.034 789.931 511.982 790.638 512.173C793.325 512.8969999999999 800.207 520.068 813.9709999999999 534.412C823.049 543.8710000000001 835.82 549.7550000000001 849.9879999999999 549.76zM277.332 750.736C300.669 791.39 361.521 789.646 382.507 747.7090000000001L386.3160000000001 738.139L527.6239999999999 285.8920000000001C535.814 259.557 521.141 231.5270000000001 494.812 223.295C468.473 215.0750000000001 440.4650000000001 229.782 432.214 256.107L414.408 313.087C412.509 319.164 411.56 322.202 409.312 324.0850000000001C408.988 324.357 408.6470000000001 324.607 408.291 324.836C405.823 326.42 402.639 326.42 396.273 326.42H237.278C231.255 326.42 228.243 326.42 225.852 324.9690000000001C225.506 324.759 225.174 324.528 224.856 324.279C222.658 322.549 221.601 319.729 219.487 314.089L196.765 253.471C187.063 227.64 158.251 214.4980000000001 132.41 224.174C106.586 233.8829999999999 93.5292 262.788 103.21 288.627L272.937 741.264L277.332 750.736zM709.9490000000001 447.1230000000001C673.53 447.113 644.052 417.632 644.0310000000001 381.2050000000001C644.052 344.779 673.53 315.2000000000001 709.9490000000001 315.189C746.361 315.207 775.943 344.784 775.964 381.2050000000001C775.943 417.627 746.361 447.105 709.9490000000001 447.1230000000001zM271.2200000000001 452.083C267.101 441.0850000000001 265.042 435.586 267.304 431.5400000000001C267.618 430.978 267.985 430.448 268.401 429.957C271.3970000000001 426.42 277.269 426.42 289.0130000000001 426.42H353.142C364.295 426.42 369.872 426.42 372.855 429.77C373.27 430.236 373.641 430.741 373.963 431.2770000000001C376.269 435.124 374.605 440.4460000000001 371.276 451.091L342.0920000000001 544.404C335.634 565.0540000000001 332.404 575.38 326.234 576.3219999999999C325.416 576.447 324.585 576.47 323.761 576.3910000000001C317.548 575.79 313.754 565.6589999999999 306.165 545.396L271.2200000000001 452.083z" />
    <glyph glyph-name="Editing_Tools_frame"
      unicode="&#xEA2A;"
      horiz-adv-x="1000" d="M640.039 800C667.641 799.985 690.039 777.605 690.039 750V746.941C690.039 721.563 690.039 708.874 697.227 700.458C698.2479999999999 699.263 699.361 698.15 700.556 697.129C708.972 689.941 721.6610000000001 689.941 747.039 689.941H750C777.614 689.941 800 667.556 800 639.941C799.975 612.3489999999999 777.599 589.941 750 589.941H747.039C721.6610000000001 589.941 708.972 589.941 700.556 582.754C699.361 581.733 698.2479999999999 580.6199999999999 697.227 579.425C690.039 571.009 690.039 558.3199999999999 690.039 532.941V467.059C690.039 441.6800000000001 690.039 428.991 697.227 420.5750000000001C698.2479999999999 419.38 699.361 418.267 700.556 417.246C708.972 410.0590000000001 721.6610000000001 410.0590000000001 747.039 410.0590000000001H750C777.601 410.0590000000001 799.9780000000001 387.654 800 360.0590000000001C800 332.444 777.614 310.0590000000001 750 310.0590000000001H747.039C721.6610000000001 310.0590000000001 708.972 310.0590000000001 700.556 302.871C699.361 301.85 698.2479999999999 300.737 697.227 299.5420000000001C690.039 291.1260000000001 690.039 278.437 690.039 253.059V250C690.019 222.411 667.629 200.014 640.039 200C612.437 200 590.059 222.403 590.039 250V253.059C590.039 278.437 590.039 291.1260000000001 582.851 299.5420000000001C581.831 300.737 580.718 301.85 579.523 302.871C571.1070000000001 310.0590000000001 558.417 310.0590000000001 533.039 310.0590000000001H466.961C441.583 310.0590000000001 428.893 310.0590000000001 420.477 302.871C419.2820000000001 301.85 418.169 300.737 417.1490000000001 299.5420000000001C409.961 291.1260000000001 409.961 278.437 409.961 253.059V250C409.961 222.386 387.575 200 359.961 200C332.365 200.0219999999999 309.961 222.399 309.961 250V253.059C309.961 278.437 309.961 291.1260000000001 302.773 299.5420000000001C301.752 300.737 300.639 301.85 299.444 302.871C291.029 310.0590000000001 278.339 310.0590000000001 252.961 310.0590000000001H250C222.391 310.065 200 332.448 200 360.0590000000001C200.022 387.65 222.405 410.052 250 410.0590000000001H252.961C278.339 410.0590000000001 291.029 410.0590000000001 299.444 417.246C300.639 418.267 301.752 419.38 302.773 420.5750000000001C309.961 428.991 309.961 441.6800000000001 309.961 467.059V532.941C309.961 558.3199999999999 309.961 571.009 302.773 579.425C301.752 580.6199999999999 300.639 581.733 299.444 582.754C291.029 589.941 278.339 589.941 252.961 589.941H250C222.407 589.948 200.025 612.3530000000001 200 639.941C200 667.552 222.391 689.935 250 689.941H252.961C278.339 689.941 291.029 689.941 299.444 697.129C300.639 698.15 301.752 699.263 302.773 700.458C309.961 708.874 309.961 721.563 309.961 746.941V750C309.963 777.5999999999999 332.366 799.978 359.961 800C387.574 800 409.959 777.613 409.961 750V746.941C409.961 721.563 409.961 708.874 417.1490000000001 700.458C418.169 699.263 419.2820000000001 698.15 420.477 697.129C428.893 689.941 441.583 689.941 466.961 689.941H533.039C558.417 689.941 571.1070000000001 689.941 579.523 697.129C580.718 698.15 581.831 699.263 582.851 700.458C590.039 708.874 590.039 721.563 590.039 746.941V750C590.039 777.614 612.425 800 640.039 800zM409.961 467.059C409.961 441.6800000000001 409.961 428.991 417.1490000000001 420.5750000000001C418.169 419.38 419.2820000000001 418.267 420.477 417.246C428.893 410.0590000000001 441.583 410.0590000000001 466.961 410.0590000000001H533.039C558.417 410.0590000000001 571.1070000000001 410.0590000000001 579.523 417.246C580.718 418.267 581.831 419.38 582.851 420.5750000000001C590.039 428.991 590.039 441.6800000000001 590.039 467.059V532.941C590.039 558.3199999999999 590.039 571.009 582.851 579.425C581.831 580.6199999999999 580.718 581.733 579.523 582.754C571.1070000000001 589.941 558.417 589.941 533.039 589.941H466.961C441.583 589.941 428.893 589.941 420.477 582.754C419.2820000000001 581.733 418.169 580.6199999999999 417.1490000000001 579.425C409.961 571.009 409.961 558.3199999999999 409.961 532.941V467.059z" />
    <glyph glyph-name="Editing_Tools_italic"
      unicode="&#xEA2B;"
      horiz-adv-x="1000" d="M700 810.01C727.601 810.01 749.979 787.606 750 760.01C750 732.396 727.614 710.01 700 710.01H638.393C617.1020000000001 710.01 606.457 710.01 598.625 704.402C597.502 703.598 596.436 702.717 595.434 701.766C588.448 695.134 586.438 684.6800000000001 582.418 663.7729999999999L523.576 357.7530000000001C517.882 328.139 515.0350000000001 313.332 522.145 302.992C523.1429999999999 301.54 524.268 300.179 525.505 298.9250000000001C534.316 289.99 549.395 289.99 579.551 289.99H600C627.601 289.99 649.979 267.587 650 239.99C649.9889999999999 212.385 627.6080000000001 189.99 600 189.99H300C272.392 189.99 250.011 212.385 250 239.99C250.021 267.587 272.399 289.99 300 289.99H361.6070000000001C382.898 289.99 393.543 289.99 401.375 295.5980000000001C402.4980000000001 296.402 403.564 297.283 404.566 298.2339999999999C411.552 304.866 413.562 315.3200000000001 417.582 336.227L476.424 642.2470000000001C482.118 671.861 484.965 686.668 477.855 697.008C476.857 698.46 475.732 699.8209999999999 474.495 701.075C465.684 710.01 450.605 710.01 420.449 710.01H400C372.386 710.01 350 732.396 350 760.01C350.021 787.606 372.399 810.01 400 810.01H700z" />
    <glyph glyph-name="Editing_Tools_outline"
      unicode="&#xEA2C;"
      horiz-adv-x="1000" d="M609.961 800C694.536 800 736.889 800.018 764.9409999999999 776.0740000000001C768.9250000000001 772.672 772.672 768.925 776.0740000000001 764.941C800.017 736.8879999999999 800 694.537 800 609.961V390.039C800 305.4630000000001 800.017 263.112 776.0740000000001 235.0590000000001C772.672 231.075 768.9250000000001 227.328 764.9409999999999 223.9259999999999C736.889 199.982 694.536 200 609.961 200H390.039C305.464 200 263.112 199.983 235.059 223.9259999999999C231.075 227.328 227.3280000000001 231.075 223.926 235.0590000000001C199.982 263.112 200 305.4630000000001 200 390.039V609.961C200 694.537 199.982 736.8879999999999 223.926 764.941C227.3280000000001 768.925 231.075 772.672 235.059 776.0740000000001C263.112 800.017 305.464 800 390.039 800H609.961zM279.98 374.9799999999999C279.98 332.683 279.98 311.5350000000001 291.96 297.5080000000001C293.661 295.5160000000001 295.516 293.661 297.5080000000001 291.9600000000001C311.535 279.98 332.683 279.98 374.98 279.98H625.0200000000001C667.317 279.98 688.4649999999999 279.98 702.492 291.9600000000001C704.4839999999999 293.661 706.339 295.5160000000001 708.04 297.5080000000001C720.02 311.5350000000001 720.02 332.683 720.02 374.9799999999999V625.02C720.02 667.317 720.02 688.465 708.04 702.492C706.339 704.484 704.4839999999999 706.3389999999999 702.492 708.04C688.4649999999999 720.02 667.317 720.02 625.0200000000001 720.02H374.98C332.683 720.02 311.535 720.02 297.5080000000001 708.04C295.516 706.3389999999999 293.661 704.484 291.96 702.492C279.98 688.465 279.98 667.317 279.98 625.02V374.9799999999999zM640.039 454.961C640.039 412.664 640.039 391.515 628.059 377.4890000000001C626.3580000000001 375.4970000000001 624.5029999999999 373.642 622.511 371.9410000000001C608.485 359.961 587.336 359.961 545.039 359.961H454.961C412.664 359.961 391.515 359.961 377.4890000000001 371.9410000000001C375.497 373.642 373.642 375.4970000000001 371.941 377.4890000000001C359.961 391.515 359.961 412.664 359.961 454.961V545.039C359.961 587.336 359.961 608.485 371.941 622.511C373.642 624.5029999999999 375.497 626.358 377.4890000000001 628.059C391.515 640.039 412.664 640.039 454.961 640.039H545.039C587.336 640.039 608.485 640.039 622.511 628.059C624.5029999999999 626.358 626.3580000000001 624.5029999999999 628.059 622.511C640.039 608.485 640.039 587.336 640.039 545.039V454.961z" />
    <glyph glyph-name="Editing_Tools_paintbrush"
      unicode="&#xEA2D;"
      horiz-adv-x="1000" d="M661.0360000000001 387.449C663.007 382.256 670.347 379.3180000000001 674.186 383.332C692.342 402.317 703.089 415.846 707.095 426.741C708.702 431.1320000000001 708.922 431.98 710.0640000000001 436.477C715.821 459.149 709.061 490.5770000000001 695.632 553.2460000000001L694.32 559.53C693.352 564.046 692.8679999999999 566.304 692.702 567.792C691.734 576.448 693.781 583.38 699.296 590.121C700.244 591.28 701.631 592.668 704.406 595.442L793.3430000000001 684.3789999999999C820.674 711.712 820.667 756.064 793.3430000000001 783.4010000000001C766.006 810.738 721.657 810.737 694.32 783.4010000000001L605.279 694.36C602.595 691.6759999999999 601.253 690.3340000000001 600.131 689.4110000000001C593.34 683.822 586.384 681.768 577.646 682.771C576.202 682.9359999999999 573.959 683.4169999999999 569.471 684.3789999999999L563.2570000000001 685.6220000000001C500.538 699.061 469.168 705.813 446.487 700.054C441.9380000000001 698.899 441.151 698.695 436.7510000000001 697.085C427.052 693.53 415.249 684.6769999999999 399.375 669.98C393.124 664.193 397.593 651.871 404.779 647.297L405.055 647.159C405.234 647.0450000000001 405.532 646.858 405.8150000000001 646.6759999999999C406.461 646.259 407.44 645.624 408.577 644.88C410.962 643.318 414.438 640.965 418.659 638.113C427.1740000000001 632.357 439.137 624.063 452.84 614.013C480.091 594.025 515.556 566.075 545.855 535.7760000000001C576.1370000000001 505.481 604.051 470.061 624.024 442.8300000000001C634.078 429.117 642.444 417.086 648.192 408.5790000000001C651.03 404.379 653.342 400.933 654.89 398.567C655.6320000000001 397.433 656.275 396.4410000000001 656.686 395.8050000000001C656.86 395.538 657.076 395.223 657.197 395.039C657.225 394.9970000000001 657.2460000000001 394.952 657.262 394.904L657.289 394.8240000000001C657.301 394.788 657.321 394.755 657.348 394.7280000000001C657.367 394.7090000000001 657.3820000000001 394.688 657.394 394.664L661.0360000000001 387.449zM314.759 328.5210000000001C323.683 319.597 340.169 323.438 351.884 328.132L357.5470000000001 330.48C368.811 334.9840000000001 381.699 332.2910000000001 390.278 323.713C398.817 315.142 401.457 302.29 396.976 291.0510000000001L394.697 285.319C389.99 273.61 386.1600000000001 257.12 395.083 248.197L404.4340000000001 238.846C440.294 202.986 458.298 184.97 474.316 184.5700000000001C477.0749999999999 184.5079999999999 478.3680000000001 184.5840000000001 481.083 184.985C496.945 187.3300000000001 516.349 212.26 555.039 261.9790000000001C567.584 278.0990000000001 581.0419999999999 292.6520000000001 594.676 305.621C595.083 306.0080000000001 595.489 306.394 595.8929999999999 306.779C605.9459999999999 316.348 598.802 338.928 590.8389999999999 350.296C590.54 350.722 590.2479999999999 351.1560000000001 589.9639999999999 351.597C589.929 351.6520000000001 589.888 351.703 589.842 351.7489999999999C589.796 351.794 589.755 351.8449999999999 589.726 351.903C589.6659999999999 352.025 589.586 352.2140000000001 589.497 352.37C589.178 352.865 588.625 353.7270000000001 587.9780000000001 354.718C586.6220000000001 356.789 584.517 359.9599999999999 581.901 363.833C576.618 371.6510000000001 568.938 382.788 559.597 395.528C540.708 421.284 515.479 453.029 489.3 479.221C463.127 505.394 431.3710000000001 530.618 405.608 549.517C392.886 558.847 381.7410000000001 566.53 373.9120000000001 571.8219999999999C370.046 574.434 366.884 576.5319999999999 364.797 577.8979999999999C363.805 578.548 362.965 579.085 362.449 579.418C362.259 579.541 362.0220000000001 579.66 361.877 579.737C361.844 579.7539999999999 361.815 579.7760000000001 361.789 579.802C361.769 579.8219999999999 361.747 579.8399999999999 361.723 579.855C361.255 580.154 360.795 580.461 360.343 580.7760000000001C348.892 588.7660000000001 326.238 595.953 316.612 585.838C316.2630000000001 585.471 315.913 585.103 315.562 584.7349999999999C302.593 571.101 288.04 557.642 271.92 545.098C222.199 506.4059999999999 197.34 486.9349999999999 194.995 471.073C194.603 468.409 194.449 467.112 194.511 464.375C194.787 453.671 202.927 442.064 218.996 424.8440000000001C227.943 415.255 245.489 419.804 256.867 426.326L295.122 448.147C305.374 454.005 318.33 452.284 326.68 443.9350000000001C334.982 435.586 336.664 422.676 330.823 412.4460000000001L309.002 374.1910000000001C302.4700000000001 362.807 297.896 345.384 307.177 336.1030000000001L314.759 328.5210000000001z" />
    <glyph glyph-name="Editing_Tools_palette"
      unicode="&#xEA2E;"
      horiz-adv-x="1000" d="M251.497 662.642C356.802 871.789 781.437 799.336 781.477 582.661C781.477 451.856 654.418 582.015 581.477 472.603C490.322 335.807 695.106 212.6570000000001 491.5359999999999 212.6420000000001C287.891 212.6420000000001 152.745 466.49 251.497 662.642zM431.5750000000001 442.622C392.915 442.622 361.555 411.2630000000001 361.555 372.603C361.5710000000001 333.956 392.925 302.583 431.5750000000001 302.583C470.205 302.6080000000001 501.482 333.971 501.497 372.603C501.497 411.248 470.214 442.598 431.5750000000001 442.622zM331.4770000000001 582.661C298.35 582.6500000000001 271.516 555.7330000000001 271.516 522.603C271.531 489.485 298.359 462.653 331.4770000000001 462.6420000000001C364.605 462.6420000000001 391.521 489.478 391.536 522.603C391.536 555.74 364.614 582.661 331.4770000000001 582.661zM611.458 702.5830000000001C578.342 702.559 551.497 675.7439999999999 551.497 642.622C551.501 609.504 578.3439999999999 582.6859999999999 611.458 582.661C644.592 582.661 671.512 609.489 671.516 642.622C671.516 675.759 644.595 702.5830000000001 611.458 702.5830000000001zM431.4770000000001 722.6030000000001C398.357 722.588 371.523 695.764 371.516 662.642C371.516 629.514 398.353 602.598 431.4770000000001 602.5830000000001C464.614 602.5830000000001 491.5359999999999 629.505 491.5359999999999 662.642C491.529 695.773 464.61 722.6030000000001 431.4770000000001 722.6030000000001z" />
    <glyph glyph-name="Editing_Tools_pen"
      unicode="&#xEA2F;"
      horiz-adv-x="1000" d="M443.5780000000001 386.963C453.412 396.798 468.506 406.6379999999999 482.402 406.0320000000001C504.045 405.089 526.003 412.902 542.532 429.4310000000001C573.772 460.673 573.773 511.299 542.532 542.54C511.289 573.772 460.661 573.778 429.4220000000001 542.54C412.886 526.004 405.0950000000001 504.029 406.0590000000001 482.373C406.678 468.471 396.795 453.4259999999999 386.954 443.587L296.0710000000001 352.7040000000001C279.868 336.5 253.597 336.5 237.394 352.7040000000001C225.277 364.8200000000001 221.855 383.139 228.781 398.812L332.075 632.577C341.167 653.152 345.7120000000001 663.44 353.7440000000001 670.629C354.916 671.678 356.137 672.671 357.403 673.605C366.076 680.005 377.074 682.361 399.069 687.073L523.5229999999999 713.736C526.89 714.457 528.573 714.818 530.158 715.268C542.07 718.654 552.302 726.3399999999999 558.8720000000001 736.838C559.746 738.234 560.561 739.751 562.192 742.7840000000001C566.5409999999999 750.872 568.715 754.917 570.819 757.773C587.3009999999999 780.1419999999999 618.858 784.784 641.083 768.108C643.92 765.9780000000001 647.1669999999999 762.732 653.661 756.238L756.229 653.6700000000001C762.723 647.176 765.97 643.9290000000001 768.099 641.092C784.775 618.867 780.133 587.309 757.764 570.828C754.908 568.7239999999999 750.864 566.549 742.775 562.201C739.7420000000001 560.5699999999999 738.226 559.755 736.829 558.88C726.331 552.3109999999999 718.645 542.079 715.259 530.1669999999999C714.809 528.582 714.448 526.898 713.727 523.531L687.061 399.062C682.35 377.074 679.995 366.0800000000001 673.598 357.408C672.6650000000001 356.1429999999999 671.6719999999999 354.9220000000001 670.6229999999999 353.75C663.438 345.7200000000001 653.155 341.1720000000001 632.589 332.078L398.9100000000001 228.746C383.215 221.805 364.867 225.23 352.7320000000001 237.365C336.508 253.5890000000001 336.508 279.8930000000001 352.7320000000001 296.117L443.5780000000001 386.963z" />
    <glyph glyph-name="Editing_Tools_pencil"
      unicode="&#xEA30;"
      horiz-adv-x="1000" d="M754.598 655.572C778.0160000000001 679.005 777.956 717.012 754.529 740.439L740.442 754.526C717.016 777.952 679.0079999999999 778.012 655.576 754.595L647.091 746.109C635.1270000000001 734.146 629.145 728.164 628.566 720.809C628.484 719.764 628.484 718.7149999999999 628.566 717.67C629.145 710.315 635.1270000000001 704.3330000000001 647.091 692.369L692.373 647.087C704.336 635.123 710.318 629.142 717.674 628.563C718.718 628.48 719.768 628.48 720.812 628.563C728.168 629.142 734.15 635.123 746.1129999999999 647.087L754.598 655.572zM252.511 252.5070000000001C261.022 243.999 273.896 241.629 284.897 246.5L377.014 287.3789999999999C388.222 292.3640000000001 398.448 299.4220000000001 407.122 308.0949999999999L635.749 536.723C647.713 548.686 653.6940000000001 554.668 654.273 562.024C654.356 563.068 654.356 564.118 654.273 565.162C653.6940000000001 572.518 647.713 578.5 635.749 590.463L590.467 635.7460000000001C578.503 647.7090000000001 572.522 653.691 565.1659999999999 654.27C564.121 654.352 563.072 654.352 562.028 654.27C554.6719999999999 653.691 548.69 647.7090000000001 536.7270000000001 635.7460000000001L308.099 407.1180000000001C299.425 398.4440000000001 292.367 388.219 287.383 377.011L246.504 284.8930000000001C241.634 273.8920000000001 244.001 261.0170000000001 252.511 252.5070000000001z" />
    <glyph glyph-name="Editing_Tools_redo"
      unicode="&#xEA31;"
      horiz-adv-x="1000" d="M761.191 613.4770000000001C785.296 603.587 793.164 568.494 808.9069999999999 498.365L816.019 466.669C829.942 404.651 836.927 373.6410000000001 821.5439999999999 354.803C819.421 352.203 817.0310000000001 349.813 814.431 347.69C795.591 332.317 764.577 339.293 702.5649999999999 353.2140000000001L670.869 360.327C600.745 376.0690000000001 565.65 383.942 555.7570000000001 408.043C554.406 411.339 553.41 414.8240000000001 552.788 418.332C551.108 427.868 553.571 437.362 559.939 448.1410000000001C574.66 473.057 582.02 485.515 579.652 496.887C579.333 498.421 578.824 500.1439999999999 578.258 501.6060000000001C574.064 512.4380000000001 566.1030000000001 516.4069999999999 550.181 524.347C534.442 532.1949999999999 517.558 537.7729999999999 500.031 540.8330000000001C463.054 547.2860000000001 424.96 542.241 390.996 526.262C357.028 510.278 328.803 484.1560000000001 310.2030000000001 451.5469999999999C301.394 436.101 294.981 419.5 291.0060000000001 402.381C283.655 370.759 260.8330000000001 341.5610000000001 228.513 338.506C196.191 335.463 166.934 359.378 170.232 391.6769999999999C174.461 433.034 187.269 473.274 208.073 509.759C238.665 563.392 285.064 606.384 340.932 632.674C396.779 658.948 459.394 667.3050000000001 520.195 656.704C561.992 649.409 601.572 633.374 636.412 609.8879999999999C656.52 596.3330000000001 666.5740000000001 589.5550000000001 674.2090000000001 588.845C675.748 588.702 675.995 588.693 677.5409999999999 588.721C685.207 588.863 697.532 595.903 722.1809999999999 609.982C732.543 615.9 741.742 618.152 750.971 616.515C754.476 615.893 757.897 614.827 761.191 613.4770000000001z" />
    </font>
</defs>
</svg>
