<svg width="10" height="10" viewBox="0 0 10 10" fill="none" xmlns="http://www.w3.org/2000/svg">
<g filter="url(#filter0_i_1144_2428)">
<path d="M4.99902 2.0498C5.24755 2.0498 5.44922 2.25147 5.44922 2.5V2.7298C5.44922 2.98359 5.44922 3.11048 5.5211 3.19464C5.5313 3.20659 5.54243 3.21772 5.55438 3.22793C5.63854 3.2998 5.76543 3.2998 6.01922 3.2998H6.89941C7.23066 3.2998 7.4998 3.56821 7.5 3.89941C7.5 4.23078 7.23078 4.49902 6.89941 4.49902H5.94971C5.76232 4.49902 5.66863 4.49902 5.59889 4.53941C5.55354 4.56567 5.51586 4.60334 5.4896 4.64869C5.44922 4.71843 5.44922 4.81213 5.44922 4.99951V5.0498C5.44922 5.18977 5.44922 5.25975 5.47211 5.31495C5.50256 5.38834 5.56088 5.44666 5.63427 5.47711C5.68947 5.5 5.75945 5.5 5.89941 5.5C6.23073 5.5 6.49991 5.76832 6.5 6.09961C6.5 6.43098 6.23078 6.69922 5.89941 6.69922C5.75945 6.69922 5.68947 6.69922 5.63427 6.72211C5.56088 6.75256 5.50256 6.81088 5.47211 6.88427C5.44922 6.93947 5.44922 7.00945 5.44922 7.14941V7.5C5.4491 7.74843 5.24748 7.9502 4.99902 7.9502C4.75069 7.95005 4.54895 7.74834 4.54883 7.5V7.14844C4.54883 7.00939 4.54883 6.93986 4.52623 6.88498C4.49577 6.81102 4.43703 6.75228 4.36307 6.72182C4.30818 6.69922 4.23866 6.69922 4.09961 6.69922C3.76844 6.69898 3.5 6.43083 3.5 6.09961C3.50009 5.76846 3.7685 5.50024 4.09961 5.5C4.23866 5.5 4.30818 5.5 4.36307 5.4774C4.43703 5.44694 4.49577 5.3882 4.52623 5.31424C4.54883 5.25935 4.54883 5.18983 4.54883 5.05078V4.99951C4.54883 4.81213 4.54883 4.71843 4.50844 4.64869C4.48219 4.60334 4.44451 4.56567 4.39916 4.53941C4.32942 4.49902 4.23573 4.49902 4.04834 4.49902H3.09961C2.76842 4.49881 2.5 4.23065 2.5 3.89941C2.5002 3.56834 2.76854 3.30002 3.09961 3.2998H3.97883C4.23261 3.2998 4.3595 3.2998 4.44366 3.22793C4.45561 3.21772 4.46674 3.20659 4.47695 3.19464C4.54883 3.11048 4.54883 2.98359 4.54883 2.7298V2.5C4.54883 2.25156 4.75062 2.04995 4.99902 2.0498Z" fill="white"/>
</g>
<defs>
<filter id="filter0_i_1144_2428" x="0" y="0" width="10" height="10" filterUnits="userSpaceOnUse" color-interpolation-filters="sRGB">
<feFlood flood-opacity="0" result="BackgroundImageFix"/>
<feBlend mode="normal" in="SourceGraphic" in2="BackgroundImageFix" result="shape"/>
<feColorMatrix in="SourceAlpha" type="matrix" values="0 0 0 0 0 0 0 0 0 0 0 0 0 0 0 0 0 0 127 0" result="hardAlpha"/>
<feOffset/>
<feGaussianBlur stdDeviation="1"/>
<feComposite in2="hardAlpha" operator="arithmetic" k2="-1" k3="1"/>
<feColorMatrix type="matrix" values="0 0 0 0 0.942 0 0 0 0 0.94 0 0 0 0 1 0 0 0 0.1 0"/>
<feBlend mode="hard-light" in2="shape" result="effect1_innerShadow_1144_2428"/>
</filter>
</defs>
</svg>
