<svg width="10" height="10" viewBox="0 0 10 10" fill="none" xmlns="http://www.w3.org/2000/svg">
<g filter="url(#filter0_i_1170_79)">
<path d="M7.61191 3.86523C7.85296 3.96413 7.93164 4.31506 8.08907 5.01635L8.16019 5.33331C8.29942 5.95349 8.36927 6.26359 8.21544 6.45197C8.19421 6.47797 8.17031 6.50187 8.14431 6.5231C7.95591 6.67683 7.64577 6.60707 7.02565 6.46786L6.70869 6.39673C6.00745 6.23931 5.6565 6.16058 5.55757 5.91957C5.54406 5.88661 5.5341 5.85176 5.52788 5.81668C5.51108 5.72132 5.53571 5.62638 5.59939 5.51859C5.7466 5.26943 5.8202 5.14485 5.79652 5.03113C5.79333 5.01579 5.78824 4.99856 5.78258 4.98394C5.74064 4.87562 5.66103 4.83593 5.50181 4.75653C5.34442 4.67805 5.17558 4.62227 5.00031 4.59167C4.63054 4.52714 4.2496 4.57759 3.90996 4.73738C3.57028 4.89722 3.28803 5.15844 3.10203 5.48453C3.01394 5.63899 2.94981 5.805 2.91006 5.97619C2.83655 6.29241 2.60833 6.58439 2.28513 6.61494C1.96191 6.64537 1.66934 6.40622 1.70232 6.08323C1.74461 5.66966 1.87269 5.26726 2.08073 4.90241C2.38665 4.36608 2.85064 3.93616 3.40932 3.67326C3.96779 3.41052 4.59394 3.32695 5.20195 3.43296C5.61992 3.50591 6.01572 3.66626 6.36412 3.90112C6.5652 4.03667 6.66574 4.10445 6.74209 4.11155C6.75748 4.11298 6.75995 4.11307 6.77541 4.11279C6.85207 4.11137 6.97532 4.04097 7.22181 3.90018C7.32543 3.841 7.41742 3.81848 7.50971 3.83485C7.54476 3.84107 7.57897 3.85173 7.61191 3.86523Z" fill="white"/>
</g>
<defs>
<filter id="filter0_i_1170_79" x="0" y="0" width="10" height="10" filterUnits="userSpaceOnUse" color-interpolation-filters="sRGB">
<feFlood flood-opacity="0" result="BackgroundImageFix"/>
<feBlend mode="normal" in="SourceGraphic" in2="BackgroundImageFix" result="shape"/>
<feColorMatrix in="SourceAlpha" type="matrix" values="0 0 0 0 0 0 0 0 0 0 0 0 0 0 0 0 0 0 127 0" result="hardAlpha"/>
<feOffset/>
<feGaussianBlur stdDeviation="1"/>
<feComposite in2="hardAlpha" operator="arithmetic" k2="-1" k3="1"/>
<feColorMatrix type="matrix" values="0 0 0 0 0.942 0 0 0 0 0.94 0 0 0 0 1 0 0 0 0.1 0"/>
<feBlend mode="hard-light" in2="shape" result="effect1_innerShadow_1170_79"/>
</filter>
</defs>
</svg>
