<svg width="10" height="10" viewBox="0 0 10 10" fill="none" xmlns="http://www.w3.org/2000/svg">
<g filter="url(#filter0_i_1145_2783)">
<g clip-path="url(#clip0_1145_2783)">
<path d="M6.98862 3.67244C7.37914 4.06296 7.37913 4.69613 6.98862 5.08665L4.51374 7.56153C4.12322 7.95204 3.49005 7.95205 3.09953 7.56153L1.68532 6.14731C1.29501 5.75678 1.29488 5.12355 1.68532 4.7331L2.58693 3.83149C2.74013 3.67829 2.81673 3.60169 2.83188 3.50516C2.83405 3.49133 2.83525 3.47736 2.83547 3.46336C2.83701 3.36567 2.77459 3.27712 2.64977 3.10004L2.40831 2.75748C2.24975 2.53168 2.30415 2.22024 2.52984 2.06142C2.75558 1.90303 3.06708 1.95744 3.2259 2.18296L3.25343 2.22196C3.42432 2.46404 3.50977 2.58507 3.63189 2.60634C3.64906 2.60933 3.66646 2.61082 3.68388 2.61079C3.80784 2.61057 3.91261 2.50581 4.12214 2.29628L4.16019 2.25823C4.55064 1.86779 5.18387 1.86792 5.5744 2.25823L6.98862 3.67244ZM4.51982 3.31281C4.41194 3.42069 4.35801 3.47462 4.33536 3.53875C4.31842 3.5867 4.31395 3.63817 4.32237 3.68833C4.33362 3.7554 4.37746 3.81782 4.46512 3.94268L4.56968 4.09159C4.72842 4.31722 4.67414 4.6293 4.44883 4.78834C4.223 4.94726 3.91031 4.89264 3.75139 4.66681C3.71815 4.61951 3.70153 4.59586 3.68536 4.5791C3.58132 4.47128 3.41366 4.45675 3.29262 4.54509C3.27381 4.55882 3.25337 4.57926 3.2125 4.62014L3.11764 4.71499C2.8808 4.95183 2.76238 5.07025 2.74891 5.1708C2.73461 5.27752 2.7786 5.38372 2.86417 5.44907C2.9448 5.51064 3.11227 5.51064 3.44721 5.51064L4.91431 5.51064C5.02459 5.51064 5.07973 5.51064 5.12999 5.4921C5.13736 5.48938 5.14462 5.48637 5.15175 5.48308C5.2004 5.46066 5.23939 5.42167 5.31737 5.34369L5.87846 4.7826C6.05791 4.60315 6.14764 4.51342 6.15632 4.40308C6.15755 4.38742 6.15755 4.37168 6.15632 4.35601C6.14764 4.24567 6.05791 4.15595 5.87846 3.9765L5.21478 3.31281C5.08835 3.18639 5.02514 3.12317 4.95144 3.10164C4.89649 3.08558 4.8381 3.08558 4.78316 3.10164C4.70946 3.12317 4.64624 3.18639 4.51982 3.31281ZM8.14216 5.72178C8.14285 5.72281 8.14363 5.72376 8.1445 5.72464C8.14547 5.7256 8.14631 5.72668 8.14675 5.72797C8.14707 5.72893 8.14742 5.72999 8.14802 5.73092C8.15053 5.73475 8.15494 5.73974 8.15907 5.74611C8.16761 5.75936 8.17866 5.77903 8.19291 5.80205C8.22163 5.84845 8.262 5.9137 8.30547 5.99194C8.39047 6.14496 8.50045 6.36297 8.57685 6.59202C8.64494 6.7963 8.72535 7.12015 8.6238 7.4248C8.56606 7.59771 8.45162 7.75696 8.27232 7.86467C8.10254 7.96654 7.91072 8.0007 7.72749 8.00071C7.54447 8.00069 7.35366 7.96627 7.18404 7.86467C7.00452 7.75696 6.88896 7.59783 6.83118 7.4248C6.72965 7.12018 6.81004 6.79629 6.87813 6.59202C6.95454 6.36291 7.06519 6.14427 7.1502 5.99125C7.19336 5.9136 7.23277 5.84897 7.26138 5.80274C7.27569 5.77962 7.28734 5.75942 7.29591 5.74611C7.29999 5.73982 7.30446 5.73473 7.30695 5.73092C7.30755 5.73 7.3079 5.72892 7.30823 5.72796C7.30867 5.72668 7.30951 5.7256 7.31047 5.72465C7.31134 5.72377 7.31213 5.72281 7.31282 5.72177L7.33757 5.68462C7.46246 5.49707 7.5249 5.4033 7.60212 5.36778C7.68169 5.33118 7.77328 5.33118 7.85285 5.36778C7.93008 5.4033 7.99252 5.49707 8.11741 5.68462L8.14216 5.72178Z" fill="white"/>
</g>
</g>
<defs>
<filter id="filter0_i_1145_2783" x="0" y="0" width="10" height="10" filterUnits="userSpaceOnUse" color-interpolation-filters="sRGB">
<feFlood flood-opacity="0" result="BackgroundImageFix"/>
<feBlend mode="normal" in="SourceGraphic" in2="BackgroundImageFix" result="shape"/>
<feColorMatrix in="SourceAlpha" type="matrix" values="0 0 0 0 0 0 0 0 0 0 0 0 0 0 0 0 0 0 127 0" result="hardAlpha"/>
<feOffset/>
<feGaussianBlur stdDeviation="1"/>
<feComposite in2="hardAlpha" operator="arithmetic" k2="-1" k3="1"/>
<feColorMatrix type="matrix" values="0 0 0 0 0.942 0 0 0 0 0.94 0 0 0 0 1 0 0 0 0.1 0"/>
<feBlend mode="hard-light" in2="shape" result="effect1_innerShadow_1145_2783"/>
</filter>
<clipPath id="clip0_1145_2783">
<rect width="10" height="10" rx="2.6" fill="white"/>
</clipPath>
</defs>
</svg>
