<svg width="10" height="10" viewBox="0 0 10 10" fill="none" xmlns="http://www.w3.org/2000/svg">
<g filter="url(#filter0_i_1144_2432)">
<path d="M7.5 2.5752C7.74853 2.5752 7.9502 2.77686 7.9502 3.02539C7.94997 3.27373 7.74839 3.47559 7.5 3.47559H7.2702C7.01641 3.47559 6.88952 3.47559 6.80536 3.54746C6.79341 3.55767 6.78228 3.5688 6.77207 3.58075C6.7002 3.66491 6.7002 3.7918 6.7002 4.04559V4.8252C6.69998 5.15637 6.4318 5.42477 6.10059 5.4248C5.76935 5.4248 5.50119 5.15639 5.50098 4.8252V3.97607C5.50098 3.78869 5.50098 3.695 5.46059 3.62525C5.43433 3.57991 5.39666 3.54223 5.35131 3.51597C5.28157 3.47559 5.18787 3.47559 5.00049 3.47559C4.8131 3.47559 4.71941 3.47559 4.64967 3.51597C4.60432 3.54223 4.56664 3.57991 4.54038 3.62525C4.5 3.695 4.5 3.78869 4.5 3.97607V6.8252C4.49979 7.15637 4.2316 7.42477 3.90039 7.4248C3.56915 7.4248 3.30099 7.15639 3.30078 6.8252V4.04559C3.30078 3.7918 3.30078 3.66491 3.2289 3.58075C3.2187 3.5688 3.20757 3.55767 3.19562 3.54746C3.11146 3.47559 2.98457 3.47559 2.73078 3.47559H2.5C2.25181 3.47536 2.05003 3.27359 2.0498 3.02539C2.0498 2.77701 2.25167 2.57543 2.5 2.5752H7.5Z" fill="white"/>
</g>
<defs>
<filter id="filter0_i_1144_2432" x="0" y="0" width="10" height="10" filterUnits="userSpaceOnUse" color-interpolation-filters="sRGB">
<feFlood flood-opacity="0" result="BackgroundImageFix"/>
<feBlend mode="normal" in="SourceGraphic" in2="BackgroundImageFix" result="shape"/>
<feColorMatrix in="SourceAlpha" type="matrix" values="0 0 0 0 0 0 0 0 0 0 0 0 0 0 0 0 0 0 127 0" result="hardAlpha"/>
<feOffset/>
<feGaussianBlur stdDeviation="1"/>
<feComposite in2="hardAlpha" operator="arithmetic" k2="-1" k3="1"/>
<feColorMatrix type="matrix" values="0 0 0 0 0.942 0 0 0 0 0.94 0 0 0 0 1 0 0 0 0.1 0"/>
<feBlend mode="hard-light" in2="shape" result="effect1_innerShadow_1144_2432"/>
</filter>
</defs>
</svg>
