<svg width="10" height="10" viewBox="0 0 10 10" fill="none" xmlns="http://www.w3.org/2000/svg">
<g filter="url(#filter0_i_1093_36)">
<path d="M2.4502 2.19971C2.67101 2.19976 2.85049 2.3793 2.85059 2.6001V7.3999C2.85059 7.62078 2.67106 7.80024 2.4502 7.80029C2.22928 7.80029 2.0498 7.62082 2.0498 7.3999V2.6001C2.0499 2.37926 2.22934 2.19971 2.4502 2.19971ZM5.35059 5.50049C5.68174 5.50067 5.9501 5.76892 5.9502 6.1001C5.9502 6.43135 5.6818 6.69952 5.35059 6.69971H4.15039C3.81902 6.69971 3.55078 6.43147 3.55078 6.1001C3.55087 5.76881 3.81908 5.50049 4.15039 5.50049H5.35059ZM7.35059 3.30029C7.68161 3.30056 7.95 3.56886 7.9502 3.8999C7.9502 4.23111 7.68173 4.49925 7.35059 4.49951H4.15039C3.81902 4.49951 3.55078 4.23127 3.55078 3.8999C3.55098 3.5687 3.81914 3.30029 4.15039 3.30029H7.35059Z" fill="white"/>
</g>
<defs>
<filter id="filter0_i_1093_36" x="0" y="0" width="10" height="10" filterUnits="userSpaceOnUse" color-interpolation-filters="sRGB">
<feFlood flood-opacity="0" result="BackgroundImageFix"/>
<feBlend mode="normal" in="SourceGraphic" in2="BackgroundImageFix" result="shape"/>
<feColorMatrix in="SourceAlpha" type="matrix" values="0 0 0 0 0 0 0 0 0 0 0 0 0 0 0 0 0 0 127 0" result="hardAlpha"/>
<feOffset/>
<feGaussianBlur stdDeviation="1"/>
<feComposite in2="hardAlpha" operator="arithmetic" k2="-1" k3="1"/>
<feColorMatrix type="matrix" values="0 0 0 0 0.942 0 0 0 0 0.94 0 0 0 0 1 0 0 0 0.1 0"/>
<feBlend mode="hard-light" in2="shape" result="effect1_innerShadow_1093_36"/>
</filter>
</defs>
</svg>
