<svg width="10" height="10" viewBox="0 0 10 10" fill="none" xmlns="http://www.w3.org/2000/svg">
<g filter="url(#filter0_i_1144_2407)">
<path d="M7.5 7.69922C7.72061 7.69942 7.90017 7.87901 7.90039 8.09961C7.90039 8.3204 7.72075 8.4998 7.5 8.5H2.5C2.27909 8.5 2.09961 8.32052 2.09961 8.09961C2.09983 7.87889 2.27922 7.69922 2.5 7.69922H7.5ZM3.89941 3.10059C4.23078 3.10059 4.49902 3.36882 4.49902 3.7002V6.2998C4.49893 6.6311 4.23073 6.90039 3.89941 6.90039C3.56814 6.90034 3.2999 6.63107 3.2998 6.2998V3.7002C3.2998 3.36886 3.56809 3.10064 3.89941 3.10059ZM6.09961 3.90039C6.43096 3.9004 6.6992 4.16865 6.69922 4.5V5.5C6.69922 5.83136 6.43097 6.0996 6.09961 6.09961C5.76824 6.09961 5.5 5.83137 5.5 5.5V4.5C5.50001 4.16864 5.76825 3.90039 6.09961 3.90039ZM7.5 1.5C7.72077 1.50017 7.90039 1.67958 7.90039 1.90039C7.90019 2.12104 7.72065 2.30062 7.5 2.30078H2.5C2.27921 2.30078 2.09981 2.12114 2.09961 1.90039C2.09961 1.67948 2.27909 1.5 2.5 1.5H7.5Z" fill="white"/>
</g>
<defs>
<filter id="filter0_i_1144_2407" x="0" y="0" width="10" height="10" filterUnits="userSpaceOnUse" color-interpolation-filters="sRGB">
<feFlood flood-opacity="0" result="BackgroundImageFix"/>
<feBlend mode="normal" in="SourceGraphic" in2="BackgroundImageFix" result="shape"/>
<feColorMatrix in="SourceAlpha" type="matrix" values="0 0 0 0 0 0 0 0 0 0 0 0 0 0 0 0 0 0 127 0" result="hardAlpha"/>
<feOffset/>
<feGaussianBlur stdDeviation="1"/>
<feComposite in2="hardAlpha" operator="arithmetic" k2="-1" k3="1"/>
<feColorMatrix type="matrix" values="0 0 0 0 0.942 0 0 0 0 0.94 0 0 0 0 1 0 0 0 0.1 0"/>
<feBlend mode="hard-light" in2="shape" result="effect1_innerShadow_1144_2407"/>
</filter>
</defs>
</svg>
