<svg width="10" height="10" viewBox="0 0 10 10" fill="none" xmlns="http://www.w3.org/2000/svg">
<g filter="url(#filter0_i_1144_2519)">
<path fill-rule="evenodd" clip-rule="evenodd" d="M8.49988 4.5024C8.77587 4.50258 8.99988 4.72637 8.99988 5.0024V7.30221C8.9994 7.57783 8.77557 7.80203 8.49988 7.80221C8.3636 7.80217 8.24053 7.74725 8.15079 7.65847C8.02942 7.53842 7.96874 7.47839 7.94128 7.47196C7.93457 7.47039 7.9361 7.47065 7.92924 7.4699C7.9012 7.46687 7.84608 7.49294 7.73585 7.54509C7.54277 7.63643 7.32725 7.6879 7.09949 7.68795C6.27151 7.68785 5.60068 7.01613 5.60046 6.18795C5.60067 5.35976 6.27151 4.68805 7.09949 4.68795C7.30552 4.688 7.50178 4.73007 7.68043 4.80568C7.80483 4.85833 7.86702 4.88465 7.89457 4.8807C7.90182 4.87966 7.89931 4.88018 7.90638 4.87827C7.93325 4.87103 8.00207 4.79932 8.13971 4.65588C8.23049 4.56129 8.3582 4.50245 8.49988 4.5024ZM2.77332 2.49264C3.00669 2.0861 3.61521 2.10354 3.82507 2.52291L3.86316 2.61861L5.27624 7.14108C5.35814 7.40443 5.21141 7.68473 4.94812 7.76705C4.68473 7.84925 4.40465 7.70218 4.32214 7.43893L4.14408 6.86913C4.12509 6.80836 4.1156 6.77798 4.09312 6.75915C4.08988 6.75643 4.08647 6.75393 4.08291 6.75164C4.05823 6.7358 4.02639 6.7358 3.96273 6.7358H2.37278C2.31255 6.7358 2.28243 6.7358 2.25852 6.75031C2.25506 6.75241 2.25174 6.75472 2.24856 6.75721C2.22658 6.77451 2.21601 6.80271 2.19487 6.85911L1.96765 7.46529C1.87063 7.7236 1.58251 7.85502 1.3241 7.75826C1.06586 7.66117 0.935292 7.37212 1.0321 7.11373L2.72937 2.58736L2.77332 2.49264ZM7.09949 5.52877C6.7353 5.52887 6.44052 5.82368 6.44031 6.18795C6.44052 6.55221 6.7353 6.848 7.09949 6.84811C7.46361 6.84793 7.75943 6.55216 7.75964 6.18795C7.75943 5.82373 7.46361 5.52895 7.09949 5.52877ZM2.7122 5.47917C2.67101 5.58915 2.65042 5.64414 2.67304 5.6846C2.67618 5.69022 2.67985 5.69552 2.68401 5.70043C2.71397 5.7358 2.77269 5.7358 2.89013 5.7358H3.53142C3.64295 5.7358 3.69872 5.7358 3.72855 5.7023C3.7327 5.69764 3.73641 5.69259 3.73963 5.68723C3.76269 5.64876 3.74605 5.59554 3.71276 5.48909L3.42092 4.55596C3.35634 4.34946 3.32404 4.2462 3.26234 4.23678C3.25416 4.23553 3.24585 4.2353 3.23761 4.23609C3.17548 4.2421 3.13754 4.34341 3.06165 4.54604L2.7122 5.47917Z" fill="white"/>
</g>
<defs>
<filter id="filter0_i_1144_2519" x="0" y="0" width="10" height="10" filterUnits="userSpaceOnUse" color-interpolation-filters="sRGB">
<feFlood flood-opacity="0" result="BackgroundImageFix"/>
<feBlend mode="normal" in="SourceGraphic" in2="BackgroundImageFix" result="shape"/>
<feColorMatrix in="SourceAlpha" type="matrix" values="0 0 0 0 0 0 0 0 0 0 0 0 0 0 0 0 0 0 127 0" result="hardAlpha"/>
<feOffset/>
<feGaussianBlur stdDeviation="1"/>
<feComposite in2="hardAlpha" operator="arithmetic" k2="-1" k3="1"/>
<feColorMatrix type="matrix" values="0 0 0 0 0.942 0 0 0 0 0.94 0 0 0 0 1 0 0 0 0.1 0"/>
<feBlend mode="hard-light" in2="shape" result="effect1_innerShadow_1144_2519"/>
</filter>
</defs>
</svg>
