<svg width="10" height="10" viewBox="0 0 10 10" fill="none" xmlns="http://www.w3.org/2000/svg">
<g filter="url(#filter0_i_1093_38)">
<path d="M1.8999 2.19971C2.12076 2.19971 2.3002 2.37926 2.30029 2.6001V7.3999C2.30029 7.62082 2.12082 7.80029 1.8999 7.80029C1.67909 7.80017 1.49951 7.62074 1.49951 7.3999V2.6001C1.4996 2.37934 1.67915 2.19983 1.8999 2.19971ZM8.1001 2.19971C8.32091 2.19976 8.50039 2.3793 8.50049 2.6001V7.3999C8.50049 7.62078 8.32097 7.80024 8.1001 7.80029C7.87918 7.80029 7.69971 7.62082 7.69971 7.3999V2.6001C7.6998 2.37926 7.87924 2.19971 8.1001 2.19971ZM5.50049 5.50049C5.83167 5.50065 6.1 5.7689 6.1001 6.1001C6.1001 6.43137 5.83172 6.69955 5.50049 6.69971H4.50049C4.16912 6.69971 3.90088 6.43147 3.90088 6.1001C3.90097 5.76881 4.16917 5.50049 4.50049 5.50049H5.50049ZM6.29932 3.30029C6.63056 3.30029 6.8997 3.5687 6.8999 3.8999C6.8999 4.23127 6.63069 4.49951 6.29932 4.49951H3.69971C3.36855 4.49926 3.1001 4.23112 3.1001 3.8999C3.1003 3.56886 3.36867 3.30054 3.69971 3.30029H6.29932Z" fill="white"/>
</g>
<defs>
<filter id="filter0_i_1093_38" x="0" y="0" width="10" height="10" filterUnits="userSpaceOnUse" color-interpolation-filters="sRGB">
<feFlood flood-opacity="0" result="BackgroundImageFix"/>
<feBlend mode="normal" in="SourceGraphic" in2="BackgroundImageFix" result="shape"/>
<feColorMatrix in="SourceAlpha" type="matrix" values="0 0 0 0 0 0 0 0 0 0 0 0 0 0 0 0 0 0 127 0" result="hardAlpha"/>
<feOffset/>
<feGaussianBlur stdDeviation="1"/>
<feComposite in2="hardAlpha" operator="arithmetic" k2="-1" k3="1"/>
<feColorMatrix type="matrix" values="0 0 0 0 0.942 0 0 0 0 0.94 0 0 0 0 1 0 0 0 0.1 0"/>
<feBlend mode="hard-light" in2="shape" result="effect1_innerShadow_1093_38"/>
</filter>
</defs>
</svg>
