<svg width="10" height="10" viewBox="0 0 10 10" fill="none" xmlns="http://www.w3.org/2000/svg">
<g filter="url(#filter0_i_1678_313)">
<path d="M2.29977 6.45013C2.54809 6.45013 2.74962 6.65112 2.74997 6.89935V6.93939C2.74997 7.05403 2.74997 7.11136 2.78444 7.16219C2.79734 7.1812 2.8187 7.20257 2.83772 7.21546C2.88855 7.24994 2.94555 7.24994 3.05954 7.24994H3.09958C3.34803 7.24994 3.54965 7.45171 3.54977 7.70013C3.54958 7.9485 3.34799 8.14935 3.09958 8.14935H3.05954C2.90205 8.14935 2.74313 8.15067 2.6113 8.1347C2.4688 8.11737 2.29799 8.07482 2.14743 7.94623C2.11372 7.9174 2.08249 7.88523 2.05368 7.8515C1.92522 7.70093 1.88251 7.53106 1.8652 7.38861C1.84921 7.25662 1.84958 7.09708 1.84958 6.93939V6.89935C1.84993 6.6512 2.05157 6.45026 2.29977 6.45013ZM5.39938 7.24994C5.64784 7.24994 5.84946 7.45171 5.84958 7.70013C5.84939 7.9485 5.64779 8.14935 5.39938 8.14935H4.59958C4.35137 8.14912 4.14958 7.94835 4.14938 7.70013C4.14951 7.45186 4.35133 7.25017 4.59958 7.24994H5.39938ZM7.70016 6.45013C7.94831 6.45033 8.14903 6.65124 8.14938 6.89935V6.93939C8.14938 7.09708 8.15073 7.25662 8.13474 7.38861C8.11743 7.53107 8.07475 7.70092 7.94626 7.8515C7.91734 7.88536 7.88539 7.91731 7.85153 7.94623C7.70095 8.07473 7.53111 8.1174 7.38864 8.1347C7.25665 8.1507 7.09712 8.14935 6.93942 8.14935H6.89938C6.65127 8.14901 6.45036 7.94829 6.45016 7.70013C6.45029 7.45192 6.65122 7.25028 6.89938 7.24994H6.93942C7.05401 7.24994 7.1113 7.24994 7.16208 7.21556C7.1812 7.20262 7.20265 7.18117 7.21559 7.16205C7.24997 7.11127 7.24997 7.05398 7.24997 6.93939V6.89935C7.25032 6.65119 7.45195 6.45025 7.70016 6.45013ZM2.29977 4.14935C2.54815 4.14935 2.74972 4.35123 2.74997 4.59955V5.29974C2.74997 5.54827 2.5483 5.74994 2.29977 5.74994C2.05136 5.74981 1.84958 5.54819 1.84958 5.29974V4.59955C1.84982 4.35131 2.05151 4.14948 2.29977 4.14935ZM7.70016 4.14935C7.94838 4.14955 8.14914 4.35135 8.14938 4.59955V5.29974C8.14938 5.54815 7.94853 5.74974 7.70016 5.74994C7.45173 5.74983 7.24997 5.5482 7.24997 5.29974V4.59955C7.25022 4.3513 7.45188 4.14947 7.70016 4.14935ZM3.09958 1.84955C3.34803 1.84955 3.54965 2.05132 3.54977 2.29974C3.54977 2.54827 3.34811 2.74994 3.09958 2.74994H3.05954C2.94547 2.74994 2.88844 2.74994 2.83754 2.78453C2.81866 2.79737 2.7974 2.81863 2.78456 2.83751C2.74997 2.8884 2.74997 2.94544 2.74997 3.05951V3.09955C2.74997 3.34808 2.5483 3.54974 2.29977 3.54974C2.05134 3.54963 1.84958 3.34801 1.84958 3.09955V3.05951C1.84958 2.90183 1.84918 2.74222 1.8652 2.61029C1.88257 2.46789 1.92523 2.2978 2.05368 2.1474L2.12367 2.07741C2.13492 2.06616 2.14054 2.06054 2.14658 2.05539C2.14748 2.05462 2.14838 2.05387 2.14929 2.05312C2.15542 2.04808 2.16194 2.04353 2.17499 2.03443L2.26364 1.9726C2.38146 1.90564 2.50352 1.8782 2.61032 1.86517C2.74226 1.84915 2.90185 1.84955 3.05954 1.84955H3.09958ZM6.93942 1.84955C7.09711 1.84955 7.25665 1.84918 7.38864 1.86517C7.53109 1.88248 7.70096 1.92518 7.85153 2.05365L7.92167 2.12307C7.93331 2.13459 7.93913 2.14034 7.94445 2.14655C7.94524 2.14747 7.94602 2.14839 7.94679 2.14933C7.952 2.15563 7.95668 2.16234 7.96605 2.17577L8.02731 2.26361C8.0942 2.38137 8.12171 2.50354 8.13474 2.61029C8.15076 2.74222 8.14939 2.90183 8.14938 3.05951V3.09955C8.14938 3.34796 7.94854 3.54956 7.70016 3.54974C7.45173 3.54963 7.24997 3.34801 7.24997 3.09955V3.05951C7.24997 2.94552 7.24997 2.88852 7.2155 2.83769C7.2026 2.81867 7.18123 2.7973 7.16221 2.78441C7.11138 2.74994 7.05406 2.74994 6.93942 2.74994H6.89938C6.65115 2.74959 6.45016 2.54806 6.45016 2.29974C6.45029 2.05154 6.65123 1.8499 6.89938 1.84955H6.93942ZM5.39938 1.84955C5.64784 1.84955 5.84946 2.05132 5.84958 2.29974C5.84958 2.54827 5.64791 2.74994 5.39938 2.74994H4.59958C4.35126 2.7497 4.14938 2.54812 4.14938 2.29974C4.14951 2.05147 4.35133 1.84979 4.59958 1.84955H5.39938Z" fill="white"/>
</g>
<defs>
<filter id="filter0_i_1678_313" x="0" y="0" width="10" height="10" filterUnits="userSpaceOnUse" color-interpolation-filters="sRGB">
<feFlood flood-opacity="0" result="BackgroundImageFix"/>
<feBlend mode="normal" in="SourceGraphic" in2="BackgroundImageFix" result="shape"/>
<feColorMatrix in="SourceAlpha" type="matrix" values="0 0 0 0 0 0 0 0 0 0 0 0 0 0 0 0 0 0 127 0" result="hardAlpha"/>
<feOffset/>
<feGaussianBlur stdDeviation="1"/>
<feComposite in2="hardAlpha" operator="arithmetic" k2="-1" k3="1"/>
<feColorMatrix type="matrix" values="0 0 0 0 0.942 0 0 0 0 0.94 0 0 0 0 1 0 0 0 0.1 0"/>
<feBlend mode="hard-light" in2="shape" result="effect1_innerShadow_1678_313"/>
</filter>
</defs>
</svg>
