<svg width="10" height="10" viewBox="0 0 10 10" fill="none" xmlns="http://www.w3.org/2000/svg">
<g filter="url(#filter0_i_1144_2430)">
<path d="M6.97461 2.0498C6.72624 2.04999 6.52441 2.25159 6.52441 2.5V2.7298C6.52441 2.98359 6.52441 3.11048 6.45254 3.19464C6.44233 3.20659 6.4312 3.21772 6.41925 3.22793C6.33509 3.2998 6.2082 3.2998 5.95441 3.2998H3.1748C2.8437 3.29998 2.57539 3.56832 2.5752 3.89941C2.5752 4.23068 2.84358 4.49885 3.1748 4.49902H6.02393C6.21131 4.49902 6.305 4.49902 6.37475 4.53941C6.42009 4.56567 6.45777 4.60334 6.48403 4.64869C6.52441 4.71843 6.52441 4.81213 6.52441 4.99951C6.52441 5.1869 6.52441 5.28059 6.48403 5.35033C6.45777 5.39568 6.42009 5.43336 6.37475 5.45962C6.305 5.5 6.21131 5.5 6.02393 5.5H5.17383C4.84282 5.50036 4.57431 5.76854 4.57422 6.09961C4.57422 6.43076 4.84276 6.69886 5.17383 6.69922H5.95441C6.2082 6.69922 6.33509 6.69922 6.41925 6.7711C6.4312 6.7813 6.44233 6.79243 6.45254 6.80438C6.52441 6.88854 6.52441 7.01543 6.52441 7.26922V7.5C6.52453 7.74831 6.72631 7.95001 6.97461 7.9502C7.22306 7.9502 7.42469 7.74843 7.4248 7.5V2.5C7.4248 2.25147 7.22314 2.0498 6.97461 2.0498Z" fill="white"/>
</g>
<defs>
<filter id="filter0_i_1144_2430" x="0" y="0" width="10" height="10" filterUnits="userSpaceOnUse" color-interpolation-filters="sRGB">
<feFlood flood-opacity="0" result="BackgroundImageFix"/>
<feBlend mode="normal" in="SourceGraphic" in2="BackgroundImageFix" result="shape"/>
<feColorMatrix in="SourceAlpha" type="matrix" values="0 0 0 0 0 0 0 0 0 0 0 0 0 0 0 0 0 0 127 0" result="hardAlpha"/>
<feOffset/>
<feGaussianBlur stdDeviation="1"/>
<feComposite in2="hardAlpha" operator="arithmetic" k2="-1" k3="1"/>
<feColorMatrix type="matrix" values="0 0 0 0 0.942 0 0 0 0 0.94 0 0 0 0 1 0 0 0 0.1 0"/>
<feBlend mode="hard-light" in2="shape" result="effect1_innerShadow_1144_2430"/>
</filter>
</defs>
</svg>
