<svg width="10" height="10" viewBox="0 0 10 10" fill="none" xmlns="http://www.w3.org/2000/svg">
<g filter="url(#filter0_i_1155_581)">
<path d="M6.09961 2C6.94536 2 7.36889 1.99982 7.64941 2.23926C7.68925 2.27328 7.72672 2.31075 7.76074 2.35059C8.00017 2.63112 8 3.05463 8 3.90039V6.09961C8 6.94537 8.00017 7.36888 7.76074 7.64941C7.72672 7.68925 7.68925 7.72672 7.64941 7.76074C7.36889 8.00018 6.94536 8 6.09961 8H3.90039C3.05464 8 2.63112 8.00017 2.35059 7.76074C2.31075 7.72672 2.27328 7.68925 2.23926 7.64941C1.99982 7.36888 2 6.94537 2 6.09961V3.90039C2 3.05463 1.99982 2.63112 2.23926 2.35059C2.27328 2.31075 2.31075 2.27328 2.35059 2.23926C2.63112 1.99983 3.05464 2 3.90039 2H6.09961ZM2.7998 6.2502C2.7998 6.67317 2.7998 6.88465 2.9196 7.02492C2.93661 7.04484 2.95516 7.06339 2.97508 7.0804C3.11535 7.2002 3.32683 7.2002 3.7498 7.2002H6.2502C6.67317 7.2002 6.88465 7.2002 7.02492 7.0804C7.04484 7.06339 7.06339 7.04484 7.0804 7.02492C7.2002 6.88465 7.2002 6.67317 7.2002 6.2502V3.7498C7.2002 3.32683 7.2002 3.11535 7.0804 2.97508C7.06339 2.95516 7.04484 2.93661 7.02492 2.9196C6.88465 2.7998 6.67317 2.7998 6.2502 2.7998H3.7498C3.32683 2.7998 3.11535 2.7998 2.97508 2.9196C2.95516 2.93661 2.93661 2.95516 2.9196 2.97508C2.7998 3.11535 2.7998 3.32683 2.7998 3.7498V6.2502ZM6.40039 5.45039C6.40039 5.87336 6.40039 6.08485 6.28059 6.22511C6.26358 6.24503 6.24503 6.26358 6.22511 6.28059C6.08485 6.40039 5.87336 6.40039 5.45039 6.40039H4.54961C4.12664 6.40039 3.91515 6.40039 3.77489 6.28059C3.75497 6.26358 3.73642 6.24503 3.71941 6.22511C3.59961 6.08485 3.59961 5.87336 3.59961 5.45039V4.54961C3.59961 4.12664 3.59961 3.91515 3.71941 3.77489C3.73642 3.75497 3.75497 3.73642 3.77489 3.71941C3.91515 3.59961 4.12664 3.59961 4.54961 3.59961H5.45039C5.87336 3.59961 6.08485 3.59961 6.22511 3.71941C6.24503 3.73642 6.26358 3.75497 6.28059 3.77489C6.40039 3.91515 6.40039 4.12664 6.40039 4.54961V5.45039Z" fill="white"/>
</g>
<defs>
<filter id="filter0_i_1155_581" x="0" y="0" width="10" height="10" filterUnits="userSpaceOnUse" color-interpolation-filters="sRGB">
<feFlood flood-opacity="0" result="BackgroundImageFix"/>
<feBlend mode="normal" in="SourceGraphic" in2="BackgroundImageFix" result="shape"/>
<feColorMatrix in="SourceAlpha" type="matrix" values="0 0 0 0 0 0 0 0 0 0 0 0 0 0 0 0 0 0 127 0" result="hardAlpha"/>
<feOffset/>
<feGaussianBlur stdDeviation="1"/>
<feComposite in2="hardAlpha" operator="arithmetic" k2="-1" k3="1"/>
<feColorMatrix type="matrix" values="0 0 0 0 0.942 0 0 0 0 0.94 0 0 0 0 1 0 0 0 0.1 0"/>
<feBlend mode="hard-light" in2="shape" result="effect1_innerShadow_1155_581"/>
</filter>
</defs>
</svg>
