<svg width="10" height="10" viewBox="0 0 10 10" fill="none" xmlns="http://www.w3.org/2000/svg">
<g filter="url(#filter0_i_1144_2515)">
<path d="M7.2998 7.44922C7.52058 7.44932 7.7001 7.62884 7.7002 7.84961C7.7002 8.07046 7.52063 8.2499 7.2998 8.25H2.7002C2.47928 8.25 2.2998 8.07052 2.2998 7.84961C2.2999 7.62878 2.47934 7.44922 2.7002 7.44922H7.2998ZM6.89941 1.75C7.17556 1.75 7.39941 1.97386 7.39941 2.25V4.25C7.39917 5.57515 6.32516 6.65019 5 6.65039C3.67483 6.65021 2.59986 5.57515 2.59961 4.25V2.25C2.59961 1.97397 2.82363 1.75019 3.09961 1.75C3.37575 1.75 3.59961 1.97386 3.59961 2.25V4.25C3.59986 5.02287 4.22711 5.65021 5 5.65039C5.77288 5.65019 6.39917 5.02287 6.39941 4.25V2.25C6.39941 1.97404 6.62352 1.75029 6.89941 1.75Z" fill="white"/>
</g>
<defs>
<filter id="filter0_i_1144_2515" x="0" y="0" width="10" height="10" filterUnits="userSpaceOnUse" color-interpolation-filters="sRGB">
<feFlood flood-opacity="0" result="BackgroundImageFix"/>
<feBlend mode="normal" in="SourceGraphic" in2="BackgroundImageFix" result="shape"/>
<feColorMatrix in="SourceAlpha" type="matrix" values="0 0 0 0 0 0 0 0 0 0 0 0 0 0 0 0 0 0 127 0" result="hardAlpha"/>
<feOffset/>
<feGaussianBlur stdDeviation="1"/>
<feComposite in2="hardAlpha" operator="arithmetic" k2="-1" k3="1"/>
<feColorMatrix type="matrix" values="0 0 0 0 0.942 0 0 0 0 0.94 0 0 0 0 1 0 0 0 0.1 0"/>
<feBlend mode="hard-light" in2="shape" result="effect1_innerShadow_1144_2515"/>
</filter>
</defs>
</svg>
