<svg width="10" height="10" viewBox="0 0 10 10" fill="none" xmlns="http://www.w3.org/2000/svg">
<g filter="url(#filter0_i_1232_127)">
<path d="M4.43578 6.13037C4.53412 6.03202 4.68506 5.93362 4.82402 5.93968C5.04045 5.94911 5.26003 5.87098 5.42532 5.70569C5.73772 5.39327 5.73773 4.88701 5.42532 4.5746C5.11289 4.26228 4.60661 4.26222 4.29422 4.5746C4.12886 4.73996 4.05095 4.95971 4.06059 5.17627C4.06678 5.31529 3.96795 5.46574 3.86954 5.56413L2.96071 6.47296C2.79868 6.635 2.53597 6.635 2.37394 6.47296C2.25277 6.3518 2.21855 6.16861 2.28781 6.01188L3.32075 3.67423C3.41167 3.46848 3.45712 3.3656 3.53744 3.29371C3.54916 3.28322 3.56137 3.27329 3.57403 3.26395C3.66076 3.19995 3.77074 3.17639 3.99069 3.12927L5.23523 2.86264C5.2689 2.85543 5.28573 2.85182 5.30158 2.84732C5.4207 2.81346 5.52302 2.7366 5.58872 2.63162C5.59746 2.61766 5.60561 2.60249 5.62192 2.57216C5.66541 2.49128 5.68715 2.45083 5.70819 2.42227C5.87301 2.19858 6.18858 2.15216 6.41083 2.31892C6.4392 2.34022 6.47167 2.37268 6.53661 2.43762L7.56229 3.4633C7.62723 3.52824 7.6597 3.56071 7.68099 3.58908C7.84775 3.81133 7.80133 4.12691 7.57764 4.29172C7.54908 4.31276 7.50864 4.33451 7.42775 4.37799C7.39742 4.3943 7.38226 4.40245 7.36829 4.4112C7.26331 4.47689 7.18645 4.57921 7.15259 4.69833C7.14809 4.71418 7.14448 4.73102 7.13727 4.76469L6.87061 6.00938C6.8235 6.22926 6.79995 6.3392 6.73598 6.42592C6.72665 6.43857 6.71672 6.45078 6.70623 6.4625C6.63438 6.5428 6.53155 6.58828 6.32589 6.67922L3.9891 7.71254C3.83215 7.78195 3.64867 7.7477 3.52732 7.62635C3.36508 7.46411 3.36508 7.20107 3.52732 7.03883L4.43578 6.13037Z" fill="white"/>
</g>
<defs>
<filter id="filter0_i_1232_127" x="0" y="0" width="10" height="10" filterUnits="userSpaceOnUse" color-interpolation-filters="sRGB">
<feFlood flood-opacity="0" result="BackgroundImageFix"/>
<feBlend mode="normal" in="SourceGraphic" in2="BackgroundImageFix" result="shape"/>
<feColorMatrix in="SourceAlpha" type="matrix" values="0 0 0 0 0 0 0 0 0 0 0 0 0 0 0 0 0 0 127 0" result="hardAlpha"/>
<feOffset/>
<feGaussianBlur stdDeviation="1"/>
<feComposite in2="hardAlpha" operator="arithmetic" k2="-1" k3="1"/>
<feColorMatrix type="matrix" values="0 0 0 0 0.942 0 0 0 0 0.94 0 0 0 0 1 0 0 0 0.1 0"/>
<feBlend mode="hard-light" in2="shape" result="effect1_innerShadow_1232_127"/>
</filter>
</defs>
</svg>
