<svg width="10" height="10" viewBox="0 0 10 10" fill="none" xmlns="http://www.w3.org/2000/svg">
<g filter="url(#filter0_i_1149_57)">
<path d="M7.11346 2.1001C7.49979 2.10042 7.81268 2.41389 7.81268 2.80029V3.3999C7.81268 3.67598 7.58874 3.8998 7.31268 3.8999C7.03672 3.89969 6.81268 3.67592 6.81268 3.3999C6.81268 3.23432 6.67846 3.1001 6.51288 3.1001H6.08288C5.82909 3.1001 5.7022 3.1001 5.61804 3.17198C5.60609 3.18218 5.59496 3.19331 5.58476 3.20526C5.51288 3.28942 5.51288 3.41631 5.51288 3.6701V6.80029C5.51288 6.85531 5.55748 6.8999 5.61249 6.8999C5.88854 6.89992 6.11338 7.12383 6.11346 7.3999C6.11347 7.67583 5.88935 7.89958 5.61346 7.8999H4.41327C4.13717 7.89982 3.91326 7.67598 3.91327 7.3999C3.91335 7.12376 4.13713 6.89982 4.41327 6.8999C4.46828 6.8999 4.51288 6.85531 4.51288 6.80029V3.6701C4.51288 3.41631 4.51288 3.28942 4.441 3.20526C4.43079 3.19331 4.41966 3.18218 4.40771 3.17198C4.32355 3.1001 4.19666 3.1001 3.94288 3.1001H3.51288C3.3473 3.1001 3.21307 3.23432 3.21307 3.3999C3.21307 3.67598 2.98913 3.8998 2.71307 3.8999C2.43693 3.8999 2.21307 3.67604 2.21307 3.3999V2.80029C2.21307 2.41369 2.52667 2.1001 2.91327 2.1001H7.11346Z" fill="white"/>
</g>
<defs>
<filter id="filter0_i_1149_57" x="0" y="0" width="10" height="10" filterUnits="userSpaceOnUse" color-interpolation-filters="sRGB">
<feFlood flood-opacity="0" result="BackgroundImageFix"/>
<feBlend mode="normal" in="SourceGraphic" in2="BackgroundImageFix" result="shape"/>
<feColorMatrix in="SourceAlpha" type="matrix" values="0 0 0 0 0 0 0 0 0 0 0 0 0 0 0 0 0 0 127 0" result="hardAlpha"/>
<feOffset/>
<feGaussianBlur stdDeviation="1"/>
<feComposite in2="hardAlpha" operator="arithmetic" k2="-1" k3="1"/>
<feColorMatrix type="matrix" values="0 0 0 0 0.942 0 0 0 0 0.94 0 0 0 0 1 0 0 0 0.1 0"/>
<feBlend mode="hard-light" in2="shape" result="effect1_innerShadow_1149_57"/>
</filter>
</defs>
</svg>
