<svg width="10" height="10" viewBox="0 0 10 10" fill="none" xmlns="http://www.w3.org/2000/svg">
<g filter="url(#filter0_i_1144_2434)">
<path d="M3.90039 2.5C4.23161 2.50003 4.4998 2.76843 4.5 3.09961V4.04932C4.5 4.2367 4.5 4.33039 4.54038 4.40014C4.56664 4.44548 4.60432 4.48316 4.64967 4.50942C4.71941 4.5498 4.8131 4.5498 5.00049 4.5498H5.05078C5.19075 4.5498 5.26073 4.5498 5.31592 4.52691C5.38932 4.49646 5.44764 4.43815 5.47808 4.36475C5.50098 4.30956 5.50098 4.23958 5.50098 4.09961C5.50118 3.76841 5.76934 3.5 6.10059 3.5C6.43181 3.50003 6.7 3.76843 6.7002 4.09961C6.7002 4.23958 6.7002 4.30956 6.72309 4.36475C6.75354 4.43815 6.81185 4.49646 6.88525 4.52691C6.94044 4.5498 7.01042 4.5498 7.15039 4.5498H7.5C7.74853 4.5498 7.9502 4.75147 7.9502 5C7.95018 5.24852 7.74852 5.4502 7.5 5.4502H7.14941C7.01037 5.4502 6.94084 5.4502 6.88596 5.4728C6.81199 5.50326 6.75326 5.56199 6.7228 5.63596C6.7002 5.69084 6.7002 5.76037 6.7002 5.89941C6.7002 6.23076 6.43193 6.49997 6.10059 6.5C5.76922 6.5 5.50098 6.23078 5.50098 5.89941C5.50098 5.76037 5.50098 5.69084 5.47837 5.63596C5.44791 5.56199 5.38918 5.50326 5.31521 5.4728C5.26033 5.4502 5.19081 5.4502 5.05176 5.4502H5.00049C4.8131 5.4502 4.71941 5.4502 4.64967 5.49058C4.60432 5.51684 4.56664 5.55452 4.54038 5.59986C4.5 5.66961 4.5 5.7633 4.5 5.95068V6.89941C4.5 7.23076 4.23173 7.49997 3.90039 7.5C3.56902 7.5 3.30078 7.23078 3.30078 6.89941V6.0202C3.30078 5.76641 3.30078 5.63952 3.2289 5.55536C3.2187 5.54341 3.20757 5.53228 3.19562 5.52207C3.11146 5.4502 2.98457 5.4502 2.73078 5.4502H2.5C2.25168 5.44996 2.04982 5.24837 2.0498 5C2.0498 4.75161 2.25167 4.55004 2.5 4.5498H2.73078C2.98457 4.5498 3.11146 4.5498 3.19562 4.47793C3.20757 4.46772 3.2187 4.45659 3.2289 4.44464C3.30078 4.36048 3.30078 4.23359 3.30078 3.9798V3.09961C3.30098 2.76841 3.56914 2.5 3.90039 2.5Z" fill="white"/>
</g>
<defs>
<filter id="filter0_i_1144_2434" x="0" y="0" width="10" height="10" filterUnits="userSpaceOnUse" color-interpolation-filters="sRGB">
<feFlood flood-opacity="0" result="BackgroundImageFix"/>
<feBlend mode="normal" in="SourceGraphic" in2="BackgroundImageFix" result="shape"/>
<feColorMatrix in="SourceAlpha" type="matrix" values="0 0 0 0 0 0 0 0 0 0 0 0 0 0 0 0 0 0 127 0" result="hardAlpha"/>
<feOffset/>
<feGaussianBlur stdDeviation="1"/>
<feComposite in2="hardAlpha" operator="arithmetic" k2="-1" k3="1"/>
<feColorMatrix type="matrix" values="0 0 0 0 0.942 0 0 0 0 0.94 0 0 0 0 1 0 0 0 0.1 0"/>
<feBlend mode="hard-light" in2="shape" result="effect1_innerShadow_1144_2434"/>
</filter>
</defs>
</svg>
