<svg width="10" height="10" viewBox="0 0 10 10" fill="none" xmlns="http://www.w3.org/2000/svg">
<g filter="url(#filter0_i_1144_2517)">
<path d="M4.62939 1.54062C5.50997 1.43638 6.5765 1.78445 7.04736 2.72617C7.17051 2.97299 7.07039 3.27355 6.82373 3.39706C6.57696 3.52012 6.27637 3.41997 6.15283 3.17343C5.92385 2.71547 5.34076 2.46342 4.74658 2.53378C4.46119 2.56771 4.21945 2.67353 4.05713 2.82382C3.90409 2.96564 3.80029 3.16486 3.80029 3.4498C3.80045 3.65711 3.89463 3.82218 4.15088 4.00253C4.42848 4.1978 4.81551 4.35247 5.28174 4.53378C5.29822 4.54019 5.30645 4.54339 5.31485 4.54534C5.31813 4.5461 5.32144 4.54672 5.32478 4.5472C5.3333 4.54843 5.34178 4.54843 5.35874 4.54843H7.8999C8.12068 4.54843 8.30008 4.72809 8.30029 4.94882C8.30029 5.16974 8.12082 5.34921 7.8999 5.34921H7.43536C7.21255 5.34921 7.10115 5.34921 7.06517 5.39793C7.05943 5.4057 7.05656 5.41058 7.05255 5.41937C7.02739 5.47446 7.08948 5.58641 7.21366 5.8103C7.32958 6.0193 7.40088 6.26347 7.40088 6.54941C7.40084 7.15377 7.10763 7.62449 6.69189 7.94003C6.28881 8.24589 5.77119 8.40931 5.26221 8.45956C4.75039 8.51003 4.20544 8.45006 3.72705 8.26816C3.25043 8.08679 2.80042 7.76726 2.55322 7.27304C2.42973 7.02605 2.52987 6.72564 2.77686 6.60214C3.02379 6.47886 3.3243 6.57888 3.44775 6.82578C3.55052 7.03113 3.76278 7.21189 4.08252 7.33359C4.40076 7.45457 4.78827 7.5014 5.16357 7.46445C5.54177 7.4271 5.86882 7.30901 6.0874 7.14316C6.29318 6.98691 6.40085 6.79472 6.40088 6.54941C6.40088 6.34192 6.30662 6.17614 6.05029 5.9957C5.77277 5.80041 5.38559 5.64671 4.91943 5.46542C4.83718 5.43343 4.75195 5.39997 4.66527 5.36547C4.64594 5.35778 4.63627 5.35393 4.62624 5.35181C4.62475 5.35149 4.62328 5.35121 4.62178 5.35095C4.61167 5.34921 4.60133 5.34921 4.58063 5.34921H2.1001C1.87918 5.34921 1.69971 5.16974 1.69971 4.94882C1.69993 4.72809 1.87932 4.54843 2.1001 4.54843H2.7173C2.9216 4.54843 3.02375 4.54843 3.05978 4.50232C3.06555 4.49493 3.06849 4.49027 3.07267 4.48188C3.09873 4.42948 3.04796 4.32325 2.9464 4.1108C2.85498 3.91953 2.80037 3.70062 2.80029 3.4498C2.80029 2.88493 3.02132 2.42045 3.37744 2.09042C3.7244 1.76908 4.17761 1.59422 4.62939 1.54062Z" fill="white"/>
</g>
<defs>
<filter id="filter0_i_1144_2517" x="0" y="0" width="10" height="10" filterUnits="userSpaceOnUse" color-interpolation-filters="sRGB">
<feFlood flood-opacity="0" result="BackgroundImageFix"/>
<feBlend mode="normal" in="SourceGraphic" in2="BackgroundImageFix" result="shape"/>
<feColorMatrix in="SourceAlpha" type="matrix" values="0 0 0 0 0 0 0 0 0 0 0 0 0 0 0 0 0 0 127 0" result="hardAlpha"/>
<feOffset/>
<feGaussianBlur stdDeviation="1"/>
<feComposite in2="hardAlpha" operator="arithmetic" k2="-1" k3="1"/>
<feColorMatrix type="matrix" values="0 0 0 0 0.942 0 0 0 0 0.94 0 0 0 0 1 0 0 0 0.1 0"/>
<feBlend mode="hard-light" in2="shape" result="effect1_innerShadow_1144_2517"/>
</filter>
</defs>
</svg>
