<svg width="10" height="10" viewBox="0 0 10 10" fill="none" xmlns="http://www.w3.org/2000/svg">
<g filter="url(#filter0_i_1191_5481)">
<path d="M6.40039 2C6.67641 2.00015 6.90039 2.22395 6.90039 2.5V2.53059C6.90039 2.78437 6.90039 2.91126 6.97227 2.99542C6.98248 3.00737 6.99361 3.0185 7.00556 3.02871C7.08972 3.10059 7.21661 3.10059 7.47039 3.10059H7.5C7.77614 3.10059 8 3.32444 8 3.60059C7.99975 3.87651 7.77599 4.10059 7.5 4.10059H7.47039C7.21661 4.10059 7.08972 4.10059 7.00556 4.17246C6.99361 4.18267 6.98248 4.1938 6.97227 4.20575C6.90039 4.28991 6.90039 4.4168 6.90039 4.67059V5.32941C6.90039 5.5832 6.90039 5.71009 6.97227 5.79425C6.98248 5.8062 6.99361 5.81733 7.00556 5.82754C7.08972 5.89941 7.21661 5.89941 7.47039 5.89941H7.5C7.77601 5.89941 7.99978 6.12346 8 6.39941C8 6.67556 7.77614 6.89941 7.5 6.89941H7.47039C7.21661 6.89941 7.08972 6.89941 7.00556 6.97129C6.99361 6.9815 6.98248 6.99263 6.97227 7.00458C6.90039 7.08874 6.90039 7.21563 6.90039 7.46941V7.5C6.90019 7.77589 6.67629 7.99986 6.40039 8C6.12437 8 5.90059 7.77597 5.90039 7.5V7.46941C5.90039 7.21563 5.90039 7.08874 5.82851 7.00458C5.81831 6.99263 5.80718 6.9815 5.79523 6.97129C5.71107 6.89941 5.58417 6.89941 5.33039 6.89941H4.66961C4.41583 6.89941 4.28893 6.89941 4.20477 6.97129C4.19282 6.9815 4.18169 6.99263 4.17149 7.00458C4.09961 7.08874 4.09961 7.21563 4.09961 7.46941V7.5C4.09961 7.77614 3.87575 8 3.59961 8C3.32365 7.99978 3.09961 7.77601 3.09961 7.5V7.46941C3.09961 7.21563 3.09961 7.08874 3.02773 7.00458C3.01752 6.99263 3.00639 6.9815 2.99444 6.97129C2.91029 6.89941 2.78339 6.89941 2.52961 6.89941H2.5C2.22391 6.89935 2 6.67552 2 6.39941C2.00022 6.1235 2.22405 5.89948 2.5 5.89941H2.52961C2.78339 5.89941 2.91029 5.89941 2.99444 5.82754C3.00639 5.81733 3.01752 5.8062 3.02773 5.79425C3.09961 5.71009 3.09961 5.5832 3.09961 5.32941V4.67059C3.09961 4.4168 3.09961 4.28991 3.02773 4.20575C3.01752 4.1938 3.00639 4.18267 2.99444 4.17246C2.91029 4.10059 2.78339 4.10059 2.52961 4.10059H2.5C2.22407 4.10052 2.00025 3.87647 2 3.60059C2 3.32448 2.22391 3.10065 2.5 3.10059H2.52961C2.78339 3.10059 2.91029 3.10059 2.99444 3.02871C3.00639 3.0185 3.01752 3.00737 3.02773 2.99542C3.09961 2.91126 3.09961 2.78437 3.09961 2.53059V2.5C3.09963 2.224 3.32366 2.00022 3.59961 2C3.87574 2 4.09959 2.22387 4.09961 2.5V2.53059C4.09961 2.78437 4.09961 2.91126 4.17149 2.99542C4.18169 3.00737 4.19282 3.0185 4.20477 3.02871C4.28893 3.10059 4.41583 3.10059 4.66961 3.10059H5.33039C5.58417 3.10059 5.71107 3.10059 5.79523 3.02871C5.80718 3.0185 5.81831 3.00737 5.82851 2.99542C5.90039 2.91126 5.90039 2.78437 5.90039 2.53059V2.5C5.90039 2.22386 6.12425 2 6.40039 2ZM4.09961 5.32941C4.09961 5.5832 4.09961 5.71009 4.17149 5.79425C4.18169 5.8062 4.19282 5.81733 4.20477 5.82754C4.28893 5.89941 4.41583 5.89941 4.66961 5.89941H5.33039C5.58417 5.89941 5.71107 5.89941 5.79523 5.82754C5.80718 5.81733 5.81831 5.8062 5.82851 5.79425C5.90039 5.71009 5.90039 5.5832 5.90039 5.32941V4.67059C5.90039 4.4168 5.90039 4.28991 5.82851 4.20575C5.81831 4.1938 5.80718 4.18267 5.79523 4.17246C5.71107 4.10059 5.58417 4.10059 5.33039 4.10059H4.66961C4.41583 4.10059 4.28893 4.10059 4.20477 4.17246C4.19282 4.18267 4.18169 4.1938 4.17149 4.20575C4.09961 4.28991 4.09961 4.4168 4.09961 4.67059V5.32941Z" fill="white"/>
</g>
<defs>
<filter id="filter0_i_1191_5481" x="0" y="0" width="10" height="10" filterUnits="userSpaceOnUse" color-interpolation-filters="sRGB">
<feFlood flood-opacity="0" result="BackgroundImageFix"/>
<feBlend mode="normal" in="SourceGraphic" in2="BackgroundImageFix" result="shape"/>
<feColorMatrix in="SourceAlpha" type="matrix" values="0 0 0 0 0 0 0 0 0 0 0 0 0 0 0 0 0 0 127 0" result="hardAlpha"/>
<feOffset/>
<feGaussianBlur stdDeviation="1"/>
<feComposite in2="hardAlpha" operator="arithmetic" k2="-1" k3="1"/>
<feColorMatrix type="matrix" values="0 0 0 0 0.942 0 0 0 0 0.94 0 0 0 0 1 0 0 0 0.1 0"/>
<feBlend mode="hard-light" in2="shape" result="effect1_innerShadow_1191_5481"/>
</filter>
</defs>
</svg>
