<svg width="10" height="10" viewBox="0 0 10 10" fill="none" xmlns="http://www.w3.org/2000/svg">
<g filter="url(#filter0_i_1144_2405)">
<path d="M3.90039 3.55078C4.23168 3.55081 4.49991 3.81912 4.5 4.15039V7.35059C4.49989 7.68185 4.23167 7.95016 3.90039 7.9502C3.56909 7.9502 3.30089 7.68187 3.30078 7.35059V4.15039C3.30088 3.8191 3.56908 3.55078 3.90039 3.55078ZM6.10059 3.55078C6.43187 3.55081 6.7001 3.81912 6.7002 4.15039V5.35059C6.70009 5.68185 6.43186 5.95016 6.10059 5.9502C5.76928 5.9502 5.50108 5.68187 5.50098 5.35059V4.15039C5.50107 3.8191 5.76927 3.55078 6.10059 3.55078ZM7.5 2.0498C7.72079 2.0498 7.90019 2.22945 7.90039 2.4502C7.90039 2.67111 7.72091 2.85059 7.5 2.85059H2.5C2.27929 2.85035 2.09961 2.67096 2.09961 2.4502C2.09981 2.2296 2.27941 2.05004 2.5 2.0498H7.5Z" fill="white"/>
</g>
<defs>
<filter id="filter0_i_1144_2405" x="0" y="0" width="10" height="10" filterUnits="userSpaceOnUse" color-interpolation-filters="sRGB">
<feFlood flood-opacity="0" result="BackgroundImageFix"/>
<feBlend mode="normal" in="SourceGraphic" in2="BackgroundImageFix" result="shape"/>
<feColorMatrix in="SourceAlpha" type="matrix" values="0 0 0 0 0 0 0 0 0 0 0 0 0 0 0 0 0 0 127 0" result="hardAlpha"/>
<feOffset/>
<feGaussianBlur stdDeviation="1"/>
<feComposite in2="hardAlpha" operator="arithmetic" k2="-1" k3="1"/>
<feColorMatrix type="matrix" values="0 0 0 0 0.942 0 0 0 0 0.94 0 0 0 0 1 0 0 0 0.1 0"/>
<feBlend mode="hard-light" in2="shape" result="effect1_innerShadow_1144_2405"/>
</filter>
</defs>
</svg>
