<svg width="10" height="10" viewBox="0 0 10 10" fill="none" xmlns="http://www.w3.org/2000/svg">
<g filter="url(#filter0_i_1145_2793)">
<path fill-rule="evenodd" clip-rule="evenodd" d="M5.96341 1.69971C6.42598 1.69971 6.65737 1.69996 6.83255 1.87256C6.85357 1.89329 6.8828 1.92766 6.89993 1.95166C7.0425 2.1517 7.01148 2.34562 6.94974 2.73291C6.84986 3.35921 6.59286 4.13903 5.95755 4.67725C5.86212 4.75829 5.80043 4.87432 5.80032 4.99951C5.80032 5.12489 5.86195 5.24164 5.95755 5.32275C6.59293 5.86103 6.84988 6.64076 6.94974 7.26709C7.01149 7.65444 7.04266 7.84824 6.89993 8.04834C6.88277 8.07238 6.85358 8.10672 6.83255 8.12744C6.65738 8.29999 6.42593 8.30029 5.96341 8.30029H3.63626C3.17381 8.30029 2.94227 8.30002 2.76712 8.12744C2.74609 8.10671 2.71688 8.07236 2.69974 8.04834C2.55708 7.84828 2.58819 7.65436 2.64993 7.26709C2.74978 6.64076 3.00673 5.86103 3.64212 5.32275C3.73778 5.24163 3.80032 5.12494 3.80032 4.99951C3.80021 4.87428 3.73761 4.75829 3.64212 4.67725C3.00679 4.13903 2.7498 3.35921 2.64993 2.73291C2.5882 2.34568 2.55724 2.15167 2.69974 1.95166C2.71684 1.9277 2.7461 1.8933 2.76712 1.87256C2.94227 1.69998 3.17381 1.69971 3.63626 1.69971L5.96341 1.69971ZM4.02786 2.49463C3.75538 2.49653 3.61861 2.49781 3.52981 2.59912C3.51897 2.61153 3.50498 2.62986 3.49661 2.64404C3.42826 2.76014 3.4663 2.8758 3.54056 3.10596C3.73821 3.71845 4.14909 4.39963 4.80032 4.3999C5.45149 4.39992 5.8619 3.719 6.05911 3.10596C6.13319 2.87569 6.17041 2.76 6.10208 2.64404C6.0937 2.62986 6.07974 2.61153 6.06888 2.59912C5.98009 2.49789 5.84355 2.49654 5.57083 2.49463C5.0761 2.49117 4.52259 2.49118 4.02786 2.49463Z" fill="white"/>
</g>
<defs>
<filter id="filter0_i_1145_2793" x="0" y="0" width="10" height="10" filterUnits="userSpaceOnUse" color-interpolation-filters="sRGB">
<feFlood flood-opacity="0" result="BackgroundImageFix"/>
<feBlend mode="normal" in="SourceGraphic" in2="BackgroundImageFix" result="shape"/>
<feColorMatrix in="SourceAlpha" type="matrix" values="0 0 0 0 0 0 0 0 0 0 0 0 0 0 0 0 0 0 127 0" result="hardAlpha"/>
<feOffset/>
<feGaussianBlur stdDeviation="1"/>
<feComposite in2="hardAlpha" operator="arithmetic" k2="-1" k3="1"/>
<feColorMatrix type="matrix" values="0 0 0 0 0.942 0 0 0 0 0.94 0 0 0 0 1 0 0 0 0.1 0"/>
<feBlend mode="hard-light" in2="shape" result="effect1_innerShadow_1145_2793"/>
</filter>
</defs>
</svg>
