<svg width="10" height="10" viewBox="0 0 10 10" fill="none" xmlns="http://www.w3.org/2000/svg">
<g filter="url(#filter0_i_1144_2521)">
<path d="M4.67578 2.04204C4.92797 1.61101 5.60236 1.66328 5.7627 2.16997L7.47656 7.59868C7.5594 7.86187 7.41356 8.14253 7.15039 8.22563C6.88727 8.30849 6.60666 8.16248 6.52344 7.89946L6.21801 6.93368C6.19171 6.85052 6.11454 6.79399 6.02732 6.79399H4.04154C3.95884 6.79399 3.88468 6.84489 3.85493 6.92205L3.4668 7.92876C3.36728 8.18613 3.0778 8.31417 2.82031 8.21489C2.56284 8.11547 2.43399 7.82593 2.5332 7.56841L4.63086 2.13481L4.67578 2.04204ZM4.39496 5.52201C4.34441 5.65304 4.44112 5.79399 4.58156 5.79399H5.58549C5.72067 5.79399 5.81692 5.66266 5.7762 5.53375L5.32424 4.10287C5.26728 3.92253 5.015 3.91468 4.94693 4.09113L4.39496 5.52201Z" fill="white"/>
</g>
<defs>
<filter id="filter0_i_1144_2521" x="0" y="0" width="10" height="10" filterUnits="userSpaceOnUse" color-interpolation-filters="sRGB">
<feFlood flood-opacity="0" result="BackgroundImageFix"/>
<feBlend mode="normal" in="SourceGraphic" in2="BackgroundImageFix" result="shape"/>
<feColorMatrix in="SourceAlpha" type="matrix" values="0 0 0 0 0 0 0 0 0 0 0 0 0 0 0 0 0 0 127 0" result="hardAlpha"/>
<feOffset/>
<feGaussianBlur stdDeviation="1"/>
<feComposite in2="hardAlpha" operator="arithmetic" k2="-1" k3="1"/>
<feColorMatrix type="matrix" values="0 0 0 0 0.942 0 0 0 0 0.94 0 0 0 0 1 0 0 0 0.1 0"/>
<feBlend mode="hard-light" in2="shape" result="effect1_innerShadow_1144_2521"/>
</filter>
</defs>
</svg>
