<svg width="10" height="10" viewBox="0 0 10 10" fill="none" xmlns="http://www.w3.org/2000/svg">
<g filter="url(#filter0_i_1144_2511)">
<path d="M4.92746 1.7002C6.21149 1.7007 7.12596 2.94849 6.73898 4.17285C6.65989 4.42284 6.62034 4.54783 6.627 4.61028C6.62994 4.6379 6.62963 4.63632 6.63746 4.66297C6.65515 4.72322 6.73688 4.8206 6.90034 5.01536C7.30735 5.50027 7.48563 6.17388 7.29269 6.84961C7.04736 7.70782 6.26239 8.29946 5.36984 8.2998H3.76926C3.6685 8.2998 3.5449 8.30024 3.43918 8.28906C3.32359 8.27677 3.15722 8.24479 2.99777 8.12988C2.90194 8.0608 2.82063 7.97353 2.75851 7.87305C2.65516 7.70568 2.63459 7.53709 2.63058 7.4209C2.62697 7.31464 2.63708 7.19134 2.64426 7.09082L2.80344 4.85742V4.85352L2.98215 2.53906C2.98251 2.53411 2.98297 2.52212 2.9841 2.51074L2.9968 2.42676C3.0771 2.01608 3.43324 1.70994 3.8591 1.7002H4.92746ZM3.89002 6.489C3.87073 6.75908 3.86108 6.89412 3.93301 6.98535C3.94318 6.99825 3.9544 7.0103 3.96654 7.02136C4.05242 7.09961 4.1878 7.09961 4.45857 7.09961H5.36984C5.7267 7.09927 6.04034 6.86271 6.1384 6.51953C6.28407 6.00884 5.90082 5.5005 5.36984 5.5H4.4914C4.25364 5.5 4.13476 5.5 4.05258 5.56574C4.04087 5.57512 4.02987 5.58535 4.01969 5.59637C3.94826 5.67365 3.93979 5.79223 3.92285 6.02939L3.89002 6.489ZM4.09706 3.68581C4.07605 3.95723 4.06554 4.09294 4.13746 4.18477C4.14762 4.19776 4.15884 4.20988 4.171 4.22102C4.25701 4.2998 4.39313 4.2998 4.66536 4.2998H4.92746C5.23239 4.29947 5.50245 4.10133 5.59445 3.81055C5.73654 3.35979 5.40008 2.89992 4.92746 2.89941H4.68551C4.44905 2.89941 4.33082 2.89941 4.24882 2.96466C4.23712 2.97396 4.22614 2.98413 4.21596 2.99507C4.14459 3.07179 4.13546 3.18966 4.11721 3.42542L4.09706 3.68581Z" fill="white"/>
</g>
<defs>
<filter id="filter0_i_1144_2511" x="0" y="0" width="10" height="10" filterUnits="userSpaceOnUse" color-interpolation-filters="sRGB">
<feFlood flood-opacity="0" result="BackgroundImageFix"/>
<feBlend mode="normal" in="SourceGraphic" in2="BackgroundImageFix" result="shape"/>
<feColorMatrix in="SourceAlpha" type="matrix" values="0 0 0 0 0 0 0 0 0 0 0 0 0 0 0 0 0 0 127 0" result="hardAlpha"/>
<feOffset/>
<feGaussianBlur stdDeviation="1"/>
<feComposite in2="hardAlpha" operator="arithmetic" k2="-1" k3="1"/>
<feColorMatrix type="matrix" values="0 0 0 0 0.942 0 0 0 0 0.94 0 0 0 0 1 0 0 0 0.1 0"/>
<feBlend mode="hard-light" in2="shape" result="effect1_innerShadow_1144_2511"/>
</filter>
</defs>
</svg>
