<svg width="10" height="10" viewBox="0 0 10 10" fill="none" xmlns="http://www.w3.org/2000/svg">
<g filter="url(#filter0_i_1142_1129)">
<path d="M6.61036 6.12551C6.63007 6.17744 6.70347 6.20682 6.74186 6.16668C6.92342 5.97683 7.03089 5.84154 7.07095 5.73259C7.08702 5.68868 7.08922 5.6802 7.10064 5.63523C7.15821 5.40851 7.09061 5.09423 6.95632 4.46754L6.9432 4.4047C6.93352 4.35954 6.92868 4.33696 6.92702 4.32208C6.91734 4.23552 6.93781 4.1662 6.99296 4.09879C7.00244 4.0872 7.01631 4.07332 7.04406 4.04558L7.93343 3.15621C8.20674 2.88288 8.20667 2.43936 7.93343 2.16599C7.66006 1.89262 7.21657 1.89263 6.9432 2.16599L6.05279 3.0564C6.02595 3.08324 6.01253 3.09666 6.00131 3.10589C5.9334 3.16178 5.86384 3.18232 5.77646 3.17229C5.76202 3.17064 5.73959 3.16583 5.69471 3.15621L5.63257 3.14378C5.00538 3.00939 4.69168 2.94187 4.46487 2.99946C4.41938 3.01101 4.41151 3.01305 4.36751 3.02915C4.27052 3.0647 4.15249 3.15323 3.99375 3.3002C3.93124 3.35807 3.97593 3.48129 4.04779 3.52703L4.05055 3.52841C4.05234 3.52955 4.05532 3.53142 4.05815 3.53324C4.06461 3.53741 4.0744 3.54376 4.08577 3.5512C4.10962 3.56682 4.14438 3.59035 4.18659 3.61887C4.27174 3.67643 4.39137 3.75937 4.5284 3.85987C4.80091 4.05975 5.15556 4.33925 5.45855 4.64224C5.76137 4.94519 6.04051 5.29939 6.24024 5.5717C6.34078 5.70883 6.42444 5.82914 6.48192 5.91421C6.5103 5.95621 6.53342 5.99067 6.5489 6.01433C6.55632 6.02567 6.56275 6.03559 6.56686 6.04195C6.5686 6.04462 6.57076 6.04777 6.57197 6.04961C6.57225 6.05003 6.57246 6.05048 6.57262 6.05096L6.57289 6.05176C6.57301 6.05212 6.57321 6.05245 6.57348 6.05272C6.57367 6.05291 6.57382 6.05312 6.57394 6.05336L6.61036 6.12551ZM3.14759 6.71479C3.23683 6.80403 3.40169 6.76562 3.51884 6.71868L3.57547 6.6952C3.68811 6.65016 3.81699 6.67709 3.90278 6.76287C3.98817 6.84858 4.01457 6.9771 3.96976 7.08949L3.94697 7.14681C3.8999 7.2639 3.8616 7.4288 3.95083 7.51803L4.04434 7.61154C4.40294 7.97014 4.58298 8.1503 4.74316 8.1543C4.77075 8.15492 4.78368 8.15416 4.81083 8.15015C4.96945 8.1267 5.16349 7.8774 5.55039 7.38021C5.67584 7.21901 5.81042 7.07348 5.94676 6.94379C5.95083 6.93992 5.95489 6.93606 5.95893 6.93221C6.05946 6.83652 5.98802 6.61072 5.90839 6.49704C5.9054 6.49278 5.90248 6.48844 5.89964 6.48403C5.89929 6.48348 5.89888 6.48297 5.89842 6.48251C5.89796 6.48206 5.89755 6.48155 5.89726 6.48097C5.89666 6.47975 5.89586 6.47786 5.89497 6.4763C5.89178 6.47135 5.88625 6.46273 5.87978 6.45282C5.86622 6.43211 5.84517 6.4004 5.81901 6.36167C5.76618 6.28349 5.68938 6.17212 5.59597 6.04472C5.40708 5.78716 5.15479 5.46971 4.893 5.20779C4.63127 4.94606 4.31371 4.69382 4.05608 4.50483C3.92886 4.41153 3.81741 4.3347 3.73912 4.28178C3.70046 4.25566 3.66884 4.23468 3.64797 4.22102C3.63805 4.21452 3.62965 4.20915 3.62449 4.20582C3.62259 4.20459 3.62022 4.2034 3.61877 4.20263C3.61844 4.20246 3.61815 4.20224 3.61789 4.20198C3.61769 4.20178 3.61747 4.2016 3.61723 4.20145C3.61255 4.19846 3.60795 4.19539 3.60343 4.19224C3.48892 4.11234 3.26238 4.04047 3.16612 4.14162C3.16263 4.14529 3.15913 4.14897 3.15562 4.15265C3.02593 4.28899 2.8804 4.42358 2.7192 4.54902C2.22199 4.93594 1.9734 5.13065 1.94995 5.28927C1.94603 5.31591 1.94449 5.32888 1.94511 5.35625C1.94787 5.46329 2.02927 5.57936 2.18996 5.75156C2.27943 5.84745 2.45489 5.80196 2.56867 5.73674L2.95122 5.51853C3.05374 5.45995 3.1833 5.47716 3.2668 5.56065C3.34982 5.64414 3.36664 5.77324 3.30823 5.87554L3.09002 6.25809C3.0247 6.37193 2.97896 6.54616 3.07177 6.63897L3.14759 6.71479Z" fill="white"/>
</g>
<defs>
<filter id="filter0_i_1142_1129" x="0" y="0" width="10" height="10" filterUnits="userSpaceOnUse" color-interpolation-filters="sRGB">
<feFlood flood-opacity="0" result="BackgroundImageFix"/>
<feBlend mode="normal" in="SourceGraphic" in2="BackgroundImageFix" result="shape"/>
<feColorMatrix in="SourceAlpha" type="matrix" values="0 0 0 0 0 0 0 0 0 0 0 0 0 0 0 0 0 0 127 0" result="hardAlpha"/>
<feOffset/>
<feGaussianBlur stdDeviation="1"/>
<feComposite in2="hardAlpha" operator="arithmetic" k2="-1" k3="1"/>
<feColorMatrix type="matrix" values="0 0 0 0 0.942 0 0 0 0 0.94 0 0 0 0 1 0 0 0 0.1 0"/>
<feBlend mode="hard-light" in2="shape" result="effect1_innerShadow_1142_1129"/>
</filter>
</defs>
</svg>
