<svg width="10" height="10" viewBox="0 0 10 10" fill="none" xmlns="http://www.w3.org/2000/svg">
<g filter="url(#filter0_i_1699_235)">
<path d="M2.665 3.09961C2.36892 3.09961 2.22088 3.09961 2.12269 3.18347C2.10875 3.19538 2.09577 3.20836 2.08386 3.2223C2 3.32049 2 3.46853 2 3.76461V4.0352C2 4.33128 2 4.47932 2.08386 4.5775C2.09577 4.59144 2.10875 4.60443 2.12269 4.61634C2.22088 4.7002 2.36892 4.7002 2.665 4.7002H2.93461C3.23069 4.7002 3.37873 4.7002 3.47692 4.61634C3.49086 4.60443 3.50384 4.59144 3.51575 4.5775C3.59961 4.47932 3.59961 4.33128 3.59961 4.0352V3.76461C3.59961 3.46853 3.59961 3.32049 3.51575 3.2223C3.50384 3.20836 3.49086 3.19538 3.47692 3.18347C3.37873 3.09961 3.23069 3.09961 2.93461 3.09961H2.665ZM4.8652 5.2998C4.56911 5.2998 4.42107 5.2998 4.32289 5.38366C4.30895 5.39557 4.29596 5.40856 4.28405 5.4225C4.2002 5.52068 4.2002 5.66872 4.2002 5.9648V6.23539C4.2002 6.53147 4.2002 6.67951 4.28405 6.7777C4.29596 6.79164 4.30895 6.80462 4.32289 6.81653C4.42107 6.90039 4.56911 6.90039 4.8652 6.90039H5.1348C5.43089 6.90039 5.57893 6.90039 5.67711 6.81653C5.69105 6.80462 5.70404 6.79164 5.71595 6.7777C5.7998 6.67951 5.7998 6.53147 5.7998 6.23539V5.9648C5.7998 5.66872 5.7998 5.52068 5.71595 5.4225C5.70404 5.40856 5.69105 5.39557 5.67711 5.38366C5.57893 5.2998 5.43089 5.2998 5.1348 5.2998H4.8652ZM4.8652 3.10059C4.56911 3.10059 4.42107 3.10059 4.32289 3.18444C4.30895 3.19635 4.29596 3.20934 4.28405 3.22328C4.2002 3.32146 4.2002 3.4695 4.2002 3.76559V4.0352C4.2002 4.33128 4.2002 4.47932 4.28405 4.5775C4.29596 4.59144 4.30895 4.60443 4.32289 4.61634C4.42107 4.7002 4.56911 4.7002 4.8652 4.7002H5.1348C5.43089 4.7002 5.57893 4.7002 5.67711 4.61634C5.69105 4.60443 5.70404 4.59144 5.71595 4.5775C5.7998 4.47932 5.7998 4.33128 5.7998 4.0352V3.76559C5.7998 3.4695 5.7998 3.32146 5.71595 3.22328C5.70404 3.20934 5.69105 3.19635 5.67711 3.18444C5.57893 3.10059 5.43089 3.10059 5.1348 3.10059H4.8652ZM7.06539 5.2998C6.76931 5.2998 6.62127 5.2998 6.52308 5.38366C6.50914 5.39557 6.49616 5.40856 6.48425 5.4225C6.40039 5.52068 6.40039 5.66872 6.40039 5.9648V6.23539C6.40039 6.53147 6.40039 6.67951 6.48425 6.7777C6.49616 6.79164 6.50914 6.80462 6.52308 6.81653C6.62127 6.90039 6.76931 6.90039 7.06539 6.90039H7.335C7.63108 6.90039 7.77912 6.90039 7.87731 6.81653C7.89125 6.80462 7.90423 6.79164 7.91614 6.7777C8 6.67951 8 6.53147 8 6.23539V5.9648C8 5.66872 8 5.52068 7.91614 5.4225C7.90423 5.40856 7.89125 5.39557 7.87731 5.38366C7.77912 5.2998 7.63108 5.2998 7.335 5.2998H7.06539Z" fill="white"/>
</g>
<defs>
<filter id="filter0_i_1699_235" x="0" y="0" width="10" height="10" filterUnits="userSpaceOnUse" color-interpolation-filters="sRGB">
<feFlood flood-opacity="0" result="BackgroundImageFix"/>
<feBlend mode="normal" in="SourceGraphic" in2="BackgroundImageFix" result="shape"/>
<feColorMatrix in="SourceAlpha" type="matrix" values="0 0 0 0 0 0 0 0 0 0 0 0 0 0 0 0 0 0 127 0" result="hardAlpha"/>
<feOffset/>
<feGaussianBlur stdDeviation="1"/>
<feComposite in2="hardAlpha" operator="arithmetic" k2="-1" k3="1"/>
<feColorMatrix type="matrix" values="0 0 0 0 0.942 0 0 0 0 0.94 0 0 0 0 1 0 0 0 0.1 0"/>
<feBlend mode="hard-light" in2="shape" result="effect1_innerShadow_1699_235"/>
</filter>
</defs>
</svg>
