<svg width="10" height="10" viewBox="0 0 10 10" fill="none" xmlns="http://www.w3.org/2000/svg">
<g filter="url(#filter0_i_1593_109)">
<path d="M2.29999 3.58377V3.554C2.29999 2.99567 2.29999 2.71651 2.45812 2.53136C2.48057 2.50507 2.50506 2.48059 2.53135 2.45813C2.7165 2.3 2.99566 2.3 3.55399 2.3H3.58376C3.79418 2.3 3.89939 2.3 3.96272 2.34267C3.97416 2.35038 3.97842 2.35368 3.98875 2.36282C4.04592 2.41345 4.08027 2.54622 4.14897 2.81177C4.2334 3.13809 4.45082 3.5 4.99999 3.5C5.54917 3.5 5.76659 3.13809 5.85102 2.81177L5.85102 2.81176C5.91971 2.54622 5.95406 2.41345 6.01124 2.36282C6.02157 2.35368 6.02583 2.35038 6.03727 2.34267C6.1006 2.3 6.20581 2.3 6.41622 2.3H6.44599C7.00432 2.3 7.28348 2.3 7.46863 2.45813C7.49492 2.48059 7.51941 2.50507 7.54186 2.53136C7.69999 2.71651 7.69999 2.99567 7.69999 3.554V3.58377C7.69999 3.79419 7.69999 3.89939 7.65732 3.96273C7.64961 3.97416 7.64631 3.97843 7.63717 3.98875C7.58654 4.04593 7.45377 4.08028 7.18823 4.14898C6.86191 4.2334 6.49999 4.45082 6.49999 5C6.5 5.54917 6.86191 5.7666 7.18823 5.85102C7.45377 5.91972 7.58654 5.95407 7.63717 6.01125C7.64631 6.02157 7.64961 6.02584 7.65732 6.03728C7.69999 6.10061 7.69999 6.20581 7.69999 6.41623V6.446C7.69999 7.00432 7.69999 7.28349 7.54186 7.46864C7.51941 7.49493 7.49492 7.51941 7.46863 7.54187C7.28348 7.7 7.00432 7.7 6.44599 7.7H6.41622C6.20581 7.7 6.1006 7.7 6.03727 7.65733C6.02583 7.64962 6.02157 7.64632 6.01124 7.63717C5.95406 7.58655 5.91971 7.45378 5.85102 7.18823C5.76659 6.86191 5.54917 6.5 4.99999 6.5C4.45082 6.5 4.2334 6.86191 4.14897 7.18823C4.08027 7.45378 4.04592 7.58655 3.98875 7.63717C3.97842 7.64632 3.97416 7.64962 3.96272 7.65733C3.89939 7.7 3.79418 7.7 3.58376 7.7H3.55399C2.99566 7.7 2.7165 7.7 2.53135 7.54187C2.50506 7.51941 2.48057 7.49493 2.45812 7.46864C2.29999 7.28349 2.29999 7.00432 2.29999 6.446V6.41623C2.29999 6.20581 2.29999 6.10061 2.34266 6.03727C2.35037 6.02584 2.35367 6.02157 2.36281 6.01125C2.41344 5.95407 2.54621 5.91972 2.81175 5.85102L2.81176 5.85102C3.13807 5.7666 3.49999 5.54918 3.49999 5C3.49999 4.45082 3.13807 4.2334 2.81176 4.14898C2.54621 4.08028 2.41344 4.04593 2.36281 3.98875C2.35367 3.97843 2.35037 3.97416 2.34266 3.96272C2.29999 3.89939 2.29999 3.79418 2.29999 3.58377Z" fill="white"/>
</g>
<defs>
<filter id="filter0_i_1593_109" x="0" y="0" width="10" height="10" filterUnits="userSpaceOnUse" color-interpolation-filters="sRGB">
<feFlood flood-opacity="0" result="BackgroundImageFix"/>
<feBlend mode="normal" in="SourceGraphic" in2="BackgroundImageFix" result="shape"/>
<feColorMatrix in="SourceAlpha" type="matrix" values="0 0 0 0 0 0 0 0 0 0 0 0 0 0 0 0 0 0 127 0" result="hardAlpha"/>
<feOffset/>
<feGaussianBlur stdDeviation="1"/>
<feComposite in2="hardAlpha" operator="arithmetic" k2="-1" k3="1"/>
<feColorMatrix type="matrix" values="0 0 0 0 0.942 0 0 0 0 0.94 0 0 0 0 1 0 0 0 0.1 0"/>
<feBlend mode="hard-light" in2="shape" result="effect1_innerShadow_1593_109"/>
</filter>
</defs>
</svg>
