<svg width="10" height="10" viewBox="0 0 10 10" fill="none" xmlns="http://www.w3.org/2000/svg">
<g filter="url(#filter0_i_1145_2781)">
<path d="M5 1.6377C6.15976 1.63773 7.0996 2.57754 7.09961 3.7373C7.09961 4.63776 6.53256 5.40351 5.73628 5.70157C5.70578 5.71299 5.69053 5.7187 5.68628 5.72044C5.56529 5.77 5.50414 5.85818 5.50014 5.98886C5.5 5.99346 5.5 6.00289 5.5 6.02176C5.5 6.03583 5.5 6.04287 5.50024 6.04881C5.50644 6.20515 5.63176 6.33047 5.7881 6.33668C5.79405 6.33691 5.80108 6.33691 5.81515 6.33691H6.29981C6.57567 6.33705 6.79955 6.56107 6.79981 6.83691C6.79982 7.11294 6.5758 7.33672 6.29981 7.33691H6.02539C5.81435 7.33691 5.70883 7.33691 5.63307 7.38764C5.60051 7.40945 5.57254 7.43743 5.55073 7.46999C5.5 7.54574 5.5 7.65126 5.5 7.86231C5.49997 8.13832 5.27599 8.36214 5 8.36231C4.72396 8.3622 4.50003 8.13836 4.5 7.86231C4.5 7.65126 4.5 7.54574 4.44927 7.46999C4.42746 7.43743 4.39949 7.40945 4.36693 7.38764C4.29117 7.33691 4.18565 7.33691 3.97461 7.33691H3.7002C3.42406 7.33689 3.20018 7.11305 3.2002 6.83691C3.20045 6.56098 3.42421 6.33691 3.7002 6.33691H4.18486C4.19892 6.33691 4.20595 6.33691 4.21189 6.33668C4.36824 6.33048 4.49356 6.20515 4.49976 6.04881C4.5 6.04286 4.5 6.03583 4.5 6.02177C4.5 6.0029 4.5 5.99347 4.49986 5.98888C4.49586 5.85819 4.4347 5.77 4.3137 5.72045C4.30946 5.71871 4.29421 5.713 4.26371 5.70159C3.46738 5.40355 2.90039 4.6378 2.90039 3.7373C2.9004 2.57752 3.84021 1.6377 5 1.6377ZM5 2.58203C4.36212 2.58203 3.84474 3.09943 3.84473 3.7373C3.84473 4.37519 4.36211 4.89258 5 4.89258C5.63786 4.89254 6.15527 4.37517 6.15527 3.7373C6.15526 3.09945 5.63785 2.58207 5 2.58203Z" fill="white"/>
</g>
<defs>
<filter id="filter0_i_1145_2781" x="0" y="0" width="10" height="10" filterUnits="userSpaceOnUse" color-interpolation-filters="sRGB">
<feFlood flood-opacity="0" result="BackgroundImageFix"/>
<feBlend mode="normal" in="SourceGraphic" in2="BackgroundImageFix" result="shape"/>
<feColorMatrix in="SourceAlpha" type="matrix" values="0 0 0 0 0 0 0 0 0 0 0 0 0 0 0 0 0 0 127 0" result="hardAlpha"/>
<feOffset/>
<feGaussianBlur stdDeviation="1"/>
<feComposite in2="hardAlpha" operator="arithmetic" k2="-1" k3="1"/>
<feColorMatrix type="matrix" values="0 0 0 0 0.942 0 0 0 0 0.94 0 0 0 0 1 0 0 0 0.1 0"/>
<feBlend mode="hard-light" in2="shape" result="effect1_innerShadow_1145_2781"/>
</filter>
</defs>
</svg>
