<svg width="10" height="10" viewBox="0 0 10 10" fill="none" xmlns="http://www.w3.org/2000/svg">
<g filter="url(#filter0_i_1590_85)">
<path d="M1.69995 3.58377V3.554C1.69995 2.99567 1.69995 2.71651 1.85808 2.53136C1.88054 2.50507 1.90502 2.48059 1.93132 2.45813C2.11646 2.3 2.39563 2.3 2.95395 2.3H2.98373C3.19414 2.3 3.29935 2.3 3.36268 2.25732C3.37412 2.24962 3.37839 2.24632 3.38871 2.23717C3.44589 2.18655 3.48024 2.05378 3.54894 1.78823L3.54894 1.78823C3.63336 1.46191 3.85078 1.1 4.39996 1.1C4.94913 1.1 5.16656 1.46191 5.25098 1.78823C5.31968 2.05378 5.35403 2.18655 5.4112 2.23717C5.42153 2.24632 5.4258 2.24962 5.43723 2.25732C5.50056 2.3 5.60577 2.3 5.81619 2.3H5.84596C6.40428 2.3 6.68344 2.3 6.86859 2.45813C6.89488 2.48059 6.91937 2.50507 6.94183 2.53136C7.09996 2.71651 7.09996 2.99567 7.09996 3.554V3.58377C7.09996 3.79418 7.09996 3.89939 7.14263 3.96272C7.15034 3.97416 7.15364 3.97843 7.16278 3.98875C7.21341 4.04593 7.34618 4.08028 7.61173 4.14898C7.93804 4.2334 8.29995 4.45082 8.29996 5C8.29996 5.54918 7.93805 5.7666 7.61172 5.85102C7.34618 5.91972 7.21341 5.95407 7.16278 6.01124C7.15364 6.02157 7.15034 6.02584 7.14263 6.03727C7.09996 6.1006 7.09996 6.20581 7.09996 6.41623V6.446C7.09996 7.00432 7.09996 7.28349 6.94183 7.46863C6.91937 7.49493 6.89488 7.51941 6.86859 7.54187C6.68344 7.7 6.40428 7.7 5.84596 7.7H5.81619C5.60577 7.7 5.50056 7.7 5.43723 7.74267C5.4258 7.75038 5.42153 7.75368 5.4112 7.76282C5.35403 7.81345 5.31968 7.94622 5.25098 8.21177C5.16656 8.53808 4.94913 8.9 4.39996 8.9C3.85078 8.9 3.63336 8.53808 3.54894 8.21177C3.48024 7.94622 3.44589 7.81345 3.38871 7.76282C3.37838 7.75368 3.37412 7.75038 3.36268 7.74267C3.29935 7.7 3.19414 7.7 2.98373 7.7H2.95395C2.39563 7.7 2.11646 7.7 1.93132 7.54187C1.90502 7.51941 1.88054 7.49493 1.85808 7.46863C1.69995 7.28349 1.69995 7.00432 1.69995 6.446V6.41623C1.69995 6.20581 1.69995 6.10061 1.74263 6.03727C1.75033 6.02584 1.75363 6.02157 1.76278 6.01125C1.8134 5.95407 1.94617 5.91972 2.21172 5.85102C2.53804 5.7666 2.89995 5.54918 2.89995 5C2.89995 4.45082 2.53804 4.2334 2.21172 4.14898L2.21171 4.14898C1.94617 4.08028 1.8134 4.04593 1.76278 3.98875C1.75363 3.97843 1.75033 3.97416 1.74263 3.96272C1.69995 3.89939 1.69995 3.79418 1.69995 3.58377Z" fill="white"/>
</g>
<defs>
<filter id="filter0_i_1590_85" x="0" y="0" width="10" height="10" filterUnits="userSpaceOnUse" color-interpolation-filters="sRGB">
<feFlood flood-opacity="0" result="BackgroundImageFix"/>
<feBlend mode="normal" in="SourceGraphic" in2="BackgroundImageFix" result="shape"/>
<feColorMatrix in="SourceAlpha" type="matrix" values="0 0 0 0 0 0 0 0 0 0 0 0 0 0 0 0 0 0 127 0" result="hardAlpha"/>
<feOffset/>
<feGaussianBlur stdDeviation="1"/>
<feComposite in2="hardAlpha" operator="arithmetic" k2="-1" k3="1"/>
<feColorMatrix type="matrix" values="0 0 0 0 0.942 0 0 0 0 0.94 0 0 0 0 1 0 0 0 0.1 0"/>
<feBlend mode="hard-light" in2="shape" result="effect1_innerShadow_1590_85"/>
</filter>
</defs>
</svg>
