<svg width="10" height="10" viewBox="0 0 10 10" fill="none" xmlns="http://www.w3.org/2000/svg">
<g filter="url(#filter0_i_1079_406)">
<path d="M5 2.07677C6.78061 2.07679 7.90029 3.19616 7.90039 4.57677C7.90039 5.16049 7.69978 5.66156 7.33398 6.04552C7.13241 6.25711 7.03118 6.36322 7.00293 6.44787C6.99796 6.46277 6.9967 6.46952 6.99316 6.48498C6.97329 6.57199 6.99569 6.67869 7.04199 6.89123L7.10449 7.17638C7.1966 7.60007 6.82195 7.98224 6.39355 7.91564C6.2827 7.89837 6.2002 7.80409 6.2002 7.6919V7.23693C6.20013 7.01607 6.02068 6.83654 5.7998 6.83654C5.57914 6.83679 5.39948 7.01622 5.39941 7.23693V7.39558C5.39941 7.61135 5.21577 7.77697 5 7.77697C4.78423 7.77697 4.60059 7.61135 4.60059 7.39558V7.18712C4.60059 6.96628 4.42101 6.78685 4.2002 6.78673C3.97928 6.78673 3.7998 6.96621 3.7998 7.18712V7.6919C3.7998 7.80409 3.7173 7.89837 3.60645 7.91564C3.17805 7.98224 2.8034 7.60007 2.89551 7.17638L2.95801 6.89025C3.00397 6.67812 3.02667 6.57182 3.00684 6.48498C3.00325 6.46929 3.00119 6.46215 2.99609 6.44689C2.96765 6.36244 2.86701 6.2566 2.66602 6.04552C2.30028 5.66143 2.09961 5.16052 2.09961 4.57677C2.09971 3.19615 3.21937 2.07677 5 2.07677ZM3.75 4.27697C3.33581 4.27697 3.00003 4.61278 3 5.02697C3 5.44118 3.33579 5.77697 3.75 5.77697C4.1642 5.77695 4.5 5.44117 4.5 5.02697C4.49997 4.61279 4.16418 4.27699 3.75 4.27697ZM6.25 4.27697C5.83587 4.27705 5.50002 4.61282 5.5 5.02697C5.5 5.44113 5.83586 5.77688 6.25 5.77697C6.66421 5.77697 7 5.44118 7 5.02697C6.99998 4.61277 6.6642 4.27697 6.25 4.27697Z" fill="white"/>
</g>
<defs>
<filter id="filter0_i_1079_406" x="0" y="0" width="10" height="10" filterUnits="userSpaceOnUse" color-interpolation-filters="sRGB">
<feFlood flood-opacity="0" result="BackgroundImageFix"/>
<feBlend mode="normal" in="SourceGraphic" in2="BackgroundImageFix" result="shape"/>
<feColorMatrix in="SourceAlpha" type="matrix" values="0 0 0 0 0 0 0 0 0 0 0 0 0 0 0 0 0 0 127 0" result="hardAlpha"/>
<feOffset/>
<feGaussianBlur stdDeviation="1"/>
<feComposite in2="hardAlpha" operator="arithmetic" k2="-1" k3="1"/>
<feColorMatrix type="matrix" values="0 0 0 0 0.942 0 0 0 0 0.94 0 0 0 0 1 0 0 0 0.1 0"/>
<feBlend mode="hard-light" in2="shape" result="effect1_innerShadow_1079_406"/>
</filter>
</defs>
</svg>
