<svg width="10" height="10" viewBox="0 0 10 10" fill="none" xmlns="http://www.w3.org/2000/svg">
<g filter="url(#filter0_i_1568_4060)">
<path d="M5.16016 1.7998C6.51343 1.7998 7.18984 1.80037 7.63867 2.18359C7.70241 2.23803 7.76197 2.29759 7.81641 2.36133C8.19962 2.81016 8.2002 3.48658 8.2002 4.83984V5.16016C8.2002 6.51342 8.19962 7.18984 7.81641 7.63867C7.76197 7.70241 7.70241 7.76197 7.63867 7.81641C7.18984 8.19963 6.51343 8.2002 5.16016 8.2002H4.83984C3.48657 8.2002 2.81016 8.19962 2.36133 7.81641C2.29759 7.76197 2.23803 7.70241 2.18359 7.63867C1.80037 7.18984 1.7998 6.51343 1.7998 5.16016V4.83984C1.7998 3.48657 1.80037 2.81016 2.18359 2.36133C2.23803 2.29759 2.29759 2.23803 2.36133 2.18359C2.81016 1.80038 3.48657 1.7998 4.83984 1.7998H5.16016ZM4.91504 2.92578C4.52655 2.92585 4.22171 3.01316 3.98242 3.16797C3.7484 3.31964 3.616 3.51156 3.53906 3.62695C3.39431 3.84499 3.45328 4.1397 3.6709 4.28516C3.88888 4.4302 4.18445 4.37182 4.33008 4.1543C4.39288 4.06011 4.43635 4.00652 4.49902 3.96582C4.55715 3.92822 4.67401 3.87507 4.91504 3.875C5.28693 3.87513 5.45134 3.99421 5.52148 4.0918C5.54841 4.12932 5.55581 4.17716 5.54785 4.22266C5.53511 4.29545 5.51233 4.33616 5.49512 4.3584C5.46586 4.39577 5.41783 4.43082 5.34277 4.45898C5.26568 4.48777 5.17852 4.50218 5.09473 4.51172C5.07773 4.51363 4.99199 4.52291 4.97168 4.52539C4.956 4.52733 4.91146 4.53262 4.86523 4.5459C4.84467 4.55183 4.78602 4.56959 4.72363 4.61133C4.67013 4.64728 4.54657 4.74941 4.5166 4.92871L4.5127 4.98535C4.51132 5.00191 4.51132 5.0186 4.5127 5.03516L4.5166 5.09277C4.54702 5.27164 4.67046 5.37353 4.72363 5.40918C4.78615 5.45096 4.84488 5.46874 4.86523 5.47461C4.91109 5.48777 4.95478 5.4941 4.9707 5.49609C4.99039 5.49852 5.07776 5.5069 5.09473 5.50879C5.17866 5.51835 5.26558 5.5336 5.34277 5.5625C5.41828 5.59088 5.46594 5.6254 5.49512 5.66309C5.51227 5.68538 5.53509 5.72489 5.54785 5.79688C5.55589 5.84234 5.54839 5.89022 5.52148 5.92773C5.45142 6.02533 5.28717 6.14538 4.91504 6.14551C4.67478 6.14544 4.55734 6.09324 4.49902 6.05566C4.43628 6.01503 4.39275 5.96113 4.33008 5.86719C4.18455 5.64892 3.88917 5.58983 3.6709 5.73535C3.45331 5.88094 3.39405 6.17555 3.53906 6.39355C3.61611 6.50911 3.74832 6.70198 3.98242 6.85352C4.22165 7.00818 4.52675 7.09563 4.91504 7.0957C5.78419 7.09549 6.37601 6.63637 6.50098 6.01367L6.50488 5.99512C6.50842 5.97659 6.50977 5.95734 6.50977 5.93848V5.9209C6.50977 5.58624 6.41763 5.30282 6.24609 5.08105C6.2142 5.03989 6.21444 4.98075 6.24609 4.93945C6.41766 4.71783 6.5096 4.43502 6.50977 4.10059V4.08105C6.50976 4.06269 6.50824 4.04442 6.50488 4.02637L6.50098 4.00684C6.37621 3.38393 5.78445 2.926 4.91504 2.92578Z" fill="white"/>
</g>
<defs>
<filter id="filter0_i_1568_4060" x="0" y="0" width="10" height="10" filterUnits="userSpaceOnUse" color-interpolation-filters="sRGB">
<feFlood flood-opacity="0" result="BackgroundImageFix"/>
<feBlend mode="normal" in="SourceGraphic" in2="BackgroundImageFix" result="shape"/>
<feColorMatrix in="SourceAlpha" type="matrix" values="0 0 0 0 0 0 0 0 0 0 0 0 0 0 0 0 0 0 127 0" result="hardAlpha"/>
<feOffset/>
<feGaussianBlur stdDeviation="1"/>
<feComposite in2="hardAlpha" operator="arithmetic" k2="-1" k3="1"/>
<feColorMatrix type="matrix" values="0 0 0 0 0.942 0 0 0 0 0.94 0 0 0 0 1 0 0 0 0.1 0"/>
<feBlend mode="hard-light" in2="shape" result="effect1_innerShadow_1568_4060"/>
</filter>
</defs>
</svg>
