<svg width="10" height="10" viewBox="0 0 10 10" fill="none" xmlns="http://www.w3.org/2000/svg">
<g filter="url(#filter0_i_1731_259)">
<path d="M4.0377 5.09906C4.08475 5.10063 4.16103 5.12794 4.3131 5.18207C4.52636 5.25798 4.75786 5.29919 4.99962 5.29925C5.24108 5.29925 5.47219 5.25794 5.68517 5.18207C5.83736 5.12785 5.91355 5.10053 5.96056 5.09906C5.97048 5.09875 5.97125 5.09869 5.98106 5.09906C6.02805 5.10084 6.1036 5.12911 6.2545 5.18402C6.45793 5.25805 6.67624 5.29921 6.90001 5.29925C6.92898 5.29925 6.95818 5.29874 6.98692 5.2973C7.24873 5.28418 7.37959 5.27803 7.46837 5.34906C7.48024 5.35856 7.49333 5.37099 7.50352 5.38226C7.57964 5.46658 7.58087 5.55363 7.58263 5.72797C7.58345 5.80949 7.58303 5.89968 7.58263 5.99945L7.5797 6.88617C7.57794 7.32242 7.57621 7.54129 7.46739 7.69574C7.42749 7.75222 7.37756 7.80158 7.32091 7.84125C7.16602 7.9494 6.94754 7.94965 6.51134 7.94965H6.43321C6.21563 7.94964 6.10668 7.94984 6.02306 7.90863C5.9443 7.86975 5.88036 7.80571 5.84142 7.72699C5.80032 7.64338 5.8004 7.53332 5.8004 7.31586V6.85004C5.80019 6.40838 5.44132 6.04925 4.99962 6.04925C4.5581 6.04946 4.20002 6.40851 4.19981 6.85004V7.31586C4.19981 7.53332 4.1999 7.64338 4.1588 7.72699C4.11988 7.80572 4.0559 7.86973 3.97716 7.90863C3.89355 7.94986 3.78452 7.94965 3.567 7.94965H3.48009C3.03014 7.94964 2.80479 7.94997 2.64708 7.83539C2.59623 7.79841 2.55122 7.75344 2.51427 7.70257C2.39987 7.54487 2.40001 7.31928 2.40001 6.86957V6.00922C2.40001 5.89422 2.40013 5.79235 2.40196 5.7016C2.40526 5.53905 2.40726 5.45722 2.48497 5.37347C2.49493 5.36278 2.50861 5.35024 2.52013 5.34125C2.61031 5.2711 2.73562 5.27869 2.98497 5.29535C3.02318 5.29789 3.06158 5.29925 3.1002 5.29925C3.32343 5.2992 3.54094 5.25792 3.74376 5.18402C3.894 5.12928 3.9692 5.10099 4.01622 5.09906C4.02625 5.09867 4.02767 5.09875 4.0377 5.09906ZM6.60997 2.00043C6.93673 2.00043 7.10077 1.99992 7.27208 2.08734C7.29234 2.0977 7.32537 2.11699 7.34435 2.12933C7.50551 2.23417 7.5685 2.34423 7.69493 2.5639C7.85361 2.8396 7.99962 3.18068 7.99962 3.50043L7.99376 3.60199C7.93173 4.10637 7.41786 4.50043 6.90001 4.50043C6.63052 4.50037 6.36243 4.3933 6.15842 4.2197C6.05674 4.13319 6.0059 4.08993 5.97266 4.08787C5.966 4.08745 5.96504 4.08746 5.95839 4.088C5.92519 4.09069 5.87386 4.13606 5.77121 4.2268C5.57969 4.39608 5.31416 4.50033 5.0006 4.50043C4.68657 4.50043 4.42006 4.39623 4.22806 4.22674C4.12528 4.13602 4.07389 4.09065 4.0407 4.08798C4.03404 4.08745 4.03309 4.08744 4.02642 4.08786C3.99319 4.08994 3.9424 4.13319 3.84082 4.2197C3.63705 4.39322 3.36952 4.5004 3.1002 4.50043C2.58236 4.50043 2.06853 4.10636 2.00645 3.60199L1.99962 3.50043L2.00645 3.37933C2.03656 3.09621 2.16549 2.80513 2.30431 2.5639C2.43081 2.34411 2.49465 2.2342 2.65587 2.12933C2.67491 2.11696 2.70793 2.09766 2.72813 2.08734C2.89936 1.99997 3.06282 2.00043 3.38927 2.00043H6.60997Z" fill="white"/>
</g>
<defs>
<filter id="filter0_i_1731_259" x="0" y="0" width="10" height="10" filterUnits="userSpaceOnUse" color-interpolation-filters="sRGB">
<feFlood flood-opacity="0" result="BackgroundImageFix"/>
<feBlend mode="normal" in="SourceGraphic" in2="BackgroundImageFix" result="shape"/>
<feColorMatrix in="SourceAlpha" type="matrix" values="0 0 0 0 0 0 0 0 0 0 0 0 0 0 0 0 0 0 127 0" result="hardAlpha"/>
<feOffset/>
<feGaussianBlur stdDeviation="1"/>
<feComposite in2="hardAlpha" operator="arithmetic" k2="-1" k3="1"/>
<feColorMatrix type="matrix" values="0 0 0 0 0.942 0 0 0 0 0.94 0 0 0 0 1 0 0 0 0.1 0"/>
<feBlend mode="hard-light" in2="shape" result="effect1_innerShadow_1731_259"/>
</filter>
</defs>
</svg>
