<svg width="10" height="10" viewBox="0 0 10 10" fill="none" xmlns="http://www.w3.org/2000/svg">
<g filter="url(#filter0_i_1142_1577)">
<path d="M6.92902 2.75C7.81882 2.75021 8.54114 3.47152 8.54132 4.36133C8.54114 5.25114 7.81882 5.97342 6.92902 5.97363C6.83019 5.97363 6.78077 5.97363 6.74039 5.98516C6.6407 6.01363 6.56277 6.09156 6.5343 6.19126C6.52277 6.23164 6.52277 6.28105 6.52277 6.37988V6.64941C6.52277 6.98063 6.25432 7.24975 5.92316 7.25C5.59179 7.25 5.32257 6.98079 5.32257 6.64941V3.34961C5.3226 3.01826 5.5918 2.75 5.92316 2.75H6.92902ZM3.43976 3.05469C3.60544 2.76771 3.97212 2.66928 4.25909 2.83496C4.54602 3.00066 4.64449 3.36734 4.47882 3.6543L3.88084 4.68891C3.80389 4.82205 3.76541 4.88862 3.76197 4.96145C3.76153 4.97087 3.76152 4.98031 3.76197 4.98973C3.7654 5.06256 3.80386 5.12914 3.88079 5.26229L4.50616 6.34473C4.67183 6.63166 4.57333 6.99932 4.28644 7.16504C3.99947 7.33072 3.63182 7.23228 3.46613 6.94531C3.30444 6.66529 3.22359 6.52528 3.11244 6.49016C3.05354 6.47156 2.99032 6.47159 2.93143 6.49025C2.82032 6.52547 2.73969 6.66542 2.57843 6.94531C2.41267 7.23204 2.04596 7.33063 1.75909 7.16504C1.47212 6.99935 1.37368 6.6317 1.53937 6.34473L2.16413 5.26202C2.24089 5.12898 2.27927 5.06247 2.2827 4.98972C2.28314 4.9803 2.28314 4.97088 2.2827 4.96146C2.27926 4.88871 2.24087 4.8222 2.16408 4.68918L1.56671 3.6543C1.40103 3.36732 1.49946 3.00065 1.78644 2.83496C2.07329 2.66941 2.44002 2.76702 2.60577 3.05371C2.74348 3.29204 2.81234 3.4112 2.90228 3.45072C2.97912 3.48447 3.06658 3.4845 3.14344 3.45079C3.23341 3.41133 3.30219 3.29245 3.43976 3.05469ZM6.52277 4.56738C6.52277 4.66621 6.52277 4.71563 6.5343 4.75601C6.56277 4.8557 6.6407 4.93363 6.74039 4.9621C6.78077 4.97363 6.83019 4.97363 6.92902 4.97363C7.26654 4.97342 7.54114 4.69886 7.54132 4.36133C7.54114 4.0238 7.26654 3.75021 6.92902 3.75C6.83019 3.75 6.78077 3.75 6.74039 3.76153C6.6407 3.79 6.56277 3.86793 6.5343 3.96762C6.52277 4.008 6.52277 4.05742 6.52277 4.15625V4.56738Z" fill="white"/>
</g>
<defs>
<filter id="filter0_i_1142_1577" x="0" y="0" width="10" height="10" filterUnits="userSpaceOnUse" color-interpolation-filters="sRGB">
<feFlood flood-opacity="0" result="BackgroundImageFix"/>
<feBlend mode="normal" in="SourceGraphic" in2="BackgroundImageFix" result="shape"/>
<feColorMatrix in="SourceAlpha" type="matrix" values="0 0 0 0 0 0 0 0 0 0 0 0 0 0 0 0 0 0 127 0" result="hardAlpha"/>
<feOffset/>
<feGaussianBlur stdDeviation="1"/>
<feComposite in2="hardAlpha" operator="arithmetic" k2="-1" k3="1"/>
<feColorMatrix type="matrix" values="0 0 0 0 0.942 0 0 0 0 0.94 0 0 0 0 1 0 0 0 0.1 0"/>
<feBlend mode="hard-light" in2="shape" result="effect1_innerShadow_1142_1577"/>
</filter>
</defs>
</svg>
