<svg width="10" height="10" viewBox="0 0 10 10" fill="none" xmlns="http://www.w3.org/2000/svg">
<g filter="url(#filter0_i_1590_97)">
<path d="M7.10002 4.18377V4.15401C7.10002 3.59568 7.10002 3.31652 6.94189 3.13137C6.91943 3.10508 6.89495 3.08059 6.86865 3.05814C6.68351 2.9 6.40434 2.9 5.84602 2.9H5.81624C5.60583 2.9 5.50062 2.9 5.43729 2.85733C5.42585 2.84962 5.42158 2.84632 5.41126 2.83718C5.35408 2.78655 5.31973 2.65378 5.25103 2.38824C5.16661 2.06192 4.94919 1.7 4.40001 1.7C3.85084 1.7 3.63341 2.06192 3.54899 2.38824C3.48029 2.65378 3.44594 2.78655 3.38877 2.83718C3.37844 2.84632 3.37417 2.84962 3.36274 2.85733C3.29941 2.9 3.1942 2.9 2.98378 2.9H2.95401C2.39569 2.9 2.11653 2.9 1.93138 3.05814C1.90509 3.08059 1.8806 3.10508 1.85814 3.13137C1.70001 3.31652 1.70001 3.59568 1.70001 4.15401V4.7C1.70001 4.7 1.70002 4.60001 1.70001 5.6C1.7 6.6 1.70001 6.5 1.70001 6.5V7.046C1.70001 7.60433 1.70001 7.88349 1.85814 8.06864C1.8806 8.09493 1.90509 8.11942 1.93138 8.14187C2.11653 8.3 2.39569 8.3 2.95401 8.3H2.98378C3.1942 8.3 3.29941 8.3 3.36274 8.25733C3.37417 8.24962 3.37844 8.24632 3.38877 8.23718C3.44594 8.18655 3.48029 8.05378 3.54899 7.78824C3.63341 7.46192 3.85084 7.10001 4.40001 7.10001C4.94919 7.10001 5.16661 7.46192 5.25103 7.78824C5.31973 8.05378 5.35408 8.18655 5.41126 8.23718C5.42158 8.24632 5.42585 8.24962 5.43729 8.25733C5.50062 8.3 5.60583 8.3 5.81624 8.3H5.84602C6.40434 8.3 6.68351 8.3 6.86865 8.14187C6.89495 8.11942 6.91943 8.09493 6.94189 8.06864C7.10002 7.88349 7.10002 7.60433 7.10002 7.046V7.01623C7.10002 6.80582 7.10002 6.70061 7.14269 6.63728C7.1504 6.62584 7.1537 6.62158 7.16284 6.61125C7.21347 6.55408 7.34624 6.51973 7.61178 6.45103L7.61179 6.45103C7.9381 6.3666 8.30002 6.14918 8.30002 5.6C8.30002 5.05083 7.9381 4.83341 7.61179 4.74898L7.61178 4.74898C7.34624 4.68028 7.21347 4.64593 7.16284 4.58876C7.1537 4.57843 7.1504 4.57417 7.14269 4.56273C7.10002 4.4994 7.10002 4.39419 7.10002 4.18377Z" fill="white"/>
</g>
<defs>
<filter id="filter0_i_1590_97" x="0" y="0" width="10" height="10" filterUnits="userSpaceOnUse" color-interpolation-filters="sRGB">
<feFlood flood-opacity="0" result="BackgroundImageFix"/>
<feBlend mode="normal" in="SourceGraphic" in2="BackgroundImageFix" result="shape"/>
<feColorMatrix in="SourceAlpha" type="matrix" values="0 0 0 0 0 0 0 0 0 0 0 0 0 0 0 0 0 0 127 0" result="hardAlpha"/>
<feOffset/>
<feGaussianBlur stdDeviation="1"/>
<feComposite in2="hardAlpha" operator="arithmetic" k2="-1" k3="1"/>
<feColorMatrix type="matrix" values="0 0 0 0 0.942 0 0 0 0 0.94 0 0 0 0 1 0 0 0 0.1 0"/>
<feBlend mode="hard-light" in2="shape" result="effect1_innerShadow_1590_97"/>
</filter>
</defs>
</svg>
