<svg width="10" height="10" viewBox="0 0 10 10" fill="none" xmlns="http://www.w3.org/2000/svg">
<g filter="url(#filter0_i_1230_84)">
<path d="M5 2.07677C6.78061 2.07679 7.90029 3.19616 7.90039 4.57677C7.90039 5.16049 7.69978 5.66156 7.33398 6.04552C7.13254 6.25697 7.03215 6.36325 7.00391 6.44787C6.99889 6.46291 6.99672 6.4694 6.99316 6.48498C6.97329 6.57199 6.99666 6.67869 7.04297 6.89123L7.10449 7.17638C7.1966 7.60007 6.82195 7.98224 6.39355 7.91564C6.28325 7.89845 6.20117 7.8045 6.20117 7.69286V7.23693C6.20111 7.0161 6.02161 6.83659 5.80078 6.83654C5.57991 6.83654 5.40045 7.01607 5.40039 7.23693V7.39461C5.40039 7.6109 5.21629 7.77697 5 7.77697C4.78423 7.77699 4.60059 7.61135 4.60059 7.39558V7.18712C4.60059 6.96621 4.42111 6.78673 4.2002 6.78673C3.97938 6.78685 3.7998 6.96628 3.7998 7.18712V7.6919C3.7998 7.80409 3.7173 7.89837 3.60645 7.91564C3.17825 7.98192 2.8035 7.5999 2.89551 7.17638L2.95801 6.89025C3.00398 6.67804 3.0267 6.57184 3.00684 6.48498C3.00325 6.46929 3.00119 6.46215 2.99609 6.44689C2.9676 6.36246 2.86692 6.25651 2.66602 6.04552C2.3004 5.66146 2.09961 5.16042 2.09961 4.57677C2.09971 3.19626 3.21962 2.07695 5 2.07677ZM4.54785 4.20568C4.41117 4.06921 4.18936 4.06911 4.05273 4.20568C3.9409 4.31751 3.75903 4.31778 3.64746 4.20568C3.51078 4.06921 3.28994 4.06911 3.15332 4.20568C3.0167 4.3423 3.01683 4.56312 3.15332 4.69982C3.26542 4.81138 3.26515 4.99326 3.15332 5.10509C3.0167 5.24171 3.01683 5.46351 3.15332 5.60021C3.28995 5.73663 3.51083 5.73663 3.64746 5.60021C3.75903 5.48811 3.9409 5.48838 4.05273 5.60021C4.18942 5.73689 4.41117 5.73689 4.54785 5.60021C4.68449 5.46352 4.68452 5.24176 4.54785 5.10509C4.43602 4.99326 4.43575 4.81138 4.54785 4.69982C4.68423 4.56318 4.68426 4.3423 4.54785 4.20568ZM6.84863 4.20568C6.712 4.06913 6.49019 4.06919 6.35352 4.20568C6.24168 4.31751 6.05981 4.31778 5.94824 4.20568C5.81161 4.06913 5.59077 4.06919 5.4541 4.20568C5.31744 4.34234 5.3175 4.56313 5.4541 4.69982C5.56621 4.81138 5.56594 4.99326 5.4541 5.10509C5.31744 5.24175 5.3175 5.46352 5.4541 5.60021C5.59074 5.73663 5.81161 5.73663 5.94824 5.60021C6.05981 5.48811 6.24168 5.48838 6.35352 5.60021C6.4902 5.73689 6.71195 5.73689 6.84863 5.60021C6.98515 5.46351 6.98526 5.24172 6.84863 5.10509C6.7368 4.99326 6.73653 4.81138 6.84863 4.69982C6.98489 4.56317 6.985 4.34226 6.84863 4.20568Z" fill="white"/>
</g>
<defs>
<filter id="filter0_i_1230_84" x="0" y="0" width="10" height="10" filterUnits="userSpaceOnUse" color-interpolation-filters="sRGB">
<feFlood flood-opacity="0" result="BackgroundImageFix"/>
<feBlend mode="normal" in="SourceGraphic" in2="BackgroundImageFix" result="shape"/>
<feColorMatrix in="SourceAlpha" type="matrix" values="0 0 0 0 0 0 0 0 0 0 0 0 0 0 0 0 0 0 127 0" result="hardAlpha"/>
<feOffset/>
<feGaussianBlur stdDeviation="1"/>
<feComposite in2="hardAlpha" operator="arithmetic" k2="-1" k3="1"/>
<feColorMatrix type="matrix" values="0 0 0 0 0.942 0 0 0 0 0.94 0 0 0 0 1 0 0 0 0.1 0"/>
<feBlend mode="hard-light" in2="shape" result="effect1_innerShadow_1230_84"/>
</filter>
</defs>
</svg>
