<svg width="10" height="10" viewBox="0 0 10 10" fill="none" xmlns="http://www.w3.org/2000/svg">
<g filter="url(#filter0_i_1699_242)">
<path d="M5.2998 7.335C5.2998 7.63108 5.2998 7.77912 5.38366 7.87731C5.39557 7.89125 5.40856 7.90423 5.4225 7.91614C5.52068 8 5.66872 8 5.9648 8H6.23539C6.53147 8 6.67951 8 6.7777 7.91614C6.79164 7.90423 6.80462 7.89125 6.81653 7.87731C6.90039 7.77912 6.90039 7.63108 6.90039 7.335V7.06441C6.90039 6.76833 6.90039 6.62029 6.81653 6.52211C6.80462 6.50816 6.79164 6.49518 6.7777 6.48327C6.67951 6.39941 6.53147 6.39941 6.23539 6.39941H5.9648C5.66872 6.39941 5.52068 6.39941 5.4225 6.48327C5.40856 6.49518 5.39557 6.50816 5.38366 6.52211C5.2998 6.62029 5.2998 6.76833 5.2998 7.06441V7.335ZM3.09961 7.335C3.09961 7.63108 3.09961 7.77912 3.18347 7.87731C3.19538 7.89125 3.20836 7.90423 3.2223 7.91614C3.32049 8 3.46853 8 3.76461 8H4.0352C4.33128 8 4.47932 8 4.5775 7.91614C4.59144 7.90423 4.60443 7.89125 4.61634 7.87731C4.7002 7.77912 4.7002 7.63108 4.7002 7.335V7.06441C4.7002 6.76833 4.7002 6.62029 4.61634 6.52211C4.60443 6.50816 4.59144 6.49518 4.5775 6.48327C4.47932 6.39941 4.33128 6.39941 4.0352 6.39941H3.76461C3.46853 6.39941 3.32049 6.39941 3.2223 6.48327C3.20836 6.49518 3.19538 6.50816 3.18347 6.52211C3.09961 6.62029 3.09961 6.76833 3.09961 7.06441V7.335ZM5.2998 5.1348C5.2998 5.43089 5.2998 5.57893 5.38366 5.67711C5.39557 5.69105 5.40856 5.70404 5.4225 5.71595C5.52068 5.7998 5.66872 5.7998 5.9648 5.7998H6.23539C6.53147 5.7998 6.67951 5.7998 6.7777 5.71595C6.79164 5.70404 6.80462 5.69105 6.81653 5.67711C6.90039 5.57893 6.90039 5.43089 6.90039 5.1348V4.8652C6.90039 4.56911 6.90039 4.42107 6.81653 4.32289C6.80462 4.30895 6.79164 4.29596 6.7777 4.28405C6.67951 4.2002 6.53147 4.2002 6.23539 4.2002H5.9648C5.66872 4.2002 5.52068 4.2002 5.4225 4.28405C5.40856 4.29596 5.39557 4.30895 5.38366 4.32289C5.2998 4.42107 5.2998 4.56911 5.2998 4.8652V5.1348ZM5.2998 2.93461C5.2998 3.23069 5.2998 3.37873 5.38366 3.47692C5.39557 3.49086 5.40856 3.50384 5.4225 3.51575C5.52068 3.59961 5.66872 3.59961 5.9648 3.59961H6.23539C6.53147 3.59961 6.67951 3.59961 6.7777 3.51575C6.79164 3.50384 6.80462 3.49086 6.81653 3.47692C6.90039 3.37873 6.90039 3.23069 6.90039 2.93461V2.665C6.90039 2.36892 6.90039 2.22088 6.81653 2.12269C6.80462 2.10875 6.79164 2.09577 6.7777 2.08386C6.67951 2 6.53147 2 6.23539 2H5.9648C5.66872 2 5.52068 2 5.4225 2.08386C5.40856 2.09577 5.39557 2.10875 5.38366 2.12269C5.2998 2.22088 5.2998 2.36892 5.2998 2.665V2.93461Z" fill="white"/>
</g>
<defs>
<filter id="filter0_i_1699_242" x="0" y="0" width="10" height="10" filterUnits="userSpaceOnUse" color-interpolation-filters="sRGB">
<feFlood flood-opacity="0" result="BackgroundImageFix"/>
<feBlend mode="normal" in="SourceGraphic" in2="BackgroundImageFix" result="shape"/>
<feColorMatrix in="SourceAlpha" type="matrix" values="0 0 0 0 0 0 0 0 0 0 0 0 0 0 0 0 0 0 127 0" result="hardAlpha"/>
<feOffset/>
<feGaussianBlur stdDeviation="1"/>
<feComposite in2="hardAlpha" operator="arithmetic" k2="-1" k3="1"/>
<feColorMatrix type="matrix" values="0 0 0 0 0.942 0 0 0 0 0.94 0 0 0 0 1 0 0 0 0.1 0"/>
<feBlend mode="hard-light" in2="shape" result="effect1_innerShadow_1699_242"/>
</filter>
</defs>
</svg>
