<svg width="10" height="10" viewBox="0 0 10 10" fill="none" xmlns="http://www.w3.org/2000/svg">
<g filter="url(#filter0_i_1731_339)">
<path d="M5.04895 1.59129C5.28016 1.61029 5.46442 1.80855 5.83313 2.2036L7.26184 3.73387C7.28676 3.76057 7.29984 3.77412 7.30774 3.78367C7.49657 4.01296 7.37839 4.36132 7.08899 4.42821C7.07692 4.43099 7.05877 4.43389 7.02258 4.43992C7.00134 4.44346 6.99046 4.44486 6.98157 4.44676C6.77744 4.49041 6.64157 4.68417 6.66907 4.8911C6.67027 4.9001 6.6721 4.91093 6.6759 4.93211L7.13977 7.5161C7.21001 7.90742 7.24452 8.10358 7.14954 8.23973C7.13627 8.25869 7.12096 8.27607 7.10461 8.29246C6.98742 8.40997 6.7891 8.41063 6.39172 8.41063C6.11901 8.41063 5.98265 8.41063 5.88373 8.34692C5.83575 8.31601 5.79493 8.2752 5.76403 8.22721C5.70032 8.12829 5.70032 7.99193 5.70032 7.71922V6.91063C5.70032 6.52407 5.38667 6.2105 5.00012 6.21043C4.61352 6.21043 4.29993 6.52403 4.29993 6.91063V7.71922C4.29993 7.99193 4.29993 8.12829 4.23622 8.22721C4.20531 8.2752 4.1645 8.31601 4.11651 8.34692C4.01759 8.41063 3.88123 8.41063 3.60852 8.41063C3.21094 8.41063 3.01188 8.41001 2.89465 8.29246C2.87835 8.27607 2.86297 8.25868 2.84973 8.23973C2.75474 8.10358 2.79023 7.90743 2.86047 7.5161L3.32434 4.93211C3.32815 4.9109 3.32998 4.90011 3.33118 4.8911C3.35866 4.68425 3.22269 4.4905 3.01868 4.44676C3.00979 4.44486 2.99887 4.44346 2.97766 4.43992C2.94165 4.43392 2.92334 4.43098 2.91125 4.42821C2.62185 4.36132 2.50367 4.01296 2.6925 3.78367C2.7004 3.77413 2.71266 3.7604 2.73743 3.73387L4.16614 2.2036C4.53484 1.80855 4.72009 1.61029 4.95129 1.59129C4.98377 1.58865 5.01648 1.58863 5.04895 1.59129Z" fill="white"/>
</g>
<defs>
<filter id="filter0_i_1731_339" x="0" y="0" width="10" height="10" filterUnits="userSpaceOnUse" color-interpolation-filters="sRGB">
<feFlood flood-opacity="0" result="BackgroundImageFix"/>
<feBlend mode="normal" in="SourceGraphic" in2="BackgroundImageFix" result="shape"/>
<feColorMatrix in="SourceAlpha" type="matrix" values="0 0 0 0 0 0 0 0 0 0 0 0 0 0 0 0 0 0 127 0" result="hardAlpha"/>
<feOffset/>
<feGaussianBlur stdDeviation="1"/>
<feComposite in2="hardAlpha" operator="arithmetic" k2="-1" k3="1"/>
<feColorMatrix type="matrix" values="0 0 0 0 0.942 0 0 0 0 0.94 0 0 0 0 1 0 0 0 0.1 0"/>
<feBlend mode="hard-light" in2="shape" result="effect1_innerShadow_1731_339"/>
</filter>
</defs>
</svg>
