<svg width="10" height="10" viewBox="0 0 10 10" fill="none" xmlns="http://www.w3.org/2000/svg">
<g filter="url(#filter0_i_1590_76)">
<path d="M2.29998 3.58377V3.554C2.29998 2.99567 2.29998 2.71651 2.45811 2.53136C2.48056 2.50507 2.50505 2.48059 2.53134 2.45813C2.71649 2.3 2.99565 2.3 3.55398 2.3H3.58375C3.79417 2.3 3.89937 2.3 3.96271 2.34267C3.97414 2.35038 3.97841 2.35368 3.98873 2.36282C4.04591 2.41345 4.08026 2.54622 4.14896 2.81177C4.23338 3.13809 4.4508 3.5 4.99998 3.5C5.54916 3.5 5.76658 3.13809 5.851 2.81177C5.9197 2.54622 5.95405 2.41345 6.01123 2.36282C6.02155 2.35368 6.02582 2.35038 6.03726 2.34267C6.10059 2.3 6.2058 2.3 6.41621 2.3H6.44598C7.00431 2.3 7.28347 2.3 7.46862 2.45813C7.49491 2.48059 7.51939 2.50507 7.54185 2.53136C7.69998 2.71651 7.69998 2.99567 7.69998 3.554V3.58377C7.69998 3.79418 7.69998 3.89939 7.74266 3.96272C7.75036 3.97416 7.75366 3.97843 7.76281 3.98875C7.81343 4.04593 7.9462 4.08028 8.21175 4.14898C8.53806 4.2334 8.89997 4.45083 8.89998 5C8.89999 5.54918 8.53807 5.7666 8.21175 5.85102C7.9462 5.91972 7.81343 5.95407 7.76281 6.01125C7.75367 6.02157 7.75036 6.02584 7.74266 6.03727C7.69998 6.10061 7.69998 6.20581 7.69998 6.41623V6.446C7.69998 7.00432 7.69998 7.28349 7.54185 7.46864C7.51939 7.49493 7.49491 7.51941 7.46862 7.54187C7.28347 7.7 7.00431 7.7 6.44598 7.7H6.41621C6.2058 7.7 6.10059 7.7 6.03726 7.65733C6.02582 7.64962 6.02155 7.64632 6.01123 7.63717C5.95405 7.58655 5.9197 7.45378 5.851 7.18823C5.76658 6.86191 5.54916 6.5 4.99998 6.5C4.4508 6.5 4.23338 6.86191 4.14896 7.18823C4.08026 7.45378 4.04591 7.58655 3.98873 7.63717C3.97841 7.64632 3.97414 7.64962 3.96271 7.65733C3.89937 7.7 3.79417 7.7 3.58375 7.7H3.55398C2.99565 7.7 2.71649 7.7 2.53134 7.54187C2.50505 7.51941 2.48056 7.49493 2.45811 7.46864C2.29998 7.28349 2.29998 7.00432 2.29998 6.446V6.41623C2.29998 6.20581 2.29998 6.10061 2.2573 6.03727C2.2496 6.02584 2.24629 6.02157 2.23715 6.01125C2.18653 5.95407 2.05375 5.91972 1.78821 5.85102L1.78821 5.85102C1.46189 5.7666 1.09998 5.54918 1.09998 5C1.09998 4.45082 1.46189 4.2334 1.78821 4.14898C2.05375 4.08028 2.18653 4.04593 2.23715 3.98875C2.24629 3.97843 2.2496 3.97416 2.2573 3.96272C2.29998 3.89939 2.29998 3.79418 2.29998 3.58377Z" fill="white"/>
</g>
<defs>
<filter id="filter0_i_1590_76" x="0" y="0" width="10" height="10" filterUnits="userSpaceOnUse" color-interpolation-filters="sRGB">
<feFlood flood-opacity="0" result="BackgroundImageFix"/>
<feBlend mode="normal" in="SourceGraphic" in2="BackgroundImageFix" result="shape"/>
<feColorMatrix in="SourceAlpha" type="matrix" values="0 0 0 0 0 0 0 0 0 0 0 0 0 0 0 0 0 0 127 0" result="hardAlpha"/>
<feOffset/>
<feGaussianBlur stdDeviation="1"/>
<feComposite in2="hardAlpha" operator="arithmetic" k2="-1" k3="1"/>
<feColorMatrix type="matrix" values="0 0 0 0 0.942 0 0 0 0 0.94 0 0 0 0 1 0 0 0 0.1 0"/>
<feBlend mode="hard-light" in2="shape" result="effect1_innerShadow_1590_76"/>
</filter>
</defs>
</svg>
