<svg width="10" height="10" viewBox="0 0 10 10" fill="none" xmlns="http://www.w3.org/2000/svg">
<g filter="url(#filter0_i_1144_2640)">
<path d="M7.74222 3.8321C7.91787 3.65666 8.20227 3.65672 8.37796 3.8321C8.5536 4.00785 8.55366 4.29312 8.37796 4.46882L7.89918 4.94761C7.71972 5.12706 7.63 5.21678 7.62131 5.32712C7.62008 5.34279 7.62008 5.35853 7.62131 5.37419C7.63 5.48453 7.71972 5.57425 7.89918 5.75371L8.37796 6.23249C8.5536 6.40824 8.55366 6.69253 8.37796 6.86823C8.20225 7.04382 7.91792 7.04384 7.74222 6.86823L7.26343 6.38945C7.08398 6.21 6.99425 6.12027 6.88392 6.11159C6.86825 6.11035 6.85251 6.11035 6.83684 6.11159C6.72651 6.12027 6.63678 6.21 6.45733 6.38945L5.97855 6.86823C5.80283 7.04382 5.51753 7.04384 5.34183 6.86823C5.16649 6.69258 5.1665 6.40816 5.34183 6.23249L5.82061 5.75371C6.00006 5.57425 6.08979 5.48453 6.09847 5.37419C6.09971 5.35853 6.09971 5.34279 6.09847 5.32712C6.08979 5.21678 6.00006 5.12706 5.82061 4.94761L5.34183 4.46882C5.16613 4.29312 5.16621 4.00785 5.34183 3.8321C5.51756 3.65637 5.80281 3.65637 5.97855 3.8321L6.45733 4.31089C6.63678 4.49034 6.72651 4.58007 6.83684 4.58875C6.85251 4.58998 6.86825 4.58998 6.88392 4.58875C6.99425 4.58007 7.08398 4.49034 7.26343 4.31089L7.74222 3.8321ZM2.87405 3.00007C3.32111 3.00007 3.68071 3.16154 3.92484 3.43269C4.15989 3.69386 4.25774 4.02271 4.25784 4.31648C4.25784 4.63707 4.12217 4.9093 3.96097 5.12409C3.80054 5.33775 3.59142 5.52498 3.39163 5.68562C3.23531 5.81129 3.31827 6.06648 3.51884 6.06648H4.07425C4.3226 6.06658 4.5243 6.26833 4.52444 6.51667C4.52444 6.76514 4.32269 6.96676 4.07425 6.96687H2.27347C2.23922 6.96688 2.10716 6.97195 1.98245 6.92878C1.81404 6.87041 1.70933 6.75348 1.64261 6.63874C1.61959 6.59908 1.59436 6.542 1.58109 6.49812C1.55589 6.41483 1.52297 6.27469 1.56937 6.11823C1.61328 5.97031 1.71592 5.87265 1.72464 5.86335C1.87577 5.70148 2.07635 5.54673 2.26175 5.40925C2.45962 5.26253 2.64803 5.12926 2.82816 4.98445C3.00689 4.84073 3.14767 4.70867 3.24124 4.58405C3.33391 4.4606 3.35745 4.37468 3.35745 4.31648C3.35735 4.21051 3.32062 4.10617 3.25589 4.03425C3.19991 3.97226 3.09306 3.90046 2.87405 3.90046C2.65506 3.90048 2.54818 3.97226 2.49222 4.03425C2.42751 4.10617 2.39076 4.21054 2.39066 4.31648C2.39066 4.565 2.18899 4.76667 1.94046 4.76667C1.6921 4.76648 1.49026 4.56489 1.49026 4.31648C1.49037 4.02273 1.58825 3.69385 1.82327 3.43269C2.06738 3.16153 2.42701 3.00009 2.87405 3.00007Z" fill="white"/>
</g>
<defs>
<filter id="filter0_i_1144_2640" x="0" y="0" width="10" height="10" filterUnits="userSpaceOnUse" color-interpolation-filters="sRGB">
<feFlood flood-opacity="0" result="BackgroundImageFix"/>
<feBlend mode="normal" in="SourceGraphic" in2="BackgroundImageFix" result="shape"/>
<feColorMatrix in="SourceAlpha" type="matrix" values="0 0 0 0 0 0 0 0 0 0 0 0 0 0 0 0 0 0 127 0" result="hardAlpha"/>
<feOffset/>
<feGaussianBlur stdDeviation="1"/>
<feComposite in2="hardAlpha" operator="arithmetic" k2="-1" k3="1"/>
<feColorMatrix type="matrix" values="0 0 0 0 0.942 0 0 0 0 0.94 0 0 0 0 1 0 0 0 0.1 0"/>
<feBlend mode="hard-light" in2="shape" result="effect1_innerShadow_1144_2640"/>
</filter>
</defs>
</svg>
