<svg width="10" height="10" viewBox="0 0 10 10" fill="none" xmlns="http://www.w3.org/2000/svg">
<g filter="url(#filter0_i_1699_184)">
<path d="M5.80029 8.48539C5.80029 8.78147 5.80029 8.92951 5.71644 9.0277C5.70453 9.04164 5.69154 9.05462 5.6776 9.06653C5.57941 9.15039 5.43137 9.15039 5.13529 9.15039H4.86471C4.56863 9.15039 4.42059 9.15039 4.3224 9.06653C4.30846 9.05462 4.29547 9.04164 4.28356 9.0277C4.19971 8.92951 4.19971 8.78147 4.19971 8.48539V8.2148C4.19971 7.91872 4.19971 7.77068 4.28356 7.6725C4.29547 7.65856 4.30846 7.64557 4.3224 7.63366C4.42059 7.5498 4.56863 7.5498 4.86471 7.5498H5.13529C5.43137 7.5498 5.57941 7.5498 5.6776 7.63366C5.69154 7.64557 5.70453 7.65856 5.71644 7.6725C5.80029 7.77068 5.80029 7.91872 5.80029 8.2148V8.48539ZM5.80029 6.18461C5.80029 6.48069 5.80029 6.62873 5.71644 6.72692C5.70453 6.74086 5.69154 6.75384 5.6776 6.76575C5.57941 6.84961 5.43137 6.84961 5.13529 6.84961H4.86471C4.56863 6.84961 4.42059 6.84961 4.3224 6.76575C4.30846 6.75384 4.29547 6.74086 4.28356 6.72692C4.19971 6.62873 4.19971 6.48069 4.19971 6.18461V5.915C4.19971 5.61892 4.19971 5.47088 4.28356 5.37269C4.29547 5.35875 4.30846 5.34577 4.3224 5.33386C4.42059 5.25 4.56863 5.25 4.86471 5.25H5.13529C5.43137 5.25 5.57941 5.25 5.6776 5.33386C5.69154 5.34577 5.70453 5.35875 5.71644 5.37269C5.80029 5.47088 5.80029 5.61892 5.80029 5.915V6.18461ZM5.80029 3.98441C5.80029 4.2805 5.80029 4.42854 5.71644 4.52672C5.70453 4.54066 5.69154 4.55365 5.6776 4.56556C5.57941 4.64941 5.43137 4.64941 5.13529 4.64941H4.86471C4.56863 4.64941 4.42059 4.64941 4.3224 4.56556C4.30846 4.55365 4.29547 4.54066 4.28356 4.52672C4.19971 4.42854 4.19971 4.2805 4.19971 3.98441V3.7148C4.19971 3.41872 4.19971 3.27068 4.28356 3.1725C4.29547 3.15856 4.30846 3.14557 4.3224 3.13366C4.42059 3.0498 4.56863 3.0498 4.86471 3.0498H5.13529C5.43137 3.0498 5.57941 3.0498 5.6776 3.13366C5.69154 3.14557 5.70453 3.15856 5.71644 3.1725C5.80029 3.27068 5.80029 3.41872 5.80029 3.7148V3.98441ZM5.80029 1.7852C5.80029 2.08128 5.80029 2.22932 5.71644 2.3275C5.70453 2.34144 5.69154 2.35443 5.6776 2.36634C5.57941 2.4502 5.43137 2.4502 5.13529 2.4502H4.86471C4.56863 2.4502 4.42059 2.4502 4.3224 2.36634C4.30846 2.35443 4.29547 2.34144 4.28356 2.3275C4.19971 2.22932 4.19971 2.08128 4.19971 1.7852V1.51461C4.19971 1.21853 4.19971 1.07049 4.28356 0.972303C4.29547 0.95836 4.30846 0.945375 4.3224 0.933467C4.42059 0.849609 4.56863 0.849609 4.86471 0.849609H5.13529C5.43137 0.849609 5.57941 0.849609 5.6776 0.933467C5.69154 0.945375 5.70453 0.95836 5.71644 0.972303C5.80029 1.07049 5.80029 1.21853 5.80029 1.51461V1.7852Z" fill="white"/>
</g>
<defs>
<filter id="filter0_i_1699_184" x="0" y="0" width="10" height="10" filterUnits="userSpaceOnUse" color-interpolation-filters="sRGB">
<feFlood flood-opacity="0" result="BackgroundImageFix"/>
<feBlend mode="normal" in="SourceGraphic" in2="BackgroundImageFix" result="shape"/>
<feColorMatrix in="SourceAlpha" type="matrix" values="0 0 0 0 0 0 0 0 0 0 0 0 0 0 0 0 0 0 127 0" result="hardAlpha"/>
<feOffset/>
<feGaussianBlur stdDeviation="1"/>
<feComposite in2="hardAlpha" operator="arithmetic" k2="-1" k3="1"/>
<feColorMatrix type="matrix" values="0 0 0 0 0.942 0 0 0 0 0.94 0 0 0 0 1 0 0 0 0.1 0"/>
<feBlend mode="hard-light" in2="shape" result="effect1_innerShadow_1699_184"/>
</filter>
</defs>
</svg>
