<svg width="10" height="10" viewBox="0 0 10 10" fill="none" xmlns="http://www.w3.org/2000/svg">
<g filter="url(#filter0_i_1731_323)">
<path d="M2.75006 1.7998C2.79624 1.7998 2.81944 1.79986 2.83893 1.80176C3.0287 1.82045 3.17942 1.97044 3.1983 2.16016C3.20023 2.17971 3.20026 2.20357 3.20026 2.25C3.20026 2.29621 3.2003 2.31936 3.20221 2.33887C3.22091 2.52873 3.37076 2.67948 3.56061 2.69824C3.58016 2.70017 3.60402 2.7002 3.65045 2.7002H3.90045C3.94658 2.7002 3.96983 2.70016 3.98932 2.69824C4.17919 2.6795 4.32902 2.52875 4.34772 2.33887C4.34963 2.31936 4.34967 2.29622 4.34967 2.25C4.34967 2.20357 4.3497 2.17971 4.35162 2.16016C4.3705 1.97044 4.52123 1.82045 4.711 1.80176C4.73049 1.79985 4.75368 1.7998 4.79987 1.7998H5.20026C5.24646 1.7998 5.26962 1.79984 5.28912 1.80176C5.4789 1.82045 5.62962 1.97043 5.6485 2.16016C5.65042 2.17971 5.65045 2.20356 5.65045 2.25C5.65045 2.29623 5.65049 2.31936 5.6524 2.33887C5.67111 2.52878 5.82089 2.67954 6.0108 2.69824C6.0303 2.70016 6.05349 2.7002 6.09967 2.7002H6.34967C6.3961 2.7002 6.41996 2.70017 6.43951 2.69824C6.62929 2.67942 6.77922 2.52869 6.79791 2.33887C6.79982 2.31937 6.79987 2.2962 6.79987 2.25C6.79987 2.20357 6.79989 2.17971 6.80182 2.16016C6.82071 1.97045 6.97143 1.82045 7.16119 1.80176C7.18067 1.79987 7.20394 1.7998 7.25006 1.7998H7.31842C7.48099 1.7998 7.56278 1.79962 7.62604 1.81641C7.83147 1.87119 7.98017 2.05068 7.99615 2.2627C8.00097 2.3279 7.98602 2.4079 7.95612 2.56738L7.89264 2.9043C7.87329 3.0075 7.86406 3.05964 7.84967 3.1084C7.79712 3.28618 7.69573 3.4456 7.55768 3.56934C7.51984 3.60323 7.47741 3.63464 7.39264 3.69629C7.25219 3.79844 7.18133 3.84976 7.12506 3.90625C6.91778 4.11472 6.81186 4.40436 6.83698 4.69727C6.8438 4.77685 6.86507 4.86142 6.90729 5.03027L7.31647 6.66504C7.48304 7.33132 7.56619 7.66481 7.41412 7.90137C7.39281 7.93447 7.3688 7.96641 7.34186 7.99512C7.14928 8.20024 6.80526 8.2002 6.11823 8.2002C5.9424 8.2002 5.79987 8.05766 5.79987 7.88184V6.7002C5.79987 6.25838 5.44187 5.89944 5.00006 5.89941C4.55823 5.89941 4.20026 6.25837 4.20026 6.7002V7.88184C4.20026 8.05766 4.05772 8.2002 3.8819 8.2002C3.19493 8.2002 2.85085 8.20018 2.65826 7.99512C2.63132 7.96641 2.60731 7.93447 2.586 7.90137C2.43388 7.6648 2.51707 7.33138 2.68365 6.66504L3.09283 5.03027C3.13504 4.86146 3.15533 4.77683 3.16217 4.69727C3.18728 4.40436 3.08234 4.11472 2.87506 3.90625C2.81878 3.84973 2.74799 3.79848 2.60748 3.69629C2.52266 3.6346 2.48029 3.60324 2.44244 3.56934C2.30437 3.4456 2.20301 3.2862 2.15045 3.1084C2.13606 3.05964 2.12683 3.00748 2.10748 2.9043L2.04401 2.56738C2.0141 2.40787 1.99915 2.32791 2.00397 2.2627C2.01996 2.05068 2.16865 1.87119 2.37408 1.81641C2.43733 1.79966 2.51924 1.7998 2.6817 1.7998H2.75006Z" fill="white"/>
</g>
<defs>
<filter id="filter0_i_1731_323" x="0" y="0" width="10" height="10" filterUnits="userSpaceOnUse" color-interpolation-filters="sRGB">
<feFlood flood-opacity="0" result="BackgroundImageFix"/>
<feBlend mode="normal" in="SourceGraphic" in2="BackgroundImageFix" result="shape"/>
<feColorMatrix in="SourceAlpha" type="matrix" values="0 0 0 0 0 0 0 0 0 0 0 0 0 0 0 0 0 0 127 0" result="hardAlpha"/>
<feOffset/>
<feGaussianBlur stdDeviation="1"/>
<feComposite in2="hardAlpha" operator="arithmetic" k2="-1" k3="1"/>
<feColorMatrix type="matrix" values="0 0 0 0 0.942 0 0 0 0 0.94 0 0 0 0 1 0 0 0 0.1 0"/>
<feBlend mode="hard-light" in2="shape" result="effect1_innerShadow_1731_323"/>
</filter>
</defs>
</svg>
