<svg width="10" height="10" viewBox="0 0 10 10" fill="none" xmlns="http://www.w3.org/2000/svg">
<g filter="url(#filter0_i_1569_4365)">
<path d="M3.39999 3.67002C3.39999 3.01417 3.39999 2.68624 3.56276 2.45379C3.62298 2.36779 3.69777 2.293 3.78377 2.23278C4.01622 2.07001 4.34415 2.07001 5 2.07001C5.65585 2.07001 5.98378 2.07001 6.21623 2.23278C6.30223 2.293 6.37702 2.36779 6.43724 2.45379C6.60001 2.68624 6.60001 3.01417 6.60001 3.67002V5.57C6.60001 6.22585 6.60001 6.55378 6.43724 6.78623C6.37702 6.87223 6.30223 6.94703 6.21623 7.00724C5.98378 7.17001 5.65585 7.17001 5 7.17001C4.34415 7.17001 4.01622 7.17001 3.78377 7.00724C3.69777 6.94703 3.62298 6.87223 3.56276 6.78623C3.39999 6.55378 3.39999 6.22585 3.39999 5.57V3.67002Z" fill="white"/>
<path fill-rule="evenodd" clip-rule="evenodd" d="M2.13613 3.11101C2.31736 3.0628 2.40798 3.0387 2.49204 3.06589C2.55511 3.08629 2.61591 3.13303 2.65183 3.18874C2.69972 3.26298 2.69972 3.36511 2.69972 3.56937V5.56937C2.69972 5.79336 2.69917 5.99387 2.70948 6.16019C2.72015 6.33202 2.74417 6.5146 2.813 6.69925C2.92036 6.98697 3.09873 7.23811 3.32691 7.43342C3.44111 7.53116 3.4162 7.73749 3.27101 7.7764C2.77529 7.90923 2.52696 7.97536 2.31202 7.92777C2.13182 7.88775 1.96798 7.79336 1.84327 7.65726C1.69464 7.49488 1.62845 7.24675 1.49562 6.75101L1.00343 4.91605C0.870602 4.42033 0.804489 4.172 0.85206 3.95706C0.892059 3.77691 0.986534 3.61301 1.12257 3.48831C1.28494 3.33968 1.53309 3.27251 2.02882 3.13968C2.06595 3.12973 2.10169 3.12017 2.13613 3.11101ZM7.3003 3.56937C7.3003 3.36499 7.3003 3.26281 7.34842 3.18843C7.38424 3.13306 7.44478 3.08651 7.50749 3.06611C7.59173 3.0387 7.68185 3.06265 7.86208 3.11054C7.89709 3.11984 7.93343 3.12956 7.9712 3.13968C8.4671 3.27256 8.71607 3.33955 8.87843 3.48831C9.01437 3.61301 9.10897 3.77697 9.14894 3.95706C9.19648 4.17197 9.12939 4.42044 8.99659 4.91605L8.50538 6.75101C8.37254 7.24676 8.30538 7.49488 8.15675 7.65726C8.03203 7.79334 7.8682 7.88776 7.688 7.92777C7.47306 7.97533 7.22474 7.90923 6.72901 7.7764C6.58347 7.7374 6.5581 7.53159 6.67252 7.43355C6.90051 7.23821 7.07862 6.98698 7.18604 6.69925C7.2549 6.51458 7.27889 6.33204 7.28956 6.16019C7.29987 5.99386 7.3003 5.79339 7.3003 5.56937V3.56937ZM6.563 6.34378L6.53077 6.45413C6.54664 6.41153 6.55747 6.3662 6.5669 6.31644C6.56516 6.32561 6.56493 6.33492 6.563 6.34378ZM6.59913 5.87789C6.59913 5.87794 6.59912 5.87799 6.59911 5.87803C6.59894 5.87854 6.59818 5.87842 6.59819 5.87789C6.59926 5.78816 6.59913 5.68693 6.59913 5.57132V5.87789Z" fill="white"/>
</g>
<defs>
<filter id="filter0_i_1569_4365" x="0" y="0" width="10" height="10" filterUnits="userSpaceOnUse" color-interpolation-filters="sRGB">
<feFlood flood-opacity="0" result="BackgroundImageFix"/>
<feBlend mode="normal" in="SourceGraphic" in2="BackgroundImageFix" result="shape"/>
<feColorMatrix in="SourceAlpha" type="matrix" values="0 0 0 0 0 0 0 0 0 0 0 0 0 0 0 0 0 0 127 0" result="hardAlpha"/>
<feOffset/>
<feGaussianBlur stdDeviation="1"/>
<feComposite in2="hardAlpha" operator="arithmetic" k2="-1" k3="1"/>
<feColorMatrix type="matrix" values="0 0 0 0 0.942 0 0 0 0 0.94 0 0 0 0 1 0 0 0 0.1 0"/>
<feBlend mode="hard-light" in2="shape" result="effect1_innerShadow_1569_4365"/>
</filter>
</defs>
</svg>
