<svg width="10" height="10" viewBox="0 0 10 10" fill="none" xmlns="http://www.w3.org/2000/svg">
<g filter="url(#filter0_i_1569_4355)">
<path d="M5.21973 1.5C6.23455 1.5 6.74247 1.49986 7.0791 1.78711C7.1269 1.82794 7.17206 1.8731 7.21289 1.9209C7.5001 2.25753 7.5 2.76549 7.5 3.78027V6.21973C7.5 7.23451 7.5001 7.74247 7.21289 8.0791C7.17206 8.1269 7.1269 8.17206 7.0791 8.21289C6.74247 8.50013 6.23455 8.5 5.21973 8.5H4.78027C3.76549 8.5 3.25753 8.5001 2.9209 8.21289C2.8731 8.17206 2.82794 8.1269 2.78711 8.0791C2.49987 7.74247 2.5 7.23454 2.5 6.21973V3.78027C2.5 2.76546 2.49987 2.25753 2.78711 1.9209C2.82794 1.8731 2.8731 1.82794 2.9209 1.78711C3.25753 1.4999 3.76549 1.5 4.78027 1.5H5.21973ZM4.95312 2.98633C4.83168 3.00477 4.65178 3.17121 4.29297 3.50195C3.74677 4.00538 3.20042 4.43015 3.2002 5.01758C3.20038 5.41745 3.45073 5.97152 4.0752 5.97168C4.12118 5.97167 4.16547 5.96708 4.20801 5.95898C4.42802 5.91701 4.53877 5.89551 4.58203 5.92871C4.58908 5.93424 4.59276 5.93855 4.59863 5.94531C4.6343 5.98653 4.6243 6.06137 4.60352 6.21094C4.5965 6.26137 4.58757 6.31288 4.57617 6.36426C4.53846 6.53431 4.5198 6.62002 4.51855 6.62695C4.47007 6.89762 4.57372 7.02693 4.84863 7.03809C4.85642 7.03837 4.9091 7.03906 5.0127 7.03906C5.11592 7.03906 5.16865 7.03836 5.17676 7.03809C5.45167 7.02695 5.55624 6.89755 5.50781 6.62695C5.50657 6.62002 5.48694 6.53433 5.44922 6.36426C5.4379 6.31322 5.42886 6.26202 5.42188 6.21191C5.40099 6.062 5.39006 5.98651 5.42578 5.94531C5.43165 5.93855 5.43535 5.93522 5.44238 5.92969C5.48525 5.89597 5.59621 5.91721 5.81738 5.95898C5.85988 5.967 5.90428 5.97168 5.9502 5.97168C6.57473 5.97157 6.825 5.41747 6.8252 5.01758C6.82498 4.43017 6.27862 4.00536 5.73242 3.50195C5.37358 3.17118 5.19371 3.00474 5.07227 2.98633C5.02041 2.97855 5.00493 2.97856 4.95312 2.98633Z" fill="white"/>
</g>
<defs>
<filter id="filter0_i_1569_4355" x="0" y="0" width="10" height="10" filterUnits="userSpaceOnUse" color-interpolation-filters="sRGB">
<feFlood flood-opacity="0" result="BackgroundImageFix"/>
<feBlend mode="normal" in="SourceGraphic" in2="BackgroundImageFix" result="shape"/>
<feColorMatrix in="SourceAlpha" type="matrix" values="0 0 0 0 0 0 0 0 0 0 0 0 0 0 0 0 0 0 127 0" result="hardAlpha"/>
<feOffset/>
<feGaussianBlur stdDeviation="1"/>
<feComposite in2="hardAlpha" operator="arithmetic" k2="-1" k3="1"/>
<feColorMatrix type="matrix" values="0 0 0 0 0.942 0 0 0 0 0.94 0 0 0 0 1 0 0 0 0.1 0"/>
<feBlend mode="hard-light" in2="shape" result="effect1_innerShadow_1569_4355"/>
</filter>
</defs>
</svg>
