<svg width="10" height="10" viewBox="0 0 10 10" fill="none" xmlns="http://www.w3.org/2000/svg">
<g filter="url(#filter0_i_1699_214)">
<path fill-rule="evenodd" clip-rule="evenodd" d="M4.7002 7.335C4.7002 7.63108 4.7002 7.77912 4.61634 7.87731C4.60443 7.89125 4.59144 7.90423 4.5775 7.91614C4.47932 8 4.33128 8 4.0352 8H3.76461C3.46853 8 3.32049 8 3.2223 7.91614C3.20836 7.90423 3.19538 7.89125 3.18347 7.87731C3.09961 7.77912 3.09961 7.63108 3.09961 7.335V7.06441C3.09961 6.76833 3.09961 6.62029 3.18347 6.52211C3.19538 6.50816 3.20836 6.49518 3.2223 6.48327C3.32049 6.39941 3.46853 6.39941 3.76461 6.39941H4.0352C4.33128 6.39941 4.47932 6.39941 4.5775 6.48327C4.59144 6.49518 4.60443 6.50816 4.61634 6.52211C4.7002 6.62029 4.7002 6.76833 4.7002 7.06441V7.335ZM6.90039 7.335C6.90039 7.63108 6.90039 7.77912 6.81653 7.87731C6.80462 7.89125 6.79164 7.90423 6.7777 7.91614C6.67951 8 6.53147 8 6.23539 8H5.9648C5.66872 8 5.52068 8 5.4225 7.91614C5.40856 7.90423 5.39557 7.89125 5.38366 7.87731C5.2998 7.77912 5.2998 7.63108 5.2998 7.335V7.06441C5.2998 6.76833 5.2998 6.62029 5.38366 6.52211C5.39557 6.50816 5.40856 6.49518 5.4225 6.48327C5.52068 6.39941 5.66872 6.39941 5.9648 6.39941H6.23539C6.53147 6.39941 6.67951 6.39941 6.7777 6.48327C6.79164 6.49518 6.80462 6.50816 6.81653 6.52211C6.90039 6.62029 6.90039 6.76833 6.90039 7.06441V7.335ZM4.7002 5.1348C4.7002 5.43089 4.7002 5.57893 4.61634 5.67711C4.60443 5.69105 4.59144 5.70404 4.5775 5.71595C4.47932 5.7998 4.33128 5.7998 4.0352 5.7998H3.76461C3.46853 5.7998 3.32049 5.7998 3.2223 5.71595C3.20836 5.70404 3.19538 5.69105 3.18347 5.67711C3.09961 5.57893 3.09961 5.43089 3.09961 5.1348V4.8652C3.09961 4.56911 3.09961 4.42107 3.18347 4.32289C3.19538 4.30895 3.20836 4.29596 3.2223 4.28405C3.32049 4.2002 3.46853 4.2002 3.76461 4.2002H4.0352C4.33128 4.2002 4.47932 4.2002 4.5775 4.28405C4.59144 4.29596 4.60443 4.30895 4.61634 4.32289C4.7002 4.42107 4.7002 4.56911 4.7002 4.8652V5.1348ZM4.7002 2.93461C4.7002 3.23069 4.7002 3.37873 4.61634 3.47692C4.60443 3.49086 4.59144 3.50384 4.5775 3.51575C4.47932 3.59961 4.33128 3.59961 4.0352 3.59961H3.76461C3.46853 3.59961 3.32049 3.59961 3.2223 3.51575C3.20836 3.50384 3.19538 3.49086 3.18347 3.47692C3.09961 3.37873 3.09961 3.23069 3.09961 2.93461V2.665C3.09961 2.36892 3.09961 2.22088 3.18347 2.12269C3.19538 2.10875 3.20836 2.09577 3.2223 2.08386C3.32049 2 3.46853 2 3.76461 2H4.0352C4.33128 2 4.47932 2 4.5775 2.08386C4.59144 2.09577 4.60443 2.10875 4.61634 2.12269C4.7002 2.22088 4.7002 2.36892 4.7002 2.665V2.93461Z" fill="white"/>
</g>
<defs>
<filter id="filter0_i_1699_214" x="0" y="0" width="10" height="10" filterUnits="userSpaceOnUse" color-interpolation-filters="sRGB">
<feFlood flood-opacity="0" result="BackgroundImageFix"/>
<feBlend mode="normal" in="SourceGraphic" in2="BackgroundImageFix" result="shape"/>
<feColorMatrix in="SourceAlpha" type="matrix" values="0 0 0 0 0 0 0 0 0 0 0 0 0 0 0 0 0 0 127 0" result="hardAlpha"/>
<feOffset/>
<feGaussianBlur stdDeviation="1"/>
<feComposite in2="hardAlpha" operator="arithmetic" k2="-1" k3="1"/>
<feColorMatrix type="matrix" values="0 0 0 0 0.942 0 0 0 0 0.94 0 0 0 0 1 0 0 0 0.1 0"/>
<feBlend mode="hard-light" in2="shape" result="effect1_innerShadow_1699_214"/>
</filter>
</defs>
</svg>
