<svg width="10" height="10" viewBox="0 0 10 10" fill="none" xmlns="http://www.w3.org/2000/svg">
<g filter="url(#filter0_i_1144_2642)">
<path fill-rule="evenodd" clip-rule="evenodd" d="M2.93375 3.0166C3.761 3.01674 4.32299 3.453 4.44156 4.04492L4.44452 4.05974C4.4484 4.07911 4.45035 4.09882 4.45035 4.11857V4.13379C4.45028 4.4518 4.3632 4.72004 4.20035 4.93066C4.16865 4.97161 4.16865 5.02839 4.20035 5.06934C4.36332 5.28006 4.45035 5.54895 4.45035 5.86719V5.88143C4.45035 5.90118 4.4484 5.92089 4.44452 5.94026L4.44156 5.95508C4.32311 6.54716 3.76109 6.98326 2.93375 6.9834C2.56404 6.9834 2.27452 6.90005 2.04703 6.75293C1.82447 6.60884 1.69945 6.42637 1.62613 6.31641C1.48831 6.1097 1.54355 5.8303 1.75015 5.69238C1.95689 5.55465 2.23632 5.61072 2.37418 5.81738C2.43407 5.9072 2.476 5.95802 2.53629 5.99707C2.5922 6.03319 2.70383 6.08398 2.93375 6.08398C3.29817 6.0839 3.4519 5.96292 3.51537 5.86773C3.53977 5.83114 3.5457 5.78557 3.53745 5.74237C3.52504 5.67747 3.5045 5.64093 3.48843 5.62012C3.46029 5.58377 3.4142 5.55057 3.34195 5.52344C3.26816 5.49581 3.18564 5.48177 3.10562 5.47266C3.09115 5.47101 3.00647 5.46231 2.98746 5.45996C2.97276 5.45813 2.93094 5.45309 2.88687 5.44043C2.86775 5.43492 2.81255 5.41769 2.75308 5.37793C2.69546 5.33933 2.55 5.219 2.54996 5C2.55003 4.78104 2.69546 4.66066 2.75308 4.62207C2.81261 4.58229 2.86783 4.56505 2.88687 4.55957C2.93099 4.5469 2.97277 4.54186 2.98746 4.54004C3.00639 4.53771 3.09091 4.52999 3.10562 4.52832C3.18569 4.5192 3.26812 4.50422 3.34195 4.47656C3.41423 4.44942 3.46029 4.41624 3.48843 4.37988C3.5045 4.35904 3.52506 4.32259 3.53745 4.25776C3.54572 4.21448 3.53973 4.16881 3.51519 4.13221C3.45151 4.03725 3.29762 3.91708 2.93375 3.91699C2.7037 3.91699 2.59217 3.96681 2.53629 4.00293C2.47589 4.04201 2.43418 4.0936 2.37418 4.18359C2.23624 4.38988 1.95674 4.44518 1.75015 4.30762C1.54368 4.16966 1.48835 3.89025 1.62613 3.68359C1.69948 3.5736 1.82444 3.39113 2.04703 3.24707C2.27454 3.09992 2.56398 3.0166 2.93375 3.0166ZM5.2814 3.74805C5.45704 3.57241 5.74236 3.57262 5.91812 3.74805L6.58783 4.41775C6.70498 4.53491 6.89493 4.53491 7.01209 4.41775L7.68179 3.74805C7.85734 3.57271 8.14182 3.57298 8.31754 3.74805C8.49327 3.92378 8.49327 4.20903 8.31754 4.38477L7.64783 5.05447C7.53067 5.17163 7.53067 5.36158 7.64783 5.47873L8.31754 6.14844C8.49327 6.32417 8.49327 6.60844 8.31754 6.78418C8.1418 6.95988 7.85752 6.9599 7.68179 6.78418L7.01209 6.11448C6.89493 5.99732 6.70498 5.99732 6.58783 6.11448L5.91812 6.78418C5.74238 6.95988 5.45713 6.9599 5.2814 6.78418C5.10634 6.60847 5.10609 6.32399 5.2814 6.14844L5.95111 5.47873C6.06826 5.36158 6.06826 5.17163 5.95111 5.05447L5.2814 4.38477C5.10598 4.20902 5.1058 3.92368 5.2814 3.74805Z" fill="white"/>
</g>
<defs>
<filter id="filter0_i_1144_2642" x="0" y="0" width="10" height="10" filterUnits="userSpaceOnUse" color-interpolation-filters="sRGB">
<feFlood flood-opacity="0" result="BackgroundImageFix"/>
<feBlend mode="normal" in="SourceGraphic" in2="BackgroundImageFix" result="shape"/>
<feColorMatrix in="SourceAlpha" type="matrix" values="0 0 0 0 0 0 0 0 0 0 0 0 0 0 0 0 0 0 127 0" result="hardAlpha"/>
<feOffset/>
<feGaussianBlur stdDeviation="1"/>
<feComposite in2="hardAlpha" operator="arithmetic" k2="-1" k3="1"/>
<feColorMatrix type="matrix" values="0 0 0 0 0.942 0 0 0 0 0.94 0 0 0 0 1 0 0 0 0.1 0"/>
<feBlend mode="hard-light" in2="shape" result="effect1_innerShadow_1144_2642"/>
</filter>
</defs>
</svg>
