<svg width="10" height="10" viewBox="0 0 10 10" fill="none" xmlns="http://www.w3.org/2000/svg">
<g filter="url(#filter0_i_1204_215)">
<path d="M2.75 1.7998C2.79617 1.7998 2.81938 1.79986 2.83887 1.80176C3.02864 1.82045 3.17935 1.97045 3.19824 2.16016C3.20017 2.17971 3.2002 2.20357 3.2002 2.25C3.2002 2.29621 3.20024 2.31936 3.20215 2.33887C3.22085 2.52871 3.37073 2.67945 3.56055 2.69824C3.5801 2.70017 3.60396 2.7002 3.65039 2.7002H3.90039C3.94656 2.7002 3.96976 2.70016 3.98926 2.69824C4.17916 2.67953 4.32895 2.52877 4.34766 2.33887C4.34957 2.31936 4.34961 2.29622 4.34961 2.25C4.34961 2.20357 4.34964 2.17971 4.35156 2.16016C4.37044 1.97044 4.52116 1.82045 4.71094 1.80176C4.73044 1.79985 4.75361 1.7998 4.7998 1.7998H5.2002C5.24639 1.7998 5.26956 1.79985 5.28906 1.80176C5.47884 1.82045 5.62956 1.97044 5.64844 2.16016C5.65036 2.17971 5.65039 2.20356 5.65039 2.25C5.65039 2.29622 5.65043 2.31936 5.65234 2.33887C5.67105 2.52877 5.82084 2.67953 6.01074 2.69824C6.03024 2.70016 6.05344 2.7002 6.09961 2.7002H6.34961C6.39604 2.7002 6.4199 2.70017 6.43945 2.69824C6.62926 2.67945 6.77915 2.52871 6.79785 2.33887C6.79976 2.31936 6.7998 2.29621 6.7998 2.25C6.7998 2.20357 6.79983 2.17971 6.80176 2.16016C6.82065 1.97045 6.97136 1.82045 7.16113 1.80176C7.18062 1.79986 7.20383 1.7998 7.25 1.7998H7.37793C7.58475 1.7998 7.68866 1.79993 7.77148 1.83008C7.91015 1.8807 8.01982 1.99017 8.07031 2.12891C8.10038 2.21171 8.09961 2.31574 8.09961 2.52246V3.22852C8.09947 3.5218 7.94892 3.79475 7.7002 3.9502C7.45138 4.10572 7.2998 4.37845 7.2998 4.67188V6.96484C7.2998 7.5144 7.30002 7.78934 7.14453 7.97168C7.12246 7.99753 7.09811 8.02186 7.07227 8.04395C6.88997 8.19964 6.61501 8.2002 6.06543 8.2002C5.91873 8.2002 5.7998 8.08127 5.7998 7.93457V6.7002C5.7998 6.25837 5.44183 5.89941 5 5.89941C4.55818 5.89942 4.2002 6.25837 4.2002 6.7002V7.93457C4.2002 8.08127 4.08127 8.2002 3.93457 8.2002C3.38499 8.2002 3.11003 8.19964 2.92773 8.04395C2.90189 8.02186 2.87754 7.99753 2.85547 7.97168C2.69998 7.78934 2.7002 7.5144 2.7002 6.96484V4.67188C2.7002 4.37845 2.54862 4.10572 2.2998 3.9502C2.05108 3.79475 1.90053 3.5218 1.90039 3.22852V2.52246C1.90039 2.31574 1.89962 2.21171 1.92969 2.12891C1.98018 1.99017 2.08985 1.8807 2.22852 1.83008C2.31134 1.79993 2.41525 1.7998 2.62207 1.7998H2.75Z" fill="white"/>
</g>
<defs>
<filter id="filter0_i_1204_215" x="0" y="0" width="10" height="10" filterUnits="userSpaceOnUse" color-interpolation-filters="sRGB">
<feFlood flood-opacity="0" result="BackgroundImageFix"/>
<feBlend mode="normal" in="SourceGraphic" in2="BackgroundImageFix" result="shape"/>
<feColorMatrix in="SourceAlpha" type="matrix" values="0 0 0 0 0 0 0 0 0 0 0 0 0 0 0 0 0 0 127 0" result="hardAlpha"/>
<feOffset/>
<feGaussianBlur stdDeviation="1"/>
<feComposite in2="hardAlpha" operator="arithmetic" k2="-1" k3="1"/>
<feColorMatrix type="matrix" values="0 0 0 0 0.942 0 0 0 0 0.94 0 0 0 0 1 0 0 0 0.1 0"/>
<feBlend mode="hard-light" in2="shape" result="effect1_innerShadow_1204_215"/>
</filter>
</defs>
</svg>
