<svg width="10" height="10" viewBox="0 0 10 10" fill="none" xmlns="http://www.w3.org/2000/svg">
<g filter="url(#filter0_i_1568_4064)">
<path d="M5.16016 1.7998C6.51343 1.7998 7.18984 1.80037 7.63867 2.18359C7.70241 2.23803 7.76197 2.29759 7.81641 2.36133C8.19962 2.81016 8.2002 3.48658 8.2002 4.83984V5.16016C8.2002 6.51342 8.19962 7.18984 7.81641 7.63867C7.76197 7.70241 7.70241 7.76197 7.63867 7.81641C7.18984 8.19963 6.51343 8.2002 5.16016 8.2002H4.83984C3.48657 8.2002 2.81016 8.19962 2.36133 7.81641C2.29759 7.76197 2.23803 7.70241 2.18359 7.63867C1.80037 7.18984 1.7998 6.51343 1.7998 5.16016V4.83984C1.7998 3.48657 1.80037 2.81016 2.18359 2.36133C2.23803 2.29759 2.29759 2.23803 2.36133 2.18359C2.81016 1.80038 3.48657 1.7998 4.83984 1.7998H5.16016ZM5.8584 2.92676C5.59675 2.91008 5.37136 3.10844 5.35449 3.37012L5.26765 4.7044C5.2609 4.80815 5.25753 4.86003 5.2416 4.90204C5.20873 4.98874 5.13762 5.05537 5.04898 5.08254C5.00601 5.0957 4.95403 5.0957 4.85005 5.0957C4.7079 5.0957 4.63682 5.0957 4.58498 5.07584C4.47746 5.03464 4.403 4.93552 4.39338 4.82077C4.38874 4.76546 4.40854 4.69719 4.44813 4.56066L4.74609 3.5332C4.81915 3.28133 4.67368 3.01751 4.42188 2.94434C4.17004 2.87129 3.90623 3.01584 3.83301 3.26758L3.27832 5.18262C3.15348 5.61423 3.47735 6.04492 3.92676 6.04492H4.63552C4.84418 6.04492 4.94851 6.04492 5.02281 6.0929C5.06422 6.11963 5.0984 6.15616 5.12233 6.19925C5.16528 6.27656 5.15836 6.38066 5.14453 6.58887C5.12733 6.85045 5.32529 7.0773 5.58691 7.09473C5.84831 7.11199 6.07498 6.91365 6.09277 6.65234L6.12067 6.22909C6.1275 6.12548 6.21354 6.04492 6.31738 6.04492C6.57952 6.04484 6.79276 5.83242 6.79297 5.57031C6.79292 5.30806 6.57962 5.09578 6.31738 5.0957C6.25075 5.0957 6.19797 5.03941 6.20226 4.97291L6.30176 3.43066C6.31849 3.16903 6.12002 2.94371 5.8584 2.92676Z" fill="white"/>
</g>
<defs>
<filter id="filter0_i_1568_4064" x="0" y="0" width="10" height="10" filterUnits="userSpaceOnUse" color-interpolation-filters="sRGB">
<feFlood flood-opacity="0" result="BackgroundImageFix"/>
<feBlend mode="normal" in="SourceGraphic" in2="BackgroundImageFix" result="shape"/>
<feColorMatrix in="SourceAlpha" type="matrix" values="0 0 0 0 0 0 0 0 0 0 0 0 0 0 0 0 0 0 127 0" result="hardAlpha"/>
<feOffset/>
<feGaussianBlur stdDeviation="1"/>
<feComposite in2="hardAlpha" operator="arithmetic" k2="-1" k3="1"/>
<feColorMatrix type="matrix" values="0 0 0 0 0.942 0 0 0 0 0.94 0 0 0 0 1 0 0 0 0.1 0"/>
<feBlend mode="hard-light" in2="shape" result="effect1_innerShadow_1568_4064"/>
</filter>
</defs>
</svg>
