<svg width="10" height="10" viewBox="0 0 10 10" fill="none" xmlns="http://www.w3.org/2000/svg">
<g filter="url(#filter0_i_1731_344)">
<path d="M5.09961 1.7998C5.23917 1.7998 5.30943 1.80016 5.36621 1.81738C5.49396 1.8562 5.59405 1.95621 5.63281 2.08398C5.64994 2.14069 5.65039 2.21041 5.65039 2.34961V2.375C5.65039 2.49087 5.6502 2.5489 5.66211 2.59668C5.69797 2.73985 5.80995 2.85183 5.95312 2.8877C6.0009 2.89961 6.05893 2.89941 6.1748 2.89941C6.29103 2.89941 6.3496 2.89968 6.39746 2.8877C6.5405 2.85176 6.65264 2.73976 6.68848 2.59668C6.70035 2.54893 6.7002 2.49076 6.7002 2.375V2.33301C6.7002 2.20936 6.70033 2.14747 6.71387 2.09668C6.75082 1.95876 6.85823 1.85055 6.99609 1.81348C7.04696 1.79985 7.1094 1.7998 7.2334 1.7998C7.38817 1.7998 7.46576 1.79943 7.5293 1.81641C7.70168 1.8626 7.83646 1.99761 7.88281 2.16992C7.89985 2.23351 7.90039 2.3118 7.90039 2.4668V6.96484C7.90039 7.51459 7.89979 7.78934 7.74414 7.97168C7.72203 7.99757 7.69777 8.02183 7.67188 8.04395C7.48953 8.1996 7.21479 8.2002 6.66504 8.2002H6.5598C6.22143 8.2002 6.05224 8.2002 5.94003 8.10436C5.92409 8.09075 5.90925 8.07591 5.89564 8.05997C5.7998 7.94776 5.7998 7.77857 5.7998 7.4402V6.7002C5.7998 6.25837 5.44183 5.89941 5 5.89941C4.55818 5.89942 4.2002 6.25837 4.2002 6.7002V7.4402C4.2002 7.77857 4.2002 7.94776 4.10436 8.05997C4.09075 8.07591 4.07591 8.09075 4.05997 8.10436C3.94776 8.2002 3.77857 8.2002 3.4402 8.2002H3.33496C2.78521 8.2002 2.51046 8.1996 2.32812 8.04395C2.30223 8.02183 2.27797 7.99757 2.25586 7.97168C2.10021 7.78934 2.09961 7.51459 2.09961 6.96484V2.4668C2.09961 2.3118 2.10015 2.23351 2.11719 2.16992C2.16354 1.99761 2.29832 1.8626 2.4707 1.81641C2.53424 1.79943 2.61182 1.7998 2.7666 1.7998C2.8906 1.7998 2.95304 1.79985 3.00391 1.81348C3.14177 1.85055 3.24918 1.95876 3.28613 2.09668C3.29967 2.14747 3.2998 2.20935 3.2998 2.33301V2.375C3.2998 2.49076 3.29965 2.54893 3.31152 2.59668C3.34736 2.73975 3.45951 2.85176 3.60254 2.8877C3.6504 2.89968 3.70897 2.89941 3.8252 2.89941C3.94107 2.89941 3.9991 2.89961 4.04688 2.8877C4.19005 2.85183 4.30203 2.73985 4.33789 2.59668C4.3498 2.5489 4.34961 2.49087 4.34961 2.375V2.34961C4.34961 2.21041 4.35005 2.14069 4.36719 2.08398C4.40595 1.95621 4.50604 1.8562 4.63379 1.81738C4.69057 1.80016 4.76083 1.79981 4.90039 1.7998H5.09961Z" fill="white"/>
</g>
<defs>
<filter id="filter0_i_1731_344" x="0" y="0" width="10" height="10" filterUnits="userSpaceOnUse" color-interpolation-filters="sRGB">
<feFlood flood-opacity="0" result="BackgroundImageFix"/>
<feBlend mode="normal" in="SourceGraphic" in2="BackgroundImageFix" result="shape"/>
<feColorMatrix in="SourceAlpha" type="matrix" values="0 0 0 0 0 0 0 0 0 0 0 0 0 0 0 0 0 0 127 0" result="hardAlpha"/>
<feOffset/>
<feGaussianBlur stdDeviation="1"/>
<feComposite in2="hardAlpha" operator="arithmetic" k2="-1" k3="1"/>
<feColorMatrix type="matrix" values="0 0 0 0 0.942 0 0 0 0 0.94 0 0 0 0 1 0 0 0 0.1 0"/>
<feBlend mode="hard-light" in2="shape" result="effect1_innerShadow_1731_344"/>
</filter>
</defs>
</svg>
