<svg width="10" height="10" viewBox="0 0 10 10" fill="none" xmlns="http://www.w3.org/2000/svg">
<g filter="url(#filter0_i_1568_4068)">
<path d="M5.16016 1.7998C6.51343 1.7998 7.18984 1.80037 7.63867 2.18359C7.70241 2.23803 7.76197 2.29759 7.81641 2.36133C8.19962 2.81016 8.2002 3.48658 8.2002 4.83984V5.16016C8.2002 6.51342 8.19962 7.18984 7.81641 7.63867C7.76197 7.70241 7.70241 7.76197 7.63867 7.81641C7.18984 8.19963 6.51343 8.2002 5.16016 8.2002H4.83984C3.48657 8.2002 2.81016 8.19962 2.36133 7.81641C2.29759 7.76197 2.23803 7.70241 2.18359 7.63867C1.80037 7.18984 1.7998 6.51343 1.7998 5.16016V4.83984C1.7998 3.48657 1.80037 2.81016 2.18359 2.36133C2.23803 2.29759 2.29759 2.23803 2.36133 2.18359C2.81016 1.80038 3.48657 1.7998 4.83984 1.7998H5.16016ZM4.50488 2.92969C4.22946 2.92982 3.98532 3.09652 3.88184 3.34375L3.84668 3.45508L3.5957 4.55566C3.49034 5.01885 3.87396 5.41647 4.30957 5.3916C4.57619 5.37623 4.94794 5.37936 5.23535 5.45996C5.37704 5.49977 5.46068 5.54862 5.50293 5.58887C5.53134 5.61608 5.54971 5.64589 5.5498 5.71289C5.54974 5.86503 5.50601 5.93197 5.46973 5.96875C5.42333 6.01548 5.33537 6.06559 5.18555 6.09375C4.87504 6.15184 4.46013 6.08578 4.17188 5.9707C3.92858 5.87371 3.65125 5.99232 3.55371 6.23535C3.45644 6.47874 3.57519 6.75593 3.81836 6.85352C4.22999 7.01799 4.83115 7.12641 5.36035 7.02734C5.62999 6.97676 5.9189 6.86487 6.14355 6.63867C6.37815 6.40224 6.49992 6.08396 6.5 5.71289C6.49986 5.38012 6.37083 5.10414 6.16016 4.90234C5.96313 4.7139 5.71532 4.60759 5.49219 4.54492C5.3131 4.49468 5.12452 4.4664 4.94434 4.45117C4.76638 4.43603 4.63509 4.27082 4.6748 4.09668C4.70383 3.96952 4.81682 3.87891 4.94727 3.87891H5.88574C6.14773 3.8785 6.36035 3.66638 6.36035 3.4043C6.36006 3.14247 6.14754 2.9301 5.88574 2.92969H4.50488Z" fill="white"/>
</g>
<defs>
<filter id="filter0_i_1568_4068" x="0" y="0" width="10" height="10" filterUnits="userSpaceOnUse" color-interpolation-filters="sRGB">
<feFlood flood-opacity="0" result="BackgroundImageFix"/>
<feBlend mode="normal" in="SourceGraphic" in2="BackgroundImageFix" result="shape"/>
<feColorMatrix in="SourceAlpha" type="matrix" values="0 0 0 0 0 0 0 0 0 0 0 0 0 0 0 0 0 0 127 0" result="hardAlpha"/>
<feOffset/>
<feGaussianBlur stdDeviation="1"/>
<feComposite in2="hardAlpha" operator="arithmetic" k2="-1" k3="1"/>
<feColorMatrix type="matrix" values="0 0 0 0 0.942 0 0 0 0 0.94 0 0 0 0 1 0 0 0 0.1 0"/>
<feBlend mode="hard-light" in2="shape" result="effect1_innerShadow_1568_4068"/>
</filter>
</defs>
</svg>
