<svg width="10" height="10" viewBox="0 0 10 10" fill="none" xmlns="http://www.w3.org/2000/svg">
<g filter="url(#filter0_i_1145_2779)">
<path d="M7.30027 2.3754C7.50507 2.42872 7.65786 2.60849 7.67247 2.82632L7.81472 4.94764C7.83301 5.22311 7.62409 5.46167 7.34861 5.48004C7.07329 5.49812 6.83456 5.28929 6.81621 5.01393C6.78955 4.61135 6.77622 4.41006 6.66223 4.34302C6.63747 4.32846 6.61037 4.31827 6.58215 4.31291C6.45223 4.28824 6.31064 4.42983 6.02746 4.71301C5.92231 4.81817 5.86973 4.87074 5.8514 4.92961C5.84654 4.94524 5.84438 4.95506 5.84224 4.97129C5.83419 5.03242 5.86507 5.11631 5.92683 5.28411C6.20075 6.02836 6.04032 6.89594 5.44273 7.49364C4.62263 8.31374 3.29216 8.31374 2.47206 7.49364C1.65219 6.67352 1.65272 5.34367 2.47275 4.52365C3.09256 3.90396 4.00286 3.75331 4.76465 4.07052C4.93037 4.13952 5.01323 4.17402 5.07408 4.16886C5.09523 4.16707 5.10807 4.16453 5.12831 4.15813C5.18654 4.13972 5.23927 4.08699 5.34472 3.98154L5.41696 3.9093C5.62265 3.70361 5.7255 3.60076 5.73206 3.50759C5.73714 3.43538 5.71067 3.36451 5.6595 3.31331C5.59348 3.24724 5.4484 3.23699 5.15823 3.21647C4.88323 3.19645 4.67539 2.95778 4.69489 2.68269C4.71461 2.40748 4.95487 2.19997 5.23005 2.21934L7.20981 2.3609L7.30027 2.3754ZM4.7743 5.1914C4.32327 4.74062 3.59217 4.74126 3.14118 5.19209C2.69021 5.64307 2.68967 6.37413 3.14049 6.8252C3.59155 7.27626 4.32324 7.27626 4.7743 6.8252C5.2252 6.37413 5.2253 5.6424 4.7743 5.1914Z" fill="white"/>
</g>
<defs>
<filter id="filter0_i_1145_2779" x="0" y="0" width="10" height="10" filterUnits="userSpaceOnUse" color-interpolation-filters="sRGB">
<feFlood flood-opacity="0" result="BackgroundImageFix"/>
<feBlend mode="normal" in="SourceGraphic" in2="BackgroundImageFix" result="shape"/>
<feColorMatrix in="SourceAlpha" type="matrix" values="0 0 0 0 0 0 0 0 0 0 0 0 0 0 0 0 0 0 127 0" result="hardAlpha"/>
<feOffset/>
<feGaussianBlur stdDeviation="1"/>
<feComposite in2="hardAlpha" operator="arithmetic" k2="-1" k3="1"/>
<feColorMatrix type="matrix" values="0 0 0 0 0.942 0 0 0 0 0.94 0 0 0 0 1 0 0 0 0.1 0"/>
<feBlend mode="hard-light" in2="shape" result="effect1_innerShadow_1145_2779"/>
</filter>
</defs>
</svg>
