<svg width="10" height="10" viewBox="0 0 10 10" fill="none" xmlns="http://www.w3.org/2000/svg">
<g filter="url(#filter0_i_1142_1583)">
<path d="M6.98938 3.68604C7.12956 3.38605 7.48609 3.25607 7.78625 3.396C8.08658 3.53604 8.21634 3.89352 8.07629 4.19385L6.80872 6.9126C6.7068 7.13104 6.48996 7.25659 6.26379 7.25635C6.25856 7.25662 6.25339 7.25719 6.24817 7.25732C6.24327 7.25719 6.23842 7.2566 6.23352 7.25635C6.00741 7.2565 5.79046 7.13102 5.6886 6.9126L4.42102 4.19385C4.281 3.89357 4.41084 3.53609 4.71106 3.396C5.01133 3.25598 5.36881 3.38583 5.50891 3.68604L6.06711 4.88429C6.13884 5.03827 6.35773 5.03838 6.42962 4.88448L6.98938 3.68604ZM2.4679 2.74268C2.79896 2.74292 3.06734 3.0112 3.0675 3.34229V5.44287C3.06766 5.774 3.33599 6.04231 3.66711 6.04248H4.0675C4.39884 6.04252 4.66711 6.31172 4.66711 6.64307C4.66685 6.97419 4.39868 7.24264 4.0675 7.24268H3.02063C2.59747 7.24268 2.38551 7.24227 2.22668 7.15381C2.11311 7.09049 2.01949 6.99688 1.95618 6.8833C1.86771 6.72448 1.86731 6.51251 1.86731 6.08936V3.34229C1.86747 3.01105 2.13662 2.74268 2.4679 2.74268Z" fill="white"/>
</g>
<defs>
<filter id="filter0_i_1142_1583" x="0" y="0" width="10" height="10" filterUnits="userSpaceOnUse" color-interpolation-filters="sRGB">
<feFlood flood-opacity="0" result="BackgroundImageFix"/>
<feBlend mode="normal" in="SourceGraphic" in2="BackgroundImageFix" result="shape"/>
<feColorMatrix in="SourceAlpha" type="matrix" values="0 0 0 0 0 0 0 0 0 0 0 0 0 0 0 0 0 0 127 0" result="hardAlpha"/>
<feOffset/>
<feGaussianBlur stdDeviation="1"/>
<feComposite in2="hardAlpha" operator="arithmetic" k2="-1" k3="1"/>
<feColorMatrix type="matrix" values="0 0 0 0 0.942 0 0 0 0 0.94 0 0 0 0 1 0 0 0 0.1 0"/>
<feBlend mode="hard-light" in2="shape" result="effect1_innerShadow_1142_1583"/>
</filter>
</defs>
</svg>
