<svg width="10" height="10" viewBox="0 0 10 10" fill="none" xmlns="http://www.w3.org/2000/svg">
<g filter="url(#filter0_i_1590_88)">
<path d="M7.10002 3.58377V3.554C7.10002 2.99567 7.10002 2.71651 6.94189 2.53136C6.91943 2.50507 6.89495 2.48059 6.86865 2.45813C6.68351 2.3 6.40434 2.3 5.84602 2.3H5.30001H4.40001H3.50001H2.95401C2.39569 2.3 2.11653 2.3 1.93138 2.45813C1.90509 2.48059 1.8806 2.50507 1.85814 2.53136C1.70001 2.71651 1.70001 2.99567 1.70001 3.554V4.1C1.70001 4.1 1.70002 4 1.70001 5C1.7 6 1.70001 5.9 1.70001 5.9V6.446C1.70001 7.00432 1.70001 7.28349 1.85814 7.46864C1.8806 7.49493 1.90509 7.51941 1.93138 7.54187C2.11653 7.7 2.39569 7.7 2.95401 7.7H2.98378C3.1942 7.7 3.29941 7.7 3.36274 7.65733C3.37417 7.64962 3.37844 7.64632 3.38877 7.63717C3.44594 7.58655 3.48029 7.45378 3.54899 7.18823C3.63341 6.86191 3.85084 6.5 4.40001 6.5C4.94919 6.5 5.16661 6.86191 5.25103 7.18823C5.31973 7.45378 5.35408 7.58655 5.41126 7.63717C5.42158 7.64632 5.42585 7.64962 5.43729 7.65733C5.50062 7.7 5.60583 7.7 5.81624 7.7H5.84602C6.40434 7.7 6.68351 7.7 6.86865 7.54187C6.89495 7.51941 6.91943 7.49493 6.94189 7.46864C7.10002 7.28349 7.10002 7.00432 7.10002 6.446V6.41623C7.10002 6.20581 7.10002 6.10061 7.14269 6.03727C7.1504 6.02584 7.1537 6.02157 7.16284 6.01125C7.21347 5.95407 7.34624 5.91972 7.61179 5.85102C7.9381 5.7666 8.30002 5.54918 8.30002 5C8.30002 4.45082 7.9381 4.2334 7.61179 4.14898C7.34624 4.08028 7.21347 4.04593 7.16284 3.98875C7.1537 3.97843 7.1504 3.97416 7.14269 3.96272C7.10002 3.89939 7.10002 3.79418 7.10002 3.58377Z" fill="white"/>
</g>
<defs>
<filter id="filter0_i_1590_88" x="0" y="0" width="10" height="10" filterUnits="userSpaceOnUse" color-interpolation-filters="sRGB">
<feFlood flood-opacity="0" result="BackgroundImageFix"/>
<feBlend mode="normal" in="SourceGraphic" in2="BackgroundImageFix" result="shape"/>
<feColorMatrix in="SourceAlpha" type="matrix" values="0 0 0 0 0 0 0 0 0 0 0 0 0 0 0 0 0 0 127 0" result="hardAlpha"/>
<feOffset/>
<feGaussianBlur stdDeviation="1"/>
<feComposite in2="hardAlpha" operator="arithmetic" k2="-1" k3="1"/>
<feColorMatrix type="matrix" values="0 0 0 0 0.942 0 0 0 0 0.94 0 0 0 0 1 0 0 0 0.1 0"/>
<feBlend mode="hard-light" in2="shape" result="effect1_innerShadow_1590_88"/>
</filter>
</defs>
</svg>
