<svg width="10" height="10" viewBox="0 0 10 10" fill="none" xmlns="http://www.w3.org/2000/svg">
<g filter="url(#filter0_i_1211_219)">
<path d="M6.41939 2.59156C7.45538 1.84913 7.973 1.47793 8.15083 1.61011C8.1735 1.62697 8.19434 1.64627 8.21138 1.66871C8.34494 1.8447 7.9694 2.35828 7.21919 3.38355L6.77037 3.99537C6.55788 4.28502 6.45164 4.42985 6.46632 4.58182C6.46845 4.60381 6.4721 4.62419 6.47774 4.64555C6.51676 4.79316 6.67229 4.89577 6.98336 5.10099C7.35143 5.34381 7.52712 5.50409 7.49751 5.63941C7.49165 5.66618 7.48209 5.69232 7.46919 5.71656C7.41609 5.81605 7.24843 5.84137 6.9514 5.82126C6.76641 5.80874 6.67391 5.80248 6.61646 5.81563C6.42968 5.85839 6.30919 6.00684 6.30577 6.19842C6.30472 6.25736 6.32732 6.33751 6.37251 6.49781C6.70185 7.67007 6.86647 8.25678 6.68208 8.37574C6.65852 8.39093 6.63281 8.40279 6.60591 8.41089C6.39531 8.47421 6.04672 7.97264 5.35103 6.96949L5.20998 6.76586C5.01437 6.48345 4.91656 6.34225 4.77195 6.30522C4.75144 6.29997 4.73054 6.29635 4.70945 6.29441C4.56081 6.28071 4.42125 6.38085 4.14214 6.58114L3.58052 6.98414C2.54512 7.72613 2.02713 8.09722 1.84907 7.96558C1.82634 7.94868 1.8056 7.92851 1.78853 7.90601C1.65523 7.72991 2.03068 7.21717 2.78071 6.19214L3.32921 5.44189C3.38681 5.3631 3.41561 5.32371 3.43246 5.28697C3.50447 5.1299 3.46748 4.94434 3.34074 4.82689C3.3111 4.79941 3.26939 4.77407 3.18599 4.72339C2.31404 4.19183 1.87794 3.92583 1.92329 3.71851C1.92912 3.69195 1.93885 3.6664 1.95161 3.64234C2.05154 3.45465 2.55829 3.52804 3.57173 3.67554C3.69776 3.69348 3.80051 3.57563 3.76638 3.45298C3.50882 2.52759 3.39728 2.05362 3.56099 1.948C3.58451 1.93287 3.61031 1.92092 3.63716 1.91285C3.84778 1.85002 4.19573 2.35161 4.89107 3.35425C4.97534 3.4761 5.14309 3.50527 5.26355 3.41903L6.41939 2.59156Z" fill="white"/>
</g>
<defs>
<filter id="filter0_i_1211_219" x="0" y="0" width="10" height="10" filterUnits="userSpaceOnUse" color-interpolation-filters="sRGB">
<feFlood flood-opacity="0" result="BackgroundImageFix"/>
<feBlend mode="normal" in="SourceGraphic" in2="BackgroundImageFix" result="shape"/>
<feColorMatrix in="SourceAlpha" type="matrix" values="0 0 0 0 0 0 0 0 0 0 0 0 0 0 0 0 0 0 127 0" result="hardAlpha"/>
<feOffset/>
<feGaussianBlur stdDeviation="1"/>
<feComposite in2="hardAlpha" operator="arithmetic" k2="-1" k3="1"/>
<feColorMatrix type="matrix" values="0 0 0 0 0.942 0 0 0 0 0.94 0 0 0 0 1 0 0 0 0.1 0"/>
<feBlend mode="hard-light" in2="shape" result="effect1_innerShadow_1211_219"/>
</filter>
</defs>
</svg>
