<svg width="10" height="10" viewBox="0 0 10 10" fill="none" xmlns="http://www.w3.org/2000/svg">
<g filter="url(#filter0_i_1569_4297)">
<path d="M3.60551 2.29998C2.70551 2.29998 1.80551 3.06286 2.00552 4.33143C2.16517 5.34405 3.21334 6.18553 4.24295 7.19595C4.60291 7.54921 4.78289 7.72583 4.96302 7.74069C4.99168 7.74305 5.01133 7.74315 5.04002 7.74109C5.22028 7.72811 5.40384 7.55169 5.77094 7.19885C6.79554 6.21407 7.84624 5.42134 8.00551 4.33143C8.20551 2.96286 7.30551 2.29998 6.40551 2.29998C6.01489 2.29998 5.69963 2.45068 5.46789 2.62127L5.46789 2.62127C5.21192 2.80969 5.08393 2.9039 5.01948 2.908C5.00465 2.90894 5.00641 2.90894 4.99158 2.908C4.92712 2.9039 4.79914 2.80969 4.54317 2.62128C4.31142 2.45069 3.99614 2.29998 3.60551 2.29998Z" fill="white"/>
</g>
<defs>
<filter id="filter0_i_1569_4297" x="0" y="0" width="10" height="10" filterUnits="userSpaceOnUse" color-interpolation-filters="sRGB">
<feFlood flood-opacity="0" result="BackgroundImageFix"/>
<feBlend mode="normal" in="SourceGraphic" in2="BackgroundImageFix" result="shape"/>
<feColorMatrix in="SourceAlpha" type="matrix" values="0 0 0 0 0 0 0 0 0 0 0 0 0 0 0 0 0 0 127 0" result="hardAlpha"/>
<feOffset/>
<feGaussianBlur stdDeviation="1"/>
<feComposite in2="hardAlpha" operator="arithmetic" k2="-1" k3="1"/>
<feColorMatrix type="matrix" values="0 0 0 0 0.942 0 0 0 0 0.94 0 0 0 0 1 0 0 0 0.1 0"/>
<feBlend mode="hard-light" in2="shape" result="effect1_innerShadow_1569_4297"/>
</filter>
</defs>
</svg>
