<svg width="10" height="10" viewBox="0 0 10 10" fill="none" xmlns="http://www.w3.org/2000/svg">
<g filter="url(#filter0_i_1590_79)">
<path d="M1.69998 3.58377V3.554C1.69998 2.99567 1.69998 2.71651 1.85811 2.53136C1.88057 2.50507 1.90505 2.48059 1.93135 2.45813C2.11649 2.3 2.39566 2.3 2.95398 2.3H2.98376C3.19417 2.3 3.29938 2.3 3.36271 2.34267C3.37415 2.35038 3.37842 2.35368 3.38874 2.36282C3.44592 2.41345 3.48027 2.54622 3.54897 2.81176L3.54897 2.81177C3.63339 3.13809 3.85081 3.5 4.39999 3.5C4.94916 3.5 5.16659 3.13809 5.25101 2.81177C5.31971 2.54622 5.35406 2.41345 5.41123 2.36282C5.42156 2.35368 5.42583 2.35038 5.43726 2.34267C5.50059 2.3 5.6058 2.3 5.81622 2.3H5.84599C6.40431 2.3 6.68348 2.3 6.86862 2.45813C6.89492 2.48059 6.9194 2.50507 6.94186 2.53136C7.09999 2.71651 7.09999 2.99567 7.09999 3.554V3.58377C7.09999 3.79418 7.09999 3.89939 7.14266 3.96272C7.15037 3.97416 7.15367 3.97843 7.16281 3.98875C7.21344 4.04593 7.34621 4.08028 7.61176 4.14898C7.93807 4.2334 8.29998 4.45083 8.29999 5C8.29999 5.54918 7.93808 5.7666 7.61176 5.85102C7.34621 5.91972 7.21344 5.95407 7.16281 6.01125C7.15367 6.02157 7.15037 6.02584 7.14266 6.03727C7.09999 6.10061 7.09999 6.20581 7.09999 6.41623V6.446C7.09999 7.00432 7.09999 7.28349 6.94186 7.46864C6.9194 7.49493 6.89492 7.51941 6.86862 7.54187C6.68348 7.7 6.40431 7.7 5.84599 7.7H5.81622C5.6058 7.7 5.50059 7.7 5.43726 7.65733C5.42583 7.64962 5.42156 7.64632 5.41123 7.63717C5.35406 7.58655 5.31971 7.45378 5.25101 7.18823C5.16659 6.86191 4.94916 6.5 4.39999 6.5C3.85081 6.5 3.63339 6.86191 3.54897 7.18823C3.48027 7.45378 3.44592 7.58655 3.38874 7.63717C3.37842 7.64632 3.37415 7.64962 3.36271 7.65733C3.29938 7.7 3.19417 7.7 2.98376 7.7H2.95398C2.39566 7.7 2.11649 7.7 1.93135 7.54187C1.90505 7.51941 1.88057 7.49493 1.85811 7.46864C1.69998 7.28349 1.69998 7.00432 1.69998 6.446V6.41623C1.69998 6.20581 1.69998 6.10061 1.74266 6.03727C1.75036 6.02584 1.75367 6.02157 1.76281 6.01125C1.81343 5.95407 1.9462 5.91972 2.21175 5.85102L2.21175 5.85102C2.53807 5.7666 2.89998 5.54918 2.89998 5C2.89998 4.45082 2.53807 4.2334 2.21175 4.14898C1.9462 4.08028 1.81343 4.04593 1.76281 3.98875C1.75367 3.97843 1.75036 3.97416 1.74266 3.96272C1.69998 3.89939 1.69998 3.79418 1.69998 3.58377Z" fill="white"/>
</g>
<defs>
<filter id="filter0_i_1590_79" x="0" y="0" width="10" height="10" filterUnits="userSpaceOnUse" color-interpolation-filters="sRGB">
<feFlood flood-opacity="0" result="BackgroundImageFix"/>
<feBlend mode="normal" in="SourceGraphic" in2="BackgroundImageFix" result="shape"/>
<feColorMatrix in="SourceAlpha" type="matrix" values="0 0 0 0 0 0 0 0 0 0 0 0 0 0 0 0 0 0 127 0" result="hardAlpha"/>
<feOffset/>
<feGaussianBlur stdDeviation="1"/>
<feComposite in2="hardAlpha" operator="arithmetic" k2="-1" k3="1"/>
<feColorMatrix type="matrix" values="0 0 0 0 0.942 0 0 0 0 0.94 0 0 0 0 1 0 0 0 0.1 0"/>
<feBlend mode="hard-light" in2="shape" result="effect1_innerShadow_1590_79"/>
</filter>
</defs>
</svg>
