<svg width="10" height="10" viewBox="0 0 10 10" fill="none" xmlns="http://www.w3.org/2000/svg">
<g filter="url(#filter0_i_1144_2638)">
<path d="M5.08221 3.82805C5.25793 3.6525 5.54324 3.65247 5.71893 3.82805L6.33207 4.44118C6.4517 4.56082 6.51152 4.62064 6.58508 4.62642C6.59552 4.62725 6.60602 4.62725 6.61646 4.62642C6.69002 4.62064 6.74983 4.56082 6.86947 4.44118L7.4826 3.82805C7.65824 3.6528 7.9427 3.65283 8.11835 3.82805C8.29403 4.00373 8.29393 4.28902 8.11835 4.46477L7.50521 5.0779C7.38558 5.19754 7.32576 5.25735 7.31997 5.33091C7.31915 5.34136 7.31915 5.35185 7.31997 5.36229C7.32576 5.43585 7.38558 5.49567 7.50521 5.6153L8.11835 6.22844C8.29403 6.40412 8.29393 6.68843 8.11835 6.86418C7.94261 7.03992 7.65834 7.03992 7.4826 6.86418L6.86947 6.25105C6.74983 6.13141 6.69002 6.07159 6.61646 6.0658C6.60602 6.06498 6.59552 6.06498 6.58508 6.0658C6.51152 6.07159 6.4517 6.13141 6.33207 6.25105L5.71893 6.86418C5.5432 7.03992 5.25795 7.03992 5.08221 6.86418C4.90694 6.68848 4.90681 6.40406 5.08221 6.22844L5.69535 5.6153C5.81498 5.49567 5.8748 5.43585 5.88059 5.36229C5.88141 5.35185 5.88141 5.34136 5.88059 5.33091C5.8748 5.25735 5.81498 5.19754 5.69535 5.0779L5.08221 4.46477C4.90658 4.28902 4.90651 4.00375 5.08221 3.82805ZM3.02948 3.00969L3.09689 3.02498C3.10982 3.02791 3.11629 3.02938 3.12264 3.03127C3.12358 3.03155 3.12452 3.03183 3.12545 3.03213C3.13177 3.03411 3.13795 3.03651 3.15032 3.04131L3.18964 3.05656L3.25214 3.08977L3.33026 3.14641C3.49279 3.28766 3.52328 3.48419 3.53339 3.56926C3.54663 3.68129 3.54445 3.82206 3.54315 3.94914L3.52518 5.72064C3.52381 5.8549 3.52313 5.92203 3.5534 5.9712C3.56944 5.99724 3.59124 6.01926 3.61712 6.03556C3.66597 6.06633 3.7331 6.06633 3.86737 6.06633C4.1159 6.06633 4.31757 6.268 4.31757 6.51652C4.31732 6.76485 4.11575 6.96672 3.86737 6.96672H2.26678C2.01858 6.96651 1.81683 6.76472 1.81659 6.51652C1.81659 6.26813 2.01843 6.06654 2.26678 6.06633C2.41445 6.06633 2.48829 6.06633 2.54045 6.02907C2.55787 6.01662 2.57318 6.00146 2.58579 5.98416C2.62356 5.93237 2.62428 5.85854 2.62571 5.71088L2.63793 4.45546C2.63866 4.37967 2.55087 4.34023 2.49335 4.38957C2.30474 4.55099 2.02029 4.52916 1.85858 4.34074C1.69688 4.15217 1.71897 3.8678 1.90741 3.70598C2.02172 3.60794 2.15425 3.49077 2.28241 3.37688C2.37801 3.29191 2.48392 3.19746 2.57733 3.13371C2.64801 3.08554 2.8162 2.97996 3.02948 3.00969Z" fill="white"/>
</g>
<defs>
<filter id="filter0_i_1144_2638" x="0" y="0" width="10" height="10" filterUnits="userSpaceOnUse" color-interpolation-filters="sRGB">
<feFlood flood-opacity="0" result="BackgroundImageFix"/>
<feBlend mode="normal" in="SourceGraphic" in2="BackgroundImageFix" result="shape"/>
<feColorMatrix in="SourceAlpha" type="matrix" values="0 0 0 0 0 0 0 0 0 0 0 0 0 0 0 0 0 0 127 0" result="hardAlpha"/>
<feOffset/>
<feGaussianBlur stdDeviation="1"/>
<feComposite in2="hardAlpha" operator="arithmetic" k2="-1" k3="1"/>
<feColorMatrix type="matrix" values="0 0 0 0 0.942 0 0 0 0 0.94 0 0 0 0 1 0 0 0 0.1 0"/>
<feBlend mode="hard-light" in2="shape" result="effect1_innerShadow_1144_2638"/>
</filter>
</defs>
</svg>
