<svg width="10" height="10" viewBox="0 0 10 10" fill="none" xmlns="http://www.w3.org/2000/svg">
<g filter="url(#filter0_i_1568_4056)">
<path d="M5.16016 1.7998C6.51343 1.7998 7.18984 1.80037 7.63867 2.18359C7.70241 2.23803 7.76197 2.29759 7.81641 2.36133C8.19962 2.81016 8.2002 3.48658 8.2002 4.83984V5.16016C8.2002 6.51342 8.19962 7.18984 7.81641 7.63867C7.76197 7.70241 7.70241 7.76197 7.63867 7.81641C7.18984 8.19963 6.51343 8.2002 5.16016 8.2002H4.83984C3.48657 8.2002 2.81016 8.19962 2.36133 7.81641C2.29759 7.76197 2.23803 7.70241 2.18359 7.63867C1.80037 7.18984 1.7998 6.51343 1.7998 5.16016V4.83984C1.7998 3.48657 1.80037 2.81016 2.18359 2.36133C2.23803 2.29759 2.29759 2.23803 2.36133 2.18359C2.81016 1.80038 3.48657 1.7998 4.83984 1.7998H5.16016ZM4.86621 2.92578C4.39607 2.92584 4.01669 3.09457 3.75977 3.37988C3.51247 3.65472 3.41016 4.00152 3.41016 4.31055C3.41047 4.57254 3.62371 4.78502 3.88574 4.78516C4.1477 4.78493 4.36004 4.57248 4.36035 4.31055C4.36035 4.19988 4.39838 4.09073 4.46582 4.01562C4.52401 3.95101 4.63622 3.87505 4.86621 3.875C5.09573 3.87507 5.20735 3.95109 5.26562 4.01562C5.33311 4.09073 5.37207 4.19985 5.37207 4.31055C5.37191 4.37144 5.34616 4.46191 5.24707 4.59277C5.14683 4.72505 4.99611 4.86527 4.80566 5.01758C4.613 5.17162 4.41429 5.31154 4.2041 5.46777C4.00836 5.61327 3.79554 5.77812 3.6377 5.95215C3.62775 5.9629 3.52543 6.06461 3.48047 6.21387C3.43108 6.3786 3.46575 6.52617 3.49316 6.61426C3.50727 6.65938 3.5327 6.71704 3.55664 6.75781C3.62835 6.87938 3.74078 7.0001 3.91602 7.05859C4.04354 7.101 4.17928 7.09573 4.21484 7.0957H6.12695C6.38899 7.09553 6.60133 6.88215 6.60156 6.62012C6.60138 6.35804 6.38903 6.14568 6.12695 6.14551H5.52734C5.32398 6.14525 5.2406 5.8869 5.39941 5.75977C5.61133 5.59029 5.83294 5.39166 6.00391 5.16602C6.17566 4.93919 6.32113 4.65104 6.32129 4.31055C6.32129 4.00149 6.21904 3.65473 5.97168 3.37988C5.71477 3.09478 5.33614 2.92586 4.86621 2.92578Z" fill="white"/>
</g>
<defs>
<filter id="filter0_i_1568_4056" x="0" y="0" width="10" height="10" filterUnits="userSpaceOnUse" color-interpolation-filters="sRGB">
<feFlood flood-opacity="0" result="BackgroundImageFix"/>
<feBlend mode="normal" in="SourceGraphic" in2="BackgroundImageFix" result="shape"/>
<feColorMatrix in="SourceAlpha" type="matrix" values="0 0 0 0 0 0 0 0 0 0 0 0 0 0 0 0 0 0 127 0" result="hardAlpha"/>
<feOffset/>
<feGaussianBlur stdDeviation="1"/>
<feComposite in2="hardAlpha" operator="arithmetic" k2="-1" k3="1"/>
<feColorMatrix type="matrix" values="0 0 0 0 0.942 0 0 0 0 0.94 0 0 0 0 1 0 0 0 0.1 0"/>
<feBlend mode="hard-light" in2="shape" result="effect1_innerShadow_1568_4056"/>
</filter>
</defs>
</svg>
