<svg width="10" height="10" viewBox="0 0 10 10" fill="none" xmlns="http://www.w3.org/2000/svg">
<g filter="url(#filter0_i_1731_328)">
<path d="M3.47999 7.75H3.49999C3.78089 7.75 3.92133 7.75 4.02222 7.68259C4.0659 7.65341 4.1034 7.61591 4.13258 7.57223C4.19999 7.47134 4.19999 7.3309 4.19999 7.05V6.45C4.19999 6.00818 4.55817 5.65 4.99999 5.65C5.44182 5.65 5.79999 6.00818 5.79999 6.45V7.05C5.79999 7.3309 5.79999 7.47134 5.8674 7.57223C5.89659 7.61591 5.93409 7.65341 5.97776 7.68259C6.07865 7.75 6.22063 7.75 6.50458 7.75C6.94566 7.75 7.1662 7.75 7.32108 7.64168C7.378 7.60187 7.42758 7.55247 7.4676 7.49569C7.5765 7.34121 7.5773 7.123 7.5789 6.68658L7.58443 5.18332C7.58586 4.79472 7.58657 4.60042 7.51882 4.42487C7.5089 4.39916 7.49792 4.37387 7.48591 4.34907C7.40389 4.17971 7.26144 4.04758 6.97652 3.78331L6.29566 3.15178C5.71517 2.61336 5.42493 2.34415 5.07535 2.31839C5.02552 2.31472 4.97548 2.31479 4.92565 2.3186C4.57615 2.34532 4.28665 2.61533 3.70765 3.15536L3.70765 3.15536L3.00406 3.81159C2.7223 4.07439 2.58142 4.20579 2.50003 4.37379C2.48811 4.3984 2.4772 4.42349 2.46734 4.44899C2.39999 4.62309 2.39999 4.81574 2.39999 5.20104V6.67C2.39999 7.11997 2.39999 7.34496 2.51458 7.50268C2.55159 7.55361 2.59639 7.59841 2.64732 7.63541C2.80504 7.75 3.03003 7.75 3.47999 7.75Z" fill="white"/>
</g>
<defs>
<filter id="filter0_i_1731_328" x="0" y="0" width="10" height="10" filterUnits="userSpaceOnUse" color-interpolation-filters="sRGB">
<feFlood flood-opacity="0" result="BackgroundImageFix"/>
<feBlend mode="normal" in="SourceGraphic" in2="BackgroundImageFix" result="shape"/>
<feColorMatrix in="SourceAlpha" type="matrix" values="0 0 0 0 0 0 0 0 0 0 0 0 0 0 0 0 0 0 127 0" result="hardAlpha"/>
<feOffset/>
<feGaussianBlur stdDeviation="1"/>
<feComposite in2="hardAlpha" operator="arithmetic" k2="-1" k3="1"/>
<feColorMatrix type="matrix" values="0 0 0 0 0.942 0 0 0 0 0.94 0 0 0 0 1 0 0 0 0.1 0"/>
<feBlend mode="hard-light" in2="shape" result="effect1_innerShadow_1731_328"/>
</filter>
</defs>
</svg>
