<svg width="10" height="10" viewBox="0 0 10 10" fill="none" xmlns="http://www.w3.org/2000/svg">
<g filter="url(#filter0_i_1570_4396)">
<path d="M5.21973 1.5C6.23455 1.5 6.74247 1.49986 7.0791 1.78711C7.1269 1.82794 7.17206 1.8731 7.21289 1.9209C7.5001 2.25753 7.5 2.76549 7.5 3.78027V6.21973C7.5 7.23451 7.5001 7.74247 7.21289 8.0791C7.17206 8.1269 7.1269 8.17206 7.0791 8.21289C6.74247 8.50013 6.23455 8.5 5.21973 8.5H4.78027C3.76549 8.5 3.25753 8.5001 2.9209 8.21289C2.8731 8.17206 2.82794 8.1269 2.78711 8.0791C2.49987 7.74247 2.5 7.23454 2.5 6.21973V3.78027C2.5 2.76546 2.49987 2.25753 2.78711 1.9209C2.82794 1.8731 2.8731 1.82794 2.9209 1.78711C3.25753 1.4999 3.76549 1.5 4.78027 1.5H5.21973ZM5.00488 2.88965C4.48739 2.88975 4.0677 3.33691 4.06738 3.88867C4.06738 4.03199 4.09624 4.16884 4.14746 4.29199C4.16939 4.34534 4.12512 4.40918 4.06738 4.40918C3.54984 4.40932 3.13006 4.85732 3.12988 5.40918C3.13005 5.96105 3.54983 6.40806 4.06738 6.4082C4.19284 6.4082 4.31272 6.38191 4.42188 6.33398C4.49401 6.30258 4.58511 6.35777 4.56836 6.43457C4.53132 6.60161 4.51267 6.68733 4.51074 6.69727C4.46197 6.96834 4.56581 7.09817 4.84082 7.10938H5.16895C5.44431 7.0983 5.54879 6.96849 5.5 6.69727C5.49805 6.68732 5.47845 6.60161 5.44141 6.43457C5.42477 6.35805 5.51602 6.30256 5.58789 6.33398C5.69725 6.38181 5.8168 6.40818 5.94238 6.4082C6.46004 6.4082 6.87971 5.96113 6.87988 5.40918C6.8797 4.85723 6.46004 4.40918 5.94238 4.40918C5.88433 4.40909 5.84 4.34462 5.8623 4.29102C5.91362 4.16811 5.94238 4.03183 5.94238 3.88867C5.94207 3.33685 5.52246 2.88965 5.00488 2.88965Z" fill="white"/>
</g>
<defs>
<filter id="filter0_i_1570_4396" x="0" y="0" width="10" height="10" filterUnits="userSpaceOnUse" color-interpolation-filters="sRGB">
<feFlood flood-opacity="0" result="BackgroundImageFix"/>
<feBlend mode="normal" in="SourceGraphic" in2="BackgroundImageFix" result="shape"/>
<feColorMatrix in="SourceAlpha" type="matrix" values="0 0 0 0 0 0 0 0 0 0 0 0 0 0 0 0 0 0 127 0" result="hardAlpha"/>
<feOffset/>
<feGaussianBlur stdDeviation="1"/>
<feComposite in2="hardAlpha" operator="arithmetic" k2="-1" k3="1"/>
<feColorMatrix type="matrix" values="0 0 0 0 0.942 0 0 0 0 0.94 0 0 0 0 1 0 0 0 0.1 0"/>
<feBlend mode="hard-light" in2="shape" result="effect1_innerShadow_1570_4396"/>
</filter>
</defs>
</svg>
