<svg width="10" height="10" viewBox="0 0 10 10" fill="none" xmlns="http://www.w3.org/2000/svg">
<g filter="url(#filter0_i_1568_4188)">
<path d="M5.16016 1.7998C6.51343 1.7998 7.18984 1.80037 7.63867 2.18359C7.70241 2.23803 7.76197 2.29759 7.81641 2.36133C8.19962 2.81016 8.2002 3.48658 8.2002 4.83984V5.16016C8.2002 6.51342 8.19962 7.18984 7.81641 7.63867C7.76197 7.70241 7.70241 7.76197 7.63867 7.81641C7.18984 8.19963 6.51343 8.2002 5.16016 8.2002H4.83984C3.48657 8.2002 2.81016 8.19962 2.36133 7.81641C2.29759 7.76197 2.23803 7.70241 2.18359 7.63867C1.80037 7.18984 1.7998 6.51343 1.7998 5.16016V4.83984C1.7998 3.48657 1.80037 2.81016 2.18359 2.36133C2.23803 2.29759 2.29759 2.23803 2.36133 2.18359C2.81016 1.80038 3.48657 1.7998 4.83984 1.7998H5.16016ZM5.06836 6.18945C4.77824 6.18966 4.54212 6.42493 4.54199 6.71484C4.54206 7.00481 4.7782 7.24002 5.06836 7.24023C5.3585 7.24 5.59368 7.00479 5.59375 6.71484C5.59362 6.42494 5.35847 6.18968 5.06836 6.18945ZM5.06738 2.75977C4.68044 2.75989 4.31536 2.83647 4.01562 3.03613C3.70631 3.24236 3.51381 3.54768 3.42383 3.90723C3.36042 4.16144 3.51545 4.41954 3.76953 4.4834C4.02392 4.54699 4.28194 4.39202 4.3457 4.1377C4.387 3.97279 4.45769 3.88359 4.54199 3.82715C4.63626 3.76435 4.79798 3.70911 5.06738 3.70898C5.26212 3.70898 5.41015 3.78823 5.50684 3.89453C5.64226 4.04369 5.56963 4.25502 5.39062 4.34766C5.37256 4.35701 5.35279 4.36658 5.33203 4.37695C5.22445 4.43069 5.03942 4.51955 4.89258 4.6543C4.719 4.8138 4.59284 5.03933 4.59277 5.33594C4.59293 5.59784 4.80556 5.81005 5.06738 5.81055C5.23826 5.81055 5.38834 5.72036 5.47168 5.58496C5.55439 5.4505 5.61571 5.29817 5.75684 5.22754C5.97247 5.11982 6.46731 4.89813 6.58496 4.3125C6.59143 4.28207 6.59473 4.25084 6.59473 4.21973C6.59459 3.51752 6.00618 2.75977 5.06738 2.75977Z" fill="white"/>
</g>
<defs>
<filter id="filter0_i_1568_4188" x="0" y="0" width="10" height="10" filterUnits="userSpaceOnUse" color-interpolation-filters="sRGB">
<feFlood flood-opacity="0" result="BackgroundImageFix"/>
<feBlend mode="normal" in="SourceGraphic" in2="BackgroundImageFix" result="shape"/>
<feColorMatrix in="SourceAlpha" type="matrix" values="0 0 0 0 0 0 0 0 0 0 0 0 0 0 0 0 0 0 127 0" result="hardAlpha"/>
<feOffset/>
<feGaussianBlur stdDeviation="1"/>
<feComposite in2="hardAlpha" operator="arithmetic" k2="-1" k3="1"/>
<feColorMatrix type="matrix" values="0 0 0 0 0.942 0 0 0 0 0.94 0 0 0 0 1 0 0 0 0.1 0"/>
<feBlend mode="hard-light" in2="shape" result="effect1_innerShadow_1568_4188"/>
</filter>
</defs>
</svg>
