<svg width="10" height="10" viewBox="0 0 10 10" fill="none" xmlns="http://www.w3.org/2000/svg">
<g filter="url(#filter0_i_1142_1565)">
<path d="M5 2C6.65685 2 8 3.34315 8 5C8 6.65685 6.65685 8 5 8C3.34315 8 2 6.65685 2 5C2 3.34315 3.34315 2 5 2ZM6.15527 6.51562C6.05353 6.31967 5.81128 6.24309 5.61523 6.34473C5.49986 6.40437 5.29229 6.4502 5.0498 6.4502C4.80724 6.45017 4.59967 6.40442 4.48438 6.34473C4.28834 6.24316 4.04606 6.3197 3.94434 6.51562C3.8429 6.7116 3.91942 6.95393 4.11523 7.05566C4.38568 7.19587 4.73557 7.24998 5.0498 7.25C5.364 7.25 5.71391 7.1958 5.98438 7.05566C6.18031 6.95393 6.25686 6.71166 6.15527 6.51562ZM3.7002 4.2998C3.36893 4.2998 3.09977 4.65797 3.09961 5.09961C3.09961 5.54144 3.36882 5.90039 3.7002 5.90039C4.03148 5.90025 4.2998 5.54135 4.2998 5.09961C4.29964 4.65805 4.03138 4.29994 3.7002 4.2998ZM6.5 4.2998C6.16873 4.2998 5.90055 4.65797 5.90039 5.09961C5.90039 5.54144 6.16863 5.90039 6.5 5.90039C6.83137 5.90039 7.09961 5.54143 7.09961 5.09961C7.09945 4.65797 6.83127 4.29981 6.5 4.2998Z" fill="white"/>
</g>
<defs>
<filter id="filter0_i_1142_1565" x="0" y="0" width="10" height="10" filterUnits="userSpaceOnUse" color-interpolation-filters="sRGB">
<feFlood flood-opacity="0" result="BackgroundImageFix"/>
<feBlend mode="normal" in="SourceGraphic" in2="BackgroundImageFix" result="shape"/>
<feColorMatrix in="SourceAlpha" type="matrix" values="0 0 0 0 0 0 0 0 0 0 0 0 0 0 0 0 0 0 127 0" result="hardAlpha"/>
<feOffset/>
<feGaussianBlur stdDeviation="1"/>
<feComposite in2="hardAlpha" operator="arithmetic" k2="-1" k3="1"/>
<feColorMatrix type="matrix" values="0 0 0 0 0.942 0 0 0 0 0.94 0 0 0 0 1 0 0 0 0.1 0"/>
<feBlend mode="hard-light" in2="shape" result="effect1_innerShadow_1142_1565"/>
</filter>
</defs>
</svg>
