<svg width="10" height="10" viewBox="0 0 10 10" fill="none" xmlns="http://www.w3.org/2000/svg">
<g filter="url(#filter0_i_1590_94)">
<path d="M7.10002 2.98376V2.95399C7.10002 2.39567 7.10002 2.11651 6.94189 1.93136C6.91943 1.90507 6.89495 1.88058 6.86865 1.85813C6.68351 1.69999 6.40434 1.69999 5.84602 1.69999H5.30001H4.40001H3.50001H2.95401C2.39569 1.69999 2.11653 1.69999 1.93138 1.85813C1.90509 1.88058 1.8806 1.90507 1.85814 1.93136C1.70001 2.11651 1.70001 2.39567 1.70001 2.95399V3.49999C1.70001 3.49999 1.70002 3.39999 1.70001 4.39999C1.7 5.39999 1.70001 5.29999 1.70001 5.29999V5.84599C1.70001 6.40432 1.70001 6.68348 1.85814 6.86863C1.8806 6.89492 1.90509 6.91941 1.93138 6.94186C2.11653 7.09999 2.39569 7.09999 2.95401 7.09999H2.98378C3.1942 7.09999 3.29941 7.09999 3.36274 7.14267C3.37417 7.15037 3.37844 7.15368 3.38877 7.16282C3.44594 7.21344 3.48029 7.34622 3.54899 7.61176C3.63341 7.93808 3.85084 8.29999 4.40001 8.29999C4.94919 8.29999 5.16661 7.93808 5.25103 7.61176C5.31973 7.34622 5.35408 7.21344 5.41126 7.16282C5.42159 7.15368 5.42585 7.15037 5.43729 7.14267C5.50062 7.09999 5.60583 7.09999 5.81624 7.09999H5.84602C6.40434 7.09999 6.68351 7.09999 6.86865 6.94186C6.89495 6.91941 6.91943 6.89492 6.94189 6.86863C7.10002 6.68348 7.10002 6.40432 7.10002 5.84599V5.81622C7.10002 5.60581 7.10002 5.5006 7.14269 5.43727C7.1504 5.42583 7.1537 5.42157 7.16284 5.41124C7.21347 5.35406 7.34624 5.31971 7.61178 5.25102L7.61179 5.25101C7.9381 5.16659 8.30002 4.94917 8.30002 4.39999C8.30002 3.85082 7.9381 3.63339 7.61179 3.54897C7.34624 3.48027 7.21347 3.44592 7.16284 3.38875C7.1537 3.37842 7.1504 3.37416 7.14269 3.36272C7.10002 3.29939 7.10002 3.19418 7.10002 2.98376Z" fill="white"/>
</g>
<defs>
<filter id="filter0_i_1590_94" x="0" y="0" width="10" height="10" filterUnits="userSpaceOnUse" color-interpolation-filters="sRGB">
<feFlood flood-opacity="0" result="BackgroundImageFix"/>
<feBlend mode="normal" in="SourceGraphic" in2="BackgroundImageFix" result="shape"/>
<feColorMatrix in="SourceAlpha" type="matrix" values="0 0 0 0 0 0 0 0 0 0 0 0 0 0 0 0 0 0 127 0" result="hardAlpha"/>
<feOffset/>
<feGaussianBlur stdDeviation="1"/>
<feComposite in2="hardAlpha" operator="arithmetic" k2="-1" k3="1"/>
<feColorMatrix type="matrix" values="0 0 0 0 0.942 0 0 0 0 0.94 0 0 0 0 1 0 0 0 0.1 0"/>
<feBlend mode="hard-light" in2="shape" result="effect1_innerShadow_1590_94"/>
</filter>
</defs>
</svg>
