<svg width="10" height="10" viewBox="0 0 10 10" fill="none" xmlns="http://www.w3.org/2000/svg">
<g filter="url(#filter0_i_1230_98)">
<path d="M2.71675 1.83801C2.84981 1.83801 2.97156 1.91343 3.0312 2.03234L3.18941 2.34875C3.32492 2.61978 3.39313 2.75554 3.49605 2.81555C3.51317 2.82552 3.52358 2.83026 3.54195 2.83801C3.65178 2.88428 3.83087 2.85153 4.18941 2.78625C4.44772 2.73922 4.72993 2.71496 5.03413 2.71496C5.31406 2.71498 5.5751 2.73591 5.81636 2.77551C6.16417 2.83262 6.33846 2.86117 6.44624 2.81457C6.46425 2.80678 6.47432 2.80112 6.49117 2.79113C6.59217 2.73123 6.65863 2.59928 6.79097 2.33508L6.93648 2.04406C6.99608 1.9251 7.11787 1.84974 7.25093 1.84973C7.3657 1.84973 7.47324 1.90608 7.53902 2.00012L7.75581 2.30969C7.99123 2.64617 8.03863 3.07999 7.88081 3.4591L7.77827 3.70324C7.72474 3.83113 7.69841 3.89552 7.69234 3.95422C7.69125 3.96472 7.69079 3.96907 7.69038 3.97961C7.68814 4.03864 7.71176 4.13086 7.75972 4.31457C7.80827 4.50057 7.83391 4.701 7.83394 4.91516C7.83392 5.46967 7.66806 5.93229 7.35542 6.2882C7.15979 6.51087 7.0615 6.62259 7.03609 6.70422C7.03138 6.71945 7.03056 6.72572 7.0273 6.74133C7.00993 6.82492 7.03235 6.92773 7.0771 7.13293L7.13863 7.41516C7.23049 7.8386 6.85582 8.22069 6.42769 8.15441C6.31682 8.13714 6.23433 8.04288 6.23433 7.93067V7.4757C6.23433 7.25479 6.05485 7.07531 5.83394 7.07531C5.61307 7.07536 5.43355 7.25482 5.43355 7.4757V7.63338C5.43355 7.84908 5.24984 8.01479 5.03413 8.01476C4.8179 8.01476 4.63374 7.84863 4.63374 7.6324V7.42492C4.63355 7.20417 4.45415 7.02453 4.23335 7.02453C4.01274 7.02474 3.83316 7.2043 3.83296 7.42492V7.93164C3.83296 8.04329 3.7509 8.13723 3.64058 8.15441C3.21228 8.22098 2.83773 7.83874 2.92964 7.41516L2.99117 7.13195C3.03563 6.92691 3.05751 6.82384 3.03999 6.74035C3.03679 6.7251 3.03489 6.71929 3.03023 6.70422C3.00474 6.62275 2.90706 6.51144 2.71187 6.28918C2.39919 5.93312 2.23435 5.46984 2.23433 4.91516C2.23435 4.71136 2.25614 4.51942 2.29976 4.34094C2.34903 4.13931 2.37388 4.03835 2.36909 3.97473C2.36819 3.96297 2.36789 3.95807 2.36617 3.94641C2.3568 3.88327 2.32267 3.81547 2.25484 3.6798L2.15425 3.47766C1.95737 3.08378 1.99157 2.61281 2.24409 2.25207L2.42867 1.9884C2.49446 1.89447 2.60208 1.83805 2.71675 1.83801ZM3.63472 4.59875C3.40172 4.4901 3.28504 4.43587 3.15816 4.49523C3.14393 4.50192 3.12004 4.5162 3.10738 4.52551C2.9946 4.60855 2.98877 4.70786 2.97652 4.90637C2.96947 5.02046 2.97674 5.13258 2.99898 5.2384C3.05684 5.51368 3.21038 5.72541 3.42671 5.82629C3.64304 5.92715 3.90423 5.90911 4.1523 5.77648C4.24762 5.72551 4.338 5.65891 4.42085 5.58019C4.56521 5.44305 4.63783 5.37446 4.62886 5.23449C4.62785 5.21882 4.62312 5.19207 4.61909 5.17687C4.58315 5.04121 4.46654 4.98678 4.23335 4.87805L3.93355 4.7384L3.63472 4.59875ZM6.91011 4.49523C6.78306 4.43561 6.66591 4.48994 6.43257 4.59875L5.83492 4.87805C5.60156 4.98686 5.48515 5.0412 5.44917 5.17687C5.44515 5.19207 5.44042 5.21881 5.43941 5.23449C5.43042 5.37451 5.50299 5.44299 5.64742 5.58019C5.73026 5.65888 5.82066 5.72553 5.91597 5.77648C6.16379 5.9089 6.42441 5.92687 6.64058 5.82629C6.85691 5.72541 7.01143 5.51369 7.06929 5.2384C7.09152 5.13261 7.09879 5.02043 7.09175 4.90637C7.07949 4.70766 7.07301 4.60861 6.95992 4.52551C6.94724 4.5162 6.92432 4.50191 6.91011 4.49523Z" fill="white"/>
</g>
<defs>
<filter id="filter0_i_1230_98" x="0" y="0" width="10" height="10" filterUnits="userSpaceOnUse" color-interpolation-filters="sRGB">
<feFlood flood-opacity="0" result="BackgroundImageFix"/>
<feBlend mode="normal" in="SourceGraphic" in2="BackgroundImageFix" result="shape"/>
<feColorMatrix in="SourceAlpha" type="matrix" values="0 0 0 0 0 0 0 0 0 0 0 0 0 0 0 0 0 0 127 0" result="hardAlpha"/>
<feOffset/>
<feGaussianBlur stdDeviation="1"/>
<feComposite in2="hardAlpha" operator="arithmetic" k2="-1" k3="1"/>
<feColorMatrix type="matrix" values="0 0 0 0 0.942 0 0 0 0 0.94 0 0 0 0 1 0 0 0 0.1 0"/>
<feBlend mode="hard-light" in2="shape" result="effect1_innerShadow_1230_98"/>
</filter>
</defs>
</svg>
