<svg width="10" height="10" viewBox="0 0 10 10" fill="none" xmlns="http://www.w3.org/2000/svg">
<g filter="url(#filter0_i_1731_318)">
<path d="M2.75 1.7998C2.79617 1.7998 2.81938 1.79986 2.83887 1.80176C3.02864 1.82045 3.17935 1.97045 3.19824 2.16016C3.20017 2.17971 3.2002 2.20357 3.2002 2.25C3.2002 2.29621 3.20024 2.31936 3.20215 2.33887C3.22085 2.52871 3.37073 2.67945 3.56055 2.69824C3.5801 2.70017 3.60396 2.7002 3.65039 2.7002H3.90039C3.94656 2.7002 3.96976 2.70016 3.98926 2.69824C4.17916 2.67953 4.32895 2.52877 4.34766 2.33887C4.34957 2.31936 4.34961 2.29622 4.34961 2.25C4.34961 2.20357 4.34964 2.17971 4.35156 2.16016C4.37044 1.97044 4.52116 1.82045 4.71094 1.80176C4.73044 1.79985 4.75361 1.7998 4.7998 1.7998H5.2002C5.24639 1.7998 5.26956 1.79985 5.28906 1.80176C5.47884 1.82045 5.62956 1.97044 5.64844 2.16016C5.65036 2.17971 5.65039 2.20356 5.65039 2.25C5.65039 2.29622 5.65043 2.31936 5.65234 2.33887C5.67105 2.52877 5.82084 2.67953 6.01074 2.69824C6.03024 2.70016 6.05344 2.7002 6.09961 2.7002H6.34961C6.39604 2.7002 6.4199 2.70017 6.43945 2.69824C6.62926 2.67945 6.77915 2.52871 6.79785 2.33887C6.79976 2.31936 6.7998 2.29621 6.7998 2.25C6.7998 2.20357 6.79983 2.17971 6.80176 2.16016C6.82065 1.97045 6.97136 1.82045 7.16113 1.80176C7.18062 1.79986 7.20383 1.7998 7.25 1.7998H7.3252C7.49358 1.7998 7.5778 1.80011 7.64355 1.81836C7.84097 1.87332 7.98508 2.0433 8.00684 2.24707C8.01401 2.31492 8.00033 2.3984 7.97266 2.56445L7.8623 3.22559C7.82244 3.46475 7.68789 3.67834 7.48926 3.81738C7.10106 4.08929 6.98956 4.61504 7.2334 5.02148L7.59196 5.61934C7.6429 5.70426 7.66836 5.74673 7.68267 5.79345C7.68478 5.80034 7.6867 5.80728 7.68843 5.81427C7.7002 5.8617 7.7002 5.91121 7.7002 6.01024V6.96484C7.70019 7.51469 7.69968 7.78934 7.54395 7.97168C7.52183 7.99757 7.49757 8.02183 7.47168 8.04395C7.28934 8.19951 7.0145 8.2002 6.46484 8.2002C6.21715 8.2002 6.09331 8.2002 6.00091 8.14724C5.93924 8.1119 5.8881 8.06076 5.85276 7.99909C5.7998 7.90669 5.7998 7.78285 5.7998 7.53516V6.7002C5.7998 6.25837 5.44183 5.89941 5 5.89941C4.55818 5.89942 4.2002 6.25837 4.2002 6.7002V7.53516C4.2002 7.78285 4.2002 7.90669 4.14724 7.99909C4.1119 8.06076 4.06076 8.1119 3.99909 8.14724C3.90669 8.2002 3.78285 8.2002 3.53516 8.2002C2.98549 8.2002 2.71066 8.19951 2.52832 8.04395C2.50243 8.02183 2.47817 7.99757 2.45605 7.97168C2.30032 7.78934 2.2998 7.51469 2.2998 6.96484V6.01024C2.2998 5.91121 2.2998 5.8617 2.31157 5.81427C2.3133 5.80728 2.31522 5.80034 2.31733 5.79345C2.33164 5.74673 2.3571 5.70426 2.40804 5.61934L2.7666 5.02148C3.01044 4.61504 2.89894 4.08929 2.51074 3.81738C2.31211 3.67834 2.17756 3.46475 2.1377 3.22559L2.02734 2.56445C1.99967 2.39839 1.98599 2.31492 1.99316 2.24707C2.01492 2.0433 2.15903 1.87332 2.35645 1.81836C2.4222 1.80011 2.50642 1.7998 2.6748 1.7998H2.75Z" fill="white"/>
</g>
<defs>
<filter id="filter0_i_1731_318" x="0" y="0" width="10" height="10" filterUnits="userSpaceOnUse" color-interpolation-filters="sRGB">
<feFlood flood-opacity="0" result="BackgroundImageFix"/>
<feBlend mode="normal" in="SourceGraphic" in2="BackgroundImageFix" result="shape"/>
<feColorMatrix in="SourceAlpha" type="matrix" values="0 0 0 0 0 0 0 0 0 0 0 0 0 0 0 0 0 0 127 0" result="hardAlpha"/>
<feOffset/>
<feGaussianBlur stdDeviation="1"/>
<feComposite in2="hardAlpha" operator="arithmetic" k2="-1" k3="1"/>
<feColorMatrix type="matrix" values="0 0 0 0 0.942 0 0 0 0 0.94 0 0 0 0 1 0 0 0 0.1 0"/>
<feBlend mode="hard-light" in2="shape" result="effect1_innerShadow_1731_318"/>
</filter>
</defs>
</svg>
