<svg width="10" height="10" viewBox="0 0 10 10" fill="none" xmlns="http://www.w3.org/2000/svg">
<g filter="url(#filter0_i_1204_229)">
<path fill-rule="evenodd" clip-rule="evenodd" d="M4.44922 2.30474C4.5984 2.10617 4.88138 2.06591 5.08008 2.2149C5.32609 2.39959 5.40054 2.68225 5.4248 2.88189C5.44317 3.03366 5.5968 3.14598 5.74706 3.11784C6.81818 2.91719 8.20001 3.66931 8.2002 5.17486C8.2002 6.17486 7.6 7.87505 5 7.87505C2.4 7.87505 1.7998 6.17487 1.7998 5.17486C1.79999 3.63038 3.25377 2.87993 4.33488 3.13657C4.43494 3.16033 4.54358 3.09239 4.53125 2.99029C4.52478 2.93721 4.49098 2.89427 4.45777 2.85236C4.33405 2.69626 4.3243 2.47156 4.44922 2.30474ZM4.77637 6.1065L4.7185 6.15451C4.67619 6.18961 4.65503 6.20717 4.63486 6.21983C4.50756 6.29971 4.34404 6.29212 4.22469 6.20078C4.20578 6.1863 4.18634 6.16686 4.14746 6.12798C4.0108 5.99133 3.79001 5.99137 3.65332 6.12798C3.51664 6.26467 3.51664 6.48544 3.65332 6.62212L4.15332 7.12212C4.28089 7.25025 4.48535 7.25963 4.62402 7.14361C4.76205 7.02852 4.83107 6.97098 4.90865 6.95063C4.96854 6.93492 5.03146 6.93492 5.09135 6.95063C5.16893 6.97098 5.23795 7.02852 5.37598 7.14361C5.515 7.25946 5.71997 7.25037 5.84766 7.12212L6.34766 6.62212C6.48404 6.48556 6.48389 6.26464 6.34766 6.12798C6.211 5.99133 5.98923 5.99137 5.85254 6.12798C5.81334 6.16705 5.79374 6.18658 5.77467 6.20109C5.65516 6.29206 5.49174 6.29929 5.36468 6.21921C5.3444 6.20644 5.32315 6.18871 5.28066 6.15326L5.22461 6.1065C5.09495 5.99826 4.9058 5.99798 4.77637 6.1065ZM2.82849 5.12044C2.8796 5.35459 2.90516 5.47166 2.97316 5.54414C3.02501 5.59939 3.09297 5.63687 3.16736 5.65125C3.26494 5.67011 3.3776 5.62927 3.60292 5.5476C4.05704 5.38297 4.28411 5.30066 4.34843 5.17268C4.39665 5.07673 4.39952 4.96426 4.35625 4.86597C4.29853 4.73488 4.07596 4.6411 3.63081 4.45355C3.28163 4.30643 3.10704 4.23287 2.983 4.27015C2.88945 4.29827 2.81135 4.36318 2.76661 4.45001C2.70728 4.56515 2.74768 4.75024 2.82849 5.12044ZM6.40423 4.42028C5.98806 4.61188 5.77997 4.70767 5.72398 4.82591C5.66952 4.94093 5.67983 5.07616 5.7511 5.18159C5.82437 5.28997 6.04458 5.35311 6.48499 5.47939C6.68907 5.5379 6.79112 5.56716 6.87769 5.54941C6.96277 5.53197 7.03867 5.48436 7.09141 5.41537C7.14507 5.34515 7.16316 5.24055 7.19932 5.03134C7.25707 4.6972 7.28595 4.53014 7.23529 4.42582C7.18581 4.32394 7.09128 4.25129 6.9801 4.22969C6.86626 4.20758 6.71225 4.27848 6.40423 4.42028Z" fill="white"/>
</g>
<defs>
<filter id="filter0_i_1204_229" x="0" y="0" width="10" height="10" filterUnits="userSpaceOnUse" color-interpolation-filters="sRGB">
<feFlood flood-opacity="0" result="BackgroundImageFix"/>
<feBlend mode="normal" in="SourceGraphic" in2="BackgroundImageFix" result="shape"/>
<feColorMatrix in="SourceAlpha" type="matrix" values="0 0 0 0 0 0 0 0 0 0 0 0 0 0 0 0 0 0 127 0" result="hardAlpha"/>
<feOffset/>
<feGaussianBlur stdDeviation="1"/>
<feComposite in2="hardAlpha" operator="arithmetic" k2="-1" k3="1"/>
<feColorMatrix type="matrix" values="0 0 0 0 0.942 0 0 0 0 0.94 0 0 0 0 1 0 0 0 0.1 0"/>
<feBlend mode="hard-light" in2="shape" result="effect1_innerShadow_1204_229"/>
</filter>
</defs>
</svg>
