<svg width="10" height="10" viewBox="0 0 10 10" fill="none" xmlns="http://www.w3.org/2000/svg">
<g filter="url(#filter0_i_1568_4051)">
<path d="M5.16016 1.7998C6.51343 1.7998 7.18984 1.80037 7.63867 2.18359C7.70241 2.23803 7.76197 2.29759 7.81641 2.36133C8.19962 2.81016 8.2002 3.48658 8.2002 4.83984V5.16016C8.2002 6.51342 8.19962 7.18984 7.81641 7.63867C7.76197 7.70241 7.70241 7.76197 7.63867 7.81641C7.18984 8.19963 6.51343 8.2002 5.16016 8.2002H4.83984C3.48657 8.2002 2.81016 8.19962 2.36133 7.81641C2.29759 7.76197 2.23803 7.70241 2.18359 7.63867C1.80037 7.18984 1.7998 6.51343 1.7998 5.16016V4.83984C1.7998 3.48657 1.80037 2.81016 2.18359 2.36133C2.23803 2.29759 2.29759 2.23803 2.36133 2.18359C2.81016 1.80038 3.48657 1.7998 4.83984 1.7998H5.16016ZM5 4.2002C4.55818 4.2002 4.2002 4.55818 4.2002 5C4.2002 5.44183 4.55817 5.7998 5 5.7998C5.44178 5.79975 5.7998 5.44179 5.7998 5C5.7998 4.55821 5.44177 4.20025 5 4.2002Z" fill="white"/>
</g>
<defs>
<filter id="filter0_i_1568_4051" x="0" y="0" width="10" height="10" filterUnits="userSpaceOnUse" color-interpolation-filters="sRGB">
<feFlood flood-opacity="0" result="BackgroundImageFix"/>
<feBlend mode="normal" in="SourceGraphic" in2="BackgroundImageFix" result="shape"/>
<feColorMatrix in="SourceAlpha" type="matrix" values="0 0 0 0 0 0 0 0 0 0 0 0 0 0 0 0 0 0 127 0" result="hardAlpha"/>
<feOffset/>
<feGaussianBlur stdDeviation="1"/>
<feComposite in2="hardAlpha" operator="arithmetic" k2="-1" k3="1"/>
<feColorMatrix type="matrix" values="0 0 0 0 0.942 0 0 0 0 0.94 0 0 0 0 1 0 0 0 0.1 0"/>
<feBlend mode="hard-light" in2="shape" result="effect1_innerShadow_1568_4051"/>
</filter>
</defs>
</svg>
