<svg width="10" height="10" viewBox="0 0 10 10" fill="none" xmlns="http://www.w3.org/2000/svg">
<g filter="url(#filter0_i_1207_91)">
<path d="M5.04828 1.6268C5.27405 1.64502 5.45602 1.83352 5.81976 2.20981L7.31488 3.75668C7.36285 3.80631 7.38682 3.83118 7.40082 3.84945C7.57211 4.07317 7.46457 4.39949 7.19379 4.47738C7.17167 4.48372 7.13762 4.48951 7.06976 4.50082C7.03648 4.50637 7.01974 4.50902 7.00531 4.51254C6.83699 4.55364 6.71456 4.69817 6.7016 4.87094C6.7005 4.88573 6.69965 4.90276 6.69965 4.93637V5.80649C6.69965 5.90086 6.70049 5.94834 6.71039 5.99203C6.72563 6.05915 6.7579 6.12172 6.80414 6.1727C6.81906 6.18909 6.83604 6.20406 6.85883 6.22152L7.04047 6.35238C7.06355 6.37004 7.08108 6.38466 7.09613 6.40121C7.14237 6.45219 7.17463 6.51476 7.18988 6.58188C7.19978 6.62557 7.19965 6.67305 7.19965 6.76742V7.70199C7.19965 8.04036 7.19978 8.2099 7.10394 8.32211C7.09045 8.33787 7.07577 8.35257 7.06 8.36606C6.94779 8.46189 6.77826 8.46176 6.43988 8.46176C6.12052 8.46176 5.96083 8.46176 5.85186 8.37577C5.82727 8.35636 5.80504 8.33414 5.78563 8.30954C5.69965 8.20057 5.69965 8.04089 5.69965 7.72152V6.96176C5.6995 6.57541 5.38676 6.26177 5.00043 6.26156C4.61392 6.26156 4.30038 6.57528 4.30023 6.96176V7.72152C4.30023 8.04089 4.30023 8.20057 4.21424 8.30954C4.19484 8.33414 4.17261 8.35636 4.14801 8.37577C4.03904 8.46176 3.87936 8.46176 3.56 8.46176C3.22164 8.46176 3.05209 8.46189 2.93988 8.36606C2.92412 8.35257 2.90942 8.33787 2.89594 8.32211C2.8001 8.2099 2.80023 8.04036 2.80023 7.70199V6.76742C2.80023 6.67307 2.80011 6.62556 2.81 6.58188C2.82524 6.51476 2.85751 6.45219 2.90375 6.40121C2.91879 6.38465 2.93635 6.37004 2.95941 6.35238L3.14105 6.22152C3.16405 6.20391 3.1817 6.18925 3.19672 6.1727C3.24292 6.12173 3.27523 6.05912 3.29047 5.99203C3.30032 5.94839 3.30023 5.90074 3.30023 5.80649V4.93637C3.30023 4.90276 3.30036 4.88573 3.29926 4.87094C3.28632 4.69814 3.16291 4.55364 2.99457 4.51254C2.98018 4.50904 2.96327 4.50635 2.93011 4.50082C2.8622 4.4895 2.82819 4.48374 2.80609 4.47738C2.53534 4.3995 2.42786 4.07317 2.59906 3.84945C2.61305 3.83119 2.63707 3.80626 2.685 3.75668L4.18011 2.20981C4.54377 1.83362 4.7259 1.6451 4.9516 1.6268C4.98361 1.62422 5.01627 1.62422 5.04828 1.6268Z" fill="white"/>
</g>
<defs>
<filter id="filter0_i_1207_91" x="0" y="0" width="10" height="10" filterUnits="userSpaceOnUse" color-interpolation-filters="sRGB">
<feFlood flood-opacity="0" result="BackgroundImageFix"/>
<feBlend mode="normal" in="SourceGraphic" in2="BackgroundImageFix" result="shape"/>
<feColorMatrix in="SourceAlpha" type="matrix" values="0 0 0 0 0 0 0 0 0 0 0 0 0 0 0 0 0 0 127 0" result="hardAlpha"/>
<feOffset/>
<feGaussianBlur stdDeviation="1"/>
<feComposite in2="hardAlpha" operator="arithmetic" k2="-1" k3="1"/>
<feColorMatrix type="matrix" values="0 0 0 0 0.942 0 0 0 0 0.94 0 0 0 0 1 0 0 0 0.1 0"/>
<feBlend mode="hard-light" in2="shape" result="effect1_innerShadow_1207_91"/>
</filter>
</defs>
</svg>
