<svg width="10" height="10" viewBox="0 0 10 10" fill="none" xmlns="http://www.w3.org/2000/svg">
<g filter="url(#filter0_i_1568_4167)">
<path fill-rule="evenodd" clip-rule="evenodd" d="M4.61521 1.60594C5.04683 1.5075 5.49676 1.74273 6.39593 2.21384L6.78498 2.41805C7.68418 2.88917 8.13439 3.12492 8.29914 3.53583C8.3225 3.59411 8.34088 3.65441 8.35485 3.71563C8.4532 4.1472 8.21801 4.59727 7.74695 5.49635L7.54274 5.8854C7.49315 5.98004 7.44604 6.06963 7.40103 6.15441C7.34897 6.25247 7.20497 6.21484 7.20497 6.10382L7.20496 5.66446C7.20496 5.17483 7.20565 4.74411 7.16345 4.39634C7.11921 4.03216 7.01873 3.66576 6.74937 3.35038C6.6848 3.27481 6.61439 3.2036 6.53881 3.13905C6.22355 2.87 5.85778 2.7693 5.49379 2.72508C5.14592 2.68283 4.71489 2.684 4.22503 2.684L3.78567 2.68401C3.69286 2.68401 3.63379 2.58581 3.67942 2.50499C3.94148 2.0408 4.14344 1.77878 4.43541 1.66165C4.49367 1.63829 4.55401 1.61991 4.61521 1.60594Z" fill="white"/>
<path d="M4.21951 3.39977C5.23465 3.39977 5.74225 3.40035 6.07889 3.68786C6.12658 3.7286 6.17096 3.77298 6.2117 3.82067C6.49921 4.15731 6.49979 4.66491 6.49979 5.68005V6.1195C6.49979 7.13464 6.49921 7.64224 6.2117 7.97888C6.17096 8.02657 6.12658 8.07094 6.07889 8.11169C5.74225 8.3992 5.23465 8.39977 4.21951 8.39977H3.78006C2.76492 8.39977 2.25732 8.3992 1.92068 8.11169C1.873 8.07094 1.82862 8.02657 1.78787 7.97888C1.50036 7.64224 1.49979 7.13464 1.49979 6.1195V5.68005C1.49979 4.66491 1.50036 4.15731 1.78787 3.82067C1.82862 3.77298 1.873 3.7286 1.92068 3.68786C2.25732 3.40035 2.76492 3.39977 3.78006 3.39977H4.21951ZM2.83084 6.52477C2.52725 6.52491 2.28112 6.77098 2.28104 7.07458C2.28104 7.37825 2.5272 7.62425 2.83084 7.62438C3.1346 7.62438 3.38065 7.37834 3.38065 7.07458C3.38056 6.77089 3.13455 6.52477 2.83084 6.52477ZM5.17459 6.52477C4.87101 6.52491 4.62488 6.77099 4.62479 7.07458C4.62479 7.37825 4.87095 7.62425 5.17459 7.62438C5.47835 7.62438 5.7244 7.37834 5.7244 7.07458C5.7243 6.7709 5.47829 6.52477 5.17459 6.52477ZM2.83084 4.18102C2.5273 4.18116 2.2812 4.4273 2.28104 4.73083C2.28104 5.0345 2.5272 5.28147 2.83084 5.28161C3.1346 5.28161 3.38065 5.03459 3.38065 4.73083C3.38048 4.42721 3.1345 4.18102 2.83084 4.18102ZM5.17459 4.18102C4.87103 4.18113 4.62495 4.42728 4.62479 4.73083C4.62479 5.03452 4.87092 5.2815 5.17459 5.28161C5.47835 5.28161 5.7244 5.03459 5.7244 4.73083C5.72423 4.42721 5.47825 4.18102 5.17459 4.18102Z" fill="white"/>
</g>
<defs>
<filter id="filter0_i_1568_4167" x="0" y="0" width="10" height="10" filterUnits="userSpaceOnUse" color-interpolation-filters="sRGB">
<feFlood flood-opacity="0" result="BackgroundImageFix"/>
<feBlend mode="normal" in="SourceGraphic" in2="BackgroundImageFix" result="shape"/>
<feColorMatrix in="SourceAlpha" type="matrix" values="0 0 0 0 0 0 0 0 0 0 0 0 0 0 0 0 0 0 127 0" result="hardAlpha"/>
<feOffset/>
<feGaussianBlur stdDeviation="1"/>
<feComposite in2="hardAlpha" operator="arithmetic" k2="-1" k3="1"/>
<feColorMatrix type="matrix" values="0 0 0 0 0.942 0 0 0 0 0.94 0 0 0 0 1 0 0 0 0.1 0"/>
<feBlend mode="hard-light" in2="shape" result="effect1_innerShadow_1568_4167"/>
</filter>
</defs>
</svg>
