<svg width="10" height="10" viewBox="0 0 10 10" fill="none" xmlns="http://www.w3.org/2000/svg">
<g filter="url(#filter0_i_1570_4388)">
<path d="M5.21973 1.5C6.23455 1.5 6.74247 1.49986 7.0791 1.78711C7.1269 1.82794 7.17206 1.8731 7.21289 1.9209C7.5001 2.25753 7.5 2.76549 7.5 3.78027V6.21973C7.5 7.23451 7.5001 7.74247 7.21289 8.0791C7.17206 8.1269 7.1269 8.17206 7.0791 8.21289C6.74247 8.50013 6.23455 8.5 5.21973 8.5H4.78027C3.76549 8.5 3.25753 8.5001 2.9209 8.21289C2.8731 8.17206 2.82794 8.1269 2.78711 8.0791C2.49987 7.74247 2.5 7.23454 2.5 6.21973V3.78027C2.5 2.76546 2.49987 2.25753 2.78711 1.9209C2.82794 1.8731 2.8731 1.82794 2.9209 1.78711C3.25753 1.4999 3.76549 1.5 4.78027 1.5H5.21973ZM5.86914 3.25C5.63428 3.25004 5.44299 3.34293 5.2998 3.45117C5.13016 3.57951 5.04489 3.64364 5.00293 3.64648C4.99323 3.64711 4.99407 3.64711 4.98438 3.64648C4.94235 3.64343 4.85773 3.57922 4.68848 3.45117C4.54522 3.34279 4.35328 3.25 4.11816 3.25C3.55534 3.25004 2.99211 3.75881 3.11719 4.60449C3.20891 5.22414 3.7691 5.74782 4.3584 6.35059C4.65986 6.65894 4.81097 6.81251 4.95898 6.8252C4.9825 6.8272 4.99801 6.82786 5.02148 6.82617C5.16962 6.8154 5.32448 6.66182 5.63281 6.35449C6.21891 5.77029 6.77875 5.2704 6.87012 4.60449C6.99519 3.69212 6.43198 3.25 5.86914 3.25Z" fill="white"/>
</g>
<defs>
<filter id="filter0_i_1570_4388" x="0" y="0" width="10" height="10" filterUnits="userSpaceOnUse" color-interpolation-filters="sRGB">
<feFlood flood-opacity="0" result="BackgroundImageFix"/>
<feBlend mode="normal" in="SourceGraphic" in2="BackgroundImageFix" result="shape"/>
<feColorMatrix in="SourceAlpha" type="matrix" values="0 0 0 0 0 0 0 0 0 0 0 0 0 0 0 0 0 0 127 0" result="hardAlpha"/>
<feOffset/>
<feGaussianBlur stdDeviation="1"/>
<feComposite in2="hardAlpha" operator="arithmetic" k2="-1" k3="1"/>
<feColorMatrix type="matrix" values="0 0 0 0 0.942 0 0 0 0 0.94 0 0 0 0 1 0 0 0 0.1 0"/>
<feBlend mode="hard-light" in2="shape" result="effect1_innerShadow_1570_4388"/>
</filter>
</defs>
</svg>
