<svg width="10" height="10" viewBox="0 0 10 10" fill="none" xmlns="http://www.w3.org/2000/svg">
<g filter="url(#filter0_i_1699_197)">
<path d="M7.335 3.09961C7.63108 3.09961 7.77912 3.09961 7.87731 3.18347C7.89125 3.19538 7.90423 3.20836 7.91614 3.2223C8 3.32049 8 3.46853 8 3.76461V4.0352C8 4.33128 8 4.47932 7.91614 4.5775C7.90423 4.59144 7.89125 4.60443 7.87731 4.61634C7.77912 4.7002 7.63108 4.7002 7.335 4.7002H7.06539C6.76931 4.7002 6.62127 4.7002 6.52308 4.61634C6.50914 4.60443 6.49616 4.59144 6.48425 4.5775C6.40039 4.47932 6.40039 4.33128 6.40039 4.0352V3.76461C6.40039 3.46853 6.40039 3.32049 6.48425 3.2223C6.49616 3.20836 6.50914 3.19538 6.52308 3.18347C6.62127 3.09961 6.76931 3.09961 7.06539 3.09961H7.335ZM5.1348 5.2998C5.43089 5.2998 5.57893 5.2998 5.67711 5.38366C5.69105 5.39557 5.70404 5.40856 5.71595 5.4225C5.7998 5.52068 5.7998 5.66872 5.7998 5.9648V6.23539C5.7998 6.53147 5.7998 6.67951 5.71595 6.7777C5.70404 6.79164 5.69105 6.80462 5.67711 6.81653C5.57893 6.90039 5.43089 6.90039 5.1348 6.90039H4.8652C4.56911 6.90039 4.42107 6.90039 4.32289 6.81653C4.30895 6.80462 4.29596 6.79164 4.28405 6.7777C4.2002 6.67951 4.2002 6.53147 4.2002 6.23539V5.9648C4.2002 5.66872 4.2002 5.52068 4.28405 5.4225C4.29596 5.40856 4.30895 5.39557 4.32289 5.38366C4.42107 5.2998 4.56911 5.2998 4.8652 5.2998H5.1348ZM5.1348 3.10059C5.43089 3.10059 5.57893 3.10059 5.67711 3.18444C5.69105 3.19635 5.70404 3.20934 5.71595 3.22328C5.7998 3.32146 5.7998 3.4695 5.7998 3.76559V4.0352C5.7998 4.33128 5.7998 4.47932 5.71595 4.5775C5.70404 4.59144 5.69105 4.60443 5.67711 4.61634C5.57893 4.7002 5.43089 4.7002 5.1348 4.7002H4.8652C4.56911 4.7002 4.42107 4.7002 4.32289 4.61634C4.30895 4.60443 4.29596 4.59144 4.28405 4.5775C4.2002 4.47932 4.2002 4.33128 4.2002 4.0352V3.76559C4.2002 3.4695 4.2002 3.32146 4.28405 3.22328C4.29596 3.20934 4.30895 3.19635 4.32289 3.18444C4.42107 3.10059 4.56911 3.10059 4.8652 3.10059H5.1348ZM2.93461 5.2998C3.23069 5.2998 3.37873 5.2998 3.47692 5.38366C3.49086 5.39557 3.50384 5.40856 3.51575 5.4225C3.59961 5.52068 3.59961 5.66872 3.59961 5.9648V6.23539C3.59961 6.53147 3.59961 6.67951 3.51575 6.7777C3.50384 6.79164 3.49086 6.80462 3.47692 6.81653C3.37873 6.90039 3.23069 6.90039 2.93461 6.90039H2.665C2.36892 6.90039 2.22088 6.90039 2.12269 6.81653C2.10875 6.80462 2.09577 6.79164 2.08386 6.7777C2 6.67951 2 6.53147 2 6.23539V5.9648C2 5.66872 2 5.52068 2.08386 5.4225C2.09577 5.40856 2.10875 5.39557 2.12269 5.38366C2.22088 5.2998 2.36892 5.2998 2.665 5.2998H2.93461Z" fill="white"/>
</g>
<defs>
<filter id="filter0_i_1699_197" x="0" y="0" width="10" height="10" filterUnits="userSpaceOnUse" color-interpolation-filters="sRGB">
<feFlood flood-opacity="0" result="BackgroundImageFix"/>
<feBlend mode="normal" in="SourceGraphic" in2="BackgroundImageFix" result="shape"/>
<feColorMatrix in="SourceAlpha" type="matrix" values="0 0 0 0 0 0 0 0 0 0 0 0 0 0 0 0 0 0 127 0" result="hardAlpha"/>
<feOffset/>
<feGaussianBlur stdDeviation="1"/>
<feComposite in2="hardAlpha" operator="arithmetic" k2="-1" k3="1"/>
<feColorMatrix type="matrix" values="0 0 0 0 0.942 0 0 0 0 0.94 0 0 0 0 1 0 0 0 0.1 0"/>
<feBlend mode="hard-light" in2="shape" result="effect1_innerShadow_1699_197"/>
</filter>
</defs>
</svg>
