<svg width="10" height="10" viewBox="0 0 10 10" fill="none" xmlns="http://www.w3.org/2000/svg">
<g filter="url(#filter0_i_1569_4282)">
<path fill-rule="evenodd" clip-rule="evenodd" d="M6.11099 1.49483C6.38726 1.46547 6.69196 1.57671 7.30142 1.79854C7.91119 2.02047 8.21606 2.13156 8.40884 2.33174C8.59378 2.52378 8.70971 2.77171 8.73795 3.03682C8.76733 3.3131 8.65608 3.61773 8.43423 4.22725L7.91861 5.64619C7.69675 6.25575 7.58556 6.56087 7.38541 6.75361C7.19345 6.93838 6.94525 7.05347 6.68033 7.08174C6.67663 7.08213 6.67293 7.0825 6.66923 7.08284C6.55896 7.09297 6.47804 6.99413 6.4733 6.8835C6.46124 6.6037 6.4129 6.26671 6.35904 5.8835L6.11978 4.1833C6.06587 3.79968 6.01937 3.46165 5.95377 3.18916C5.88557 2.90611 5.78188 2.6206 5.57095 2.3708C5.53407 2.32716 5.49519 2.28545 5.45452 2.24566C5.43578 2.22732 5.42641 2.21815 5.41929 2.21011C5.32759 2.10655 5.32836 1.9134 5.42088 1.81058C5.42806 1.8026 5.39115 1.83815 5.40591 1.82393C5.59794 1.63905 5.84593 1.52306 6.11099 1.49483ZM5.03677 2.82295C5.06473 2.85609 5.0898 2.89156 5.11295 2.9294C5.135 2.96545 5.15406 3.00436 5.17252 3.04561C5.1346 2.96092 5.09054 2.88776 5.0358 2.82295C5.00896 2.79119 4.98068 2.76082 4.95084 2.73213C4.98082 2.76076 5.0099 2.79113 5.03677 2.82295Z" fill="white"/>
<path d="M1.35052 4.85311C1.23876 4.05792 1.18288 3.66033 1.32472 3.34451C1.39833 3.18062 1.5078 3.03535 1.64506 2.91941C1.90954 2.69602 2.30714 2.64014 3.10233 2.52838C3.89751 2.41662 4.29511 2.36075 4.61092 2.50259C4.77482 2.5762 4.92009 2.68567 5.03602 2.82292C5.25942 3.08741 5.3153 3.485 5.42705 4.28019L5.66598 5.98021C5.77773 6.7754 5.83361 7.173 5.69177 7.48882C5.61816 7.65271 5.50869 7.79798 5.37144 7.91391C5.10695 8.13731 4.70936 8.19319 3.91417 8.30494C3.11898 8.4167 2.72138 8.47258 2.40557 8.33074C2.24168 8.25713 2.0964 8.14766 1.98047 8.0104C1.75707 7.74592 1.7012 7.34833 1.58944 6.55314L1.35052 4.85311Z" fill="white"/>
</g>
<defs>
<filter id="filter0_i_1569_4282" x="0" y="0" width="10" height="10" filterUnits="userSpaceOnUse" color-interpolation-filters="sRGB">
<feFlood flood-opacity="0" result="BackgroundImageFix"/>
<feBlend mode="normal" in="SourceGraphic" in2="BackgroundImageFix" result="shape"/>
<feColorMatrix in="SourceAlpha" type="matrix" values="0 0 0 0 0 0 0 0 0 0 0 0 0 0 0 0 0 0 127 0" result="hardAlpha"/>
<feOffset/>
<feGaussianBlur stdDeviation="1"/>
<feComposite in2="hardAlpha" operator="arithmetic" k2="-1" k3="1"/>
<feColorMatrix type="matrix" values="0 0 0 0 0.942 0 0 0 0 0.94 0 0 0 0 1 0 0 0 0.1 0"/>
<feBlend mode="hard-light" in2="shape" result="effect1_innerShadow_1569_4282"/>
</filter>
</defs>
</svg>
