<svg width="10" height="10" viewBox="0 0 10 10" fill="none" xmlns="http://www.w3.org/2000/svg">
<g filter="url(#filter0_i_1731_246)">
<path d="M5.10119 3.06365C5.29357 3.08553 5.45562 3.23301 5.77893 3.52654L6.99572 4.63103C7.21978 4.83454 7.10166 5.20779 6.80139 5.24529C6.62459 5.26722 6.49161 5.41674 6.49084 5.5949L6.48596 6.72576C6.48479 6.99705 6.26409 7.21697 5.99279 7.21697C5.72069 7.21694 5.50061 6.99591 5.50061 6.7238V6.01677C5.50061 5.75916 5.29138 5.55017 5.03381 5.54998C4.77608 5.54998 4.56701 5.75904 4.56701 6.01677V6.71697C4.56678 6.99284 4.34291 7.21685 4.06701 7.21697C3.79101 7.21697 3.56725 6.99291 3.56701 6.71697V6.42302C3.56698 6.42077 3.56604 6.41845 3.56604 6.41619V5.59978C3.5603 5.42632 3.43136 5.28055 3.25842 5.25603C2.95733 5.21369 2.84196 4.84032 3.06701 4.63591L4.28869 3.52654C4.61213 3.23289 4.7739 3.08538 4.96643 3.06365C5.01105 3.05863 5.05657 3.05861 5.10119 3.06365ZM3.10022 2.76384C3.10803 2.76472 3.11579 2.76581 3.12351 2.76711C3.3376 2.80309 3.44465 2.82108 3.50785 2.97579C3.51425 2.99148 3.52347 3.02415 3.5262 3.04087C3.55314 3.20581 3.42527 3.3171 3.16954 3.53968L2.62365 4.01482C2.16371 4.41455 2.16737 5.05299 2.49295 5.46447C2.5484 5.53455 2.56708 5.62663 2.56701 5.71599V6.41619C2.56689 6.69208 2.34288 6.91596 2.06701 6.91619C1.79095 6.91619 1.56714 6.69222 1.56701 6.41619V5.31072C1.56663 5.1322 1.4343 4.9811 1.25744 4.95623C0.956553 4.91367 0.841955 4.53946 1.06701 4.33513L2.28772 3.22576C2.61111 2.93215 2.77392 2.78557 2.96643 2.76384C3.01089 2.75886 3.05575 2.75885 3.10022 2.76384ZM7.10119 2.76384C7.29354 2.78573 7.45572 2.93232 7.77893 3.22576L8.99572 4.33025C9.21986 4.53374 9.10169 4.907 8.80139 4.94451C8.62472 4.96642 8.49182 5.11615 8.49084 5.29412L8.48596 6.42498C8.48479 6.69626 8.26407 6.91617 7.99279 6.91619C7.72074 6.9161 7.50061 6.6951 7.50061 6.42302V5.71599C7.50054 5.61882 7.51871 5.51797 7.57782 5.44084C7.8917 5.03127 7.89216 4.40542 7.43811 4.01091L6.89625 3.54051C6.6402 3.31823 6.51218 3.20709 6.53875 3.04226C6.54144 3.02552 6.55057 2.99291 6.55694 2.97719C6.61972 2.82249 6.72704 2.80411 6.94167 2.76736C6.94988 2.76595 6.95812 2.76478 6.96643 2.76384C7.01108 2.75882 7.05654 2.7588 7.10119 2.76384Z" fill="white"/>
</g>
<defs>
<filter id="filter0_i_1731_246" x="0" y="0" width="10" height="10" filterUnits="userSpaceOnUse" color-interpolation-filters="sRGB">
<feFlood flood-opacity="0" result="BackgroundImageFix"/>
<feBlend mode="normal" in="SourceGraphic" in2="BackgroundImageFix" result="shape"/>
<feColorMatrix in="SourceAlpha" type="matrix" values="0 0 0 0 0 0 0 0 0 0 0 0 0 0 0 0 0 0 127 0" result="hardAlpha"/>
<feOffset/>
<feGaussianBlur stdDeviation="1"/>
<feComposite in2="hardAlpha" operator="arithmetic" k2="-1" k3="1"/>
<feColorMatrix type="matrix" values="0 0 0 0 0.942 0 0 0 0 0.94 0 0 0 0 1 0 0 0 0.1 0"/>
<feBlend mode="hard-light" in2="shape" result="effect1_innerShadow_1731_246"/>
</filter>
</defs>
</svg>
