<svg width="10" height="10" viewBox="0 0 10 10" fill="none" xmlns="http://www.w3.org/2000/svg">
<g filter="url(#filter0_i_1203_184)">
<path d="M4.99951 2.04134C6.325 2.04134 7.3999 3.11625 7.3999 4.44173V7.12392C7.3999 7.4861 7.3999 7.66719 7.34494 7.76091C7.2544 7.91528 7.07234 7.99073 6.89915 7.94565C6.79401 7.91829 6.66591 7.79028 6.40972 7.53427C6.29111 7.41574 6.2318 7.35648 6.16689 7.32659C6.06068 7.27769 5.9384 7.27772 5.8322 7.32665C5.7673 7.35656 5.70802 7.41584 5.58945 7.53441L5.49951 7.62435C5.2961 7.82776 5.1944 7.92946 5.07207 7.95203C5.0241 7.96087 4.97492 7.96087 4.92696 7.95203C4.80463 7.92946 4.70292 7.82776 4.49951 7.62435L4.40939 7.53423C4.29109 7.41593 4.23194 7.35678 4.16722 7.32689C4.06081 7.27775 3.93821 7.27775 3.8318 7.32689C3.76708 7.35678 3.70793 7.41593 3.58963 7.53423C3.33409 7.78977 3.20631 7.91754 3.10149 7.94501C2.92795 7.99048 2.74536 7.91485 2.6548 7.75999C2.6001 7.66644 2.6001 7.48574 2.6001 7.12435V4.44173C2.6001 3.1164 3.67424 2.04159 4.99951 2.04134ZM3.99951 3.52376C3.66844 3.52409 3.40005 3.8821 3.3999 4.32357C3.3999 4.76519 3.66835 5.12402 3.99951 5.12435C4.33088 5.12435 4.6001 4.76539 4.6001 4.32357C4.59995 3.8819 4.33079 3.52376 3.99951 3.52376ZM5.99951 3.52376C5.66844 3.52409 5.40005 3.8821 5.3999 4.32357C5.3999 4.76519 5.66835 5.12402 5.99951 5.12435C6.33088 5.12435 6.6001 4.76539 6.6001 4.32357C6.59995 3.8819 6.33079 3.52376 5.99951 3.52376Z" fill="white"/>
</g>
<defs>
<filter id="filter0_i_1203_184" x="0" y="0" width="10" height="10" filterUnits="userSpaceOnUse" color-interpolation-filters="sRGB">
<feFlood flood-opacity="0" result="BackgroundImageFix"/>
<feBlend mode="normal" in="SourceGraphic" in2="BackgroundImageFix" result="shape"/>
<feColorMatrix in="SourceAlpha" type="matrix" values="0 0 0 0 0 0 0 0 0 0 0 0 0 0 0 0 0 0 127 0" result="hardAlpha"/>
<feOffset/>
<feGaussianBlur stdDeviation="1"/>
<feComposite in2="hardAlpha" operator="arithmetic" k2="-1" k3="1"/>
<feColorMatrix type="matrix" values="0 0 0 0 0.942 0 0 0 0 0.94 0 0 0 0 1 0 0 0 0.1 0"/>
<feBlend mode="hard-light" in2="shape" result="effect1_innerShadow_1203_184"/>
</filter>
</defs>
</svg>
