<svg width="10" height="10" viewBox="0 0 10 10" fill="none" xmlns="http://www.w3.org/2000/svg">
<g filter="url(#filter0_i_1731_296)">
<path d="M5.06699 1.80685C5.39441 1.84396 5.66678 2.40159 6.21152 3.51681C6.64507 4.40439 7.15537 5.32984 7.67246 6.0051C7.88043 6.27668 7.98505 6.41247 8.01523 6.53342C8.02024 6.55358 8.02283 6.56665 8.02598 6.58713C8.04491 6.71036 8.00736 6.85149 7.9332 7.13303L7.92344 7.16916C7.82177 7.55512 7.77139 7.74863 7.63437 7.86935C7.6147 7.88668 7.59364 7.9026 7.57187 7.91721C7.42029 8.01886 7.22068 8.01877 6.82187 8.01877H6.60094C6.34478 8.01877 6.2167 8.01877 6.11765 7.95482C6.10338 7.94561 6.0897 7.93549 6.07671 7.92454C5.98659 7.84853 5.94912 7.72605 5.87418 7.4811L5.72617 6.99728C5.44639 6.08163 5.30658 5.62386 5.05039 5.59103C5.01668 5.58673 4.98253 5.58672 4.94883 5.59103C4.69267 5.62393 4.55281 6.08168 4.27305 6.99728L4.12569 7.48047C4.0509 7.72569 4.01351 7.8483 3.92336 7.92441C3.91036 7.93538 3.89669 7.94551 3.8824 7.95474C3.78331 8.01877 3.65512 8.01877 3.39874 8.01877H3.17832C2.7795 8.01877 2.57992 8.01879 2.42832 7.91721C2.40659 7.90263 2.38546 7.88664 2.36582 7.86935C2.22879 7.74861 2.17746 7.5552 2.07578 7.16916L2.06699 7.13303C1.99283 6.85146 1.95529 6.71037 1.97422 6.58713C1.97736 6.56667 1.97995 6.55357 1.98496 6.53342C2.01516 6.41247 2.11975 6.27672 2.32773 6.0051C2.84476 5.32987 3.35425 4.40436 3.78769 3.51681C4.33261 2.40103 4.60561 1.84359 4.9332 1.80685C4.98138 1.80146 5.01878 1.80145 5.06699 1.80685Z" fill="white"/>
</g>
<defs>
<filter id="filter0_i_1731_296" x="0" y="0" width="10" height="10" filterUnits="userSpaceOnUse" color-interpolation-filters="sRGB">
<feFlood flood-opacity="0" result="BackgroundImageFix"/>
<feBlend mode="normal" in="SourceGraphic" in2="BackgroundImageFix" result="shape"/>
<feColorMatrix in="SourceAlpha" type="matrix" values="0 0 0 0 0 0 0 0 0 0 0 0 0 0 0 0 0 0 127 0" result="hardAlpha"/>
<feOffset/>
<feGaussianBlur stdDeviation="1"/>
<feComposite in2="hardAlpha" operator="arithmetic" k2="-1" k3="1"/>
<feColorMatrix type="matrix" values="0 0 0 0 0.942 0 0 0 0 0.94 0 0 0 0 1 0 0 0 0.1 0"/>
<feBlend mode="hard-light" in2="shape" result="effect1_innerShadow_1731_296"/>
</filter>
</defs>
</svg>
