<svg width="10" height="10" viewBox="0 0 10 10" fill="none" xmlns="http://www.w3.org/2000/svg">
<g filter="url(#filter0_i_1699_228)">
<path fill-rule="evenodd" clip-rule="evenodd" d="M4.7002 6.2349C4.7002 6.53098 4.7002 6.67902 4.61634 6.77721C4.60443 6.79115 4.59144 6.80414 4.5775 6.81604C4.47932 6.8999 4.33128 6.8999 4.0352 6.8999H3.76461C3.46853 6.8999 3.32049 6.8999 3.2223 6.81604C3.20836 6.80414 3.19538 6.79115 3.18347 6.77721C3.09961 6.67902 3.09961 6.53098 3.09961 6.2349V5.96529C3.09961 5.66921 3.09961 5.52117 3.18347 5.42299C3.19538 5.40904 3.20836 5.39606 3.2223 5.38415C3.32049 5.30029 3.46853 5.30029 3.76461 5.30029H4.0352C4.33128 5.30029 4.47932 5.30029 4.5775 5.38415C4.59144 5.39606 4.60443 5.40904 4.61634 5.42299C4.7002 5.52117 4.7002 5.66921 4.7002 5.96529V6.2349ZM6.90039 6.2349C6.90039 6.53098 6.90039 6.67902 6.81653 6.77721C6.80462 6.79115 6.79164 6.80414 6.7777 6.81604C6.67951 6.8999 6.53147 6.8999 6.23539 6.8999H5.9648C5.66872 6.8999 5.52068 6.8999 5.4225 6.81604C5.40856 6.80414 5.39557 6.79115 5.38366 6.77721C5.2998 6.67902 5.2998 6.53098 5.2998 6.2349V5.96529C5.2998 5.66921 5.2998 5.52117 5.38366 5.42299C5.39557 5.40904 5.40856 5.39606 5.4225 5.38415C5.52068 5.30029 5.66872 5.30029 5.9648 5.30029H6.23539C6.53147 5.30029 6.67951 5.30029 6.7777 5.38415C6.79164 5.39606 6.80462 5.40904 6.81653 5.42299C6.90039 5.52117 6.90039 5.66921 6.90039 5.96529V6.2349ZM4.7002 4.03471C4.7002 4.33079 4.7002 4.47883 4.61634 4.57701C4.60443 4.59096 4.59144 4.60394 4.5775 4.61585C4.47932 4.69971 4.33128 4.69971 4.0352 4.69971H3.76461C3.46853 4.69971 3.32049 4.69971 3.2223 4.61585C3.20836 4.60394 3.19538 4.59096 3.18347 4.57701C3.09961 4.47883 3.09961 4.33079 3.09961 4.03471V3.7651C3.09961 3.46902 3.09961 3.32098 3.18347 3.22279C3.19538 3.20885 3.20836 3.19586 3.2223 3.18396C3.32049 3.1001 3.46853 3.1001 3.76461 3.1001H4.0352C4.33128 3.1001 4.47932 3.1001 4.5775 3.18396C4.59144 3.19586 4.60443 3.20885 4.61634 3.22279C4.7002 3.32098 4.7002 3.46902 4.7002 3.7651V4.03471ZM6.90039 4.03471C6.90039 4.33079 6.90039 4.47883 6.81653 4.57701C6.80462 4.59096 6.79164 4.60394 6.7777 4.61585C6.67951 4.69971 6.53147 4.69971 6.23539 4.69971H5.9648C5.66872 4.69971 5.52068 4.69971 5.4225 4.61585C5.40856 4.60394 5.39557 4.59096 5.38366 4.57701C5.2998 4.47883 5.2998 4.33079 5.2998 4.03471V3.7651C5.2998 3.46902 5.2998 3.32098 5.38366 3.22279C5.39557 3.20885 5.40856 3.19586 5.4225 3.18396C5.52068 3.1001 5.66872 3.1001 5.9648 3.1001H6.23539C6.53147 3.1001 6.67951 3.1001 6.7777 3.18396C6.79164 3.19586 6.80462 3.20885 6.81653 3.22279C6.90039 3.32098 6.90039 3.46902 6.90039 3.7651V4.03471Z" fill="white"/>
</g>
<defs>
<filter id="filter0_i_1699_228" x="0" y="0" width="10" height="10" filterUnits="userSpaceOnUse" color-interpolation-filters="sRGB">
<feFlood flood-opacity="0" result="BackgroundImageFix"/>
<feBlend mode="normal" in="SourceGraphic" in2="BackgroundImageFix" result="shape"/>
<feColorMatrix in="SourceAlpha" type="matrix" values="0 0 0 0 0 0 0 0 0 0 0 0 0 0 0 0 0 0 127 0" result="hardAlpha"/>
<feOffset/>
<feGaussianBlur stdDeviation="1"/>
<feComposite in2="hardAlpha" operator="arithmetic" k2="-1" k3="1"/>
<feColorMatrix type="matrix" values="0 0 0 0 0.942 0 0 0 0 0.94 0 0 0 0 1 0 0 0 0.1 0"/>
<feBlend mode="hard-light" in2="shape" result="effect1_innerShadow_1699_228"/>
</filter>
</defs>
</svg>
