<svg width="10" height="10" viewBox="0 0 10 10" fill="none" xmlns="http://www.w3.org/2000/svg">
<g filter="url(#filter0_i_1731_279)">
<path d="M5.05058 4.36417C5.24301 4.38599 5.40501 4.53256 5.72832 4.82609L6.94511 5.93156C7.16893 6.13514 7.05101 6.50732 6.75078 6.54484C6.57414 6.56675 6.44129 6.71649 6.44023 6.89445L6.43535 7.72648C6.43385 7.99763 6.21336 8.21671 5.94218 8.21671C5.67017 8.21646 5.45 7.99562 5.45 7.72355V7.31632C5.44981 7.05879 5.24076 6.8496 4.9832 6.84952C4.72558 6.84952 4.51659 7.05875 4.5164 7.31632V7.71671C4.51638 7.99283 4.29253 8.21671 4.0164 8.21671C3.74028 8.21671 3.51643 7.99283 3.5164 7.71671V6.91202C3.5164 6.73325 3.3848 6.58157 3.20781 6.55656C2.90669 6.51421 2.79127 6.13986 3.0164 5.93546L4.23808 4.82609C4.56141 4.53254 4.72333 4.3859 4.91582 4.36417C4.96053 4.35913 5.00588 4.35913 5.05058 4.36417ZM1.49004 2.49992C1.65554 2.50007 1.79066 2.63519 1.79082 2.8007C1.7914 2.96585 1.92536 3.10037 2.09062 3.1005H2.23418C2.37863 3.10033 2.49972 2.99731 2.52812 2.86124L2.53984 2.74015C2.56782 2.60349 2.68986 2.50003 2.83476 2.49992H3.075C3.21985 2.50009 3.34098 2.60353 3.36894 2.74015L3.38066 2.86124C3.40901 2.99742 3.53102 3.10039 3.67558 3.1005H3.81914C3.96346 3.10016 4.08473 2.99723 4.11308 2.86124L4.1248 2.74015C4.1528 2.60357 4.27394 2.5001 4.41875 2.49992H4.49297C4.75049 2.50033 4.9596 2.7101 4.95976 2.96769V3.45988C4.95972 3.48041 4.95843 3.50078 4.95601 3.52092C4.94654 3.59973 4.87327 3.64667 4.79472 3.65812C4.55709 3.69298 4.3718 3.79695 4.22929 3.89738C4.09772 3.99016 3.95488 4.11471 3.81718 4.23429L2.57402 5.31437C2.17358 5.66212 2.124 6.19103 2.33222 6.59377C2.40544 6.73541 2.44206 6.80622 2.44224 6.87879C2.44226 6.887 2.44149 6.90222 2.44065 6.91038C2.43319 6.98257 2.42204 6.99967 2.39975 7.03386C2.37656 7.06945 2.34675 7.09973 2.3084 7.12589C2.29102 7.13763 2.25185 7.15795 2.23222 7.16593C2.03607 7.24439 1.93617 7.17814 1.73808 7.04484C1.72336 7.03493 1.70873 7.02421 1.69511 7.01261C1.66935 6.9906 1.64488 6.9661 1.62285 6.94035C1.46728 6.75811 1.4666 6.48264 1.4666 5.93351V4.40812C1.46634 4.21687 1.36937 4.03834 1.20879 3.93449C1.04782 3.83076 0.95036 3.65132 0.949997 3.45988V2.96769C0.950158 2.70993 1.15903 2.50005 1.41679 2.49992H1.49004ZM7.4539 1.67179C7.68704 1.6914 7.87363 1.89235 8.24394 2.29484L8.96269 3.07609C9.12471 3.2531 9.02714 3.54004 8.79082 3.58195C8.64544 3.60756 8.53901 3.73413 8.53886 3.88175V4.6591C8.53886 4.77737 8.53893 4.83776 8.55547 4.89347C8.55783 4.9014 8.56042 4.91012 8.56328 4.91788C8.58349 4.97229 8.61932 5.02048 8.69023 5.11515L8.7205 5.15519C8.79144 5.24989 8.8273 5.29794 8.84746 5.35245C8.85032 5.36026 8.8529 5.3689 8.85527 5.37687C8.87171 5.43245 8.87187 5.49236 8.87187 5.61027V6.29972C8.87187 6.63712 8.87157 6.80674 8.77617 6.91886C8.76277 6.93453 8.74787 6.95036 8.73222 6.96378C8.62007 7.05924 8.44972 7.05949 8.11211 7.05949C7.97971 7.05935 7.87215 6.95161 7.87187 6.81925V5.98429C7.87174 5.85802 7.82138 5.74332 7.73972 5.65923C7.52862 5.44186 7.42307 5.33317 7.42026 5.33011C7.41625 5.32575 7.423 5.33313 7.41901 5.32875C7.41622 5.32567 7.54964 5.48113 7.49627 5.41894C7.46382 5.38113 7.42801 5.34481 7.38847 5.31046L6.46643 4.50921C6.37508 4.42982 6.3294 4.39013 6.3029 4.33802C6.29902 4.3304 6.29547 4.32261 6.29226 4.31468C6.27031 4.2605 6.27031 4.19998 6.27031 4.07896V3.88175C6.27017 3.73435 6.16438 3.60782 6.01933 3.58195C5.78253 3.54035 5.685 3.25321 5.84746 3.07609L6.56621 2.29484C6.93628 1.8926 7.12213 1.69126 7.35527 1.67179C7.38785 1.66912 7.42132 1.66912 7.4539 1.67179Z" fill="white"/>
</g>
<defs>
<filter id="filter0_i_1731_279" x="0" y="0" width="10" height="10" filterUnits="userSpaceOnUse" color-interpolation-filters="sRGB">
<feFlood flood-opacity="0" result="BackgroundImageFix"/>
<feBlend mode="normal" in="SourceGraphic" in2="BackgroundImageFix" result="shape"/>
<feColorMatrix in="SourceAlpha" type="matrix" values="0 0 0 0 0 0 0 0 0 0 0 0 0 0 0 0 0 0 127 0" result="hardAlpha"/>
<feOffset/>
<feGaussianBlur stdDeviation="1"/>
<feComposite in2="hardAlpha" operator="arithmetic" k2="-1" k3="1"/>
<feColorMatrix type="matrix" values="0 0 0 0 0.942 0 0 0 0 0.94 0 0 0 0 1 0 0 0 0.1 0"/>
<feBlend mode="hard-light" in2="shape" result="effect1_innerShadow_1731_279"/>
</filter>
</defs>
</svg>
