<svg width="10" height="10" viewBox="0 0 10 10" fill="none" xmlns="http://www.w3.org/2000/svg">
<g filter="url(#filter0_i_1590_91)">
<path d="M7.69998 3.58377V3.554C7.69998 2.99567 7.69998 2.71651 7.54185 2.53136C7.51939 2.50507 7.49491 2.48059 7.46862 2.45813C7.28347 2.3 7.00431 2.3 6.44598 2.3H5.89998H4.99998H4.09998H3.55398C2.99565 2.3 2.71649 2.3 2.53134 2.45813C2.50505 2.48059 2.48056 2.50507 2.45811 2.53136C2.29998 2.71651 2.29998 2.99567 2.29998 3.554V4.1C2.29998 4.1 2.29999 4 2.29998 5C2.29996 6 2.29998 5.9 2.29998 5.9V6.446C2.29998 7.00432 2.29998 7.28349 2.45811 7.46864C2.48056 7.49493 2.50505 7.51941 2.53134 7.54187C2.71649 7.7 2.99565 7.7 3.55398 7.7H3.58375C3.79416 7.7 3.89937 7.7 3.9627 7.65733C3.97414 7.64962 3.9784 7.64632 3.98873 7.63717C4.04591 7.58655 4.08026 7.45378 4.14895 7.18823C4.23338 6.86191 4.4508 6.5 4.99998 6.5C5.54915 6.5 5.76657 6.86191 5.851 7.18823C5.9197 7.45378 5.95405 7.58655 6.01122 7.63717C6.02155 7.64632 6.02581 7.64962 6.03725 7.65733C6.10058 7.7 6.20579 7.7 6.41621 7.7H6.44598C7.00431 7.7 7.28347 7.7 7.46862 7.54187C7.49491 7.51941 7.51939 7.49493 7.54185 7.46864C7.69998 7.28349 7.69998 7.00432 7.69998 6.446V6.41623C7.69998 6.20581 7.69998 6.10061 7.65731 6.03727C7.6496 6.02584 7.6463 6.02157 7.63716 6.01125C7.58653 5.95407 7.45376 5.91972 7.18822 5.85102L7.18821 5.85102C6.8619 5.7666 6.49998 5.54918 6.49998 5C6.49998 4.45082 6.8619 4.2334 7.18821 4.14898C7.45376 4.08028 7.58653 4.04593 7.63716 3.98875C7.6463 3.97843 7.6496 3.97416 7.65731 3.96272C7.69998 3.89939 7.69998 3.79418 7.69998 3.58377Z" fill="white"/>
</g>
<defs>
<filter id="filter0_i_1590_91" x="0" y="0" width="10" height="10" filterUnits="userSpaceOnUse" color-interpolation-filters="sRGB">
<feFlood flood-opacity="0" result="BackgroundImageFix"/>
<feBlend mode="normal" in="SourceGraphic" in2="BackgroundImageFix" result="shape"/>
<feColorMatrix in="SourceAlpha" type="matrix" values="0 0 0 0 0 0 0 0 0 0 0 0 0 0 0 0 0 0 127 0" result="hardAlpha"/>
<feOffset/>
<feGaussianBlur stdDeviation="1"/>
<feComposite in2="hardAlpha" operator="arithmetic" k2="-1" k3="1"/>
<feColorMatrix type="matrix" values="0 0 0 0 0.942 0 0 0 0 0.94 0 0 0 0 1 0 0 0 0.1 0"/>
<feBlend mode="hard-light" in2="shape" result="effect1_innerShadow_1590_91"/>
</filter>
</defs>
</svg>
