<svg width="10" height="10" viewBox="0 0 10 10" fill="none" xmlns="http://www.w3.org/2000/svg">
<g filter="url(#filter0_i_1590_56)">
<path d="M1.70001 4.18377V4.154C1.70001 3.59567 1.70001 3.31651 1.85814 3.13136C1.8806 3.10507 1.90509 3.08059 1.93138 3.05813C2.11653 2.9 2.39569 2.9 2.95401 2.9H2.98379C3.1942 2.9 3.29941 2.9 3.36274 2.85732C3.37418 2.84962 3.37845 2.84632 3.38877 2.83717C3.44595 2.78655 3.4803 2.65378 3.549 2.38823C3.63342 2.06191 3.85084 1.7 4.40002 1.7C4.94919 1.7 5.16662 2.06191 5.25104 2.38823L5.25104 2.38823C5.31974 2.65378 5.35409 2.78655 5.41127 2.83717C5.42159 2.84632 5.42586 2.84962 5.43729 2.85732C5.50063 2.9 5.60583 2.9 5.81625 2.9H5.84602C6.40434 2.9 6.68351 2.9 6.86865 3.05813C6.89495 3.08059 6.91943 3.10507 6.94189 3.13136C7.10002 3.31651 7.10002 3.59567 7.10002 4.154V4.18377C7.10002 4.39418 7.10002 4.49939 7.14269 4.56272C7.1504 4.57416 7.1537 4.57843 7.16284 4.58875C7.21347 4.64593 7.34624 4.68028 7.61179 4.74898C7.9381 4.8334 8.30001 5.05083 8.30002 5.6C8.30003 6.14918 7.93811 6.3666 7.61179 6.45102C7.34624 6.51972 7.21347 6.55407 7.16284 6.61125C7.1537 6.62157 7.1504 6.62584 7.14269 6.63727C7.10002 6.70061 7.10002 6.80581 7.10002 7.01623V7.046C7.10002 7.60432 7.10002 7.88349 6.94189 8.06864C6.91943 8.09493 6.89495 8.11941 6.86865 8.14187C6.68351 8.3 6.40434 8.3 5.84602 8.3H5.81625C5.60583 8.3 5.50063 8.3 5.43729 8.25733C5.42586 8.24962 5.42159 8.24632 5.41127 8.23717C5.35409 8.18655 5.31974 8.05378 5.25104 7.78823C5.16662 7.46191 4.94919 7.1 4.40002 7.1C3.85084 7.1 3.63342 7.46191 3.549 7.78823C3.4803 8.05378 3.44595 8.18655 3.38877 8.23717C3.37845 8.24632 3.37418 8.24962 3.36274 8.25733C3.29941 8.3 3.1942 8.3 2.98379 8.3H2.95401C2.39569 8.3 2.11653 8.3 1.93138 8.14187C1.90509 8.11941 1.8806 8.09493 1.85814 8.06864C1.70001 7.88349 1.70001 7.60432 1.70001 7.046V7.01623C1.70001 6.80581 1.70001 6.70061 1.74269 6.63727C1.75039 6.62584 1.7537 6.62157 1.76284 6.61125C1.81346 6.55407 1.94623 6.51972 2.21178 6.45102C2.5381 6.3666 2.90001 6.14918 2.90001 5.6C2.90001 5.05082 2.5381 4.8334 2.21178 4.74898L2.21178 4.74898C1.94623 4.68028 1.81346 4.64593 1.76284 4.58875C1.7537 4.57843 1.75039 4.57416 1.74269 4.56272C1.70001 4.49939 1.70001 4.39418 1.70001 4.18377Z" fill="white"/>
</g>
<defs>
<filter id="filter0_i_1590_56" x="0" y="0" width="10" height="10" filterUnits="userSpaceOnUse" color-interpolation-filters="sRGB">
<feFlood flood-opacity="0" result="BackgroundImageFix"/>
<feBlend mode="normal" in="SourceGraphic" in2="BackgroundImageFix" result="shape"/>
<feColorMatrix in="SourceAlpha" type="matrix" values="0 0 0 0 0 0 0 0 0 0 0 0 0 0 0 0 0 0 127 0" result="hardAlpha"/>
<feOffset/>
<feGaussianBlur stdDeviation="1"/>
<feComposite in2="hardAlpha" operator="arithmetic" k2="-1" k3="1"/>
<feColorMatrix type="matrix" values="0 0 0 0 0.942 0 0 0 0 0.94 0 0 0 0 1 0 0 0 0.1 0"/>
<feBlend mode="hard-light" in2="shape" result="effect1_innerShadow_1590_56"/>
</filter>
</defs>
</svg>
