<svg width="10" height="10" viewBox="0 0 10 10" fill="none" xmlns="http://www.w3.org/2000/svg">
<g filter="url(#filter0_i_1590_100)">
<path d="M7.10002 3.68377V3.654C7.10002 3.09567 7.10002 2.81651 6.94189 2.63136C6.91943 2.60507 6.89495 2.58058 6.86865 2.55813C6.68351 2.4 6.40434 2.4 5.84602 2.4H5.81624C5.60583 2.4 5.50062 2.4 5.43729 2.44267C5.42585 2.45038 5.42158 2.45368 5.41126 2.46282C5.35408 2.51345 5.31973 2.64622 5.25103 2.91177C5.16661 3.23808 4.94919 3.6 4.40001 3.6C3.85084 3.6 3.63341 3.23808 3.54899 2.91177C3.48029 2.64622 3.44594 2.51345 3.38877 2.46282C3.37844 2.45368 3.37417 2.45038 3.36274 2.44267C3.29941 2.4 3.1942 2.4 2.98378 2.4H2.95401C2.39569 2.4 2.11653 2.4 1.93138 2.55813C1.90509 2.58058 1.8806 2.60507 1.85814 2.63136C1.70001 2.81651 1.70001 3.09567 1.70001 3.654V4.2C1.70001 4.2 1.70002 4.1 1.70001 5.1C1.7 6.1 1.70001 6 1.70001 6V6.546C1.70001 7.10432 1.70001 7.38349 1.85814 7.56863C1.8806 7.59493 1.90509 7.61941 1.93138 7.64187C2.11653 7.8 2.39569 7.8 2.95401 7.8H2.98378C3.1942 7.8 3.29941 7.8 3.36274 7.75732C3.37417 7.74962 3.37844 7.74632 3.38877 7.73717C3.44594 7.68655 3.48029 7.55378 3.54899 7.28823C3.63341 6.96191 3.85084 6.6 4.40001 6.6C4.94919 6.6 5.16661 6.96191 5.25103 7.28823C5.31973 7.55378 5.35408 7.68655 5.41126 7.73717C5.42158 7.74632 5.42585 7.74962 5.43729 7.75732C5.50062 7.8 5.60583 7.8 5.81624 7.8H5.84602C6.40434 7.8 6.68351 7.8 6.86865 7.64187C6.89495 7.61941 6.91943 7.59493 6.94189 7.56863C7.10002 7.38349 7.10002 7.10432 7.10002 6.546V6.51623C7.10002 6.30581 7.10002 6.2006 7.14269 6.13727C7.1504 6.12584 7.1537 6.12157 7.16284 6.11124C7.21347 6.05407 7.34624 6.01972 7.61179 5.95102C7.9381 5.8666 8.30002 5.64917 8.30002 5.1C8.30002 4.55082 7.9381 4.3334 7.61179 4.24898C7.34624 4.18028 7.21347 4.14593 7.16284 4.08875C7.1537 4.07843 7.1504 4.07416 7.14269 4.06272C7.10002 3.99939 7.10002 3.89418 7.10002 3.68377Z" fill="white"/>
</g>
<defs>
<filter id="filter0_i_1590_100" x="0" y="0" width="10" height="10" filterUnits="userSpaceOnUse" color-interpolation-filters="sRGB">
<feFlood flood-opacity="0" result="BackgroundImageFix"/>
<feBlend mode="normal" in="SourceGraphic" in2="BackgroundImageFix" result="shape"/>
<feColorMatrix in="SourceAlpha" type="matrix" values="0 0 0 0 0 0 0 0 0 0 0 0 0 0 0 0 0 0 127 0" result="hardAlpha"/>
<feOffset/>
<feGaussianBlur stdDeviation="1"/>
<feComposite in2="hardAlpha" operator="arithmetic" k2="-1" k3="1"/>
<feColorMatrix type="matrix" values="0 0 0 0 0.942 0 0 0 0 0.94 0 0 0 0 1 0 0 0 0.1 0"/>
<feBlend mode="hard-light" in2="shape" result="effect1_innerShadow_1590_100"/>
</filter>
</defs>
</svg>
