<svg width="10" height="10" viewBox="0 0 10 10" fill="none" xmlns="http://www.w3.org/2000/svg">
<g filter="url(#filter0_i_1568_4072)">
<path d="M5.16016 1.7998C6.51343 1.7998 7.18984 1.80037 7.63867 2.18359C7.70241 2.23803 7.76197 2.29759 7.81641 2.36133C8.19962 2.81016 8.2002 3.48658 8.2002 4.83984V5.16016C8.2002 6.51342 8.19962 7.18984 7.81641 7.63867C7.76197 7.70241 7.70241 7.76197 7.63867 7.81641C7.18984 8.19963 6.51343 8.2002 5.16016 8.2002H4.83984C3.48657 8.2002 2.81016 8.19962 2.36133 7.81641C2.29759 7.76197 2.23803 7.70241 2.18359 7.63867C1.80037 7.18984 1.7998 6.51343 1.7998 5.16016V4.83984C1.7998 3.48657 1.80037 2.81016 2.18359 2.36133C2.23803 2.29759 2.29759 2.23803 2.36133 2.18359C2.81016 1.80038 3.48657 1.7998 4.83984 1.7998H5.16016ZM5.93262 2.93555C5.31637 2.87037 4.81882 3.01699 4.44238 3.31836C4.07852 3.60989 3.87372 4.00949 3.75684 4.37207C3.63939 4.73667 3.59866 5.10022 3.58594 5.36426C3.57953 5.49771 3.57983 5.61105 3.58203 5.69141C3.58313 5.73125 3.58461 5.76397 3.58594 5.78711C3.5866 5.79854 3.58741 5.8086 3.58789 5.81543C3.59429 6.16903 3.72727 6.50377 3.99902 6.74707C4.27291 6.99206 4.64214 7.10445 5.04297 7.10449C5.4436 7.10438 5.81214 6.99191 6.08594 6.74707C6.36442 6.49776 6.49791 6.15235 6.49805 5.78906C6.49801 5.42566 6.36448 5.08046 6.08594 4.83105C5.8121 4.586 5.44377 4.47374 5.04297 4.47363C4.90386 4.47365 4.79774 4.33151 4.88184 4.2207C4.92835 4.15948 4.97971 4.10581 5.03613 4.06055C5.19183 3.93587 5.43141 3.83838 5.83301 3.88086C6.0935 3.90817 6.32758 3.71843 6.35547 3.45801C6.38292 3.19729 6.19333 2.96323 5.93262 2.93555ZM5.04297 5.42383C5.27164 5.42393 5.39357 5.48667 5.45215 5.53906C5.50584 5.58721 5.54782 5.66268 5.54785 5.78906C5.54773 5.91528 5.50585 5.99097 5.45215 6.03906C5.39346 6.0914 5.27126 6.15419 5.04297 6.1543C4.81428 6.15425 4.69148 6.09145 4.63281 6.03906C4.57912 5.99097 4.53723 5.91527 4.53711 5.78906C4.53714 5.66279 4.57918 5.58722 4.63281 5.53906C4.69141 5.48664 4.81404 5.42387 5.04297 5.42383Z" fill="white"/>
</g>
<defs>
<filter id="filter0_i_1568_4072" x="0" y="0" width="10" height="10" filterUnits="userSpaceOnUse" color-interpolation-filters="sRGB">
<feFlood flood-opacity="0" result="BackgroundImageFix"/>
<feBlend mode="normal" in="SourceGraphic" in2="BackgroundImageFix" result="shape"/>
<feColorMatrix in="SourceAlpha" type="matrix" values="0 0 0 0 0 0 0 0 0 0 0 0 0 0 0 0 0 0 127 0" result="hardAlpha"/>
<feOffset/>
<feGaussianBlur stdDeviation="1"/>
<feComposite in2="hardAlpha" operator="arithmetic" k2="-1" k3="1"/>
<feColorMatrix type="matrix" values="0 0 0 0 0.942 0 0 0 0 0.94 0 0 0 0 1 0 0 0 0.1 0"/>
<feBlend mode="hard-light" in2="shape" result="effect1_innerShadow_1568_4072"/>
</filter>
</defs>
</svg>
