<svg width="10" height="10" viewBox="0 0 10 10" fill="none" xmlns="http://www.w3.org/2000/svg">
<g filter="url(#filter0_i_1699_207)">
<path d="M5.80029 6.23539C5.80029 6.53147 5.80029 6.67951 5.71643 6.7777C5.70453 6.79164 5.69154 6.80462 5.6776 6.81653C5.57941 6.90039 5.43137 6.90039 5.13529 6.90039H4.86471C4.56863 6.90039 4.42059 6.90039 4.3224 6.81653C4.30846 6.80462 4.29547 6.79164 4.28357 6.7777C4.19971 6.67951 4.19971 6.53147 4.19971 6.23539V5.9648C4.19971 5.66872 4.19971 5.52068 4.28357 5.4225C4.29547 5.40856 4.30846 5.39557 4.3224 5.38366C4.42059 5.2998 4.56863 5.2998 4.86471 5.2998H5.13529C5.43137 5.2998 5.57941 5.2998 5.6776 5.38366C5.69154 5.39557 5.70453 5.40856 5.71643 5.4225C5.80029 5.52068 5.80029 5.66872 5.80029 5.9648V6.23539ZM3.6001 4.0352C3.6001 4.33128 3.6001 4.47932 3.51624 4.5775C3.50433 4.59144 3.49135 4.60443 3.4774 4.61634C3.37922 4.7002 3.23118 4.7002 2.9351 4.7002H2.66451C2.36843 4.7002 2.22039 4.7002 2.1222 4.61634C2.10826 4.60443 2.09528 4.59144 2.08337 4.5775C1.99951 4.47932 1.99951 4.33128 1.99951 4.0352V3.76559C1.99951 3.4695 1.99951 3.32146 2.08337 3.22328C2.09528 3.20934 2.10826 3.19635 2.1222 3.18444C2.22039 3.10059 2.36843 3.10059 2.66451 3.10059H2.9351C3.23118 3.10059 3.37922 3.10059 3.4774 3.18444C3.49135 3.19635 3.50433 3.20934 3.51624 3.22328C3.6001 3.32146 3.6001 3.4695 3.6001 3.76559V4.0352ZM5.80029 4.0352C5.80029 4.33128 5.80029 4.47932 5.71643 4.5775C5.70453 4.59144 5.69154 4.60443 5.6776 4.61634C5.57941 4.7002 5.43137 4.7002 5.13529 4.7002H4.86471C4.56863 4.7002 4.42059 4.7002 4.3224 4.61634C4.30846 4.60443 4.29547 4.59144 4.28357 4.5775C4.19971 4.47932 4.19971 4.33128 4.19971 4.0352V3.76559C4.19971 3.4695 4.19971 3.32146 4.28357 3.22328C4.29547 3.20934 4.30846 3.19635 4.3224 3.18444C4.42059 3.10059 4.56863 3.10059 4.86471 3.10059H5.13529C5.43137 3.10059 5.57941 3.10059 5.6776 3.18444C5.69154 3.19635 5.70453 3.20934 5.71643 3.22328C5.80029 3.32146 5.80029 3.4695 5.80029 3.76559V4.0352ZM8.00049 4.0352C8.00049 4.33128 8.00049 4.47932 7.91663 4.5775C7.90472 4.59144 7.89174 4.60443 7.8778 4.61634C7.77961 4.7002 7.63157 4.7002 7.33549 4.7002H7.0649C6.76882 4.7002 6.62078 4.7002 6.5226 4.61634C6.50865 4.60443 6.49567 4.59144 6.48376 4.5775C6.3999 4.47932 6.3999 4.33128 6.3999 4.0352V3.76461C6.3999 3.46853 6.3999 3.32049 6.48376 3.2223C6.49567 3.20836 6.50865 3.19538 6.5226 3.18347C6.62078 3.09961 6.76882 3.09961 7.0649 3.09961H7.33549C7.63157 3.09961 7.77961 3.09961 7.8778 3.18347C7.89174 3.19538 7.90472 3.20836 7.91663 3.2223C8.00049 3.32049 8.00049 3.46853 8.00049 3.76461V4.0352Z" fill="white"/>
</g>
<defs>
<filter id="filter0_i_1699_207" x="0" y="0" width="10" height="10" filterUnits="userSpaceOnUse" color-interpolation-filters="sRGB">
<feFlood flood-opacity="0" result="BackgroundImageFix"/>
<feBlend mode="normal" in="SourceGraphic" in2="BackgroundImageFix" result="shape"/>
<feColorMatrix in="SourceAlpha" type="matrix" values="0 0 0 0 0 0 0 0 0 0 0 0 0 0 0 0 0 0 127 0" result="hardAlpha"/>
<feOffset/>
<feGaussianBlur stdDeviation="1"/>
<feComposite in2="hardAlpha" operator="arithmetic" k2="-1" k3="1"/>
<feColorMatrix type="matrix" values="0 0 0 0 0.942 0 0 0 0 0.94 0 0 0 0 1 0 0 0 0.1 0"/>
<feBlend mode="hard-light" in2="shape" result="effect1_innerShadow_1699_207"/>
</filter>
</defs>
</svg>
