<svg width="10" height="10" viewBox="0 0 10 10" fill="none" xmlns="http://www.w3.org/2000/svg">
<g filter="url(#filter0_i_1731_331)">
<path d="M4.74596 2.12517C4.91262 2.08137 5.08809 2.08135 5.25475 2.12517C5.48743 2.18655 5.69141 2.36836 6.0985 2.73259C6.13776 2.7677 6.20006 2.73983 6.20006 2.68716V2.59978C6.20018 2.32374 6.42399 2.09978 6.70006 2.09978C6.97609 2.09983 7.19994 2.32377 7.20006 2.59978V3.3786C7.20006 3.53676 7.20006 3.61584 7.22829 3.68695C7.23242 3.69736 7.23699 3.70759 7.24198 3.71761C7.27608 3.7861 7.33496 3.83889 7.45273 3.94447L7.82311 4.27654C8.20407 4.6175 8.00711 5.24847 7.49987 5.31169C7.32152 5.33381 7.1873 5.48453 7.18639 5.66423L7.17858 7.12615C7.17756 7.33679 7.17787 7.44286 7.15123 7.52849C7.09231 7.71778 6.94331 7.86591 6.75377 7.924C6.66801 7.95022 6.56207 7.95036 6.35143 7.95036C6.21071 7.95036 6.14014 7.95028 6.08287 7.93279C5.956 7.89387 5.85617 7.79404 5.81725 7.66716C5.79974 7.60989 5.79967 7.53933 5.79967 7.39861V6.64958C5.79944 6.20795 5.44155 5.84978 4.99987 5.84978C4.55824 5.84985 4.20029 6.20799 4.20006 6.64958V7.38982C4.20006 7.53872 4.20011 7.61374 4.18053 7.674C4.1409 7.79562 4.04536 7.8913 3.92369 7.93083C3.86345 7.9504 3.78839 7.95036 3.63951 7.95036C3.41668 7.95036 3.30498 7.95034 3.21471 7.92107C3.03205 7.86172 2.88832 7.71799 2.82897 7.53533C2.79966 7.44498 2.79967 7.33274 2.79967 7.10954V5.68962C2.79945 5.50918 2.66685 5.35643 2.48815 5.33122C1.97915 5.25965 1.78673 4.62513 2.16979 4.2824L3.90123 2.73259C4.30872 2.368 4.51303 2.18642 4.74596 2.12517Z" fill="white"/>
</g>
<defs>
<filter id="filter0_i_1731_331" x="0" y="0" width="10" height="10" filterUnits="userSpaceOnUse" color-interpolation-filters="sRGB">
<feFlood flood-opacity="0" result="BackgroundImageFix"/>
<feBlend mode="normal" in="SourceGraphic" in2="BackgroundImageFix" result="shape"/>
<feColorMatrix in="SourceAlpha" type="matrix" values="0 0 0 0 0 0 0 0 0 0 0 0 0 0 0 0 0 0 127 0" result="hardAlpha"/>
<feOffset/>
<feGaussianBlur stdDeviation="1"/>
<feComposite in2="hardAlpha" operator="arithmetic" k2="-1" k3="1"/>
<feColorMatrix type="matrix" values="0 0 0 0 0.942 0 0 0 0 0.94 0 0 0 0 1 0 0 0 0.1 0"/>
<feBlend mode="hard-light" in2="shape" result="effect1_innerShadow_1731_331"/>
</filter>
</defs>
</svg>
