<svg width="10" height="10" viewBox="0 0 10 10" fill="none" xmlns="http://www.w3.org/2000/svg">
<g filter="url(#filter0_i_1565_147)">
<path d="M5.16016 1.7998C6.51343 1.7998 7.18984 1.80037 7.63867 2.18359C7.70241 2.23803 7.76197 2.29759 7.81641 2.36133C8.19962 2.81016 8.2002 3.48658 8.2002 4.83984V5.16016C8.2002 6.51342 8.19962 7.18984 7.81641 7.63867C7.76197 7.70241 7.70241 7.76197 7.63867 7.81641C7.18984 8.19963 6.51343 8.2002 5.16016 8.2002H4.83984C3.48657 8.2002 2.81016 8.19962 2.36133 7.81641C2.29759 7.76197 2.23803 7.70241 2.18359 7.63867C1.80037 7.18984 1.7998 6.51343 1.7998 5.16016V4.83984C1.7998 3.48657 1.80037 2.81016 2.18359 2.36133C2.23803 2.29759 2.29759 2.23803 2.36133 2.18359C2.81016 1.80038 3.48657 1.7998 4.83984 1.7998H5.16016ZM3.4502 6.2002C3.09133 6.2002 2.80001 6.4908 2.7998 6.84961C2.7998 7.20859 3.09121 7.5 3.4502 7.5C3.80905 7.49985 4.09961 7.2085 4.09961 6.84961C4.09941 6.49089 3.80893 6.20034 3.4502 6.2002ZM6.65039 6.2002C6.29153 6.2002 6.0002 6.4908 6 6.84961C6 7.20859 6.29141 7.5 6.65039 7.5C7.00923 7.49983 7.2998 7.20849 7.2998 6.84961C7.2996 6.4909 7.0091 6.20037 6.65039 6.2002ZM3.4502 4.40039C3.09128 4.40039 2.79992 4.69091 2.7998 5.0498C2.7998 5.40879 3.09121 5.7002 3.4502 5.7002C3.80908 5.70008 4.09961 5.40872 4.09961 5.0498C4.0995 4.69098 3.80901 4.40051 3.4502 4.40039ZM6.65039 4.40039C6.29147 4.40039 6.00011 4.69091 6 5.0498C6 5.40879 6.29141 5.7002 6.65039 5.7002C7.00925 5.70005 7.2998 5.4087 7.2998 5.0498C7.29969 4.691 7.00919 4.40053 6.65039 4.40039ZM3.4502 2.59961C3.09121 2.59961 2.79981 2.89102 2.7998 3.25C2.7998 3.60899 3.09121 3.90039 3.4502 3.90039C3.80905 3.90024 4.09961 3.60889 4.09961 3.25C4.09961 2.89111 3.80905 2.59976 3.4502 2.59961ZM6.65039 2.59961C6.29141 2.59961 6 2.89102 6 3.25C6 3.60899 6.29141 3.90039 6.65039 3.90039C7.00923 3.90022 7.2998 3.60888 7.2998 3.25C7.2998 2.89113 7.00922 2.59978 6.65039 2.59961Z" fill="white"/>
</g>
<defs>
<filter id="filter0_i_1565_147" x="0" y="0" width="10" height="10" filterUnits="userSpaceOnUse" color-interpolation-filters="sRGB">
<feFlood flood-opacity="0" result="BackgroundImageFix"/>
<feBlend mode="normal" in="SourceGraphic" in2="BackgroundImageFix" result="shape"/>
<feColorMatrix in="SourceAlpha" type="matrix" values="0 0 0 0 0 0 0 0 0 0 0 0 0 0 0 0 0 0 127 0" result="hardAlpha"/>
<feOffset/>
<feGaussianBlur stdDeviation="1"/>
<feComposite in2="hardAlpha" operator="arithmetic" k2="-1" k3="1"/>
<feColorMatrix type="matrix" values="0 0 0 0 0.942 0 0 0 0 0.94 0 0 0 0 1 0 0 0 0.1 0"/>
<feBlend mode="hard-light" in2="shape" result="effect1_innerShadow_1565_147"/>
</filter>
</defs>
</svg>
