<svg width="10" height="10" viewBox="0 0 10 10" fill="none" xmlns="http://www.w3.org/2000/svg">
<g filter="url(#filter0_i_1568_3990)">
<path d="M5.16016 1.7998C6.51343 1.7998 7.18984 1.80037 7.63867 2.18359C7.70241 2.23803 7.76197 2.29759 7.81641 2.36133C8.19962 2.81016 8.2002 3.48658 8.2002 4.83984V5.16016C8.2002 6.51342 8.19962 7.18984 7.81641 7.63867C7.76197 7.70241 7.70241 7.76197 7.63867 7.81641C7.18984 8.19963 6.51343 8.2002 5.16016 8.2002H4.83984C3.48657 8.2002 2.81016 8.19962 2.36133 7.81641C2.29759 7.76197 2.23803 7.70241 2.18359 7.63867C1.80037 7.18984 1.7998 6.51343 1.7998 5.16016V4.83984C1.7998 3.48657 1.80037 2.81016 2.18359 2.36133C2.23803 2.29759 2.29759 2.23803 2.36133 2.18359C2.81016 1.80038 3.48657 1.7998 4.83984 1.7998H5.16016ZM5.08887 2.91504C4.8762 2.87403 4.70165 2.96496 4.62305 3.01172C4.52692 3.069 4.41955 3.15587 4.32812 3.22852C4.14278 3.37579 3.93637 3.5426 3.77539 3.68066C3.57672 3.85139 3.5543 4.15157 3.72461 4.35059C3.89549 4.54913 4.19561 4.57197 4.39453 4.40137C4.47942 4.32877 4.60986 4.39423 4.60547 4.50586L4.55371 5.77441C4.55012 5.86362 4.54919 5.90866 4.53809 5.94531C4.50777 6.04523 4.42721 6.12212 4.32617 6.14844C4.28915 6.15805 4.24431 6.1582 4.15527 6.1582C3.8933 6.15837 3.68004 6.37088 3.67969 6.63281C3.67977 6.89498 3.89313 7.10823 4.15527 7.1084H5.83496C6.09708 7.1082 6.31047 6.89496 6.31055 6.63281C6.31019 6.3709 6.09691 6.1584 5.83496 6.1582C5.80513 6.1582 5.7898 6.15826 5.77734 6.15723C5.62685 6.14465 5.5095 6.02195 5.50293 5.87109C5.50239 5.85859 5.5027 5.84334 5.50391 5.81348L5.58301 3.86914C5.5878 3.75176 5.59429 3.61347 5.58398 3.50195C5.57436 3.39867 5.53869 3.1573 5.31152 3.00684C5.29159 2.99367 5.27034 2.98058 5.24902 2.96973L5.18262 2.94141L5.08887 2.91504Z" fill="white"/>
</g>
<defs>
<filter id="filter0_i_1568_3990" x="0" y="0" width="10" height="10" filterUnits="userSpaceOnUse" color-interpolation-filters="sRGB">
<feFlood flood-opacity="0" result="BackgroundImageFix"/>
<feBlend mode="normal" in="SourceGraphic" in2="BackgroundImageFix" result="shape"/>
<feColorMatrix in="SourceAlpha" type="matrix" values="0 0 0 0 0 0 0 0 0 0 0 0 0 0 0 0 0 0 127 0" result="hardAlpha"/>
<feOffset/>
<feGaussianBlur stdDeviation="1"/>
<feComposite in2="hardAlpha" operator="arithmetic" k2="-1" k3="1"/>
<feColorMatrix type="matrix" values="0 0 0 0 0.942 0 0 0 0 0.94 0 0 0 0 1 0 0 0 0.1 0"/>
<feBlend mode="hard-light" in2="shape" result="effect1_innerShadow_1568_3990"/>
</filter>
</defs>
</svg>
