<svg width="10" height="10" viewBox="0 0 10 10" fill="none" xmlns="http://www.w3.org/2000/svg">
<g filter="url(#filter0_i_1590_103)">
<path d="M7.70006 4.18376V4.15399C7.70006 3.59566 7.70006 3.3165 7.54193 3.13135C7.51947 3.10506 7.49498 3.08058 7.46869 3.05812C7.28354 2.89999 7.00438 2.89999 6.44606 2.89999H6.41628C6.20587 2.89999 6.10066 2.89999 6.03733 2.85732C6.02589 2.84961 6.02162 2.84631 6.0113 2.83716C5.95412 2.78654 5.91977 2.65377 5.85107 2.38822L5.85107 2.38822C5.76665 2.0619 5.54923 1.69999 5.00005 1.69999C4.45088 1.69999 4.23345 2.0619 4.14903 2.38822C4.08033 2.65377 4.04598 2.78654 3.98881 2.83716C3.97848 2.84631 3.97421 2.84961 3.96278 2.85732C3.89945 2.89999 3.79424 2.89999 3.58382 2.89999H3.55405C2.99573 2.89999 2.71656 2.89999 2.53142 3.05812C2.50512 3.08058 2.48064 3.10506 2.45818 3.13135C2.30005 3.3165 2.30005 3.59566 2.30005 4.15399V4.69999C2.30005 4.69999 2.30006 4.59999 2.30005 5.59999C2.30004 6.59999 2.30005 6.49999 2.30005 6.49999V7.04599C2.30005 7.60431 2.30005 7.88348 2.45818 8.06863C2.48064 8.09492 2.50512 8.1194 2.53142 8.14186C2.71656 8.29999 2.99573 8.29999 3.55405 8.29999H3.58382C3.79424 8.29999 3.89945 8.29999 3.96278 8.25732C3.97421 8.24961 3.97848 8.24631 3.98881 8.23716C4.04598 8.18654 4.08033 8.05377 4.14903 7.78822C4.23345 7.4619 4.45088 7.09999 5.00005 7.09999C5.54923 7.09999 5.76665 7.4619 5.85107 7.78822C5.91977 8.05377 5.95412 8.18654 6.0113 8.23716C6.02162 8.24631 6.02589 8.24961 6.03733 8.25732C6.10066 8.29999 6.20587 8.29999 6.41628 8.29999H6.44606C7.00438 8.29999 7.28354 8.29999 7.46869 8.14186C7.49498 8.1194 7.51947 8.09492 7.54193 8.06863C7.70006 7.88348 7.70006 7.60431 7.70006 7.04599V7.01622C7.70006 6.8058 7.70006 6.7006 7.65738 6.63726C7.64968 6.62583 7.64637 6.62156 7.63723 6.61124C7.58661 6.55406 7.45384 6.51971 7.1883 6.45101L7.18829 6.45101C6.86197 6.36659 6.50006 6.14917 6.50006 5.59999C6.50006 5.05081 6.86197 4.83339 7.18829 4.74897L7.18829 4.74897C7.45384 4.68027 7.58661 4.64592 7.63723 4.58874C7.64637 4.57842 7.64968 4.57415 7.65738 4.56271C7.70006 4.49938 7.70006 4.39417 7.70006 4.18376Z" fill="white"/>
</g>
<defs>
<filter id="filter0_i_1590_103" x="0" y="0" width="10" height="10" filterUnits="userSpaceOnUse" color-interpolation-filters="sRGB">
<feFlood flood-opacity="0" result="BackgroundImageFix"/>
<feBlend mode="normal" in="SourceGraphic" in2="BackgroundImageFix" result="shape"/>
<feColorMatrix in="SourceAlpha" type="matrix" values="0 0 0 0 0 0 0 0 0 0 0 0 0 0 0 0 0 0 127 0" result="hardAlpha"/>
<feOffset/>
<feGaussianBlur stdDeviation="1"/>
<feComposite in2="hardAlpha" operator="arithmetic" k2="-1" k3="1"/>
<feColorMatrix type="matrix" values="0 0 0 0 0.942 0 0 0 0 0.94 0 0 0 0 1 0 0 0 0.1 0"/>
<feBlend mode="hard-light" in2="shape" result="effect1_innerShadow_1590_103"/>
</filter>
</defs>
</svg>
