<svg width="10" height="10" viewBox="0 0 10 10" fill="none" xmlns="http://www.w3.org/2000/svg">
<g filter="url(#filter0_i_1731_236)">
<path d="M5.04883 1.78404C5.27225 1.79498 5.47914 1.90481 5.89258 2.12486L7.76855 3.12389C7.78126 3.13065 7.7881 3.13428 7.79395 3.13756C7.97874 3.24146 8.09487 3.43535 8.09961 3.64732V3.71959C8.08929 4.03561 7.83556 4.28937 7.51953 4.29967C7.37067 4.29967 7.25 4.42034 7.25 4.5692V6.65025C7.25 6.69633 7.25 6.71937 7.25253 6.73872C7.27014 6.87358 7.37628 6.97972 7.51115 6.99734C7.53049 6.99986 7.55353 6.99986 7.59961 6.99986C7.93098 6.99986 8.2002 7.26908 8.2002 7.60045C8.19995 7.93161 7.93083 8.20006 7.59961 8.20006H2.40039C2.06917 8.20006 1.80005 7.93161 1.7998 7.60045C1.7998 7.26908 2.06902 6.99986 2.40039 6.99986C2.44647 6.99986 2.46951 6.99986 2.48885 6.99734C2.62372 6.97972 2.72986 6.87358 2.74747 6.73872C2.75 6.71937 2.75 6.69633 2.75 6.65025V4.5692C2.75 4.42034 2.62933 4.29967 2.48047 4.29967C2.16444 4.28938 1.91071 4.03561 1.90039 3.71959V3.64732C1.90513 3.43535 2.02126 3.24146 2.20605 3.13756C2.2119 3.13428 2.21874 3.13065 2.23145 3.12389L4.10742 2.12486C4.52083 1.90482 4.72775 1.79498 4.95117 1.78404C4.98371 1.78245 5.01629 1.78245 5.04883 1.78404ZM5.4502 6.55016C5.4502 6.68966 5.4502 6.75942 5.47294 6.81446C5.5034 6.88813 5.56192 6.94666 5.6356 6.97711C5.69064 6.99986 5.76039 6.99986 5.8999 6.99986C6.03941 6.99986 6.10916 6.99986 6.1642 6.97711C6.23788 6.94666 6.29641 6.88813 6.32686 6.81446C6.34961 6.75942 6.34961 6.68966 6.34961 6.55016V4.74937C6.34961 4.60987 6.34961 4.54011 6.32686 4.48507C6.29641 4.4114 6.23788 4.35287 6.1642 4.32242C6.10916 4.29967 6.03941 4.29967 5.8999 4.29967C5.76039 4.29967 5.69064 4.29967 5.6356 4.32242C5.56192 4.35287 5.5034 4.4114 5.47294 4.48507C5.4502 4.54011 5.4502 4.60987 5.4502 4.74937V6.55016ZM3.65039 6.55016C3.65039 6.68966 3.65039 6.75942 3.67314 6.81446C3.70359 6.88813 3.76212 6.94666 3.8358 6.97711C3.89084 6.99986 3.96059 6.99986 4.1001 6.99986C4.23961 6.99986 4.30936 6.99986 4.3644 6.97711C4.43808 6.94666 4.4966 6.88813 4.52706 6.81446C4.5498 6.75942 4.5498 6.68966 4.5498 6.55016V4.74937C4.5498 4.60987 4.5498 4.54011 4.52706 4.48507C4.4966 4.4114 4.43808 4.35287 4.3644 4.32242C4.30936 4.29967 4.23961 4.29967 4.1001 4.29967C3.96059 4.29967 3.89084 4.29967 3.8358 4.32242C3.76212 4.35287 3.70359 4.4114 3.67314 4.48507C3.65039 4.54011 3.65039 4.60987 3.65039 4.74937V6.55016Z" fill="white"/>
</g>
<defs>
<filter id="filter0_i_1731_236" x="0" y="0" width="10" height="10" filterUnits="userSpaceOnUse" color-interpolation-filters="sRGB">
<feFlood flood-opacity="0" result="BackgroundImageFix"/>
<feBlend mode="normal" in="SourceGraphic" in2="BackgroundImageFix" result="shape"/>
<feColorMatrix in="SourceAlpha" type="matrix" values="0 0 0 0 0 0 0 0 0 0 0 0 0 0 0 0 0 0 127 0" result="hardAlpha"/>
<feOffset/>
<feGaussianBlur stdDeviation="1"/>
<feComposite in2="hardAlpha" operator="arithmetic" k2="-1" k3="1"/>
<feColorMatrix type="matrix" values="0 0 0 0 0.942 0 0 0 0 0.94 0 0 0 0 1 0 0 0 0.1 0"/>
<feBlend mode="hard-light" in2="shape" result="effect1_innerShadow_1731_236"/>
</filter>
</defs>
</svg>
