<svg width="10" height="10" viewBox="0 0 10 10" fill="none" xmlns="http://www.w3.org/2000/svg">
<g filter="url(#filter0_i_1213_349)">
<path d="M4.64941 2.34514C4.64941 1.45931 5.60978 0.906937 6.375 1.35295C6.54187 1.45035 6.59826 1.66454 6.50098 1.83147C6.40356 1.99831 6.18938 2.05476 6.02246 1.95744C5.72389 1.78358 5.34863 1.99954 5.34863 2.34514C5.34863 2.51665 5.48767 2.65569 5.65918 2.65569H5.78971C5.83307 2.65569 5.85474 2.65569 5.87229 2.65723C6.08722 2.6762 6.24838 2.86221 6.23653 3.07766C6.23556 3.09524 6.23247 3.1167 6.22629 3.15961L6.2069 3.29432C6.1912 3.40343 6.18335 3.45798 6.18639 3.50082C6.1935 3.60088 6.2184 3.66058 6.2845 3.73603C6.31279 3.76834 6.37067 3.81121 6.48644 3.89695C7.1009 4.35209 7.49993 5.08135 7.5 5.90471C7.5 7.28526 6.38049 8.40445 5 8.40471C3.61929 8.40471 2.49902 7.28542 2.49902 5.90471C2.49909 5.08188 2.8973 4.35245 3.511 3.89708C3.62691 3.81108 3.68486 3.76808 3.71318 3.73567C3.77892 3.66042 3.80368 3.60106 3.8109 3.50141C3.81401 3.45848 3.8062 3.40382 3.79057 3.29451L3.77125 3.15945C3.76509 3.11634 3.76201 3.09479 3.76106 3.07712C3.74951 2.86193 3.91051 2.67628 4.12516 2.65725C4.14279 2.65569 4.16456 2.65569 4.20811 2.65569H4.33887C4.51038 2.65569 4.64941 2.51665 4.64941 2.34514Z" fill="white"/>
</g>
<defs>
<filter id="filter0_i_1213_349" x="0" y="0" width="10" height="10" filterUnits="userSpaceOnUse" color-interpolation-filters="sRGB">
<feFlood flood-opacity="0" result="BackgroundImageFix"/>
<feBlend mode="normal" in="SourceGraphic" in2="BackgroundImageFix" result="shape"/>
<feColorMatrix in="SourceAlpha" type="matrix" values="0 0 0 0 0 0 0 0 0 0 0 0 0 0 0 0 0 0 127 0" result="hardAlpha"/>
<feOffset/>
<feGaussianBlur stdDeviation="1"/>
<feComposite in2="hardAlpha" operator="arithmetic" k2="-1" k3="1"/>
<feColorMatrix type="matrix" values="0 0 0 0 0.942 0 0 0 0 0.94 0 0 0 0 1 0 0 0 0.1 0"/>
<feBlend mode="hard-light" in2="shape" result="effect1_innerShadow_1213_349"/>
</filter>
</defs>
</svg>
