<svg width="10" height="10" viewBox="0 0 10 10" fill="none" xmlns="http://www.w3.org/2000/svg">
<g filter="url(#filter0_i_1142_1603)">
<path d="M8 5.84961C8.00014 6.5996 7.99951 6.97439 7.80859 7.2373C7.74694 7.32218 7.67275 7.39731 7.58789 7.45898C7.32506 7.64997 6.94996 7.65039 6.2002 7.65039H3.7998C3.05003 7.65039 2.67494 7.64994 2.41211 7.45898C2.32727 7.39732 2.25305 7.32216 2.19141 7.2373C2.00053 6.97445 2 6.59941 2 5.84961C2 5.56946 2 5.42939 2.06707 5.32867C2.09642 5.28461 2.13422 5.24681 2.17828 5.21746C2.279 5.15039 2.41907 5.15039 2.69922 5.15039H4.00098C4.111 5.15039 4.2002 5.23958 4.2002 5.34961C4.2002 5.7914 4.55822 6.15033 5 6.15039C5.44183 6.15039 5.7998 5.79144 5.7998 5.34961C5.7998 5.23958 5.889 5.15039 5.99902 5.15039H7.30078C7.58093 5.15039 7.721 5.15039 7.82172 5.21746C7.86578 5.24681 7.90358 5.28461 7.93293 5.32867C8 5.42939 8 5.56946 8 5.84961ZM5.47949 2.34961C6.529 2.34961 7.0539 2.35006 7.42188 2.61719C7.5406 2.70343 7.64514 2.80807 7.73145 2.92676C7.84685 3.08556 7.91244 3.27366 7.94973 3.52058C7.99117 3.79486 8.01189 3.93201 7.93838 4.05509C7.91664 4.09149 7.88179 4.13201 7.84905 4.15893C7.73832 4.25 7.58048 4.25 7.26478 4.25H2.7351C2.41944 4.25 2.26161 4.25 2.15092 4.15904C2.11817 4.13212 2.08335 4.09168 2.06159 4.0553C1.98806 3.93234 2.00864 3.79511 2.04982 3.52066C2.08687 3.27372 2.1522 3.08557 2.26758 2.92676C2.35389 2.80803 2.45839 2.70347 2.57715 2.61719C2.94516 2.34987 3.47066 2.34961 4.52051 2.34961H5.47949Z" fill="white"/>
</g>
<defs>
<filter id="filter0_i_1142_1603" x="0" y="0" width="10" height="10" filterUnits="userSpaceOnUse" color-interpolation-filters="sRGB">
<feFlood flood-opacity="0" result="BackgroundImageFix"/>
<feBlend mode="normal" in="SourceGraphic" in2="BackgroundImageFix" result="shape"/>
<feColorMatrix in="SourceAlpha" type="matrix" values="0 0 0 0 0 0 0 0 0 0 0 0 0 0 0 0 0 0 127 0" result="hardAlpha"/>
<feOffset/>
<feGaussianBlur stdDeviation="1"/>
<feComposite in2="hardAlpha" operator="arithmetic" k2="-1" k3="1"/>
<feColorMatrix type="matrix" values="0 0 0 0 0.942 0 0 0 0 0.94 0 0 0 0 1 0 0 0 0.1 0"/>
<feBlend mode="hard-light" in2="shape" result="effect1_innerShadow_1142_1603"/>
</filter>
</defs>
</svg>
