<svg width="10" height="10" viewBox="0 0 10 10" fill="none" xmlns="http://www.w3.org/2000/svg">
<g filter="url(#filter0_i_1688_314)">
<g clip-path="url(#clip0_1688_314)">
<path d="M7.9261 2.05786C8.12131 2.25308 8.12122 2.56969 7.9261 2.76497C7.88587 2.8052 7.86575 2.82531 7.85226 2.84935C7.8445 2.86318 7.83841 2.87788 7.83412 2.89315C7.82666 2.91968 7.82666 2.94813 7.82666 3.00503V5.85069C7.82666 5.8855 7.82666 5.90291 7.82939 5.91924C7.83018 5.92398 7.82976 5.92175 7.83073 5.92646C7.83405 5.94269 7.85623 6.00035 7.90059 6.11569C7.91746 6.15955 7.92677 6.20712 7.92679 6.257V6.69756C7.92679 6.70011 7.92666 6.70265 7.92646 6.70518C7.92643 6.70551 7.9265 6.70468 7.92634 6.70776C7.92623 6.71008 7.92627 6.70919 7.92619 6.71151C7.9261 6.71459 7.9261 6.72894 7.9261 6.75763V6.77835C7.92578 6.78917 7.9251 6.80465 7.92403 6.82185C7.92187 6.85604 7.91753 6.90307 7.90953 6.95789C7.89367 7.06616 7.86137 7.21784 7.79283 7.37428C7.72405 7.53108 7.61263 7.70816 7.43168 7.84592C7.24515 7.98774 7.00765 8.06965 6.72595 8.06965C6.44455 8.0696 6.20802 7.98753 6.02161 7.84592C5.84048 7.7081 5.72787 7.53117 5.65908 7.37428C5.59042 7.21758 5.55889 7.06549 5.54307 6.9572C5.53505 6.90227 5.53071 6.85536 5.52856 6.82116C5.5275 6.80414 5.5275 6.78908 5.52718 6.77835C5.52702 6.77322 5.52585 6.76805 5.5258 6.76454V6.75763C5.5258 6.53672 5.7054 6.35713 5.92631 6.35712C6.14711 6.35718 6.32603 6.53615 6.32613 6.75694L6.32682 6.77144C6.32781 6.78709 6.33002 6.81247 6.33442 6.84257C6.34362 6.90521 6.36194 6.98206 6.39311 7.05318C6.42422 7.12399 6.46284 7.17472 6.50636 7.20786C6.5448 7.23707 6.60792 7.26996 6.72595 7.27001C6.84421 7.27001 6.90846 7.23711 6.94692 7.20786C6.9903 7.17465 7.02915 7.12389 7.06017 7.05318C7.09133 6.98209 7.10829 6.9052 7.11748 6.84257C7.12188 6.81249 7.12409 6.78709 7.12508 6.77144L7.12646 6.75625C7.12652 6.73045 7.12655 6.71755 7.1265 6.71521C7.12648 6.71386 7.12651 6.71509 7.12647 6.71374C7.1264 6.7114 7.12622 6.70796 7.12587 6.70107C7.1258 6.6999 7.12577 6.69873 7.12577 6.69756L7.12646 6.25769C7.12646 6.20762 7.13594 6.1598 7.15304 6.11571C7.19753 6.00098 7.21978 5.94361 7.22315 5.92727C7.22412 5.92256 7.22372 5.92474 7.22451 5.92C7.22728 5.90354 7.22728 5.88587 7.22728 5.85052L7.22728 4.38119C7.22728 4.01333 7.22728 3.82941 7.125 3.77213C7.11128 3.76445 7.0967 3.75841 7.08157 3.75414C6.96875 3.72232 6.83869 3.85237 6.57858 4.11249L4.28794 6.40312C4.23851 6.45256 4.21379 6.47727 4.19996 6.50275C4.19722 6.50779 4.19662 6.50898 4.19421 6.51419C4.18203 6.5405 4.17424 6.59368 4.15864 6.70006C4.1357 6.85656 4.06512 7.00712 3.94448 7.12776L3.23737 7.83487C2.93666 8.13543 2.44975 8.13552 2.14909 7.83487C1.84843 7.53421 1.84852 7.0473 2.14909 6.74658L2.8562 6.03948C2.97684 5.91883 3.1274 5.84826 3.2839 5.82531C3.39027 5.80972 3.44346 5.80192 3.46977 5.78974C3.47498 5.78734 3.47617 5.78674 3.48121 5.784C3.50669 5.77016 3.5314 5.74545 3.58084 5.69601L7.21899 2.05786C7.41427 1.86273 7.73088 1.86264 7.9261 2.05786Z" fill="white"/>
</g>
</g>
<defs>
<filter id="filter0_i_1688_314" x="0" y="0" width="10" height="10" filterUnits="userSpaceOnUse" color-interpolation-filters="sRGB">
<feFlood flood-opacity="0" result="BackgroundImageFix"/>
<feBlend mode="normal" in="SourceGraphic" in2="BackgroundImageFix" result="shape"/>
<feColorMatrix in="SourceAlpha" type="matrix" values="0 0 0 0 0 0 0 0 0 0 0 0 0 0 0 0 0 0 127 0" result="hardAlpha"/>
<feOffset/>
<feGaussianBlur stdDeviation="1"/>
<feComposite in2="hardAlpha" operator="arithmetic" k2="-1" k3="1"/>
<feColorMatrix type="matrix" values="0 0 0 0 0.942 0 0 0 0 0.94 0 0 0 0 1 0 0 0 0.1 0"/>
<feBlend mode="hard-light" in2="shape" result="effect1_innerShadow_1688_314"/>
</filter>
<clipPath id="clip0_1688_314">
<rect width="10" height="10" rx="2.6" fill="white"/>
</clipPath>
</defs>
</svg>
