<svg width="10" height="10" viewBox="0 0 10 10" fill="none" xmlns="http://www.w3.org/2000/svg">
<g filter="url(#filter0_i_1142_1448)">
<path fill-rule="evenodd" clip-rule="evenodd" d="M5.82039 2.3267C5.89922 2.44494 5.81445 2.60333 5.67234 2.60333C5.56735 2.60333 5.48515 2.69374 5.49254 2.79848C5.54174 3.49515 5.52324 4.25079 5.7929 4.25079C6.25464 4.25046 6.25526 3.71728 6.30462 3.26642V2.35807C6.30462 2.08663 6.6364 1.95475 6.82275 2.15212L7.53812 2.90981C7.71461 3.09674 7.58209 3.40411 7.32501 3.40411C7.15223 3.40411 7.01697 3.55288 7.02424 3.72551C7.02708 3.7931 7.02904 3.86137 7.0302 3.9295C7.03898 4.44372 7.04347 4.70082 6.89641 4.9461C6.87634 4.97957 6.84832 5.01991 6.82415 5.05059C6.64702 5.27532 6.37862 5.37273 5.84173 5.56622C5.7533 5.59809 5.69231 5.68082 5.69231 5.77482V7.95587C5.69231 8.34246 5.37871 8.65606 4.99212 8.65606C4.60558 8.65599 4.29193 8.34242 4.29192 7.95587V5.77482C4.29192 5.68081 4.23094 5.5981 4.14251 5.56622C3.60631 5.37294 3.33813 5.27587 3.16106 5.05157C3.1368 5.0208 3.10895 4.97971 3.0888 4.9461C2.94171 4.7008 2.94526 4.4438 2.95403 3.9295C2.95524 3.85869 2.95746 3.78777 2.96067 3.71763C2.96838 3.54924 2.83662 3.40411 2.66805 3.40411C2.41724 3.40411 2.28794 3.10423 2.46013 2.92186L3.18687 2.15212C3.37322 1.95475 3.70501 2.08663 3.70501 2.35807V3.40411C3.74201 3.81915 3.77672 4.25068 4.19231 4.25079C4.46315 4.25079 4.4433 3.4886 4.49331 2.78944C4.50045 2.68955 4.42206 2.60333 4.32192 2.60333C4.18637 2.60333 4.10552 2.45226 4.18071 2.33948L4.7552 1.47775C4.87394 1.29963 5.13568 1.29963 5.25443 1.47775L5.82039 2.3267Z" fill="white"/>
</g>
<defs>
<filter id="filter0_i_1142_1448" x="0" y="0" width="10" height="10" filterUnits="userSpaceOnUse" color-interpolation-filters="sRGB">
<feFlood flood-opacity="0" result="BackgroundImageFix"/>
<feBlend mode="normal" in="SourceGraphic" in2="BackgroundImageFix" result="shape"/>
<feColorMatrix in="SourceAlpha" type="matrix" values="0 0 0 0 0 0 0 0 0 0 0 0 0 0 0 0 0 0 127 0" result="hardAlpha"/>
<feOffset/>
<feGaussianBlur stdDeviation="1"/>
<feComposite in2="hardAlpha" operator="arithmetic" k2="-1" k3="1"/>
<feColorMatrix type="matrix" values="0 0 0 0 0.942 0 0 0 0 0.94 0 0 0 0 1 0 0 0 0.1 0"/>
<feBlend mode="hard-light" in2="shape" result="effect1_innerShadow_1142_1448"/>
</filter>
</defs>
</svg>
