<svg width="10" height="10" viewBox="0 0 10 10" fill="none" xmlns="http://www.w3.org/2000/svg">
<g filter="url(#filter0_i_1079_405)">
<path d="M5 2C6.10457 2 7 2.89543 7 4V6.21875C7 6.44964 7.13747 6.65893 7.34961 6.75C7.56194 6.841 7.7002 7.05024 7.7002 7.28125V7.33691C7.7002 7.70302 7.40321 8 7.03711 8H2.96289C2.59679 8 2.2998 7.70302 2.2998 7.33691V7.28125C2.2998 7.05024 2.43806 6.841 2.65039 6.75C2.86254 6.65893 3 6.44964 3 6.21875V4C3 2.89543 3.89543 2 5 2ZM5 2.7998C4.7241 2.80002 4.5001 3.02388 4.5 3.2998C4.5 3.39317 4.5 3.43985 4.4897 3.47814C4.46191 3.58142 4.38123 3.6621 4.27794 3.68989C4.23965 3.7002 4.19297 3.7002 4.09961 3.7002C3.82371 3.70041 3.59971 3.92427 3.59961 4.2002C3.59982 4.47603 3.82378 4.69998 4.09961 4.7002C4.19297 4.7002 4.23965 4.7002 4.27794 4.7105C4.38123 4.73829 4.46191 4.81897 4.4897 4.92225C4.5 4.96054 4.5 5.00722 4.5 5.10059V6.09961C4.5 6.37562 4.72404 6.5994 5 6.59961C5.27596 6.5994 5.5 6.37562 5.5 6.09961V5.09961C5.5 5.00716 5.5 4.96093 5.5101 4.92299C5.53777 4.81911 5.61891 4.73796 5.7228 4.7103C5.76074 4.7002 5.80696 4.7002 5.89941 4.7002C6.17543 4.7002 6.3992 4.47616 6.39941 4.2002C6.39931 3.92414 6.17549 3.7002 5.89941 3.7002C5.80696 3.7002 5.76074 3.7002 5.7228 3.69009C5.61891 3.66243 5.53777 3.58128 5.5101 3.4774C5.5 3.43946 5.5 3.39291 5.5 3.2998C5.4999 3.02388 5.2759 2.80002 5 2.7998Z" fill="white"/>
</g>
<defs>
<filter id="filter0_i_1079_405" x="0" y="0" width="10" height="10" filterUnits="userSpaceOnUse" color-interpolation-filters="sRGB">
<feFlood flood-opacity="0" result="BackgroundImageFix"/>
<feBlend mode="normal" in="SourceGraphic" in2="BackgroundImageFix" result="shape"/>
<feColorMatrix in="SourceAlpha" type="matrix" values="0 0 0 0 0 0 0 0 0 0 0 0 0 0 0 0 0 0 127 0" result="hardAlpha"/>
<feOffset/>
<feGaussianBlur stdDeviation="1"/>
<feComposite in2="hardAlpha" operator="arithmetic" k2="-1" k3="1"/>
<feColorMatrix type="matrix" values="0 0 0 0 0.942 0 0 0 0 0.94 0 0 0 0 1 0 0 0 0.1 0"/>
<feBlend mode="hard-light" in2="shape" result="effect1_innerShadow_1079_405"/>
</filter>
</defs>
</svg>
