<svg width="10" height="10" viewBox="0 0 10 10" fill="none" xmlns="http://www.w3.org/2000/svg">
<g filter="url(#filter0_i_1261_70)">
<path d="M6.19599 7.3H3.80406C3.21606 7.3 2.92206 7.3 2.70978 7.14255C2.67939 7.12001 2.65064 7.09534 2.62375 7.06874C2.43585 6.88287 2.39115 6.59228 2.30174 6.01112L2.08664 4.613C2.01065 4.11907 1.97266 3.8721 2.10125 3.76355C2.11863 3.74888 2.13762 3.73624 2.15786 3.72586C2.3076 3.64907 2.52081 3.77937 2.94724 4.03996L3.20638 4.19832C3.42588 4.33246 3.53562 4.39953 3.64592 4.38116C3.66157 4.37856 3.67699 4.37471 3.69203 4.36967C3.79804 4.33412 3.86347 4.22339 3.99434 4.00193L4.5093 3.13046C4.71552 2.78146 4.81864 2.60696 4.96897 2.59131C4.98962 2.58916 5.01043 2.58916 5.03108 2.59131C5.18141 2.60696 5.28453 2.78146 5.49075 3.13046L6.00571 4.00193L6.00571 4.00193C6.13658 4.22339 6.20201 4.33412 6.30802 4.36967C6.32306 4.37471 6.33848 4.37856 6.35413 4.38116C6.46443 4.39953 6.57417 4.33246 6.79367 4.19832L7.05281 4.03996C7.47924 3.77937 7.69245 3.64907 7.84219 3.72586C7.86243 3.73624 7.88142 3.74888 7.8988 3.76355C8.02739 3.8721 7.9894 4.11907 7.91341 4.613L7.69831 6.01112C7.6089 6.59228 7.5642 6.88287 7.3763 7.06874C7.34941 7.09534 7.32065 7.12001 7.29027 7.14255C7.07799 7.3 6.78399 7.3 6.19599 7.3Z" fill="white"/>
</g>
<defs>
<filter id="filter0_i_1261_70" x="0" y="0" width="10" height="10" filterUnits="userSpaceOnUse" color-interpolation-filters="sRGB">
<feFlood flood-opacity="0" result="BackgroundImageFix"/>
<feBlend mode="normal" in="SourceGraphic" in2="BackgroundImageFix" result="shape"/>
<feColorMatrix in="SourceAlpha" type="matrix" values="0 0 0 0 0 0 0 0 0 0 0 0 0 0 0 0 0 0 127 0" result="hardAlpha"/>
<feOffset/>
<feGaussianBlur stdDeviation="1"/>
<feComposite in2="hardAlpha" operator="arithmetic" k2="-1" k3="1"/>
<feColorMatrix type="matrix" values="0 0 0 0 0.942 0 0 0 0 0.94 0 0 0 0 1 0 0 0 0.1 0"/>
<feBlend mode="hard-light" in2="shape" result="effect1_innerShadow_1261_70"/>
</filter>
</defs>
</svg>
