<svg width="10" height="10" viewBox="0 0 10 10" fill="none" xmlns="http://www.w3.org/2000/svg">
<g filter="url(#filter0_i_1205_3693)">
<path d="M3.39941 6.6001C3.39941 6.693 3.39941 6.73946 3.38921 6.77757C3.36148 6.88116 3.28057 6.96207 3.17699 6.9898C3.13887 7 3.09242 7 2.99951 7H2.3999C2.307 7 2.26054 7 2.22243 6.9898C2.11884 6.96207 2.03793 6.88116 2.0102 6.77757C2 6.73946 2 6.693 2 6.6001C2 6.50719 2 6.46074 2.0102 6.42262C2.03793 6.31904 2.11884 6.23813 2.22243 6.2104C2.26054 6.2002 2.307 6.2002 2.3999 6.2002H2.99951C3.09242 6.2002 3.13887 6.2002 3.17699 6.2104C3.28057 6.23813 3.36148 6.31904 3.38921 6.42262C3.39941 6.46074 3.39941 6.50719 3.39941 6.6001ZM5.7002 6.6001C5.7002 6.693 5.7002 6.73946 5.68999 6.77757C5.66227 6.88116 5.58135 6.96207 5.47777 6.9898C5.43965 7 5.3932 7 5.30029 7H4.69971C4.6068 7 4.56035 7 4.52223 6.9898C4.41865 6.96207 4.33773 6.88116 4.31001 6.77757C4.2998 6.73946 4.2998 6.693 4.2998 6.6001C4.2998 6.50719 4.2998 6.46074 4.31001 6.42262C4.33773 6.31904 4.41865 6.23813 4.52223 6.2104C4.56035 6.2002 4.6068 6.2002 4.69971 6.2002H5.30029C5.3932 6.2002 5.43965 6.2002 5.47777 6.2104C5.58135 6.23813 5.66227 6.31904 5.68999 6.42262C5.7002 6.46074 5.7002 6.50719 5.7002 6.6001ZM8 6.6001C8 6.693 8 6.73946 7.9898 6.77757C7.96207 6.88116 7.88116 6.96207 7.77757 6.9898C7.73946 7 7.693 7 7.6001 7H6.99951C6.90661 7 6.86015 7 6.82204 6.9898C6.71845 6.96207 6.63754 6.88116 6.60981 6.77757C6.59961 6.73946 6.59961 6.693 6.59961 6.6001C6.59961 6.50719 6.59961 6.46074 6.60981 6.42262C6.63754 6.31904 6.71845 6.23813 6.82204 6.2104C6.86015 6.2002 6.90661 6.2002 6.99951 6.2002H7.6001C7.693 6.2002 7.73946 6.2002 7.77757 6.2104C7.88116 6.23813 7.96207 6.31904 7.9898 6.42262C8 6.46074 8 6.50719 8 6.6001ZM2.7002 3C3.34914 3.00043 3.39869 4.28033 3.39941 4.2998V4.93C3.39941 5.18378 3.39941 5.31068 3.32754 5.39483C3.31733 5.40679 3.3062 5.41792 3.29425 5.42812C3.21009 5.5 3.0832 5.5 2.82941 5.5H2.57C2.31622 5.5 2.18932 5.5 2.10517 5.42812C2.09322 5.41792 2.08208 5.40679 2.07188 5.39483C2 5.31068 2 5.18378 2 4.93V4.2998C2.0007 4.28085 2.05081 3 2.7002 3ZM5 3C5.64944 3.00022 5.69952 4.28168 5.7002 4.2998V4.93C5.7002 5.18378 5.7002 5.31068 5.62832 5.39483C5.61811 5.40679 5.60698 5.41792 5.59503 5.42812C5.51087 5.5 5.38398 5.5 5.1302 5.5H4.8698C4.61602 5.5 4.48913 5.5 4.40497 5.42812C4.39302 5.41792 4.38189 5.40679 4.37168 5.39483C4.2998 5.31068 4.2998 5.18378 4.2998 4.93V4.2998C4.3005 4.28112 4.35054 3 5 3ZM7.2998 3C7.94933 3.00001 7.99932 4.28141 8 4.2998V4.93C8 5.18378 8 5.31068 7.92812 5.39483C7.91791 5.40679 7.90679 5.41792 7.89483 5.42812C7.81068 5.5 7.68378 5.5 7.43 5.5H7.16961C6.91583 5.5 6.78893 5.5 6.70477 5.42812C6.69282 5.41792 6.68169 5.40679 6.67149 5.39483C6.59961 5.31068 6.59961 5.18378 6.59961 4.93V4.2998C6.60029 4.28138 6.65028 3 7.2998 3Z" fill="white"/>
</g>
<defs>
<filter id="filter0_i_1205_3693" x="0" y="0" width="10" height="10" filterUnits="userSpaceOnUse" color-interpolation-filters="sRGB">
<feFlood flood-opacity="0" result="BackgroundImageFix"/>
<feBlend mode="normal" in="SourceGraphic" in2="BackgroundImageFix" result="shape"/>
<feColorMatrix in="SourceAlpha" type="matrix" values="0 0 0 0 0 0 0 0 0 0 0 0 0 0 0 0 0 0 127 0" result="hardAlpha"/>
<feOffset/>
<feGaussianBlur stdDeviation="1"/>
<feComposite in2="hardAlpha" operator="arithmetic" k2="-1" k3="1"/>
<feColorMatrix type="matrix" values="0 0 0 0 0.942 0 0 0 0 0.94 0 0 0 0 1 0 0 0 0.1 0"/>
<feBlend mode="hard-light" in2="shape" result="effect1_innerShadow_1205_3693"/>
</filter>
</defs>
</svg>
