<svg width="10" height="10" viewBox="0 0 10 10" fill="none" xmlns="http://www.w3.org/2000/svg">
<g filter="url(#filter0_i_1142_1556)">
<path d="M4.35017 4.99793L4.17954 7.04543L4.17954 7.04545C4.17661 7.08065 4.17514 7.09826 4.17341 7.11341C4.11707 7.60699 3.70693 7.98438 3.21037 7.99953C3.19512 8 3.17745 8 3.14211 8C3.12005 8 3.10902 8 3.09359 7.99952C2.60304 7.98437 2.17626 7.58461 2.12909 7.09611C2.12761 7.08074 2.12718 7.07412 2.12631 7.06089C2.07979 6.35037 2.02887 5.29811 2.03134 4.12083C2.03319 3.2355 2.03411 2.79284 2.29583 2.50706C2.3337 2.46571 2.37212 2.43012 2.41624 2.39553C2.72117 2.15641 3.21554 2.19325 4.20426 2.26693C4.47651 2.28722 4.74803 2.3 5 2.3C5.25197 2.3 5.52348 2.28722 5.79574 2.26693C6.78446 2.19325 7.27882 2.15641 7.58376 2.39553C7.62788 2.43012 7.6663 2.46571 7.70416 2.50706C7.96588 2.79284 7.96681 3.2355 7.96866 4.12083C7.97112 5.29811 7.9202 6.35036 7.87368 7.06089L7.87368 7.06091C7.87282 7.07413 7.87238 7.08074 7.8709 7.09611C7.82373 7.58461 7.39695 7.98437 6.90641 7.99952C6.89097 8 6.87994 8 6.85788 8C6.82254 8 6.80487 8 6.78962 7.99953C6.29306 7.98438 5.88292 7.60699 5.82658 7.11341C5.82485 7.09826 5.82339 7.08066 5.82045 7.04548L5.82045 7.04543L5.64982 4.99793C5.62166 4.65996 5.33914 4.4 5 4.4C4.66086 4.4 4.37833 4.65996 4.35017 4.99793Z" fill="white"/>
</g>
<defs>
<filter id="filter0_i_1142_1556" x="0" y="0" width="10" height="10" filterUnits="userSpaceOnUse" color-interpolation-filters="sRGB">
<feFlood flood-opacity="0" result="BackgroundImageFix"/>
<feBlend mode="normal" in="SourceGraphic" in2="BackgroundImageFix" result="shape"/>
<feColorMatrix in="SourceAlpha" type="matrix" values="0 0 0 0 0 0 0 0 0 0 0 0 0 0 0 0 0 0 127 0" result="hardAlpha"/>
<feOffset/>
<feGaussianBlur stdDeviation="1"/>
<feComposite in2="hardAlpha" operator="arithmetic" k2="-1" k3="1"/>
<feColorMatrix type="matrix" values="0 0 0 0 0.942 0 0 0 0 0.94 0 0 0 0 1 0 0 0 0.1 0"/>
<feBlend mode="hard-light" in2="shape" result="effect1_innerShadow_1142_1556"/>
</filter>
</defs>
</svg>
