<svg width="10" height="10" viewBox="0 0 10 10" fill="none" xmlns="http://www.w3.org/2000/svg">
<g filter="url(#filter0_i_1093_20)">
<path d="M5.55273 2.52336C5.83426 2.3826 6.16574 2.3826 6.44727 2.52336L7.44727 3.02336C7.78604 3.19276 8 3.53912 8 3.91789V7.05266C7.99997 7.34999 7.68685 7.54305 7.4209 7.41008L6.44727 6.92375C6.16574 6.78299 5.83426 6.78299 5.55273 6.92375L4.44727 7.47649C4.16577 7.61721 3.83423 7.61721 3.55273 7.47649L2.55273 6.97649C2.214 6.80712 2.00006 6.46067 2 6.08195V2.94719C2 2.64984 2.31315 2.45583 2.5791 2.58879L3.55273 3.0761C3.83426 3.21686 4.16574 3.21686 4.44727 3.0761L5.55273 2.52336ZM6.27344 3.86809C6.09001 3.66177 5.77377 3.64277 5.56738 3.8261L5.31475 4.05051C5.17278 4.17663 5.1018 4.23968 5.01721 4.24581C5.00513 4.24668 4.99299 4.24668 4.98091 4.24579C4.89633 4.2396 4.8254 4.17648 4.68353 4.05024L4.43164 3.8261C4.22524 3.64294 3.90895 3.6618 3.72559 3.86809C3.54272 4.07447 3.56146 4.39085 3.76758 4.57414L3.84774 4.64547C4.02318 4.80158 4.1109 4.87963 4.11935 4.97894C4.12054 4.99295 4.12055 5.00704 4.11937 5.02105C4.11104 5.12037 4.02341 5.19853 3.84814 5.35483L3.76758 5.42668C3.56158 5.61018 3.54228 5.92648 3.72559 6.13274C3.90893 6.33891 4.22527 6.3568 4.43164 6.17375L4.68353 5.94961C4.8254 5.82337 4.89633 5.76025 4.98091 5.75406C4.99299 5.75317 5.00513 5.75317 5.01721 5.75404C5.1018 5.76016 5.17278 5.82322 5.31475 5.94934L5.56738 6.17375C5.7736 6.35705 6.08991 6.33862 6.27344 6.13274C6.4569 5.92634 6.43784 5.61014 6.23145 5.42668L6.15108 5.35515C5.97533 5.19874 5.88746 5.12053 5.8791 5.02107C5.87793 5.00705 5.87793 4.99294 5.87913 4.97892C5.8876 4.87947 5.97556 4.80137 6.15148 4.64515L6.23145 4.57414C6.43779 4.39073 6.45676 4.07448 6.27344 3.86809Z" fill="white"/>
</g>
<defs>
<filter id="filter0_i_1093_20" x="0" y="0" width="10" height="10" filterUnits="userSpaceOnUse" color-interpolation-filters="sRGB">
<feFlood flood-opacity="0" result="BackgroundImageFix"/>
<feBlend mode="normal" in="SourceGraphic" in2="BackgroundImageFix" result="shape"/>
<feColorMatrix in="SourceAlpha" type="matrix" values="0 0 0 0 0 0 0 0 0 0 0 0 0 0 0 0 0 0 127 0" result="hardAlpha"/>
<feOffset/>
<feGaussianBlur stdDeviation="1"/>
<feComposite in2="hardAlpha" operator="arithmetic" k2="-1" k3="1"/>
<feColorMatrix type="matrix" values="0 0 0 0 0.942 0 0 0 0 0.94 0 0 0 0 1 0 0 0 0.1 0"/>
<feBlend mode="hard-light" in2="shape" result="effect1_innerShadow_1093_20"/>
</filter>
</defs>
</svg>
