<svg width="10" height="10" viewBox="0 0 10 10" fill="none" xmlns="http://www.w3.org/2000/svg">
<g filter="url(#filter0_i_1214_635)">
<path d="M6.23706 5.80708C6.21335 5.95612 6.24613 6.10926 6.32983 6.23482L6.67847 6.75728C6.75677 6.87474 6.79171 7.01639 6.77612 7.15669L6.67163 8.09419C6.64316 8.3482 6.33027 8.45226 6.15503 8.26607L5.21851 7.27095C5.10014 7.14536 4.90042 7.14548 4.78198 7.27095L3.84546 8.26607C3.67022 8.45225 3.35736 8.34817 3.32886 8.09419L3.22437 7.15669C3.20878 7.01644 3.2428 6.87471 3.32104 6.75728L3.66968 6.23482C3.75339 6.10926 3.78714 5.95612 3.76343 5.80708L3.59492 4.74789C3.54891 4.45867 3.5259 4.31405 3.59734 4.214C3.60739 4.19993 3.61864 4.18674 3.63096 4.17461C3.71855 4.08833 3.86498 4.08833 4.15784 4.08833H5.84265C6.13551 4.08833 6.28194 4.08833 6.36952 4.17461C6.38185 4.18674 6.3931 4.19993 6.40315 4.214C6.47459 4.31405 6.45158 4.45867 6.40557 4.74789L6.23706 5.80708ZM4.99976 1.63911C5.77027 1.63911 6.39816 2.17123 6.57168 2.86747C6.61737 3.05084 6.64022 3.14253 6.5699 3.25164C6.56182 3.26417 6.54662 3.28362 6.53642 3.29449C6.44755 3.38911 6.32784 3.38911 6.08842 3.38911H3.91111C3.67169 3.38911 3.55197 3.38911 3.4631 3.29448C3.4529 3.28361 3.4377 3.26415 3.42963 3.25162C3.3593 3.1425 3.38216 3.05082 3.42788 2.86745C3.60147 2.17133 4.22941 1.63926 4.99976 1.63911Z" fill="white"/>
</g>
<defs>
<filter id="filter0_i_1214_635" x="0" y="0" width="10" height="10" filterUnits="userSpaceOnUse" color-interpolation-filters="sRGB">
<feFlood flood-opacity="0" result="BackgroundImageFix"/>
<feBlend mode="normal" in="SourceGraphic" in2="BackgroundImageFix" result="shape"/>
<feColorMatrix in="SourceAlpha" type="matrix" values="0 0 0 0 0 0 0 0 0 0 0 0 0 0 0 0 0 0 127 0" result="hardAlpha"/>
<feOffset/>
<feGaussianBlur stdDeviation="1"/>
<feComposite in2="hardAlpha" operator="arithmetic" k2="-1" k3="1"/>
<feColorMatrix type="matrix" values="0 0 0 0 0.942 0 0 0 0 0.94 0 0 0 0 1 0 0 0 0.1 0"/>
<feBlend mode="hard-light" in2="shape" result="effect1_innerShadow_1214_635"/>
</filter>
</defs>
</svg>
