<svg width="10" height="10" viewBox="0 0 10 10" fill="none" xmlns="http://www.w3.org/2000/svg">
<g filter="url(#filter0_i_1142_1457)">
<path d="M3.50003 2.30001C3.50003 1.31715 4.75566 1.30031 4.7987 2.24947C4.79984 2.27455 4.80041 2.28709 4.80302 2.29719C4.80392 2.30068 4.80488 2.30372 4.80614 2.3071C4.80979 2.31687 4.81528 2.32553 4.82626 2.34284C5.43152 3.29751 6.50003 3.22631 6.50003 5.00021C6.49995 6.77392 5.43148 6.70292 4.82624 7.6576C4.81527 7.6749 4.80978 7.68355 4.80614 7.69332C4.80488 7.69669 4.80392 7.69973 4.80302 7.70322C4.8004 7.71331 4.79983 7.72584 4.79869 7.75091C4.75535 8.69959 3.50036 8.68276 3.50003 7.7004C3.50003 7.49743 3.59167 7.34115 3.73639 7.20461C3.76574 7.17692 3.78041 7.16308 3.78813 7.14856C3.79088 7.14339 3.7927 7.13918 3.79457 7.13362C3.79984 7.11805 3.79984 7.10005 3.79984 7.06404V2.93435C3.79984 2.89835 3.79984 2.88035 3.79457 2.86477C3.79269 2.85922 3.79087 2.85499 3.78811 2.84982C3.78039 2.8353 3.76574 2.8215 3.73645 2.7939C3.59198 2.65775 3.50003 2.50267 3.50003 2.30001ZM4.40042 6.46016C4.40042 6.58179 4.40042 6.64261 4.43412 6.67245C4.44455 6.68169 4.45739 6.68893 4.47069 6.69307C4.51367 6.70645 4.56469 6.67559 4.66671 6.61386C5.19357 6.29508 5.70015 5.86906 5.70023 5.00021C5.70023 4.13108 5.19363 3.70456 4.66669 3.3856C4.56469 3.32386 4.51369 3.29299 4.4707 3.30637C4.4574 3.31051 4.44456 3.31775 4.43413 3.32699C4.40042 3.35683 4.40042 3.41765 4.40042 3.53927V6.46016Z" fill="white"/>
</g>
<defs>
<filter id="filter0_i_1142_1457" x="0" y="0" width="10" height="10" filterUnits="userSpaceOnUse" color-interpolation-filters="sRGB">
<feFlood flood-opacity="0" result="BackgroundImageFix"/>
<feBlend mode="normal" in="SourceGraphic" in2="BackgroundImageFix" result="shape"/>
<feColorMatrix in="SourceAlpha" type="matrix" values="0 0 0 0 0 0 0 0 0 0 0 0 0 0 0 0 0 0 127 0" result="hardAlpha"/>
<feOffset/>
<feGaussianBlur stdDeviation="1"/>
<feComposite in2="hardAlpha" operator="arithmetic" k2="-1" k3="1"/>
<feColorMatrix type="matrix" values="0 0 0 0 0.942 0 0 0 0 0.94 0 0 0 0 1 0 0 0 0.1 0"/>
<feBlend mode="hard-light" in2="shape" result="effect1_innerShadow_1142_1457"/>
</filter>
</defs>
</svg>
