<svg width="10" height="10" viewBox="0 0 10 10" fill="none" xmlns="http://www.w3.org/2000/svg">
<g filter="url(#filter0_i_1735_512)">
<path d="M6.28349 7.34727C6.51234 7.2942 6.75922 7.50338 6.67272 7.72181C6.65562 7.76499 6.63652 7.80273 6.6138 7.83752C6.52401 7.97492 6.39408 8.08114 6.24173 8.14221C6.13733 8.18404 6.04935 8.26927 6.04935 8.38173V8.80042C6.04913 8.99353 5.8929 9.15002 5.69974 9.15002C5.50674 9.14983 5.35035 8.99341 5.35013 8.80042V8.49983C5.35013 8.33414 5.21581 8.19983 5.05013 8.19983H4.94993C4.78425 8.19983 4.64993 8.33414 4.64993 8.49983V8.80042C4.64971 8.99343 4.49335 9.14986 4.30032 9.15002C4.10716 9.15002 3.95094 8.99353 3.95071 8.80042V8.38173C3.95071 8.26927 3.86273 8.18404 3.75833 8.14221C3.60598 8.08114 3.47605 7.97492 3.38626 7.83752C3.36356 7.80276 3.34448 7.76506 3.32739 7.72192C3.24085 7.50349 3.48781 7.29427 3.71668 7.34735C4.04314 7.42307 4.49728 7.49959 4.99954 7.49963C5.50217 7.49963 5.95678 7.42303 6.28349 7.34727ZM4.65091 6.67713C4.65091 6.84771 4.50878 6.98464 4.33877 6.97078C4.08385 6.95002 3.84271 6.91715 3.61626 6.87243C3.53647 6.85667 3.46679 6.80764 3.42892 6.73566C3.40955 6.69883 3.38964 6.6583 3.36966 6.61389C3.21712 6.2747 3.05032 5.69918 3.05032 4.79944C3.05039 3.89979 3.21712 3.32407 3.36966 2.98499C3.38979 2.9403 3.40976 2.89941 3.42918 2.86226C3.46683 2.79024 3.53643 2.74124 3.61616 2.72554C3.8426 2.68097 4.08383 2.6485 4.33876 2.62795C4.50878 2.61424 4.65091 2.75117 4.65091 2.92175V6.67713ZM5.35013 2.92177C5.35013 2.75119 5.49227 2.61425 5.6623 2.62799C5.91688 2.64855 6.15777 2.68102 6.38393 2.72555C6.46365 2.74124 6.53329 2.79017 6.5713 2.86199C6.59095 2.89914 6.61116 2.94007 6.63138 2.98499C6.78391 3.32407 6.95064 3.89979 6.95071 4.79944C6.95071 5.69893 6.78388 6.27466 6.63138 6.61389C6.61135 6.6584 6.59119 6.69901 6.57155 6.73589C6.53333 6.80768 6.46359 6.85667 6.3838 6.87242C6.15765 6.91708 5.91684 6.94995 5.6623 6.97074C5.49227 6.98462 5.35013 6.84769 5.35013 6.6771V2.92177ZM7.5656 3.72085C7.52204 3.46199 7.787 3.24491 7.99196 3.40891C8.45149 3.77662 8.70054 4.25218 8.70071 4.79944C8.70071 5.34681 8.45153 5.82229 7.99192 6.18998C7.78695 6.35396 7.52199 6.13692 7.56557 5.87806C7.61753 5.56935 7.64993 5.21169 7.64993 4.79944C7.6499 4.38715 7.61754 4.02952 7.5656 3.72085ZM2.00719 3.40948C2.212 3.24522 2.47742 3.46231 2.4343 3.72129C2.38292 4.02993 2.35113 4.38747 2.3511 4.79944C2.3511 5.21109 2.38294 5.56837 2.43435 5.87683C2.47751 6.13576 2.21216 6.3528 2.0073 6.18867C1.54867 5.82123 1.30031 5.34633 1.30032 4.79944C1.30051 4.25269 1.5487 3.7772 2.00719 3.40948ZM5.00052 0.85022C5.19351 0.850466 5.34997 1.00681 5.35013 1.19983C5.35013 1.31039 5.43976 1.40002 5.55032 1.40002H5.98001C6.32553 1.40002 6.49888 1.40025 6.64212 1.45764C6.79438 1.51875 6.92446 1.62497 7.01419 1.76233C7.047 1.81257 7.0721 1.86893 7.09451 1.93897C7.16155 2.1485 6.95368 2.34218 6.73785 2.29964C6.29568 2.21249 5.60798 2.10022 4.99954 2.10022C4.39129 2.10028 3.70411 2.21248 3.2622 2.29961C3.04637 2.34216 2.83851 2.1485 2.90555 1.93898C2.92796 1.86893 2.95307 1.81257 2.98587 1.76233C3.0756 1.62497 3.20568 1.51875 3.35794 1.45764C3.50117 1.40025 3.67454 1.40002 4.02005 1.40002H4.45071C4.56128 1.40002 4.65091 1.31039 4.65091 1.19983C4.65106 1.00666 4.80731 0.85022 5.00052 0.85022Z" fill="white"/>
</g>
<defs>
<filter id="filter0_i_1735_512" x="0" y="0" width="10" height="10" filterUnits="userSpaceOnUse" color-interpolation-filters="sRGB">
<feFlood flood-opacity="0" result="BackgroundImageFix"/>
<feBlend mode="normal" in="SourceGraphic" in2="BackgroundImageFix" result="shape"/>
<feColorMatrix in="SourceAlpha" type="matrix" values="0 0 0 0 0 0 0 0 0 0 0 0 0 0 0 0 0 0 127 0" result="hardAlpha"/>
<feOffset/>
<feGaussianBlur stdDeviation="1"/>
<feComposite in2="hardAlpha" operator="arithmetic" k2="-1" k3="1"/>
<feColorMatrix type="matrix" values="0 0 0 0 0.942 0 0 0 0 0.94 0 0 0 0 1 0 0 0 0.1 0"/>
<feBlend mode="hard-light" in2="shape" result="effect1_innerShadow_1735_512"/>
</filter>
</defs>
</svg>
