<svg width="10" height="10" viewBox="0 0 10 10" fill="none" xmlns="http://www.w3.org/2000/svg">
<g filter="url(#filter0_i_1142_1127)">
<path d="M5.20002 6.5003V7.5C5.20002 7.88659 4.88662 8.2 4.50002 8.2C4.11342 8.2 3.80002 7.88659 3.80002 7.5V6.5003C3.80002 6.37516 3.86256 6.2583 3.96669 6.18888C4.04999 6.13335 4.10002 6.03986 4.10002 5.93975V5.8355C4.10002 5.15315 4.65318 4.6 5.33553 4.6H6.25002C6.60901 4.6 6.90002 4.30898 6.90002 3.94999V3.68855C6.90002 3.47396 6.72606 3.29999 6.51147 3.29999H6.30278C6.18578 3.29999 6.08592 3.38458 6.06669 3.49999C6.02822 3.73082 5.82851 3.9 5.5945 3.9H3.14313C2.82232 3.9 2.66192 3.9 2.54339 3.82912C2.47254 3.78674 2.41327 3.72748 2.3709 3.65662C2.30002 3.5381 2.30002 3.37769 2.30002 3.05688V2.64311C2.30002 2.3223 2.30002 2.1619 2.3709 2.04337C2.41327 1.97251 2.47254 1.91325 2.5434 1.87087C2.66192 1.8 2.82232 1.8 3.14313 1.8L5.5945 1.8C5.82851 1.8 6.02822 1.96917 6.06669 2.19999C6.08592 2.31541 6.18578 2.39999 6.30278 2.39999H6.57608C7.19682 2.39999 7.70002 2.9032 7.70002 3.52394V3.89999C7.70002 4.72842 7.02845 5.4 6.20002 5.4H5.35599C5.10417 5.4 4.90002 5.60414 4.90002 5.85597V5.93975C4.90002 6.03986 4.95006 6.13335 5.03336 6.18888C5.13748 6.2583 5.20002 6.37516 5.20002 6.5003Z" fill="white"/>
</g>
<defs>
<filter id="filter0_i_1142_1127" x="0" y="0" width="10" height="10" filterUnits="userSpaceOnUse" color-interpolation-filters="sRGB">
<feFlood flood-opacity="0" result="BackgroundImageFix"/>
<feBlend mode="normal" in="SourceGraphic" in2="BackgroundImageFix" result="shape"/>
<feColorMatrix in="SourceAlpha" type="matrix" values="0 0 0 0 0 0 0 0 0 0 0 0 0 0 0 0 0 0 127 0" result="hardAlpha"/>
<feOffset/>
<feGaussianBlur stdDeviation="1"/>
<feComposite in2="hardAlpha" operator="arithmetic" k2="-1" k3="1"/>
<feColorMatrix type="matrix" values="0 0 0 0 0.942 0 0 0 0 0.94 0 0 0 0 1 0 0 0 0.1 0"/>
<feBlend mode="hard-light" in2="shape" result="effect1_innerShadow_1142_1127"/>
</filter>
</defs>
</svg>
