<svg width="10" height="10" viewBox="0 0 10 10" fill="none" xmlns="http://www.w3.org/2000/svg">
<g filter="url(#filter0_i_1688_330)">
<path d="M5.12195 1.50587C5.72727 1.56711 6.20007 2.07873 6.20007 2.7002L6.19324 2.82227C6.1479 3.27011 5.85625 3.64412 5.45598 3.80894C5.41973 3.82387 5.40027 3.86119 5.40027 3.9004C5.40027 3.91668 5.40027 3.93328 5.40027 3.95018C5.40027 4.13712 5.40027 4.23059 5.44047 4.30021C5.4668 4.34581 5.50467 4.38368 5.55027 4.41001C5.61989 4.4502 5.71335 4.4502 5.90027 4.4502C6.09329 4.45046 6.25075 4.60676 6.25085 4.79981C6.25085 4.99295 6.09335 5.14917 5.90027 5.14942C5.71335 5.14942 5.61988 5.14942 5.55027 5.18961C5.50466 5.21594 5.46679 5.25382 5.44046 5.29942C5.40027 5.36904 5.40027 5.46249 5.40027 5.6494C5.40027 6.12565 5.40027 6.6178 5.40027 7.06089C5.40027 7.34544 5.40027 7.48772 5.50202 7.57731C5.51446 7.58826 5.53349 7.60206 5.54776 7.61049C5.6645 7.67941 5.77938 7.6419 6.00913 7.5669C6.32072 7.46517 6.50743 7.31409 6.62976 7.14942C6.69826 7.05718 6.75306 6.95297 6.79781 6.83641C6.86313 6.66622 6.70188 6.49276 6.58777 6.35059C6.44983 6.17816 6.47795 5.92613 6.65027 5.78809L7.15027 5.3877C7.30149 5.26685 7.3771 5.20642 7.43381 5.1898C7.58973 5.14407 7.75371 5.23079 7.80368 5.3854C7.82186 5.44164 7.81447 5.53824 7.79968 5.73145C7.7508 6.36672 7.67473 7.08286 7.27136 7.62598C6.84096 8.20534 6.11623 8.49985 5.00085 8.50001C3.88528 8.50001 3.15992 8.20519 2.72937 7.62598C2.3261 7.08291 2.2509 6.36664 2.20203 5.73145C2.1871 5.53908 2.17964 5.4429 2.19754 5.38692C2.24722 5.23158 2.4119 5.14438 2.5683 5.19059C2.62467 5.20725 2.69993 5.2674 2.85046 5.3877L3.35046 5.78809C3.52245 5.9262 3.55081 6.17828 3.41296 6.35059C3.29878 6.49321 3.13689 6.66682 3.20308 6.83711C3.24828 6.95338 3.30354 7.05734 3.37195 7.14942C3.4943 7.31385 3.68066 7.46496 3.99169 7.56674C4.22127 7.64187 4.33606 7.67943 4.45288 7.61053C4.46715 7.60211 4.48621 7.58829 4.49865 7.57735C4.60047 7.48775 4.60047 7.34548 4.60047 7.06095C4.60047 6.61784 4.60047 6.12567 4.60047 5.6494C4.60046 5.46249 4.60046 5.36904 4.56027 5.29942C4.53394 5.25382 4.49607 5.21594 4.45047 5.18961C4.38085 5.14942 4.28739 5.14942 4.10046 5.14942C3.90716 5.14942 3.75085 4.99311 3.75085 4.79981C3.75095 4.6066 3.90723 4.4502 4.10046 4.4502C4.28739 4.4502 4.38085 4.4502 4.45047 4.41001C4.49608 4.38368 4.53395 4.34581 4.56028 4.3002C4.60047 4.23058 4.60047 4.13712 4.60047 3.95018C4.60046 3.93328 4.60046 3.91668 4.60046 3.9004C4.60046 3.86077 4.57873 3.82277 4.5421 3.80764C4.14251 3.64262 3.85079 3.26948 3.80554 2.82227L3.79968 2.7002C3.79968 2.03756 4.33727 1.50016 4.99988 1.50001L5.12195 1.50587ZM4.99988 2.2002C4.72387 2.20036 4.49988 2.42416 4.49988 2.7002C4.49998 2.97616 4.72393 3.20005 4.99988 3.2002C5.27587 3.2001 5.49977 2.97619 5.49988 2.7002C5.49988 2.42413 5.27593 2.20031 4.99988 2.2002Z" fill="white"/>
</g>
<defs>
<filter id="filter0_i_1688_330" x="0" y="0" width="10" height="10" filterUnits="userSpaceOnUse" color-interpolation-filters="sRGB">
<feFlood flood-opacity="0" result="BackgroundImageFix"/>
<feBlend mode="normal" in="SourceGraphic" in2="BackgroundImageFix" result="shape"/>
<feColorMatrix in="SourceAlpha" type="matrix" values="0 0 0 0 0 0 0 0 0 0 0 0 0 0 0 0 0 0 127 0" result="hardAlpha"/>
<feOffset/>
<feGaussianBlur stdDeviation="1"/>
<feComposite in2="hardAlpha" operator="arithmetic" k2="-1" k3="1"/>
<feColorMatrix type="matrix" values="0 0 0 0 0.942 0 0 0 0 0.94 0 0 0 0 1 0 0 0 0.1 0"/>
<feBlend mode="hard-light" in2="shape" result="effect1_innerShadow_1688_330"/>
</filter>
</defs>
</svg>
