<svg width="10" height="10" viewBox="0 0 10 10" fill="none" xmlns="http://www.w3.org/2000/svg">
<g filter="url(#filter0_i_1192_5526)">
<path d="M5 2C6.65685 2 8 3.34315 8 5C8 6.65685 6.65685 8 5 8C3.34315 8 2 6.65685 2 5C2 3.34315 3.34315 2 5 2ZM5.33301 3.10156C5.14319 2.93172 4.85584 2.93172 4.66602 3.10156C4.5904 3.16938 4.52233 3.31349 4.38672 3.60156C4.34645 3.68711 4.3266 3.73025 4.30078 3.7666C4.23762 3.85542 4.14694 3.92143 4.04297 3.9541C4.0004 3.96746 3.95318 3.97349 3.85938 3.98535C3.54312 4.02535 3.3847 4.04561 3.29688 4.09668C3.07684 4.22478 2.98798 4.49753 3.09082 4.73047C3.13185 4.82339 3.24824 4.93224 3.48047 5.15039C3.5495 5.21524 3.58374 5.24832 3.61035 5.28418C3.6753 5.37173 3.71008 5.4779 3.70898 5.58691C3.70853 5.63157 3.69937 5.67844 3.68164 5.77148C3.62206 6.08411 3.59294 6.24056 3.61426 6.33984C3.66799 6.5888 3.89995 6.75822 4.15332 6.73242C4.25439 6.72212 4.39446 6.64474 4.67383 6.49121C4.75623 6.44593 4.79776 6.4234 4.83984 6.40918C4.94323 6.37442 5.05579 6.37442 5.15918 6.40918C5.20142 6.42342 5.24333 6.44569 5.32617 6.49121C5.60526 6.64458 5.74466 6.72203 5.8457 6.73242C6.0991 6.75825 6.332 6.58882 6.38574 6.33984C6.407 6.24055 6.37695 6.08399 6.31738 5.77148C6.29965 5.67844 6.29049 5.63157 6.29004 5.58691C6.28894 5.47796 6.32378 5.37171 6.38867 5.28418C6.41529 5.24832 6.44952 5.21524 6.51855 5.15039C6.7508 4.93223 6.86713 4.82338 6.9082 4.73047C7.01107 4.49746 6.92233 4.22473 6.70215 4.09668C6.61436 4.04563 6.45657 4.02532 6.14062 3.98535C6.04694 3.9735 5.99954 3.96738 5.95703 3.9541C5.85301 3.92147 5.76242 3.85542 5.69922 3.7666C5.67334 3.73021 5.65265 3.68726 5.6123 3.60156C5.47663 3.31336 5.40868 3.16931 5.33301 3.10156Z" fill="white"/>
</g>
<defs>
<filter id="filter0_i_1192_5526" x="0" y="0" width="10" height="10" filterUnits="userSpaceOnUse" color-interpolation-filters="sRGB">
<feFlood flood-opacity="0" result="BackgroundImageFix"/>
<feBlend mode="normal" in="SourceGraphic" in2="BackgroundImageFix" result="shape"/>
<feColorMatrix in="SourceAlpha" type="matrix" values="0 0 0 0 0 0 0 0 0 0 0 0 0 0 0 0 0 0 127 0" result="hardAlpha"/>
<feOffset/>
<feGaussianBlur stdDeviation="1"/>
<feComposite in2="hardAlpha" operator="arithmetic" k2="-1" k3="1"/>
<feColorMatrix type="matrix" values="0 0 0 0 0.942 0 0 0 0 0.94 0 0 0 0 1 0 0 0 0.1 0"/>
<feBlend mode="hard-light" in2="shape" result="effect1_innerShadow_1192_5526"/>
</filter>
</defs>
</svg>
