<svg width="10" height="10" viewBox="0 0 10 10" fill="none" xmlns="http://www.w3.org/2000/svg">
<g filter="url(#filter0_i_1165_88)">
<path d="M6.06049 7.66767L5.92926 7.7989L5.92925 7.79891C5.76539 7.96278 5.68345 8.04471 5.60277 8.08711C5.37925 8.20458 5.10611 8.16954 4.91948 7.99945C4.85211 7.93806 4.79351 7.83809 4.67631 7.63817L4.19825 6.82264C4.08726 6.63331 3.84309 6.57094 3.6549 6.68385C3.45784 6.80209 3.20182 6.72754 3.09904 6.52199L2.78466 5.89324C2.77626 5.87642 2.77205 5.86801 2.76846 5.86028C2.66484 5.63743 2.7076 5.37392 2.87638 5.19527C2.88223 5.18907 2.88888 5.18243 2.90217 5.16913L6.19881 1.87249C6.25512 1.81618 6.28328 1.78803 6.3108 1.7685C6.44943 1.67013 6.6351 1.67013 6.77373 1.7685C6.80125 1.78803 6.82941 1.81618 6.88572 1.87249C7.02649 2.01327 7.09688 2.08366 7.14569 2.15245C7.39161 2.49904 7.39161 2.9632 7.14569 3.30979C7.09688 3.37858 7.02649 3.44897 6.88572 3.58975L6.20378 4.27168C6.09254 4.38292 6.07631 4.55762 6.16514 4.68745C6.34281 4.94712 6.31033 5.2965 6.08786 5.51898L5.93659 5.67025C5.78993 5.81691 5.76078 6.04411 5.86567 6.22305L6.17757 6.7551C6.23421 6.85173 6.26254 6.90005 6.28039 6.94702C6.35153 7.13427 6.32454 7.34468 6.20843 7.50791C6.1793 7.54886 6.1397 7.58846 6.06049 7.66767Z" fill="white"/>
</g>
<defs>
<filter id="filter0_i_1165_88" x="0" y="0" width="10" height="10" filterUnits="userSpaceOnUse" color-interpolation-filters="sRGB">
<feFlood flood-opacity="0" result="BackgroundImageFix"/>
<feBlend mode="normal" in="SourceGraphic" in2="BackgroundImageFix" result="shape"/>
<feColorMatrix in="SourceAlpha" type="matrix" values="0 0 0 0 0 0 0 0 0 0 0 0 0 0 0 0 0 0 127 0" result="hardAlpha"/>
<feOffset/>
<feGaussianBlur stdDeviation="1"/>
<feComposite in2="hardAlpha" operator="arithmetic" k2="-1" k3="1"/>
<feColorMatrix type="matrix" values="0 0 0 0 0.942 0 0 0 0 0.94 0 0 0 0 1 0 0 0 0.1 0"/>
<feBlend mode="hard-light" in2="shape" result="effect1_innerShadow_1165_88"/>
</filter>
</defs>
</svg>
