<svg width="10" height="10" viewBox="0 0 10 10" fill="none" xmlns="http://www.w3.org/2000/svg">
<g filter="url(#filter0_i_1734_432)">
<path d="M5.8998 1.19964C6.17582 1.19964 6.3996 1.42366 6.3998 1.69964C6.3998 1.79682 6.46663 1.89983 6.56381 1.89983H7.02968C7.4106 1.89983 7.69315 2.25427 7.6078 2.62542C7.56006 2.83231 7.42801 3.00168 7.25314 3.10139C7.13924 3.16634 7.06256 3.29888 7.10097 3.42425C7.2311 3.84903 7.31481 4.33701 7.3412 4.81878C7.36749 5.29915 7.33779 5.78938 7.23085 6.21526C7.18072 6.41482 7.10971 6.61116 7.01276 6.7888C6.96046 6.88462 7.01003 7.00212 7.07167 7.09222C7.07752 7.10077 7.08753 7.11811 7.09218 7.12737C7.13418 7.21119 7.12389 7.28133 7.1039 7.42132L7.08144 7.58147C7.06883 7.66973 7.06259 7.71463 7.06874 7.75726C7.07228 7.78145 7.079 7.80495 7.08827 7.82757C7.10463 7.86741 7.13219 7.90248 7.18788 7.9721C7.42103 8.26353 7.5373 8.40936 7.52382 8.53265C7.51635 8.60055 7.48622 8.66407 7.43788 8.71233C7.35006 8.79996 7.16282 8.80022 6.78944 8.80022H3.30995C2.93684 8.80022 2.75033 8.79987 2.66249 8.71233C2.61409 8.66405 2.58305 8.6006 2.57558 8.53265C2.56214 8.40937 2.67936 8.26351 2.91249 7.9721C2.96812 7.90256 2.99575 7.86739 3.0121 7.82757C3.02136 7.80497 3.02811 7.78142 3.03163 7.75726C3.03778 7.71462 3.03155 7.66973 3.01894 7.58147L2.9955 7.42132C2.97549 7.28131 2.96612 7.21124 3.00819 7.12737C3.01284 7.11811 3.02285 7.10077 3.0287 7.09222C3.09595 6.99403 3.15259 6.86843 3.09749 6.76295C3.00825 6.59214 2.94257 6.40495 2.89491 6.21526C2.78796 5.78935 2.75827 5.29919 2.78456 4.81878C2.81096 4.33696 2.89464 3.84906 3.0248 3.42425C3.06451 3.29464 2.98584 3.1567 2.87085 3.08493C2.70904 2.98394 2.5877 2.82184 2.54237 2.62542C2.45702 2.25437 2.73877 1.90006 3.11952 1.89983H3.43598C3.53316 1.89983 3.59999 1.79682 3.59999 1.69964C3.6002 1.42367 3.82398 1.19964 4.09999 1.19964H5.8998ZM4.32082 3.19964C4.18767 3.19964 4.1211 3.19964 4.05023 3.2211C3.95286 3.25059 3.83678 3.33642 3.78007 3.42087C3.73878 3.48235 3.72377 3.53134 3.69374 3.62933C3.5817 3.99505 3.50737 4.42634 3.48378 4.85686C3.46013 5.28871 3.48838 5.70484 3.57362 6.04436C3.66099 6.3922 3.79523 6.61108 3.94081 6.71624C3.98066 6.74511 4.02781 6.7655 4.07659 6.75902C4.34277 6.72365 4.66454 6.69964 5.05019 6.69964C5.44319 6.69965 5.76971 6.72441 6.03877 6.76089C6.09086 6.76796 6.14235 6.74704 6.18495 6.71624C6.33045 6.611 6.46482 6.39208 6.55214 6.04436C6.63737 5.70486 6.66563 5.28866 6.64198 4.85686C6.6184 4.42639 6.54404 3.99502 6.43202 3.62933C6.40196 3.53122 6.38693 3.48217 6.34549 3.42057C6.28884 3.33635 6.17303 3.2507 6.0759 3.22121C6.00486 3.19964 5.93778 3.19964 5.80361 3.19964H4.32082ZM5.05702 4.0512C5.19913 4.06528 5.27998 4.18741 5.44081 4.43108C5.61687 4.69782 5.79721 5.01199 5.86464 5.26311C5.94497 5.56263 5.90662 5.86078 5.73681 6.07093C5.68137 6.13955 5.57838 6.11025 5.54237 6.02972C5.38047 5.66766 5.29982 5.48655 5.07362 5.46038C5.04908 5.45755 5.00635 5.45755 4.98183 5.46038C4.75562 5.48655 4.67404 5.66762 4.5121 6.02972C4.47612 6.11021 4.37314 6.13942 4.31784 6.07075C4.14853 5.86051 4.11055 5.56232 4.19081 5.26311C4.25825 5.01199 4.43858 4.69783 4.61464 4.43108C4.77547 4.18742 4.85636 4.06531 4.99843 4.0512C5.01599 4.04949 5.03945 4.04949 5.05702 4.0512Z" fill="white"/>
</g>
<defs>
<filter id="filter0_i_1734_432" x="0" y="0" width="10" height="10" filterUnits="userSpaceOnUse" color-interpolation-filters="sRGB">
<feFlood flood-opacity="0" result="BackgroundImageFix"/>
<feBlend mode="normal" in="SourceGraphic" in2="BackgroundImageFix" result="shape"/>
<feColorMatrix in="SourceAlpha" type="matrix" values="0 0 0 0 0 0 0 0 0 0 0 0 0 0 0 0 0 0 127 0" result="hardAlpha"/>
<feOffset/>
<feGaussianBlur stdDeviation="1"/>
<feComposite in2="hardAlpha" operator="arithmetic" k2="-1" k3="1"/>
<feColorMatrix type="matrix" values="0 0 0 0 0.942 0 0 0 0 0.94 0 0 0 0 1 0 0 0 0.1 0"/>
<feBlend mode="hard-light" in2="shape" result="effect1_innerShadow_1734_432"/>
</filter>
</defs>
</svg>
