<svg width="10" height="10" viewBox="0 0 10 10" fill="none" xmlns="http://www.w3.org/2000/svg">
<g filter="url(#filter0_i_1142_1608)">
<path d="M7.24216 5.09621C7.39792 5.08893 7.51045 5.14628 7.59567 5.27687C7.62639 5.32394 7.6503 5.40169 7.69821 5.55714C7.75103 5.72853 7.80171 5.92972 7.84665 6.16261C7.97053 6.80467 8.03298 7.12582 7.85251 7.44582C7.8009 7.53718 7.7088 7.64838 7.62888 7.71632C7.34882 7.95421 6.96589 7.95461 6.20016 7.95461H3.80075C3.03498 7.95461 2.65111 7.95434 2.37106 7.71632C2.29131 7.64842 2.19996 7.53793 2.14841 7.44679C1.96768 7.12678 2.02956 6.80484 2.15329 6.16261C2.19819 5.92959 2.2499 5.72859 2.3027 5.55714C2.3504 5.40228 2.37476 5.32472 2.40524 5.27785C2.49051 5.14684 2.60355 5.08871 2.75974 5.09621C2.81556 5.09898 2.90553 5.12936 3.08493 5.18996C3.35082 5.27978 3.65737 5.35704 4.00681 5.40871C4.11683 5.42507 4.20016 5.51816 4.20016 5.62941C4.2002 6.07099 4.55846 6.42887 4.99997 6.42921C5.44177 6.42921 5.80071 6.07121 5.80075 5.62941C5.80075 5.51809 5.88497 5.42502 5.99509 5.40871C6.34312 5.35712 6.648 5.28049 6.91306 5.19093C7.09473 5.12953 7.18602 5.09883 7.24216 5.09621ZM3.70016 2.09132C4.04191 1.95483 4.43075 2.1342 4.55661 2.48C4.60085 2.6017 4.7016 2.70926 4.83107 2.70648C4.88597 2.7053 4.94226 2.70461 4.99997 2.70461C5.06066 2.7046 5.1198 2.70553 5.17741 2.707C5.30374 2.71024 5.40401 2.60656 5.44724 2.48781C5.57321 2.14227 5.96208 1.9628 6.30368 2.09914C6.54784 2.19665 6.70961 2.43196 6.71384 2.69484V2.70851C6.7162 2.8621 6.76945 3.02404 6.88281 3.12768C7.05606 3.28606 7.16138 3.49423 7.22263 3.76222C7.22882 3.78933 7.23527 3.8163 7.24118 3.8423C7.26689 3.95631 7.21865 4.07692 7.1152 4.13136C6.70643 4.34644 6.02851 4.5796 4.99997 4.57961C3.97141 4.57958 3.29348 4.34645 2.88474 4.13136C2.78076 4.07658 2.73313 3.95581 2.75974 3.84132C2.76565 3.81589 2.77125 3.78978 2.77731 3.7632C2.83861 3.49453 2.94413 3.28563 3.1179 3.12686C3.23284 3.02183 3.28754 2.8554 3.29001 2.69972V2.68605C3.29424 2.42318 3.45601 2.18884 3.70016 2.09132Z" fill="white"/>
</g>
<defs>
<filter id="filter0_i_1142_1608" x="0" y="0" width="10" height="10" filterUnits="userSpaceOnUse" color-interpolation-filters="sRGB">
<feFlood flood-opacity="0" result="BackgroundImageFix"/>
<feBlend mode="normal" in="SourceGraphic" in2="BackgroundImageFix" result="shape"/>
<feColorMatrix in="SourceAlpha" type="matrix" values="0 0 0 0 0 0 0 0 0 0 0 0 0 0 0 0 0 0 127 0" result="hardAlpha"/>
<feOffset/>
<feGaussianBlur stdDeviation="1"/>
<feComposite in2="hardAlpha" operator="arithmetic" k2="-1" k3="1"/>
<feColorMatrix type="matrix" values="0 0 0 0 0.942 0 0 0 0 0.94 0 0 0 0 1 0 0 0 0.1 0"/>
<feBlend mode="hard-light" in2="shape" result="effect1_innerShadow_1142_1608"/>
</filter>
</defs>
</svg>
