<svg width="10" height="10" viewBox="0 0 10 10" fill="none" xmlns="http://www.w3.org/2000/svg">
<g filter="url(#filter0_i_1142_1545)">
<path d="M6.40016 2.33673C6.71487 2.33673 7.01111 2.48539 7.19997 2.73712L7.99586 3.79767C8.22953 4.10922 8.20464 4.54382 7.93727 4.82697L5.43629 7.4754C5.19956 7.7259 4.80097 7.72587 4.56422 7.4754L2.06325 4.82697C1.79584 4.54382 1.77098 4.10924 2.00465 3.79767L2.80055 2.73712C2.98941 2.48541 3.28567 2.33673 3.60036 2.33673H6.40016ZM6.91676 3.86798C6.74045 3.69317 6.45605 3.69392 6.28102 3.86993L6.2859 3.86505C6.28515 3.86569 6.28329 3.86698 6.28102 3.86896C6.27403 3.87505 6.26031 3.88748 6.23903 3.90314C6.19608 3.93471 6.1234 3.98187 6.02028 4.03107C5.81557 4.1287 5.48112 4.23712 4.99977 4.23712C4.51871 4.23705 4.18488 4.12866 3.98024 4.03107C3.87715 3.98188 3.80445 3.93471 3.76149 3.90314C3.74008 3.8874 3.72549 3.87501 3.71852 3.86896L3.71559 3.86603L3.71364 3.86505C3.53818 3.6942 3.25734 3.69483 3.08278 3.86798C2.90678 4.04304 2.90595 4.3284 3.08083 4.5047H3.0818V4.50568L3.08766 4.51154C3.09053 4.51432 3.09452 4.51765 3.0984 4.5213C3.10627 4.52868 3.11662 4.53816 3.12868 4.54865C3.15311 4.56987 3.18633 4.59689 3.22829 4.62775C3.31284 4.68992 3.43382 4.76784 3.59254 4.84357C3.91177 4.99583 4.3776 5.13744 4.99977 5.13751C5.62221 5.13751 6.08867 4.99588 6.40797 4.84357C6.56665 4.76786 6.68768 4.68991 6.77223 4.62775C6.81415 4.59691 6.84743 4.56986 6.87184 4.54865C6.88392 4.53814 6.89424 4.52868 6.90211 4.5213C6.90601 4.51764 6.90998 4.51432 6.91286 4.51154C6.91425 4.51018 6.91562 4.50877 6.91676 4.50763L6.91774 4.50568L6.91872 4.5047H6.91969C7.09469 4.32828 7.09314 4.04301 6.91676 3.86798Z" fill="white"/>
</g>
<defs>
<filter id="filter0_i_1142_1545" x="0" y="0" width="10" height="10" filterUnits="userSpaceOnUse" color-interpolation-filters="sRGB">
<feFlood flood-opacity="0" result="BackgroundImageFix"/>
<feBlend mode="normal" in="SourceGraphic" in2="BackgroundImageFix" result="shape"/>
<feColorMatrix in="SourceAlpha" type="matrix" values="0 0 0 0 0 0 0 0 0 0 0 0 0 0 0 0 0 0 127 0" result="hardAlpha"/>
<feOffset/>
<feGaussianBlur stdDeviation="1"/>
<feComposite in2="hardAlpha" operator="arithmetic" k2="-1" k3="1"/>
<feColorMatrix type="matrix" values="0 0 0 0 0.942 0 0 0 0 0.94 0 0 0 0 1 0 0 0 0.1 0"/>
<feBlend mode="hard-light" in2="shape" result="effect1_innerShadow_1142_1545"/>
</filter>
</defs>
</svg>
