<svg width="10" height="10" viewBox="0 0 10 10" fill="none" xmlns="http://www.w3.org/2000/svg">
<g filter="url(#filter0_i_1229_106)">
<path d="M4.99973 1.5498C5.14814 1.5498 5.2226 1.54997 5.28293 1.57812C5.32761 1.59899 5.36663 1.63046 5.39621 1.66992C5.43606 1.72321 5.45093 1.79626 5.48117 1.94141L5.60307 2.52482C5.61495 2.5817 5.62089 2.61013 5.62156 2.63743C5.62321 2.70494 5.60204 2.77104 5.56146 2.82502C5.54506 2.84685 5.5237 2.86654 5.48098 2.90592C5.44761 2.93668 5.43093 2.95205 5.41719 2.96902C5.38328 3.01088 5.36127 3.0611 5.35347 3.11441C5.35031 3.13601 5.35031 3.1587 5.35031 3.20408V4.6084C5.35049 4.81319 5.47944 4.99531 5.67258 5.06348C5.95061 5.16162 6.07655 5.48422 5.93918 5.74512L5.74777 6.1084C5.71611 6.16859 5.69991 6.2357 5.69992 6.30371V7.75C5.69992 8.13659 5.38633 8.4502 4.99973 8.4502C4.61319 8.45015 4.29957 8.13655 4.29953 7.75V6.30371C4.29952 6.23575 4.2833 6.16855 4.25168 6.1084L4.06027 5.74512C3.92302 5.48423 4.04899 5.16172 4.32687 5.06348C4.52021 4.99524 4.65012 4.81244 4.65012 4.60742V3.20421C4.65012 3.1587 4.65012 3.13594 4.64694 3.11428C4.63913 3.06107 4.61716 3.01093 4.58332 2.96912C4.56955 2.9521 4.55282 2.93667 4.51935 2.90583C4.47656 2.86638 4.45516 2.84666 4.43874 2.82479C4.39829 2.77094 4.37714 2.70505 4.37869 2.63771C4.37932 2.61037 4.38523 2.58188 4.39707 2.5249L4.51828 1.94141C4.54852 1.79622 4.56339 1.72321 4.60324 1.66992C4.63277 1.63047 4.67189 1.59902 4.71652 1.57812C4.77683 1.54997 4.85141 1.5498 4.99973 1.5498Z" fill="white"/>
</g>
<defs>
<filter id="filter0_i_1229_106" x="0" y="0" width="10" height="10" filterUnits="userSpaceOnUse" color-interpolation-filters="sRGB">
<feFlood flood-opacity="0" result="BackgroundImageFix"/>
<feBlend mode="normal" in="SourceGraphic" in2="BackgroundImageFix" result="shape"/>
<feColorMatrix in="SourceAlpha" type="matrix" values="0 0 0 0 0 0 0 0 0 0 0 0 0 0 0 0 0 0 127 0" result="hardAlpha"/>
<feOffset/>
<feGaussianBlur stdDeviation="1"/>
<feComposite in2="hardAlpha" operator="arithmetic" k2="-1" k3="1"/>
<feColorMatrix type="matrix" values="0 0 0 0 0.942 0 0 0 0 0.94 0 0 0 0 1 0 0 0 0.1 0"/>
<feBlend mode="hard-light" in2="shape" result="effect1_innerShadow_1229_106"/>
</filter>
</defs>
</svg>
