<svg width="10" height="10" viewBox="0 0 10 10" fill="none" xmlns="http://www.w3.org/2000/svg">
<g filter="url(#filter0_i_1714_104)">
<path fill-rule="evenodd" clip-rule="evenodd" d="M4.42407 6.35761C4.60218 6.803 4.69124 7.02569 4.60157 7.19075C4.58915 7.21363 4.57451 7.23524 4.55788 7.25527C4.43792 7.39981 4.19808 7.39981 3.7184 7.39981H1.9638C1.48393 7.39981 1.24399 7.39981 1.12403 7.25521C1.1074 7.23517 1.09277 7.21355 1.08034 7.19067C0.990697 7.02555 1.07988 6.80281 1.25825 6.35732L1.45044 5.87732C1.53801 5.65861 1.58179 5.54926 1.66885 5.48246C1.68144 5.4728 1.69459 5.4639 1.70824 5.4558C1.80261 5.39981 1.9204 5.39981 2.15599 5.39981H3.52645C3.76213 5.39981 3.87998 5.39981 3.97437 5.45584C3.98802 5.46394 4.00118 5.47285 4.01377 5.48252C4.10085 5.54936 4.1446 5.65878 4.23212 5.87761L4.42407 6.35761ZM7.82723 5.39981C8.06291 5.39981 8.18076 5.39981 8.27515 5.45584C8.2888 5.46394 8.30196 5.47285 8.31456 5.48252C8.40163 5.54936 8.44538 5.65878 8.5329 5.87761L8.72485 6.35761C8.90296 6.803 8.99202 7.02569 8.90236 7.19075C8.88993 7.21363 8.87529 7.23524 8.85867 7.25527C8.7387 7.39981 8.49886 7.39981 8.01918 7.39981H6.26407C5.78439 7.39981 5.54455 7.39981 5.42459 7.25527C5.40796 7.23524 5.39333 7.21363 5.3809 7.19075C5.29124 7.02569 5.38029 6.803 5.5584 6.35761L5.75036 5.87761C5.83787 5.65878 5.88163 5.54936 5.9687 5.48252C5.98129 5.47285 5.99445 5.46394 6.0081 5.45584C6.1025 5.39981 6.22034 5.39981 6.45602 5.39981H7.82723ZM6.62426 3.55781C6.80237 4.00319 6.89143 4.22589 6.80177 4.39094C6.78934 4.41382 6.77471 4.43543 6.75808 4.45547C6.63812 4.60001 6.39828 4.60001 5.9186 4.60001H4.16348C3.68381 4.60001 3.44397 4.60001 3.324 4.45547C3.30738 4.43543 3.29274 4.41382 3.28031 4.39094C3.19065 4.22589 3.27971 4.00319 3.45782 3.55781L3.64977 3.07781C3.73728 2.85897 3.78104 2.74956 3.86811 2.68272C3.88071 2.67305 3.89387 2.66414 3.90752 2.65604C4.00191 2.60001 4.11975 2.60001 4.35544 2.60001H5.72665C5.96233 2.60001 6.08017 2.60001 6.17457 2.65604C6.18822 2.66414 6.20138 2.67305 6.21397 2.68272C6.30104 2.74956 6.3448 2.85897 6.43231 3.07781L6.62426 3.55781Z" fill="white"/>
</g>
<defs>
<filter id="filter0_i_1714_104" x="0" y="0" width="10" height="10" filterUnits="userSpaceOnUse" color-interpolation-filters="sRGB">
<feFlood flood-opacity="0" result="BackgroundImageFix"/>
<feBlend mode="normal" in="SourceGraphic" in2="BackgroundImageFix" result="shape"/>
<feColorMatrix in="SourceAlpha" type="matrix" values="0 0 0 0 0 0 0 0 0 0 0 0 0 0 0 0 0 0 127 0" result="hardAlpha"/>
<feOffset/>
<feGaussianBlur stdDeviation="1"/>
<feComposite in2="hardAlpha" operator="arithmetic" k2="-1" k3="1"/>
<feColorMatrix type="matrix" values="0 0 0 0 0.942 0 0 0 0 0.94 0 0 0 0 1 0 0 0 0.1 0"/>
<feBlend mode="hard-light" in2="shape" result="effect1_innerShadow_1714_104"/>
</filter>
</defs>
</svg>
