<svg width="10" height="10" viewBox="0 0 10 10" fill="none" xmlns="http://www.w3.org/2000/svg">
<g filter="url(#filter0_i_1229_69)">
<path d="M5.54547 1.87282L7.61285 2.42653C8.00192 2.531 8.23256 2.93091 8.12848 3.32008C8.05441 3.5965 7.82577 3.80428 7.54352 3.85133L7.05133 3.93336C6.9061 3.95752 6.78537 4.05964 6.73785 4.19899L6.21392 5.7354C6.18258 5.82729 6.22177 5.92842 6.30685 5.9752L7.80426 6.7986C8.00148 6.90709 8.08103 7.15026 7.9859 7.35426C7.89068 7.55806 7.65369 7.65334 7.44391 7.57204L5.9997 7.01174C5.89365 6.9706 5.77468 7.02607 5.73803 7.13376L5.48981 7.86305C5.41722 8.07611 5.1916 8.19669 4.97418 8.13844C4.75676 8.08018 4.62192 7.86317 4.66559 7.64235L4.84315 6.74049C4.86189 6.64531 4.80963 6.5504 4.71917 6.51536L3.83453 6.17262C3.69736 6.11961 3.54201 6.14637 3.43024 6.24196L3.05133 6.56618C2.83392 6.75223 2.5275 6.79442 2.26813 6.6736C1.90286 6.50327 1.74449 6.06918 1.91461 5.70387L2.81891 3.76442C2.98929 3.39904 3.42423 3.24053 3.78961 3.4109C4.04886 3.53194 4.21329 3.79373 4.21051 4.07985L4.20563 4.57887C4.20428 4.72599 4.28377 4.8624 4.41266 4.93336L4.88419 5.19245C5.00274 5.25758 5.1504 5.18872 5.17669 5.05604L5.41656 3.84547C5.44513 3.70102 5.39161 3.55231 5.27789 3.45876L4.89215 3.14137C4.6713 2.95949 4.57688 2.66482 4.65094 2.38844C4.75536 1.99914 5.15612 1.76849 5.54547 1.87282Z" fill="white"/>
</g>
<defs>
<filter id="filter0_i_1229_69" x="0" y="0" width="10" height="10" filterUnits="userSpaceOnUse" color-interpolation-filters="sRGB">
<feFlood flood-opacity="0" result="BackgroundImageFix"/>
<feBlend mode="normal" in="SourceGraphic" in2="BackgroundImageFix" result="shape"/>
<feColorMatrix in="SourceAlpha" type="matrix" values="0 0 0 0 0 0 0 0 0 0 0 0 0 0 0 0 0 0 127 0" result="hardAlpha"/>
<feOffset/>
<feGaussianBlur stdDeviation="1"/>
<feComposite in2="hardAlpha" operator="arithmetic" k2="-1" k3="1"/>
<feColorMatrix type="matrix" values="0 0 0 0 0.942 0 0 0 0 0.94 0 0 0 0 1 0 0 0 0.1 0"/>
<feBlend mode="hard-light" in2="shape" result="effect1_innerShadow_1229_69"/>
</filter>
</defs>
</svg>
