<svg width="10" height="10" viewBox="0 0 10 10" fill="none" xmlns="http://www.w3.org/2000/svg">
<g filter="url(#filter0_i_1079_407)">
<path d="M6.30598 6.85021C6.44455 7.06796 6.51383 7.17683 6.48579 7.29911C6.48228 7.31443 6.47567 7.33482 6.46953 7.34928C6.42051 7.46476 6.3154 7.5064 6.10517 7.58969C5.75662 7.72778 5.38364 7.8 5.00545 7.80066C4.62724 7.80131 4.254 7.73017 3.90496 7.59314C3.69429 7.51043 3.58896 7.46908 3.53959 7.35371C3.53341 7.33926 3.52674 7.31888 3.52318 7.30357C3.49479 7.18133 3.56384 7.07221 3.70193 6.85395L3.81412 6.67663C3.93541 6.48492 3.99606 6.38907 4.07222 6.35175C4.08633 6.34483 4.09126 6.34278 4.10611 6.33764C4.18626 6.3099 4.33848 6.34359 4.64294 6.41098C4.76079 6.43706 4.88169 6.45029 5.00349 6.45007C5.12506 6.44984 5.24569 6.43626 5.36323 6.4099C5.66786 6.34157 5.82017 6.3074 5.9004 6.33493C5.91527 6.34003 5.9202 6.34207 5.93434 6.34895C6.01061 6.38607 6.07156 6.48184 6.19346 6.67339L6.30598 6.85021ZM5.00056 3.90027C5.4975 3.90028 5.90078 4.30278 5.90096 4.79968C5.90096 5.29673 5.49761 5.70006 5.00056 5.70007C4.50351 5.70007 4.10017 5.29674 4.10017 4.79968C4.10035 4.30277 4.50362 3.90027 5.00056 3.90027ZM3.98576 2.82623C4.08929 3.02804 4.14106 3.12894 4.13451 3.21353C4.1333 3.22919 4.13256 3.23451 4.12944 3.2499C4.11261 3.33306 4.00633 3.44694 3.79376 3.6747C3.71131 3.76304 3.63842 3.86056 3.57674 3.9657C3.51523 4.07062 3.4658 4.18156 3.429 4.29637C3.33382 4.59333 3.28623 4.74181 3.22178 4.79709C3.20985 4.80732 3.20556 4.81057 3.19247 4.81926C3.12174 4.86625 3.00829 4.87019 2.7814 4.87808L2.57208 4.88535C2.31408 4.89432 2.18508 4.89881 2.09393 4.81263C2.08251 4.80183 2.06829 4.7858 2.05894 4.77317C1.98429 4.67236 2.00171 4.56061 2.03655 4.33711C2.09432 3.96657 2.22123 3.60842 2.41267 3.2821C2.60405 2.95592 2.85471 2.67026 3.14987 2.43895C3.32802 2.29933 3.4171 2.22952 3.54162 2.24554C3.55721 2.24755 3.57817 2.25215 3.59317 2.25685C3.71296 2.29445 3.77192 2.40938 3.88984 2.63924L3.98576 2.82623ZM6.10324 2.63507C6.22038 2.40489 6.27896 2.2898 6.39861 2.25181C6.4136 2.24706 6.43454 2.24239 6.45012 2.24033C6.57459 2.2239 6.66386 2.29339 6.8424 2.43237C7.1384 2.66277 7.39005 2.94774 7.5826 3.27332C7.77512 3.59889 7.90336 3.95638 7.9625 4.32654C7.99818 4.54986 8.01602 4.66152 7.94173 4.76261C7.93242 4.77527 7.91826 4.79137 7.90688 4.8022C7.81604 4.88872 7.68703 4.88471 7.42903 4.87667L7.21987 4.87016C6.99296 4.8631 6.87951 4.85956 6.80866 4.81292C6.79553 4.80428 6.79126 4.80107 6.77929 4.79089C6.71467 4.73594 6.66632 4.58756 6.56963 4.29081C6.53229 4.17621 6.48237 4.0655 6.42049 3.96082C6.35846 3.85593 6.28534 3.75866 6.20271 3.67058C5.98934 3.44314 5.88266 3.32942 5.8656 3.24636C5.86244 3.23097 5.86169 3.22568 5.86043 3.21002C5.85364 3.1255 5.90509 3.02441 6.00799 2.82223L6.10324 2.63507Z" fill="white"/>
</g>
<defs>
<filter id="filter0_i_1079_407" x="0" y="0" width="10" height="10" filterUnits="userSpaceOnUse" color-interpolation-filters="sRGB">
<feFlood flood-opacity="0" result="BackgroundImageFix"/>
<feBlend mode="normal" in="SourceGraphic" in2="BackgroundImageFix" result="shape"/>
<feColorMatrix in="SourceAlpha" type="matrix" values="0 0 0 0 0 0 0 0 0 0 0 0 0 0 0 0 0 0 127 0" result="hardAlpha"/>
<feOffset/>
<feGaussianBlur stdDeviation="1"/>
<feComposite in2="hardAlpha" operator="arithmetic" k2="-1" k3="1"/>
<feColorMatrix type="matrix" values="0 0 0 0 0.942 0 0 0 0 0.94 0 0 0 0 1 0 0 0 0.1 0"/>
<feBlend mode="hard-light" in2="shape" result="effect1_innerShadow_1079_407"/>
</filter>
</defs>
</svg>
