<svg width="10" height="10" viewBox="0 0 10 10" fill="none" xmlns="http://www.w3.org/2000/svg">
<g filter="url(#filter0_i_1142_1541)">
<path d="M5 2C6.65685 2 8 3.34315 8 5C8 6.65685 6.65685 8 5 8C3.34315 8 2 6.65685 2 5C2 3.34315 3.34315 2 5 2ZM6.01172 3.27539C5.61045 3.03999 5.13991 2.95112 4.68066 3.02539C4.22124 3.0998 3.80168 3.33244 3.49512 3.68262C3.18857 4.03279 3.01397 4.47912 3.00098 4.94434C2.98802 5.4095 3.13733 5.86474 3.42383 6.23145C3.71031 6.59812 4.11587 6.85315 4.57031 6.95312C5.02476 7.05304 5.50019 6.99191 5.91406 6.7793C6.17853 6.64338 6.4073 6.45037 6.58594 6.21777C6.75394 5.99882 6.63257 5.69963 6.37891 5.59082C6.12524 5.4821 5.83527 5.61569 5.61816 5.78613C5.56832 5.82529 5.51409 5.86032 5.45703 5.88965C5.25009 5.99596 5.01238 6.02652 4.78516 5.97656C4.55793 5.92657 4.35515 5.79857 4.21191 5.61523C4.0688 5.43191 3.99351 5.20417 4 4.97168C4.00658 4.73923 4.09488 4.51678 4.24805 4.3418C4.40127 4.16677 4.61023 4.04994 4.83984 4.0127C5.06954 3.97549 5.30516 4.01996 5.50586 4.1377C5.56119 4.17016 5.61355 4.20715 5.66113 4.24902C5.8683 4.43133 6.14985 4.58142 6.40918 4.4873C6.66867 4.39286 6.80708 4.10012 6.65137 3.87207C6.48602 3.62999 6.26809 3.4258 6.01172 3.27539Z" fill="white"/>
</g>
<defs>
<filter id="filter0_i_1142_1541" x="0" y="0" width="10" height="10" filterUnits="userSpaceOnUse" color-interpolation-filters="sRGB">
<feFlood flood-opacity="0" result="BackgroundImageFix"/>
<feBlend mode="normal" in="SourceGraphic" in2="BackgroundImageFix" result="shape"/>
<feColorMatrix in="SourceAlpha" type="matrix" values="0 0 0 0 0 0 0 0 0 0 0 0 0 0 0 0 0 0 127 0" result="hardAlpha"/>
<feOffset/>
<feGaussianBlur stdDeviation="1"/>
<feComposite in2="hardAlpha" operator="arithmetic" k2="-1" k3="1"/>
<feColorMatrix type="matrix" values="0 0 0 0 0.942 0 0 0 0 0.94 0 0 0 0 1 0 0 0 0.1 0"/>
<feBlend mode="hard-light" in2="shape" result="effect1_innerShadow_1142_1541"/>
</filter>
</defs>
</svg>
