<svg width="10" height="10" viewBox="0 0 10 10" fill="none" xmlns="http://www.w3.org/2000/svg">
<g filter="url(#filter0_i_1142_1624)">
<path d="M3 6.29226C3 5.80185 3.23684 5.34163 3.6359 5.05658L3.81169 4.93102C4.17723 4.66992 4.38095 4.2377 4.34968 3.78957L4.32822 3.48195C4.3262 3.45298 4.31033 3.42677 4.2856 3.41155C4.10811 3.30233 4 3.10885 4 2.90045V2.7712C4 2.44978 4.26056 2.18921 4.58199 2.18921H5.40688C5.73445 2.18921 6 2.45476 6 2.78233V2.91776C6 3.11645 5.9007 3.302 5.73537 3.41222C5.713 3.42713 5.69855 3.45135 5.69606 3.47813L5.66801 3.77967C5.6259 4.23237 5.82755 4.67333 6.19751 4.93759L6.3641 5.05658C6.76316 5.34163 7 5.80185 7 6.29226C7 7.13093 6.32013 7.8108 5.48146 7.8108H4.51853C3.67987 7.8108 3 7.13093 3 6.29226Z" fill="white"/>
</g>
<defs>
<filter id="filter0_i_1142_1624" x="0" y="0" width="10" height="10" filterUnits="userSpaceOnUse" color-interpolation-filters="sRGB">
<feFlood flood-opacity="0" result="BackgroundImageFix"/>
<feBlend mode="normal" in="SourceGraphic" in2="BackgroundImageFix" result="shape"/>
<feColorMatrix in="SourceAlpha" type="matrix" values="0 0 0 0 0 0 0 0 0 0 0 0 0 0 0 0 0 0 127 0" result="hardAlpha"/>
<feOffset/>
<feGaussianBlur stdDeviation="1"/>
<feComposite in2="hardAlpha" operator="arithmetic" k2="-1" k3="1"/>
<feColorMatrix type="matrix" values="0 0 0 0 0.942 0 0 0 0 0.94 0 0 0 0 1 0 0 0 0.1 0"/>
<feBlend mode="hard-light" in2="shape" result="effect1_innerShadow_1142_1624"/>
</filter>
</defs>
</svg>
