<svg width="10" height="10" viewBox="0 0 10 10" fill="none" xmlns="http://www.w3.org/2000/svg">
<g filter="url(#filter0_i_1688_325)">
<path d="M4.2226 2.00567C4.82768 2.06708 5.30062 2.57874 5.30072 3.2L5.29388 3.32207C5.26063 3.65062 5.0944 3.93929 4.85014 4.13484C4.65978 4.28725 4.5646 4.36345 4.53562 4.41745C4.5298 4.42829 4.52881 4.43034 4.52398 4.44166C4.49994 4.49804 4.49994 4.57622 4.49995 4.73258C4.49995 5.26152 4.49994 5.93721 4.49994 6.49981C4.49994 6.88593 4.81272 7.19956 5.19916 7.2C5.58569 7.2 5.89925 6.88632 5.89935 6.49981V5.39996C5.89935 5.17812 5.89935 5.0672 5.92379 5.01042C5.99159 4.85291 6.17738 4.78418 6.33136 4.85963C6.38687 4.88683 6.45907 4.97104 6.60345 5.13946L7.20306 5.83965L7.29197 5.94328C7.33615 5.99477 7.35824 6.02052 7.36963 6.03835C7.48712 6.22233 7.37503 6.4662 7.15889 6.49684C7.13794 6.49981 7.10402 6.49981 7.03617 6.49981C6.98855 6.49981 6.96474 6.49981 6.95229 6.50085C6.80942 6.51276 6.7346 6.57245 6.69126 6.70912C6.68748 6.72102 6.6789 6.75872 6.66172 6.83413C6.50971 7.50158 5.9126 7.99981 5.19916 7.99981C4.37132 7.99936 3.69916 7.32817 3.69916 6.49981C3.69915 5.93721 3.69917 5.26151 3.69916 4.73257C3.69916 4.57634 3.69916 4.49822 3.67516 4.44189C3.67034 4.43057 3.66937 4.42854 3.66355 4.41769C3.63462 4.36373 3.53943 4.28739 3.34904 4.13472C3.10514 3.93913 2.93941 3.65045 2.90619 3.32207L2.90033 3.2C2.90043 2.53735 3.43785 1.99981 4.10052 1.99981L4.2226 2.00567ZM4.10052 2.7C3.82445 2.7 3.60063 2.92395 3.60052 3.2C3.60063 3.47606 3.82445 3.7 4.10052 3.7C4.37633 3.69968 4.60042 3.47586 4.60052 3.2C4.60042 2.92415 4.37633 2.70032 4.10052 2.7Z" fill="white"/>
</g>
<defs>
<filter id="filter0_i_1688_325" x="0" y="0" width="10" height="10" filterUnits="userSpaceOnUse" color-interpolation-filters="sRGB">
<feFlood flood-opacity="0" result="BackgroundImageFix"/>
<feBlend mode="normal" in="SourceGraphic" in2="BackgroundImageFix" result="shape"/>
<feColorMatrix in="SourceAlpha" type="matrix" values="0 0 0 0 0 0 0 0 0 0 0 0 0 0 0 0 0 0 127 0" result="hardAlpha"/>
<feOffset/>
<feGaussianBlur stdDeviation="1"/>
<feComposite in2="hardAlpha" operator="arithmetic" k2="-1" k3="1"/>
<feColorMatrix type="matrix" values="0 0 0 0 0.942 0 0 0 0 0.94 0 0 0 0 1 0 0 0 0.1 0"/>
<feBlend mode="hard-light" in2="shape" result="effect1_innerShadow_1688_325"/>
</filter>
</defs>
</svg>
