<svg width="10" height="10" viewBox="0 0 10 10" fill="none" xmlns="http://www.w3.org/2000/svg">
<g filter="url(#filter0_i_1684_138)">
<path fill-rule="evenodd" clip-rule="evenodd" d="M8.11143 3.1621C8.53538 3.72774 7.97004 4.43449 7.19233 4.50518C6.41452 4.57588 5.91913 4.78817 5.35344 5.35385C4.788 5.91938 4.57617 6.41443 4.50546 7.19205C4.43476 7.96981 3.72733 8.53593 3.16168 8.11184C2.97208 7.96963 2.87779 7.81147 2.83622 7.66403C2.76884 7.42504 2.73515 7.30554 2.71948 7.28818C2.71393 7.28203 2.71841 7.28652 2.71227 7.28097C2.69491 7.26529 2.57533 7.23156 2.33618 7.16409C2.18897 7.12256 2.03107 7.02841 1.88903 6.83919C1.46476 6.27352 2.03036 5.56548 2.80813 5.49472C3.58582 5.42403 4.08078 5.2122 4.64633 4.64674C5.21202 4.08106 5.42429 3.58565 5.495 2.80785C5.56582 2.03016 6.27313 1.46522 6.83878 1.88944C7.02202 2.02696 7.11615 2.17929 7.15967 2.32239C7.23429 2.56772 7.2716 2.69039 7.28666 2.707C7.29226 2.71318 7.28741 2.70833 7.29359 2.71393C7.31021 2.72899 7.43275 2.76624 7.67784 2.84073C7.82117 2.8843 7.97376 2.97854 8.11143 3.1621Z" fill="white"/>
</g>
<defs>
<filter id="filter0_i_1684_138" x="0" y="0" width="10" height="10" filterUnits="userSpaceOnUse" color-interpolation-filters="sRGB">
<feFlood flood-opacity="0" result="BackgroundImageFix"/>
<feBlend mode="normal" in="SourceGraphic" in2="BackgroundImageFix" result="shape"/>
<feColorMatrix in="SourceAlpha" type="matrix" values="0 0 0 0 0 0 0 0 0 0 0 0 0 0 0 0 0 0 127 0" result="hardAlpha"/>
<feOffset/>
<feGaussianBlur stdDeviation="1"/>
<feComposite in2="hardAlpha" operator="arithmetic" k2="-1" k3="1"/>
<feColorMatrix type="matrix" values="0 0 0 0 0.942 0 0 0 0 0.94 0 0 0 0 1 0 0 0 0.1 0"/>
<feBlend mode="hard-light" in2="shape" result="effect1_innerShadow_1684_138"/>
</filter>
</defs>
</svg>
