<svg width="10" height="10" viewBox="0 0 10 10" fill="none" xmlns="http://www.w3.org/2000/svg">
<g filter="url(#filter0_i_1142_1434)">
<path d="M3.87553 1.57034C4.72155 1.82687 6.39995 2.48195 6.39995 3.6426L6.15137 5.71376C6.13022 5.89002 6.27589 6.04215 6.42503 6.13845C6.59036 6.2452 6.69975 6.43106 6.69975 6.6426C6.69966 6.97383 6.43137 7.2421 6.10014 7.24221H5.99975C5.83407 7.24221 5.69975 7.37652 5.69975 7.54221V7.74221C5.69975 8.12881 5.38616 8.44241 4.99956 8.44241C4.61315 8.44218 4.30034 8.12867 4.30034 7.74221V7.54221C4.30034 7.37652 4.16602 7.24221 4.00034 7.24221H3.89995C3.56863 7.24221 3.30043 6.97389 3.30034 6.6426C3.30034 6.35272 3.50553 6.11073 3.77885 6.05471C3.84798 6.04746 3.90089 5.9896 3.90158 5.92009C3.91917 4.14753 3.66479 2.65126 3.51128 1.92092C3.4652 1.70114 3.66059 1.50518 3.87553 1.57034Z" fill="white"/>
</g>
<defs>
<filter id="filter0_i_1142_1434" x="0" y="0" width="10" height="10" filterUnits="userSpaceOnUse" color-interpolation-filters="sRGB">
<feFlood flood-opacity="0" result="BackgroundImageFix"/>
<feBlend mode="normal" in="SourceGraphic" in2="BackgroundImageFix" result="shape"/>
<feColorMatrix in="SourceAlpha" type="matrix" values="0 0 0 0 0 0 0 0 0 0 0 0 0 0 0 0 0 0 127 0" result="hardAlpha"/>
<feOffset/>
<feGaussianBlur stdDeviation="1"/>
<feComposite in2="hardAlpha" operator="arithmetic" k2="-1" k3="1"/>
<feColorMatrix type="matrix" values="0 0 0 0 0.942 0 0 0 0 0.94 0 0 0 0 1 0 0 0 0.1 0"/>
<feBlend mode="hard-light" in2="shape" result="effect1_innerShadow_1142_1434"/>
</filter>
</defs>
</svg>
