<svg width="10" height="10" viewBox="0 0 10 10" fill="none" xmlns="http://www.w3.org/2000/svg">
<g filter="url(#filter0_i_1142_1601)">
<path d="M3.90548 6.43074L3.85492 6.6077C3.75561 6.95528 3.70596 7.12907 3.76424 7.26132C3.78921 7.31797 3.82699 7.36806 3.87461 7.40763C3.98575 7.5 4.16648 7.5 4.52793 7.5H5.59998H6.67202C7.03348 7.5 7.21421 7.5 7.32535 7.40763C7.37297 7.36806 7.41075 7.31797 7.43571 7.26132C7.494 7.12907 7.44434 6.95528 7.34503 6.6077L7.29448 6.43074L7.29447 6.43074C7.28342 6.39204 7.27789 6.37269 7.27136 6.3558C7.21652 6.2139 7.08592 6.11539 6.93441 6.10164C6.91637 6.1 6.89625 6.1 6.856 6.1H6.68569C6.5279 6.1 6.39998 5.97208 6.39998 5.81429V5.76667C6.39998 5.39848 6.69845 5.1 7.06664 5.1C7.80302 5.1 8.39998 4.50305 8.39998 3.76667V2.93333C8.39998 2.90238 8.39998 2.88691 8.39912 2.87384C8.38599 2.67354 8.22644 2.51398 8.02614 2.50086C8.01307 2.5 7.9976 2.5 7.96664 2.5H4.05785C3.97027 2.5 3.92648 2.5 3.88475 2.5035C3.64686 2.52346 3.42397 2.62786 3.25634 2.79783C3.22694 2.82765 3.19891 2.86129 3.14284 2.92857L3.14284 2.92857C3.12041 2.95549 3.10919 2.96894 3.09743 2.98087C3.03038 3.04886 2.94122 3.09062 2.84607 3.0986C2.82938 3.1 2.81186 3.1 2.77683 3.1H2.08727C2.00617 3.1 1.96561 3.1 1.93175 3.10586C1.76515 3.1347 1.63468 3.26517 1.60584 3.43177C1.59998 3.46563 1.59998 3.50619 1.59998 3.58729C1.59998 3.63306 1.59998 3.65595 1.6023 3.67743C1.61354 3.7812 1.6649 3.87647 1.74542 3.9429C1.76208 3.95665 1.7812 3.96923 1.81945 3.99439L2.84883 4.67161L2.84884 4.67162C2.99825 4.76992 3.07296 4.81907 3.15022 4.86069C3.38962 4.98968 3.65281 5.06849 3.9237 5.09231C4.01112 5.1 4.10055 5.1 4.27941 5.1H4.29998C4.39291 5.1 4.43937 5.1 4.47801 5.10769C4.63669 5.13925 4.76073 5.26329 4.79229 5.42196C4.79998 5.4606 4.79998 5.50707 4.79998 5.6V5.64398C4.79998 5.69601 4.79998 5.72202 4.79756 5.74391C4.777 5.93006 4.63004 6.07702 4.44389 6.09758C4.422 6.1 4.39598 6.1 4.34396 6.1C4.30371 6.1 4.28358 6.1 4.26554 6.10164C4.11403 6.11539 3.98344 6.2139 3.9286 6.3558C3.92207 6.3727 3.91654 6.39205 3.90548 6.43074Z" fill="white"/>
</g>
<defs>
<filter id="filter0_i_1142_1601" x="0" y="0" width="10" height="10" filterUnits="userSpaceOnUse" color-interpolation-filters="sRGB">
<feFlood flood-opacity="0" result="BackgroundImageFix"/>
<feBlend mode="normal" in="SourceGraphic" in2="BackgroundImageFix" result="shape"/>
<feColorMatrix in="SourceAlpha" type="matrix" values="0 0 0 0 0 0 0 0 0 0 0 0 0 0 0 0 0 0 127 0" result="hardAlpha"/>
<feOffset/>
<feGaussianBlur stdDeviation="1"/>
<feComposite in2="hardAlpha" operator="arithmetic" k2="-1" k3="1"/>
<feColorMatrix type="matrix" values="0 0 0 0 0.942 0 0 0 0 0.94 0 0 0 0 1 0 0 0 0.1 0"/>
<feBlend mode="hard-light" in2="shape" result="effect1_innerShadow_1142_1601"/>
</filter>
</defs>
</svg>
