<svg width="10" height="10" viewBox="0 0 10 10" fill="none" xmlns="http://www.w3.org/2000/svg">
<g filter="url(#filter0_i_1142_1562)">
<path d="M2.52345 5.93389L2.64379 3.96851C2.65961 3.71013 2.66752 3.58094 2.70278 3.46664C2.77013 3.24836 2.91018 3.05971 3.09963 2.93209C3.19885 2.86525 3.32022 2.8203 3.56296 2.7304C4.03026 2.55732 4.26391 2.47079 4.43892 2.48434C4.77704 2.51052 5.06191 2.74704 5.14981 3.07458C5.19531 3.24412 5.15321 3.48969 5.06901 3.98085L5.02635 4.22968C4.94637 4.69626 4.90637 4.92955 4.95759 5.13393C5.00383 5.31847 5.10176 5.48599 5.23987 5.61683C5.39283 5.76173 5.61574 5.84134 6.06155 6.00055L6.77876 6.2567C7.23232 6.41869 7.46869 6.91769 7.3067 7.37125C7.18275 7.71832 6.854 7.95 6.48545 7.95H4.4199C3.52562 7.95 3.07848 7.95 2.79299 7.69225C2.75259 7.65578 2.71524 7.61607 2.6813 7.57352C2.44148 7.2728 2.4688 6.8265 2.52345 5.93389Z" fill="white"/>
</g>
<defs>
<filter id="filter0_i_1142_1562" x="0" y="0" width="10" height="10" filterUnits="userSpaceOnUse" color-interpolation-filters="sRGB">
<feFlood flood-opacity="0" result="BackgroundImageFix"/>
<feBlend mode="normal" in="SourceGraphic" in2="BackgroundImageFix" result="shape"/>
<feColorMatrix in="SourceAlpha" type="matrix" values="0 0 0 0 0 0 0 0 0 0 0 0 0 0 0 0 0 0 127 0" result="hardAlpha"/>
<feOffset/>
<feGaussianBlur stdDeviation="1"/>
<feComposite in2="hardAlpha" operator="arithmetic" k2="-1" k3="1"/>
<feColorMatrix type="matrix" values="0 0 0 0 0.942 0 0 0 0 0.94 0 0 0 0 1 0 0 0 0.1 0"/>
<feBlend mode="hard-light" in2="shape" result="effect1_innerShadow_1142_1562"/>
</filter>
</defs>
</svg>
