<svg width="10" height="10" viewBox="0 0 10 10" fill="none" xmlns="http://www.w3.org/2000/svg">
<g filter="url(#filter0_i_1149_76)">
<path d="M5.00049 2.3501C5.75018 2.3501 6.12536 2.35055 6.38818 2.5415C6.47276 2.60304 6.54737 2.67761 6.60889 2.76221C6.74438 2.9489 6.78346 3.19247 6.79474 3.58652C6.80037 3.78309 6.80319 3.88138 6.85052 3.94475C6.85826 3.95511 6.86362 3.96135 6.87269 3.97056C6.92819 4.02693 7.03985 4.04727 7.26317 4.08795C7.41265 4.11518 7.52606 4.16184 7.61963 4.2417C7.65139 4.26885 7.68136 4.2988 7.7085 4.33057C7.8999 4.55494 7.8999 4.89364 7.8999 5.56982V6.13037C7.8999 6.8066 7.89998 7.14527 7.7085 7.36963C7.68136 7.40138 7.65139 7.43137 7.61963 7.4585C7.39523 7.64993 7.0567 7.6499 6.38037 7.6499H3.61963C2.94342 7.6499 2.60474 7.64994 2.38037 7.4585C2.34865 7.43139 2.31862 7.40135 2.2915 7.36963C2.1001 7.14527 2.1001 6.8065 2.1001 6.13037V5.56982C2.1001 4.8937 2.10015 4.55494 2.2915 4.33057C2.31865 4.29878 2.3486 4.26886 2.38037 4.2417C2.47374 4.16197 2.5869 4.11534 2.73594 4.08809C2.95925 4.04726 3.07091 4.02684 3.12635 3.97054C3.13542 3.96133 3.14076 3.95511 3.1485 3.94476C3.19579 3.88145 3.19867 3.78316 3.20444 3.58659C3.216 3.19251 3.25563 2.9489 3.39111 2.76221C3.45271 2.67748 3.52807 2.6031 3.61279 2.5415C3.87565 2.35067 4.25075 2.3501 5.00049 2.3501ZM5.00049 4.6499C4.77957 4.6499 4.6001 4.82938 4.6001 5.05029V5.1001C4.6001 5.23956 4.6001 5.30929 4.57306 5.3626C4.54903 5.40996 4.51055 5.44845 4.46319 5.47247C4.40987 5.49951 4.34014 5.49951 4.20068 5.49951C3.97978 5.49951 3.80031 5.679 3.80029 5.8999C3.80029 6.12082 3.97977 6.30029 4.20068 6.30029H4.25049C4.34319 6.30029 4.38954 6.30029 4.42706 6.31243C4.50341 6.33714 4.56325 6.39699 4.58796 6.47333C4.6001 6.51085 4.6001 6.5572 4.6001 6.6499C4.6001 6.87081 4.77958 7.05029 5.00049 7.05029C5.22139 7.05028 5.40088 6.87081 5.40088 6.6499C5.40088 6.5572 5.40088 6.51085 5.41302 6.47333C5.43772 6.39699 5.49757 6.33714 5.57392 6.31243C5.61144 6.30029 5.65779 6.30029 5.75049 6.30029H5.80029C6.02119 6.30027 6.20068 6.1208 6.20068 5.8999C6.20067 5.67901 6.02118 5.49954 5.80029 5.49951C5.66083 5.49951 5.5911 5.49951 5.53779 5.47247C5.49043 5.44845 5.45194 5.40996 5.42792 5.3626C5.40088 5.30929 5.40088 5.23956 5.40088 5.1001V5.05029C5.40088 4.82939 5.22139 4.64992 5.00049 4.6499ZM5.00049 3.1499C4.52951 3.1499 4.29344 3.15033 4.14697 3.29639C4.07867 3.36481 4.04244 3.45287 4.02321 3.57532C3.99313 3.76683 3.97809 3.86259 4.03764 3.94579C4.04527 3.95645 4.05631 3.96936 4.06566 3.97855C4.13862 4.05029 4.25152 4.05029 4.47732 4.05029H5.52366C5.74946 4.05029 5.86236 4.05029 5.93532 3.97856C5.94467 3.96936 5.95571 3.95646 5.96334 3.94579C6.02289 3.86259 6.00785 3.76683 5.97778 3.57532C5.95855 3.45287 5.92232 3.36482 5.854 3.29639C5.7076 3.14998 5.47164 3.1499 5.00049 3.1499Z" fill="white"/>
</g>
<defs>
<filter id="filter0_i_1149_76" x="0" y="0" width="10" height="10" filterUnits="userSpaceOnUse" color-interpolation-filters="sRGB">
<feFlood flood-opacity="0" result="BackgroundImageFix"/>
<feBlend mode="normal" in="SourceGraphic" in2="BackgroundImageFix" result="shape"/>
<feColorMatrix in="SourceAlpha" type="matrix" values="0 0 0 0 0 0 0 0 0 0 0 0 0 0 0 0 0 0 127 0" result="hardAlpha"/>
<feOffset/>
<feGaussianBlur stdDeviation="1"/>
<feComposite in2="hardAlpha" operator="arithmetic" k2="-1" k3="1"/>
<feColorMatrix type="matrix" values="0 0 0 0 0.942 0 0 0 0 0.94 0 0 0 0 1 0 0 0 0.1 0"/>
<feBlend mode="hard-light" in2="shape" result="effect1_innerShadow_1149_76"/>
</filter>
</defs>
</svg>
