<svg width="10" height="10" viewBox="0 0 10 10" fill="none" xmlns="http://www.w3.org/2000/svg">
<g filter="url(#filter0_i_1142_1595)">
<path d="M5 2C6.54623 2 7.79954 3.25363 7.7998 4.7998C7.7998 5.42926 7.59144 6.00972 7.24072 6.47727C7.20361 6.52676 7.23795 6.59961 7.2998 6.59961C7.68627 6.59961 7.99979 6.91338 8 7.2998C7.99979 7.68622 7.68627 8 7.2998 8H2.7002C2.31386 7.99984 2.00021 7.68613 2 7.2998C2.00021 6.91348 2.31386 6.59977 2.7002 6.59961C2.76206 6.59961 2.79641 6.52675 2.75929 6.47726C2.40867 6.00972 2.2002 5.42913 2.2002 4.7998C2.20046 3.25373 3.4539 2.00016 5 2ZM5.22363 2.92383C5.09154 2.83851 4.92214 2.83852 4.79004 2.92383C4.6778 2.99636 4.59577 3.21808 4.43262 3.66211C4.39951 3.75221 4.38272 3.79744 4.35742 3.83594C4.3275 3.88144 4.28866 3.92026 4.24316 3.9502C4.20467 3.97549 4.15944 3.99228 4.06934 4.02539C3.62525 4.18856 3.40361 4.27057 3.33105 4.38281C3.24569 4.51491 3.24574 4.68428 3.33105 4.81641C3.40359 4.92865 3.62526 5.01066 4.06934 5.17383C4.15944 5.20694 4.20467 5.22373 4.24316 5.24902C4.28865 5.27894 4.32749 5.3178 4.35742 5.36328C4.38272 5.40178 4.39951 5.44701 4.43262 5.53711C4.59581 5.98126 4.67778 6.20285 4.79004 6.27539C4.92218 6.36078 5.09149 6.36078 5.22363 6.27539C5.33589 6.20285 5.41786 5.98126 5.58105 5.53711C5.61416 5.44701 5.63095 5.40178 5.65625 5.36328C5.68618 5.3178 5.72502 5.27894 5.77051 5.24902C5.809 5.22373 5.85423 5.20694 5.94434 5.17383C6.3884 5.01066 6.61008 4.92865 6.68262 4.81641C6.76793 4.68428 6.76798 4.51491 6.68262 4.38281C6.61007 4.27057 6.38842 4.18856 5.94434 4.02539C5.85423 3.99228 5.809 3.97549 5.77051 3.9502C5.72501 3.92026 5.68618 3.88144 5.65625 3.83594C5.63095 3.79744 5.61416 3.75221 5.58105 3.66211C5.4179 3.21807 5.33587 2.99636 5.22363 2.92383Z" fill="white"/>
</g>
<defs>
<filter id="filter0_i_1142_1595" x="0" y="0" width="10" height="10" filterUnits="userSpaceOnUse" color-interpolation-filters="sRGB">
<feFlood flood-opacity="0" result="BackgroundImageFix"/>
<feBlend mode="normal" in="SourceGraphic" in2="BackgroundImageFix" result="shape"/>
<feColorMatrix in="SourceAlpha" type="matrix" values="0 0 0 0 0 0 0 0 0 0 0 0 0 0 0 0 0 0 127 0" result="hardAlpha"/>
<feOffset/>
<feGaussianBlur stdDeviation="1"/>
<feComposite in2="hardAlpha" operator="arithmetic" k2="-1" k3="1"/>
<feColorMatrix type="matrix" values="0 0 0 0 0.942 0 0 0 0 0.94 0 0 0 0 1 0 0 0 0.1 0"/>
<feBlend mode="hard-light" in2="shape" result="effect1_innerShadow_1142_1595"/>
</filter>
</defs>
</svg>
