<svg width="10" height="10" viewBox="0 0 10 10" fill="none" xmlns="http://www.w3.org/2000/svg">
<g filter="url(#filter0_i_1142_1494)">
<path d="M4.99976 1.6504C5.38624 1.6504 5.69976 1.96318 5.69995 2.34962C5.69995 2.38756 5.72712 2.42007 5.76428 2.42779C6.82553 2.64826 7.58649 3.31912 7.87378 4.12598C7.9649 4.38191 8.01044 4.51011 7.9314 4.59864C7.92165 4.60952 7.90731 4.62161 7.89526 4.62989C7.79729 4.69721 7.65309 4.62358 7.36401 4.47657C7.14245 4.36389 6.8722 4.24208 6.56832 4.13606C6.22876 4.01759 6.05898 3.95836 5.90042 4.04962C5.88033 4.06118 5.85588 4.07855 5.83834 4.09371C5.69995 4.21335 5.69995 4.41173 5.69995 4.80849V7.6504C5.69972 8.0368 5.38621 8.34962 4.99976 8.34962C4.61338 8.34952 4.29979 8.03674 4.29956 7.6504V4.80956C4.29956 4.41273 4.29956 4.21432 4.16122 4.09468C4.14369 4.07951 4.11925 4.06215 4.09916 4.05058C3.94066 3.95931 3.77079 4.0185 3.43105 4.13689C3.12765 4.2426 2.85779 4.36404 2.63647 4.47657C2.34741 4.62358 2.20222 4.69721 2.10425 4.62989C2.0923 4.62164 2.07877 4.60943 2.06909 4.59864C1.9898 4.51011 2.03456 4.38205 2.12573 4.12598C2.41299 3.3192 3.17414 2.64835 4.23524 2.42779C4.27239 2.42007 4.29956 2.38756 4.29956 2.34962C4.29975 1.96324 4.61335 1.65049 4.99976 1.6504Z" fill="white"/>
</g>
<defs>
<filter id="filter0_i_1142_1494" x="0" y="0" width="10" height="10" filterUnits="userSpaceOnUse" color-interpolation-filters="sRGB">
<feFlood flood-opacity="0" result="BackgroundImageFix"/>
<feBlend mode="normal" in="SourceGraphic" in2="BackgroundImageFix" result="shape"/>
<feColorMatrix in="SourceAlpha" type="matrix" values="0 0 0 0 0 0 0 0 0 0 0 0 0 0 0 0 0 0 127 0" result="hardAlpha"/>
<feOffset/>
<feGaussianBlur stdDeviation="1"/>
<feComposite in2="hardAlpha" operator="arithmetic" k2="-1" k3="1"/>
<feColorMatrix type="matrix" values="0 0 0 0 0.942 0 0 0 0 0.94 0 0 0 0 1 0 0 0 0.1 0"/>
<feBlend mode="hard-light" in2="shape" result="effect1_innerShadow_1142_1494"/>
</filter>
</defs>
</svg>
