<svg width="10" height="10" viewBox="0 0 10 10" fill="none" xmlns="http://www.w3.org/2000/svg">
<g filter="url(#filter0_i_1261_75)">
<path d="M5.95389 1.89999H4.0461C3.1565 1.89999 2.7117 1.89999 2.53315 2.16292C2.5088 2.19878 2.48841 2.23717 2.47233 2.27742C2.35443 2.57256 2.60346 2.94112 3.10151 3.67823L4.07431 5.11799L4.07431 5.11799C4.22736 5.3445 4.30388 5.45775 4.34706 5.58513C4.35342 5.60389 4.35922 5.62284 4.36446 5.64194C4.39999 5.77166 4.39999 5.90835 4.39999 6.18172V7.09999C4.39999 7.44401 4.39999 7.61602 4.47807 7.70186C4.52831 7.75709 4.59733 7.7916 4.67166 7.79865C4.78717 7.80961 4.92478 7.70641 5.19999 7.49999L5.2 7.49999C5.35651 7.3826 5.43477 7.32391 5.48895 7.24773C5.52485 7.19725 5.55272 7.14152 5.57156 7.08251C5.59999 6.99347 5.59999 6.89564 5.59999 6.69999V6.18172C5.59999 5.90835 5.59999 5.77166 5.63553 5.64194C5.64076 5.62284 5.64657 5.60389 5.65292 5.58513C5.6961 5.45775 5.77263 5.3445 5.92567 5.11799L5.92567 5.11799L6.89848 3.67823C7.39653 2.94112 7.64555 2.57256 7.52765 2.27742C7.51158 2.23717 7.49118 2.19878 7.46683 2.16292C7.28829 1.89999 6.84349 1.89999 5.95389 1.89999Z" fill="white"/>
</g>
<defs>
<filter id="filter0_i_1261_75" x="0" y="0" width="10" height="10" filterUnits="userSpaceOnUse" color-interpolation-filters="sRGB">
<feFlood flood-opacity="0" result="BackgroundImageFix"/>
<feBlend mode="normal" in="SourceGraphic" in2="BackgroundImageFix" result="shape"/>
<feColorMatrix in="SourceAlpha" type="matrix" values="0 0 0 0 0 0 0 0 0 0 0 0 0 0 0 0 0 0 127 0" result="hardAlpha"/>
<feOffset/>
<feGaussianBlur stdDeviation="1"/>
<feComposite in2="hardAlpha" operator="arithmetic" k2="-1" k3="1"/>
<feColorMatrix type="matrix" values="0 0 0 0 0.942 0 0 0 0 0.94 0 0 0 0 1 0 0 0 0.1 0"/>
<feBlend mode="hard-light" in2="shape" result="effect1_innerShadow_1261_75"/>
</filter>
</defs>
</svg>
