<svg width="10" height="10" viewBox="0 0 10 10" fill="none" xmlns="http://www.w3.org/2000/svg">
<g filter="url(#filter0_i_1142_1498)">
<path d="M4.95013 1.65038C5.33655 1.65045 5.65014 1.9632 5.65033 2.34959C5.65033 2.46016 5.73996 2.54979 5.85052 2.54979H6.2099C6.71724 2.54979 6.97127 2.54978 7.13959 2.69334C7.16349 2.71376 7.18558 2.73683 7.20599 2.76073C7.34964 2.92904 7.34955 3.18298 7.34955 3.69041V3.80955C7.34955 4.31699 7.34964 4.57092 7.20599 4.73924C7.18558 4.76314 7.16349 4.78621 7.13959 4.80663C6.97127 4.95019 6.71724 4.95018 6.2099 4.95018C6.0614 4.95018 5.98715 4.95018 5.92704 4.96965C5.80501 5.00919 5.70934 5.10486 5.6698 5.22689C5.65033 5.287 5.65033 5.36125 5.65033 5.50975V7.65038C5.6501 8.03673 5.33652 8.34952 4.95013 8.34959C4.56368 8.34959 4.25017 8.03677 4.24994 7.65038V5.41014C4.24994 5.35445 4.24994 5.32661 4.24717 5.3032C4.22544 5.11951 4.08061 4.97468 3.89692 4.95295C3.87351 4.95018 3.84567 4.95018 3.78998 4.95018C3.2826 4.95018 3.02861 4.95022 2.86029 4.80663C2.83639 4.78621 2.8143 4.76314 2.79388 4.73924C2.65026 4.57092 2.65033 4.31696 2.65033 3.80955V3.69041C2.65033 3.18301 2.65027 2.92904 2.79388 2.76073C2.8143 2.73683 2.83639 2.71376 2.86029 2.69334C3.02861 2.54975 3.2826 2.54979 3.78998 2.54979H4.04974C4.16031 2.54979 4.24994 2.46016 4.24994 2.34959C4.25013 1.96316 4.56365 1.65038 4.95013 1.65038Z" fill="white"/>
</g>
<defs>
<filter id="filter0_i_1142_1498" x="0" y="0" width="10" height="10" filterUnits="userSpaceOnUse" color-interpolation-filters="sRGB">
<feFlood flood-opacity="0" result="BackgroundImageFix"/>
<feBlend mode="normal" in="SourceGraphic" in2="BackgroundImageFix" result="shape"/>
<feColorMatrix in="SourceAlpha" type="matrix" values="0 0 0 0 0 0 0 0 0 0 0 0 0 0 0 0 0 0 127 0" result="hardAlpha"/>
<feOffset/>
<feGaussianBlur stdDeviation="1"/>
<feComposite in2="hardAlpha" operator="arithmetic" k2="-1" k3="1"/>
<feColorMatrix type="matrix" values="0 0 0 0 0.942 0 0 0 0 0.94 0 0 0 0 1 0 0 0 0.1 0"/>
<feBlend mode="hard-light" in2="shape" result="effect1_innerShadow_1142_1498"/>
</filter>
</defs>
</svg>
