<svg width="10" height="10" viewBox="0 0 10 10" fill="none" xmlns="http://www.w3.org/2000/svg">
<g filter="url(#filter0_i_1735_483)">
<path d="M3.00062 7.19963C2.94997 7.07296 3.06727 6.94766 3.20225 6.96743C3.33685 6.98714 3.47991 7.00372 3.6266 7.01701C4.05318 7.05562 4.54963 7.07463 5.03871 7.07463C5.52756 7.0746 6.01768 7.05573 6.43227 7.01701C6.55933 7.00513 6.68402 6.99026 6.80244 6.97261C6.93448 6.95293 7.05016 7.07567 7.00062 7.19963C6.91723 7.40811 6.71153 7.57223 6.4353 7.69351C6.34432 7.73345 6.27774 7.81654 6.2682 7.91545C6.23747 8.22275 6.22244 8.37652 6.12758 8.476C6.11403 8.4902 6.09911 8.503 6.08363 8.51506C5.97522 8.59953 5.82111 8.60002 5.51234 8.60002H4.48793C4.17921 8.60002 4.02506 8.59946 3.91664 8.51506C3.90119 8.50302 3.88622 8.49017 3.8727 8.476C3.77783 8.37652 3.7628 8.22275 3.73207 7.91545C3.72193 7.81643 3.65505 7.73347 3.56396 7.69334C3.28854 7.57202 3.08389 7.40779 3.00062 7.19963ZM7.01918 5.44182C7.15458 5.41666 7.28751 5.51917 7.27875 5.6566C7.26945 5.80238 7.257 5.94533 7.24156 6.08351C7.23668 6.12716 7.20315 6.16095 7.16273 6.17815C7.04416 6.22884 6.76982 6.28207 6.36684 6.31975C5.97894 6.35597 5.51158 6.37441 5.03871 6.37444C4.56584 6.37444 4.09132 6.35606 3.69008 6.31975C3.27777 6.2824 2.97576 6.22815 2.82387 6.17131C2.79066 6.15886 2.76332 6.1328 2.75932 6.09755C2.74322 5.95563 2.73027 5.80857 2.72067 5.65851C2.71183 5.52025 2.84586 5.41653 2.98207 5.44182C3.14771 5.47253 3.34409 5.49772 3.55629 5.51701C3.98179 5.55567 4.49344 5.57463 5.00062 5.57463C5.50787 5.57461 6.01949 5.55569 6.44496 5.51701C6.65717 5.4977 6.85357 5.47254 7.01918 5.44182ZM6.84047 3.94084C7.03876 3.90116 7.25599 4.0287 7.27115 4.23036C7.27769 4.31749 7.2831 4.40583 7.28737 4.49496C7.29144 4.58006 7.2205 4.64808 7.14418 4.68596C7.11528 4.70041 7.03606 4.72643 6.89125 4.75334C6.75421 4.77876 6.58091 4.8016 6.38148 4.81975C5.98241 4.85602 5.49279 4.87442 5.00062 4.87444C4.50849 4.87443 4.01889 4.856 3.61977 4.81975C3.42025 4.80161 3.24712 4.77876 3.11 4.75334C2.96529 4.72649 2.88631 4.70047 2.85707 4.68596C2.77993 4.6475 2.70789 4.57912 2.71202 4.49302C2.71626 4.40488 2.72161 4.3175 2.72808 4.2313C2.74324 4.02928 2.96115 3.90109 3.1598 3.94084C3.31497 3.97185 3.49596 3.99661 3.69008 4.01604C4.07918 4.05494 4.54151 4.07461 4.99965 4.07463C5.45791 4.07462 5.92098 4.05495 6.3102 4.01604C6.50433 3.99661 6.6853 3.97186 6.84047 3.94084ZM5.51234 1.39983C5.82108 1.39983 5.97522 1.40035 6.08363 1.48479C6.0991 1.49684 6.11405 1.50966 6.12758 1.52385C6.22244 1.62332 6.23747 1.7771 6.2682 2.0844C6.27774 2.18272 6.34396 2.26529 6.4344 2.305C6.71117 2.42651 6.91707 2.59145 7.00062 2.80022C7.02359 2.85768 7.04454 2.91999 7.06426 2.98636C7.08861 3.06837 7.02061 3.14792 6.94398 3.18596C6.91146 3.2022 6.83508 3.22801 6.70375 3.25432C6.57801 3.27946 6.42016 3.30171 6.23988 3.31975C5.87942 3.35577 5.44087 3.37443 4.99965 3.37444C4.55844 3.37442 4.11983 3.35578 3.75941 3.31975C3.57935 3.30172 3.42215 3.27943 3.29652 3.25432C3.16518 3.22801 3.08886 3.20221 3.05629 3.18596C2.97932 3.1477 2.91096 3.06782 2.93606 2.98562C2.95624 2.91955 2.97771 2.85753 3.00062 2.80022C3.08411 2.59187 3.28897 2.42673 3.56486 2.30517C3.65541 2.26527 3.72193 2.18283 3.73207 2.0844C3.7628 1.77711 3.77783 1.62332 3.8727 1.52385C3.88621 1.50968 3.9012 1.49682 3.91664 1.48479C4.02506 1.40039 4.17922 1.39983 4.48793 1.39983H5.51234Z" fill="white"/>
</g>
<defs>
<filter id="filter0_i_1735_483" x="0" y="0" width="10" height="10" filterUnits="userSpaceOnUse" color-interpolation-filters="sRGB">
<feFlood flood-opacity="0" result="BackgroundImageFix"/>
<feBlend mode="normal" in="SourceGraphic" in2="BackgroundImageFix" result="shape"/>
<feColorMatrix in="SourceAlpha" type="matrix" values="0 0 0 0 0 0 0 0 0 0 0 0 0 0 0 0 0 0 127 0" result="hardAlpha"/>
<feOffset/>
<feGaussianBlur stdDeviation="1"/>
<feComposite in2="hardAlpha" operator="arithmetic" k2="-1" k3="1"/>
<feColorMatrix type="matrix" values="0 0 0 0 0.942 0 0 0 0 0.94 0 0 0 0 1 0 0 0 0.1 0"/>
<feBlend mode="hard-light" in2="shape" result="effect1_innerShadow_1735_483"/>
</filter>
</defs>
</svg>
