<svg width="10" height="10" viewBox="0 0 10 10" fill="none" xmlns="http://www.w3.org/2000/svg">
<g filter="url(#filter0_i_1155_577)">
<path d="M5 2C5.99405 2 6.7997 2.80578 6.7998 3.7998V6.2002C6.7997 7.19422 5.99405 8 5 8C4.00595 8 3.2003 7.19422 3.2002 6.2002V3.7998C3.2003 2.80578 4.00595 2 5 2ZM5 2.7998C4.44778 2.7998 4.00011 3.24762 4 3.7998V4.64648C4 4.8843 3.99983 5.00351 4.06348 5.08496C4.07838 5.10399 4.09621 5.12083 4.11523 5.13574C4.19671 5.19958 4.31555 5.2002 4.55371 5.2002H5.44629C5.68445 5.2002 5.80329 5.19958 5.88477 5.13574C5.90379 5.12083 5.92162 5.10399 5.93652 5.08496C6.00017 5.00351 6 4.88431 6 4.64648V3.7998C5.99989 3.28221 5.60661 2.856 5.10254 2.80469L5 2.7998Z" fill="white"/>
</g>
<defs>
<filter id="filter0_i_1155_577" x="0" y="0" width="10" height="10" filterUnits="userSpaceOnUse" color-interpolation-filters="sRGB">
<feFlood flood-opacity="0" result="BackgroundImageFix"/>
<feBlend mode="normal" in="SourceGraphic" in2="BackgroundImageFix" result="shape"/>
<feColorMatrix in="SourceAlpha" type="matrix" values="0 0 0 0 0 0 0 0 0 0 0 0 0 0 0 0 0 0 127 0" result="hardAlpha"/>
<feOffset/>
<feGaussianBlur stdDeviation="1"/>
<feComposite in2="hardAlpha" operator="arithmetic" k2="-1" k3="1"/>
<feColorMatrix type="matrix" values="0 0 0 0 0.942 0 0 0 0 0.94 0 0 0 0 1 0 0 0 0.1 0"/>
<feBlend mode="hard-light" in2="shape" result="effect1_innerShadow_1155_577"/>
</filter>
</defs>
</svg>
