<svg width="10" height="10" viewBox="0 0 10 10" fill="none" xmlns="http://www.w3.org/2000/svg">
<g filter="url(#filter0_i_1735_455)">
<path d="M4.99954 1.20033C6.05452 1.20034 6.59483 1.7152 6.86087 2.14174C6.93386 2.2588 7.03766 2.39955 7.17561 2.39955H7.439C7.64983 2.39955 7.83261 2.54632 7.87845 2.75209C7.94091 3.03312 7.72688 3.29994 7.439 3.29994C7.33436 3.29994 7.24954 3.38476 7.24954 3.4894V6.39955C7.24954 6.4551 7.29458 6.50014 7.35013 6.50014C7.59859 6.50021 7.80032 6.70186 7.80032 6.95033C7.80009 7.19862 7.59845 7.39947 7.35013 7.39955H7.32181C7.08251 7.39955 6.99114 7.71241 7.1929 7.84096L7.60013 8.09975C7.92061 8.3037 7.7759 8.79994 7.39603 8.79994H2.60403C2.22416 8.79994 2.07946 8.3037 2.39993 8.09975L2.80716 7.84096C3.00885 7.71238 2.91753 7.39955 2.67825 7.39955H2.64993C2.40157 7.39952 2.19997 7.19865 2.19974 6.95033C2.19973 6.70182 2.40143 6.50017 2.64993 6.50014C2.70548 6.50014 2.75052 6.4551 2.75052 6.39955V3.54799C2.75052 3.411 2.63946 3.29994 2.50247 3.29994C2.23442 3.29976 2.02561 3.0664 2.05521 2.79994C2.08066 2.57231 2.27342 2.39971 2.50247 2.39955H2.82445C2.9624 2.39955 3.0662 2.2588 3.13919 2.14174C3.40519 1.71526 3.94488 1.20049 4.99954 1.20033ZM3.44974 5.93014C3.44974 6.18392 3.44974 6.31081 3.52162 6.39497C3.53182 6.40692 3.54295 6.41805 3.5549 6.42826C3.63906 6.50014 3.76595 6.50014 4.01974 6.50014H4.07993C4.33372 6.50014 4.46061 6.50014 4.54477 6.42826C4.55672 6.41805 4.56785 6.40692 4.57805 6.39497C4.64993 6.31081 4.64993 6.18392 4.64993 5.93014V3.86994C4.64993 3.61616 4.64993 3.48927 4.57805 3.40511C4.56785 3.39316 4.55672 3.38203 4.54477 3.37182C4.46061 3.29994 4.33372 3.29994 4.07993 3.29994H4.01974C3.76595 3.29994 3.63906 3.29994 3.5549 3.37182C3.54295 3.38203 3.53182 3.39316 3.52162 3.40511C3.44974 3.48927 3.44974 3.61616 3.44974 3.86994V5.93014ZM5.34915 5.93014C5.34915 6.18392 5.34915 6.31081 5.42103 6.39497C5.43124 6.40692 5.44237 6.41805 5.45432 6.42826C5.53848 6.50014 5.66537 6.50014 5.91915 6.50014H5.98032C6.23411 6.50014 6.361 6.50014 6.44516 6.42826C6.45711 6.41805 6.46824 6.40692 6.47845 6.39497C6.55032 6.31081 6.55032 6.18392 6.55032 5.93014V3.86994C6.55032 3.61616 6.55032 3.48927 6.47845 3.40511C6.46824 3.39316 6.45711 3.38203 6.44516 3.37182C6.361 3.29994 6.23411 3.29994 5.98032 3.29994H5.91915C5.66537 3.29994 5.53848 3.29994 5.45432 3.37182C5.44237 3.38203 5.43124 3.39316 5.42103 3.40511C5.34915 3.48927 5.34915 3.61616 5.34915 3.86994V5.93014Z" fill="white"/>
</g>
<defs>
<filter id="filter0_i_1735_455" x="0" y="0" width="10" height="10" filterUnits="userSpaceOnUse" color-interpolation-filters="sRGB">
<feFlood flood-opacity="0" result="BackgroundImageFix"/>
<feBlend mode="normal" in="SourceGraphic" in2="BackgroundImageFix" result="shape"/>
<feColorMatrix in="SourceAlpha" type="matrix" values="0 0 0 0 0 0 0 0 0 0 0 0 0 0 0 0 0 0 127 0" result="hardAlpha"/>
<feOffset/>
<feGaussianBlur stdDeviation="1"/>
<feComposite in2="hardAlpha" operator="arithmetic" k2="-1" k3="1"/>
<feColorMatrix type="matrix" values="0 0 0 0 0.942 0 0 0 0 0.94 0 0 0 0 1 0 0 0 0.1 0"/>
<feBlend mode="hard-light" in2="shape" result="effect1_innerShadow_1735_455"/>
</filter>
</defs>
</svg>
