<svg width="10" height="10" viewBox="0 0 10 10" fill="none" xmlns="http://www.w3.org/2000/svg">
<g filter="url(#filter0_i_1142_1626)">
<path d="M3.84409 5.21638C3.92091 5.11888 3.95932 5.07013 3.99364 5.02072C4.23008 4.68038 4.35496 4.275 4.35102 3.8606C4.35044 3.80045 4.34612 3.73854 4.33748 3.61471L4.32822 3.48195C4.3262 3.45298 4.31033 3.42677 4.2856 3.41155C4.10812 3.30233 4 3.10885 4 2.90045V2.7712C4 2.44978 4.26057 2.18921 4.58199 2.18921H5.40688C5.73445 2.18921 6 2.45476 6 2.78233V2.91776C6 3.11645 5.9007 3.302 5.73537 3.41222C5.713 3.42713 5.69855 3.45135 5.69606 3.47813L5.68481 3.59908C5.67417 3.71346 5.66885 3.77065 5.66679 3.82617C5.65054 4.26236 5.77745 4.69188 6.02813 5.04921C6.06003 5.09469 6.09558 5.1398 6.16667 5.23004L6.44862 5.58789C7.07583 6.38397 7.38944 6.78201 7.34401 7.11798C7.32114 7.28714 7.24477 7.44454 7.12605 7.56719C6.89026 7.8108 6.38352 7.8108 5.37004 7.8108H4.66113C3.62019 7.8108 3.09972 7.8108 2.86231 7.55491C2.75407 7.43824 2.68309 7.29195 2.65843 7.13473C2.60436 6.78988 2.92646 6.38106 3.57068 5.5634L3.84409 5.21638Z" fill="white"/>
</g>
<defs>
<filter id="filter0_i_1142_1626" x="0" y="0" width="10" height="10" filterUnits="userSpaceOnUse" color-interpolation-filters="sRGB">
<feFlood flood-opacity="0" result="BackgroundImageFix"/>
<feBlend mode="normal" in="SourceGraphic" in2="BackgroundImageFix" result="shape"/>
<feColorMatrix in="SourceAlpha" type="matrix" values="0 0 0 0 0 0 0 0 0 0 0 0 0 0 0 0 0 0 127 0" result="hardAlpha"/>
<feOffset/>
<feGaussianBlur stdDeviation="1"/>
<feComposite in2="hardAlpha" operator="arithmetic" k2="-1" k3="1"/>
<feColorMatrix type="matrix" values="0 0 0 0 0.942 0 0 0 0 0.94 0 0 0 0 1 0 0 0 0.1 0"/>
<feBlend mode="hard-light" in2="shape" result="effect1_innerShadow_1142_1626"/>
</filter>
</defs>
</svg>
