<svg width="10" height="10" viewBox="0 0 10 10" fill="none" xmlns="http://www.w3.org/2000/svg">
<g filter="url(#filter0_i_1142_1470)">
<path d="M6.16739 1.90004H3.83264C3.80235 1.90004 3.7872 1.90004 3.77441 1.90086C3.57367 1.91374 3.41371 2.07369 3.40084 2.27443C3.40002 2.28722 3.40002 2.30237 3.40002 2.33266C3.40002 2.35213 3.40002 2.36186 3.40042 2.37088C3.40668 2.50932 3.48414 2.63465 3.60516 2.70216C3.61305 2.70656 3.62175 2.71091 3.63916 2.71961L3.63916 2.71961L3.70002 2.75004C3.77624 2.78815 3.81435 2.8072 3.84562 2.83154C3.92137 2.89046 3.97341 2.97466 3.99224 3.06877C4.00002 3.10763 4.00002 3.15023 4.00002 3.23545V3.96684C4.00002 4.07052 4.00002 4.12236 3.98829 4.16972C3.97071 4.24068 3.93403 4.30546 3.88223 4.35703C3.84765 4.39146 3.8032 4.41813 3.7143 4.47147L3.7143 4.47147L3.50251 4.59854C3.48603 4.60843 3.47779 4.61338 3.47015 4.61815C3.18312 4.79748 3.00628 5.10982 3.00018 5.4482C3.00002 5.45722 3.00002 5.46683 3.00002 5.48604C3.00002 5.49904 3.00002 5.50554 3.00017 5.51103C3.006 5.72333 3.17673 5.89405 3.38902 5.89989C3.39452 5.90004 3.40102 5.90004 3.41401 5.90004L3.80597 5.90004C4.11739 5.90004 4.2731 5.90004 4.38189 5.98554C4.39741 5.99774 4.41201 6.01107 4.42557 6.02542C4.52056 6.12603 4.53466 6.2811 4.56285 6.59123L4.67285 7.80127C4.68824 7.97048 4.83011 8.10004 5.00002 8.10004C5.16992 8.10004 5.31179 7.97048 5.32718 7.80127L5.43718 6.59123C5.46537 6.2811 5.47947 6.12603 5.57447 6.02542C5.58802 6.01107 5.60262 5.99774 5.61814 5.98554C5.72694 5.90004 5.88264 5.90004 6.19406 5.90004L6.58602 5.90004C6.59901 5.90004 6.60551 5.90004 6.61101 5.89989C6.8233 5.89405 6.99403 5.72333 6.99986 5.51103C7.00002 5.50554 7.00002 5.49904 7.00002 5.48604C7.00002 5.46683 7.00002 5.45722 6.99985 5.4482C6.99375 5.10982 6.81691 4.79748 6.52989 4.61815C6.52224 4.61338 6.514 4.60843 6.49752 4.59854L6.28573 4.47147C6.19683 4.41813 6.15238 4.39146 6.1178 4.35703C6.066 4.30546 6.02932 4.24068 6.01175 4.16972C6.00002 4.12236 6.00002 4.07052 6.00002 3.96684V3.23545C6.00002 3.15023 6.00002 3.10763 6.00779 3.06877C6.02662 2.97466 6.07866 2.89046 6.15441 2.83154C6.18569 2.8072 6.2238 2.78815 6.30002 2.75004L6.36087 2.71961C6.37828 2.71091 6.38698 2.70656 6.39487 2.70216C6.51589 2.63465 6.59335 2.50932 6.59961 2.37088C6.60002 2.36186 6.60002 2.35213 6.60002 2.33266C6.60002 2.30237 6.60002 2.28722 6.5992 2.27443C6.58632 2.07369 6.42637 1.91374 6.22562 1.90086C6.21283 1.90004 6.19769 1.90004 6.16739 1.90004Z" fill="white"/>
</g>
<defs>
<filter id="filter0_i_1142_1470" x="0" y="0" width="10" height="10" filterUnits="userSpaceOnUse" color-interpolation-filters="sRGB">
<feFlood flood-opacity="0" result="BackgroundImageFix"/>
<feBlend mode="normal" in="SourceGraphic" in2="BackgroundImageFix" result="shape"/>
<feColorMatrix in="SourceAlpha" type="matrix" values="0 0 0 0 0 0 0 0 0 0 0 0 0 0 0 0 0 0 127 0" result="hardAlpha"/>
<feOffset/>
<feGaussianBlur stdDeviation="1"/>
<feComposite in2="hardAlpha" operator="arithmetic" k2="-1" k3="1"/>
<feColorMatrix type="matrix" values="0 0 0 0 0.942 0 0 0 0 0.94 0 0 0 0 1 0 0 0 0.1 0"/>
<feBlend mode="hard-light" in2="shape" result="effect1_innerShadow_1142_1470"/>
</filter>
</defs>
</svg>
