<svg width="10" height="10" viewBox="0 0 10 10" fill="none" xmlns="http://www.w3.org/2000/svg">
<g filter="url(#filter0_i_1735_440)">
<path d="M5.00011 1.09975C5.42164 1.09984 5.66615 1.26188 5.80791 1.46144C5.89801 1.58827 5.94306 1.65168 5.98077 1.67348C5.98788 1.6776 5.99023 1.67881 5.9977 1.68222C6.03732 1.70034 6.09117 1.70034 6.19887 1.70034H6.51769C6.81116 1.70034 7.07789 1.87165 7.19933 2.13882C7.27483 2.30506 7.24447 2.483 7.14753 2.6122C6.98404 2.8301 6.90229 2.93905 6.89202 2.97078C6.88897 2.98018 6.89035 2.97532 6.88801 2.98491C6.88009 3.01732 6.88372 3.05715 6.89097 3.13682L7.24913 7.0685C7.26029 7.19263 7.20447 7.30683 7.11196 7.37726C7.06592 7.41232 7.04289 7.42985 7.03735 7.43476C7.03273 7.43885 7.03513 7.43662 7.0307 7.44093C7.02538 7.44608 7.01891 7.45336 7.00597 7.46792C6.95646 7.52362 6.93134 7.55188 6.91515 7.5812C6.87252 7.65847 6.86612 7.75071 6.89757 7.83315C6.90955 7.86446 6.93041 7.89608 6.97179 7.95815L7.03331 8.05093C7.25584 8.38472 7.36768 8.55167 7.32628 8.68764C7.31489 8.72475 7.29615 8.76012 7.27159 8.79018C7.18147 8.90016 6.98047 8.89956 6.57921 8.89956H3.42003C3.0188 8.89956 2.81768 8.9003 2.72765 8.79018C2.70309 8.76012 2.68533 8.72475 2.67394 8.68764C2.63239 8.55166 2.74336 8.38478 2.96593 8.05093L3.02745 7.95815C3.06884 7.89608 3.08969 7.86446 3.10167 7.83315C3.13317 7.75068 3.12674 7.65851 3.08409 7.5812C3.0679 7.55194 3.04368 7.52353 2.99425 7.46792C2.98317 7.45545 2.97763 7.44922 2.97226 7.44402C2.96836 7.44024 2.97059 7.44231 2.96654 7.43868C2.96097 7.4337 2.93628 7.4147 2.88688 7.37671C2.79512 7.30612 2.73997 7.19211 2.75109 7.0685L3.10838 3.13649C3.11563 3.05669 3.11926 3.01679 3.11132 2.98437C3.10898 2.97479 3.11035 2.97963 3.10731 2.97024C3.09702 2.9385 3.01536 2.82976 2.85203 2.61228C2.75498 2.48305 2.72447 2.30506 2.79992 2.13882C2.92133 1.87169 3.18813 1.7004 3.48156 1.70034H3.8014C3.9091 1.70034 3.96296 1.70034 4.00258 1.68222C4.01005 1.6788 4.0124 1.67759 4.01951 1.67347C4.05723 1.65166 4.10225 1.58827 4.19228 1.46148C4.33402 1.26187 4.57847 1.09975 5.00011 1.09975ZM4.45353 6.22454C4.30932 6.46505 4.23721 6.5853 4.27819 6.67963C4.2838 6.69255 4.29076 6.70484 4.29895 6.7163C4.35878 6.79995 4.499 6.79995 4.77943 6.79995H5.21883C5.49927 6.79995 5.63948 6.79995 5.69931 6.7163C5.70751 6.70484 5.71447 6.69255 5.72008 6.67963C5.76106 6.5853 5.68895 6.46505 5.54474 6.22454L5.32504 5.85813C5.18782 5.62929 5.11922 5.51487 5.01971 5.50458C5.00603 5.50316 4.99224 5.50316 4.97856 5.50458C4.87905 5.51487 4.81044 5.62929 4.67323 5.85813L4.45353 6.22454ZM5.46605 4.53612C5.41199 4.62621 5.38495 4.67125 5.38227 4.72079C5.38188 4.72799 5.38187 4.7352 5.38226 4.7424C5.38493 4.79194 5.41195 4.83699 5.46599 4.9271L5.65389 5.24042C5.97138 5.76985 6.13013 6.03456 6.26639 6.00965C6.28407 6.00641 6.30124 6.00081 6.31742 5.99299C6.44215 5.93273 6.41417 5.62533 6.35821 5.01054L6.30871 4.46662C6.26774 4.01652 6.24726 3.79147 6.12822 3.74797C6.11249 3.74221 6.09609 3.73846 6.07941 3.7368C5.9533 3.72423 5.83701 3.91799 5.60445 4.30552L5.46605 4.53612ZM3.64134 5.00707C3.58528 5.62236 3.55725 5.93 3.682 5.99027C3.69819 5.99809 3.71535 6.00369 3.73304 6.00692C3.86933 6.03183 4.02813 5.76685 4.34573 5.23689L4.53145 4.92698C4.58542 4.83692 4.61241 4.7919 4.61508 4.74239C4.61547 4.7352 4.61546 4.72799 4.61507 4.7208C4.61239 4.67129 4.5854 4.62627 4.53141 4.53623L4.3947 4.30822C4.16218 3.92043 4.04593 3.72653 3.91979 3.73907C3.90312 3.74073 3.88671 3.74448 3.87097 3.75023C3.75191 3.79371 3.73139 4.01885 3.69036 4.46915L3.64134 5.00707ZM4.67264 3.60566C4.80971 3.83428 4.87825 3.94858 4.97769 3.95892C4.99137 3.96034 5.00515 3.96035 5.01883 3.95894C5.11828 3.94871 5.18694 3.83448 5.32425 3.60601L5.46267 3.3757C5.60728 3.13509 5.67959 3.01478 5.63865 2.92037C5.63304 2.90744 5.62608 2.89514 5.61789 2.88368C5.55806 2.79995 5.4177 2.79995 5.13697 2.79995H4.86047C4.58004 2.79995 4.43983 2.79995 4.38 2.8836C4.3718 2.89505 4.36484 2.90734 4.35923 2.92026C4.31825 3.01459 4.39036 3.13485 4.53456 3.37535L4.67264 3.60566Z" fill="white"/>
</g>
<defs>
<filter id="filter0_i_1735_440" x="0" y="0" width="10" height="10" filterUnits="userSpaceOnUse" color-interpolation-filters="sRGB">
<feFlood flood-opacity="0" result="BackgroundImageFix"/>
<feBlend mode="normal" in="SourceGraphic" in2="BackgroundImageFix" result="shape"/>
<feColorMatrix in="SourceAlpha" type="matrix" values="0 0 0 0 0 0 0 0 0 0 0 0 0 0 0 0 0 0 127 0" result="hardAlpha"/>
<feOffset/>
<feGaussianBlur stdDeviation="1"/>
<feComposite in2="hardAlpha" operator="arithmetic" k2="-1" k3="1"/>
<feColorMatrix type="matrix" values="0 0 0 0 0.942 0 0 0 0 0.94 0 0 0 0 1 0 0 0 0.1 0"/>
<feBlend mode="hard-light" in2="shape" result="effect1_innerShadow_1735_440"/>
</filter>
</defs>
</svg>
