<svg width="10" height="10" viewBox="0 0 10 10" fill="none" xmlns="http://www.w3.org/2000/svg">
<g filter="url(#filter0_i_1142_1485)">
<path fill-rule="evenodd" clip-rule="evenodd" d="M4.87012 1.34105C4.95456 1.31567 5.04447 1.3157 5.12891 1.34105C5.2988 1.39213 5.42197 1.60325 5.66798 2.02562C5.73862 2.14691 5.7744 2.20823 5.82423 2.25414C5.84982 2.27771 5.87789 2.2986 5.90821 2.31566C5.96727 2.34886 6.03665 2.3631 6.17384 2.39281C6.65178 2.49631 6.89109 2.54874 6.99219 2.69457C7.04228 2.76699 7.07033 2.85262 7.07227 2.94066C7.07617 3.11808 6.91284 3.30051 6.58692 3.66527C6.4934 3.76994 6.44624 3.82244 6.41798 3.88402C6.40353 3.91555 6.3926 3.94866 6.38575 3.98265C6.37242 4.04908 6.37942 4.11937 6.39356 4.25902C6.44283 4.74564 6.46774 4.98886 6.36036 5.13011C6.30693 5.20034 6.2337 5.25334 6.1504 5.28246C6.0622 5.31318 5.95851 5.3003 5.81476 5.25247C5.6886 5.21048 5.62552 5.18949 5.58569 5.21421C5.57993 5.21779 5.5752 5.2214 5.57024 5.22603C5.53595 5.25799 5.53948 5.32075 5.54655 5.44625L5.68751 7.95043C5.70932 8.34532 5.39459 8.67797 4.99903 8.67797C4.60373 8.67764 4.28971 8.34515 4.31153 7.95043L4.45076 5.44596C4.45774 5.32056 4.46122 5.25787 4.42691 5.22592C4.42195 5.22131 4.41721 5.21769 4.41145 5.21412C4.3716 5.18943 4.30861 5.21044 4.18264 5.25246C4.03971 5.30014 3.93655 5.31313 3.84864 5.28246C3.76534 5.25334 3.69211 5.20034 3.63868 5.13011C3.53136 4.98885 3.55622 4.74554 3.60548 4.25902C3.61962 4.11937 3.62662 4.04908 3.61329 3.98265C3.60644 3.94865 3.59552 3.91556 3.58106 3.88402C3.5528 3.82244 3.50564 3.76994 3.41212 3.66527C3.08623 3.30055 2.92384 3.11807 2.92774 2.94066C2.92969 2.85246 2.95757 2.76708 3.00782 2.69457C3.10894 2.54871 3.34804 2.49635 3.82618 2.39281C3.96303 2.36318 4.03184 2.34882 4.09083 2.31566C4.12116 2.29861 4.14921 2.2777 4.17481 2.25414C4.22464 2.20823 4.26042 2.14691 4.33106 2.02562C4.5771 1.60321 4.70023 1.39213 4.87012 1.34105Z" fill="white"/>
</g>
<defs>
<filter id="filter0_i_1142_1485" x="0" y="0" width="10" height="10" filterUnits="userSpaceOnUse" color-interpolation-filters="sRGB">
<feFlood flood-opacity="0" result="BackgroundImageFix"/>
<feBlend mode="normal" in="SourceGraphic" in2="BackgroundImageFix" result="shape"/>
<feColorMatrix in="SourceAlpha" type="matrix" values="0 0 0 0 0 0 0 0 0 0 0 0 0 0 0 0 0 0 127 0" result="hardAlpha"/>
<feOffset/>
<feGaussianBlur stdDeviation="1"/>
<feComposite in2="hardAlpha" operator="arithmetic" k2="-1" k3="1"/>
<feColorMatrix type="matrix" values="0 0 0 0 0.942 0 0 0 0 0.94 0 0 0 0 1 0 0 0 0.1 0"/>
<feBlend mode="hard-light" in2="shape" result="effect1_innerShadow_1142_1485"/>
</filter>
</defs>
</svg>
