<svg width="10" height="10" viewBox="0 0 10 10" fill="none" xmlns="http://www.w3.org/2000/svg">
<g filter="url(#filter0_i_1206_4811)">
<g clip-path="url(#clip0_1206_4811)">
<path d="M7.28093 1.34859C7.36524 1.4329 7.40739 1.47505 7.45654 1.4894C7.49315 1.5001 7.53206 1.5001 7.56868 1.4894C7.61782 1.47505 7.65998 1.4329 7.74428 1.34859L7.958 1.13487C8.07061 1.02226 8.25277 1.02232 8.36542 1.13487C8.59064 1.3601 8.59124 1.72511 8.36611 1.95039L7.62293 2.69357C7.62262 2.69387 7.62247 2.69403 7.6217 2.69481C7.55428 2.76373 7.54991 2.77833 7.56836 2.87296C7.56857 2.87403 7.57501 2.90521 7.58787 2.96755C7.5953 3.00387 7.59233 3.04184 7.57959 3.07665C7.56443 3.11782 7.5293 3.15318 7.45944 3.22305L6.44988 4.2326C6.4471 4.23538 6.44571 4.23677 6.44434 4.23809C6.41218 4.26904 6.3706 4.28835 6.32621 4.29294C6.32431 4.29313 6.32235 4.2933 6.31844 4.29363C6.29337 4.29574 6.28084 4.29679 6.27611 4.29742C6.123 4.31769 6.07377 4.38798 6.10706 4.5388C6.10809 4.54346 6.11958 4.5858 6.14257 4.6705C6.1433 4.67322 6.144 4.67595 6.14466 4.67869C6.15532 4.72321 6.15854 4.76921 6.15364 4.81473C6.15159 4.83348 6.14751 4.85184 6.14144 4.87049C6.1184 4.94124 6.10688 4.97662 6.10444 4.99067C6.09259 5.05869 6.10001 5.08966 6.14142 5.14491C6.14997 5.15632 6.16293 5.16929 6.18885 5.19521C6.41214 5.41841 6.57294 5.47969 6.81724 5.55429C7.03199 5.61986 7.13975 5.65306 7.21361 5.73383C7.27473 5.80077 7.31542 5.90131 7.31857 5.99209C7.3223 6.10168 7.26542 6.20719 7.15146 6.41746L7.01818 6.66398C6.93882 6.8104 6.8987 6.8839 6.8345 6.93467C6.78221 6.97597 6.70508 7.00841 6.63908 7.01684C6.55802 7.02713 6.48872 7.007 6.35044 6.96712C5.83456 6.81835 5.63577 6.61978 5.3464 6.33045C5.2892 6.27325 5.19418 6.28175 5.14805 6.3482L5.09229 6.4285C5.05855 6.47708 5.04137 6.50156 5.0329 6.54037C5.03206 6.54423 5.03073 6.55263 5.03014 6.55694C5.02509 6.59621 5.02976 6.61423 5.03911 6.64878C5.08567 6.82076 5.22435 6.94566 5.37886 7.13078C5.52974 7.31157 5.60562 7.4019 5.57704 7.54303C5.57369 7.55947 5.56633 7.58478 5.55978 7.60034C5.50354 7.7332 5.36732 7.77129 5.09574 7.84755L5.03014 7.8662C4.76893 7.93954 4.63804 7.97665 4.53364 7.92351C4.51907 7.91608 4.50467 7.90631 4.49152 7.89658C4.39744 7.82682 4.37227 7.69584 4.32234 7.43461C4.28823 7.25611 4.26459 7.10797 4.23108 6.87751C4.21892 6.79388 4.14501 6.73318 4.06063 6.73786C4.02836 6.73948 4.01222 6.74028 4.00594 6.74099C3.91803 6.75098 3.86987 6.78917 3.84014 6.87251C3.83802 6.87846 3.83338 6.89463 3.82409 6.92696C3.81928 6.94374 3.81411 6.96146 3.80858 6.98024L3.42603 8.27983C3.33557 8.5871 3.29061 8.74139 3.19746 8.81913C3.11608 8.88694 3.01087 8.91907 2.90536 8.90959C2.78458 8.89871 2.65999 8.79839 2.41094 8.59747L1.74181 8.05816C1.54991 7.90334 1.45416 7.82531 1.41519 7.73016C1.38101 7.64662 1.37556 7.55376 1.40069 7.46707C1.4294 7.36843 1.51722 7.28149 1.69141 7.1073L2.69803 6.10068C2.75016 6.04854 2.77623 6.02248 2.79099 5.9917C2.80311 5.96644 2.80461 5.96152 2.80862 5.93379C2.8135 5.90001 2.79831 5.82298 2.76795 5.66892C2.75229 5.58915 2.76101 5.50657 2.7935 5.43206C2.82374 5.36289 2.88369 5.30321 3.00273 5.18416L4.46666 3.72023C4.58004 3.60685 4.63677 3.55031 4.69937 3.52067C4.80118 3.47248 4.91839 3.46951 5.02254 3.51238C5.13881 3.56032 5.27932 3.51798 5.28876 3.39257L5.29775 3.27298C5.29803 3.26929 5.29817 3.26744 5.29834 3.26565C5.30255 3.22055 5.32194 3.17822 5.35334 3.14558C5.35458 3.14429 5.35589 3.14298 5.35851 3.14035L6.30141 2.19484C6.4171 2.07877 6.4749 2.02017 6.54655 2.01323C6.55674 2.01227 6.5674 2.01193 6.57762 2.01254C6.63009 2.01568 6.6922 1.99147 6.69585 1.93903L6.72597 1.50633C6.73941 1.31325 6.74613 1.21671 6.78407 1.16839C6.83029 1.10951 6.90551 1.08137 6.97903 1.09546C7.03936 1.10702 7.10779 1.17545 7.24465 1.31231L7.28093 1.34859Z" fill="white"/>
</g>
</g>
<defs>
<filter id="filter0_i_1206_4811" x="0" y="0" width="10" height="10" filterUnits="userSpaceOnUse" color-interpolation-filters="sRGB">
<feFlood flood-opacity="0" result="BackgroundImageFix"/>
<feBlend mode="normal" in="SourceGraphic" in2="BackgroundImageFix" result="shape"/>
<feColorMatrix in="SourceAlpha" type="matrix" values="0 0 0 0 0 0 0 0 0 0 0 0 0 0 0 0 0 0 127 0" result="hardAlpha"/>
<feOffset/>
<feGaussianBlur stdDeviation="1"/>
<feComposite in2="hardAlpha" operator="arithmetic" k2="-1" k3="1"/>
<feColorMatrix type="matrix" values="0 0 0 0 0.942 0 0 0 0 0.94 0 0 0 0 1 0 0 0 0.1 0"/>
<feBlend mode="hard-light" in2="shape" result="effect1_innerShadow_1206_4811"/>
</filter>
<clipPath id="clip0_1206_4811">
<rect width="10" height="10" rx="2.6" fill="white"/>
</clipPath>
</defs>
</svg>
