<svg width="10" height="10" viewBox="0 0 10 10" fill="none" xmlns="http://www.w3.org/2000/svg">
<g filter="url(#filter0_i_1732_418)">
<path d="M4.98872 5.09958C5.47624 5.0997 5.85683 5.52181 5.80708 6.0068L5.55581 8.45953C5.52436 8.76652 5.26578 8.99997 4.95718 8.99997C4.64271 8.99997 4.38126 8.75783 4.35718 8.44428L4.16841 5.9863C4.13165 5.50843 4.50944 5.09958 4.98872 5.09958ZM5.64302 1.07419C5.81227 0.980993 5.98674 1.13783 5.9897 1.33102C6.00718 2.47066 6.50042 2.83733 6.50044 3.65329C6.5004 3.93777 6.38407 4.23827 6.19283 4.49509C6.05741 4.67686 5.79683 4.57933 5.73872 4.36032C5.57695 3.74753 5.30771 3.25325 5.00044 3.2529C4.69355 3.2529 4.42343 3.74828 4.26118 4.36032C4.20311 4.57939 3.94244 4.67773 3.80708 4.49606C3.61594 4.23913 3.50048 3.93784 3.50044 3.65329C3.50045 3.30466 3.57647 2.72733 4.19185 1.92282C4.32692 1.74668 4.58845 1.80147 4.70064 1.99313C4.99121 2.48936 4.94325 1.45997 5.64302 1.07419Z" fill="white"/>
</g>
<defs>
<filter id="filter0_i_1732_418" x="0" y="0" width="10" height="10" filterUnits="userSpaceOnUse" color-interpolation-filters="sRGB">
<feFlood flood-opacity="0" result="BackgroundImageFix"/>
<feBlend mode="normal" in="SourceGraphic" in2="BackgroundImageFix" result="shape"/>
<feColorMatrix in="SourceAlpha" type="matrix" values="0 0 0 0 0 0 0 0 0 0 0 0 0 0 0 0 0 0 127 0" result="hardAlpha"/>
<feOffset/>
<feGaussianBlur stdDeviation="1"/>
<feComposite in2="hardAlpha" operator="arithmetic" k2="-1" k3="1"/>
<feColorMatrix type="matrix" values="0 0 0 0 0.942 0 0 0 0 0.94 0 0 0 0 1 0 0 0 0.1 0"/>
<feBlend mode="hard-light" in2="shape" result="effect1_innerShadow_1732_418"/>
</filter>
</defs>
</svg>
