<svg width="10" height="10" viewBox="0 0 10 10" fill="none" xmlns="http://www.w3.org/2000/svg">
<g filter="url(#filter0_i_1142_1554)">
<path d="M1.60001 3.86905V3.00987C1.60001 2.81482 1.60001 2.71729 1.61693 2.63634C1.68197 2.32512 1.92513 2.08196 2.23634 2.01692C2.3173 2 2.41482 2 2.60987 2H3.00795C3.16257 2 3.23988 2 3.31349 2.01102C3.48679 2.03696 3.65024 2.10798 3.78745 2.21698C3.84573 2.26327 3.89848 2.31979 4.00398 2.43283C4.24872 2.69505 4.37108 2.82615 4.50078 2.90088C4.80979 3.07892 5.19022 3.07892 5.49923 2.90088C5.62893 2.82615 5.7513 2.69505 5.99603 2.43283L5.99604 2.43282C6.10154 2.31979 6.15429 2.26327 6.21257 2.21698C6.34978 2.10798 6.51322 2.03696 6.68652 2.01102C6.76013 2 6.83744 2 6.99206 2H7.39014C7.58519 2 7.68271 2 7.76367 2.01692C8.07488 2.08196 8.31804 2.32512 8.38309 2.63634C8.40001 2.71729 8.40001 2.81482 8.40001 3.00987L8.40001 3.86905C8.40001 4.19934 8.10344 4.45057 7.77765 4.39627C7.46751 4.34458 7.17997 4.57045 7.15675 4.88401L7.0683 6.0781L7.06829 6.07811C7.04269 6.42372 7.02989 6.59652 6.96653 6.74722C6.91663 6.8659 6.84428 6.97382 6.75346 7.06507C6.63813 7.18094 6.48315 7.25843 6.17317 7.41342L6.01965 7.49018L6.01965 7.49018C5.54616 7.72692 5.30942 7.84529 5.05562 7.85707C5.01857 7.85879 4.98145 7.85879 4.94439 7.85707C4.69059 7.84529 4.45385 7.72692 3.98036 7.49018L3.82684 7.41342L3.82684 7.41342C3.51687 7.25843 3.36188 7.18094 3.24656 7.06507C3.15573 6.97382 3.08338 6.8659 3.03348 6.74722C2.97012 6.59652 2.95732 6.42371 2.93172 6.0781L2.84327 4.88401C2.82004 4.57045 2.5325 4.34458 2.22237 4.39627C1.89658 4.45057 1.60001 4.19934 1.60001 3.86905Z" fill="white"/>
</g>
<defs>
<filter id="filter0_i_1142_1554" x="0" y="0" width="10" height="10" filterUnits="userSpaceOnUse" color-interpolation-filters="sRGB">
<feFlood flood-opacity="0" result="BackgroundImageFix"/>
<feBlend mode="normal" in="SourceGraphic" in2="BackgroundImageFix" result="shape"/>
<feColorMatrix in="SourceAlpha" type="matrix" values="0 0 0 0 0 0 0 0 0 0 0 0 0 0 0 0 0 0 127 0" result="hardAlpha"/>
<feOffset/>
<feGaussianBlur stdDeviation="1"/>
<feComposite in2="hardAlpha" operator="arithmetic" k2="-1" k3="1"/>
<feColorMatrix type="matrix" values="0 0 0 0 0.942 0 0 0 0 0.94 0 0 0 0 1 0 0 0 0.1 0"/>
<feBlend mode="hard-light" in2="shape" result="effect1_innerShadow_1142_1554"/>
</filter>
</defs>
</svg>
