<svg width="10" height="10" viewBox="0 0 10 10" fill="none" xmlns="http://www.w3.org/2000/svg">
<g filter="url(#filter0_i_1142_1474)">
<path d="M2.39133 3.87C2.3839 3.19763 2.38018 2.86145 2.57194 2.63413C2.59897 2.6021 2.62911 2.57163 2.66084 2.54425C2.88602 2.34998 3.23029 2.34998 3.91883 2.34998C4.64381 2.34998 5.35376 2.34998 6.07874 2.34998C6.76529 2.34998 7.10856 2.34998 7.33326 2.5426C7.36508 2.56987 7.39493 2.59984 7.42207 2.63177C7.61379 2.85724 7.61243 3.1949 7.60973 3.87022C7.60651 4.67263 7.55612 5.30667 7.29879 5.94998C6.89879 6.94998 5.50392 7.64999 4.9988 7.64999C4.42802 7.64999 3.0875 6.94998 2.69879 5.94998C2.45692 5.32775 2.3999 4.64486 2.39133 3.87Z" fill="white"/>
</g>
<defs>
<filter id="filter0_i_1142_1474" x="0" y="0" width="10" height="10" filterUnits="userSpaceOnUse" color-interpolation-filters="sRGB">
<feFlood flood-opacity="0" result="BackgroundImageFix"/>
<feBlend mode="normal" in="SourceGraphic" in2="BackgroundImageFix" result="shape"/>
<feColorMatrix in="SourceAlpha" type="matrix" values="0 0 0 0 0 0 0 0 0 0 0 0 0 0 0 0 0 0 127 0" result="hardAlpha"/>
<feOffset/>
<feGaussianBlur stdDeviation="1"/>
<feComposite in2="hardAlpha" operator="arithmetic" k2="-1" k3="1"/>
<feColorMatrix type="matrix" values="0 0 0 0 0.942 0 0 0 0 0.94 0 0 0 0 1 0 0 0 0.1 0"/>
<feBlend mode="hard-light" in2="shape" result="effect1_innerShadow_1142_1474"/>
</filter>
</defs>
</svg>
