<svg width="10" height="10" viewBox="0 0 10 10" fill="none" xmlns="http://www.w3.org/2000/svg">
<g filter="url(#filter0_i_1232_138)">
<path d="M4.99951 1.7002C5.38611 1.7002 5.69971 2.01379 5.69971 2.40039V4.5687C5.69971 4.79509 5.69971 4.90828 5.73955 4.99074C5.74679 5.00571 5.75004 5.01166 5.75873 5.02584C5.80662 5.1039 5.93486 5.18619 6.19135 5.35077C6.32174 5.43443 6.44384 5.53228 6.55518 5.64355C6.91958 6.00796 7.14076 6.48737 7.18768 6.99634C7.19304 7.05455 7.24086 7.10059 7.29932 7.10059C7.63069 7.10059 7.8999 7.36882 7.8999 7.7002C7.89977 8.03145 7.6306 8.2998 7.29932 8.2998H2.69971C2.36854 8.29966 2.10023 8.03136 2.1001 7.7002C2.1001 7.36891 2.36846 7.10073 2.69971 7.10059C2.75871 7.10059 2.80697 7.05412 2.81241 6.99537C2.85952 6.48676 3.08065 6.00772 3.44482 5.64355C3.55592 5.5325 3.6778 5.43495 3.80793 5.35154C4.06419 5.18728 4.19231 5.10515 4.24024 5.02706C4.24893 5.01289 4.2522 5.00692 4.25943 4.99195C4.29932 4.90946 4.29932 4.79631 4.29932 4.57002V2.40039C4.29932 2.01394 4.61312 1.70044 4.99951 1.7002Z" fill="white"/>
</g>
<defs>
<filter id="filter0_i_1232_138" x="0" y="0" width="10" height="10" filterUnits="userSpaceOnUse" color-interpolation-filters="sRGB">
<feFlood flood-opacity="0" result="BackgroundImageFix"/>
<feBlend mode="normal" in="SourceGraphic" in2="BackgroundImageFix" result="shape"/>
<feColorMatrix in="SourceAlpha" type="matrix" values="0 0 0 0 0 0 0 0 0 0 0 0 0 0 0 0 0 0 127 0" result="hardAlpha"/>
<feOffset/>
<feGaussianBlur stdDeviation="1"/>
<feComposite in2="hardAlpha" operator="arithmetic" k2="-1" k3="1"/>
<feColorMatrix type="matrix" values="0 0 0 0 0.942 0 0 0 0 0.94 0 0 0 0 1 0 0 0 0.1 0"/>
<feBlend mode="hard-light" in2="shape" result="effect1_innerShadow_1232_138"/>
</filter>
</defs>
</svg>
