<svg width="10" height="10" viewBox="0 0 10 10" fill="none" xmlns="http://www.w3.org/2000/svg">
<g filter="url(#filter0_i_1210_130)">
<path d="M7.29998 6.67472C7.47713 6.67472 7.5657 6.67472 7.62575 6.75156C7.6324 6.76006 7.64242 6.77595 7.64723 6.78561C7.69068 6.87292 7.66113 6.93479 7.60203 7.05852C7.44659 7.38392 7.1207 7.61174 6.73926 7.62687C6.71964 7.62764 6.69584 7.62785 6.64941 7.62785H3.34961C3.30349 7.62785 3.28028 7.62763 3.26074 7.62687C2.87915 7.61188 2.5533 7.38403 2.39792 7.05853C2.33883 6.93477 2.30929 6.87288 2.35275 6.78559C2.35756 6.77593 2.36758 6.76004 2.37422 6.75154C2.43428 6.67472 2.52286 6.67472 2.70002 6.67472H7.29998ZM7.2002 2.6757C7.21005 2.44171 7.37844 2.35152 7.5791 2.47257C7.58403 2.47559 7.60233 2.48726 7.6377 2.51066C8.09688 2.81448 8.40029 3.33566 8.40039 3.92765C8.40033 4.45621 8.15753 4.92674 7.77863 5.23807C7.70792 5.29617 7.67256 5.32522 7.65641 5.34894C7.63306 5.38321 7.62587 5.40351 7.6224 5.44483C7.62001 5.47343 7.62837 5.51435 7.64508 5.5962C7.66346 5.68619 7.67264 5.73119 7.66025 5.77698C7.64645 5.82795 7.6042 5.8797 7.55702 5.90341C7.51464 5.92472 7.46362 5.92472 7.36158 5.92472H5.755C5.58581 5.92472 5.50122 5.92472 5.44511 5.8768C5.43714 5.87 5.42972 5.86258 5.42292 5.85461C5.375 5.7985 5.375 5.71391 5.375 5.54472V3.89049C5.375 3.69598 5.375 3.59873 5.44179 3.53909C5.45029 3.53149 5.4621 3.52279 5.47186 3.51691C5.54858 3.47074 5.63258 3.49673 5.8006 3.54872C5.99795 3.60978 6.18562 3.69283 6.36071 3.79513C6.43997 3.84144 6.47959 3.86459 6.52494 3.86829C6.53074 3.86877 6.53898 3.86903 6.5448 3.86892C6.59029 3.86811 6.61876 3.85381 6.67572 3.82522C6.98641 3.66924 7.20012 3.3487 7.2002 2.97746C7.20012 2.78016 7.19998 2.6809 7.2002 2.6757ZM2.41992 2.47257C2.62057 2.3514 2.79002 2.44163 2.7998 2.6757C2.80002 2.68087 2.79988 2.78012 2.7998 2.97746C2.79988 3.34814 3.01233 3.66851 3.32209 3.82481C3.37906 3.85356 3.40754 3.86793 3.45311 3.8688C3.45895 3.86892 3.4672 3.86866 3.47302 3.86819C3.51845 3.86453 3.55818 3.84133 3.63764 3.79492C3.81321 3.69238 4.00153 3.60928 4.19957 3.54826C4.3676 3.49649 4.45162 3.4706 4.52825 3.5168C4.53801 3.52268 4.5498 3.53138 4.55829 3.53897C4.625 3.59861 4.625 3.69581 4.625 3.89023V5.54472C4.625 5.71391 4.625 5.7985 4.57708 5.85461C4.57028 5.86258 4.56286 5.87 4.55489 5.8768C4.49878 5.92472 4.41419 5.92472 4.245 5.92472H2.63726C2.53498 5.92472 2.48384 5.92472 2.44141 5.90336C2.39441 5.8797 2.35231 5.82824 2.33843 5.77749C2.32589 5.73167 2.33501 5.68653 2.35326 5.59625C2.36986 5.51409 2.37816 5.47301 2.37571 5.44443C2.37218 5.40325 2.36508 5.38326 2.34184 5.34908C2.32572 5.32536 2.29032 5.29621 2.21952 5.2379C1.84131 4.92645 1.59967 4.45583 1.59961 3.92765C1.59971 3.33583 1.90236 2.81552 2.36133 2.51163C2.39682 2.48814 2.41486 2.47569 2.41992 2.47257Z" fill="white"/>
</g>
<defs>
<filter id="filter0_i_1210_130" x="0" y="0" width="10" height="10" filterUnits="userSpaceOnUse" color-interpolation-filters="sRGB">
<feFlood flood-opacity="0" result="BackgroundImageFix"/>
<feBlend mode="normal" in="SourceGraphic" in2="BackgroundImageFix" result="shape"/>
<feColorMatrix in="SourceAlpha" type="matrix" values="0 0 0 0 0 0 0 0 0 0 0 0 0 0 0 0 0 0 127 0" result="hardAlpha"/>
<feOffset/>
<feGaussianBlur stdDeviation="1"/>
<feComposite in2="hardAlpha" operator="arithmetic" k2="-1" k3="1"/>
<feColorMatrix type="matrix" values="0 0 0 0 0.942 0 0 0 0 0.94 0 0 0 0 1 0 0 0 0.1 0"/>
<feBlend mode="hard-light" in2="shape" result="effect1_innerShadow_1210_130"/>
</filter>
</defs>
</svg>
