<svg width="10" height="10" viewBox="0 0 10 10" fill="none" xmlns="http://www.w3.org/2000/svg">
<g filter="url(#filter0_i_1192_5510)">
<path d="M5.00003 1.61232C6.21491 1.61244 7.20014 2.73177 7.20023 4.11232C7.20023 5.14481 6.64844 6.02916 5.86234 6.41017C5.71045 6.48378 5.59965 6.63007 5.59964 6.79884C5.59964 7.01349 5.77366 7.18752 5.98831 7.18752H6.00003C6.33127 7.18752 6.59943 7.45594 6.59964 7.78712C6.59964 8.11849 6.33139 8.3877 6.00003 8.38771H4.00003C3.66866 8.38771 3.40042 8.11849 3.40042 7.78712C3.40063 7.45593 3.66879 7.18752 4.00003 7.18752H4.01077C4.22542 7.1875 4.39943 7.01349 4.39944 6.79884C4.39944 6.63008 4.28859 6.48382 4.13675 6.41017C3.35099 6.029 2.79984 5.14459 2.79984 4.11232C2.79992 2.73169 3.78506 1.61232 5.00003 1.61232ZM6.04788 3.54005C5.91132 3.40352 5.68947 3.40376 5.55276 3.54005L4.25296 4.83986C4.11628 4.97654 4.1163 5.19829 4.25296 5.33498C4.38954 5.47114 4.61052 5.47114 4.7471 5.33498L6.04788 4.03419C6.18367 3.89758 6.18392 3.67651 6.04788 3.54005ZM5.2471 2.64064C5.11042 2.50398 4.88866 2.50396 4.75198 2.64064L4.15237 3.24025C4.01589 3.37694 4.01577 3.59875 4.15237 3.73537C4.28892 3.87159 4.50989 3.87146 4.64651 3.73537L5.2471 3.13478C5.38339 2.99817 5.38339 2.77725 5.2471 2.64064Z" fill="white"/>
</g>
<defs>
<filter id="filter0_i_1192_5510" x="0" y="0" width="10" height="10" filterUnits="userSpaceOnUse" color-interpolation-filters="sRGB">
<feFlood flood-opacity="0" result="BackgroundImageFix"/>
<feBlend mode="normal" in="SourceGraphic" in2="BackgroundImageFix" result="shape"/>
<feColorMatrix in="SourceAlpha" type="matrix" values="0 0 0 0 0 0 0 0 0 0 0 0 0 0 0 0 0 0 127 0" result="hardAlpha"/>
<feOffset/>
<feGaussianBlur stdDeviation="1"/>
<feComposite in2="hardAlpha" operator="arithmetic" k2="-1" k3="1"/>
<feColorMatrix type="matrix" values="0 0 0 0 0.942 0 0 0 0 0.94 0 0 0 0 1 0 0 0 0.1 0"/>
<feBlend mode="hard-light" in2="shape" result="effect1_innerShadow_1192_5510"/>
</filter>
</defs>
</svg>
