<svg width="10" height="10" viewBox="0 0 10 10" fill="none" xmlns="http://www.w3.org/2000/svg">
<g filter="url(#filter0_i_1142_1550)">
<path d="M5.00034 2.17421C6.41798 2.1744 7.6039 3.25229 7.73959 4.66347L7.90561 6.39101C7.91829 6.52291 7.92439 6.58953 7.92319 6.64784C7.91471 7.0502 7.66555 7.40784 7.29135 7.55605C7.23715 7.5775 7.1732 7.59517 7.04526 7.62929L6.65515 7.73319C6.24077 7.84354 6.03358 7.89872 5.88583 7.80533C5.86518 7.79227 5.84576 7.77735 5.82783 7.76076C5.69955 7.64201 5.69955 7.4276 5.69955 6.99879V6.9569C5.69955 6.71341 5.69955 6.59167 5.75859 6.49543C5.76711 6.48153 5.77648 6.46816 5.78664 6.4554C5.85697 6.36708 5.97141 6.32555 6.20029 6.24249L6.26907 6.21753C6.51094 6.12975 6.63188 6.08586 6.70325 5.99146C6.71353 5.97785 6.72293 5.96361 6.7314 5.94881C6.79015 5.84607 6.78297 5.71762 6.76862 5.46071L6.75606 5.23614C6.73163 4.79884 6.71941 4.58019 6.58164 4.46863C6.56242 4.45307 6.54179 4.43931 6.52002 4.42756C6.36406 4.34331 6.15753 4.41615 5.74448 4.56182L5.2522 4.73543C5.13368 4.77723 5.07441 4.79813 5.01292 4.80021C5.00389 4.80052 4.99484 4.80052 4.9858 4.80021C4.92431 4.79812 4.86505 4.77721 4.74653 4.73538L4.25533 4.56205C3.84224 4.41628 3.63569 4.3434 3.4797 4.42764C3.45793 4.43939 3.4373 4.45315 3.41807 4.46871C3.28029 4.58027 3.26806 4.79896 3.24362 5.23633L3.23108 5.46071C3.21672 5.71762 3.20954 5.84607 3.2683 5.94881C3.27676 5.96361 3.28616 5.97785 3.29645 5.99146C3.36782 6.08586 3.48876 6.12975 3.73063 6.21753L3.79941 6.24249C4.02829 6.32555 4.14273 6.36708 4.21306 6.4554C4.22321 6.46816 4.23258 6.48153 4.24111 6.49543C4.30014 6.59167 4.30014 6.71341 4.30014 6.9569V6.99879C4.30014 7.4276 4.30014 7.64201 4.17186 7.76076C4.15393 7.77735 4.13452 7.79227 4.11387 7.80533C3.96611 7.89872 3.75892 7.84354 3.34455 7.73319L2.95444 7.62929C2.82644 7.59515 2.76256 7.57752 2.70834 7.55605C2.33419 7.40782 2.08499 7.05018 2.07651 6.64784C2.0753 6.58953 2.0814 6.52291 2.09409 6.39101L2.26108 4.66347C2.39678 3.25216 3.58252 2.17421 5.00034 2.17421Z" fill="white"/>
</g>
<defs>
<filter id="filter0_i_1142_1550" x="0" y="0" width="10" height="10" filterUnits="userSpaceOnUse" color-interpolation-filters="sRGB">
<feFlood flood-opacity="0" result="BackgroundImageFix"/>
<feBlend mode="normal" in="SourceGraphic" in2="BackgroundImageFix" result="shape"/>
<feColorMatrix in="SourceAlpha" type="matrix" values="0 0 0 0 0 0 0 0 0 0 0 0 0 0 0 0 0 0 127 0" result="hardAlpha"/>
<feOffset/>
<feGaussianBlur stdDeviation="1"/>
<feComposite in2="hardAlpha" operator="arithmetic" k2="-1" k3="1"/>
<feColorMatrix type="matrix" values="0 0 0 0 0.942 0 0 0 0 0.94 0 0 0 0 1 0 0 0 0.1 0"/>
<feBlend mode="hard-light" in2="shape" result="effect1_innerShadow_1142_1550"/>
</filter>
</defs>
</svg>
