<svg width="10" height="10" viewBox="0 0 10 10" fill="none" xmlns="http://www.w3.org/2000/svg">
<g filter="url(#filter0_i_1142_1515)">
<path d="M5.2085 1.54982C5.33928 1.54982 5.40488 1.55063 5.44092 1.55959C5.64242 1.61017 5.73343 1.84514 5.61768 2.01759C5.59701 2.04833 5.54793 2.09218 5.45068 2.1797C5.40394 2.22177 5.37973 2.24338 5.36377 2.26369C5.27811 2.37301 5.27919 2.52707 5.36572 2.63576C5.3818 2.65589 5.40487 2.67718 5.45166 2.71877L5.65283 2.89748C5.8165 3.04296 5.89866 3.11556 5.92041 3.20802C5.92804 3.24059 5.92973 3.27436 5.92627 3.30763C5.91631 3.40221 5.84411 3.48537 5.69971 3.65041C5.55552 3.81519 5.48313 3.89772 5.47314 3.9922C5.46964 4.0255 5.47238 4.05921 5.47998 4.09181C5.50168 4.1844 5.58366 4.25765 5.74756 4.40334L5.87647 4.51759C6.03454 4.6581 6.11395 4.72871 6.13623 4.81935C6.14293 4.84665 6.14517 4.87525 6.14404 4.90334C6.14019 4.99652 6.0765 5.08095 5.94971 5.25002C5.8228 5.41923 5.76008 5.50438 5.75635 5.59767C5.75526 5.62559 5.75752 5.65354 5.76416 5.68068C5.78642 5.77136 5.86581 5.84189 6.02393 5.98244L6.29541 6.22365C6.41407 6.32912 6.47292 6.38249 6.50732 6.45119C6.51232 6.46119 6.51783 6.47108 6.52197 6.48146C6.55042 6.55279 6.55029 6.63237 6.55029 6.79103V7.31056C6.55029 7.8179 6.55046 8.07197 6.40674 8.24025C6.38633 8.26415 6.36326 8.28624 6.33936 8.30666C6.17104 8.45014 5.91691 8.45021 5.40967 8.45021H4.59033C4.083 8.45021 3.82896 8.45021 3.66064 8.30666C3.63688 8.28636 3.61456 8.26399 3.59424 8.24025C3.45051 8.07197 3.44971 7.8179 3.44971 7.31056V6.45021L3.6958 2.4424C3.72024 2.0433 3.73199 1.84333 3.85107 1.71291C3.86806 1.69432 3.88715 1.67696 3.90674 1.66115C4.04419 1.5504 4.24438 1.54982 4.64404 1.54982H5.2085ZM4.6499 6.75002C4.55719 6.75002 4.51076 6.75017 4.47217 6.75783C4.31349 6.78939 4.18928 6.91361 4.15771 7.07228C4.15006 7.11087 4.1499 7.15731 4.1499 7.25002C4.1499 7.34295 4.15003 7.39009 4.15771 7.42873C4.18942 7.58719 4.31364 7.71067 4.47217 7.7422C4.51077 7.74988 4.55713 7.75002 4.6499 7.75002H5.25049C5.34317 7.75002 5.38963 7.74988 5.42822 7.7422C5.5867 7.71063 5.71099 7.58717 5.74268 7.42873C5.75036 7.39009 5.75049 7.34295 5.75049 7.25002C5.75049 7.15733 5.75033 7.11086 5.74268 7.07228C5.71112 6.91362 5.58687 6.78941 5.42822 6.75783C5.38964 6.75015 5.34317 6.75002 5.25049 6.75002H4.6499Z" fill="white"/>
</g>
<defs>
<filter id="filter0_i_1142_1515" x="0" y="0" width="10" height="10" filterUnits="userSpaceOnUse" color-interpolation-filters="sRGB">
<feFlood flood-opacity="0" result="BackgroundImageFix"/>
<feBlend mode="normal" in="SourceGraphic" in2="BackgroundImageFix" result="shape"/>
<feColorMatrix in="SourceAlpha" type="matrix" values="0 0 0 0 0 0 0 0 0 0 0 0 0 0 0 0 0 0 127 0" result="hardAlpha"/>
<feOffset/>
<feGaussianBlur stdDeviation="1"/>
<feComposite in2="hardAlpha" operator="arithmetic" k2="-1" k3="1"/>
<feColorMatrix type="matrix" values="0 0 0 0 0.942 0 0 0 0 0.94 0 0 0 0 1 0 0 0 0.1 0"/>
<feBlend mode="hard-light" in2="shape" result="effect1_innerShadow_1142_1515"/>
</filter>
</defs>
</svg>
