<svg width="10" height="10" viewBox="0 0 10 10" fill="none" xmlns="http://www.w3.org/2000/svg">
<g filter="url(#filter0_i_1142_1558)">
<path d="M3.0376 2.52115C3.18176 2.48797 3.36872 2.53725 3.7417 2.63541C3.95235 2.69084 4.0578 2.71881 4.14014 2.7731C4.24771 2.84409 4.32951 2.94788 4.37354 3.069C4.40715 3.16175 4.40982 3.27109 4.41455 3.48892L4.47504 6.27982C4.48595 6.78293 4.4914 7.03448 4.35296 7.20534C4.33329 7.22961 4.31176 7.25231 4.28856 7.27324C4.12524 7.42049 3.87375 7.42832 3.37077 7.44397L2.0835 7.48404C1.73605 7.4949 1.5621 7.5005 1.4458 7.40494C1.42939 7.3914 1.41395 7.37598 1.3999 7.36002C1.30038 7.24676 1.30029 7.0724 1.30029 6.72427C1.30029 6.64478 1.30029 6.60503 1.30462 6.56921C1.32932 6.36454 1.45736 6.18689 1.64372 6.09873C1.67633 6.0833 1.71404 6.07073 1.78946 6.04559L2.01592 5.9701C2.33548 5.86359 2.49526 5.81033 2.59933 5.69892C2.64613 5.64883 2.68399 5.59109 2.71128 5.52821C2.77198 5.38836 2.75715 5.22059 2.72749 4.88506L2.61279 3.58755C2.57891 3.20352 2.56167 3.01114 2.61865 2.87466C2.69317 2.69634 2.84928 2.5646 3.0376 2.52115ZM6.2583 2.63541C6.63081 2.53738 6.81735 2.48816 6.96143 2.52115C7.14992 2.56453 7.30679 2.6962 7.38135 2.87466C7.43833 3.01114 7.42109 3.20354 7.38721 3.58755L7.27251 4.88506C7.24285 5.22059 7.22802 5.38836 7.28872 5.52821C7.31601 5.59109 7.35387 5.64883 7.40067 5.69892C7.50474 5.81033 7.66452 5.86359 7.98408 5.9701L8.21054 6.04559C8.28596 6.07073 8.32367 6.0833 8.35628 6.09873C8.54264 6.18689 8.67068 6.36454 8.69538 6.56921C8.69971 6.60503 8.69971 6.64478 8.69971 6.72427C8.69971 7.0724 8.69962 7.24676 8.6001 7.36002C8.58602 7.37602 8.57064 7.39138 8.5542 7.40494C8.43792 7.50058 8.26394 7.4949 7.9165 7.48404L6.62855 7.44397C6.12545 7.42832 5.8739 7.42049 5.71057 7.27319C5.68736 7.25226 5.66583 7.22956 5.64616 7.20527C5.50772 7.03436 5.51324 6.78275 5.52427 6.27953L5.58545 3.48892C5.59018 3.2711 5.59188 3.16175 5.62549 3.069C5.66949 2.94777 5.75221 2.84414 5.85986 2.7731C5.94218 2.71887 6.04776 2.69081 6.2583 2.63541Z" fill="white"/>
</g>
<defs>
<filter id="filter0_i_1142_1558" x="0" y="0" width="10" height="10" filterUnits="userSpaceOnUse" color-interpolation-filters="sRGB">
<feFlood flood-opacity="0" result="BackgroundImageFix"/>
<feBlend mode="normal" in="SourceGraphic" in2="BackgroundImageFix" result="shape"/>
<feColorMatrix in="SourceAlpha" type="matrix" values="0 0 0 0 0 0 0 0 0 0 0 0 0 0 0 0 0 0 127 0" result="hardAlpha"/>
<feOffset/>
<feGaussianBlur stdDeviation="1"/>
<feComposite in2="hardAlpha" operator="arithmetic" k2="-1" k3="1"/>
<feColorMatrix type="matrix" values="0 0 0 0 0.942 0 0 0 0 0.94 0 0 0 0 1 0 0 0 0.1 0"/>
<feBlend mode="hard-light" in2="shape" result="effect1_innerShadow_1142_1558"/>
</filter>
</defs>
</svg>
