<svg width="10" height="10" viewBox="0 0 10 10" fill="none" xmlns="http://www.w3.org/2000/svg">
<g filter="url(#filter0_i_1142_1529)">
<path d="M7.49997 5.34911C7.49974 6.72982 6.38031 7.84901 4.99997 7.84911C3.61958 7.84911 2.50013 6.73002 2.49997 5.34911V4.79075C2.49997 4.45238 2.49997 4.28319 2.59581 4.17097C2.60942 4.15504 2.62426 4.1402 2.64019 4.12659C2.7524 4.03075 2.92159 4.03075 3.25997 4.03075H3.33958C3.67796 4.03075 3.84715 4.03075 3.95936 4.12659C3.97529 4.1402 3.99013 4.15504 4.00374 4.17097C4.09958 4.28319 4.09958 4.45238 4.09958 4.79075V5.34911C4.09974 5.84581 4.50268 6.24853 4.99997 6.24853C5.49705 6.24842 5.90013 5.84577 5.90036 5.34911V4.79075C5.90036 4.45238 5.90036 4.28319 5.9962 4.17097C6.00981 4.15504 6.02465 4.1402 6.04058 4.12659C6.15279 4.03075 6.32198 4.03075 6.66036 4.03075H6.73997C7.07835 4.03075 7.24754 4.03075 7.35975 4.12659C7.37568 4.1402 7.39052 4.15504 7.40413 4.17097C7.49997 4.28319 7.49997 4.45238 7.49997 4.79075V5.34911ZM4.09958 2.7412C4.09958 2.91851 4.09958 3.00716 4.07197 3.07757C4.03131 3.18124 3.94928 3.26327 3.84561 3.30393C3.7752 3.33154 3.68655 3.33154 3.50925 3.33154H3.0903C2.913 3.33154 2.82434 3.33154 2.75394 3.30393C2.65027 3.26327 2.56823 3.18124 2.52758 3.07757C2.49997 3.00716 2.49997 2.91851 2.49997 2.7412C2.49997 2.5639 2.49997 2.47525 2.52758 2.40484C2.56823 2.30117 2.65027 2.21914 2.75394 2.17848C2.82434 2.15087 2.913 2.15087 3.0903 2.15087H3.50925C3.68655 2.15087 3.7752 2.15087 3.84561 2.17848C3.94928 2.21914 4.03131 2.30117 4.07197 2.40484C4.09958 2.47525 4.09958 2.5639 4.09958 2.7412ZM7.49997 2.7412C7.49997 2.91851 7.49997 3.00716 7.47236 3.07757C7.43171 3.18124 7.34967 3.26327 7.246 3.30393C7.17559 3.33154 7.08694 3.33154 6.90964 3.33154H6.49069C6.31339 3.33154 6.22473 3.33154 6.15433 3.30393C6.05066 3.26327 5.96862 3.18124 5.92797 3.07757C5.90036 3.00716 5.90036 2.91851 5.90036 2.7412C5.90036 2.5639 5.90036 2.47525 5.92797 2.40484C5.96862 2.30117 6.05066 2.21914 6.15433 2.17848C6.22473 2.15087 6.31339 2.15087 6.49069 2.15087H6.90964C7.08694 2.15087 7.17559 2.15087 7.246 2.17848C7.34967 2.21914 7.43171 2.30117 7.47236 2.40484C7.49997 2.47525 7.49997 2.5639 7.49997 2.7412Z" fill="white"/>
</g>
<defs>
<filter id="filter0_i_1142_1529" x="0" y="0" width="10" height="10" filterUnits="userSpaceOnUse" color-interpolation-filters="sRGB">
<feFlood flood-opacity="0" result="BackgroundImageFix"/>
<feBlend mode="normal" in="SourceGraphic" in2="BackgroundImageFix" result="shape"/>
<feColorMatrix in="SourceAlpha" type="matrix" values="0 0 0 0 0 0 0 0 0 0 0 0 0 0 0 0 0 0 127 0" result="hardAlpha"/>
<feOffset/>
<feGaussianBlur stdDeviation="1"/>
<feComposite in2="hardAlpha" operator="arithmetic" k2="-1" k3="1"/>
<feColorMatrix type="matrix" values="0 0 0 0 0.942 0 0 0 0 0.94 0 0 0 0 1 0 0 0 0.1 0"/>
<feBlend mode="hard-light" in2="shape" result="effect1_innerShadow_1142_1529"/>
</filter>
</defs>
</svg>
