<svg width="10" height="10" viewBox="0 0 10 10" fill="none" xmlns="http://www.w3.org/2000/svg">
<g filter="url(#filter0_i_1142_1523)">
<path d="M6.04443 2.30149C6.15046 2.2149 6.30991 2.25822 6.35791 2.38645C6.36755 2.41225 6.37193 2.46283 6.38037 2.56321C6.39374 2.72221 6.4004 2.80194 6.40088 2.87962C6.40308 3.24121 6.30728 3.5965 6.12353 3.90794C6.08403 3.97487 6.0384 4.04075 5.94678 4.17161L5.8398 4.32385C5.73471 4.47342 5.68216 4.54821 5.67692 4.6328C5.67617 4.64502 5.67616 4.65727 5.6769 4.66949C5.68203 4.75408 5.73448 4.82894 5.83938 4.97865L6.31129 5.65212C6.35382 5.71282 6.42637 5.74389 6.50049 5.74387C7.05277 5.74387 7.50049 6.19159 7.50049 6.74387C7.50039 7.29607 7.05271 7.74387 6.50049 7.74387C5.94838 7.74374 5.50059 7.29599 5.50049 6.74387C5.50049 6.70352 5.50289 6.66371 5.50756 6.62458C5.52721 6.45985 5.53703 6.37749 5.53174 6.33923C5.52758 6.30918 5.52639 6.30443 5.51584 6.27599C5.50241 6.23977 5.4741 6.19938 5.41749 6.1186C5.26266 5.89767 5.18524 5.78721 5.08501 5.75743C5.02923 5.74086 4.96984 5.74087 4.91407 5.75745C4.81385 5.78725 4.73662 5.8975 4.58216 6.11801C4.52581 6.19846 4.49763 6.23869 4.48422 6.27474C4.47354 6.30345 4.47236 6.30817 4.46819 6.33852C4.46297 6.37663 4.47277 6.45889 4.49238 6.62341C4.49709 6.66292 4.49951 6.70312 4.49951 6.74387C4.49941 7.29607 4.05173 7.74387 3.49951 7.74387C2.94732 7.74384 2.49961 7.29605 2.49951 6.74387C2.49951 6.19161 2.94726 5.74391 3.49951 5.74387C3.57363 5.74387 3.64616 5.7128 3.68865 5.65208L4.16065 4.97763C4.26511 4.82835 4.31735 4.75372 4.32254 4.66937C4.32328 4.65718 4.32329 4.64496 4.32255 4.63278C4.31743 4.54842 4.26526 4.47374 4.16092 4.32438L4.0542 4.17161C3.96254 4.0407 3.91598 3.97489 3.87646 3.90794C3.69278 3.59654 3.59692 3.24115 3.59912 2.87962C3.5996 2.80194 3.60626 2.7222 3.61963 2.56321C3.62807 2.46283 3.63245 2.41225 3.64209 2.38645C3.69008 2.25804 3.85049 2.21462 3.95654 2.30149C3.97783 2.31901 4.00632 2.36077 4.06396 2.44309L4.53275 3.11299C4.73301 3.39917 4.83314 3.54226 4.97081 3.55555C4.98994 3.5574 5.0092 3.5574 5.02832 3.55557C5.166 3.54234 5.2662 3.3993 5.46661 3.11322L5.93603 2.44309C5.99382 2.36057 6.02313 2.31894 6.04443 2.30149Z" fill="white"/>
</g>
<defs>
<filter id="filter0_i_1142_1523" x="0" y="0" width="10" height="10" filterUnits="userSpaceOnUse" color-interpolation-filters="sRGB">
<feFlood flood-opacity="0" result="BackgroundImageFix"/>
<feBlend mode="normal" in="SourceGraphic" in2="BackgroundImageFix" result="shape"/>
<feColorMatrix in="SourceAlpha" type="matrix" values="0 0 0 0 0 0 0 0 0 0 0 0 0 0 0 0 0 0 127 0" result="hardAlpha"/>
<feOffset/>
<feGaussianBlur stdDeviation="1"/>
<feComposite in2="hardAlpha" operator="arithmetic" k2="-1" k3="1"/>
<feColorMatrix type="matrix" values="0 0 0 0 0.942 0 0 0 0 0.94 0 0 0 0 1 0 0 0 0.1 0"/>
<feBlend mode="hard-light" in2="shape" result="effect1_innerShadow_1142_1523"/>
</filter>
</defs>
</svg>
