<svg width="10" height="10" viewBox="0 0 10 10" fill="none" xmlns="http://www.w3.org/2000/svg">
<g filter="url(#filter0_i_1142_1461)">
<path fill-rule="evenodd" clip-rule="evenodd" d="M5.03028 1.85966C5.17365 1.8743 5.27534 2.03198 5.47852 2.34599L5.98394 3.12716C6.05322 3.23424 6.04723 3.37341 5.96901 3.47413L5.46345 4.12514C5.42258 4.17777 5.4004 4.24251 5.4004 4.30914V5.80569C5.4004 5.87052 5.4214 5.9336 5.46025 5.9855L5.94533 6.63332C5.98098 6.68092 6.00167 6.73804 6.00478 6.79743L6.05868 7.82526C6.07308 8.0998 5.74136 8.2475 5.54696 8.0531L5.21214 7.71827C5.09498 7.60112 4.90503 7.60112 4.78787 7.71827L4.45305 8.0531C4.25865 8.2475 3.92693 8.0998 3.94133 7.82526L3.99523 6.79743C3.99834 6.73804 4.01903 6.68092 4.05468 6.63332L4.53975 5.9855C4.57861 5.9336 4.59961 5.87052 4.59961 5.80569V4.30914C4.59961 4.24251 4.57743 4.17777 4.53656 4.12514L4.031 3.47413C3.95278 3.37341 3.94679 3.23424 4.01607 3.12716L4.52149 2.34599C4.72471 2.03192 4.82631 1.87425 4.96973 1.85966C4.98958 1.85767 5.01043 1.85767 5.03028 1.85966Z" fill="white"/>
</g>
<defs>
<filter id="filter0_i_1142_1461" x="0" y="0" width="10" height="10" filterUnits="userSpaceOnUse" color-interpolation-filters="sRGB">
<feFlood flood-opacity="0" result="BackgroundImageFix"/>
<feBlend mode="normal" in="SourceGraphic" in2="BackgroundImageFix" result="shape"/>
<feColorMatrix in="SourceAlpha" type="matrix" values="0 0 0 0 0 0 0 0 0 0 0 0 0 0 0 0 0 0 127 0" result="hardAlpha"/>
<feOffset/>
<feGaussianBlur stdDeviation="1"/>
<feComposite in2="hardAlpha" operator="arithmetic" k2="-1" k3="1"/>
<feColorMatrix type="matrix" values="0 0 0 0 0.942 0 0 0 0 0.94 0 0 0 0 1 0 0 0 0.1 0"/>
<feBlend mode="hard-light" in2="shape" result="effect1_innerShadow_1142_1461"/>
</filter>
</defs>
</svg>
