<svg width="10" height="10" viewBox="0 0 10 10" fill="none" xmlns="http://www.w3.org/2000/svg">
<g filter="url(#filter0_i_1555_71)">
<path d="M5.86761 1.80212C5.43359 1.82915 5.06693 2.13344 4.96039 2.55505C4.95277 2.58519 4.94601 2.61971 4.93304 2.68884C4.92267 2.74415 4.91765 2.77216 4.91156 2.79626C4.82628 3.13332 4.53296 3.37705 4.18597 3.3988C4.1612 3.40035 4.13271 3.39978 4.0766 3.39978H3.80219C3.33406 3.39978 3.09999 3.40011 2.91547 3.47693C2.67188 3.57838 2.47786 3.7724 2.3764 4.01599C2.29975 4.20047 2.30023 4.43487 2.30023 4.90271V6.30017C2.30023 7.14578 2.30009 7.56849 2.53949 7.849C2.57351 7.88883 2.61098 7.9263 2.65082 7.96033C2.93133 8.19971 3.35404 8.19958 4.19965 8.19958H5.80023C6.64582 8.19958 7.06858 8.19981 7.34906 7.96033C7.3889 7.9263 7.42637 7.88883 7.46039 7.849C7.69968 7.56849 7.69965 7.14566 7.69965 6.30017V3.07654C7.69965 2.63215 7.69953 2.40965 7.61371 2.23962C7.53665 2.08697 7.41284 1.96317 7.26019 1.88611C7.09017 1.80029 6.86767 1.80017 6.42328 1.80017H6.00433C5.93398 1.80017 5.89864 1.80019 5.86761 1.80212ZM5.02777 4.20056C5.11784 4.20056 5.18166 4.24085 5.19086 4.24646C5.21249 4.25966 5.22911 4.27343 5.23871 4.28162C5.25881 4.29877 5.27715 4.31805 5.29144 4.33337C5.32145 4.36556 5.35633 4.40755 5.39301 4.45349C5.46742 4.54672 5.56111 4.67276 5.65668 4.81189C5.84111 5.08041 6.06115 5.43647 6.14984 5.70642C6.23745 5.97353 6.27789 6.35697 6.12543 6.69275C6.0462 6.86699 5.91604 7.02516 5.72406 7.13611C5.5345 7.2455 5.30086 7.30017 5.02777 7.30017C4.75465 7.3001 4.52101 7.24563 4.33148 7.13611C4.13962 7.02515 4.00931 6.86694 3.93011 6.69275C3.77781 6.35708 3.81909 5.97346 3.90668 5.70642C3.99538 5.43652 4.21543 5.08038 4.39984 4.81189C4.49521 4.67305 4.5882 4.54665 4.66254 4.45349C4.69919 4.40758 4.73508 4.36555 4.76508 4.33337C4.77933 4.31809 4.79778 4.29872 4.81781 4.28162C4.8274 4.27345 4.84419 4.25958 4.86566 4.24646C4.87288 4.24204 4.91032 4.21806 4.96625 4.20642L5.02777 4.20056ZM4.4516 5.28259C4.38192 5.39685 4.31716 5.5108 4.26703 5.6156C4.26431 5.6213 4.26284 5.62754 4.26019 5.63318C4.31135 5.52379 4.37822 5.40308 4.4516 5.28259ZM4.77484 4.80408C4.72091 4.87762 4.6624 4.96014 4.60394 5.04724C4.66235 4.9601 4.72096 4.87765 4.77484 4.80408ZM4.98383 4.53748C4.94637 4.57763 4.88967 4.64794 4.82269 4.73669C4.88961 4.6479 4.94639 4.57764 4.98383 4.53748ZM6.80023 2.29919C7.02083 2.29941 7.20041 2.47898 7.20062 2.69958C7.20062 2.92036 7.02096 3.09976 6.80023 3.09998H5.89984C5.67911 3.09976 5.50043 2.92037 5.50043 2.69958C5.50064 2.47898 5.67924 2.29941 5.89984 2.29919H6.80023Z" fill="white"/>
<path d="M3.9006 2.39996H2.9006" stroke="white" stroke-width="0.9" stroke-linecap="round"/>
</g>
<defs>
<filter id="filter0_i_1555_71" x="0" y="0" width="10" height="10" filterUnits="userSpaceOnUse" color-interpolation-filters="sRGB">
<feFlood flood-opacity="0" result="BackgroundImageFix"/>
<feBlend mode="normal" in="SourceGraphic" in2="BackgroundImageFix" result="shape"/>
<feColorMatrix in="SourceAlpha" type="matrix" values="0 0 0 0 0 0 0 0 0 0 0 0 0 0 0 0 0 0 127 0" result="hardAlpha"/>
<feOffset/>
<feGaussianBlur stdDeviation="1"/>
<feComposite in2="hardAlpha" operator="arithmetic" k2="-1" k3="1"/>
<feColorMatrix type="matrix" values="0 0 0 0 0.942 0 0 0 0 0.94 0 0 0 0 1 0 0 0 0.1 0"/>
<feBlend mode="hard-light" in2="shape" result="effect1_innerShadow_1555_71"/>
</filter>
</defs>
</svg>
