<svg width="10" height="10" viewBox="0 0 10 10" fill="none" xmlns="http://www.w3.org/2000/svg">
<g filter="url(#filter0_i_1192_5519)">
<path d="M5 2C6.65685 2 8 3.34315 8 5C8 6.65685 6.65685 8 5 8C3.34315 8 2 6.65685 2 5C2 3.34315 3.34315 2 5 2ZM5.20801 3.02734C5.07599 2.96699 4.92401 2.96699 4.79199 3.02734C4.62494 3.1039 4.50504 3.36103 4.26562 3.87402C4.21862 3.97475 4.195 4.02528 4.16211 4.06836C4.1353 4.10339 4.10339 4.1353 4.06836 4.16211C4.02527 4.19502 3.97475 4.21861 3.87402 4.26562C3.36103 4.50504 3.1039 4.62494 3.02734 4.79199C2.96695 4.92402 2.96699 5.07597 3.02734 5.20801C3.1039 5.37506 3.36103 5.49496 3.87402 5.73438C3.97474 5.78138 4.02528 5.805 4.06836 5.83789C4.10339 5.8647 4.1353 5.89661 4.16211 5.93164C4.19502 5.97472 4.21862 6.02526 4.26562 6.12598C4.50504 6.63897 4.62494 6.89609 4.79199 6.97266C4.92404 7.03304 5.07596 7.03304 5.20801 6.97266C5.37506 6.89609 5.49496 6.63897 5.73438 6.12598C5.78138 6.02526 5.80498 5.97473 5.83789 5.93164C5.8647 5.89661 5.89661 5.8647 5.93164 5.83789C5.97472 5.805 6.02526 5.78138 6.12598 5.73438C6.63897 5.49496 6.89609 5.37506 6.97266 5.20801C7.033 5.07597 7.03304 4.92402 6.97266 4.79199C6.89609 4.62494 6.63897 4.50504 6.12598 4.26562C6.02524 4.21861 5.97473 4.19502 5.93164 4.16211C5.89661 4.1353 5.8647 4.10339 5.83789 4.06836C5.805 4.02528 5.78138 3.97475 5.73438 3.87402C5.49496 3.36103 5.37506 3.1039 5.20801 3.02734Z" fill="white"/>
</g>
<defs>
<filter id="filter0_i_1192_5519" x="0" y="0" width="10" height="10" filterUnits="userSpaceOnUse" color-interpolation-filters="sRGB">
<feFlood flood-opacity="0" result="BackgroundImageFix"/>
<feBlend mode="normal" in="SourceGraphic" in2="BackgroundImageFix" result="shape"/>
<feColorMatrix in="SourceAlpha" type="matrix" values="0 0 0 0 0 0 0 0 0 0 0 0 0 0 0 0 0 0 127 0" result="hardAlpha"/>
<feOffset/>
<feGaussianBlur stdDeviation="1"/>
<feComposite in2="hardAlpha" operator="arithmetic" k2="-1" k3="1"/>
<feColorMatrix type="matrix" values="0 0 0 0 0.942 0 0 0 0 0.94 0 0 0 0 1 0 0 0 0.1 0"/>
<feBlend mode="hard-light" in2="shape" result="effect1_innerShadow_1192_5519"/>
</filter>
</defs>
</svg>
