<svg width="10" height="10" viewBox="0 0 10 10" fill="none" xmlns="http://www.w3.org/2000/svg">
<g filter="url(#filter0_i_1145_2669)">
<path fill-rule="evenodd" clip-rule="evenodd" d="M4.99952 2.17993C5.67517 2.17993 6.33373 2.3942 6.88038 2.79126C7.42709 3.18847 7.83464 3.74915 8.04347 4.39185C8.25215 5.03442 8.25224 5.72683 8.04347 6.36938C7.87271 6.89484 7.56909 7.3649 7.1652 7.73598C7.01547 7.87354 6.78351 7.8356 6.66403 7.67108C6.54458 7.50661 6.58345 7.27819 6.72835 7.13564C7.00882 6.8597 7.22057 6.51942 7.34327 6.14185C7.50407 5.64697 7.50407 5.11329 7.34327 4.61841C7.18244 4.1237 6.86862 3.69273 6.44776 3.38696C6.02683 3.0812 5.51979 2.91626 4.99952 2.91626C4.47928 2.91632 3.97217 3.08117 3.55128 3.38696C3.13056 3.6927 2.81757 4.12383 2.65675 4.61841C2.49595 5.11329 2.49595 5.64697 2.65675 6.14185C2.77941 6.51924 2.9907 6.85959 3.27084 7.13555C3.41564 7.27819 3.45448 7.50658 3.33504 7.67104C3.21555 7.83558 2.98355 7.87352 2.83387 7.73587C2.43031 7.3648 2.12728 6.89468 1.95655 6.36938C1.74776 5.7268 1.74783 5.03445 1.95655 4.39185C2.16537 3.74917 2.57199 3.18847 3.11866 2.79126C3.6653 2.39411 4.32385 2.17999 4.99952 2.17993ZM4.99952 3.59595C5.37965 3.59595 5.75059 3.71627 6.05812 3.9397C6.36538 4.16305 6.59398 4.47785 6.71144 4.83911C6.82887 5.20054 6.82881 5.58997 6.71144 5.95142C6.6304 6.20082 6.49652 6.42835 6.3203 6.61885C6.18856 6.76127 5.96565 6.72459 5.85159 6.56765C5.73751 6.41069 5.77854 6.19302 5.89188 6.03553C5.95758 5.94424 6.00928 5.84285 6.04444 5.73462C6.11599 5.51419 6.11606 5.27632 6.04444 5.05591C5.97277 4.83548 5.83255 4.64332 5.64503 4.50708C5.45748 4.37089 5.2313 4.29712 4.99952 4.29712C4.76776 4.29719 4.54152 4.37085 4.35401 4.50708C4.16662 4.64329 4.02724 4.8356 3.95558 5.05591C3.88395 5.27635 3.884 5.51416 3.95558 5.73462C3.99076 5.8429 4.04235 5.9444 4.10795 6.0358C4.22091 6.19316 4.26192 6.41045 4.14821 6.56728C4.0343 6.72437 3.81136 6.76121 3.67947 6.61887C3.50296 6.42838 3.36866 6.20087 3.28761 5.95142C3.17029 5.59003 3.1702 5.20047 3.28761 4.83911C3.40507 4.47769 3.63447 4.1631 3.94191 3.9397C4.24935 3.71633 4.61951 3.59601 4.99952 3.59595ZM4.99952 4.89575C5.27566 4.89576 5.49952 5.11962 5.49952 5.39575C5.49942 5.6718 5.27559 5.89574 4.99952 5.89575C4.72344 5.89575 4.49962 5.67181 4.49952 5.39575C4.49952 5.11961 4.72338 4.89575 4.99952 4.89575Z" fill="white"/>
</g>
<defs>
<filter id="filter0_i_1145_2669" x="0" y="0" width="10" height="10" filterUnits="userSpaceOnUse" color-interpolation-filters="sRGB">
<feFlood flood-opacity="0" result="BackgroundImageFix"/>
<feBlend mode="normal" in="SourceGraphic" in2="BackgroundImageFix" result="shape"/>
<feColorMatrix in="SourceAlpha" type="matrix" values="0 0 0 0 0 0 0 0 0 0 0 0 0 0 0 0 0 0 127 0" result="hardAlpha"/>
<feOffset/>
<feGaussianBlur stdDeviation="1"/>
<feComposite in2="hardAlpha" operator="arithmetic" k2="-1" k3="1"/>
<feColorMatrix type="matrix" values="0 0 0 0 0.942 0 0 0 0 0.94 0 0 0 0 1 0 0 0 0.1 0"/>
<feBlend mode="hard-light" in2="shape" result="effect1_innerShadow_1145_2669"/>
</filter>
</defs>
</svg>
