<svg width="10" height="10" viewBox="0 0 10 10" fill="none" xmlns="http://www.w3.org/2000/svg">
<g filter="url(#filter0_i_1079_244)">
<path fill-rule="evenodd" clip-rule="evenodd" d="M4.99984 2.1499C5.44087 2.1499 5.922 2.62638 6.51741 2.90381C7.1914 3.21785 7.52876 3.37535 7.60726 3.50049C7.62305 3.52567 7.62492 3.52884 7.63753 3.55615C7.69937 3.69026 7.67168 3.88185 7.61702 4.26416C7.27518 6.65474 5.95061 7.8501 4.99984 7.8501C4.0484 7.84971 2.72325 6.5775 2.38265 4.16357C2.32738 3.77188 2.29983 3.57596 2.36605 3.43896C2.37925 3.41171 2.38161 3.40664 2.39827 3.38135C2.48212 3.25421 2.81804 3.11389 3.48909 2.83252C4.08153 2.58411 4.56041 2.15018 4.99984 2.1499ZM4.85237 3.36182C4.73709 3.31013 4.67781 3.34437 4.55941 3.41162C4.385 3.51067 4.19403 3.63106 3.97933 3.70166C3.64848 3.81045 3.48301 3.8655 3.43538 3.9292C3.42637 3.94137 3.4241 3.94521 3.41683 3.9585C3.37877 4.02817 3.39012 4.13123 3.4139 4.3374C3.54791 5.49932 4.0575 6.24338 4.55159 6.53271C4.67353 6.60412 4.73448 6.63996 4.8514 6.58838C4.86334 6.58305 4.88566 6.57061 4.89632 6.56299C4.99993 6.48815 4.99984 6.39002 4.99984 6.19482V3.7251C4.99983 3.55075 5.00054 3.46306 4.89827 3.38818C4.8877 3.38045 4.86432 3.36719 4.85237 3.36182Z" fill="white"/>
</g>
<defs>
<filter id="filter0_i_1079_244" x="0" y="0" width="10" height="10" filterUnits="userSpaceOnUse" color-interpolation-filters="sRGB">
<feFlood flood-opacity="0" result="BackgroundImageFix"/>
<feBlend mode="normal" in="SourceGraphic" in2="BackgroundImageFix" result="shape"/>
<feColorMatrix in="SourceAlpha" type="matrix" values="0 0 0 0 0 0 0 0 0 0 0 0 0 0 0 0 0 0 127 0" result="hardAlpha"/>
<feOffset/>
<feGaussianBlur stdDeviation="1"/>
<feComposite in2="hardAlpha" operator="arithmetic" k2="-1" k3="1"/>
<feColorMatrix type="matrix" values="0 0 0 0 0.942 0 0 0 0 0.94 0 0 0 0 1 0 0 0 0.1 0"/>
<feBlend mode="hard-light" in2="shape" result="effect1_innerShadow_1079_244"/>
</filter>
</defs>
</svg>
