<svg width="10" height="10" viewBox="0 0 10 10" fill="none" xmlns="http://www.w3.org/2000/svg">
<g filter="url(#filter0_i_1145_2785)">
<path d="M6.5 2.19971C6.72078 2.19971 6.90018 2.37937 6.90039 2.6001V7.3999C6.90039 7.62082 6.72091 7.80029 6.5 7.80029C6.27923 7.80012 6.09961 7.62071 6.09961 7.3999V2.6001C6.09982 2.37947 6.27936 2.19988 6.5 2.19971ZM3.5 3.1001C3.72091 3.1001 3.90039 3.27957 3.90039 3.50049V6.50049C3.90039 6.7214 3.72091 6.90088 3.5 6.90088C3.27925 6.90068 3.09961 6.72128 3.09961 6.50049V3.50049C3.09961 3.27969 3.27925 3.10029 3.5 3.1001ZM8 3.3999C8.22085 3.3999 8.40028 3.57947 8.40039 3.80029V6.1001C8.40039 6.32101 8.22091 6.50049 8 6.50049C7.77922 6.50033 7.59961 6.32091 7.59961 6.1001V3.80029C7.59971 3.57957 7.77928 3.40006 8 3.3999ZM5 3.80029C5.22091 3.80029 5.40038 3.97977 5.40039 4.20068V5.80029C5.40029 6.02111 5.22085 6.20068 5 6.20068C4.77934 6.20047 4.59973 6.02098 4.59961 5.80029V4.20068C4.59961 3.97989 4.77925 3.80048 5 3.80029ZM2 4.19971C2.22079 4.19971 2.40018 4.37936 2.40039 4.6001V5.3999C2.40039 5.62082 2.22091 5.80029 2 5.80029C1.77926 5.80009 1.59961 5.62069 1.59961 5.3999V4.6001C1.59982 4.37949 1.77939 4.19991 2 4.19971Z" fill="white"/>
</g>
<defs>
<filter id="filter0_i_1145_2785" x="0" y="0" width="10" height="10" filterUnits="userSpaceOnUse" color-interpolation-filters="sRGB">
<feFlood flood-opacity="0" result="BackgroundImageFix"/>
<feBlend mode="normal" in="SourceGraphic" in2="BackgroundImageFix" result="shape"/>
<feColorMatrix in="SourceAlpha" type="matrix" values="0 0 0 0 0 0 0 0 0 0 0 0 0 0 0 0 0 0 127 0" result="hardAlpha"/>
<feOffset/>
<feGaussianBlur stdDeviation="1"/>
<feComposite in2="hardAlpha" operator="arithmetic" k2="-1" k3="1"/>
<feColorMatrix type="matrix" values="0 0 0 0 0.942 0 0 0 0 0.94 0 0 0 0 1 0 0 0 0.1 0"/>
<feBlend mode="hard-light" in2="shape" result="effect1_innerShadow_1145_2785"/>
</filter>
</defs>
</svg>
