<svg width="10" height="10" viewBox="0 0 10 10" fill="none" xmlns="http://www.w3.org/2000/svg">
<g filter="url(#filter0_i_1145_2673)">
<path d="M6.19608 2.3533C6.35849 2.13026 6.67108 2.08076 6.89432 2.24295C7.11723 2.40534 7.1667 2.71799 7.00467 2.94119L6.71306 3.34201C6.6293 3.45714 6.58742 3.51471 6.57344 3.57269C6.57094 3.58309 6.57002 3.58779 6.56843 3.59836C6.55956 3.65735 6.58232 3.74904 6.62784 3.93244C6.64495 4.00137 6.65778 4.07208 6.6658 4.14432C6.67869 4.2638 6.76525 4.36231 6.88209 4.39045L7.616 4.56717C7.88433 4.63171 8.05047 4.90131 7.98611 5.16971C7.92164 5.4379 7.65182 5.60286 7.38358 5.53885L7.35854 5.53281C7.23541 5.50312 7.17384 5.48827 7.12588 5.49218C6.99344 5.50299 6.88389 5.59964 6.85665 5.7297C6.84679 5.77679 6.85384 5.83973 6.86795 5.96561C6.87196 6.00207 6.89368 6.03348 6.92861 6.0447L7.65213 6.27713C7.91479 6.36138 8.06021 6.64228 7.97635 6.90506C7.89219 7.16789 7.61032 7.3132 7.34744 7.22928L7.14294 7.1636C6.95028 7.10172 6.85395 7.07079 6.77572 7.08749C6.76187 7.09045 6.75566 7.09216 6.74224 7.0967C6.66647 7.12233 6.57961 7.22067 6.40591 7.41736C6.33195 7.5011 6.25062 7.57829 6.16287 7.64786C5.95857 7.80981 5.85643 7.89079 5.70025 7.83586C5.68288 7.82975 5.65543 7.81649 5.63985 7.80667C5.49979 7.71841 5.49979 7.55768 5.49979 7.23623V6.05252C5.49956 5.77657 5.27579 5.55252 4.99979 5.55252C4.72384 5.55258 4.50001 5.77661 4.49979 6.05252V7.2364C4.49979 7.55779 4.49979 7.71849 4.35973 7.80675C4.34415 7.81656 4.3167 7.82983 4.29933 7.83595C4.14317 7.89088 4.04105 7.80993 3.83681 7.64805C3.749 7.57844 3.66763 7.50121 3.59364 7.41741C3.41995 7.2207 3.33311 7.12235 3.25733 7.09671C3.24391 7.09217 3.23769 7.09046 3.22384 7.0875C3.14561 7.07079 3.04927 7.10173 2.85661 7.16361L2.65213 7.22928C2.3893 7.31318 2.10744 7.16781 2.02322 6.90506C1.93951 6.64234 2.08485 6.36136 2.34744 6.27713L3.06995 6.04473C3.1049 6.03349 3.12759 6.0021 3.13162 5.96561C3.14557 5.83924 3.15254 5.77606 3.14249 5.7288C3.11495 5.59925 3.00572 5.5031 2.87373 5.4922C2.82557 5.48822 2.76379 5.50315 2.64021 5.533L2.616 5.53885C2.3478 5.60283 2.07797 5.43783 2.01346 5.16971C1.94921 4.90138 2.11532 4.63172 2.38358 4.56717L3.11738 4.39047C3.23439 4.36229 3.32126 4.26392 3.33475 4.14432C3.34278 4.07203 3.35548 4.00126 3.37244 3.93226C3.41758 3.74861 3.44014 3.65679 3.43126 3.59804C3.42966 3.58747 3.42876 3.58285 3.42625 3.57246C3.4123 3.51471 3.37054 3.45719 3.28701 3.34214L2.99588 2.94119C2.83357 2.71784 2.88292 2.40531 3.10623 2.24295C3.32957 2.08085 3.64218 2.13008 3.80447 2.3533L3.88105 2.4586C4.00198 2.62487 4.06244 2.708 4.135 2.7407C4.14827 2.74668 4.1534 2.74865 4.16727 2.75306C4.24311 2.7772 4.37944 2.74806 4.65211 2.6898C4.76443 2.6658 4.88074 2.65313 4.99979 2.65311C5.11905 2.65312 5.23563 2.66587 5.34821 2.69C5.62037 2.74833 5.75644 2.77749 5.83226 2.75343C5.84612 2.74904 5.85127 2.74707 5.86453 2.74111C5.93707 2.7085 5.99757 2.62554 6.11857 2.4596L6.19608 2.3533Z" fill="white"/>
</g>
<defs>
<filter id="filter0_i_1145_2673" x="0" y="0" width="10" height="10" filterUnits="userSpaceOnUse" color-interpolation-filters="sRGB">
<feFlood flood-opacity="0" result="BackgroundImageFix"/>
<feBlend mode="normal" in="SourceGraphic" in2="BackgroundImageFix" result="shape"/>
<feColorMatrix in="SourceAlpha" type="matrix" values="0 0 0 0 0 0 0 0 0 0 0 0 0 0 0 0 0 0 127 0" result="hardAlpha"/>
<feOffset/>
<feGaussianBlur stdDeviation="1"/>
<feComposite in2="hardAlpha" operator="arithmetic" k2="-1" k3="1"/>
<feColorMatrix type="matrix" values="0 0 0 0 0.942 0 0 0 0 0.94 0 0 0 0 1 0 0 0 0.1 0"/>
<feBlend mode="hard-light" in2="shape" result="effect1_innerShadow_1145_2673"/>
</filter>
</defs>
</svg>
