<svg width="10" height="10" viewBox="0 0 10 10" fill="none" xmlns="http://www.w3.org/2000/svg">
<g filter="url(#filter0_i_1145_2795)">
<path d="M4.03516 1.84418C4.742 1.62806 5.50104 1.6557 6.19043 1.9223C6.87982 2.18897 7.45945 2.67935 7.83691 3.31488C8.11567 3.78423 8.27072 4.31251 8.29492 4.85199C8.29682 4.86777 8.2998 4.88355 8.2998 4.89984C8.2998 4.91388 8.29812 4.92827 8.29785 4.94281C8.29835 4.97144 8.30006 5.00007 8.2998 5.02875C8.29958 5.05411 8.29622 5.07877 8.29087 5.10224C8.28971 5.10728 8.28884 5.11236 8.28837 5.11752C8.26485 5.3735 8.19782 5.67182 8.04688 5.93597C7.83731 6.30249 7.46489 6.60004 6.89941 6.60004C6.39889 6.59981 6.05006 6.3665 5.83131 6.05859C5.79395 6.006 5.71806 5.99547 5.66769 6.03577C5.42855 6.22711 5.12602 6.34222 4.7959 6.34222C4.02286 6.34218 3.39571 5.71581 3.39551 4.94281C3.39551 4.16964 4.02274 3.54247 4.7959 3.54242C5.01268 3.54242 5.21757 3.59246 5.40061 3.68068C5.45933 3.70898 5.5321 3.6799 5.56944 3.62647C5.64111 3.52391 5.75913 3.4563 5.89355 3.45551C6.11431 3.45461 6.29475 3.63325 6.2959 3.85394L6.2998 4.89789V4.89984C6.29982 5.10876 6.34387 5.35732 6.44727 5.53851C6.53764 5.69668 6.66554 5.80001 6.89941 5.80023C7.13372 5.80023 7.26207 5.69679 7.35254 5.53851C7.45376 5.36121 7.49716 5.1196 7.49902 4.91351C7.4846 4.49564 7.36614 4.08535 7.15039 3.72211C6.86423 3.24049 6.42486 2.86851 5.90234 2.66644C5.37976 2.46435 4.80436 2.444 4.26855 2.60785C3.73272 2.77174 3.26742 3.11086 2.94727 3.57074C2.62713 4.03062 2.47063 4.58458 2.50293 5.14398C2.53525 5.70331 2.75413 6.23577 3.125 6.6557C3.49599 7.07567 3.99766 7.35929 4.54883 7.46039C4.96814 7.53727 5.39791 7.50514 5.79785 7.37054C6.00684 7.30017 6.24787 7.37171 6.35059 7.56683C6.45329 7.76199 6.37897 8.00602 6.17285 8.08441C5.61163 8.2978 4.99982 8.35477 4.4043 8.24554C3.67732 8.11212 3.01572 7.73893 2.52637 7.185C2.03693 6.63095 1.74772 5.92791 1.70508 5.18988C1.6625 4.45195 1.86969 3.72133 2.29199 3.11469C2.71436 2.50795 3.32822 2.06041 4.03516 1.84418ZM4.7959 4.31293C4.448 4.31298 4.16602 4.5949 4.16602 4.94281C4.16621 5.29055 4.44812 5.57264 4.7959 5.57269C5.14372 5.57269 5.42558 5.29058 5.42578 4.94281C5.42578 4.59487 5.14384 4.31293 4.7959 4.31293Z" fill="white"/>
</g>
<defs>
<filter id="filter0_i_1145_2795" x="0" y="0" width="10" height="10" filterUnits="userSpaceOnUse" color-interpolation-filters="sRGB">
<feFlood flood-opacity="0" result="BackgroundImageFix"/>
<feBlend mode="normal" in="SourceGraphic" in2="BackgroundImageFix" result="shape"/>
<feColorMatrix in="SourceAlpha" type="matrix" values="0 0 0 0 0 0 0 0 0 0 0 0 0 0 0 0 0 0 127 0" result="hardAlpha"/>
<feOffset/>
<feGaussianBlur stdDeviation="1"/>
<feComposite in2="hardAlpha" operator="arithmetic" k2="-1" k3="1"/>
<feColorMatrix type="matrix" values="0 0 0 0 0.942 0 0 0 0 0.94 0 0 0 0 1 0 0 0 0.1 0"/>
<feBlend mode="hard-light" in2="shape" result="effect1_innerShadow_1145_2795"/>
</filter>
</defs>
</svg>
