<svg width="10" height="10" viewBox="0 0 10 10" fill="none" xmlns="http://www.w3.org/2000/svg">
<g filter="url(#filter0_i_1079_176)">
<path d="M5.00391 2.60779C5.08137 2.61978 5.15657 2.6463 5.22363 2.68689C5.51262 2.8622 5.5127 3.43688 5.5127 4.58533V5.41541C5.5127 6.56395 5.51214 7.13876 5.22266 7.31384C5.15594 7.35413 5.08189 7.38093 5.00488 7.39294C4.71678 7.43781 4.40248 7.11746 3.84807 6.46503C3.71341 6.30657 3.64608 6.22734 3.55835 6.18205C3.54544 6.17538 3.53249 6.16939 3.51905 6.16387C3.42773 6.12634 3.32511 6.12634 3.11988 6.12634H3.0623C2.63933 6.12634 2.42784 6.12634 2.28758 6.00655C2.26766 5.98953 2.24911 5.97098 2.2321 5.95107C2.1123 5.8108 2.1123 5.59932 2.1123 5.17634V4.82634C2.1123 4.40337 2.1123 4.19188 2.2321 4.05162C2.24911 4.0317 2.26766 4.01315 2.28758 3.99614C2.42784 3.87634 2.63933 3.87634 3.0623 3.87634H3.11938C3.32483 3.87634 3.42756 3.87634 3.51896 3.83874C3.53242 3.83321 3.54537 3.82721 3.5583 3.82053C3.6461 3.77515 3.71343 3.69577 3.8481 3.53702C4.40196 2.88409 4.71593 2.56347 5.00391 2.60779ZM6.61914 3.17908C6.79471 3.00351 7.07957 3.00334 7.25535 3.17857C7.25569 3.1789 7.25597 3.17929 7.25618 3.17972L7.25622 3.17979C7.25662 3.1806 7.25727 3.18125 7.25807 3.18165C7.25855 3.18189 7.25898 3.18221 7.25929 3.18263C7.26003 3.18364 7.26077 3.18494 7.26172 3.18591C7.26433 3.18859 7.26803 3.19199 7.27148 3.19568C7.27851 3.20318 7.28767 3.21333 7.29785 3.22498C7.31844 3.24853 7.34559 3.28114 7.37598 3.32166C7.4371 3.40323 7.51417 3.51992 7.58984 3.67126C7.7423 3.97628 7.8877 4.41988 7.8877 4.99744C7.88763 5.575 7.74233 6.01864 7.58984 6.32361C7.51415 6.47495 7.43709 6.59169 7.37598 6.67322C7.34557 6.71374 7.31842 6.74637 7.29785 6.7699C7.28765 6.78155 7.2785 6.79171 7.27148 6.79919C7.26801 6.80288 7.2643 6.80629 7.26172 6.80896C7.26088 6.80989 7.26019 6.81107 7.2595 6.81202C7.25906 6.81261 7.25845 6.81303 7.2578 6.81336C7.25716 6.81368 7.25658 6.8141 7.25607 6.81461L7.25586 6.81482C7.08017 6.99031 6.79483 6.99128 6.61914 6.8158C6.44347 6.64012 6.44359 6.35483 6.61914 6.17908L6.62012 6.1781C6.62674 6.17054 6.63928 6.15544 6.65527 6.13416C6.68778 6.09081 6.7361 6.01933 6.78516 5.92126C6.88261 5.72635 6.98724 5.4195 6.9873 4.99744C6.9873 4.57539 6.8826 4.26859 6.78516 4.07361C6.73613 3.97557 6.68782 3.90413 6.65527 3.86072C6.63934 3.83951 6.62681 3.82443 6.62012 3.81677L6.61914 3.8158L6.56152 3.74548C6.44606 3.57086 6.46547 3.33293 6.61914 3.17908Z" fill="white"/>
</g>
<defs>
<filter id="filter0_i_1079_176" x="0" y="0" width="10" height="10" filterUnits="userSpaceOnUse" color-interpolation-filters="sRGB">
<feFlood flood-opacity="0" result="BackgroundImageFix"/>
<feBlend mode="normal" in="SourceGraphic" in2="BackgroundImageFix" result="shape"/>
<feColorMatrix in="SourceAlpha" type="matrix" values="0 0 0 0 0 0 0 0 0 0 0 0 0 0 0 0 0 0 127 0" result="hardAlpha"/>
<feOffset/>
<feGaussianBlur stdDeviation="1"/>
<feComposite in2="hardAlpha" operator="arithmetic" k2="-1" k3="1"/>
<feColorMatrix type="matrix" values="0 0 0 0 0.942 0 0 0 0 0.94 0 0 0 0 1 0 0 0 0.1 0"/>
<feBlend mode="hard-light" in2="shape" result="effect1_innerShadow_1079_176"/>
</filter>
</defs>
</svg>
