<svg width="10" height="10" viewBox="0 0 10 10" fill="none" xmlns="http://www.w3.org/2000/svg">
<g filter="url(#filter0_i_1191_5276)">
<path d="M2.99951 6.46533C2.99951 6.6987 2.99951 6.81539 3.04671 6.90373C3.08401 6.97355 3.1412 7.03073 3.21102 7.06804C3.29936 7.11523 3.41604 7.11523 3.64941 7.11523H6.34961C6.58298 7.11523 6.69967 7.11523 6.788 7.06804C6.85783 7.03073 6.91501 6.97355 6.95232 6.90373C6.99951 6.81539 6.99951 6.6987 6.99951 6.46533V6.41553C6.99951 6.22906 6.99951 6.13582 7.02999 6.06229C7.07059 5.96433 7.14841 5.8865 7.24637 5.84591C7.31991 5.81543 7.41314 5.81543 7.59961 5.81543C7.78608 5.81543 7.87931 5.81543 7.95285 5.84591C8.05081 5.8865 8.12863 5.96433 8.16923 6.06229C8.19971 6.13582 8.19971 6.22906 8.19971 6.41553V7.51562C8.1996 7.95732 7.84161 8.31536 7.3999 8.31543H2.6001C2.15833 8.31543 1.8004 7.95736 1.80029 7.51562V6.41504C1.80029 6.22903 1.80029 6.13602 1.83062 6.06264C1.87123 5.9644 1.94926 5.88636 2.0475 5.84576C2.12089 5.81543 2.21389 5.81543 2.3999 5.81543C2.58591 5.81543 2.67892 5.81543 2.7523 5.84576C2.85054 5.88636 2.92858 5.9644 2.96918 6.06264C2.99951 6.13602 2.99951 6.22903 2.99951 6.41504V6.46533ZM5.19678 1.68457C5.528 1.68457 5.79713 1.95301 5.79736 2.28418V2.34509C5.79736 2.66245 5.79736 2.82113 5.88045 2.92902C5.89322 2.94561 5.90422 2.95792 5.91927 2.97248C6.01715 3.06715 6.19681 3.08745 6.55612 3.12804C6.74502 3.14938 6.87136 3.19005 6.95361 3.26758C7.06737 3.37487 7.13446 3.52248 7.14111 3.67871C7.15122 3.91679 6.90964 4.19576 6.42627 4.75391L5.85889 5.40918C5.48053 5.84607 5.29102 6.06509 5.04834 6.08594C5.01432 6.08883 4.97982 6.08886 4.9458 6.08594C4.70319 6.06497 4.5136 5.84605 4.13525 5.40918L3.56885 4.75391C3.0854 4.19567 2.84292 3.91681 2.85303 3.67871C2.85967 3.52247 2.92774 3.37487 3.0415 3.26758C3.12366 3.19024 3.2497 3.14958 3.43805 3.12819C3.79745 3.08738 3.97715 3.06698 4.07496 2.97232C4.09001 2.95776 4.10098 2.94546 4.11376 2.92886C4.19678 2.821 4.19678 2.66237 4.19678 2.3451V2.28418C4.19701 1.95301 4.46614 1.68457 4.79736 1.68457H5.19678Z" fill="white"/>
</g>
<defs>
<filter id="filter0_i_1191_5276" x="0" y="0" width="10" height="10" filterUnits="userSpaceOnUse" color-interpolation-filters="sRGB">
<feFlood flood-opacity="0" result="BackgroundImageFix"/>
<feBlend mode="normal" in="SourceGraphic" in2="BackgroundImageFix" result="shape"/>
<feColorMatrix in="SourceAlpha" type="matrix" values="0 0 0 0 0 0 0 0 0 0 0 0 0 0 0 0 0 0 127 0" result="hardAlpha"/>
<feOffset/>
<feGaussianBlur stdDeviation="1"/>
<feComposite in2="hardAlpha" operator="arithmetic" k2="-1" k3="1"/>
<feColorMatrix type="matrix" values="0 0 0 0 0.942 0 0 0 0 0.94 0 0 0 0 1 0 0 0 0.1 0"/>
<feBlend mode="hard-light" in2="shape" result="effect1_innerShadow_1191_5276"/>
</filter>
</defs>
</svg>
