<svg width="10" height="10" viewBox="0 0 10 10" fill="none" xmlns="http://www.w3.org/2000/svg">
<g filter="url(#filter0_i_1079_142)">
<path d="M6.09961 2.50684C6.92794 2.50684 7.59945 3.17855 7.59961 4.00684C7.59961 4.18378 7.56835 4.35331 7.51172 4.51074C7.47546 4.61159 7.51078 4.72693 7.59668 4.79102C7.96298 5.06434 8.20004 5.50103 8.2002 5.99316C8.2002 6.82153 7.52853 7.49306 6.7002 7.49316H3.2998C2.47157 7.49294 1.7998 6.82145 1.7998 5.99316C1.79997 5.46338 2.07536 4.99814 2.49023 4.73145C2.55919 4.68712 2.60064 4.60932 2.59961 4.52734C2.59952 4.52055 2.59961 4.51364 2.59961 4.50684C2.59978 3.67862 3.27139 3.00696 4.09961 3.00684C4.30004 3.00685 4.49139 3.0465 4.66602 3.11816C4.76428 3.15848 4.88029 3.13045 4.94824 3.04883C5.22309 2.71841 5.63627 2.50702 6.09961 2.50684ZM5 3.69922C4.71955 3.69922 4.57838 3.69942 4.47754 3.7666C4.43407 3.79569 4.39629 3.8335 4.36719 3.87695C4.29983 3.97779 4.2998 4.11881 4.2998 4.39941V4.47266C4.2998 4.61823 4.29918 4.69137 4.2627 4.74316C4.25747 4.75056 4.25419 4.75492 4.24805 4.76172C4.20554 4.80873 4.11001 4.83017 3.91992 4.87305C3.90211 4.87708 3.88622 4.88183 3.87207 4.8877C3.62501 4.99056 3.50282 5.27018 3.59473 5.52148C3.62911 5.61525 3.73985 5.73528 3.96094 5.97461L4.30273 6.34375C4.61115 6.67762 4.765 6.84529 4.95898 6.86133C4.9862 6.86357 5.0138 6.86355 5.04102 6.86133C5.23489 6.84517 5.38995 6.67748 5.69824 6.34375L6.03906 5.97461C6.26002 5.73542 6.3709 5.61522 6.40527 5.52148C6.49718 5.27017 6.37502 4.99055 6.12793 4.8877C6.11361 4.88176 6.09718 4.87712 6.0791 4.87305C5.88923 4.83027 5.79449 4.80868 5.75195 4.76172C5.74566 4.75477 5.74172 4.75081 5.73633 4.74316C5.69983 4.69137 5.7002 4.6183 5.7002 4.47266V4.39941C5.7002 4.11878 5.70019 3.9778 5.63281 3.87695C5.60366 3.83341 5.56603 3.79571 5.52246 3.7666C5.42161 3.69929 5.28064 3.69922 5 3.69922Z" fill="white"/>
</g>
<defs>
<filter id="filter0_i_1079_142" x="0" y="0" width="10" height="10" filterUnits="userSpaceOnUse" color-interpolation-filters="sRGB">
<feFlood flood-opacity="0" result="BackgroundImageFix"/>
<feBlend mode="normal" in="SourceGraphic" in2="BackgroundImageFix" result="shape"/>
<feColorMatrix in="SourceAlpha" type="matrix" values="0 0 0 0 0 0 0 0 0 0 0 0 0 0 0 0 0 0 127 0" result="hardAlpha"/>
<feOffset/>
<feGaussianBlur stdDeviation="1"/>
<feComposite in2="hardAlpha" operator="arithmetic" k2="-1" k3="1"/>
<feColorMatrix type="matrix" values="0 0 0 0 0.942 0 0 0 0 0.94 0 0 0 0 1 0 0 0 0.1 0"/>
<feBlend mode="hard-light" in2="shape" result="effect1_innerShadow_1079_142"/>
</filter>
</defs>
</svg>
