<svg width="10" height="10" viewBox="0 0 10 10" fill="none" xmlns="http://www.w3.org/2000/svg">
<g filter="url(#filter0_i_1093_14)">
<path d="M6.29004 2.6001C7.05136 2.6001 7.4321 2.60029 7.68457 2.81592C7.72033 2.84648 7.75363 2.87976 7.78418 2.91553C7.99981 3.168 8 3.54871 8 4.31006V5.68994C8 6.45127 7.99981 6.832 7.78418 7.08447C7.75363 7.12023 7.72033 7.15353 7.68457 7.18408C7.4321 7.39971 7.05136 7.3999 6.29004 7.3999H3.70996C2.94864 7.3999 2.5679 7.39971 2.31543 7.18408C2.27967 7.15353 2.24637 7.12023 2.21582 7.08447C2.00019 6.832 2 6.45127 2 5.68994V4.31006C2 3.54871 2.00019 3.168 2.21582 2.91553C2.24637 2.87976 2.27967 2.84648 2.31543 2.81592C2.5679 2.60029 2.94864 2.6001 3.70996 2.6001H6.29004ZM4.19434 3.56982C4.12875 3.59374 4.06814 3.62946 4.01465 3.67432C3.80036 3.85413 3.7998 4.23589 3.7998 4.99951C3.7998 5.76338 3.80032 6.14584 4.01465 6.32568C4.06813 6.37051 4.12877 6.40628 4.19434 6.43018C4.45725 6.52587 4.78866 6.33457 5.4502 5.95264C6.11166 5.57074 6.44263 5.37952 6.49121 5.104C6.50332 5.03523 6.5033 4.96477 6.49121 4.896C6.44263 4.62049 6.1116 4.42923 5.4502 4.04736C4.78866 3.66543 4.45725 3.47413 4.19434 3.56982Z" fill="white"/>
</g>
<defs>
<filter id="filter0_i_1093_14" x="0" y="0" width="10" height="10" filterUnits="userSpaceOnUse" color-interpolation-filters="sRGB">
<feFlood flood-opacity="0" result="BackgroundImageFix"/>
<feBlend mode="normal" in="SourceGraphic" in2="BackgroundImageFix" result="shape"/>
<feColorMatrix in="SourceAlpha" type="matrix" values="0 0 0 0 0 0 0 0 0 0 0 0 0 0 0 0 0 0 127 0" result="hardAlpha"/>
<feOffset/>
<feGaussianBlur stdDeviation="1"/>
<feComposite in2="hardAlpha" operator="arithmetic" k2="-1" k3="1"/>
<feColorMatrix type="matrix" values="0 0 0 0 0.942 0 0 0 0 0.94 0 0 0 0 1 0 0 0 0.1 0"/>
<feBlend mode="hard-light" in2="shape" result="effect1_innerShadow_1093_14"/>
</filter>
</defs>
</svg>
