<svg width="10" height="10" viewBox="0 0 10 10" fill="none" xmlns="http://www.w3.org/2000/svg">
<g filter="url(#filter0_i_1223_2486)">
<path d="M5.88153 2.37421C5.97908 2.38601 6.07254 2.4208 6.15399 2.47577C6.38183 2.62955 6.41982 3.04229 6.42616 3.82017C6.42845 4.10062 6.65478 4.32831 6.93524 4.32831C7.57528 4.32831 7.89559 4.32796 8.06024 4.52069C8.08303 4.54739 8.10349 4.57608 8.12079 4.60663C8.24565 4.82724 8.13543 5.12813 7.91669 5.72968L7.59082 6.62697C7.42462 7.08459 7.34153 7.3134 7.1649 7.45401C7.13939 7.47431 7.11266 7.49304 7.08486 7.51009C6.89241 7.62811 6.64898 7.62811 6.16212 7.62811H5.34782C4.67106 7.62811 4.33268 7.62811 4.10826 7.43644C4.07639 7.40922 4.04671 7.37954 4.0195 7.34767C3.82782 7.12325 3.82782 6.78487 3.82782 6.10811V4.89394C3.82782 4.62818 3.82782 4.49531 3.86884 4.37219C3.87487 4.3541 3.88154 4.33624 3.88884 4.31863C3.93856 4.19875 4.02565 4.0984 4.19983 3.89768L4.46259 3.59491C5.19055 2.75495 5.5544 2.33464 5.88153 2.37421ZM3.02704 7.02802C3.02704 7.35944 2.75837 7.62811 2.42694 7.62811C2.09552 7.62811 1.82684 7.35944 1.82684 7.02802V4.92841C1.82684 4.59698 2.09552 4.32831 2.42694 4.32831C2.75837 4.32831 3.02704 4.59698 3.02704 4.92841V7.02802Z" fill="white"/>
</g>
<defs>
<filter id="filter0_i_1223_2486" x="0" y="0" width="10" height="10" filterUnits="userSpaceOnUse" color-interpolation-filters="sRGB">
<feFlood flood-opacity="0" result="BackgroundImageFix"/>
<feBlend mode="normal" in="SourceGraphic" in2="BackgroundImageFix" result="shape"/>
<feColorMatrix in="SourceAlpha" type="matrix" values="0 0 0 0 0 0 0 0 0 0 0 0 0 0 0 0 0 0 127 0" result="hardAlpha"/>
<feOffset/>
<feGaussianBlur stdDeviation="1"/>
<feComposite in2="hardAlpha" operator="arithmetic" k2="-1" k3="1"/>
<feColorMatrix type="matrix" values="0 0 0 0 0.942 0 0 0 0 0.94 0 0 0 0 1 0 0 0 0.1 0"/>
<feBlend mode="hard-light" in2="shape" result="effect1_innerShadow_1223_2486"/>
</filter>
</defs>
</svg>
