<svg width="10" height="10" viewBox="0 0 10 10" fill="none" xmlns="http://www.w3.org/2000/svg">
<g filter="url(#filter0_i_1093_32)">
<path d="M5 2.1499C5.2363 2.1499 5.3546 2.14998 5.45508 2.18701C5.56576 2.22783 5.66177 2.30081 5.73145 2.396C5.79468 2.48244 5.82765 2.59647 5.89258 2.82373C5.89737 2.8399 5.91098 2.85202 5.92758 2.85504C6.33011 2.92828 6.53464 2.96757 6.68359 3.08057C6.78003 3.15373 6.85829 3.24803 6.91309 3.35596C6.99952 3.52648 7 3.74075 7 4.16846V6.33057C7 7.007 7.0001 7.34543 6.80859 7.56982C6.7814 7.60167 6.75156 7.63149 6.71973 7.65869C6.49536 7.85032 6.15692 7.8501 5.48047 7.8501H4.51953C3.84309 7.8501 3.50464 7.85032 3.28027 7.65869C3.24844 7.63149 3.2186 7.60167 3.19141 7.56982C2.9999 7.34543 3 7.00699 3 6.33057V4.16846C3 3.74075 3.00048 3.52648 3.08691 3.35596C3.14171 3.24803 3.21997 3.15373 3.31641 3.08057C3.46536 2.96757 3.6699 2.92828 4.07242 2.85504C4.08902 2.85202 4.10263 2.8399 4.10742 2.82373C4.17235 2.59647 4.20532 2.48244 4.26855 2.396C4.33823 2.30081 4.43424 2.22783 4.54492 2.18701C4.6454 2.14998 4.7637 2.1499 5 2.1499ZM5 3.8501C4.72412 3.85031 4.50012 4.07419 4.5 4.3501C4.5 4.44346 4.5 4.49014 4.4897 4.52843C4.46191 4.63172 4.38123 4.7124 4.27794 4.74019C4.23965 4.75049 4.19297 4.75049 4.09961 4.75049C3.82373 4.7507 3.59973 4.97458 3.59961 5.25049C3.59982 5.52632 3.82378 5.75027 4.09961 5.75049C4.19271 5.75049 4.23926 5.75049 4.2772 5.76059C4.38109 5.78826 4.46223 5.8694 4.4899 5.97329C4.5 6.01123 4.5 6.05745 4.5 6.1499C4.5 6.42591 4.72404 6.64969 5 6.6499C5.27596 6.64969 5.5 6.42591 5.5 6.1499C5.5 6.05745 5.5 6.01123 5.5101 5.97329C5.53777 5.8694 5.61891 5.78826 5.7228 5.76059C5.76074 5.75049 5.80696 5.75049 5.89941 5.75049C6.17543 5.75049 6.3992 5.52645 6.39941 5.25049C6.39929 4.97445 6.17548 4.75049 5.89941 4.75049C5.80696 4.75049 5.76074 4.75049 5.7228 4.74038C5.61891 4.71272 5.53777 4.63158 5.5101 4.52769C5.5 4.48975 5.5 4.4432 5.5 4.3501C5.49988 4.07419 5.27589 3.85031 5 3.8501Z" fill="white"/>
</g>
<defs>
<filter id="filter0_i_1093_32" x="0" y="0" width="10" height="10" filterUnits="userSpaceOnUse" color-interpolation-filters="sRGB">
<feFlood flood-opacity="0" result="BackgroundImageFix"/>
<feBlend mode="normal" in="SourceGraphic" in2="BackgroundImageFix" result="shape"/>
<feColorMatrix in="SourceAlpha" type="matrix" values="0 0 0 0 0 0 0 0 0 0 0 0 0 0 0 0 0 0 127 0" result="hardAlpha"/>
<feOffset/>
<feGaussianBlur stdDeviation="1"/>
<feComposite in2="hardAlpha" operator="arithmetic" k2="-1" k3="1"/>
<feColorMatrix type="matrix" values="0 0 0 0 0.942 0 0 0 0 0.94 0 0 0 0 1 0 0 0 0.1 0"/>
<feBlend mode="hard-light" in2="shape" result="effect1_innerShadow_1093_32"/>
</filter>
</defs>
</svg>
