<svg width="10" height="10" viewBox="0 0 10 10" fill="none" xmlns="http://www.w3.org/2000/svg">
<g filter="url(#filter0_i_1197_453)">
<path d="M3.11332 2.68718C3.2487 2.83874 3.23303 3.06986 3.10335 3.22632C2.95961 3.39975 2.83998 3.59256 2.74809 3.7995C2.60621 4.11923 2.53386 4.46631 2.53618 4.8161C2.53855 5.16576 2.61473 5.5111 2.76079 5.8288C2.8555 6.03479 2.97801 6.2262 3.12438 6.39787C3.25616 6.55243 3.27497 6.78314 3.14182 6.93651C3.00853 7.09003 2.77416 7.10766 2.63709 6.9575C2.41488 6.71409 2.23116 6.43719 2.09282 6.13641C1.90311 5.72378 1.80292 5.27512 1.79985 4.82098C1.79684 4.36675 1.891 3.91685 2.07524 3.50165C2.20955 3.19898 2.38956 2.91957 2.60852 2.67315C2.7435 2.52124 2.97795 2.53563 3.11332 2.68718ZM6.88762 2.6883C7.02304 2.5367 7.25759 2.52237 7.39255 2.67439C7.61153 2.92108 7.79168 3.20087 7.92583 3.5036C8.10971 3.91868 8.20341 4.36799 8.20024 4.82196C8.19707 5.27598 8.09697 5.72391 7.90727 6.13641C7.76894 6.43718 7.58521 6.71409 7.363 6.9575C7.22593 7.10766 6.99156 7.09003 6.85827 6.93651C6.72512 6.78314 6.74393 6.55242 6.87569 6.39785C7.02205 6.22615 7.1446 6.03469 7.2393 5.8288C7.38523 5.51135 7.46144 5.16645 7.46391 4.81708C7.46635 4.46745 7.39463 4.12111 7.25298 3.80145C7.16113 3.59419 7.04138 3.40102 6.89747 3.22727C6.76789 3.07082 6.7523 2.83981 6.88762 2.6883ZM4.15116 3.64486C4.26506 3.80193 4.22361 4.01952 4.10981 4.17666C4.07719 4.2217 4.04796 4.26928 4.02251 4.31903C3.94351 4.47345 3.90259 4.6446 3.90239 4.81805C3.90219 4.99145 3.94294 5.16252 4.02153 5.31708C4.04689 5.36693 4.07603 5.41464 4.10857 5.45982C4.22197 5.61729 4.26302 5.83496 4.14894 5.99193C4.03488 6.14886 3.81201 6.18553 3.68032 6.04307C3.56778 5.92132 3.4722 5.78415 3.39653 5.63544C3.26756 5.38195 3.19991 5.10149 3.20024 4.81708C3.2006 4.53276 3.26898 4.25281 3.39848 3.99969C3.47449 3.85117 3.57037 3.71434 3.68318 3.59295C3.81504 3.45107 4.03747 3.48805 4.15116 3.64486ZM5.84904 3.64098C5.96262 3.48369 6.18543 3.44639 6.31764 3.58838C6.43056 3.70966 6.5266 3.84636 6.60258 3.99481C6.73215 4.248 6.80049 4.52876 6.80083 4.81317C6.8011 5.09746 6.73345 5.37815 6.60454 5.63153C6.52893 5.78004 6.43336 5.91686 6.32088 6.03832C6.18907 6.18067 5.96618 6.14397 5.85213 5.98704C5.73804 5.83008 5.77924 5.61259 5.8928 5.45524C5.92522 5.41032 5.95425 5.36285 5.97954 5.31317C6.05821 5.15854 6.09888 4.98666 6.09868 4.81317C6.09841 4.63991 6.05648 4.46938 5.97758 4.31512C5.95213 4.26538 5.923 4.21779 5.8905 4.17274C5.77711 4.01552 5.73556 3.79813 5.84904 3.64098ZM5.00005 4.31512C5.27619 4.31512 5.50005 4.53898 5.50005 4.81512C5.49991 5.09115 5.2761 5.31512 5.00005 5.31512C4.72402 5.31508 4.50018 5.09113 4.50005 4.81512C4.50005 4.53901 4.72394 4.31517 5.00005 4.31512Z" fill="white"/>
</g>
<defs>
<filter id="filter0_i_1197_453" x="0" y="0" width="10" height="10" filterUnits="userSpaceOnUse" color-interpolation-filters="sRGB">
<feFlood flood-opacity="0" result="BackgroundImageFix"/>
<feBlend mode="normal" in="SourceGraphic" in2="BackgroundImageFix" result="shape"/>
<feColorMatrix in="SourceAlpha" type="matrix" values="0 0 0 0 0 0 0 0 0 0 0 0 0 0 0 0 0 0 127 0" result="hardAlpha"/>
<feOffset/>
<feGaussianBlur stdDeviation="1"/>
<feComposite in2="hardAlpha" operator="arithmetic" k2="-1" k3="1"/>
<feColorMatrix type="matrix" values="0 0 0 0 0.942 0 0 0 0 0.94 0 0 0 0 1 0 0 0 0.1 0"/>
<feBlend mode="hard-light" in2="shape" result="effect1_innerShadow_1197_453"/>
</filter>
</defs>
</svg>
