<svg width="10" height="10" viewBox="0 0 10 10" fill="none" xmlns="http://www.w3.org/2000/svg">
<g filter="url(#filter0_i_1079_921)">
<path d="M6.66016 2.4248C7.16772 2.4248 7.42153 2.42558 7.58984 2.56934C7.61368 2.58971 7.63588 2.61189 7.65625 2.63574C7.79999 2.80406 7.7998 3.05788 7.7998 3.56543V6.27539C7.7998 6.44104 7.93494 6.5752 8.10059 6.5752C8.37634 6.57544 8.59943 6.79942 8.59961 7.0752C8.59961 7.35134 8.37575 7.5752 8.09961 7.5752H1.90039C1.62425 7.5752 1.40039 7.35134 1.40039 7.0752C1.4006 6.79923 1.62438 6.5752 1.90039 6.5752C2.06598 6.57503 2.2002 6.44102 2.2002 6.27539V3.56543C2.2002 3.05808 2.20018 2.80406 2.34375 2.63574C2.36405 2.61198 2.38641 2.58966 2.41016 2.56934C2.57843 2.42561 2.83252 2.4248 3.33984 2.4248H6.66016ZM3.56055 3.0752C3.22217 3.0752 3.05264 3.07506 2.94043 3.1709C2.92453 3.18449 2.90909 3.19894 2.89551 3.21484C2.79977 3.32706 2.7998 3.49671 2.7998 3.83496V5.21484C2.7998 5.55318 2.7997 5.72275 2.89551 5.83496C2.90912 5.85089 2.9245 5.8653 2.94043 5.87891C3.05264 5.97474 3.22217 5.97461 3.56055 5.97461H6.44043C6.77845 5.97461 6.94739 5.97457 7.05957 5.87891C7.07546 5.86533 7.09091 5.85085 7.10449 5.83496C7.20033 5.72275 7.2002 5.55321 7.2002 5.21484V3.83496C7.2002 3.49658 7.20033 3.32706 7.10449 3.21484C7.09089 3.19892 7.0755 3.1845 7.05957 3.1709C6.94739 3.07516 6.77853 3.0752 6.44043 3.0752H3.56055Z" fill="white"/>
</g>
<defs>
<filter id="filter0_i_1079_921" x="0" y="0" width="10" height="10" filterUnits="userSpaceOnUse" color-interpolation-filters="sRGB">
<feFlood flood-opacity="0" result="BackgroundImageFix"/>
<feBlend mode="normal" in="SourceGraphic" in2="BackgroundImageFix" result="shape"/>
<feColorMatrix in="SourceAlpha" type="matrix" values="0 0 0 0 0 0 0 0 0 0 0 0 0 0 0 0 0 0 127 0" result="hardAlpha"/>
<feOffset/>
<feGaussianBlur stdDeviation="1"/>
<feComposite in2="hardAlpha" operator="arithmetic" k2="-1" k3="1"/>
<feColorMatrix type="matrix" values="0 0 0 0 0.942 0 0 0 0 0.94 0 0 0 0 1 0 0 0 0.1 0"/>
<feBlend mode="hard-light" in2="shape" result="effect1_innerShadow_1079_921"/>
</filter>
</defs>
</svg>
