<svg width="10" height="10" viewBox="0 0 10 10" fill="none" xmlns="http://www.w3.org/2000/svg">
<g filter="url(#filter0_i_1079_262)">
<path d="M6.05957 1.80029C6.5669 1.80029 6.82094 1.8003 6.98926 1.94385C7.01316 1.96426 7.03623 1.98635 7.05664 2.01025C7.2003 2.17855 7.2002 2.43257 7.2002 2.93994V7.06006C7.2002 7.56742 7.20022 7.82143 7.05664 7.98975C7.03623 8.01365 7.01316 8.03574 6.98926 8.05615C6.82094 8.19978 6.56699 8.19971 6.05957 8.19971H3.94043C3.43301 8.19971 3.17906 8.19978 3.01074 8.05615C2.98684 8.03574 2.96377 8.01365 2.94336 7.98975C2.79978 7.82143 2.7998 7.56742 2.7998 7.06006V2.93994C2.7998 2.43257 2.7997 2.17855 2.94336 2.01025C2.96377 1.98635 2.98684 1.96426 3.01074 1.94385C3.17906 1.8003 3.4331 1.80029 3.94043 1.80029H6.05957ZM4.36035 2.54932C4.02197 2.54932 3.85245 2.55016 3.74023 2.646C3.72445 2.65949 3.70979 2.67416 3.69629 2.68994C3.60045 2.80215 3.59961 2.97168 3.59961 3.31006V5.98975C3.59961 6.3281 3.60046 6.49766 3.69629 6.60986C3.70979 6.62562 3.72446 6.64033 3.74023 6.65381C3.85245 6.74965 4.02197 6.74951 4.36035 6.74951H5.63965C5.97803 6.74951 6.14755 6.74965 6.25977 6.65381C6.27554 6.64033 6.29021 6.62562 6.30371 6.60986C6.39954 6.49766 6.40039 6.3281 6.40039 5.98975V3.31006C6.40039 2.97168 6.39955 2.80215 6.30371 2.68994C6.29021 2.67416 6.27555 2.65949 6.25977 2.646C6.14755 2.55016 5.97803 2.54932 5.63965 2.54932H4.36035Z" fill="white"/>
</g>
<defs>
<filter id="filter0_i_1079_262" x="0" y="0" width="10" height="10" filterUnits="userSpaceOnUse" color-interpolation-filters="sRGB">
<feFlood flood-opacity="0" result="BackgroundImageFix"/>
<feBlend mode="normal" in="SourceGraphic" in2="BackgroundImageFix" result="shape"/>
<feColorMatrix in="SourceAlpha" type="matrix" values="0 0 0 0 0 0 0 0 0 0 0 0 0 0 0 0 0 0 127 0" result="hardAlpha"/>
<feOffset/>
<feGaussianBlur stdDeviation="1"/>
<feComposite in2="hardAlpha" operator="arithmetic" k2="-1" k3="1"/>
<feColorMatrix type="matrix" values="0 0 0 0 0.942 0 0 0 0 0.94 0 0 0 0 1 0 0 0 0.1 0"/>
<feBlend mode="hard-light" in2="shape" result="effect1_innerShadow_1079_262"/>
</filter>
</defs>
</svg>
