<svg width="10" height="10" viewBox="0 0 10 10" fill="none" xmlns="http://www.w3.org/2000/svg">
<g filter="url(#filter0_i_1134_3231)">
<path d="M4.57339 2.64877C4.31322 2.6594 4.00259 2.90602 3.38101 3.3978L2.86246 3.80795C2.20738 4.32624 1.87895 4.58512 1.84781 4.92709C1.84348 4.97501 1.84348 5.02371 1.84781 5.07162C1.87875 5.4138 2.20706 5.6732 2.86246 6.19174L3.38101 6.6019C4.00238 7.09351 4.31326 7.33931 4.57339 7.34995C4.84013 7.36057 5.0949 7.23756 5.25211 7.02182C5.35185 6.88488 5.387 6.66925 5.39929 6.31702C5.40285 6.21514 5.5179 6.1593 5.59976 6.22006L6.05582 6.55795C6.76369 7.08341 7.11751 7.34628 7.41422 7.32455C7.6256 7.30896 7.82252 7.21051 7.96109 7.05014C8.15551 6.82495 8.15543 6.38381 8.15543 5.50229V4.49741C8.15543 3.61581 8.15539 3.17484 7.96109 2.94955C7.82251 2.78904 7.6257 2.68976 7.41422 2.67416C7.11753 2.65245 6.76363 2.91535 6.05582 3.44077L5.59976 3.77866C5.5181 3.83928 5.40284 3.78296 5.39928 3.68131C5.38697 3.32942 5.35178 3.11374 5.25211 2.9769C5.09489 2.76131 4.84003 2.63815 4.57339 2.64877Z" fill="white"/>
</g>
<defs>
<filter id="filter0_i_1134_3231" x="0" y="0" width="10" height="10" filterUnits="userSpaceOnUse" color-interpolation-filters="sRGB">
<feFlood flood-opacity="0" result="BackgroundImageFix"/>
<feBlend mode="normal" in="SourceGraphic" in2="BackgroundImageFix" result="shape"/>
<feColorMatrix in="SourceAlpha" type="matrix" values="0 0 0 0 0 0 0 0 0 0 0 0 0 0 0 0 0 0 127 0" result="hardAlpha"/>
<feOffset/>
<feGaussianBlur stdDeviation="1"/>
<feComposite in2="hardAlpha" operator="arithmetic" k2="-1" k3="1"/>
<feColorMatrix type="matrix" values="0 0 0 0 0.942 0 0 0 0 0.94 0 0 0 0 1 0 0 0 0.1 0"/>
<feBlend mode="hard-light" in2="shape" result="effect1_innerShadow_1134_3231"/>
</filter>
</defs>
</svg>
