<svg width="10" height="10" viewBox="0 0 10 10" fill="none" xmlns="http://www.w3.org/2000/svg">
<g filter="url(#filter0_i_1079_87)">
<path d="M3.00153 4.25C3.00153 3.40406 3.00153 2.98109 3.24112 2.70056C3.27514 2.66072 3.31224 2.62362 3.35208 2.5896C3.63261 2.35001 4.05558 2.35001 4.90153 2.35001H5.09849C5.94444 2.35001 6.36741 2.35001 6.64794 2.5896C6.68778 2.62362 6.72488 2.66072 6.7589 2.70056C6.99849 2.98109 6.99849 3.40406 6.99849 4.25001V6.42954C6.99849 7.09132 6.99849 7.42222 6.85972 7.56722C6.76127 7.67008 6.62365 7.72609 6.48135 7.72121C6.28076 7.71433 6.04948 7.47727 5.58692 7.00315C5.37242 6.78328 5.26516 6.67334 5.13944 6.63648C5.04746 6.60952 4.94968 6.60955 4.85772 6.63659C4.73203 6.67355 4.62494 6.78347 4.41078 7.00333C3.95038 7.47596 3.72018 7.71227 3.52039 7.71981C3.37704 7.72523 3.23828 7.66881 3.13937 7.56491C3.00153 7.4201 3.00153 7.09019 3.00153 6.43038V4.25Z" fill="white"/>
</g>
<defs>
<filter id="filter0_i_1079_87" x="0" y="0" width="10" height="10" filterUnits="userSpaceOnUse" color-interpolation-filters="sRGB">
<feFlood flood-opacity="0" result="BackgroundImageFix"/>
<feBlend mode="normal" in="SourceGraphic" in2="BackgroundImageFix" result="shape"/>
<feColorMatrix in="SourceAlpha" type="matrix" values="0 0 0 0 0 0 0 0 0 0 0 0 0 0 0 0 0 0 127 0" result="hardAlpha"/>
<feOffset/>
<feGaussianBlur stdDeviation="1"/>
<feComposite in2="hardAlpha" operator="arithmetic" k2="-1" k3="1"/>
<feColorMatrix type="matrix" values="0 0 0 0 0.942 0 0 0 0 0.94 0 0 0 0 1 0 0 0 0.1 0"/>
<feBlend mode="hard-light" in2="shape" result="effect1_innerShadow_1079_87"/>
</filter>
</defs>
</svg>
