<svg width="10" height="10" viewBox="0 0 10 10" fill="none" xmlns="http://www.w3.org/2000/svg">
<g filter="url(#filter0_i_1189_5252)">
<path d="M6.29004 2.3999C7.05112 2.3999 7.43214 2.40013 7.68457 2.61572C7.72031 2.64627 7.75364 2.67959 7.78418 2.71533C7.99979 2.96778 8 3.34866 8 4.10986V5.89014C8 6.65141 7.99977 7.0322 7.78418 7.28467C7.75366 7.32041 7.72029 7.35374 7.68457 7.38428C7.43214 7.59987 7.05112 7.6001 6.29004 7.6001H3.70996C2.9487 7.6001 2.56791 7.59984 2.31543 7.38428C2.27958 7.35366 2.24546 7.32052 2.21484 7.28467C1.99935 7.0322 2 6.65129 2 5.89014V4.10986C2 3.34872 1.99928 2.96778 2.21484 2.71533C2.24546 2.67948 2.27958 2.64634 2.31543 2.61572C2.56791 2.40024 2.94878 2.3999 3.70996 2.3999H6.29004ZM2.94922 6.05029C2.80939 6.05029 2.73947 6.05029 2.68443 6.07304C2.61075 6.10349 2.55222 6.16202 2.52177 6.2357C2.49902 6.29074 2.49902 6.36049 2.49902 6.5C2.49902 6.63951 2.49902 6.70926 2.52177 6.7643C2.55222 6.83798 2.61075 6.89651 2.68443 6.92696C2.73947 6.94971 2.80939 6.94971 2.94922 6.94971C3.08905 6.94971 3.15897 6.94971 3.21401 6.92696C3.28769 6.89651 3.34621 6.83798 3.37667 6.7643C3.39941 6.70926 3.39941 6.63951 3.39941 6.5C3.39941 6.36049 3.39941 6.29074 3.37667 6.2357C3.34621 6.16202 3.28769 6.10349 3.21401 6.07304C3.15897 6.05029 3.08905 6.05029 2.94922 6.05029ZM7.04932 6.05029C6.90981 6.05029 6.84006 6.05029 6.78502 6.07304C6.71134 6.10349 6.65281 6.16202 6.62236 6.2357C6.59961 6.29074 6.59961 6.36049 6.59961 6.5C6.59961 6.63951 6.59961 6.70926 6.62236 6.7643C6.65281 6.83798 6.71134 6.89651 6.78502 6.92696C6.84006 6.94971 6.90981 6.94971 7.04932 6.94971C7.18882 6.94971 7.25858 6.94971 7.31362 6.92696C7.38729 6.89651 7.44582 6.83798 7.47628 6.7643C7.49902 6.70926 7.49902 6.63951 7.49902 6.5C7.49902 6.36049 7.49902 6.29074 7.47628 6.2357C7.44582 6.16202 7.38729 6.10349 7.31362 6.07304C7.25858 6.05029 7.18882 6.05029 7.04932 6.05029ZM4.46941 5.30029C4.21563 5.30029 4.08874 5.30029 4.00458 5.37217C3.99263 5.38238 3.9815 5.39351 3.97129 5.40546C3.89941 5.48962 3.89941 5.61651 3.89941 5.87029V6.3299C3.89941 6.58369 3.89941 6.71058 3.97129 6.79474C3.9815 6.80669 3.99263 6.81782 4.00458 6.82802C4.08874 6.8999 4.21563 6.8999 4.46941 6.8999H5.52961C5.78339 6.8999 5.91029 6.8999 5.99444 6.82802C6.00639 6.81782 6.01752 6.80669 6.02773 6.79474C6.09961 6.71058 6.09961 6.58369 6.09961 6.3299V5.87029C6.09961 5.61651 6.09961 5.48962 6.02773 5.40546C6.01752 5.39351 6.00639 5.38238 5.99444 5.37217C5.91029 5.30029 5.78339 5.30029 5.52961 5.30029H4.46941ZM2.94922 4.55029C2.80939 4.55029 2.73947 4.55029 2.68443 4.57304C2.61075 4.60349 2.55222 4.66202 2.52177 4.7357C2.49902 4.79074 2.49902 4.86049 2.49902 5C2.49902 5.13951 2.49902 5.20926 2.52177 5.2643C2.55222 5.33798 2.61075 5.39651 2.68443 5.42696C2.73947 5.44971 2.80939 5.44971 2.94922 5.44971C3.08905 5.44971 3.15897 5.44971 3.21401 5.42696C3.28769 5.39651 3.34621 5.33798 3.37667 5.2643C3.39941 5.20926 3.39941 5.13951 3.39941 5C3.39941 4.86049 3.39941 4.79074 3.37667 4.7357C3.34621 4.66202 3.28769 4.60349 3.21401 4.57304C3.15897 4.55029 3.08905 4.55029 2.94922 4.55029ZM7.04932 4.55029C6.90981 4.55029 6.84006 4.55029 6.78502 4.57304C6.71134 4.60349 6.65281 4.66202 6.62236 4.7357C6.59961 4.79074 6.59961 4.86049 6.59961 5C6.59961 5.13951 6.59961 5.20926 6.62236 5.2643C6.65281 5.33798 6.71134 5.39651 6.78502 5.42696C6.84006 5.44971 6.90981 5.44971 7.04932 5.44971C7.18882 5.44971 7.25858 5.44971 7.31362 5.42696C7.38729 5.39651 7.44582 5.33798 7.47628 5.2643C7.49902 5.20926 7.49902 5.13951 7.49902 5C7.49902 4.86049 7.49902 4.79074 7.47628 4.7357C7.44582 4.66202 7.38729 4.60349 7.31362 4.57304C7.25858 4.55029 7.18882 4.55029 7.04932 4.55029ZM4.46941 3.1001C4.21563 3.1001 4.08874 3.1001 4.00458 3.17198C3.99263 3.18218 3.9815 3.19331 3.97129 3.20526C3.89941 3.28942 3.89941 3.41631 3.89941 3.6701V4.12971C3.89941 4.38349 3.89941 4.51038 3.97129 4.59454C3.9815 4.60649 3.99263 4.61762 4.00458 4.62783C4.08874 4.69971 4.21563 4.69971 4.46941 4.69971H5.52961C5.78339 4.69971 5.91029 4.69971 5.99444 4.62783C6.00639 4.61762 6.01752 4.60649 6.02773 4.59454C6.09961 4.51038 6.09961 4.38349 6.09961 4.12971V3.6701C6.09961 3.41631 6.09961 3.28942 6.02773 3.20526C6.01752 3.19331 6.00639 3.18218 5.99444 3.17198C5.91029 3.1001 5.78339 3.1001 5.52961 3.1001H4.46941ZM2.94922 3.05029C2.80939 3.05029 2.73947 3.05029 2.68443 3.07304C2.61075 3.10349 2.55222 3.16202 2.52177 3.2357C2.49902 3.29074 2.49902 3.36049 2.49902 3.5C2.49902 3.63951 2.49902 3.70926 2.52177 3.7643C2.55222 3.83798 2.61075 3.89651 2.68443 3.92696C2.73947 3.94971 2.80939 3.94971 2.94922 3.94971C3.08905 3.94971 3.15897 3.94971 3.21401 3.92696C3.28769 3.89651 3.34621 3.83798 3.37667 3.7643C3.39941 3.70926 3.39941 3.63951 3.39941 3.5C3.39941 3.36049 3.39941 3.29074 3.37667 3.2357C3.34621 3.16202 3.28769 3.10349 3.21401 3.07304C3.15897 3.05029 3.08905 3.05029 2.94922 3.05029ZM7.04932 3.05029C6.90981 3.05029 6.84006 3.05029 6.78502 3.07304C6.71134 3.10349 6.65281 3.16202 6.62236 3.2357C6.59961 3.29074 6.59961 3.36049 6.59961 3.5C6.59961 3.63951 6.59961 3.70926 6.62236 3.7643C6.65281 3.83798 6.71134 3.89651 6.78502 3.92696C6.84006 3.94971 6.90981 3.94971 7.04932 3.94971C7.18882 3.94971 7.25858 3.94971 7.31362 3.92696C7.38729 3.89651 7.44582 3.83798 7.47628 3.7643C7.49902 3.70926 7.49902 3.63951 7.49902 3.5C7.49902 3.36049 7.49902 3.29074 7.47628 3.2357C7.44582 3.16202 7.38729 3.10349 7.31362 3.07304C7.25858 3.05029 7.18882 3.05029 7.04932 3.05029Z" fill="white"/>
</g>
<defs>
<filter id="filter0_i_1189_5252" x="0" y="0" width="10" height="10" filterUnits="userSpaceOnUse" color-interpolation-filters="sRGB">
<feFlood flood-opacity="0" result="BackgroundImageFix"/>
<feBlend mode="normal" in="SourceGraphic" in2="BackgroundImageFix" result="shape"/>
<feColorMatrix in="SourceAlpha" type="matrix" values="0 0 0 0 0 0 0 0 0 0 0 0 0 0 0 0 0 0 127 0" result="hardAlpha"/>
<feOffset/>
<feGaussianBlur stdDeviation="1"/>
<feComposite in2="hardAlpha" operator="arithmetic" k2="-1" k3="1"/>
<feColorMatrix type="matrix" values="0 0 0 0 0.942 0 0 0 0 0.94 0 0 0 0 1 0 0 0 0.1 0"/>
<feBlend mode="hard-light" in2="shape" result="effect1_innerShadow_1189_5252"/>
</filter>
</defs>
</svg>
