<svg width="10" height="10" viewBox="0 0 10 10" fill="none" xmlns="http://www.w3.org/2000/svg">
<g filter="url(#filter0_i_1191_5311)">
<path d="M6.06598 2.33612C6.86262 2.23221 7.26151 2.18049 7.51334 2.38998C7.54843 2.41919 7.58081 2.45157 7.61002 2.48666C7.81951 2.73848 7.76779 3.13738 7.66388 3.93401L7.56255 4.70914C7.52327 5.00959 7.50363 5.15981 7.44239 5.29514C7.43338 5.31505 7.42373 5.33465 7.41343 5.35393C7.34346 5.48496 7.23634 5.59209 7.02208 5.80635L5.99389 6.83453C5.39572 7.43271 5.09663 7.7318 4.72885 7.76074C4.67662 7.76485 4.62415 7.76485 4.57193 7.76074C4.20415 7.7318 3.90506 7.43271 3.30688 6.83453L3.16546 6.69311C2.56729 6.09494 2.2682 5.79585 2.23926 5.42807C2.23515 5.37584 2.23515 5.32338 2.23926 5.27115C2.2682 4.90337 2.56729 4.60428 3.16546 4.00611L4.19365 2.97792C4.40791 2.76366 4.51504 2.65653 4.64607 2.58656C4.66534 2.57627 4.68495 2.56661 4.70485 2.55761C4.84019 2.49637 4.99041 2.47673 5.29086 2.43745L6.06598 2.33612ZM5.28706 3.58184C4.97464 3.89426 4.97464 4.40052 5.28706 4.71294C5.59948 5.02534 6.10574 5.02535 6.41815 4.71294C6.73043 4.40051 6.73051 3.89422 6.41815 3.58184C6.10578 3.26947 5.59949 3.26956 5.28706 3.58184Z" fill="white"/>
</g>
<defs>
<filter id="filter0_i_1191_5311" x="0" y="0" width="10" height="10" filterUnits="userSpaceOnUse" color-interpolation-filters="sRGB">
<feFlood flood-opacity="0" result="BackgroundImageFix"/>
<feBlend mode="normal" in="SourceGraphic" in2="BackgroundImageFix" result="shape"/>
<feColorMatrix in="SourceAlpha" type="matrix" values="0 0 0 0 0 0 0 0 0 0 0 0 0 0 0 0 0 0 127 0" result="hardAlpha"/>
<feOffset/>
<feGaussianBlur stdDeviation="1"/>
<feComposite in2="hardAlpha" operator="arithmetic" k2="-1" k3="1"/>
<feColorMatrix type="matrix" values="0 0 0 0 0.942 0 0 0 0 0.94 0 0 0 0 1 0 0 0 0.1 0"/>
<feBlend mode="hard-light" in2="shape" result="effect1_innerShadow_1191_5311"/>
</filter>
</defs>
</svg>
