<svg width="10" height="10" viewBox="0 0 10 10" fill="none" xmlns="http://www.w3.org/2000/svg">
<g filter="url(#filter0_i_1188_5239)">
<path fill-rule="evenodd" clip-rule="evenodd" d="M4.39937 2.74337C4.39991 2.18482 5.0223 1.85162 5.48726 2.16134L7.13179 3.25802C7.40728 3.44182 7.48137 3.81441 7.29781 4.09005C7.11389 4.3654 6.74134 4.43977 6.46577 4.25606L6.06519 3.98856C5.86584 3.85543 5.59859 3.99833 5.59859 4.23804V4.38998C5.59859 4.48783 5.64631 4.57954 5.72645 4.63568L7.20992 5.67501C7.41349 5.81756 7.46281 6.09838 7.32027 6.30196C7.17764 6.50527 6.89678 6.55479 6.69331 6.41231L6.07082 5.97584C5.872 5.83644 5.59859 5.97867 5.59859 6.22148V6.45724C5.59859 7.28566 4.92701 7.95724 4.09859 7.95724H3.79878C3.13617 7.95708 2.59859 7.41969 2.59859 6.75704C2.5987 6.09449 3.13624 5.557 3.79878 5.55684H4.09937C4.26505 5.55684 4.39937 5.42253 4.39937 5.25684V4.9611C4.39937 4.8632 4.3516 4.77146 4.2714 4.71532L2.8437 3.71602C2.64035 3.5735 2.59106 3.29355 2.73335 3.09005C2.8759 2.88647 3.15672 2.83617 3.36031 2.97872L3.9273 3.37572C4.12613 3.51494 4.39937 3.3727 4.39937 3.12997V2.74337Z" fill="white"/>
</g>
<defs>
<filter id="filter0_i_1188_5239" x="0" y="0" width="10" height="10" filterUnits="userSpaceOnUse" color-interpolation-filters="sRGB">
<feFlood flood-opacity="0" result="BackgroundImageFix"/>
<feBlend mode="normal" in="SourceGraphic" in2="BackgroundImageFix" result="shape"/>
<feColorMatrix in="SourceAlpha" type="matrix" values="0 0 0 0 0 0 0 0 0 0 0 0 0 0 0 0 0 0 127 0" result="hardAlpha"/>
<feOffset/>
<feGaussianBlur stdDeviation="1"/>
<feComposite in2="hardAlpha" operator="arithmetic" k2="-1" k3="1"/>
<feColorMatrix type="matrix" values="0 0 0 0 0.942 0 0 0 0 0.94 0 0 0 0 1 0 0 0 0.1 0"/>
<feBlend mode="hard-light" in2="shape" result="effect1_innerShadow_1188_5239"/>
</filter>
</defs>
</svg>
