<svg width="10" height="10" viewBox="0 0 10 10" fill="none" xmlns="http://www.w3.org/2000/svg">
<g filter="url(#filter0_i_1079_123)">
<path d="M7.30078 6.95203C7.68714 6.95224 7.99991 7.26583 8 7.65222C8 8.03869 7.6872 8.3522 7.30078 8.35242H2.7002C2.31369 8.35231 2 8.03876 2 7.65222C2.00009 7.26577 2.31374 6.95213 2.7002 6.95203H7.30078ZM5.04883 1.64929C5.29145 1.67023 5.48105 1.88822 5.85938 2.32507L6.42578 2.98035C6.90902 3.53834 7.15149 3.81751 7.1416 4.05554C7.13497 4.21179 7.0669 4.35937 6.95312 4.46667C6.87084 4.54421 6.74454 4.58488 6.55564 4.60622C6.19632 4.64681 6.01667 4.66711 5.91879 4.76177C5.90373 4.77634 5.89274 4.78864 5.87996 4.80524C5.79688 4.91312 5.79688 5.0718 5.79688 5.38916V5.45007C5.79683 5.78133 5.52851 6.04957 5.19727 6.04968H4.79688C4.46561 6.04959 4.19731 5.78135 4.19727 5.45007V5.38916C4.19727 5.0718 4.19727 4.91312 4.11418 4.80523C4.1014 4.78863 4.0904 4.77633 4.07535 4.76177C3.97746 4.6671 3.79781 4.64681 3.43851 4.60624C3.24959 4.58491 3.12326 4.54424 3.04102 4.46667C2.92733 4.35938 2.86015 4.21173 2.85352 4.05554C2.84361 3.81751 3.08511 3.53836 3.56836 2.98035L4.13574 2.32507C4.51401 1.88828 4.70363 1.67014 4.94629 1.64929C4.98036 1.64638 5.01476 1.64636 5.04883 1.64929Z" fill="white"/>
</g>
<defs>
<filter id="filter0_i_1079_123" x="0" y="0" width="10" height="10" filterUnits="userSpaceOnUse" color-interpolation-filters="sRGB">
<feFlood flood-opacity="0" result="BackgroundImageFix"/>
<feBlend mode="normal" in="SourceGraphic" in2="BackgroundImageFix" result="shape"/>
<feColorMatrix in="SourceAlpha" type="matrix" values="0 0 0 0 0 0 0 0 0 0 0 0 0 0 0 0 0 0 127 0" result="hardAlpha"/>
<feOffset/>
<feGaussianBlur stdDeviation="1"/>
<feComposite in2="hardAlpha" operator="arithmetic" k2="-1" k3="1"/>
<feColorMatrix type="matrix" values="0 0 0 0 0.942 0 0 0 0 0.94 0 0 0 0 1 0 0 0 0.1 0"/>
<feBlend mode="hard-light" in2="shape" result="effect1_innerShadow_1079_123"/>
</filter>
</defs>
</svg>
