<svg width="10" height="10" viewBox="0 0 10 10" fill="none" xmlns="http://www.w3.org/2000/svg">
<g filter="url(#filter0_i_1079_267)">
<path d="M7.06055 2.5C7.56788 2.5 7.82196 2.49983 7.99023 2.64355C8.01402 2.6639 8.03631 2.68616 8.05664 2.70996C8.20031 2.87828 8.2002 3.13219 8.2002 3.63965V6.35938C8.2002 6.86671 8.2002 7.12074 8.05664 7.28906C8.03635 7.31283 8.01398 7.33515 7.99023 7.35547C7.82196 7.49919 7.56788 7.5 7.06055 7.5H2.94043C2.43286 7.5 2.17906 7.49923 2.01074 7.35547C1.98689 7.33509 1.96472 7.31292 1.94434 7.28906C1.80058 7.12075 1.7998 6.86694 1.7998 6.35938V3.63965C1.7998 3.13208 1.80058 2.87828 1.94434 2.70996C1.96471 2.68613 1.9869 2.66391 2.01074 2.64355C2.17906 2.49983 2.4329 2.5 2.94043 2.5H7.06055ZM3.36035 3.24902C3.02208 3.24902 2.85245 3.24898 2.74023 3.34473C2.72432 3.35832 2.70989 3.37373 2.69629 3.38965C2.60049 3.50181 2.60059 3.6707 2.60059 4.00879V5.98926C2.60059 6.32761 2.60045 6.49717 2.69629 6.60938C2.70978 6.62513 2.72446 6.63984 2.74023 6.65332C2.85245 6.74916 3.02197 6.74902 3.36035 6.74902H6.63965C6.97798 6.74902 7.14755 6.74912 7.25977 6.65332C7.27569 6.63972 7.29108 6.6253 7.30469 6.60938C7.40052 6.49717 7.40039 6.32761 7.40039 5.98926V4.00879C7.40039 3.67102 7.40021 3.50181 7.30469 3.38965C7.29108 3.37371 7.2757 3.35834 7.25977 3.34473C7.14755 3.2491 6.97778 3.24902 6.63965 3.24902H3.36035Z" fill="white"/>
</g>
<defs>
<filter id="filter0_i_1079_267" x="0" y="0" width="10" height="10" filterUnits="userSpaceOnUse" color-interpolation-filters="sRGB">
<feFlood flood-opacity="0" result="BackgroundImageFix"/>
<feBlend mode="normal" in="SourceGraphic" in2="BackgroundImageFix" result="shape"/>
<feColorMatrix in="SourceAlpha" type="matrix" values="0 0 0 0 0 0 0 0 0 0 0 0 0 0 0 0 0 0 127 0" result="hardAlpha"/>
<feOffset/>
<feGaussianBlur stdDeviation="1"/>
<feComposite in2="hardAlpha" operator="arithmetic" k2="-1" k3="1"/>
<feColorMatrix type="matrix" values="0 0 0 0 0.942 0 0 0 0 0.94 0 0 0 0 1 0 0 0 0.1 0"/>
<feBlend mode="hard-light" in2="shape" result="effect1_innerShadow_1079_267"/>
</filter>
</defs>
</svg>
