<svg width="10" height="10" viewBox="0 0 10 10" fill="none" xmlns="http://www.w3.org/2000/svg">
<g filter="url(#filter0_i_1145_2791)">
<path d="M2.75092 4.28995C2.54198 4.18305 2.45949 3.92663 2.56635 3.71768C2.67329 3.50886 2.92874 3.42629 3.13763 3.53311L3.6668 3.80342C3.90017 3.92264 4.01686 3.98225 4.10614 3.93944C4.11843 3.93354 4.13009 3.92641 4.14093 3.91814C4.21967 3.85811 4.21967 3.72708 4.21967 3.46502V2.8251C4.21966 2.68917 4.21854 2.54307 4.23431 2.42569C4.25013 2.30824 4.29544 2.10447 4.48724 1.96866C4.52394 1.9427 4.56407 1.92088 4.60541 1.90323L4.68549 1.87589C4.86942 1.8279 5.03216 1.88462 5.12689 1.92667C5.23518 1.97477 5.3597 2.05266 5.47552 2.12393L6.88763 2.99307C6.99822 3.06112 7.11967 3.13393 7.20892 3.20694C7.2883 3.27191 7.40772 3.38845 7.44916 3.56827L7.45673 3.61721C7.45916 3.63287 7.46037 3.64071 7.46096 3.6486C7.46104 3.64977 7.46112 3.65093 7.46119 3.6521C7.46164 3.66001 7.46146 3.66793 7.46111 3.68377L7.45892 3.78214C7.43028 4.0078 7.28125 4.14245 7.18744 4.2128C7.09506 4.28203 6.97087 4.35062 6.85736 4.41397L6.52242 4.60077C6.26476 4.74447 6.13593 4.81632 6.12643 4.92156C6.12514 4.93591 6.1254 4.95037 6.12721 4.96467C6.14049 5.06949 6.27182 5.13665 6.53449 5.27098L6.84467 5.4296C6.95803 5.48759 7.08308 5.55013 7.1767 5.61514C7.27258 5.68179 7.42391 5.8097 7.46185 6.03116C7.4692 6.07417 7.47225 6.11841 7.47064 6.16202C7.46218 6.38665 7.3283 6.53359 7.24213 6.61221C7.15793 6.68894 7.04298 6.76736 6.93842 6.83975L5.51263 7.82706C5.39377 7.90935 5.26836 7.99683 5.15912 8.05264C5.05236 8.10717 4.84983 8.19072 4.62201 8.10147C4.5793 8.08469 4.53804 8.06356 4.49994 8.03799C4.29683 7.90157 4.25028 7.68716 4.23431 7.56827C4.21805 7.44676 4.21966 7.29378 4.21967 7.14932V6.53313C4.21967 6.26126 4.21967 6.12533 4.13826 6.06538C4.12708 6.05715 4.11508 6.05011 4.10244 6.04436C4.01041 6.00252 3.89173 6.0688 3.65437 6.20137L3.15131 6.48233C2.94643 6.59663 2.68763 6.52303 2.57318 6.31827C2.45884 6.11332 2.53231 5.85452 2.73724 5.74014L3.47893 5.32597C3.7364 5.18219 3.86514 5.1103 3.8746 5.00509C3.87589 4.99073 3.87562 4.97628 3.8738 4.96198C3.86049 4.85719 3.72921 4.79007 3.46664 4.65584L2.75092 4.28995ZM5.89589 6.52729C6.11562 6.37518 6.22549 6.29913 6.22919 6.19907C6.2297 6.18531 6.22878 6.17154 6.22646 6.15797C6.20959 6.05928 6.09065 5.99839 5.85277 5.8766L5.62244 5.75869C5.38897 5.63916 5.27224 5.5794 5.18289 5.62219C5.17059 5.62808 5.15892 5.63521 5.14808 5.64348C5.06927 5.70351 5.06927 5.83465 5.06927 6.09694V6.37429C5.06927 6.67437 5.06927 6.82441 5.15776 6.88385C5.16982 6.89194 5.18272 6.89871 5.19624 6.90401C5.29547 6.94293 5.41883 6.85754 5.66556 6.68674L5.89589 6.52729ZM5.83832 4.00914C6.07591 3.87652 6.19471 3.81022 6.20734 3.70987C6.20908 3.69609 6.20937 3.68217 6.20823 3.66833C6.19986 3.56753 6.08398 3.49624 5.85224 3.35367L5.64839 3.22826C5.40675 3.0796 5.28593 3.00527 5.19074 3.0459C5.17772 3.05146 5.16532 3.05839 5.15376 3.06657C5.06927 3.12635 5.06927 3.2682 5.06927 3.55192V3.7911C5.06927 4.0629 5.06927 4.19879 5.15066 4.25874C5.16184 4.26697 5.17384 4.27402 5.18647 4.27976C5.27849 4.32161 5.39715 4.25538 5.63448 4.12291L5.83832 4.00914Z" fill="white"/>
</g>
<defs>
<filter id="filter0_i_1145_2791" x="0" y="0" width="10" height="10" filterUnits="userSpaceOnUse" color-interpolation-filters="sRGB">
<feFlood flood-opacity="0" result="BackgroundImageFix"/>
<feBlend mode="normal" in="SourceGraphic" in2="BackgroundImageFix" result="shape"/>
<feColorMatrix in="SourceAlpha" type="matrix" values="0 0 0 0 0 0 0 0 0 0 0 0 0 0 0 0 0 0 127 0" result="hardAlpha"/>
<feOffset/>
<feGaussianBlur stdDeviation="1"/>
<feComposite in2="hardAlpha" operator="arithmetic" k2="-1" k3="1"/>
<feColorMatrix type="matrix" values="0 0 0 0 0.942 0 0 0 0 0.94 0 0 0 0 1 0 0 0 0.1 0"/>
<feBlend mode="hard-light" in2="shape" result="effect1_innerShadow_1145_2791"/>
</filter>
</defs>
</svg>
