<svg width="10" height="10" viewBox="0 0 10 10" fill="none" xmlns="http://www.w3.org/2000/svg">
<g filter="url(#filter0_i_1134_3227)">
<path d="M6.72461 2.6001C7.05589 2.6001 7.32505 2.86846 7.3252 3.19971V6.80029C7.32502 7.13151 7.05587 7.3999 6.72461 7.3999C6.3935 7.39972 6.12518 7.1314 6.125 6.80029V6.59508C6.125 6.05769 6.125 5.789 6.04707 5.72895C6.02202 5.70965 6.00418 5.70101 5.9735 5.69335C5.87806 5.66949 5.65796 5.84362 5.21777 6.19189L4.7002 6.60205C4.07848 7.09394 3.76705 7.34055 3.50684 7.35107C3.24005 7.3617 2.98532 7.23779 2.82812 7.02197C2.6749 6.81143 2.6748 6.41514 2.6748 5.62256V4.37744C2.6748 3.58487 2.67491 3.18857 2.82812 2.97803C2.98532 2.76221 3.24005 2.6383 3.50684 2.64893C3.76705 2.65945 4.07848 2.90606 4.7002 3.39795L5.21777 3.80811C5.65811 4.15649 5.87828 4.33068 5.97393 4.30655C6.00425 4.2989 6.02191 4.29035 6.04672 4.27132C6.125 4.21128 6.125 3.9424 6.125 3.40463V3.19971C6.12514 2.86857 6.39348 2.60028 6.72461 2.6001Z" fill="white"/>
</g>
<defs>
<filter id="filter0_i_1134_3227" x="0" y="0" width="10" height="10" filterUnits="userSpaceOnUse" color-interpolation-filters="sRGB">
<feFlood flood-opacity="0" result="BackgroundImageFix"/>
<feBlend mode="normal" in="SourceGraphic" in2="BackgroundImageFix" result="shape"/>
<feColorMatrix in="SourceAlpha" type="matrix" values="0 0 0 0 0 0 0 0 0 0 0 0 0 0 0 0 0 0 127 0" result="hardAlpha"/>
<feOffset/>
<feGaussianBlur stdDeviation="1"/>
<feComposite in2="hardAlpha" operator="arithmetic" k2="-1" k3="1"/>
<feColorMatrix type="matrix" values="0 0 0 0 0.942 0 0 0 0 0.94 0 0 0 0 1 0 0 0 0.1 0"/>
<feBlend mode="hard-light" in2="shape" result="effect1_innerShadow_1134_3227"/>
</filter>
</defs>
</svg>
