<svg width="10" height="10" viewBox="0 0 10 10" fill="none" xmlns="http://www.w3.org/2000/svg">
<g filter="url(#filter0_i_1242_539)">
<path d="M3.7002 2C3.97625 2.00011 4.2002 2.22392 4.2002 2.5C4.2002 2.77608 3.97625 2.99989 3.7002 3C3.60713 3 3.5606 3 3.52153 3.00515C3.25241 3.04065 3.04065 3.25241 3.00515 3.52153C3 3.5606 3 3.60713 3 3.7002V5.86C3 6.36757 3 6.62135 3.14376 6.78967C3.16417 6.81357 3.18643 6.83583 3.21033 6.85624C3.37865 7 3.63243 7 4.14 7H6.2998C6.39287 7 6.4394 7 6.47847 6.99485C6.74759 6.95935 6.95935 6.74759 6.99485 6.47847C7 6.4394 7 6.39287 7 6.2998C7.00011 6.02375 7.22392 5.7998 7.5 5.7998C7.77608 5.7998 7.99989 6.02375 8 6.2998V6.86C8 7.36757 8 7.62135 7.85624 7.78967C7.83583 7.81357 7.81357 7.83583 7.78967 7.85624C7.62135 8 7.36757 8 6.86 8H3.14C2.63243 8 2.37865 8 2.21033 7.85624C2.18643 7.83583 2.16417 7.81357 2.14376 7.78967C2 7.62135 2 7.36757 2 6.86V3.14C2 2.63243 2 2.37865 2.14376 2.21033C2.16417 2.18643 2.18643 2.16417 2.21033 2.14376C2.37865 2 2.63243 2 3.14 2H3.7002ZM8 4.2998C8 4.57595 7.77614 4.7998 7.5 4.7998C7.22386 4.7998 7 4.57595 7 4.2998C7 4.08106 6.73552 3.97151 6.58085 4.12619L4.85352 5.85352C4.65825 6.04878 4.34175 6.04878 4.14648 5.85352C3.95122 5.65825 3.95122 5.34175 4.14648 5.14648L5.87382 3.41915C6.02849 3.26448 5.91894 3 5.7002 3C5.42405 3 5.2002 2.77614 5.2002 2.5C5.2002 2.22386 5.42405 2 5.7002 2H6.86C7.36757 2 7.62135 2 7.78967 2.14376C7.81357 2.16417 7.83583 2.18643 7.85624 2.21033C8 2.37865 8 2.63243 8 3.14V4.2998Z" fill="white"/>
</g>
<defs>
<filter id="filter0_i_1242_539" x="0" y="0" width="10" height="10" filterUnits="userSpaceOnUse" color-interpolation-filters="sRGB">
<feFlood flood-opacity="0" result="BackgroundImageFix"/>
<feBlend mode="normal" in="SourceGraphic" in2="BackgroundImageFix" result="shape"/>
<feColorMatrix in="SourceAlpha" type="matrix" values="0 0 0 0 0 0 0 0 0 0 0 0 0 0 0 0 0 0 127 0" result="hardAlpha"/>
<feOffset/>
<feGaussianBlur stdDeviation="1"/>
<feComposite in2="hardAlpha" operator="arithmetic" k2="-1" k3="1"/>
<feColorMatrix type="matrix" values="0 0 0 0 0.942 0 0 0 0 0.94 0 0 0 0 1 0 0 0 0.1 0"/>
<feBlend mode="hard-light" in2="shape" result="effect1_innerShadow_1242_539"/>
</filter>
</defs>
</svg>
