<svg width="10" height="10" viewBox="0 0 10 10" fill="none" xmlns="http://www.w3.org/2000/svg">
<g filter="url(#filter0_i_1079_196)">
<path d="M6.63095 2.3125C6.90708 2.3125 7.13093 2.53637 7.13095 2.8125V4.20295C7.13095 4.40847 7.13095 4.51124 7.18414 4.58822C7.19178 4.59927 7.20016 4.60981 7.20921 4.61974C7.27224 4.6889 7.37236 4.71204 7.57261 4.75831L8.07333 4.87402C8.31548 4.92993 8.46613 5.17192 8.41025 5.41406C8.35436 5.65616 8.11328 5.80676 7.87119 5.75098L7.82917 5.74128C7.52526 5.67111 7.3733 5.63603 7.26603 5.70663C7.251 5.71652 7.23689 5.72774 7.22388 5.74016C7.13095 5.82881 7.13095 5.98476 7.13095 6.29667V6.8125C7.13095 7.29575 6.7392 7.6875 6.25595 7.6875H6.00595C5.52283 7.68735 5.13095 7.29566 5.13095 6.8125C5.13097 6.32935 5.52284 5.93765 6.00595 5.9375C6.07499 5.9375 6.13095 5.88154 6.13095 5.8125V5.60951C6.13095 5.58839 6.13095 5.57784 6.13036 5.56845C6.12248 5.44294 6.03716 5.33566 5.91664 5.29974C5.90763 5.29705 5.89734 5.29468 5.87677 5.28993L4.82922 5.04799C4.52529 4.97779 4.37332 4.9427 4.26604 5.0133C4.25101 5.02319 4.2369 5.03441 4.22388 5.04682C4.13095 5.13547 4.13095 5.29144 4.13095 5.60337V6.8125C4.13095 7.29575 3.7392 7.6875 3.25595 7.6875H3.00595C2.52283 7.68735 2.13095 7.29566 2.13095 6.8125C2.13097 6.32936 2.52284 5.93765 3.00595 5.9375C3.07499 5.9375 3.13095 5.88154 3.13095 5.8125V5.10989C3.13095 4.90422 3.13095 4.80138 3.0777 4.72438C3.07005 4.71332 3.06167 4.70278 3.05261 4.69285C2.98952 4.62367 2.88931 4.60059 2.68889 4.55443L1.92685 4.37891C1.68504 4.32284 1.53426 4.08176 1.58994 3.83984C1.64584 3.59769 1.88782 3.44605 2.12997 3.50195L2.43306 3.57174C2.73685 3.64168 2.88874 3.67666 2.99596 3.60604C3.01098 3.59615 3.02508 3.58493 3.03808 3.57252C3.13095 3.48388 3.13095 3.32801 3.13095 3.01627V2.8125C3.13097 2.53646 3.35494 2.31265 3.63095 2.3125H6.63095ZM4.13095 3.67523C4.13095 3.72258 4.13095 3.74626 4.13391 3.76717C4.14916 3.87499 4.22165 3.96608 4.32329 4.00516C4.343 4.01274 4.36607 4.01806 4.41222 4.02869L5.52736 4.2857C5.74276 4.33534 5.85047 4.36016 5.93419 4.32948C5.99496 4.3072 6.0469 4.26587 6.08225 4.21166C6.13095 4.13697 6.13095 4.02644 6.13095 3.80539C6.13095 3.6252 6.13095 3.5351 6.0935 3.46736C6.06619 3.41795 6.0255 3.37726 5.97609 3.34995C5.90835 3.3125 5.81825 3.3125 5.63806 3.3125H4.49368C4.4354 3.3125 4.40626 3.3125 4.38191 3.31654C4.25524 3.33753 4.15598 3.43679 4.13499 3.56345C4.13095 3.58781 4.13095 3.61695 4.13095 3.67523Z" fill="white"/>
</g>
<defs>
<filter id="filter0_i_1079_196" x="0" y="0" width="10" height="10" filterUnits="userSpaceOnUse" color-interpolation-filters="sRGB">
<feFlood flood-opacity="0" result="BackgroundImageFix"/>
<feBlend mode="normal" in="SourceGraphic" in2="BackgroundImageFix" result="shape"/>
<feColorMatrix in="SourceAlpha" type="matrix" values="0 0 0 0 0 0 0 0 0 0 0 0 0 0 0 0 0 0 127 0" result="hardAlpha"/>
<feOffset/>
<feGaussianBlur stdDeviation="1"/>
<feComposite in2="hardAlpha" operator="arithmetic" k2="-1" k3="1"/>
<feColorMatrix type="matrix" values="0 0 0 0 0.942 0 0 0 0 0.94 0 0 0 0 1 0 0 0 0.1 0"/>
<feBlend mode="hard-light" in2="shape" result="effect1_innerShadow_1079_196"/>
</filter>
</defs>
</svg>
