<svg width="10" height="10" viewBox="0 0 10 10" fill="none" xmlns="http://www.w3.org/2000/svg">
<g filter="url(#filter0_i_1165_94)">
<path d="M5 2.1001C6.32548 2.1001 7.40039 3.17501 7.40039 4.50049C7.4003 5.10869 7.17337 5.66347 6.80005 6.08607C6.64738 6.25889 6.57105 6.3453 6.54657 6.39792C6.48939 6.52085 6.48825 6.60039 6.5419 6.72491C6.56486 6.7782 6.62016 6.84453 6.73076 6.9772C6.91892 7.2029 7.013 7.31574 7.03479 7.40688C7.07815 7.58822 6.99047 7.77547 6.82342 7.85828C6.73946 7.8999 6.59255 7.8999 6.29871 7.8999H3.70097C3.40699 7.8999 3.26001 7.8999 3.176 7.85822C3.00913 7.77542 2.9215 7.58839 2.96469 7.40717C2.98643 7.31595 3.0805 7.20301 3.26865 6.97714C3.37921 6.84441 3.43449 6.77805 3.45743 6.72473C3.51095 6.60032 3.50982 6.52095 3.45277 6.39813C3.42831 6.34548 3.352 6.25901 3.19937 6.08607C2.82633 5.66339 2.5997 5.10852 2.59961 4.50049C2.59961 3.175 3.67452 2.1001 5 2.1001ZM5 3.34814C4.36377 3.34814 3.84766 3.86426 3.84766 4.50049C3.84786 5.13654 4.3639 5.65186 5 5.65186C5.6361 5.65185 6.15214 5.13654 6.15234 4.50049C6.15234 4.40699 6.04802 4.35788 5.95729 4.38044C5.90686 4.39298 5.85426 4.39989 5.7998 4.3999C5.41321 4.3999 5.09961 4.08631 5.09961 3.69971C5.09964 3.64471 5.10656 3.59148 5.11918 3.54046C5.14138 3.4507 5.09246 3.34815 5 3.34814Z" fill="white"/>
</g>
<defs>
<filter id="filter0_i_1165_94" x="0" y="0" width="10" height="10" filterUnits="userSpaceOnUse" color-interpolation-filters="sRGB">
<feFlood flood-opacity="0" result="BackgroundImageFix"/>
<feBlend mode="normal" in="SourceGraphic" in2="BackgroundImageFix" result="shape"/>
<feColorMatrix in="SourceAlpha" type="matrix" values="0 0 0 0 0 0 0 0 0 0 0 0 0 0 0 0 0 0 127 0" result="hardAlpha"/>
<feOffset/>
<feGaussianBlur stdDeviation="1"/>
<feComposite in2="hardAlpha" operator="arithmetic" k2="-1" k3="1"/>
<feColorMatrix type="matrix" values="0 0 0 0 0.942 0 0 0 0 0.94 0 0 0 0 1 0 0 0 0.1 0"/>
<feBlend mode="hard-light" in2="shape" result="effect1_innerShadow_1165_94"/>
</filter>
</defs>
</svg>
