<svg width="10" height="10" viewBox="0 0 10 10" fill="none" xmlns="http://www.w3.org/2000/svg">
<g filter="url(#filter0_i_1191_5332)">
<path d="M3.77522 2.70081C3.57726 2.72261 3.34666 2.96186 2.88557 3.44104L2.08284 4.27502C1.7715 4.59857 1.61566 4.76083 1.60042 4.95764C1.59828 4.98551 1.5983 5.01375 1.60042 5.04163C1.61554 5.23855 1.77139 5.40057 2.08284 5.72424L2.88557 6.5592C3.34658 7.03829 3.57728 7.27763 3.77522 7.29944C3.95848 7.3196 4.13956 7.24669 4.25764 7.1051C4.31879 7.03175 4.35073 6.91712 4.3674 6.74436C4.39367 6.47225 4.4068 6.33619 4.48158 6.2992C4.49213 6.29398 4.50188 6.29046 4.51334 6.28773C4.59449 6.2684 4.68696 6.36013 4.8719 6.54358C5.334 7.00094 5.56517 7.22997 5.76057 7.25842C5.9795 7.29024 6.19852 7.19812 6.32991 7.02014C6.44692 6.86114 6.4471 6.53608 6.4471 5.88635V4.08264C6.4471 3.43289 6.44697 3.10782 6.32991 2.94885C6.19852 2.77087 5.9795 2.67974 5.76057 2.71155C5.5652 2.74008 5.33387 2.96819 4.8719 3.42542C4.68839 3.60746 4.59663 3.69848 4.516 3.67987C4.50453 3.67722 4.49496 3.67385 4.48437 3.66872C4.40989 3.63265 4.39467 3.49683 4.36422 3.22519C4.34676 3.06942 4.31509 2.96408 4.25764 2.89514C4.13955 2.75349 3.95854 2.68063 3.77522 2.70081ZM7.80159 2.77209C7.47029 2.77218 7.20198 3.04039 7.20198 3.3717V6.5719C7.20228 6.90296 7.47048 7.17142 7.80159 7.17151C8.13277 7.17151 8.4009 6.90301 8.4012 6.5719V3.3717C8.4012 3.04033 8.13296 2.77209 7.80159 2.77209Z" fill="white"/>
</g>
<defs>
<filter id="filter0_i_1191_5332" x="0" y="0" width="10" height="10" filterUnits="userSpaceOnUse" color-interpolation-filters="sRGB">
<feFlood flood-opacity="0" result="BackgroundImageFix"/>
<feBlend mode="normal" in="SourceGraphic" in2="BackgroundImageFix" result="shape"/>
<feColorMatrix in="SourceAlpha" type="matrix" values="0 0 0 0 0 0 0 0 0 0 0 0 0 0 0 0 0 0 127 0" result="hardAlpha"/>
<feOffset/>
<feGaussianBlur stdDeviation="1"/>
<feComposite in2="hardAlpha" operator="arithmetic" k2="-1" k3="1"/>
<feColorMatrix type="matrix" values="0 0 0 0 0.942 0 0 0 0 0.94 0 0 0 0 1 0 0 0 0.1 0"/>
<feBlend mode="hard-light" in2="shape" result="effect1_innerShadow_1191_5332"/>
</filter>
</defs>
</svg>
