<svg width="10" height="10" viewBox="0 0 10 10" fill="none" xmlns="http://www.w3.org/2000/svg">
<g filter="url(#filter0_i_1134_3223)">
<path d="M3.27539 2.6001C2.94411 2.6001 2.67495 2.86846 2.6748 3.19971V6.80029C2.67498 7.13151 2.94413 7.3999 3.27539 7.3999C3.6065 7.39972 3.87482 7.1314 3.875 6.80029V6.59508C3.875 6.05769 3.875 5.789 3.95293 5.72895C3.97798 5.70965 3.99582 5.70101 4.0265 5.69335C4.12194 5.66949 4.34204 5.84362 4.78223 6.19189L5.2998 6.60205C5.92152 7.09394 6.23295 7.34055 6.49316 7.35107C6.75995 7.3617 7.01468 7.23779 7.17188 7.02197C7.3251 6.81143 7.3252 6.41514 7.3252 5.62256V4.37744C7.3252 3.58487 7.32509 3.18857 7.17188 2.97803C7.01468 2.76221 6.75995 2.6383 6.49316 2.64893C6.23295 2.65945 5.92152 2.90606 5.2998 3.39795L4.78223 3.80811C4.34189 4.15649 4.12172 4.33068 4.02607 4.30655C3.99575 4.2989 3.97809 4.29035 3.95328 4.27132C3.875 4.21128 3.875 3.9424 3.875 3.40463V3.19971C3.87486 2.86857 3.60652 2.60028 3.27539 2.6001Z" fill="white"/>
</g>
<defs>
<filter id="filter0_i_1134_3223" x="0" y="0" width="10" height="10" filterUnits="userSpaceOnUse" color-interpolation-filters="sRGB">
<feFlood flood-opacity="0" result="BackgroundImageFix"/>
<feBlend mode="normal" in="SourceGraphic" in2="BackgroundImageFix" result="shape"/>
<feColorMatrix in="SourceAlpha" type="matrix" values="0 0 0 0 0 0 0 0 0 0 0 0 0 0 0 0 0 0 127 0" result="hardAlpha"/>
<feOffset/>
<feGaussianBlur stdDeviation="1"/>
<feComposite in2="hardAlpha" operator="arithmetic" k2="-1" k3="1"/>
<feColorMatrix type="matrix" values="0 0 0 0 0.942 0 0 0 0 0.94 0 0 0 0 1 0 0 0 0.1 0"/>
<feBlend mode="hard-light" in2="shape" result="effect1_innerShadow_1134_3223"/>
</filter>
</defs>
</svg>
