<svg width="10" height="10" viewBox="0 0 10 10" fill="none" xmlns="http://www.w3.org/2000/svg">
<g filter="url(#filter0_i_1144_2609)">
<path d="M5.00049 1.3374C5.55258 1.3376 6.00044 1.78528 6.00049 2.3374V2.45466C6.00049 2.60572 6.00049 2.68125 6.0269 2.73996C6.0314 2.74997 6.03423 2.75553 6.03965 2.76508C6.07145 2.82105 6.14661 2.87601 6.29694 2.98592C6.8441 3.386 7.19965 4.03238 7.19971 4.76221C7.19964 5.49187 6.84387 6.13757 6.2968 6.53754C6.14657 6.64738 6.07146 6.7023 6.03965 6.75827C6.03423 6.76781 6.0314 6.77338 6.0269 6.78339C6.00049 6.8421 6.00049 6.91761 6.00049 7.06865V7.6626C6.00027 8.21458 5.55247 8.6624 5.00049 8.6626C4.44834 8.6626 4.0007 8.2147 4.00049 7.6626V7.06877C4.00049 6.91767 4.00049 6.84213 3.97405 6.7834C3.96955 6.77339 3.96672 6.76781 3.96129 6.75827C3.92946 6.70228 3.85431 6.64738 3.70401 6.53758C3.15657 6.13767 2.80036 5.49201 2.80029 4.76221C2.80035 4.03224 3.15633 3.3859 3.70387 2.98588C3.85427 2.87601 3.92947 2.82107 3.96129 2.76508C3.96672 2.75553 3.96955 2.74997 3.97406 2.73995C4.00049 2.68122 4.00049 2.60566 4.00049 2.45454V2.3374C4.00053 1.78516 4.44823 1.3374 5.00049 1.3374ZM4.99951 3.51123C4.77901 3.51149 4.59943 3.69113 4.59912 3.91162V4.75244C4.59912 4.98297 4.73227 5.19348 4.93994 5.29346L5.65967 5.63916C5.8588 5.73472 6.09823 5.65075 6.19385 5.45166C6.2892 5.25264 6.20523 5.01311 6.00635 4.91748L5.72314 4.78174C5.57472 4.71051 5.50045 4.67482 5.45557 4.61182C5.44908 4.60269 5.44244 4.59329 5.43701 4.5835C5.3995 4.51572 5.3999 4.43292 5.3999 4.26807V3.91162C5.39959 3.69097 5.22024 3.51123 4.99951 3.51123Z" fill="white"/>
</g>
<defs>
<filter id="filter0_i_1144_2609" x="0" y="0" width="10" height="10" filterUnits="userSpaceOnUse" color-interpolation-filters="sRGB">
<feFlood flood-opacity="0" result="BackgroundImageFix"/>
<feBlend mode="normal" in="SourceGraphic" in2="BackgroundImageFix" result="shape"/>
<feColorMatrix in="SourceAlpha" type="matrix" values="0 0 0 0 0 0 0 0 0 0 0 0 0 0 0 0 0 0 127 0" result="hardAlpha"/>
<feOffset/>
<feGaussianBlur stdDeviation="1"/>
<feComposite in2="hardAlpha" operator="arithmetic" k2="-1" k3="1"/>
<feColorMatrix type="matrix" values="0 0 0 0 0.942 0 0 0 0 0.94 0 0 0 0 1 0 0 0 0.1 0"/>
<feBlend mode="hard-light" in2="shape" result="effect1_innerShadow_1144_2609"/>
</filter>
</defs>
</svg>
