<svg width="10" height="10" viewBox="0 0 10 10" fill="none" xmlns="http://www.w3.org/2000/svg">
<g filter="url(#filter0_i_1223_2492)">
<path d="M5.87013 7.60925C5.96767 7.59744 6.06116 7.56266 6.14259 7.50769C6.3702 7.35378 6.40835 6.94164 6.41474 6.16427C6.41705 5.88382 6.64339 5.65613 6.92384 5.65613C7.56387 5.65613 7.88419 5.65646 8.04884 5.46375C8.07172 5.43697 8.09204 5.40748 8.10939 5.37683C8.23391 5.15624 8.12393 4.85504 7.90529 4.25378L7.57952 3.35723C7.41328 2.89971 7.33016 2.67096 7.15354 2.53039C7.12803 2.51008 7.10131 2.49136 7.07351 2.47431C6.88107 2.35632 6.63768 2.35632 6.15091 2.35632H5.33642C4.65966 2.35632 4.32129 2.35632 4.09686 2.548C4.06499 2.57522 4.03531 2.6049 4.0081 2.63677C3.81642 2.86119 3.81642 3.19957 3.81642 3.87632V5.0905C3.81642 5.35625 3.81642 5.48913 3.85745 5.61225C3.86347 5.63033 3.87014 5.6482 3.87744 5.66581C3.92716 5.78568 4.01425 5.88604 4.18843 6.08675L4.45119 6.38953C5.17903 7.22935 5.54303 7.64882 5.87013 7.60925ZM3.01564 2.95642C3.01564 2.625 2.74697 2.35632 2.41554 2.35632C2.08412 2.35632 1.81544 2.625 1.81544 2.95642V5.05603C1.81544 5.38745 2.08412 5.65613 2.41554 5.65613C2.74697 5.65613 3.01564 5.38745 3.01564 5.05603V2.95642Z" fill="white"/>
</g>
<defs>
<filter id="filter0_i_1223_2492" x="0" y="0" width="10" height="10" filterUnits="userSpaceOnUse" color-interpolation-filters="sRGB">
<feFlood flood-opacity="0" result="BackgroundImageFix"/>
<feBlend mode="normal" in="SourceGraphic" in2="BackgroundImageFix" result="shape"/>
<feColorMatrix in="SourceAlpha" type="matrix" values="0 0 0 0 0 0 0 0 0 0 0 0 0 0 0 0 0 0 127 0" result="hardAlpha"/>
<feOffset/>
<feGaussianBlur stdDeviation="1"/>
<feComposite in2="hardAlpha" operator="arithmetic" k2="-1" k3="1"/>
<feColorMatrix type="matrix" values="0 0 0 0 0.942 0 0 0 0 0.94 0 0 0 0 1 0 0 0 0.1 0"/>
<feBlend mode="hard-light" in2="shape" result="effect1_innerShadow_1223_2492"/>
</filter>
</defs>
</svg>
