<svg width="10" height="10" viewBox="0 0 10 10" fill="none" xmlns="http://www.w3.org/2000/svg">
<g filter="url(#filter0_i_1079_209)">
<path fill-rule="evenodd" clip-rule="evenodd" d="M4.99549 2.14413C5.25752 2.14413 5.482 2.29644 5.59036 2.51663C5.62107 2.57902 5.673 2.63075 5.73885 2.65313C6.9581 3.06763 6.38761 4.58337 7.34901 5.54062C7.42125 5.61254 7.49593 5.6893 7.53651 5.78281C7.66475 6.07857 7.57347 6.3231 7.33862 6.51679C7.23527 6.60202 7.20996 6.75996 7.30468 6.85469L7.53748 7.08749C7.71322 7.26323 7.71322 7.54848 7.53748 7.72421C7.36175 7.89973 7.07742 7.89982 6.90174 7.72421L6.21966 7.04301C6.17343 6.99684 6.10759 6.97641 6.04303 6.98646C6.03558 6.98762 6.02811 6.98877 6.02063 6.9899C5.92662 7.00414 5.85605 7.08131 5.83199 7.1733C5.73095 7.55951 5.38028 7.84433 4.96229 7.84433C4.54437 7.8442 4.19284 7.55945 4.09164 7.17327C4.06753 7.0813 3.99683 7.00403 3.90288 6.98948C2.87663 6.83051 2.10845 6.42962 2.38905 5.78281C2.42959 5.68938 2.50339 5.61248 2.57557 5.54062C2.97548 5.14248 3.11101 4.64765 3.21994 4.17557C3.23539 4.10862 3.21504 4.03849 3.16646 3.9899L2.48084 3.30429C2.30517 3.12862 2.3053 2.84332 2.48084 2.66757C2.65658 2.49184 2.94183 2.49184 3.11756 2.66757L3.39583 2.94584C3.48584 3.03585 3.63533 3.01828 3.72583 2.92876C3.84247 2.81337 3.99105 2.71925 4.1852 2.65309C4.25102 2.63066 4.30249 2.57901 4.33321 2.51663C4.44167 2.29636 4.66697 2.14422 4.92909 2.14413H4.99549Z" fill="white"/>
</g>
<defs>
<filter id="filter0_i_1079_209" x="0" y="0" width="10" height="10" filterUnits="userSpaceOnUse" color-interpolation-filters="sRGB">
<feFlood flood-opacity="0" result="BackgroundImageFix"/>
<feBlend mode="normal" in="SourceGraphic" in2="BackgroundImageFix" result="shape"/>
<feColorMatrix in="SourceAlpha" type="matrix" values="0 0 0 0 0 0 0 0 0 0 0 0 0 0 0 0 0 0 127 0" result="hardAlpha"/>
<feOffset/>
<feGaussianBlur stdDeviation="1"/>
<feComposite in2="hardAlpha" operator="arithmetic" k2="-1" k3="1"/>
<feColorMatrix type="matrix" values="0 0 0 0 0.942 0 0 0 0 0.94 0 0 0 0 1 0 0 0 0.1 0"/>
<feBlend mode="hard-light" in2="shape" result="effect1_innerShadow_1079_209"/>
</filter>
</defs>
</svg>
