<svg width="10" height="10" viewBox="0 0 10 10" fill="none" xmlns="http://www.w3.org/2000/svg">
<g filter="url(#filter0_i_1145_2753)">
<path d="M3.65527 5.39941C4.07337 5.39941 4.28239 5.40033 4.42188 5.51758C4.44383 5.53606 4.46493 5.55616 4.4834 5.57812C4.60038 5.7176 4.60059 5.92698 4.60059 6.34473V7.05469C4.60059 7.47233 4.60029 7.68181 4.4834 7.82129C4.46488 7.84331 4.4439 7.8643 4.42188 7.88281C4.28239 7.9999 4.07317 8 3.65527 8H2.94531C2.52748 8 2.31821 7.9998 2.17871 7.88281C2.15668 7.8643 2.13571 7.84331 2.11719 7.82129C2.0002 7.68181 2 7.47243 2 7.05469V6.34473C2 5.92687 2.00011 5.7176 2.11719 5.57812C2.13569 5.55612 2.15671 5.53609 2.17871 5.51758C2.31821 5.40032 2.52716 5.39941 2.94531 5.39941H3.65527ZM6.37598 7.34961C6.49219 7.34961 6.55067 7.35054 6.59473 7.37402C6.62954 7.39271 6.65817 7.42118 6.67676 7.45605C6.70018 7.50014 6.7002 7.55848 6.7002 7.6748C6.7002 7.79113 6.70025 7.84948 6.67676 7.89355C6.65815 7.9284 6.62953 7.95693 6.59473 7.97559C6.55068 7.99903 6.49213 7.99902 6.37598 7.99902H5.72559C5.60932 7.99902 5.55091 7.99898 5.50684 7.97559C5.47183 7.95693 5.44251 7.92854 5.42383 7.89355C5.40037 7.84949 5.40039 7.79107 5.40039 7.6748C5.40039 7.55857 5.40046 7.50013 5.42383 7.45605C5.4425 7.42103 5.47182 7.3927 5.50684 7.37402C5.55092 7.35058 5.60924 7.34961 5.72559 7.34961H6.37598ZM7.67578 7.34961C7.79199 7.34961 7.85048 7.35054 7.89453 7.37402C7.92934 7.39271 7.95797 7.42118 7.97656 7.45605C7.99999 7.50014 8 7.55848 8 7.6748C8 7.79113 8.00006 7.84948 7.97656 7.89355C7.95795 7.9284 7.92934 7.95693 7.89453 7.97559C7.85048 7.99903 7.79194 7.99902 7.67578 7.99902C7.55952 7.99902 7.50111 7.99898 7.45703 7.97559C7.42203 7.95693 7.39271 7.92854 7.37402 7.89355C7.35057 7.84949 7.35059 7.79107 7.35059 7.6748C7.35059 7.55857 7.35065 7.50013 7.37402 7.45605C7.39269 7.42103 7.42201 7.3927 7.45703 7.37402C7.50112 7.35058 7.55943 7.34961 7.67578 7.34961ZM7.67578 5.4043C7.78736 5.4043 7.84306 5.40506 7.88574 5.42676C7.92336 5.44591 7.95444 5.47608 7.97363 5.51367C7.99531 5.55639 7.99512 5.61287 7.99512 5.72461V6.37012C7.99512 6.48645 7.99517 6.54479 7.97168 6.58887C7.95307 6.62371 7.92446 6.65224 7.88965 6.6709C7.86769 6.68259 7.8421 6.68848 7.80762 6.69141L7.53418 6.69727C7.49965 6.70044 7.47415 6.70705 7.45215 6.71875C7.41713 6.73743 7.38781 6.76576 7.36914 6.80078C7.34577 6.84486 7.3457 6.90443 7.3457 7.02246C7.3457 7.13625 7.34609 7.19351 7.32422 7.23633C7.30513 7.27361 7.27455 7.30411 7.2373 7.32324C7.19444 7.34512 7.13764 7.34473 7.02539 7.34473C6.9134 7.34473 6.85728 7.34501 6.81445 7.32324C6.77713 7.30417 6.7467 7.2736 6.72754 7.23633C6.70564 7.19348 6.70508 7.13662 6.70508 7.02441V6.37988C6.70508 6.26379 6.70517 6.20524 6.72852 6.16113C6.74707 6.12648 6.77593 6.09773 6.81055 6.0791C6.83272 6.06723 6.85867 6.06057 6.89355 6.05762L7.16699 6.05176C7.20193 6.04881 7.22781 6.04312 7.25 6.03125C7.2847 6.01265 7.31342 5.98392 7.33203 5.94922C7.35552 5.90507 7.35547 5.84568 7.35547 5.72754C7.35547 5.61403 7.35528 5.55639 7.37695 5.51367C7.39611 5.4761 7.42727 5.44593 7.46484 5.42676C7.50758 5.40502 7.56394 5.4043 7.67578 5.4043ZM3.08008 6.09961C2.91119 6.09961 2.82657 6.09962 2.77051 6.14746C2.76254 6.15427 2.75485 6.16195 2.74805 6.16992C2.70034 6.226 2.7002 6.31068 2.7002 6.47949V6.91992C2.7002 7.08874 2.70035 7.17341 2.74805 7.22949C2.75485 7.23746 2.76254 7.24515 2.77051 7.25195C2.82657 7.2998 2.91119 7.2998 3.08008 7.2998H3.52051C3.68943 7.2998 3.77398 7.29966 3.83008 7.25195C3.83805 7.24515 3.84573 7.23746 3.85254 7.22949C3.90039 7.17341 3.90039 7.08891 3.90039 6.91992V6.47949C3.90039 6.3105 3.90039 6.226 3.85254 6.16992C3.84573 6.16195 3.83805 6.15427 3.83008 6.14746C3.77398 6.09976 3.68942 6.09961 3.52051 6.09961H3.08008ZM6.375 5.4043C6.48731 5.4043 6.54404 5.40485 6.58691 5.42676C6.62416 5.44592 6.65476 5.47637 6.67383 5.51367C6.69561 5.55646 6.69531 5.61278 6.69531 5.72461C6.69531 5.8368 6.69572 5.89367 6.67383 5.93652C6.65474 5.9738 6.62416 6.0043 6.58691 6.02344C6.54406 6.04531 6.48668 6.04492 6.37305 6.04492C6.25523 6.04492 6.19643 6.04589 6.15234 6.06934C6.11733 6.08802 6.088 6.11634 6.06934 6.15137C6.04598 6.19541 6.0459 6.25451 6.0459 6.37207C6.0459 6.48571 6.04631 6.54309 6.02441 6.58594C6.00533 6.62322 5.97475 6.65372 5.9375 6.67285C5.89464 6.69473 5.83784 6.69434 5.72559 6.69434C5.61359 6.69434 5.55747 6.69462 5.51465 6.67285C5.47732 6.65378 5.44689 6.62321 5.42773 6.58594C5.40583 6.54309 5.40527 6.48623 5.40527 6.37402V5.78516C5.40527 5.61606 5.40528 5.53072 5.45312 5.47461C5.45984 5.46675 5.46773 5.45985 5.47559 5.45312C5.53167 5.40523 5.61613 5.4043 5.78516 5.4043H6.375ZM3.65527 2C4.07337 2 4.28239 1.99994 4.42188 2.11719C4.4439 2.13571 4.46488 2.15571 4.4834 2.17773C4.60058 2.31723 4.60059 2.52725 4.60059 2.94531V3.65527C4.60059 4.07299 4.60055 4.28244 4.4834 4.42188C4.46489 4.44387 4.44388 4.46392 4.42188 4.48242C4.28239 4.59961 4.07329 4.59961 3.65527 4.59961H2.94531C2.52729 4.59961 2.31821 4.59957 2.17871 4.48242C2.1567 4.46392 2.1357 4.44388 2.11719 4.42188C1.99998 4.28244 2 4.07305 2 3.65527V2.94531C2 2.52725 2 2.31723 2.11719 2.17773C2.13568 2.15574 2.15672 2.13568 2.17871 2.11719C2.31821 2.00003 2.52727 2 2.94531 2H3.65527ZM7.05469 2C7.47284 2 7.68277 1.99993 7.82227 2.11719C7.84411 2.13558 7.86442 2.15589 7.88281 2.17773C8 2.31723 8 2.52725 8 2.94531V3.65527C8 4.07305 8.00002 4.28244 7.88281 4.42188C7.86442 4.44371 7.84411 4.46403 7.82227 4.48242C7.68277 4.59962 7.47277 4.59961 7.05469 4.59961H6.34473C5.92694 4.59961 5.71757 4.59958 5.57812 4.48242C5.55628 4.46403 5.53597 4.44372 5.51758 4.42188C5.40037 4.28244 5.40039 4.07305 5.40039 3.65527V2.94531C5.40039 2.52725 5.40039 2.31723 5.51758 2.17773C5.53597 2.15589 5.55628 2.13558 5.57812 2.11719C5.71757 1.99997 5.92687 2 6.34473 2H7.05469ZM3.08008 2.7002C2.91115 2.7002 2.82657 2.70017 2.77051 2.74805C2.76263 2.75479 2.75478 2.76165 2.74805 2.76953C2.70013 2.82564 2.7002 2.91089 2.7002 3.08008V3.51953C2.7002 3.68872 2.70013 3.77397 2.74805 3.83008C2.75478 3.83795 2.76264 3.84482 2.77051 3.85156C2.82657 3.89944 2.91115 3.89941 3.08008 3.89941H3.52051C3.68962 3.89941 3.77398 3.89944 3.83008 3.85156C3.83795 3.84484 3.8458 3.83794 3.85254 3.83008C3.90046 3.77397 3.90039 3.68872 3.90039 3.51953V3.08008C3.90039 2.91089 3.90046 2.82564 3.85254 2.76953C3.84579 2.76164 3.83797 2.75479 3.83008 2.74805C3.77398 2.70013 3.68967 2.7002 3.52051 2.7002H3.08008ZM6.48047 2.7002C6.3113 2.7002 6.227 2.70013 6.1709 2.74805C6.163 2.75479 6.15519 2.76164 6.14844 2.76953C6.10052 2.82564 6.10059 2.91089 6.10059 3.08008V3.51953C6.10059 3.68872 6.10052 3.77397 6.14844 3.83008C6.15518 3.83794 6.16303 3.84484 6.1709 3.85156C6.227 3.89943 6.31135 3.89941 6.48047 3.89941H6.9209C7.08982 3.89941 7.17441 3.89944 7.23047 3.85156C7.23834 3.84482 7.2462 3.83795 7.25293 3.83008C7.30085 3.77397 7.30078 3.68872 7.30078 3.51953V3.08008C7.30078 2.91089 7.30084 2.82564 7.25293 2.76953C7.2462 2.76165 7.23834 2.75479 7.23047 2.74805C7.17441 2.70017 7.08982 2.7002 6.9209 2.7002H6.48047Z" fill="white"/>
</g>
<defs>
<filter id="filter0_i_1145_2753" x="0" y="0" width="10" height="10" filterUnits="userSpaceOnUse" color-interpolation-filters="sRGB">
<feFlood flood-opacity="0" result="BackgroundImageFix"/>
<feBlend mode="normal" in="SourceGraphic" in2="BackgroundImageFix" result="shape"/>
<feColorMatrix in="SourceAlpha" type="matrix" values="0 0 0 0 0 0 0 0 0 0 0 0 0 0 0 0 0 0 127 0" result="hardAlpha"/>
<feOffset/>
<feGaussianBlur stdDeviation="1"/>
<feComposite in2="hardAlpha" operator="arithmetic" k2="-1" k3="1"/>
<feColorMatrix type="matrix" values="0 0 0 0 0.942 0 0 0 0 0.94 0 0 0 0 1 0 0 0 0.1 0"/>
<feBlend mode="hard-light" in2="shape" result="effect1_innerShadow_1145_2753"/>
</filter>
</defs>
</svg>
