<svg width="10" height="10" viewBox="0 0 10 10" fill="none" xmlns="http://www.w3.org/2000/svg">
<g filter="url(#filter0_i_1093_6)">
<path d="M4.49951 3C5.34546 3 5.76879 3.00064 6.04932 3.24023C6.08908 3.27421 6.12668 3.31082 6.16064 3.35059C6.23663 3.43958 6.28778 3.54303 6.32257 3.66976C6.36447 3.82236 6.53458 3.91352 6.67139 3.83398C7.26957 3.48504 7.56868 3.30983 7.80225 3.41309C7.83427 3.42725 7.8647 3.4453 7.89307 3.46582C8.09984 3.61558 8.1001 3.96189 8.1001 4.6543V5.38574C8.1001 6.10018 8.09972 6.45808 7.88721 6.60742C7.85826 6.62774 7.82701 6.64443 7.79443 6.6582C7.55516 6.75926 7.25184 6.57006 6.646 6.19141C6.52122 6.11331 6.36003 6.19502 6.32038 6.33678C6.28577 6.46052 6.23527 6.56194 6.16064 6.64941C6.12662 6.68925 6.08915 6.72672 6.04932 6.76074C5.76879 7.00026 5.34537 7 4.49951 7H3.80029C2.95443 7 2.53102 7.00026 2.25049 6.76074C2.21065 6.72672 2.17318 6.68925 2.13916 6.64941C1.89986 6.36893 1.8999 5.94597 1.8999 5.10059V4.90039C1.8999 4.05451 1.89963 3.63111 2.13916 3.35059C2.17313 3.31082 2.21073 3.27421 2.25049 3.24023C2.53102 3.00064 2.95435 3 3.80029 3H4.49951Z" fill="white"/>
</g>
<defs>
<filter id="filter0_i_1093_6" x="0" y="0" width="10" height="10" filterUnits="userSpaceOnUse" color-interpolation-filters="sRGB">
<feFlood flood-opacity="0" result="BackgroundImageFix"/>
<feBlend mode="normal" in="SourceGraphic" in2="BackgroundImageFix" result="shape"/>
<feColorMatrix in="SourceAlpha" type="matrix" values="0 0 0 0 0 0 0 0 0 0 0 0 0 0 0 0 0 0 127 0" result="hardAlpha"/>
<feOffset/>
<feGaussianBlur stdDeviation="1"/>
<feComposite in2="hardAlpha" operator="arithmetic" k2="-1" k3="1"/>
<feColorMatrix type="matrix" values="0 0 0 0 0.942 0 0 0 0 0.94 0 0 0 0 1 0 0 0 0.1 0"/>
<feBlend mode="hard-light" in2="shape" result="effect1_innerShadow_1093_6"/>
</filter>
</defs>
</svg>
