<svg width="10" height="10" viewBox="0 0 10 10" fill="none" xmlns="http://www.w3.org/2000/svg">
<g filter="url(#filter0_i_1145_2663)">
<path d="M5.00037 6.34961C5.38693 6.34965 5.70056 6.66323 5.70056 7.0498C5.70056 7.43638 5.38693 7.74996 5.00037 7.75C4.61377 7.75 4.30017 7.4364 4.30017 7.0498C4.30017 6.66321 4.61377 6.34961 5.00037 6.34961ZM5.00037 4.34961C5.5652 4.3497 6.00653 4.53878 6.30408 4.72656C6.45238 4.82023 6.56749 4.91506 6.64685 4.98828C6.68638 5.02477 6.71783 5.05686 6.7406 5.08105C6.75191 5.09308 6.76176 5.1042 6.76892 5.1123C6.77216 5.11598 6.77533 5.11932 6.77771 5.12207C6.77883 5.12337 6.78062 5.12489 6.78162 5.12598L6.78259 5.12793L6.78455 5.12988C6.96092 5.34202 6.93208 5.65733 6.72009 5.83398C6.53444 5.98855 6.26988 5.98611 6.08826 5.84082L6.01794 5.77148L6.01892 5.77344L5.96912 5.72363C5.92664 5.68445 5.85955 5.62829 5.77087 5.57227C5.59357 5.46034 5.33453 5.3497 5.00037 5.34961C4.66616 5.34967 4.40718 5.46033 4.22986 5.57227C4.14095 5.62843 4.0741 5.68442 4.03162 5.72363C4.01053 5.7431 3.99571 5.75806 3.98767 5.7666L3.98376 5.77051C3.80688 5.98206 3.49159 6.01059 3.27966 5.83398C3.06778 5.65718 3.03954 5.34194 3.21619 5.12988L3.52966 5.39062L3.21619 5.12891L3.21814 5.12598C3.21912 5.12482 3.22081 5.12351 3.22205 5.12207C3.22445 5.11927 3.2275 5.11608 3.23083 5.1123C3.23801 5.10418 3.24775 5.09319 3.25916 5.08105C3.28195 5.05683 3.31322 5.02492 3.35291 4.98828C3.43226 4.91503 3.54721 4.82034 3.69568 4.72656C3.99325 4.53868 4.43521 4.34967 5.00037 4.34961ZM5.00037 2.25C5.97167 2.25006 6.7404 2.59355 7.26013 2.93066C7.5201 3.09933 7.72104 3.26869 7.85876 3.39746C7.92758 3.46181 7.9813 3.5164 8.01892 3.55664C8.03773 3.57677 8.05299 3.59413 8.06384 3.60645C8.06915 3.61247 8.07415 3.61717 8.07751 3.62109C8.07916 3.62304 8.08025 3.62556 8.08142 3.62695L8.08337 3.62793V3.62891L8.08435 3.62988L8.14099 3.71387C8.25093 3.91872 8.20546 4.17934 8.0199 4.33398C7.8078 4.51046 7.49251 4.48149 7.3158 4.26953C7.31517 4.26882 7.3138 4.26765 7.31287 4.2666C7.30821 4.26132 7.29987 4.25245 7.28845 4.24023C7.26482 4.21495 7.22725 4.17573 7.17615 4.12793C7.07331 4.03177 6.91755 3.90078 6.71521 3.76953C6.31001 3.50675 5.72866 3.25006 5.00037 3.25C4.27188 3.25002 3.68976 3.50669 3.28455 3.76953C3.08236 3.90071 2.92736 4.03182 2.82458 4.12793C2.77343 4.17578 2.73495 4.21493 2.7113 4.24023C2.69986 4.25249 2.69145 4.26142 2.68689 4.2666L2.68298 4.26953V4.27051C2.50605 4.48168 2.19165 4.51043 1.97986 4.33398C1.76795 4.15722 1.7398 3.84196 1.91638 3.62988V3.62891H1.91736L1.91931 3.62695C1.92048 3.62556 1.92159 3.62306 1.92322 3.62109C1.92659 3.61716 1.93158 3.61246 1.93689 3.60645C1.94772 3.59414 1.96206 3.57674 1.98083 3.55664C2.01846 3.51638 2.07301 3.46194 2.14197 3.39746C2.27972 3.26867 2.48065 3.0993 2.7406 2.93066C3.26035 2.59353 4.02898 2.25002 5.00037 2.25Z" fill="white"/>
</g>
<defs>
<filter id="filter0_i_1145_2663" x="0" y="0" width="10" height="10" filterUnits="userSpaceOnUse" color-interpolation-filters="sRGB">
<feFlood flood-opacity="0" result="BackgroundImageFix"/>
<feBlend mode="normal" in="SourceGraphic" in2="BackgroundImageFix" result="shape"/>
<feColorMatrix in="SourceAlpha" type="matrix" values="0 0 0 0 0 0 0 0 0 0 0 0 0 0 0 0 0 0 127 0" result="hardAlpha"/>
<feOffset/>
<feGaussianBlur stdDeviation="1"/>
<feComposite in2="hardAlpha" operator="arithmetic" k2="-1" k3="1"/>
<feColorMatrix type="matrix" values="0 0 0 0 0.942 0 0 0 0 0.94 0 0 0 0 1 0 0 0 0.1 0"/>
<feBlend mode="hard-light" in2="shape" result="effect1_innerShadow_1145_2663"/>
</filter>
</defs>
</svg>
