<svg width="10" height="10" viewBox="0 0 10 10" fill="none" xmlns="http://www.w3.org/2000/svg">
<g filter="url(#filter0_i_1093_4)">
<path d="M7.07172 2.07465L7.19379 2.1059C7.33034 2.14979 7.50382 2.23654 7.64398 2.41156C7.87098 2.69537 8.05554 3.18324 7.87445 3.86566C7.70551 4.50204 7.22832 5.27734 6.25336 6.25238C5.27809 7.22765 4.50214 7.7055 3.86566 7.87445C3.18341 8.05545 2.69635 7.87092 2.41254 7.64398C2.17874 7.45698 2.10235 7.21021 2.07465 7.07172L2.05414 6.91644C2.03512 6.60585 2.14403 6.30048 2.35394 6.07074L2.46625 5.96234L3.01801 5.50238C3.02753 5.49444 3.06497 5.46305 3.10297 5.43597C3.13748 5.41139 3.19242 5.37556 3.26605 5.34515L3.34613 5.31683L3.43207 5.2973C3.48994 5.2872 3.54916 5.28289 3.60785 5.28558L3.69476 5.29437L3.77777 5.31195C3.85462 5.33271 3.91326 5.36229 3.95062 5.38226C3.9912 5.40398 4.03134 5.42988 4.04242 5.43695L4.17461 5.52107C4.39051 5.65846 4.49846 5.72716 4.62153 5.7234C4.63838 5.72288 4.6577 5.72101 4.67433 5.71827C4.79583 5.69825 4.8833 5.61503 5.05825 5.44859C5.1224 5.38756 5.18841 5.32318 5.25629 5.25531C5.32373 5.18786 5.38767 5.12227 5.4483 5.05854C5.61447 4.88383 5.69756 4.79648 5.71763 4.67519C5.72038 4.65859 5.72227 4.6393 5.7228 4.62248C5.72667 4.4996 5.65828 4.39169 5.52151 4.17585L5.43695 4.04242C5.4299 4.03136 5.40397 3.99119 5.38226 3.95062C5.35563 3.90081 5.31279 3.81254 5.29437 3.69476L5.28656 3.60687C5.28257 3.51897 5.29219 3.43003 5.31683 3.34515L5.34515 3.26605C5.37552 3.19247 5.41137 3.13753 5.43597 3.10297C5.46301 3.06503 5.49439 3.02759 5.50238 3.01801L5.96332 2.46625C6.19953 2.18305 6.55446 2.03202 6.91644 2.05414L7.07172 2.07465Z" fill="white"/>
</g>
<defs>
<filter id="filter0_i_1093_4" x="0" y="0" width="10" height="10" filterUnits="userSpaceOnUse" color-interpolation-filters="sRGB">
<feFlood flood-opacity="0" result="BackgroundImageFix"/>
<feBlend mode="normal" in="SourceGraphic" in2="BackgroundImageFix" result="shape"/>
<feColorMatrix in="SourceAlpha" type="matrix" values="0 0 0 0 0 0 0 0 0 0 0 0 0 0 0 0 0 0 127 0" result="hardAlpha"/>
<feOffset/>
<feGaussianBlur stdDeviation="1"/>
<feComposite in2="hardAlpha" operator="arithmetic" k2="-1" k3="1"/>
<feColorMatrix type="matrix" values="0 0 0 0 0.942 0 0 0 0 0.94 0 0 0 0 1 0 0 0 0.1 0"/>
<feBlend mode="hard-light" in2="shape" result="effect1_innerShadow_1093_4"/>
</filter>
</defs>
</svg>
