<svg width="10" height="10" viewBox="0 0 10 10" fill="none" xmlns="http://www.w3.org/2000/svg">
<g filter="url(#filter0_i_1242_557)">
<path d="M5.21548 2.87491C5.51365 2.75834 5.88392 3.01606 6.62466 3.53116L7.17447 3.91299C7.75118 4.31403 8.04008 4.51477 8.06705 4.79092C8.07076 4.8293 8.07076 4.86876 8.06705 4.90714C8.04018 5.18336 7.75124 5.38399 7.17447 5.78506L6.62466 6.1669C5.88391 6.68201 5.51365 6.93972 5.21548 6.82315C5.17493 6.80729 5.13642 6.78684 5.10025 6.7626C5.00676 6.69994 4.94619 6.60361 4.90693 6.46581C4.82828 6.1898 4.78896 6.05179 4.72071 5.9931C4.70905 5.98308 4.70254 5.97817 4.68969 5.96974C4.61443 5.92036 4.5064 5.92061 4.29033 5.92111L4.00064 5.92178C3.66677 5.92257 3.35113 6.08067 3.15494 6.34464L2.9606 6.60635C2.93446 6.64156 2.91102 6.67781 2.89029 6.71475C2.77942 6.91228 2.72335 7.01161 2.71255 7.02628C2.59173 7.1865 2.44192 7.19396 2.31119 7.04678C2.30002 7.03407 2.27833 7.0021 2.23599 6.93839C1.81942 6.31154 1.81442 5.46656 2.30826 4.80069L2.44009 4.62296C2.83057 4.09671 3.4594 3.7806 4.12466 3.77628L4.2969 3.7751C4.51093 3.77365 4.61794 3.77292 4.69238 3.72355C4.70511 3.7151 4.71154 3.71022 4.72308 3.70021C4.79058 3.64169 4.82961 3.50479 4.90768 3.23097C4.94677 3.09386 5.00707 2.99791 5.10025 2.93546C5.13642 2.91123 5.17494 2.89076 5.21548 2.87491Z" fill="white"/>
</g>
<defs>
<filter id="filter0_i_1242_557" x="0" y="0" width="10" height="10" filterUnits="userSpaceOnUse" color-interpolation-filters="sRGB">
<feFlood flood-opacity="0" result="BackgroundImageFix"/>
<feBlend mode="normal" in="SourceGraphic" in2="BackgroundImageFix" result="shape"/>
<feColorMatrix in="SourceAlpha" type="matrix" values="0 0 0 0 0 0 0 0 0 0 0 0 0 0 0 0 0 0 127 0" result="hardAlpha"/>
<feOffset/>
<feGaussianBlur stdDeviation="1"/>
<feComposite in2="hardAlpha" operator="arithmetic" k2="-1" k3="1"/>
<feColorMatrix type="matrix" values="0 0 0 0 0.942 0 0 0 0 0.94 0 0 0 0 1 0 0 0 0.1 0"/>
<feBlend mode="hard-light" in2="shape" result="effect1_innerShadow_1242_557"/>
</filter>
</defs>
</svg>
