<svg width="10" height="10" viewBox="0 0 10 10" fill="none" xmlns="http://www.w3.org/2000/svg">
<g filter="url(#filter0_i_1213_322)">
<path d="M5.64453 1.5498C5.88327 1.5498 6.00286 1.55022 6.09277 1.59961C6.15931 1.6362 6.21442 1.69126 6.25098 1.75781C6.30021 1.84773 6.2998 1.96736 6.2998 2.20605V3.29492C6.2998 3.44313 6.4045 3.57147 6.5498 3.60059C6.69517 3.62966 6.7998 3.75703 6.7998 3.90527V6.65039C6.7997 7.64441 5.99404 8.45019 5 8.4502C4.00596 8.4502 3.2003 7.64441 3.2002 6.65039V3.90527C3.2002 3.75703 3.30483 3.62966 3.4502 3.60059C3.5955 3.57147 3.7002 3.44313 3.7002 3.29492V2.20605C3.7002 1.96736 3.69979 1.84773 3.74902 1.75781C3.78559 1.69126 3.84069 1.6362 3.90723 1.59961C3.99714 1.55022 4.11673 1.5498 4.35547 1.5498H5.64453ZM5 4.35059C4.72386 4.35059 4.5 4.57444 4.5 4.85059V6.4502C4.50021 6.72616 4.72399 6.9502 5 6.9502C5.27601 6.9502 5.49979 6.72616 5.5 6.4502V4.85059C5.5 4.57444 5.27614 4.35059 5 4.35059ZM4.40039 2.09961C4.17948 2.09961 4 2.27909 4 2.5C4.00003 2.72089 4.17949 2.90039 4.40039 2.90039C4.62111 2.90018 4.79978 2.72076 4.7998 2.5C4.7998 2.27922 4.62113 2.09982 4.40039 2.09961ZM5.60059 2.09961C5.37967 2.09961 5.2002 2.27909 5.2002 2.5C5.20027 2.72085 5.37972 2.89941 5.60059 2.89941C5.82125 2.89918 5.99992 2.7207 6 2.5C6 2.27923 5.8213 2.09984 5.60059 2.09961Z" fill="white"/>
</g>
<defs>
<filter id="filter0_i_1213_322" x="0" y="0" width="10" height="10" filterUnits="userSpaceOnUse" color-interpolation-filters="sRGB">
<feFlood flood-opacity="0" result="BackgroundImageFix"/>
<feBlend mode="normal" in="SourceGraphic" in2="BackgroundImageFix" result="shape"/>
<feColorMatrix in="SourceAlpha" type="matrix" values="0 0 0 0 0 0 0 0 0 0 0 0 0 0 0 0 0 0 127 0" result="hardAlpha"/>
<feOffset/>
<feGaussianBlur stdDeviation="1"/>
<feComposite in2="hardAlpha" operator="arithmetic" k2="-1" k3="1"/>
<feColorMatrix type="matrix" values="0 0 0 0 0.942 0 0 0 0 0.94 0 0 0 0 1 0 0 0 0.1 0"/>
<feBlend mode="hard-light" in2="shape" result="effect1_innerShadow_1213_322"/>
</filter>
</defs>
</svg>
