<svg width="10" height="10" viewBox="0 0 10 10" fill="none" xmlns="http://www.w3.org/2000/svg">
<g filter="url(#filter0_i_1093_312)">
<path d="M5 2.1499C5.2363 2.1499 5.3546 2.14998 5.45508 2.18701C5.56576 2.22783 5.66177 2.30081 5.73145 2.396C5.79468 2.48244 5.82765 2.59647 5.89258 2.82373C5.89737 2.8399 5.91098 2.85202 5.92758 2.85504C6.33011 2.92828 6.53464 2.96757 6.68359 3.08057C6.78003 3.15373 6.85829 3.24803 6.91309 3.35596C6.99952 3.52648 7 3.74075 7 4.16846V6.33057C7 7.007 7.0001 7.34543 6.80859 7.56982C6.7814 7.60167 6.75156 7.63149 6.71973 7.65869C6.49536 7.85032 6.15692 7.8501 5.48047 7.8501H4.51953C3.84309 7.8501 3.50464 7.85032 3.28027 7.65869C3.24844 7.63149 3.2186 7.60167 3.19141 7.56982C2.9999 7.34543 3 7.00699 3 6.33057V4.16846C3 3.74075 3.00048 3.52648 3.08691 3.35596C3.14171 3.24803 3.21997 3.15373 3.31641 3.08057C3.46536 2.96757 3.6699 2.92828 4.07242 2.85504C4.08902 2.85202 4.10263 2.8399 4.10742 2.82373C4.17235 2.59647 4.20532 2.48244 4.26855 2.396C4.33823 2.30081 4.43424 2.22783 4.54492 2.18701C4.6454 2.14998 4.7637 2.1499 5 2.1499ZM4.2998 4.70068C3.99614 4.70079 3.75 4.9468 3.75 5.25049C3.75009 5.5541 3.99619 5.80018 4.2998 5.80029H5.7002C6.00372 5.80008 6.24991 5.55404 6.25 5.25049C6.25 4.94686 6.00377 4.70089 5.7002 4.70068H4.2998Z" fill="white"/>
</g>
<defs>
<filter id="filter0_i_1093_312" x="0" y="0" width="10" height="10" filterUnits="userSpaceOnUse" color-interpolation-filters="sRGB">
<feFlood flood-opacity="0" result="BackgroundImageFix"/>
<feBlend mode="normal" in="SourceGraphic" in2="BackgroundImageFix" result="shape"/>
<feColorMatrix in="SourceAlpha" type="matrix" values="0 0 0 0 0 0 0 0 0 0 0 0 0 0 0 0 0 0 127 0" result="hardAlpha"/>
<feOffset/>
<feGaussianBlur stdDeviation="1"/>
<feComposite in2="hardAlpha" operator="arithmetic" k2="-1" k3="1"/>
<feColorMatrix type="matrix" values="0 0 0 0 0.942 0 0 0 0 0.94 0 0 0 0 1 0 0 0 0.1 0"/>
<feBlend mode="hard-light" in2="shape" result="effect1_innerShadow_1093_312"/>
</filter>
</defs>
</svg>
