<svg width="10" height="10" viewBox="0 0 10 10" fill="none" xmlns="http://www.w3.org/2000/svg">
<g filter="url(#filter0_i_1545_736)">
<path d="M5.80042 6.90073C5.91044 6.90073 5.99963 6.98992 5.99963 7.09995C5.99944 7.65206 5.55179 8.09995 4.99963 8.09995C4.44764 8.09975 3.99983 7.65194 3.99963 7.09995C3.99963 6.99004 4.08899 6.90092 4.19885 6.90073H5.80042ZM4.99963 1.50034C6.1042 1.50034 6.99963 2.39577 6.99963 3.50034C6.99946 4.36389 6.38838 4.61094 6.16956 5.39487C6.05254 5.81408 5.99385 6.02407 5.90295 6.10287C5.88655 6.1171 5.87913 6.12211 5.86096 6.13412C5.76064 6.20015 5.60279 6.20053 5.28772 6.20053H4.71252C4.40462 6.20053 4.25087 6.19976 4.15198 6.13608C4.13374 6.12433 4.12745 6.12064 4.11096 6.10678C4.02094 6.03108 3.95546 5.819 3.82483 5.39584C3.60108 4.67107 2.99978 4.49965 2.99963 3.50034C2.99963 2.39589 3.89523 1.50053 4.99963 1.50034ZM4.85022 2.11166C4.62945 2.11169 4.45002 2.29132 4.44983 2.51205C4.44998 2.73259 4.62877 2.91204 4.84924 2.91245C5.00199 2.91245 5.18934 2.99278 5.34534 3.14877C5.50113 3.30471 5.58069 3.49124 5.58069 3.64389C5.58089 3.86453 5.76043 4.04412 5.98108 4.04428C6.20187 4.04428 6.38126 3.86463 6.38147 3.64389C6.38147 3.23103 6.17897 2.85063 5.91077 2.58237C5.64257 2.31432 5.26288 2.11175 4.85022 2.11166Z" fill="white"/>
</g>
<defs>
<filter id="filter0_i_1545_736" x="0" y="0" width="10" height="10" filterUnits="userSpaceOnUse" color-interpolation-filters="sRGB">
<feFlood flood-opacity="0" result="BackgroundImageFix"/>
<feBlend mode="normal" in="SourceGraphic" in2="BackgroundImageFix" result="shape"/>
<feColorMatrix in="SourceAlpha" type="matrix" values="0 0 0 0 0 0 0 0 0 0 0 0 0 0 0 0 0 0 127 0" result="hardAlpha"/>
<feOffset/>
<feGaussianBlur stdDeviation="1"/>
<feComposite in2="hardAlpha" operator="arithmetic" k2="-1" k3="1"/>
<feColorMatrix type="matrix" values="0 0 0 0 0.942 0 0 0 0 0.94 0 0 0 0 1 0 0 0 0.1 0"/>
<feBlend mode="hard-light" in2="shape" result="effect1_innerShadow_1545_736"/>
</filter>
</defs>
</svg>
