<svg width="10" height="10" viewBox="0 0 10 10" fill="none" xmlns="http://www.w3.org/2000/svg">
<g filter="url(#filter0_i_1079_288)">
<path d="M7.19971 4.8252C7.44824 4.82507 7.64978 5.02686 7.6499 5.27539C7.64985 5.44331 7.59442 5.64972 7.50732 5.8457C7.41527 6.05264 7.27188 6.28552 7.06592 6.50488C6.8107 6.7765 6.46467 7.01942 6.01481 7.16886C5.76957 7.25033 5.64695 7.29107 5.58568 7.34526C5.5343 7.3907 5.50972 7.42476 5.4828 7.48785C5.45068 7.56308 5.45068 7.66706 5.45068 7.875C5.45047 8.12328 5.24879 8.32509 5.00049 8.3252C4.7523 8.32495 4.55051 8.12319 4.55029 7.875C4.55029 7.66705 4.55029 7.56308 4.51817 7.48784C4.49124 7.42475 4.46665 7.39068 4.41527 7.34524C4.35398 7.29105 4.23137 7.25034 3.98615 7.16891C3.53621 7.01952 3.19028 6.77666 2.93506 6.50488C2.72896 6.28538 2.58572 6.05271 2.49365 5.8457C2.40649 5.64961 2.35027 5.44309 2.3501 5.27539C2.35009 5.02712 2.55205 4.82557 2.80029 4.8252C3.02773 4.82519 3.21595 4.99429 3.24623 5.21351C3.25582 5.28293 3.26062 5.31765 3.26287 5.32904C3.26329 5.33117 3.26346 5.33196 3.26391 5.33409C3.2663 5.34545 3.26199 5.32963 3.26372 5.33596C3.27317 5.37064 3.28913 5.41919 3.31592 5.47949C3.37073 5.60277 3.4602 5.75003 3.59131 5.88965C3.84489 6.15948 4.27709 6.42567 5.00049 6.42578C5.72376 6.42573 6.15597 6.15941 6.40967 5.88965C6.54068 5.75016 6.62928 5.60266 6.68408 5.47949C6.70891 5.42361 6.72461 5.37786 6.73448 5.3439C6.7375 5.33351 6.72995 5.3595 6.73251 5.34833C6.73306 5.34593 6.73309 5.34577 6.73361 5.34336C6.73603 5.33217 6.74267 5.28985 6.75593 5.20521C6.78962 4.99034 6.97549 4.82571 7.19971 4.8252ZM5.00146 1.6748C5.66421 1.6748 6.20166 2.21226 6.20166 2.875V4.27539C6.20144 4.93795 5.66407 5.47461 5.00146 5.47461C4.33892 5.47454 3.80149 4.9379 3.80127 4.27539V2.875C3.80127 2.2123 4.33878 1.67488 5.00146 1.6748Z" fill="white"/>
</g>
<defs>
<filter id="filter0_i_1079_288" x="0" y="0" width="10" height="10" filterUnits="userSpaceOnUse" color-interpolation-filters="sRGB">
<feFlood flood-opacity="0" result="BackgroundImageFix"/>
<feBlend mode="normal" in="SourceGraphic" in2="BackgroundImageFix" result="shape"/>
<feColorMatrix in="SourceAlpha" type="matrix" values="0 0 0 0 0 0 0 0 0 0 0 0 0 0 0 0 0 0 127 0" result="hardAlpha"/>
<feOffset/>
<feGaussianBlur stdDeviation="1"/>
<feComposite in2="hardAlpha" operator="arithmetic" k2="-1" k3="1"/>
<feColorMatrix type="matrix" values="0 0 0 0 0.942 0 0 0 0 0.94 0 0 0 0 1 0 0 0 0.1 0"/>
<feBlend mode="hard-light" in2="shape" result="effect1_innerShadow_1079_288"/>
</filter>
</defs>
</svg>
