<svg width="10" height="10" viewBox="0 0 10 10" fill="none" xmlns="http://www.w3.org/2000/svg">
<g filter="url(#filter0_i_1134_3235)">
<path d="M5.42661 2.64975C5.68675 2.66039 5.99756 2.90613 6.61899 3.3978L7.13754 3.80795C7.79295 4.3265 8.12126 4.58589 8.15219 4.92807C8.15649 4.9758 8.15648 5.0239 8.15219 5.07162C8.12126 5.41381 7.79294 5.6732 7.13754 6.19174L6.61899 6.6019C5.99748 7.09363 5.68677 7.3403 5.42661 7.35092C5.15982 7.36155 4.90509 7.23763 4.74789 7.02182C4.64819 6.88483 4.613 6.66929 4.60071 6.31702C4.59715 6.21514 4.48209 6.1593 4.40024 6.22006L3.94418 6.55893C3.2365 7.08425 2.88245 7.34723 2.58578 7.32553C2.37431 7.30993 2.17749 7.21064 2.03891 7.05014C1.84447 6.82491 1.84457 6.38406 1.84457 5.50229V4.49741C1.84457 3.61565 1.84447 3.17478 2.03891 2.94955C2.17749 2.78906 2.37432 2.68976 2.58578 2.67416C2.88244 2.65247 3.23651 2.91545 3.94418 3.44077L4.40024 3.77963C4.4819 3.84025 4.59716 3.78393 4.60071 3.68229C4.61301 3.33023 4.64818 3.11479 4.74789 2.97787C4.90509 2.76206 5.15982 2.63912 5.42661 2.64975Z" fill="white"/>
</g>
<defs>
<filter id="filter0_i_1134_3235" x="0" y="0" width="10" height="10" filterUnits="userSpaceOnUse" color-interpolation-filters="sRGB">
<feFlood flood-opacity="0" result="BackgroundImageFix"/>
<feBlend mode="normal" in="SourceGraphic" in2="BackgroundImageFix" result="shape"/>
<feColorMatrix in="SourceAlpha" type="matrix" values="0 0 0 0 0 0 0 0 0 0 0 0 0 0 0 0 0 0 127 0" result="hardAlpha"/>
<feOffset/>
<feGaussianBlur stdDeviation="1"/>
<feComposite in2="hardAlpha" operator="arithmetic" k2="-1" k3="1"/>
<feColorMatrix type="matrix" values="0 0 0 0 0.942 0 0 0 0 0.94 0 0 0 0 1 0 0 0 0.1 0"/>
<feBlend mode="hard-light" in2="shape" result="effect1_innerShadow_1134_3235"/>
</filter>
</defs>
</svg>
