<svg width="10" height="10" viewBox="0 0 10 10" fill="none" xmlns="http://www.w3.org/2000/svg">
<g filter="url(#filter0_i_1093_40)">
<path d="M8 5.48047C8 6.15688 8.00019 6.49536 7.80859 6.71973C7.78138 6.75159 7.7516 6.78138 7.71973 6.80859C7.49536 7.00019 7.15688 7 6.48047 7H3.51953C2.84312 7 2.50464 7.00019 2.28027 6.80859C2.24841 6.78138 2.21862 6.75159 2.19141 6.71973C1.99981 6.49536 2 6.15688 2 5.48047V5.3302C2 5.16101 2 5.07641 2.04792 5.02031C2.05472 5.01234 2.06214 5.00492 2.07011 4.99811C2.12622 4.9502 2.21081 4.9502 2.38 4.9502H7.62C7.78919 4.9502 7.87378 4.9502 7.92989 4.99811C7.93786 5.00492 7.94528 5.01234 7.95208 5.02031C8 5.07641 8 5.16101 8 5.3302V5.48047ZM3 5.4502C2.75147 5.4502 2.5498 5.65186 2.5498 5.90039C2.55003 6.14873 2.75161 6.35059 3 6.35059H3.40039C3.64851 6.35027 3.84939 6.14854 3.84961 5.90039C3.84961 5.65206 3.64865 5.45051 3.40039 5.4502H3ZM4.7002 5.4502C4.45167 5.4502 4.25 5.65186 4.25 5.90039C4.25022 6.14873 4.4518 6.35059 4.7002 6.35059H5.90039C6.14857 6.35034 6.35036 6.14858 6.35059 5.90039C6.35059 5.65202 6.14871 5.45045 5.90039 5.4502H4.7002ZM6.48047 3C7.15688 3 7.49536 2.99981 7.71973 3.19141C7.7516 3.21862 7.78138 3.24841 7.80859 3.28027C7.89278 3.37886 7.93977 3.49951 7.96607 3.66116C7.99184 3.81957 8.00472 3.89877 7.95712 3.96571C7.95095 3.97439 7.94228 3.98458 7.9347 3.99207C7.87627 4.0498 7.78619 4.0498 7.60604 4.0498H2.39396C2.21381 4.0498 2.12373 4.0498 2.0653 3.99207C2.05772 3.98458 2.04905 3.97439 2.04288 3.96571C1.99528 3.89877 2.00816 3.81957 2.03393 3.66116C2.06023 3.49951 2.10722 3.37886 2.19141 3.28027C2.21862 3.24841 2.24841 3.21862 2.28027 3.19141C2.50464 2.99981 2.84312 3 3.51953 3H6.48047Z" fill="white"/>
</g>
<defs>
<filter id="filter0_i_1093_40" x="0" y="0" width="10" height="10" filterUnits="userSpaceOnUse" color-interpolation-filters="sRGB">
<feFlood flood-opacity="0" result="BackgroundImageFix"/>
<feBlend mode="normal" in="SourceGraphic" in2="BackgroundImageFix" result="shape"/>
<feColorMatrix in="SourceAlpha" type="matrix" values="0 0 0 0 0 0 0 0 0 0 0 0 0 0 0 0 0 0 127 0" result="hardAlpha"/>
<feOffset/>
<feGaussianBlur stdDeviation="1"/>
<feComposite in2="hardAlpha" operator="arithmetic" k2="-1" k3="1"/>
<feColorMatrix type="matrix" values="0 0 0 0 0.942 0 0 0 0 0.94 0 0 0 0 1 0 0 0 0.1 0"/>
<feBlend mode="hard-light" in2="shape" result="effect1_innerShadow_1093_40"/>
</filter>
</defs>
</svg>
