<svg width="10" height="10" viewBox="0 0 10 10" fill="none" xmlns="http://www.w3.org/2000/svg">
<g filter="url(#filter0_i_1079_181)">
<path fill-rule="evenodd" clip-rule="evenodd" d="M4.34207 2.60761C4.41939 2.61963 4.49388 2.64619 4.56082 2.68671C4.84999 2.86188 4.84988 3.43648 4.84988 4.58515V5.41522C4.84988 6.56349 4.8501 7.13843 4.56082 7.31366C4.49402 7.35407 4.41921 7.38072 4.34207 7.39276C4.05401 7.43743 3.73962 7.11714 3.18526 6.46485C3.05059 6.30638 2.98326 6.22715 2.89553 6.18186C2.88261 6.17519 2.86967 6.16921 2.85623 6.16368C2.76491 6.12616 2.6623 6.12616 2.45707 6.12616H2.39949C1.97652 6.12616 1.76503 6.12616 1.62477 6.00636C1.60485 5.98935 1.5863 5.9708 1.56929 5.95089C1.44949 5.81062 1.44949 5.59913 1.44949 5.17616V4.82616C1.44949 4.40319 1.44949 4.1917 1.56929 4.05144C1.5863 4.03152 1.60485 4.01297 1.62477 3.99596C1.76503 3.87616 1.97652 3.87616 2.39949 3.87616H2.45656C2.66201 3.87616 2.76474 3.87616 2.85613 3.83857C2.86958 3.83304 2.88254 3.82704 2.89546 3.82036C2.98325 3.775 3.0506 3.69562 3.18531 3.53685C3.73951 2.88367 4.05401 2.56301 4.34207 2.60761ZM7.76492 3.65839C7.94457 3.47914 8.23571 3.47906 8.41531 3.65839C8.59502 3.83809 8.59502 4.13005 8.41531 4.30976C8.17091 4.55377 8.04872 4.67577 8.01812 4.82165C8.00394 4.88921 8.00392 4.95898 8.01803 5.02655C8.04852 5.17245 8.17078 5.29472 8.41531 5.53925C8.59481 5.71897 8.59495 6.01001 8.41531 6.18964C8.23567 6.36918 7.94461 6.36911 7.76492 6.18964C7.52039 5.94511 7.39813 5.82284 7.25223 5.79236C7.18465 5.77824 7.11489 5.77827 7.04733 5.79244C6.90145 5.82304 6.77944 5.94524 6.53543 6.18964C6.35581 6.36922 6.06475 6.36909 5.88504 6.18964C5.70535 6.00995 5.70538 5.71895 5.88504 5.53925C6.12949 5.29441 6.25171 5.17199 6.28204 5.02592C6.29598 4.95875 6.29595 4.88944 6.28195 4.82228C6.25152 4.67623 6.12936 4.55407 5.88504 4.30976C5.70534 4.13005 5.70534 3.83809 5.88504 3.65839C6.06471 3.47916 6.35585 3.47902 6.53543 3.65839C6.77975 3.90271 6.90191 4.02486 7.04796 4.0553C7.11511 4.0693 7.18443 4.06933 7.25159 4.05538C7.39767 4.02506 7.52009 3.90284 7.76492 3.65839Z" fill="white"/>
</g>
<defs>
<filter id="filter0_i_1079_181" x="0" y="0" width="10" height="10" filterUnits="userSpaceOnUse" color-interpolation-filters="sRGB">
<feFlood flood-opacity="0" result="BackgroundImageFix"/>
<feBlend mode="normal" in="SourceGraphic" in2="BackgroundImageFix" result="shape"/>
<feColorMatrix in="SourceAlpha" type="matrix" values="0 0 0 0 0 0 0 0 0 0 0 0 0 0 0 0 0 0 127 0" result="hardAlpha"/>
<feOffset/>
<feGaussianBlur stdDeviation="1"/>
<feComposite in2="hardAlpha" operator="arithmetic" k2="-1" k3="1"/>
<feColorMatrix type="matrix" values="0 0 0 0 0.942 0 0 0 0 0.94 0 0 0 0 1 0 0 0 0.1 0"/>
<feBlend mode="hard-light" in2="shape" result="effect1_innerShadow_1079_181"/>
</filter>
</defs>
</svg>
