<svg width="10" height="10" viewBox="0 0 10 10" fill="none" xmlns="http://www.w3.org/2000/svg">
<g filter="url(#filter0_i_1079_287)">
<path d="M4.9502 1.6499C5.30463 1.64995 5.65594 1.71934 5.9834 1.85498C6.31089 1.99067 6.60871 2.19025 6.85938 2.44092C7.10991 2.69155 7.30872 2.98949 7.44434 3.31689C7.51375 3.4848 7.56471 3.81595 7.5985 4.14672C7.61737 4.33142 7.76194 4.47413 7.92471 4.56343C8.08848 4.65328 8.21909 4.79451 8.28418 4.97998C8.37165 5.22925 8.4502 5.53994 8.4502 5.8501C8.45013 6.15807 8.3719 6.42737 8.28516 6.63232C8.22392 6.77689 8.11572 6.88274 7.98351 6.95144C7.83904 7.02652 7.71013 7.14064 7.6511 7.29238C7.57757 7.48138 7.46829 7.65125 7.30469 7.7915C7.09386 7.97204 6.83346 8.07002 6.55078 8.12549C6.33635 8.16753 6.09131 8.18772 5.81647 8.19512C5.72844 8.1975 5.64492 8.23072 5.56687 8.27152C5.47192 8.32117 5.36462 8.35007 5.25 8.3501C4.86346 8.3501 4.5499 8.03642 4.5498 7.6499C4.5498 7.2633 4.8634 6.94971 5.25 6.94971C5.42066 6.94975 5.57577 7.01163 5.69637 7.11366C5.80781 7.20793 5.93945 7.29195 6.08496 7.28035C6.19646 7.27146 6.29304 7.25911 6.37695 7.24268C6.57205 7.20442 6.66822 7.15206 6.71973 7.10791C6.80044 7.03859 6.74509 6.91827 6.65928 6.85537C6.41122 6.67356 6.25 6.38049 6.25 6.04932V5.44971C6.25 5.18581 6.352 4.94564 6.5189 4.76686C6.61508 4.66384 6.68717 4.5334 6.67663 4.39286C6.6549 4.10339 6.62015 3.79635 6.57129 3.67822C6.48309 3.4653 6.3534 3.27185 6.19043 3.10889C6.02748 2.94597 5.83398 2.81621 5.62109 2.72803C5.40839 2.63998 5.1804 2.59429 4.9502 2.59424C4.7198 2.59424 4.49119 2.63989 4.27832 2.72803C4.0654 2.81622 3.87195 2.94592 3.70898 3.10889C3.54602 3.27185 3.41632 3.4653 3.32812 3.67822C3.27929 3.79638 3.24393 4.10325 3.22195 4.39261C3.21126 4.53328 3.2835 4.66383 3.3799 4.76683C3.54712 4.94551 3.64941 5.18557 3.64941 5.44971V6.04932C3.64941 6.6016 3.2017 7.04932 2.64941 7.04932H2.53027C2.17142 7.04932 1.83466 6.85765 1.71582 6.51904C1.6284 6.26986 1.54984 5.95991 1.5498 5.6499C1.5498 5.34177 1.62709 5.07174 1.71387 4.8667C1.76903 4.73655 1.86241 4.63751 1.97708 4.56876C2.13575 4.47363 2.281 4.33316 2.2999 4.14912C2.33394 3.81758 2.3855 3.48524 2.45508 3.31689C2.59077 2.98932 2.7903 2.69164 3.04102 2.44092C3.29173 2.1902 3.58942 1.99067 3.91699 1.85498C4.24444 1.71942 4.59579 1.6499 4.9502 1.6499Z" fill="white"/>
</g>
<defs>
<filter id="filter0_i_1079_287" x="0" y="0" width="10" height="10" filterUnits="userSpaceOnUse" color-interpolation-filters="sRGB">
<feFlood flood-opacity="0" result="BackgroundImageFix"/>
<feBlend mode="normal" in="SourceGraphic" in2="BackgroundImageFix" result="shape"/>
<feColorMatrix in="SourceAlpha" type="matrix" values="0 0 0 0 0 0 0 0 0 0 0 0 0 0 0 0 0 0 127 0" result="hardAlpha"/>
<feOffset/>
<feGaussianBlur stdDeviation="1"/>
<feComposite in2="hardAlpha" operator="arithmetic" k2="-1" k3="1"/>
<feColorMatrix type="matrix" values="0 0 0 0 0.942 0 0 0 0 0.94 0 0 0 0 1 0 0 0 0.1 0"/>
<feBlend mode="hard-light" in2="shape" result="effect1_innerShadow_1079_287"/>
</filter>
</defs>
</svg>
