<svg width="10" height="10" viewBox="0 0 10 10" fill="none" xmlns="http://www.w3.org/2000/svg">
<g filter="url(#filter0_i_1191_5325)">
<path fill-rule="evenodd" clip-rule="evenodd" d="M4.24911 2.72656C4.44451 2.75507 4.67574 2.9841 5.13779 3.4414C5.31218 3.61404 5.39937 3.70036 5.47756 3.68477C5.4891 3.68247 5.49779 3.67973 5.50856 3.675C5.58156 3.64294 5.60584 3.50935 5.6544 3.24218C5.66684 3.17374 5.68437 3.12055 5.70908 3.0791C5.84706 2.84788 6.12216 2.73688 6.38193 2.80761C6.54147 2.85119 6.73606 3.05277 7.12411 3.45605L7.86337 4.22461C8.20317 4.57773 8.37325 4.75489 8.38974 4.96972C8.39206 5.00016 8.39208 5.03109 8.38974 5.06152C8.37307 5.27618 8.20296 5.45275 7.86337 5.80566L7.12411 6.57422C6.736 6.97756 6.54148 7.17908 6.38193 7.22265C6.12215 7.29341 5.84707 7.1824 5.70908 6.95117C5.68097 6.90396 5.66216 6.84156 5.64956 6.75876C5.60862 6.4896 5.58814 6.35502 5.51441 6.32131C5.5037 6.31641 5.49463 6.31342 5.48311 6.31098C5.40379 6.29419 5.31513 6.38232 5.13779 6.55859C4.67569 7.01595 4.44452 7.24496 4.24911 7.27344C4.03024 7.30524 3.81118 7.21403 3.67978 7.03613C3.56249 6.87725 3.56259 6.55166 3.56259 5.90137V4.09765C3.56259 3.44786 3.56263 3.12277 3.67978 2.96386C3.81117 2.78589 4.03019 2.69475 4.24911 2.72656ZM2.2081 2.78711C2.5394 2.78719 2.80771 3.0554 2.80771 3.38672V6.58691C2.80756 6.91811 2.53931 7.18644 2.2081 7.18652C1.87682 7.18652 1.60864 6.91816 1.60849 6.58691V3.38672C1.60849 3.05535 1.87673 2.78711 2.2081 2.78711Z" fill="white"/>
</g>
<defs>
<filter id="filter0_i_1191_5325" x="0" y="0" width="10" height="10" filterUnits="userSpaceOnUse" color-interpolation-filters="sRGB">
<feFlood flood-opacity="0" result="BackgroundImageFix"/>
<feBlend mode="normal" in="SourceGraphic" in2="BackgroundImageFix" result="shape"/>
<feColorMatrix in="SourceAlpha" type="matrix" values="0 0 0 0 0 0 0 0 0 0 0 0 0 0 0 0 0 0 127 0" result="hardAlpha"/>
<feOffset/>
<feGaussianBlur stdDeviation="1"/>
<feComposite in2="hardAlpha" operator="arithmetic" k2="-1" k3="1"/>
<feColorMatrix type="matrix" values="0 0 0 0 0.942 0 0 0 0 0.94 0 0 0 0 1 0 0 0 0.1 0"/>
<feBlend mode="hard-light" in2="shape" result="effect1_innerShadow_1191_5325"/>
</filter>
</defs>
</svg>
