<svg width="10" height="10" viewBox="0 0 10 10" fill="none" xmlns="http://www.w3.org/2000/svg">
<g filter="url(#filter0_i_1145_2671)">
<path d="M6.6499 2.2998C7.20212 2.2998 7.6498 2.74761 7.6499 3.2998C7.6499 3.85209 7.20219 4.2998 6.6499 4.2998C6.49078 4.29978 6.34069 4.26226 6.2074 4.19587C6.07999 4.13242 6.01629 4.1007 5.97465 4.09857C5.96693 4.09818 5.96412 4.09816 5.95639 4.09847C5.91474 4.10015 5.86865 4.12249 5.77647 4.16716L4.3851 4.84146C4.36266 4.85234 4.3501 4.87545 4.3501 4.90039C4.35008 4.95329 4.37522 5.00367 4.42167 5.02899L5.81914 5.79103C5.90894 5.84 5.95384 5.86448 5.99527 5.86819C6.00297 5.86888 6.00574 5.869 6.01347 5.86898C6.05506 5.8689 6.12035 5.84037 6.25092 5.7833C6.3731 5.7299 6.50799 5.70022 6.6499 5.7002C7.20219 5.7002 7.6499 6.14791 7.6499 6.7002C7.64981 7.2524 7.20213 7.7002 6.6499 7.7002C6.09776 7.7001 5.65 7.25234 5.6499 6.7002C5.6499 6.64615 5.62314 6.5946 5.5757 6.56871L4.18106 5.80778C4.09103 5.75866 4.04601 5.73409 4.00437 5.73044C3.99666 5.72977 3.99382 5.72965 3.98608 5.72968C3.94428 5.72985 3.87926 5.7586 3.7492 5.81608C3.62707 5.87006 3.49225 5.90039 3.3501 5.90039C2.79795 5.90039 2.35031 5.45249 2.3501 4.90039C2.3501 4.34811 2.79781 3.90039 3.3501 3.90039C3.50871 3.90039 3.65851 3.93738 3.79161 4.00315C3.91917 4.06619 3.98296 4.09771 4.02447 4.09975C4.03219 4.10013 4.03496 4.10014 4.04268 4.09982C4.08421 4.09808 4.13018 4.07577 4.22213 4.03116L5.6166 3.35452C5.63743 3.34442 5.6499 3.32296 5.6499 3.2998C5.65001 2.74767 6.09777 2.29991 6.6499 2.2998Z" fill="white"/>
</g>
<defs>
<filter id="filter0_i_1145_2671" x="0" y="0" width="10" height="10" filterUnits="userSpaceOnUse" color-interpolation-filters="sRGB">
<feFlood flood-opacity="0" result="BackgroundImageFix"/>
<feBlend mode="normal" in="SourceGraphic" in2="BackgroundImageFix" result="shape"/>
<feColorMatrix in="SourceAlpha" type="matrix" values="0 0 0 0 0 0 0 0 0 0 0 0 0 0 0 0 0 0 127 0" result="hardAlpha"/>
<feOffset/>
<feGaussianBlur stdDeviation="1"/>
<feComposite in2="hardAlpha" operator="arithmetic" k2="-1" k3="1"/>
<feColorMatrix type="matrix" values="0 0 0 0 0.942 0 0 0 0 0.94 0 0 0 0 1 0 0 0 0.1 0"/>
<feBlend mode="hard-light" in2="shape" result="effect1_innerShadow_1145_2671"/>
</filter>
</defs>
</svg>
