<svg width="10" height="10" viewBox="0 0 10 10" fill="none" xmlns="http://www.w3.org/2000/svg">
<g filter="url(#filter0_i_1079_291)">
<path d="M5.48047 2C6.15688 2 6.49536 1.99981 6.71973 2.19141C6.75159 2.21862 6.78138 2.24841 6.80859 2.28027C7.00019 2.50464 7 2.84312 7 3.51953V6.48047C7 7.15688 7.00019 7.49536 6.80859 7.71973C6.78138 7.7516 6.75159 7.78138 6.71973 7.80859C6.49536 8.00019 6.15688 8 5.48047 8H4.51953C3.84312 8 3.50464 8.00019 3.28027 7.80859C3.24841 7.78138 3.21862 7.7516 3.19141 7.71973C2.99981 7.49536 3 7.15688 3 6.48047V3.51953C3 2.84312 2.99981 2.50464 3.19141 2.28027C3.21862 2.24841 3.24841 2.21862 3.28027 2.19141C3.50464 1.99981 3.84312 2 4.51953 2H5.48047ZM5 6.09961C4.66864 6.09963 4.40039 6.36883 4.40039 6.7002C4.4005 7.03146 4.66871 7.29979 5 7.2998C5.3313 7.2998 5.5995 7.03148 5.59961 6.7002C5.59961 6.36882 5.33137 6.09961 5 6.09961ZM3.7002 4.9502C3.7002 5.25384 3.94635 5.5 4.25 5.5H5.75C6.05365 5.5 6.2998 5.25384 6.2998 4.9502C6.2998 4.64655 6.05365 4.40039 5.75 4.40039H4.25C3.94635 4.40039 3.7002 4.64655 3.7002 4.9502ZM3.7002 3.25C3.7002 3.55365 3.94635 3.7998 4.25 3.7998H5.75C6.05365 3.7998 6.2998 3.55365 6.2998 3.25C6.2998 2.94635 6.05365 2.7002 5.75 2.7002H4.25C3.94635 2.7002 3.7002 2.94635 3.7002 3.25Z" fill="white"/>
</g>
<defs>
<filter id="filter0_i_1079_291" x="0" y="0" width="10" height="10" filterUnits="userSpaceOnUse" color-interpolation-filters="sRGB">
<feFlood flood-opacity="0" result="BackgroundImageFix"/>
<feBlend mode="normal" in="SourceGraphic" in2="BackgroundImageFix" result="shape"/>
<feColorMatrix in="SourceAlpha" type="matrix" values="0 0 0 0 0 0 0 0 0 0 0 0 0 0 0 0 0 0 127 0" result="hardAlpha"/>
<feOffset/>
<feGaussianBlur stdDeviation="1"/>
<feComposite in2="hardAlpha" operator="arithmetic" k2="-1" k3="1"/>
<feColorMatrix type="matrix" values="0 0 0 0 0.942 0 0 0 0 0.94 0 0 0 0 1 0 0 0 0.1 0"/>
<feBlend mode="hard-light" in2="shape" result="effect1_innerShadow_1079_291"/>
</filter>
</defs>
</svg>
