<svg width="10" height="10" viewBox="0 0 10 10" fill="none" xmlns="http://www.w3.org/2000/svg">
<g filter="url(#filter0_i_1213_336)">
<path d="M5.48242 2.14789C5.97441 2.14789 6.22104 2.14767 6.43066 2.2514C6.46111 2.26647 6.49078 2.28312 6.51953 2.30121C6.71744 2.42573 6.84566 2.63582 7.10254 3.05511L7.37012 3.49066C7.50176 3.70554 7.56748 3.81342 7.60449 3.93207C7.60992 3.94948 7.61467 3.96712 7.61914 3.9848C7.64958 4.10531 7.6494 4.23181 7.64941 4.48383L7.65039 6.33246C7.65044 7.00964 7.6498 7.3482 7.45801 7.57269C7.43078 7.60454 7.40102 7.63436 7.36914 7.66156C7.14441 7.85326 6.80545 7.85278 6.12793 7.85199L3.86816 7.85004C3.19219 7.84925 2.85399 7.84833 2.62988 7.65668C2.59812 7.6295 2.56815 7.59961 2.54102 7.56781C2.34991 7.34347 2.34961 7.00522 2.34961 6.32953V3.66742C2.34961 2.99097 2.35036 2.65253 2.54199 2.42816C2.56915 2.39638 2.59907 2.36644 2.63086 2.33929C2.85528 2.14793 3.19372 2.14789 3.87012 2.14789H5.48242ZM6.2002 2.99945C5.97929 2.99945 5.79982 3.17894 5.7998 3.39984V4.19965C5.7998 4.42056 5.97928 4.60004 6.2002 4.60004C6.42097 4.59987 6.60059 4.42046 6.60059 4.19965V3.39984C6.60057 3.17904 6.42096 2.99962 6.2002 2.99945ZM3.39941 2.69965C3.17872 2.69991 2.99902 2.87928 2.99902 3.10004V3.89984C2.99912 4.12051 3.17878 4.29997 3.39941 4.30023C3.62027 4.30023 3.79971 4.12067 3.7998 3.89984V3.10004C3.7998 2.87912 3.62033 2.69965 3.39941 2.69965ZM4.7998 2.69965C4.57893 2.69969 4.39941 2.87915 4.39941 3.10004V3.89984C4.39951 4.12064 4.57899 4.30019 4.7998 4.30023C5.02066 4.30023 5.2001 4.12067 5.2002 3.89984V3.10004C5.2002 2.87912 5.02072 2.69965 4.7998 2.69965Z" fill="white"/>
</g>
<defs>
<filter id="filter0_i_1213_336" x="0" y="0" width="10" height="10" filterUnits="userSpaceOnUse" color-interpolation-filters="sRGB">
<feFlood flood-opacity="0" result="BackgroundImageFix"/>
<feBlend mode="normal" in="SourceGraphic" in2="BackgroundImageFix" result="shape"/>
<feColorMatrix in="SourceAlpha" type="matrix" values="0 0 0 0 0 0 0 0 0 0 0 0 0 0 0 0 0 0 127 0" result="hardAlpha"/>
<feOffset/>
<feGaussianBlur stdDeviation="1"/>
<feComposite in2="hardAlpha" operator="arithmetic" k2="-1" k3="1"/>
<feColorMatrix type="matrix" values="0 0 0 0 0.942 0 0 0 0 0.94 0 0 0 0 1 0 0 0 0.1 0"/>
<feBlend mode="hard-light" in2="shape" result="effect1_innerShadow_1213_336"/>
</filter>
</defs>
</svg>
