<svg width="10" height="10" viewBox="0 0 10 10" fill="none" xmlns="http://www.w3.org/2000/svg">
<g filter="url(#filter0_i_1136_3417)">
<path d="M4.16807 3.42444C4.41308 2.95258 4.53558 2.71665 4.74245 2.57496C4.77249 2.55439 4.80362 2.53547 4.83572 2.5183C5.0568 2.39999 5.32264 2.39999 5.85432 2.39999H6.03619C6.86743 2.39999 7.28306 2.39999 7.56189 2.634C7.60153 2.66726 7.63852 2.70355 7.67254 2.74254C7.91186 3.01682 7.91985 3.43237 7.93584 4.26346L7.97021 6.05077C7.98345 6.73934 7.99007 7.08363 7.79825 7.31309C7.77105 7.34564 7.74129 7.37597 7.70927 7.4038C7.48354 7.59999 7.13919 7.59999 6.45049 7.59999H4.50192C3.44681 7.59999 2.91926 7.59999 2.67917 7.28314C2.64613 7.23954 2.61765 7.19266 2.59418 7.14324C2.42361 6.78416 2.66671 6.31595 3.15292 5.37955L4.16807 3.42444Z" fill="white"/>
</g>
<defs>
<filter id="filter0_i_1136_3417" x="0" y="0" width="10" height="10" filterUnits="userSpaceOnUse" color-interpolation-filters="sRGB">
<feFlood flood-opacity="0" result="BackgroundImageFix"/>
<feBlend mode="normal" in="SourceGraphic" in2="BackgroundImageFix" result="shape"/>
<feColorMatrix in="SourceAlpha" type="matrix" values="0 0 0 0 0 0 0 0 0 0 0 0 0 0 0 0 0 0 127 0" result="hardAlpha"/>
<feOffset/>
<feGaussianBlur stdDeviation="1"/>
<feComposite in2="hardAlpha" operator="arithmetic" k2="-1" k3="1"/>
<feColorMatrix type="matrix" values="0 0 0 0 0.942 0 0 0 0 0.94 0 0 0 0 1 0 0 0 0.1 0"/>
<feBlend mode="hard-light" in2="shape" result="effect1_innerShadow_1136_3417"/>
</filter>
</defs>
</svg>
