<svg width="10" height="10" viewBox="0 0 10 10" fill="none" xmlns="http://www.w3.org/2000/svg">
<g filter="url(#filter0_i_1378_246)">
<path d="M6.79929 2.00043C7.13052 2.00043 7.39966 2.26885 7.39987 2.60004V7.39984C7.39984 7.73118 7.13064 7.99945 6.79929 7.99945C6.46811 7.99925 6.19971 7.73106 6.19968 7.39984V6.36004C6.19968 6.02166 6.19968 5.85247 6.10384 5.74026C6.09023 5.72432 6.07539 5.70948 6.05946 5.69587C5.94724 5.60004 5.77805 5.60004 5.43968 5.60004H4.55929C4.22091 5.60004 4.05172 5.60004 3.93951 5.69587C3.92357 5.70948 3.90873 5.72432 3.89512 5.74026C3.79929 5.85247 3.79929 6.02166 3.79929 6.36004V7.39984C3.79925 7.73118 3.53103 7.99945 3.19968 7.99945C2.86845 7.9993 2.6001 7.73109 2.60007 7.39984V2.60004C2.60028 2.26894 2.86856 2.00057 3.19968 2.00043C3.53091 2.00043 3.79907 2.26885 3.79929 2.60004V3.63984C3.79929 3.97822 3.79929 4.14741 3.89512 4.25962C3.90873 4.27555 3.92357 4.29039 3.93951 4.304C4.05172 4.39984 4.22091 4.39984 4.55929 4.39984H5.43968C5.77805 4.39984 5.94724 4.39984 6.05946 4.304C6.07539 4.29039 6.09023 4.27555 6.10384 4.25962C6.19968 4.14741 6.19968 3.97822 6.19968 3.63984V2.60004C6.19989 2.26897 6.46822 2.00063 6.79929 2.00043Z" fill="white"/>
</g>
<defs>
<filter id="filter0_i_1378_246" x="0" y="0" width="10" height="10" filterUnits="userSpaceOnUse" color-interpolation-filters="sRGB">
<feFlood flood-opacity="0" result="BackgroundImageFix"/>
<feBlend mode="normal" in="SourceGraphic" in2="BackgroundImageFix" result="shape"/>
<feColorMatrix in="SourceAlpha" type="matrix" values="0 0 0 0 0 0 0 0 0 0 0 0 0 0 0 0 0 0 127 0" result="hardAlpha"/>
<feOffset/>
<feGaussianBlur stdDeviation="1"/>
<feComposite in2="hardAlpha" operator="arithmetic" k2="-1" k3="1"/>
<feColorMatrix type="matrix" values="0 0 0 0 0.942 0 0 0 0 0.94 0 0 0 0 1 0 0 0 0.1 0"/>
<feBlend mode="hard-light" in2="shape" result="effect1_innerShadow_1378_246"/>
</filter>
</defs>
</svg>
