<svg width="10" height="10" viewBox="0 0 10 10" fill="none" xmlns="http://www.w3.org/2000/svg">
<g filter="url(#filter0_i_1725_244)">
<path d="M3.04639 5.99658C3.24157 5.8014 3.55814 5.80155 3.75342 5.99658L3.76123 6.00342C3.77214 6.01315 3.79162 6.02974 3.81787 6.05029C3.8715 6.09223 3.95463 6.15175 4.06396 6.21143C4.28364 6.33125 4.60211 6.44955 4.99951 6.44971C5.39685 6.44971 5.71527 6.33119 5.93506 6.21143C6.04458 6.15169 6.12842 6.09229 6.18213 6.05029C6.20847 6.02968 6.22781 6.01319 6.23877 6.00342L6.24658 5.99658L6.32471 5.93213C6.51869 5.80412 6.78278 5.82596 6.95361 5.99658C7.14875 6.19182 7.14875 6.50838 6.95361 6.70361L6.93701 6.72021C6.92908 6.72772 6.91841 6.73722 6.90576 6.74854C6.87993 6.77161 6.84338 6.80215 6.79834 6.8374C6.70831 6.90784 6.57952 6.99937 6.41455 7.08936C6.08437 7.26941 5.6016 7.44971 4.99951 7.44971C4.39769 7.44955 3.91549 7.26936 3.58545 7.08936C3.42043 6.99932 3.29068 6.90783 3.20068 6.8374C3.15585 6.80229 3.11995 6.77151 3.09424 6.74854C3.08162 6.73725 3.07089 6.7277 3.06299 6.72021L3.04639 6.70361C2.8514 6.50838 2.85135 6.19178 3.04639 5.99658ZM2.8999 2.55029C3.4001 2.55029 3.69971 2.95029 3.69971 3.55029C3.69967 4.15023 3.39987 4.55029 2.8999 4.55029C2.40003 4.55021 2.10013 4.15016 2.1001 3.55029C2.1001 2.95036 2.3998 2.55038 2.8999 2.55029ZM7.1001 2.55029C7.6003 2.55029 7.89991 2.95029 7.8999 3.55029C7.89986 4.15023 7.60007 4.55029 7.1001 4.55029C6.60027 4.55017 6.30033 4.15014 6.30029 3.55029C6.3003 2.95038 6.60004 2.55041 7.1001 2.55029Z" fill="white"/>
</g>
<defs>
<filter id="filter0_i_1725_244" x="0" y="0" width="10" height="10" filterUnits="userSpaceOnUse" color-interpolation-filters="sRGB">
<feFlood flood-opacity="0" result="BackgroundImageFix"/>
<feBlend mode="normal" in="SourceGraphic" in2="BackgroundImageFix" result="shape"/>
<feColorMatrix in="SourceAlpha" type="matrix" values="0 0 0 0 0 0 0 0 0 0 0 0 0 0 0 0 0 0 127 0" result="hardAlpha"/>
<feOffset/>
<feGaussianBlur stdDeviation="1"/>
<feComposite in2="hardAlpha" operator="arithmetic" k2="-1" k3="1"/>
<feColorMatrix type="matrix" values="0 0 0 0 0.942 0 0 0 0 0.94 0 0 0 0 1 0 0 0 0.1 0"/>
<feBlend mode="hard-light" in2="shape" result="effect1_innerShadow_1725_244"/>
</filter>
</defs>
</svg>
