<svg width="10" height="10" viewBox="0 0 10 10" fill="none" xmlns="http://www.w3.org/2000/svg">
<g filter="url(#filter0_i_1141_587)">
<path d="M6.40967 2.60093H7.3999C7.78637 2.60109 8.1001 2.91462 8.1001 3.30112C8.09984 3.6874 7.78621 4.00116 7.3999 4.00132C7.23432 4.00132 7.1001 4.13555 7.1001 4.30112V5.70054C7.1001 5.86612 7.23432 6.00034 7.3999 6.00034C7.78632 6.00041 8.09989 6.31416 8.1001 6.70054C8.09992 7.08696 7.78635 7.39971 7.3999 7.39976H6.8999C6.23731 7.39972 5.6999 6.86309 5.69971 6.20054V4.30132C5.69971 4.13563 5.56539 4.00132 5.39971 4.00132H4.58512C4.41256 4.00132 4.27624 4.14651 4.28212 4.31897C4.28681 4.45645 4.28904 4.6011 4.28662 4.74937C4.27992 5.15726 4.24378 5.62041 4.13623 6.04527C4.03309 6.45239 3.83703 6.93501 3.4292 7.2523C3.12407 7.48962 2.68415 7.43529 2.44678 7.13023C2.20982 6.8251 2.26485 6.38505 2.56982 6.1478C2.61189 6.11508 2.70384 5.99743 2.77881 5.70152C2.84915 5.42358 2.8814 5.08006 2.88721 4.72593C2.8898 4.56696 2.88621 4.41134 2.87974 4.26552C2.87313 4.11671 2.74906 4.00132 2.6001 4.00132C2.21366 4.00132 1.90017 3.6875 1.8999 3.30112C1.8999 2.91453 2.2135 2.60093 2.6001 2.60093H6.39014C6.39336 2.60089 6.39667 2.59995 6.3999 2.59995C6.40316 2.59995 6.40642 2.60088 6.40967 2.60093Z" fill="white"/>
</g>
<defs>
<filter id="filter0_i_1141_587" x="0" y="0" width="10" height="10" filterUnits="userSpaceOnUse" color-interpolation-filters="sRGB">
<feFlood flood-opacity="0" result="BackgroundImageFix"/>
<feBlend mode="normal" in="SourceGraphic" in2="BackgroundImageFix" result="shape"/>
<feColorMatrix in="SourceAlpha" type="matrix" values="0 0 0 0 0 0 0 0 0 0 0 0 0 0 0 0 0 0 127 0" result="hardAlpha"/>
<feOffset/>
<feGaussianBlur stdDeviation="1"/>
<feComposite in2="hardAlpha" operator="arithmetic" k2="-1" k3="1"/>
<feColorMatrix type="matrix" values="0 0 0 0 0.942 0 0 0 0 0.94 0 0 0 0 1 0 0 0 0.1 0"/>
<feBlend mode="hard-light" in2="shape" result="effect1_innerShadow_1141_587"/>
</filter>
</defs>
</svg>
