<svg width="10" height="10" viewBox="0 0 10 10" fill="none" xmlns="http://www.w3.org/2000/svg">
<g filter="url(#filter0_i_1716_115)">
<path fill-rule="evenodd" clip-rule="evenodd" d="M4.69984 1.7002C4.97598 1.7002 5.19984 1.92405 5.19984 2.2002C5.19984 2.37331 5.37463 2.49173 5.53541 2.42754L6.01429 2.23633C6.27068 2.13377 6.56115 2.25826 6.66371 2.51465C6.76619 2.77102 6.64174 3.06152 6.38538 3.16406L5.44031 3.54163C5.29508 3.59964 5.19984 3.74026 5.19984 3.89664C5.19984 4.16701 5.47281 4.35194 5.7239 4.25169L6.01429 4.13574C6.27055 4.03324 6.56101 4.15793 6.66371 4.41406C6.76626 4.67045 6.64178 4.96092 6.38538 5.06348L5.67788 5.34613C5.45894 5.4336 5.34947 5.47733 5.28259 5.56442C5.27292 5.57701 5.26401 5.59017 5.2559 5.60383C5.19984 5.69824 5.19984 5.81613 5.19984 6.05189V6.32348C5.19984 6.72522 5.19984 6.9261 5.39294 7.0428C5.41315 7.05501 5.45333 7.07341 5.47577 7.08074C5.69027 7.15072 5.80336 7.05317 6.02952 6.85806C6.33772 6.59219 6.47516 6.27289 6.50941 6.10254C6.56356 5.8318 6.82754 5.65588 7.09828 5.70996C7.36873 5.76426 7.54379 6.02732 7.48988 6.29785C7.36598 6.91684 6.71812 8.08558 5.13929 8.27441C5.07561 8.28202 4.97378 8.29548 4.88148 8.29297C4.76672 8.28981 4.62021 8.26304 4.48109 8.15918C4.45013 8.13606 4.41885 8.10905 4.39222 8.08105C4.26653 7.9489 4.22655 7.79777 4.21156 7.68848C4.199 7.59662 4.19984 7.49169 4.19984 7.41992V6.81484C4.19984 6.55978 4.19984 6.43225 4.15599 6.34649C4.09358 6.22442 3.97299 6.14281 3.83646 6.13026C3.74055 6.12144 3.62216 6.16885 3.38538 6.26367C3.12907 6.36614 2.83857 6.2416 2.73597 5.98535C2.6337 5.72906 2.75805 5.43748 3.01429 5.33496L3.96003 4.95635C4.10487 4.89837 4.19984 4.75806 4.19984 4.60204C4.19984 4.33197 3.92702 4.14735 3.6763 4.24775L3.38538 4.36426C3.12915 4.46658 2.83859 4.34206 2.73597 4.08594C2.63344 3.82961 2.75804 3.53818 3.01429 3.43555L3.7223 3.15211C3.94102 3.06455 4.05037 3.02077 4.11718 2.93371C4.12684 2.92112 4.13574 2.90797 4.14384 2.89432C4.19984 2.79994 4.19984 2.68215 4.19984 2.44655V2.2002C4.19984 1.92411 4.42377 1.70028 4.69984 1.7002Z" fill="white"/>
</g>
<defs>
<filter id="filter0_i_1716_115" x="0" y="0" width="10" height="10" filterUnits="userSpaceOnUse" color-interpolation-filters="sRGB">
<feFlood flood-opacity="0" result="BackgroundImageFix"/>
<feBlend mode="normal" in="SourceGraphic" in2="BackgroundImageFix" result="shape"/>
<feColorMatrix in="SourceAlpha" type="matrix" values="0 0 0 0 0 0 0 0 0 0 0 0 0 0 0 0 0 0 127 0" result="hardAlpha"/>
<feOffset/>
<feGaussianBlur stdDeviation="1"/>
<feComposite in2="hardAlpha" operator="arithmetic" k2="-1" k3="1"/>
<feColorMatrix type="matrix" values="0 0 0 0 0.942 0 0 0 0 0.94 0 0 0 0 1 0 0 0 0.1 0"/>
<feBlend mode="hard-light" in2="shape" result="effect1_innerShadow_1716_115"/>
</filter>
</defs>
</svg>
