<svg width="10" height="10" viewBox="0 0 10 10" fill="none" xmlns="http://www.w3.org/2000/svg">
<g filter="url(#filter0_i_1223_1368)">
<path d="M7.24966 4.78615C7.54567 5.03452 7.58467 5.47535 7.33658 5.7715L5.53677 7.91701C5.51848 7.93881 5.49647 7.95661 5.47623 7.9756C5.46703 7.98419 5.45961 7.99476 5.44986 8.00294C5.44844 8.00414 5.44641 8.00469 5.44498 8.00587C5.42307 8.024 5.3992 8.03864 5.37564 8.05373C5.3586 8.06466 5.34253 8.07666 5.32486 8.08595C5.30442 8.09666 5.28263 8.10374 5.26138 8.11232C5.24077 8.12067 5.22098 8.13044 5.19986 8.13673C5.17747 8.14338 5.15437 8.14603 5.1315 8.15041C5.10989 8.15454 5.08886 8.16102 5.06705 8.1631C5.04496 8.16522 5.02284 8.16308 5.00064 8.1631C4.97844 8.16311 4.95632 8.16519 4.93423 8.1631C4.91242 8.16105 4.8914 8.15451 4.86978 8.15041C4.8469 8.14606 4.82383 8.14335 4.80142 8.13673C4.78028 8.13047 4.76053 8.12065 4.7399 8.11232C4.71863 8.10377 4.69689 8.09664 4.67642 8.08595C4.65872 8.07667 4.64271 8.06465 4.62564 8.05373C4.60204 8.03866 4.57825 8.02399 4.5563 8.00587C4.55467 8.00453 4.55207 8.00431 4.55045 8.00294C4.54088 7.99492 4.53408 7.98402 4.52505 7.9756C4.50461 7.95646 4.48199 7.939 4.46353 7.91701L2.66373 5.7715C2.41561 5.47535 2.45463 5.03453 2.75064 4.78615C3.04672 4.53775 3.48747 4.57616 3.73599 4.87209C3.89747 5.06426 3.97821 5.16034 4.0477 5.17383C4.1203 5.18791 4.19475 5.16079 4.24127 5.10329C4.2858 5.04827 4.2858 4.92276 4.2858 4.67175V2.53615C4.2858 2.14963 4.59951 1.83609 4.98599 1.83595C5.37259 1.83595 5.68619 2.14955 5.68619 2.53615V4.66195C5.68619 4.94857 5.68619 5.09188 5.74326 5.15018C5.78565 5.19349 5.84539 5.21524 5.90571 5.20933C5.98691 5.20137 6.07905 5.09161 6.26334 4.87209C6.51183 4.57594 6.95351 4.53766 7.24966 4.78615Z" fill="white"/>
</g>
<defs>
<filter id="filter0_i_1223_1368" x="0" y="0" width="10" height="10" filterUnits="userSpaceOnUse" color-interpolation-filters="sRGB">
<feFlood flood-opacity="0" result="BackgroundImageFix"/>
<feBlend mode="normal" in="SourceGraphic" in2="BackgroundImageFix" result="shape"/>
<feColorMatrix in="SourceAlpha" type="matrix" values="0 0 0 0 0 0 0 0 0 0 0 0 0 0 0 0 0 0 127 0" result="hardAlpha"/>
<feOffset/>
<feGaussianBlur stdDeviation="1"/>
<feComposite in2="hardAlpha" operator="arithmetic" k2="-1" k3="1"/>
<feColorMatrix type="matrix" values="0 0 0 0 0.942 0 0 0 0 0.94 0 0 0 0 1 0 0 0 0.1 0"/>
<feBlend mode="hard-light" in2="shape" result="effect1_innerShadow_1223_1368"/>
</filter>
</defs>
</svg>
