<svg width="10" height="10" viewBox="0 0 10 10" fill="none" xmlns="http://www.w3.org/2000/svg">
<g filter="url(#filter0_i_1376_133)">
<path d="M4.41414 2.33755C4.68553 1.91624 5.31461 1.91626 5.58601 2.33755L5.63875 2.43423L7.74715 7.1315C7.88287 7.4338 7.74769 7.78874 7.44539 7.92447C7.14315 8.06 6.78811 7.92492 6.65242 7.62271L6.47488 7.22777C6.42861 7.12483 6.40547 7.07336 6.36281 7.04215C6.35663 7.03763 6.3502 7.03347 6.34354 7.02969C6.29758 7.00357 6.24115 7.00357 6.12829 7.00357H3.70027C3.657 7.00357 3.61594 7.02265 3.59823 7.06213L3.34676 7.62271C3.21103 7.92501 2.85609 8.0602 2.55379 7.92447C2.25191 7.78854 2.11737 7.4336 2.25301 7.1315L4.3614 2.43423L4.41414 2.33755ZM4.40343 5.26881C4.3013 5.49644 4.25024 5.61025 4.29423 5.6958C4.30031 5.70763 4.30755 5.71882 4.31585 5.7292C4.3759 5.80435 4.50064 5.80435 4.75014 5.80435H5.24876C5.49836 5.80435 5.62315 5.80435 5.6832 5.72917C5.6915 5.71878 5.69874 5.70759 5.70482 5.69576C5.7488 5.61018 5.69767 5.49634 5.5954 5.26866L5.34594 4.71327C5.20535 4.40026 5.13506 4.24376 5.02209 4.23075C5.00686 4.229 4.99147 4.229 4.97624 4.23076C4.86328 4.24382 4.79305 4.40035 4.6526 4.71342L4.40343 5.26881Z" fill="white"/>
</g>
<defs>
<filter id="filter0_i_1376_133" x="0" y="0" width="10" height="10" filterUnits="userSpaceOnUse" color-interpolation-filters="sRGB">
<feFlood flood-opacity="0" result="BackgroundImageFix"/>
<feBlend mode="normal" in="SourceGraphic" in2="BackgroundImageFix" result="shape"/>
<feColorMatrix in="SourceAlpha" type="matrix" values="0 0 0 0 0 0 0 0 0 0 0 0 0 0 0 0 0 0 127 0" result="hardAlpha"/>
<feOffset/>
<feGaussianBlur stdDeviation="1"/>
<feComposite in2="hardAlpha" operator="arithmetic" k2="-1" k3="1"/>
<feColorMatrix type="matrix" values="0 0 0 0 0.942 0 0 0 0 0.94 0 0 0 0 1 0 0 0 0.1 0"/>
<feBlend mode="hard-light" in2="shape" result="effect1_innerShadow_1376_133"/>
</filter>
</defs>
</svg>
