<svg width="10" height="10" viewBox="0 0 10 10" fill="none" xmlns="http://www.w3.org/2000/svg">
<g filter="url(#filter0_i_1695_86)">
<path fill-rule="evenodd" clip-rule="evenodd" d="M4.99992 1.29977C5.27599 1.29977 5.4998 1.52373 5.49992 1.79977V1.95467C5.49992 1.97913 5.49992 1.99136 5.50086 2.00103C5.50939 2.08853 5.56646 2.15461 5.65179 2.17577C5.66122 2.1781 5.67582 2.18025 5.705 2.18454C6.07975 2.23971 6.46917 2.35208 6.73918 2.54489C6.9636 2.70547 7.01582 3.01757 6.85539 3.24216C6.69491 3.4665 6.38271 3.5185 6.15813 3.35837C6.07822 3.30136 5.87331 3.22001 5.55949 3.1738C5.26033 3.12983 4.9192 3.12635 4.6093 3.17673C4.29251 3.22828 4.05459 3.32817 3.91301 3.45016C3.7949 3.5521 3.72453 3.68143 3.74602 3.90231C3.76169 4.06249 3.84051 4.18037 4.07805 4.29977C4.34276 4.43275 4.70594 4.51539 5.1552 4.61325C5.56771 4.7031 6.06714 4.8085 6.4677 5.00974C6.89551 5.22472 7.28563 5.58896 7.34563 6.20309C7.40294 6.79137 7.13956 7.23751 6.72453 7.51462C6.45575 7.69397 6.13154 7.79863 5.80192 7.85572C5.67971 7.87689 5.6186 7.88747 5.58023 7.91613C5.5542 7.93558 5.53633 7.95681 5.52162 7.98577C5.49992 8.02847 5.49992 8.0857 5.49992 8.20016C5.49971 8.47612 5.27593 8.70016 4.99992 8.70016C4.72393 8.70014 4.50014 8.47611 4.49992 8.20016C4.49992 8.06899 4.49992 8.00341 4.47023 7.95518C4.45907 7.93706 4.44659 7.92241 4.43047 7.90852C4.38756 7.87155 4.3195 7.86063 4.1834 7.83877C4.11514 7.82781 4.048 7.81556 3.98234 7.80173C3.5602 7.71273 3.13501 7.56628 2.84856 7.35153C2.6279 7.18593 2.5827 6.87218 2.74797 6.65134C2.91362 6.43047 3.22726 6.38616 3.44817 6.55173C3.56166 6.63681 3.81861 6.74524 4.1884 6.82321C4.39845 6.86748 4.62633 6.89502 4.85402 6.90694C4.86886 6.90772 4.87629 6.90811 4.88333 6.90798C4.88495 6.90795 4.88484 6.90795 4.88646 6.9079C4.8935 6.90766 4.91104 6.90583 4.94612 6.90216C4.9638 6.90031 4.98176 6.89938 4.99992 6.89938C5.02311 6.89938 5.04587 6.90131 5.06817 6.90464C5.09962 6.90934 5.11534 6.91169 5.1223 6.91224C5.12386 6.91236 5.12383 6.91236 5.1254 6.91246C5.13237 6.9129 5.14061 6.91285 5.15709 6.91273C5.21268 6.91236 5.26781 6.9118 5.32219 6.90817C5.70388 6.88262 5.99572 6.79803 6.16887 6.68259C6.30821 6.58957 6.36863 6.48556 6.35051 6.29977C6.33481 6.1396 6.25612 6.02271 6.01848 5.90329C5.75379 5.77037 5.39143 5.68764 4.94231 5.58981C4.52969 5.49994 4.0295 5.39466 3.62883 5.19333C3.20112 4.97835 2.81093 4.61392 2.7509 3.99997C2.69687 3.44696 2.90171 3.00115 3.25969 2.69235C3.5944 2.40385 4.03502 2.25678 4.44914 2.18942C4.4782 2.1847 4.49992 2.16078 4.49992 2.13134V1.79977C4.50004 1.52374 4.72387 1.29979 4.99992 1.29977Z" fill="white"/>
</g>
<defs>
<filter id="filter0_i_1695_86" x="0" y="0" width="10" height="10" filterUnits="userSpaceOnUse" color-interpolation-filters="sRGB">
<feFlood flood-opacity="0" result="BackgroundImageFix"/>
<feBlend mode="normal" in="SourceGraphic" in2="BackgroundImageFix" result="shape"/>
<feColorMatrix in="SourceAlpha" type="matrix" values="0 0 0 0 0 0 0 0 0 0 0 0 0 0 0 0 0 0 127 0" result="hardAlpha"/>
<feOffset/>
<feGaussianBlur stdDeviation="1"/>
<feComposite in2="hardAlpha" operator="arithmetic" k2="-1" k3="1"/>
<feColorMatrix type="matrix" values="0 0 0 0 0.942 0 0 0 0 0.94 0 0 0 0 1 0 0 0 0.1 0"/>
<feBlend mode="hard-light" in2="shape" result="effect1_innerShadow_1695_86"/>
</filter>
</defs>
</svg>
