<svg width="10" height="10" viewBox="0 0 10 10" fill="none" xmlns="http://www.w3.org/2000/svg">
<g filter="url(#filter0_i_1727_258)">
<path fill-rule="evenodd" clip-rule="evenodd" d="M6.03907 5.70424C6.3865 5.70424 6.56052 5.70466 6.6797 5.83705C6.69371 5.85263 6.71373 5.87872 6.72462 5.89662C6.81714 6.04882 6.77655 6.18469 6.69532 6.45521C6.47577 7.18618 5.90961 7.70424 4.99903 7.70424C4.0887 7.70409 3.52326 7.18605 3.30372 6.45521C3.22248 6.18464 3.18184 6.04885 3.27442 5.89662C3.28531 5.87872 3.30533 5.85263 3.31935 5.83705C3.43847 5.70482 3.61194 5.70424 3.95899 5.70424H6.03907ZM2.93849 2.34291C3.03692 2.28018 3.16334 2.28007 3.26173 2.34291C3.3417 2.3942 3.40152 2.54129 3.52149 2.83412C3.5457 2.89319 3.55794 2.92278 3.57521 2.94838C3.59661 2.98002 3.62365 3.00801 3.65528 3.02943C3.68095 3.04679 3.71117 3.05883 3.77052 3.08314C4.06352 3.20318 4.21058 3.26284 4.26173 3.34291C4.32455 3.44131 4.32449 3.56773 4.26173 3.66615C4.21059 3.74622 4.06348 3.8059 3.77052 3.92592C3.71117 3.95023 3.68095 3.96325 3.65528 3.98061C3.62381 4.00199 3.59653 4.02916 3.57521 4.06068C3.55791 4.08628 3.54569 4.11588 3.52149 4.17494C3.40157 4.46767 3.34166 4.61481 3.26173 4.66615C3.16331 4.72902 3.03694 4.72894 2.93849 4.66615C2.8584 4.615 2.79783 4.46806 2.67774 4.17494C2.65354 4.11586 2.64136 4.0863 2.62403 4.06068C2.60267 4.02911 2.57551 4.002 2.54396 3.98061C2.51829 3.96325 2.48807 3.95023 2.42872 3.92592C2.13607 3.80602 1.98968 3.74614 1.93849 3.66615C1.87559 3.56768 1.87559 3.44138 1.93849 3.34291C1.98976 3.26299 2.13619 3.20299 2.42872 3.08314C2.48803 3.05885 2.5183 3.04678 2.54396 3.02943C2.57565 3.008 2.6026 2.98007 2.62403 2.94838C2.64133 2.92277 2.65353 2.89323 2.67774 2.83412C2.79783 2.541 2.8584 2.39407 2.93849 2.34291ZM6.73829 2.34291C6.83675 2.28006 6.96309 2.28003 7.06153 2.34291C7.14159 2.3941 7.20125 2.54108 7.3213 2.83412C7.34549 2.89316 7.35778 2.9228 7.37501 2.94838C7.39645 2.98007 7.42437 3.008 7.45607 3.02943C7.48164 3.04666 7.51128 3.05896 7.57032 3.08314C7.86339 3.20321 8.01035 3.26284 8.06153 3.34291C8.12442 3.44136 8.12439 3.56769 8.06153 3.66615C8.01038 3.74624 7.86342 3.80584 7.57032 3.92592C7.51098 3.95023 7.48173 3.96325 7.45607 3.98061C7.42438 4.00204 7.39644 4.029 7.37501 4.06068C7.35775 4.08627 7.34549 4.11591 7.3213 4.17494C7.20128 4.46789 7.14155 4.61492 7.06153 4.66615C6.96306 4.72905 6.83676 4.72905 6.73829 4.66615C6.6582 4.615 6.59861 4.46806 6.47853 4.17494C6.45425 4.11568 6.44119 4.08633 6.42384 4.06068C6.40245 4.0291 6.37534 4.002 6.34376 3.98061C6.31811 3.96326 6.28875 3.95019 6.2295 3.92592C5.93641 3.80584 5.78946 3.74623 5.73829 3.66615C5.67539 3.56768 5.67539 3.44138 5.73829 3.34291C5.78952 3.26289 5.93655 3.20316 6.2295 3.08314C6.28854 3.05896 6.31817 3.04669 6.34376 3.02943C6.37545 3.008 6.40241 2.98006 6.42384 2.94838C6.4412 2.92271 6.45421 2.89347 6.47853 2.83412C6.59861 2.54101 6.65821 2.39407 6.73829 2.34291Z" fill="white"/>
</g>
<defs>
<filter id="filter0_i_1727_258" x="0" y="0" width="10" height="10" filterUnits="userSpaceOnUse" color-interpolation-filters="sRGB">
<feFlood flood-opacity="0" result="BackgroundImageFix"/>
<feBlend mode="normal" in="SourceGraphic" in2="BackgroundImageFix" result="shape"/>
<feColorMatrix in="SourceAlpha" type="matrix" values="0 0 0 0 0 0 0 0 0 0 0 0 0 0 0 0 0 0 127 0" result="hardAlpha"/>
<feOffset/>
<feGaussianBlur stdDeviation="1"/>
<feComposite in2="hardAlpha" operator="arithmetic" k2="-1" k3="1"/>
<feColorMatrix type="matrix" values="0 0 0 0 0.942 0 0 0 0 0.94 0 0 0 0 1 0 0 0 0.1 0"/>
<feBlend mode="hard-light" in2="shape" result="effect1_innerShadow_1727_258"/>
</filter>
</defs>
</svg>
