<svg width="10" height="10" viewBox="0 0 10 10" fill="none" xmlns="http://www.w3.org/2000/svg">
<g filter="url(#filter0_i_1136_3439)">
<path d="M4.27419 2.58258C4.58716 2.20201 4.74364 2.01172 4.94689 1.99001C4.98219 1.98624 5.0178 1.98624 5.0531 1.99001C5.25635 2.01172 5.41283 2.20201 5.7258 2.58258C5.85292 2.73716 5.91649 2.81445 6.00116 2.86082C6.01645 2.8692 6.03217 2.87677 6.04826 2.88351C6.13731 2.92079 6.23736 2.92229 6.43748 2.9253C6.93015 2.93271 7.17649 2.93641 7.32018 3.08178C7.34515 3.10703 7.36735 3.13487 7.38641 3.16482C7.49616 3.33727 7.44495 3.57825 7.34254 4.06022C7.30095 4.25599 7.28015 4.35387 7.29668 4.44898C7.29967 4.46616 7.30355 4.48318 7.30831 4.49995C7.33469 4.59282 7.3959 4.67198 7.51831 4.83032C7.8197 5.22012 7.97039 5.41502 7.94633 5.618C7.94215 5.65326 7.93423 5.68798 7.9227 5.72156C7.8563 5.91488 7.63597 6.02509 7.1953 6.24553C7.01631 6.33507 6.92681 6.37984 6.86276 6.45207C6.85119 6.46511 6.84031 6.47875 6.83016 6.49294C6.774 6.57146 6.75027 6.66867 6.7028 6.8631C6.58595 7.34177 6.52753 7.58111 6.35383 7.68886C6.32366 7.70757 6.29158 7.72302 6.25813 7.73494C6.06559 7.80357 5.84204 7.70002 5.39495 7.49293C5.21335 7.40882 5.12254 7.36676 5.02614 7.36171C5.00872 7.3608 4.99127 7.3608 4.97386 7.36171C4.87745 7.36676 4.78665 7.40882 4.60505 7.49293C4.15795 7.70002 3.9344 7.80357 3.74186 7.73494C3.70842 7.72302 3.67634 7.70757 3.64616 7.68886C3.47247 7.58111 3.41404 7.34177 3.29719 6.8631C3.24973 6.66867 3.22599 6.57146 3.16983 6.49294C3.15969 6.47875 3.14881 6.46511 3.13724 6.45207C3.07318 6.37984 2.98369 6.33507 2.80469 6.24553C2.36402 6.02509 2.14369 5.91488 2.0773 5.72156C2.06576 5.68798 2.05784 5.65326 2.05366 5.618C2.0296 5.41502 2.18029 5.22012 2.48168 4.83032C2.6041 4.67198 2.66531 4.59282 2.69168 4.49995C2.69644 4.48318 2.70033 4.46616 2.70331 4.44898C2.71984 4.35387 2.69905 4.25599 2.65745 4.06022C2.55504 3.57825 2.50384 3.33726 2.61358 3.16482C2.63265 3.13487 2.65485 3.10703 2.67981 3.08178C2.82351 2.93641 3.06984 2.93271 3.56251 2.9253C3.76263 2.92229 3.86269 2.92079 3.95174 2.88351C3.96782 2.87677 3.98354 2.8692 3.99884 2.86082C4.08351 2.81445 4.14707 2.73716 4.27419 2.58258Z" fill="white"/>
</g>
<defs>
<filter id="filter0_i_1136_3439" x="0" y="0" width="10" height="10" filterUnits="userSpaceOnUse" color-interpolation-filters="sRGB">
<feFlood flood-opacity="0" result="BackgroundImageFix"/>
<feBlend mode="normal" in="SourceGraphic" in2="BackgroundImageFix" result="shape"/>
<feColorMatrix in="SourceAlpha" type="matrix" values="0 0 0 0 0 0 0 0 0 0 0 0 0 0 0 0 0 0 127 0" result="hardAlpha"/>
<feOffset/>
<feGaussianBlur stdDeviation="1"/>
<feComposite in2="hardAlpha" operator="arithmetic" k2="-1" k3="1"/>
<feColorMatrix type="matrix" values="0 0 0 0 0.942 0 0 0 0 0.94 0 0 0 0 1 0 0 0 0.1 0"/>
<feBlend mode="hard-light" in2="shape" result="effect1_innerShadow_1136_3439"/>
</filter>
</defs>
</svg>
