<svg width="10" height="10" viewBox="0 0 10 10" fill="none" xmlns="http://www.w3.org/2000/svg">
<g filter="url(#filter0_i_1377_164)">
<path d="M6.79929 2.00043C7.13056 2.00043 7.39972 2.2688 7.39987 2.60004C7.39987 2.93142 7.13066 3.19965 6.79929 3.19965H4.39938C4.21292 3.19965 4.11968 3.19965 4.04614 3.23013C3.94819 3.27073 3.87036 3.34856 3.82976 3.44651C3.79929 3.52005 3.79929 3.61328 3.79929 3.79975C3.79929 3.98622 3.79929 4.07945 3.82976 4.15299C3.87036 4.25095 3.94819 4.32878 4.04614 4.36937C4.11968 4.39985 4.21292 4.39985 4.39938 4.39985H6.19968C6.53085 4.40001 6.79917 4.66927 6.79929 5.00043C6.79916 5.33161 6.53083 5.59989 6.19968 5.60004H4.55929C4.22091 5.60004 4.05172 5.60004 3.93951 5.69588C3.92357 5.70949 3.90873 5.72433 3.89512 5.74027C3.79929 5.85248 3.79929 6.02167 3.79929 6.36004V7.39985C3.79925 7.73119 3.53103 7.99946 3.19968 7.99946C2.86839 7.99938 2.6001 7.73114 2.60007 7.39985V3.17036C2.60006 3.05866 2.59837 2.91967 2.61276 2.80122C2.62891 2.66883 2.67182 2.48361 2.81491 2.31586L2.86886 2.26192C2.89094 2.23984 2.90197 2.2288 2.91382 2.21867C2.91558 2.21717 2.91734 2.21568 2.91912 2.21421C2.93115 2.20429 2.94392 2.19532 2.96947 2.17737L3.04343 2.12543C3.17246 2.05232 3.30156 2.02523 3.40085 2.01313C3.51935 1.99874 3.65827 2.00043 3.76999 2.00043H6.79929Z" fill="white"/>
</g>
<defs>
<filter id="filter0_i_1377_164" x="0" y="0" width="10" height="10" filterUnits="userSpaceOnUse" color-interpolation-filters="sRGB">
<feFlood flood-opacity="0" result="BackgroundImageFix"/>
<feBlend mode="normal" in="SourceGraphic" in2="BackgroundImageFix" result="shape"/>
<feColorMatrix in="SourceAlpha" type="matrix" values="0 0 0 0 0 0 0 0 0 0 0 0 0 0 0 0 0 0 127 0" result="hardAlpha"/>
<feOffset/>
<feGaussianBlur stdDeviation="1"/>
<feComposite in2="hardAlpha" operator="arithmetic" k2="-1" k3="1"/>
<feColorMatrix type="matrix" values="0 0 0 0 0.942 0 0 0 0 0.94 0 0 0 0 1 0 0 0 0.1 0"/>
<feBlend mode="hard-light" in2="shape" result="effect1_innerShadow_1377_164"/>
</filter>
</defs>
</svg>
