<svg width="10" height="10" viewBox="0 0 10 10" fill="none" xmlns="http://www.w3.org/2000/svg">
<g filter="url(#filter0_i_1695_80)">
<path d="M7.89941 4.00001C8.17556 4.00001 8.39941 4.22387 8.39941 4.50001C8.3994 4.77614 8.17555 5.00001 7.89941 5.00001H7.45C7.02703 5.00001 6.81554 5.00001 6.67528 5.1198C6.65536 5.13682 6.63681 5.15537 6.6198 5.17528C6.5 5.31555 6.5 5.52703 6.5 5.95001V6.54981C6.5 6.79845 6.70156 7.00001 6.9502 7.00001C7.19883 7.00001 7.40039 6.79845 7.40039 6.54981V6.50001C7.40039 6.22387 7.62425 6.00001 7.90039 6.00001C8.17635 6.00022 8.40039 6.224 8.40039 6.50001V7.00196C8.40039 7.08537 8.40095 7.18125 8.39355 7.26368C8.38554 7.35286 8.36488 7.47404 8.29492 7.59669C8.22394 7.72103 8.12047 7.8236 7.99609 7.89454C7.8734 7.96451 7.75227 7.98517 7.66309 7.99317C7.58086 8.00052 7.48553 8.00001 7.40234 8.00001H6.49805C6.41464 8.00001 6.31876 8.00057 6.23633 7.99317C6.14715 7.98516 6.02595 7.96448 5.90332 7.89454C5.77918 7.82364 5.67637 7.72083 5.60547 7.59669C5.53552 7.47406 5.51485 7.35286 5.50684 7.26368C5.49944 7.18125 5.5 7.08537 5.5 7.00196V5.51607C5.5 5.50116 5.5 5.4937 5.49984 5.48739C5.49312 5.22114 5.27887 5.00689 5.01261 5.00017C5.00631 5.00001 4.99885 5.00001 4.98394 5.00001C4.96023 5.00001 4.94837 5.00001 4.94253 5.00014C4.68414 5.00618 4.495 5.17455 4.45907 5.4305C4.45826 5.43628 4.45604 5.45524 4.45162 5.49315C4.40419 5.89986 4.31121 6.29042 4.13184 6.64063C3.78735 7.31288 3.17079 7.76118 2.21387 7.98634C1.94524 8.04924 1.67649 7.88289 1.61328 7.61427C1.55023 7.34567 1.71685 7.07707 1.98535 7.01368C2.728 6.83891 3.06163 6.53699 3.24219 6.18458C3.27501 6.1205 3.30396 6.0526 3.32944 5.98062C3.45447 5.62732 3.51699 5.45067 3.4031 5.25167C3.38969 5.22823 3.36565 5.19422 3.34804 5.17376C3.19843 5.00001 2.96305 5.00001 2.49229 5.00001H2.09961C1.82366 4.9998 1.59963 4.77601 1.59961 4.50001C1.59961 4.224 1.82365 4.00022 2.09961 4.00001H7.89941ZM7.2002 2.00001C7.47616 2.00022 7.7002 2.224 7.7002 2.50001C7.7002 2.77602 7.47616 2.9998 7.2002 3.00001H2.7998C2.52375 2.9999 2.2998 2.77608 2.2998 2.50001C2.2998 2.22393 2.52375 2.00011 2.7998 2.00001H7.2002Z" fill="white"/>
</g>
<defs>
<filter id="filter0_i_1695_80" x="0" y="0" width="10" height="10" filterUnits="userSpaceOnUse" color-interpolation-filters="sRGB">
<feFlood flood-opacity="0" result="BackgroundImageFix"/>
<feBlend mode="normal" in="SourceGraphic" in2="BackgroundImageFix" result="shape"/>
<feColorMatrix in="SourceAlpha" type="matrix" values="0 0 0 0 0 0 0 0 0 0 0 0 0 0 0 0 0 0 127 0" result="hardAlpha"/>
<feOffset/>
<feGaussianBlur stdDeviation="1"/>
<feComposite in2="hardAlpha" operator="arithmetic" k2="-1" k3="1"/>
<feColorMatrix type="matrix" values="0 0 0 0 0.942 0 0 0 0 0.94 0 0 0 0 1 0 0 0 0.1 0"/>
<feBlend mode="hard-light" in2="shape" result="effect1_innerShadow_1695_80"/>
</filter>
</defs>
</svg>
