<svg width="10" height="10" viewBox="0 0 10 10" fill="none" xmlns="http://www.w3.org/2000/svg">
<g filter="url(#filter0_i_1141_531)">
<path d="M6.24998 2.1226C6.58127 2.1227 6.84959 2.39091 6.84959 2.72221C6.84953 3.05347 6.58124 3.32173 6.24998 3.32182H4.90865C4.77534 3.32182 4.70868 3.32182 4.65338 3.34482C4.60148 3.3664 4.5567 3.40213 4.52412 3.44793C4.4894 3.49673 4.47458 3.56172 4.44494 3.6917C4.4001 3.88835 4.37768 3.98668 4.39857 4.06041C4.41916 4.13313 4.45831 4.18678 4.52127 4.22858C4.58511 4.27097 4.69378 4.28033 4.9111 4.29905C5.1257 4.31754 5.34703 4.34949 5.56053 4.4019C5.8895 4.48272 6.25336 4.62241 6.54295 4.87944C6.85293 5.15467 7.04972 5.54076 7.04979 6.02202C7.04977 6.53459 6.88243 6.96903 6.56346 7.29057C6.25714 7.59918 5.86085 7.75435 5.48534 7.82475C4.74735 7.963 3.90496 7.81071 3.32713 7.57964C3.01971 7.45651 2.87027 7.10689 2.99315 6.79936C3.11624 6.49193 3.46492 6.34258 3.77245 6.46538C4.1944 6.63416 4.80287 6.73154 5.26463 6.64507C5.48842 6.60305 5.62978 6.52647 5.71092 6.44487C5.77942 6.37582 5.84957 6.25931 5.84959 6.02202C5.84954 5.89952 5.81158 5.83506 5.74608 5.7769C5.66011 5.70068 5.50686 5.62405 5.2744 5.56694C4.80811 5.45249 4.23261 5.46529 3.88182 5.49174C3.3573 5.53109 2.90519 5.05394 3.02928 4.50737L3.42967 2.74467C3.51251 2.38088 3.83591 2.12298 4.20897 2.1226H6.24998Z" fill="white"/>
</g>
<defs>
<filter id="filter0_i_1141_531" x="0" y="0" width="10" height="10" filterUnits="userSpaceOnUse" color-interpolation-filters="sRGB">
<feFlood flood-opacity="0" result="BackgroundImageFix"/>
<feBlend mode="normal" in="SourceGraphic" in2="BackgroundImageFix" result="shape"/>
<feColorMatrix in="SourceAlpha" type="matrix" values="0 0 0 0 0 0 0 0 0 0 0 0 0 0 0 0 0 0 127 0" result="hardAlpha"/>
<feOffset/>
<feGaussianBlur stdDeviation="1"/>
<feComposite in2="hardAlpha" operator="arithmetic" k2="-1" k3="1"/>
<feColorMatrix type="matrix" values="0 0 0 0 0.942 0 0 0 0 0.94 0 0 0 0 1 0 0 0 0.1 0"/>
<feBlend mode="hard-light" in2="shape" result="effect1_innerShadow_1141_531"/>
</filter>
</defs>
</svg>
