<svg width="10" height="10" viewBox="0 0 10 10" fill="none" xmlns="http://www.w3.org/2000/svg">
<g filter="url(#filter0_i_1378_258)">
<path d="M6.80026 2.00146C7.13142 2.00157 7.39966 2.26995 7.39987 2.60107V7.20459C7.39988 7.24476 7.4009 7.33156 7.39206 7.40576C7.38739 7.44479 7.37557 7.52605 7.33542 7.61572C7.28972 7.71758 7.19665 7.85208 7.02585 7.93213C6.97641 7.95528 6.92423 7.9728 6.87057 7.98291C6.68512 8.01786 6.53069 7.96269 6.43405 7.90674C6.34881 7.85731 6.2916 7.79788 6.26511 7.76904C6.21453 7.71395 6.16451 7.64336 6.14108 7.61084L4.83179 5.79322C4.4314 5.23739 4.2312 4.95947 4.04373 4.9948C4.01896 4.99946 3.99488 5.00724 3.97205 5.01793C3.79929 5.09884 3.79929 5.44135 3.79929 6.12638V7.39893C3.7991 7.73012 3.53091 7.99851 3.19968 7.99854C2.86842 7.99854 2.60026 7.73014 2.60007 7.39893V2.79541C2.60006 2.75533 2.59912 2.66927 2.60788 2.59521C2.6125 2.55638 2.62415 2.47439 2.66452 2.38428C2.7102 2.28238 2.80314 2.14795 2.97409 2.06787C3.02353 2.04472 3.07572 2.02818 3.12936 2.01807C3.31489 1.9831 3.46926 2.03729 3.56589 2.09326C3.65119 2.14275 3.7084 2.20218 3.73483 2.23096C3.78542 2.28608 3.83546 2.35668 3.85886 2.38916L5.16716 4.20561C5.56755 4.76151 5.76774 5.03946 5.95522 5.00414C5.97999 4.99947 6.00408 4.9917 6.02691 4.98101C6.19968 4.9001 6.19968 4.55756 6.19968 3.87248V2.60107C6.19989 2.26989 6.46902 2.00147 6.80026 2.00146Z" fill="white"/>
</g>
<defs>
<filter id="filter0_i_1378_258" x="0" y="0" width="10" height="10" filterUnits="userSpaceOnUse" color-interpolation-filters="sRGB">
<feFlood flood-opacity="0" result="BackgroundImageFix"/>
<feBlend mode="normal" in="SourceGraphic" in2="BackgroundImageFix" result="shape"/>
<feColorMatrix in="SourceAlpha" type="matrix" values="0 0 0 0 0 0 0 0 0 0 0 0 0 0 0 0 0 0 127 0" result="hardAlpha"/>
<feOffset/>
<feGaussianBlur stdDeviation="1"/>
<feComposite in2="hardAlpha" operator="arithmetic" k2="-1" k3="1"/>
<feColorMatrix type="matrix" values="0 0 0 0 0.942 0 0 0 0 0.94 0 0 0 0 1 0 0 0 0.1 0"/>
<feBlend mode="hard-light" in2="shape" result="effect1_innerShadow_1378_258"/>
</filter>
</defs>
</svg>
