<svg width="10" height="10" viewBox="0 0 10 10" fill="none" xmlns="http://www.w3.org/2000/svg">
<g filter="url(#filter0_i_1725_250)">
<path d="M4.99951 5.64984C5.60146 5.64984 6.08438 5.83115 6.41455 6.01117C6.57912 6.10095 6.70837 6.19179 6.79834 6.26214C6.84322 6.29727 6.87995 6.32797 6.90576 6.35101C6.9184 6.36231 6.92907 6.37277 6.93701 6.38031L6.95068 6.39398L6.95264 6.39495V6.39593H6.95361L7.01709 6.47503C7.14514 6.66898 7.12415 6.9321 6.95361 7.10296C6.7828 7.27377 6.51973 7.29544 6.32568 7.16742L6.24854 7.10492L6.24658 7.10394V7.10296C6.2448 7.10149 6.24157 7.0996 6.23877 7.0971C6.22782 7.08734 6.20847 7.07084 6.18213 7.05023C6.12842 7.00823 6.04457 6.94883 5.93506 6.8891C5.71527 6.76932 5.39685 6.64984 4.99951 6.64984C4.60212 6.64999 4.28364 6.76927 4.06396 6.8891C3.95445 6.94888 3.87149 7.00827 3.81787 7.05023C3.79126 7.07105 3.77214 7.08736 3.76123 7.0971C3.75795 7.10004 3.75422 7.10134 3.75244 7.10296C3.55716 7.29793 3.24155 7.29813 3.04639 7.10296C2.85175 6.90765 2.85133 6.59099 3.04639 6.39593H3.04736V6.39495L3.04932 6.39398L3.06299 6.38031C3.07101 6.37271 3.08133 6.36254 3.09424 6.35101C3.12004 6.32795 3.15564 6.2974 3.20068 6.26214C3.2907 6.1917 3.42039 6.10122 3.58545 6.01117C3.91549 5.83114 4.39762 5.64999 4.99951 5.64984ZM3.75342 7.10394H3.75244V7.10492H3.75146L3.75244 7.10296L3.75342 7.10394ZM2.8999 2.75042C3.4001 2.75042 3.69971 3.15042 3.69971 3.75042C3.69967 4.35036 3.39987 4.75042 2.8999 4.75042C2.40003 4.75034 2.10013 4.35029 2.1001 3.75042C2.1001 3.15049 2.3998 2.75051 2.8999 2.75042ZM7.1001 2.75042C7.6003 2.75042 7.89991 3.15042 7.8999 3.75042C7.89986 4.35036 7.60007 4.75042 7.1001 4.75042C6.60027 4.7503 6.30033 4.35027 6.30029 3.75042C6.3003 3.15051 6.60004 2.75054 7.1001 2.75042Z" fill="white"/>
</g>
<defs>
<filter id="filter0_i_1725_250" x="0" y="0" width="10" height="10" filterUnits="userSpaceOnUse" color-interpolation-filters="sRGB">
<feFlood flood-opacity="0" result="BackgroundImageFix"/>
<feBlend mode="normal" in="SourceGraphic" in2="BackgroundImageFix" result="shape"/>
<feColorMatrix in="SourceAlpha" type="matrix" values="0 0 0 0 0 0 0 0 0 0 0 0 0 0 0 0 0 0 127 0" result="hardAlpha"/>
<feOffset/>
<feGaussianBlur stdDeviation="1"/>
<feComposite in2="hardAlpha" operator="arithmetic" k2="-1" k3="1"/>
<feColorMatrix type="matrix" values="0 0 0 0 0.942 0 0 0 0 0.94 0 0 0 0 1 0 0 0 0.1 0"/>
<feBlend mode="hard-light" in2="shape" result="effect1_innerShadow_1725_250"/>
</filter>
</defs>
</svg>
