<svg width="10" height="10" viewBox="0 0 10 10" fill="none" xmlns="http://www.w3.org/2000/svg">
<g filter="url(#filter0_i_1719_201)">
<path d="M5.6998 1.29958C5.9758 1.29958 6.19958 1.52363 6.1998 1.79958C6.1998 1.85735 6.1998 1.88623 6.20129 1.90348C6.21435 2.05402 6.25864 2.12668 6.38646 2.20727C6.40111 2.21651 6.44468 2.23897 6.53181 2.2839C7.06768 2.56018 7.43251 3.12055 7.42636 3.7654C7.42555 3.84778 7.4186 3.92865 7.40598 4.00762C7.34077 4.41584 7.30816 4.61996 7.31726 4.68103C7.32038 4.70198 7.31765 4.68713 7.32219 4.70781C7.33542 4.76813 7.4336 4.93866 7.62995 5.27973C7.77736 5.53579 7.86182 5.83259 7.86191 6.14919C7.86191 6.9812 7.28065 7.67549 6.50233 7.85272C6.33538 7.89073 6.1998 8.02875 6.1998 8.19997C6.19959 8.47594 5.97581 8.69997 5.6998 8.69997C5.42388 8.69987 5.20001 8.47587 5.1998 8.19997C5.1998 8.03386 5.06513 7.89919 4.89902 7.89919H4.70078C4.53466 7.89919 4.39999 8.03386 4.39999 8.19997C4.39978 8.47593 4.176 8.69997 3.89999 8.69997C3.624 8.69995 3.40021 8.47592 3.39999 8.19997C3.39999 8.03386 3.26533 7.89919 3.09921 7.89919H2.73788C2.46174 7.89919 2.23788 7.67534 2.23788 7.39919C2.23814 7.12327 2.4619 6.89919 2.73788 6.89919C2.90346 6.89919 3.03769 6.76497 3.03769 6.59939V3.39919C3.03769 3.23362 2.90346 3.09939 2.73788 3.09939C2.46174 3.09939 2.23788 2.87553 2.23788 2.59939C2.23804 2.32338 2.46184 2.09939 2.73788 2.09939H3.10019C3.26577 2.09939 3.39999 1.96516 3.39999 1.79958C3.40022 1.52364 3.624 1.2996 3.89999 1.29958C4.17599 1.29958 4.39976 1.52363 4.39999 1.79958C4.39999 1.96516 4.53422 2.09939 4.6998 2.09939H4.89999C5.06557 2.09939 5.1998 1.96516 5.1998 1.79958C5.20002 1.5237 5.42388 1.29969 5.6998 1.29958ZM4.03769 6.14919C4.03769 6.47794 4.03769 6.64231 4.12848 6.75295C4.14511 6.7732 4.16368 6.79178 4.18393 6.8084C4.29457 6.89919 4.45894 6.89919 4.78769 6.89919H6.11191C6.5258 6.89882 6.86191 6.56317 6.86191 6.14919C6.86165 5.73543 6.52564 5.39957 6.11191 5.39919H4.78769C4.45894 5.39919 4.29457 5.39919 4.18393 5.48999C4.16368 5.50661 4.14511 5.52518 4.12848 5.54544C4.03769 5.65607 4.03769 5.82044 4.03769 6.14919ZM4.03769 3.74929C4.03769 3.98266 4.03769 4.09935 4.08488 4.18768C4.12219 4.25751 4.17937 4.31469 4.2492 4.352C4.33754 4.39919 4.45422 4.39919 4.68759 4.39919H5.77695C6.13313 4.39883 6.42285 4.11189 6.42636 3.75564C6.42968 3.39459 6.13798 3.09975 5.77695 3.09939H4.68759C4.45422 3.09939 4.33754 3.09939 4.2492 3.14658C4.17937 3.18389 4.12219 3.24107 4.08488 3.3109C4.03769 3.39923 4.03769 3.51592 4.03769 3.74929Z" fill="white"/>
</g>
<defs>
<filter id="filter0_i_1719_201" x="0" y="0" width="10" height="10" filterUnits="userSpaceOnUse" color-interpolation-filters="sRGB">
<feFlood flood-opacity="0" result="BackgroundImageFix"/>
<feBlend mode="normal" in="SourceGraphic" in2="BackgroundImageFix" result="shape"/>
<feColorMatrix in="SourceAlpha" type="matrix" values="0 0 0 0 0 0 0 0 0 0 0 0 0 0 0 0 0 0 127 0" result="hardAlpha"/>
<feOffset/>
<feGaussianBlur stdDeviation="1"/>
<feComposite in2="hardAlpha" operator="arithmetic" k2="-1" k3="1"/>
<feColorMatrix type="matrix" values="0 0 0 0 0.942 0 0 0 0 0.94 0 0 0 0 1 0 0 0 0.1 0"/>
<feBlend mode="hard-light" in2="shape" result="effect1_innerShadow_1719_201"/>
</filter>
</defs>
</svg>
