<svg width="10" height="10" viewBox="0 0 10 10" fill="none" xmlns="http://www.w3.org/2000/svg">
<g filter="url(#filter0_i_1141_525)">
<path d="M4.90027 2.1001C6.11458 2.10023 6.91877 2.73753 7.08777 3.58252L7.08805 3.58391C7.09346 3.61052 7.09617 3.62382 7.09766 3.6373C7.09788 3.63929 7.09808 3.64129 7.09827 3.64328C7.09949 3.65678 7.09949 3.67036 7.09949 3.69752V3.69971C7.09948 4.16306 6.9732 4.5489 6.74011 4.8501C6.6722 4.93779 6.67221 5.06123 6.74011 5.14893C6.97323 5.45007 7.09941 5.83602 7.09949 6.29932V6.30707C7.09949 6.3316 7.09949 6.34386 7.09849 6.35606C7.09834 6.35787 7.09818 6.35968 7.098 6.36148C7.09678 6.37367 7.09457 6.38573 7.09014 6.40986L7.08875 6.41748C6.91969 7.26243 6.11447 7.89977 4.90027 7.8999C4.3573 7.89987 3.93813 7.77745 3.61121 7.56592C3.29052 7.35833 3.10969 7.09539 3.00085 6.93213C2.81727 6.65649 2.89138 6.2839 3.16687 6.1001C3.44257 5.91633 3.81509 5.99142 3.9989 6.26709C4.08998 6.4037 4.15948 6.49074 4.26355 6.55811C4.36157 6.62153 4.5435 6.69968 4.90027 6.69971C5.47954 6.69962 5.73673 6.50174 5.84437 6.33585C5.86016 6.31152 5.86805 6.29935 5.88017 6.25047C5.88112 6.24663 5.88404 6.23268 5.8847 6.22877C5.89318 6.17913 5.88994 6.1595 5.88345 6.12022C5.86341 5.99879 5.82481 5.92712 5.79089 5.8833C5.7377 5.81478 5.65605 5.75829 5.53894 5.71436C5.41975 5.6697 5.2892 5.64724 5.16687 5.6333C5.13943 5.63019 5.01924 5.61837 4.99011 5.61475C4.96821 5.61202 4.91058 5.60471 4.85046 5.5874C4.82399 5.57977 4.7492 5.55759 4.6698 5.50439C4.60202 5.45888 4.44599 5.32993 4.40808 5.10303L4.40351 5.04241C4.40197 5.0221 4.40121 5.01194 4.40113 5.00177C4.40112 5.00027 4.40112 4.99876 4.40113 4.99725C4.40121 4.98708 4.40197 4.97692 4.40351 4.95661L4.40808 4.896C4.44609 4.66919 4.60209 4.54008 4.6698 4.49463C4.74924 4.44141 4.82402 4.41924 4.85046 4.41162C4.91058 4.39432 4.96822 4.387 4.99011 4.38428C5.01923 4.38066 5.1394 4.36884 5.16687 4.36572C5.28921 4.35179 5.41975 4.32933 5.53894 4.28467C5.65613 4.24071 5.73772 4.1843 5.79089 4.11572C5.82488 4.07181 5.86355 4.00011 5.88354 3.87827C5.89001 3.83881 5.89324 3.81908 5.88465 3.76931C5.88397 3.76539 5.88102 3.75141 5.88005 3.74756C5.86779 3.69856 5.85982 3.68636 5.84388 3.66196C5.73565 3.49631 5.47804 3.2994 4.90027 3.29932C4.54369 3.29935 4.36161 3.37752 4.26355 3.44092C4.15952 3.50829 4.08998 3.59629 3.9989 3.73291C3.81497 4.00821 3.44242 4.08262 3.16687 3.89893C2.8914 3.71509 2.81723 3.34252 3.00085 3.06689C3.1097 2.90362 3.29052 2.64067 3.61121 2.43311C3.93813 2.22157 4.3573 2.10013 4.90027 2.1001Z" fill="white"/>
</g>
<defs>
<filter id="filter0_i_1141_525" x="0" y="0" width="10" height="10" filterUnits="userSpaceOnUse" color-interpolation-filters="sRGB">
<feFlood flood-opacity="0" result="BackgroundImageFix"/>
<feBlend mode="normal" in="SourceGraphic" in2="BackgroundImageFix" result="shape"/>
<feColorMatrix in="SourceAlpha" type="matrix" values="0 0 0 0 0 0 0 0 0 0 0 0 0 0 0 0 0 0 127 0" result="hardAlpha"/>
<feOffset/>
<feGaussianBlur stdDeviation="1"/>
<feComposite in2="hardAlpha" operator="arithmetic" k2="-1" k3="1"/>
<feColorMatrix type="matrix" values="0 0 0 0 0.942 0 0 0 0 0.94 0 0 0 0 1 0 0 0 0.1 0"/>
<feBlend mode="hard-light" in2="shape" result="effect1_innerShadow_1141_525"/>
</filter>
</defs>
</svg>
