<svg width="10" height="10" viewBox="0 0 10 10" fill="none" xmlns="http://www.w3.org/2000/svg">
<g filter="url(#filter0_i_1141_616)">
<path d="M7.23078 7.49192C7.23078 7.10532 6.91718 6.79172 6.53058 6.79172H3.5309C3.1444 6.79183 2.8307 7.10539 2.8307 7.49192C2.83076 7.8784 3.14444 8.19201 3.5309 8.19212L6.53127 8.19143C6.91776 8.19134 7.23073 7.87841 7.23078 7.49192ZM6.8869 2.0077C6.6936 1.67289 6.26531 1.55821 5.93051 1.75151L3.33272 3.25135C2.99791 3.44465 2.88323 3.87293 3.07653 4.20774C3.15685 4.34668 3.27853 4.44514 3.41627 4.50191L5.97194 5.97758C6.30674 6.17088 6.73503 6.05619 6.92833 5.72139C7.12139 5.38663 7.00616 4.95893 6.67145 4.76569L6.52313 4.67999C5.91947 4.3312 5.61764 4.1568 5.59341 3.89993C5.59045 3.86863 5.59046 3.83713 5.59342 3.80584C5.61774 3.54897 5.91962 3.37466 6.52338 3.02606L6.63071 2.96409C6.9654 2.77082 7.07999 2.34245 6.8869 2.0077Z" fill="white"/>
</g>
<defs>
<filter id="filter0_i_1141_616" x="0" y="0" width="10" height="10" filterUnits="userSpaceOnUse" color-interpolation-filters="sRGB">
<feFlood flood-opacity="0" result="BackgroundImageFix"/>
<feBlend mode="normal" in="SourceGraphic" in2="BackgroundImageFix" result="shape"/>
<feColorMatrix in="SourceAlpha" type="matrix" values="0 0 0 0 0 0 0 0 0 0 0 0 0 0 0 0 0 0 127 0" result="hardAlpha"/>
<feOffset/>
<feGaussianBlur stdDeviation="1"/>
<feComposite in2="hardAlpha" operator="arithmetic" k2="-1" k3="1"/>
<feColorMatrix type="matrix" values="0 0 0 0 0.942 0 0 0 0 0.94 0 0 0 0 1 0 0 0 0.1 0"/>
<feBlend mode="hard-light" in2="shape" result="effect1_innerShadow_1141_616"/>
</filter>
</defs>
</svg>
