<svg width="10" height="10" viewBox="0 0 10 10" fill="none" xmlns="http://www.w3.org/2000/svg">
<g filter="url(#filter0_i_1378_254)">
<path d="M3.19966 2.00045C3.53103 2.00045 3.79927 2.26869 3.79927 2.60006V6.04025C3.79927 6.37863 3.79927 6.54782 3.89511 6.66003C3.90872 6.67597 3.92356 6.69081 3.93949 6.70442C4.0517 6.80025 4.22089 6.80025 4.55927 6.80025H6.80025C7.13146 6.80044 7.39986 7.06861 7.39986 7.39986C7.39958 7.73088 7.13129 7.99929 6.80025 7.99947H3.57954C3.51011 7.99948 3.40373 8.00108 3.31001 7.98971C3.20218 7.97659 3.0343 7.93948 2.88033 7.80807C2.84851 7.78089 2.81864 7.75101 2.79146 7.7192C2.66003 7.5653 2.62297 7.39739 2.60982 7.28951C2.59845 7.19591 2.60004 7.08944 2.60005 7.01998V2.60006C2.60005 2.26877 2.8684 2.00058 3.19966 2.00045Z" fill="white"/>
</g>
<defs>
<filter id="filter0_i_1378_254" x="0" y="0" width="10" height="10" filterUnits="userSpaceOnUse" color-interpolation-filters="sRGB">
<feFlood flood-opacity="0" result="BackgroundImageFix"/>
<feBlend mode="normal" in="SourceGraphic" in2="BackgroundImageFix" result="shape"/>
<feColorMatrix in="SourceAlpha" type="matrix" values="0 0 0 0 0 0 0 0 0 0 0 0 0 0 0 0 0 0 127 0" result="hardAlpha"/>
<feOffset/>
<feGaussianBlur stdDeviation="1"/>
<feComposite in2="hardAlpha" operator="arithmetic" k2="-1" k3="1"/>
<feColorMatrix type="matrix" values="0 0 0 0 0.942 0 0 0 0 0.94 0 0 0 0 1 0 0 0 0.1 0"/>
<feBlend mode="hard-light" in2="shape" result="effect1_innerShadow_1378_254"/>
</filter>
</defs>
</svg>
