<svg width="10" height="10" viewBox="0 0 10 10" fill="none" xmlns="http://www.w3.org/2000/svg">
<g filter="url(#filter0_i_1205_4738)">
<path d="M6.69385 2C7.27865 2.00039 7.60534 2.67503 7.24268 3.13379L5.0717 5.876C4.77226 6.25423 4.62254 6.44334 4.6775 6.59944C4.68495 6.6206 4.69475 6.64085 4.70671 6.65982C4.79498 6.7998 5.03619 6.7998 5.5186 6.7998H6.80029C7.13149 6.79993 7.3998 7.06821 7.3999 7.39941C7.3998 7.73062 7.13149 7.99987 6.80029 8H3.30713C2.72187 8 2.39514 7.32413 2.7583 6.86523L4.92928 4.12303C5.22872 3.7448 5.37844 3.55568 5.32347 3.39958C5.31603 3.37843 5.30623 3.35818 5.29427 3.3392C5.20599 3.19922 4.96479 3.19922 4.48238 3.19922H3.19971C2.86858 3.19901 2.6002 2.93076 2.6001 2.59961C2.6001 2.26837 2.86852 2.00021 3.19971 2H6.69385Z" fill="white"/>
</g>
<defs>
<filter id="filter0_i_1205_4738" x="0" y="0" width="10" height="10" filterUnits="userSpaceOnUse" color-interpolation-filters="sRGB">
<feFlood flood-opacity="0" result="BackgroundImageFix"/>
<feBlend mode="normal" in="SourceGraphic" in2="BackgroundImageFix" result="shape"/>
<feColorMatrix in="SourceAlpha" type="matrix" values="0 0 0 0 0 0 0 0 0 0 0 0 0 0 0 0 0 0 127 0" result="hardAlpha"/>
<feOffset/>
<feGaussianBlur stdDeviation="1"/>
<feComposite in2="hardAlpha" operator="arithmetic" k2="-1" k3="1"/>
<feColorMatrix type="matrix" values="0 0 0 0 0.942 0 0 0 0 0.94 0 0 0 0 1 0 0 0 0.1 0"/>
<feBlend mode="hard-light" in2="shape" result="effect1_innerShadow_1205_4738"/>
</filter>
</defs>
</svg>
