<svg width="10" height="10" viewBox="0 0 10 10" fill="none" xmlns="http://www.w3.org/2000/svg">
<g filter="url(#filter0_i_1378_244)">
<path d="M5.31308 2C5.9803 2.00009 6.45734 2.11083 6.78574 2.24219C6.9493 2.30764 7.07405 2.3771 7.16464 2.4375C7.20973 2.46758 7.24647 2.49604 7.27499 2.51953C7.28887 2.53097 7.30097 2.54156 7.31113 2.55078C7.31627 2.55546 7.32157 2.56045 7.32578 2.56445L7.33652 2.5752L7.41367 2.66992C7.56714 2.90268 7.5412 3.21888 7.33652 3.42383C7.10229 3.65784 6.72313 3.65777 6.48886 3.42383L6.48907 3.42403C6.48958 3.42454 6.49 3.42513 6.49033 3.42578C6.49065 3.42643 6.49108 3.42702 6.49159 3.42753L6.49277 3.42871C6.49425 3.43012 6.49636 3.43139 6.49765 3.43262C6.50019 3.43505 6.50259 3.43773 6.50449 3.43945C6.50776 3.44241 6.51019 3.44437 6.51132 3.44531C6.50964 3.44403 6.50529 3.44097 6.49863 3.43652C6.47681 3.42198 6.42555 3.39091 6.33945 3.35645C6.16794 3.28791 5.84453 3.19931 5.31308 3.19922C4.31902 3.19922 3.51239 4.00596 3.5123 5C3.51251 5.99393 4.3191 6.7998 5.31308 6.7998H5.41269C5.99336 6.79965 6.30226 6.45301 6.42929 6.06348C6.49331 5.86702 6.32212 5.69922 6.11549 5.69922H5.61288C5.28151 5.69922 5.0123 5.43098 5.0123 5.09961C5.01239 4.76832 5.28157 4.5 5.61288 4.5H6.71249C7.30872 4.50022 7.56597 5.00503 7.6412 5.31934C7.72358 5.66382 7.69134 6.06595 7.57089 6.43555C7.32297 7.19583 6.63151 7.99983 5.41269 8H5.31308C3.65636 8 2.31329 6.65668 2.31308 5C2.31317 3.34322 3.65628 2 5.31308 2Z" fill="white"/>
</g>
<defs>
<filter id="filter0_i_1378_244" x="0" y="0" width="10" height="10" filterUnits="userSpaceOnUse" color-interpolation-filters="sRGB">
<feFlood flood-opacity="0" result="BackgroundImageFix"/>
<feBlend mode="normal" in="SourceGraphic" in2="BackgroundImageFix" result="shape"/>
<feColorMatrix in="SourceAlpha" type="matrix" values="0 0 0 0 0 0 0 0 0 0 0 0 0 0 0 0 0 0 127 0" result="hardAlpha"/>
<feOffset/>
<feGaussianBlur stdDeviation="1"/>
<feComposite in2="hardAlpha" operator="arithmetic" k2="-1" k3="1"/>
<feColorMatrix type="matrix" values="0 0 0 0 0.942 0 0 0 0 0.94 0 0 0 0 1 0 0 0 0.1 0"/>
<feBlend mode="hard-light" in2="shape" result="effect1_innerShadow_1378_244"/>
</filter>
</defs>
</svg>
