<svg width="10" height="10" viewBox="0 0 10 10" fill="none" xmlns="http://www.w3.org/2000/svg">
<g filter="url(#filter0_i_1378_256)">
<path d="M7.65572 2.02734L7.73677 2.04589C7.76308 2.05379 7.78877 2.064 7.81392 2.07519C7.99577 2.15624 8.09135 2.2986 8.13618 2.40038C8.17601 2.49081 8.18739 2.57275 8.19185 2.61132C8.20051 2.68634 8.19966 2.77512 8.19966 2.81933V7.40234C8.19945 7.73342 7.93115 8.00177 7.60005 8.00195C7.26881 8.00195 6.99968 7.73353 6.99947 7.40234V6.40698C6.99947 5.67614 6.99947 5.31072 6.82152 5.23147C6.7981 5.22104 6.77345 5.21366 6.74816 5.2095C6.55594 5.17788 6.35507 5.48314 5.95331 6.09365L5.58052 6.66015C5.57317 6.67133 5.53457 6.73074 5.49068 6.78124C5.44171 6.83755 5.3022 6.98218 5.06392 7.00585C5.02139 7.01007 4.97852 7.01005 4.93599 7.00585C4.69774 6.98222 4.55827 6.83761 4.50923 6.78124C4.46545 6.7309 4.42695 6.67166 4.41939 6.66015L4.04552 6.0924C3.64377 5.48232 3.4429 5.17729 3.25072 5.20893C3.22543 5.2131 3.20079 5.22048 3.17738 5.23091C2.99947 5.31018 2.99947 5.67541 2.99947 6.40589V7.40234C2.99925 7.73349 2.73104 8.00188 2.39986 8.00195C2.06862 8.00195 1.80046 7.73353 1.80025 7.40234V2.81933C1.80025 2.77512 1.79842 2.68634 1.80708 2.61132C1.81154 2.57277 1.82387 2.49087 1.86372 2.40038C1.90857 2.29865 2.00339 2.15622 2.18501 2.07519L2.26314 2.04589C2.28964 2.03795 2.31684 2.03184 2.34419 2.02734L2.41646 2.01952C2.57938 2.01155 2.71076 2.0693 2.79243 2.12206C2.87522 2.17562 2.92962 2.23784 2.95454 2.26757C3.00304 2.32546 3.05134 2.39961 3.07564 2.43652L4.52347 4.63619C4.7262 4.9442 4.82757 5.09821 4.96989 5.11234C4.98958 5.11429 5.00941 5.1143 5.0291 5.11235C5.17142 5.09825 5.27283 4.94426 5.47563 4.6363L6.92427 2.43652C6.94861 2.39955 6.99693 2.32539 7.04536 2.26757C7.07037 2.23774 7.12472 2.17555 7.20747 2.12206C7.28921 2.06928 7.42044 2.01146 7.58345 2.01952L7.65572 2.02734Z" fill="white"/>
</g>
<defs>
<filter id="filter0_i_1378_256" x="0" y="0" width="10" height="10" filterUnits="userSpaceOnUse" color-interpolation-filters="sRGB">
<feFlood flood-opacity="0" result="BackgroundImageFix"/>
<feBlend mode="normal" in="SourceGraphic" in2="BackgroundImageFix" result="shape"/>
<feColorMatrix in="SourceAlpha" type="matrix" values="0 0 0 0 0 0 0 0 0 0 0 0 0 0 0 0 0 0 127 0" result="hardAlpha"/>
<feOffset/>
<feGaussianBlur stdDeviation="1"/>
<feComposite in2="hardAlpha" operator="arithmetic" k2="-1" k3="1"/>
<feColorMatrix type="matrix" values="0 0 0 0 0.942 0 0 0 0 0.94 0 0 0 0 1 0 0 0 0.1 0"/>
<feBlend mode="hard-light" in2="shape" result="effect1_innerShadow_1378_256"/>
</filter>
</defs>
</svg>
