<svg width="10" height="10" viewBox="0 0 10 10" fill="none" xmlns="http://www.w3.org/2000/svg">
<g filter="url(#filter0_i_1711_92)">
<path d="M7.29999 1.59975C7.57598 1.59983 7.79985 1.82377 7.79999 2.09975C7.79999 2.37584 7.57606 2.59967 7.29999 2.59975H6.76292C6.60749 2.59975 6.52978 2.59975 6.49006 2.61797C6.41574 2.65208 6.38122 2.70115 6.37421 2.78261C6.37047 2.82615 6.401 2.91126 6.46207 3.08146C6.48888 3.15621 6.50229 3.19358 6.5184 3.21614C6.54696 3.25616 6.57947 3.27903 6.62678 3.2924C6.65346 3.29994 6.68712 3.29994 6.75445 3.29994H7.29999C7.57598 3.30002 7.79985 3.52396 7.79999 3.79994C7.79988 4.07595 7.576 4.29986 7.29999 4.29994H6.86447C6.72908 4.29994 6.66139 4.29994 6.61302 4.32987C6.60525 4.33467 6.60005 4.33835 6.59293 4.34408C6.54861 4.37972 6.52278 4.45284 6.47113 4.5991C6.29804 5.08922 5.95995 5.50116 5.52345 5.76841C5.13297 6.00748 4.93773 6.12702 4.92514 6.22142C4.92299 6.23752 4.92275 6.24461 4.9238 6.26083C4.92997 6.35586 5.08467 6.46563 5.39405 6.68516L6.38983 7.39174C6.61464 7.55147 6.66728 7.86295 6.508 8.08803C6.34822 8.31323 6.03594 8.36692 5.81073 8.20717L2.73783 6.02577C2.73761 6.02561 2.73734 6.02553 2.73706 6.02553C2.73671 6.02553 2.73637 6.02539 2.73612 6.02514L2.7357 6.02471C2.73559 6.02461 2.73547 6.02451 2.73535 6.02442C2.73478 6.02404 2.73368 6.02337 2.7326 6.0226C2.73138 6.02171 2.72824 6.01934 2.72479 6.01674C2.33973 5.72661 2.53492 5.11369 3.01678 5.09975H4.34979C4.68289 5.09968 4.98512 4.96923 5.20883 4.75668C5.34464 4.62764 5.41255 4.56312 5.38192 4.44837C5.37859 4.43586 5.37049 4.4156 5.3643 4.40423C5.30746 4.29994 5.19184 4.29994 4.96059 4.29994H2.8996C2.6237 4.29973 2.3997 4.07586 2.3996 3.79994C2.39973 3.52405 2.62372 3.30015 2.8996 3.29994H4.86069C5.10652 3.29994 5.22943 3.29994 5.28349 3.18514C5.28925 3.1729 5.29645 3.15076 5.29899 3.13747C5.3228 3.01283 5.24248 2.95442 5.08184 2.83758C4.87629 2.68809 4.62349 2.5998 4.34979 2.59975H2.79999C2.52385 2.59975 2.29999 2.37589 2.29999 2.09975C2.30012 1.82372 2.52393 1.59975 2.79999 1.59975H7.29999Z" fill="white"/>
</g>
<defs>
<filter id="filter0_i_1711_92" x="0" y="0" width="10" height="10" filterUnits="userSpaceOnUse" color-interpolation-filters="sRGB">
<feFlood flood-opacity="0" result="BackgroundImageFix"/>
<feBlend mode="normal" in="SourceGraphic" in2="BackgroundImageFix" result="shape"/>
<feColorMatrix in="SourceAlpha" type="matrix" values="0 0 0 0 0 0 0 0 0 0 0 0 0 0 0 0 0 0 127 0" result="hardAlpha"/>
<feOffset/>
<feGaussianBlur stdDeviation="1"/>
<feComposite in2="hardAlpha" operator="arithmetic" k2="-1" k3="1"/>
<feColorMatrix type="matrix" values="0 0 0 0 0.942 0 0 0 0 0.94 0 0 0 0 1 0 0 0 0.1 0"/>
<feBlend mode="hard-light" in2="shape" result="effect1_innerShadow_1711_92"/>
</filter>
</defs>
</svg>
