<svg width="10" height="10" viewBox="0 0 10 10" fill="none" xmlns="http://www.w3.org/2000/svg">
<g filter="url(#filter0_i_1713_102)">
<path d="M6.79996 1.70128C7.07592 1.70134 7.29974 1.92536 7.29996 2.20128V3.04991C7.29996 3.23683 7.29996 3.3303 7.34015 3.39991C7.36648 3.44552 7.40435 3.48339 7.44996 3.50972C7.51957 3.54991 7.61303 3.54991 7.79996 3.54991C8.04832 3.55011 8.25015 3.7517 8.25015 4.00011C8.25009 4.24846 8.04828 4.4501 7.79996 4.4503C7.61303 4.4503 7.51957 4.4503 7.44996 4.49049C7.40435 4.51682 7.36648 4.5547 7.34015 4.6003C7.29996 4.66992 7.29996 4.76338 7.29996 4.9503V5.04991C7.29996 5.23683 7.29996 5.3303 7.34015 5.39991C7.36648 5.44552 7.40435 5.48339 7.44996 5.50972C7.51957 5.54991 7.61303 5.54991 7.79996 5.54991C8.04832 5.55011 8.25015 5.7517 8.25015 6.00011C8.25007 6.24845 8.04827 6.4501 7.79996 6.4503C7.61303 6.4503 7.51957 6.4503 7.44996 6.49049C7.40435 6.51683 7.36648 6.5547 7.34015 6.6003C7.29996 6.66992 7.29996 6.76338 7.29996 6.9503V7.56554C7.29996 7.61547 7.30083 7.69845 7.29312 7.76671C7.28917 7.80153 7.2787 7.87238 7.24527 7.94933C7.20779 8.03535 7.12661 8.16008 6.96793 8.22862C6.92444 8.24734 6.87802 8.26068 6.83121 8.26768C6.65993 8.29321 6.52457 8.23023 6.44742 8.17686C6.37839 8.12905 6.33233 8.07437 6.3107 8.04698C6.26813 7.99304 6.22569 7.92238 6.19937 7.87999L5.4789 6.71963C5.40157 6.59508 5.3629 6.53281 5.30375 6.49586C5.29514 6.49048 5.28626 6.48554 5.27715 6.48106C5.21456 6.4503 5.14126 6.4503 4.99465 6.4503H4.26937C4.01559 6.4503 3.8887 6.4503 3.80454 6.52218C3.79259 6.53239 3.78146 6.54352 3.77125 6.55547C3.69937 6.63963 3.69937 6.76652 3.69937 7.0203V7.79893C3.69915 8.07489 3.47538 8.29893 3.19937 8.29893C2.92349 8.29879 2.69959 8.0748 2.69937 7.79893V6.94933C2.69937 6.76333 2.69937 6.67033 2.65956 6.60097C2.63309 6.55484 2.59483 6.51658 2.54871 6.49011C2.47935 6.4503 2.38635 6.4503 2.20035 6.4503C1.95187 6.4503 1.75023 6.24857 1.75015 6.00011C1.75015 5.75158 1.95182 5.54991 2.20035 5.54991C2.38635 5.54991 2.47935 5.54991 2.54871 5.5101C2.59483 5.48363 2.63309 5.44537 2.65956 5.39925C2.69937 5.32989 2.69937 5.23689 2.69937 5.05089V4.94933C2.69937 4.76333 2.69937 4.67033 2.65956 4.60097C2.63309 4.55484 2.59483 4.51658 2.54871 4.49011C2.47935 4.4503 2.38635 4.4503 2.20035 4.4503C1.95186 4.4503 1.75022 4.24858 1.75015 4.00011C1.75015 3.75158 1.95182 3.54991 2.20035 3.54991C2.38635 3.54991 2.47935 3.54991 2.54871 3.5101C2.59483 3.48363 2.63309 3.44537 2.65956 3.39925C2.69937 3.32989 2.69937 3.23689 2.69937 3.05089V2.43468C2.69937 2.38489 2.69852 2.30186 2.70621 2.23351C2.71015 2.19876 2.7198 2.12767 2.75308 2.05089C2.79048 1.96487 2.87256 1.84025 3.0314 1.77159L3.09879 1.74815C3.12139 1.74171 3.14483 1.73604 3.16812 1.73253L3.28922 1.72862C3.4032 1.73794 3.49398 1.78327 3.55191 1.82335C3.62111 1.87125 3.66605 1.92684 3.68765 1.95421C3.7303 2.00825 3.77365 2.07885 3.79996 2.1212L4.5204 3.28073C4.59775 3.40521 4.63642 3.46746 4.69556 3.50438C4.70417 3.50976 4.71304 3.51469 4.72216 3.51917C4.78473 3.54991 4.85801 3.54991 5.00456 3.54991H5.72996C5.98374 3.54991 6.11063 3.54991 6.19479 3.47803C6.20674 3.46783 6.21787 3.4567 6.22808 3.44475C6.29996 3.36059 6.29996 3.2337 6.29996 2.97991V2.20128C6.30017 1.92541 6.52407 1.70142 6.79996 1.70128ZM3.69937 5.17364C3.69937 5.24452 3.69937 5.27996 3.70533 5.30942C3.72926 5.42763 3.82165 5.52003 3.93986 5.54395C3.96932 5.54991 4.00476 5.54991 4.07564 5.54991C4.19425 5.54991 4.25356 5.54991 4.29287 5.53902C4.45423 5.49431 4.54776 5.32616 4.50064 5.16549C4.48916 5.12634 4.45788 5.07596 4.39533 4.97519L4.13926 4.5627C4.09588 4.49281 4.01946 4.4503 3.9372 4.4503C3.80585 4.4503 3.69937 4.55678 3.69937 4.68813V5.17364ZM5.85891 5.43722C5.90241 5.50729 5.97903 5.54991 6.0615 5.54991C6.1932 5.54991 6.29996 5.44315 6.29996 5.31146V4.82692C6.29996 4.75572 6.29996 4.72011 6.29394 4.69053C6.26995 4.57253 6.17773 4.48031 6.05973 4.45632C6.03015 4.4503 5.99454 4.4503 5.92334 4.4503C5.80418 4.4503 5.7446 4.4503 5.70512 4.46129C5.5441 4.50613 5.45077 4.67391 5.4976 4.83437C5.50909 4.87371 5.54051 4.92433 5.60336 5.02556L5.85891 5.43722Z" fill="white"/>
</g>
<defs>
<filter id="filter0_i_1713_102" x="0" y="0" width="10" height="10" filterUnits="userSpaceOnUse" color-interpolation-filters="sRGB">
<feFlood flood-opacity="0" result="BackgroundImageFix"/>
<feBlend mode="normal" in="SourceGraphic" in2="BackgroundImageFix" result="shape"/>
<feColorMatrix in="SourceAlpha" type="matrix" values="0 0 0 0 0 0 0 0 0 0 0 0 0 0 0 0 0 0 127 0" result="hardAlpha"/>
<feOffset/>
<feGaussianBlur stdDeviation="1"/>
<feComposite in2="hardAlpha" operator="arithmetic" k2="-1" k3="1"/>
<feColorMatrix type="matrix" values="0 0 0 0 0.942 0 0 0 0 0.94 0 0 0 0 1 0 0 0 0.1 0"/>
<feBlend mode="hard-light" in2="shape" result="effect1_innerShadow_1713_102"/>
</filter>
</defs>
</svg>
