<svg width="10" height="10" viewBox="0 0 10 10" fill="none" xmlns="http://www.w3.org/2000/svg">
<g filter="url(#filter0_i_1241_495)">
<path d="M2.5 2C2.77614 2 3 2.22386 3 2.5V5.86C3 6.36757 3 6.62135 3.14376 6.78967C3.16417 6.81357 3.18643 6.83583 3.21033 6.85624C3.37865 7 3.63243 7 4.14 7H7.5C7.77614 7 8 7.22386 8 7.5C8 7.77614 7.77614 8 7.5 8H2.7002C2.3136 8 2 7.6864 2 7.2998V2.5C2 2.22386 2.22386 2 2.5 2ZM7.5 2C7.77614 2 8 2.22386 8 2.5C8 3.35897 7.79051 4.03265 7.44824 4.55176C7.10748 5.0685 6.65575 5.40056 6.21777 5.6123C5.78225 5.82281 5.35259 5.91907 5.03711 5.96289C4.87848 5.9849 4.74513 5.99416 4.64941 5.99805C4.60141 5.99999 4.56226 5.99997 4.53418 6H4.4834C4.20743 5.9908 3.99084 5.75936 4 5.4834C4.0092 5.20743 4.24064 4.99084 4.5166 5C4.51941 5.00005 4.52528 5.00001 4.5332 5C4.54903 4.99998 4.57457 5.00039 4.6084 4.99902C4.67663 4.99626 4.77813 4.98866 4.90039 4.97168C5.14735 4.93734 5.46794 4.86382 5.78223 4.71191C6.0941 4.56117 6.39261 4.33714 6.61426 4.00098C6.83434 3.66698 7 3.19072 7 2.5C7 2.22386 7.22386 2 7.5 2Z" fill="white"/>
</g>
<defs>
<filter id="filter0_i_1241_495" x="0" y="0" width="10" height="10" filterUnits="userSpaceOnUse" color-interpolation-filters="sRGB">
<feFlood flood-opacity="0" result="BackgroundImageFix"/>
<feBlend mode="normal" in="SourceGraphic" in2="BackgroundImageFix" result="shape"/>
<feColorMatrix in="SourceAlpha" type="matrix" values="0 0 0 0 0 0 0 0 0 0 0 0 0 0 0 0 0 0 127 0" result="hardAlpha"/>
<feOffset/>
<feGaussianBlur stdDeviation="1"/>
<feComposite in2="hardAlpha" operator="arithmetic" k2="-1" k3="1"/>
<feColorMatrix type="matrix" values="0 0 0 0 0.942 0 0 0 0 0.94 0 0 0 0 1 0 0 0 0.1 0"/>
<feBlend mode="hard-light" in2="shape" result="effect1_innerShadow_1241_495"/>
</filter>
</defs>
</svg>
