<svg width="10" height="10" viewBox="0 0 10 10" fill="none" xmlns="http://www.w3.org/2000/svg">
<g filter="url(#filter0_i_1728_117)">
<path fill-rule="evenodd" clip-rule="evenodd" d="M6.06097 5.25C6.40832 5.25 6.58242 5.24953 6.70159 5.38184C6.7156 5.39741 6.73562 5.4235 6.74651 5.44141C6.8391 5.59364 6.79846 5.72942 6.71722 6C6.4977 6.73105 5.93158 7.25 5.02093 7.25C4.11052 7.24986 3.54512 6.73092 3.32562 6C3.24438 5.72942 3.20373 5.59364 3.29632 5.44141C3.30722 5.42351 3.32726 5.39737 3.34124 5.38184C3.46037 5.2497 3.63391 5.25 3.98089 5.25H6.06097ZM1.94085 5.08008C1.9651 5.08619 1.99551 5.09749 2.018 5.1084C2.19937 5.19665 2.2396 5.4124 2.31976 5.84375C2.36101 6.06577 2.38992 6.27846 2.38519 6.42676C2.37003 6.90012 1.91308 7.42532 1.2221 7.17383C0.531579 6.92227 0.519448 6.22682 0.811944 5.85449C0.903644 5.73783 1.0624 5.5928 1.23675 5.44922C1.57535 5.17038 1.7452 5.03111 1.94085 5.08008ZM8.05999 5.08008C8.25547 5.03136 8.4248 5.1706 8.76312 5.44922C8.93746 5.5928 9.09623 5.73783 9.18792 5.85449C9.4805 6.22685 9.46855 6.9223 8.77776 7.17383C8.08679 7.42533 7.62981 6.90013 7.61468 6.42676C7.60995 6.27845 7.63885 6.06577 7.68011 5.84375C7.76028 5.41237 7.80049 5.19666 7.98187 5.1084C8.00449 5.0974 8.03562 5.08618 8.05999 5.08008ZM3.12151 2.75C3.51188 2.75001 3.81336 2.90491 4.00726 3.04688C4.10452 3.11812 4.17999 3.18915 4.23187 3.24414C4.25792 3.27179 4.27892 3.29665 4.29437 3.31543C4.30199 3.32471 4.30883 3.33329 4.3139 3.33984C4.3163 3.34294 4.31893 3.34623 4.32073 3.34863C4.32138 3.34954 4.3221 3.35078 4.32269 3.35156L4.32464 3.35352V3.35449C4.32076 3.35757 4.28248 3.38615 3.92132 3.65039L4.32562 3.35449C4.48839 3.57731 4.43991 3.89071 4.21722 4.05371C4.02241 4.1961 3.75847 4.17642 3.58636 4.02051L3.51995 3.94727V3.94824C3.51691 3.94463 3.51156 3.93835 3.50433 3.93066C3.48557 3.91077 3.4554 3.88207 3.41644 3.85352C3.33719 3.79551 3.23846 3.75001 3.12151 3.75C3.00461 3.75005 2.90581 3.79552 2.82659 3.85352C2.78771 3.88203 2.75743 3.9108 2.7387 3.93066L2.7221 3.94824C2.55843 4.16775 2.24837 4.2154 2.02679 4.05371C1.80401 3.89073 1.75558 3.57734 1.91839 3.35449L1.91937 3.35352L1.92034 3.35156C1.92104 3.35063 1.9224 3.34967 1.92327 3.34863C1.92514 3.34615 1.92762 3.34305 1.93011 3.33984C1.93515 3.33333 1.94111 3.32465 1.94866 3.31543C1.9641 3.29665 1.98511 3.27178 2.01116 3.24414C2.063 3.18917 2.13853 3.11813 2.23577 3.04688C2.42964 2.90493 2.73124 2.75005 3.12151 2.75ZM6.92132 2.75C7.31168 2.75 7.61316 2.90492 7.80706 3.04688C7.90444 3.11818 7.97976 3.18911 8.03167 3.24414C8.05781 3.27187 8.07869 3.2966 8.09417 3.31543C8.10187 3.32479 8.1086 3.33325 8.1137 3.33984C8.11615 3.34301 8.1187 3.34618 8.12054 3.34863C8.12125 3.3496 8.12187 3.35072 8.12249 3.35156L8.12444 3.35352V3.35449C8.11935 3.35847 8.07589 3.39083 7.72112 3.65039L8.12542 3.35449C8.28835 3.57732 8.23978 3.89067 8.01702 4.05371C7.82215 4.19596 7.5582 4.17653 7.38616 4.02051L7.31976 3.94727V3.94824C7.31669 3.9446 7.31146 3.93844 7.30413 3.93066C7.28534 3.91074 7.25532 3.88213 7.21624 3.85352C7.13699 3.79551 7.03826 3.75 6.92132 3.75C6.80458 3.75015 6.70553 3.79558 6.6264 3.85352C6.58764 3.88197 6.5572 3.91085 6.53851 3.93066L6.52191 3.94824C6.35814 4.16766 6.04813 4.21556 5.82659 4.05371C5.6039 3.89077 5.55556 3.57732 5.71819 3.35449L5.71917 3.35352L5.72015 3.35156C5.7208 3.35069 5.72223 3.34957 5.72308 3.34863C5.72491 3.3462 5.72748 3.34297 5.72991 3.33984C5.73492 3.33337 5.74099 3.32457 5.74847 3.31543C5.76387 3.29669 5.78501 3.2717 5.81097 3.24414C5.86276 3.18922 5.93845 3.11807 6.03558 3.04688C6.22938 2.90498 6.53122 2.75015 6.92132 2.75Z" fill="white"/>
</g>
<defs>
<filter id="filter0_i_1728_117" x="0" y="0" width="10" height="10" filterUnits="userSpaceOnUse" color-interpolation-filters="sRGB">
<feFlood flood-opacity="0" result="BackgroundImageFix"/>
<feBlend mode="normal" in="SourceGraphic" in2="BackgroundImageFix" result="shape"/>
<feColorMatrix in="SourceAlpha" type="matrix" values="0 0 0 0 0 0 0 0 0 0 0 0 0 0 0 0 0 0 127 0" result="hardAlpha"/>
<feOffset/>
<feGaussianBlur stdDeviation="1"/>
<feComposite in2="hardAlpha" operator="arithmetic" k2="-1" k3="1"/>
<feColorMatrix type="matrix" values="0 0 0 0 0.942 0 0 0 0 0.94 0 0 0 0 1 0 0 0 0.1 0"/>
<feBlend mode="hard-light" in2="shape" result="effect1_innerShadow_1728_117"/>
</filter>
</defs>
</svg>
