<svg width="10" height="10" viewBox="0 0 10 10" fill="none" xmlns="http://www.w3.org/2000/svg">
<g filter="url(#filter0_i_1164_204)">
<path d="M2.95 5C2.52129 5 2.30694 5 2.15761 4.83023C2.14031 4.81056 2.11562 4.77649 2.10232 4.75393C1.98749 4.55915 2.04138 4.3947 2.14917 4.06579C2.17281 3.99364 2.19922 3.92231 2.22836 3.85195C2.37913 3.48797 2.6001 3.15725 2.87868 2.87868C3.15726 2.6001 3.48797 2.37913 3.85195 2.22836C4.21593 2.0776 4.60604 2 5 2C5.39397 2 5.78407 2.0776 6.14805 2.22836C6.51203 2.37913 6.84275 2.6001 7.12132 2.87868C7.3999 3.15726 7.62088 3.48797 7.77164 3.85195C7.80078 3.92231 7.82719 3.99364 7.85084 4.0658C7.95862 4.3947 8.01251 4.55916 7.89768 4.75393C7.88438 4.77649 7.85969 4.81057 7.84239 4.83023C7.69306 5 7.47871 5 7.05 5L5 5L2.95 5Z" fill="white"/>
</g>
<defs>
<filter id="filter0_i_1164_204" x="0" y="0" width="10" height="10" filterUnits="userSpaceOnUse" color-interpolation-filters="sRGB">
<feFlood flood-opacity="0" result="BackgroundImageFix"/>
<feBlend mode="normal" in="SourceGraphic" in2="BackgroundImageFix" result="shape"/>
<feColorMatrix in="SourceAlpha" type="matrix" values="0 0 0 0 0 0 0 0 0 0 0 0 0 0 0 0 0 0 127 0" result="hardAlpha"/>
<feOffset/>
<feGaussianBlur stdDeviation="1"/>
<feComposite in2="hardAlpha" operator="arithmetic" k2="-1" k3="1"/>
<feColorMatrix type="matrix" values="0 0 0 0 0.942 0 0 0 0 0.94 0 0 0 0 1 0 0 0 0.1 0"/>
<feBlend mode="hard-light" in2="shape" result="effect1_innerShadow_1164_204"/>
</filter>
</defs>
</svg>
