<svg width="10" height="10" viewBox="0 0 10 10" fill="none" xmlns="http://www.w3.org/2000/svg">
<g filter="url(#filter0_i_1241_497)">
<path d="M2.5 2C2.77614 2 3 2.22386 3 2.5V5.86C3 6.36757 3 6.62135 3.14376 6.78967C3.16417 6.81357 3.18643 6.83583 3.21033 6.85624C3.37865 7 3.63243 7 4.14 7H7.5C7.77614 7 8 7.22386 8 7.5C8 7.77614 7.77614 8 7.5 8H2.7002C2.3136 8 2 7.6864 2 7.2998V2.5C2 2.22386 2.22386 2 2.5 2ZM7.5 2C7.77614 2 8 2.22386 8 2.5C8 3.23454 7.77192 3.75372 7.32422 4.07715C6.92993 4.36191 6.427 4.43567 6.08203 4.49316C5.67724 4.56063 5.42991 4.61202 5.26172 4.7334C5.14704 4.81622 5 4.98463 5 5.5C5 5.77614 4.77614 6 4.5 6C4.22386 6 4 5.77614 4 5.5C4 4.76546 4.22808 4.24628 4.67578 3.92285C5.07007 3.63809 5.573 3.56433 5.91797 3.50684C6.32277 3.43937 6.57009 3.38798 6.73828 3.2666C6.85296 3.18378 7 3.01537 7 2.5C7 2.22386 7.22386 2 7.5 2Z" fill="white"/>
</g>
<defs>
<filter id="filter0_i_1241_497" x="0" y="0" width="10" height="10" filterUnits="userSpaceOnUse" color-interpolation-filters="sRGB">
<feFlood flood-opacity="0" result="BackgroundImageFix"/>
<feBlend mode="normal" in="SourceGraphic" in2="BackgroundImageFix" result="shape"/>
<feColorMatrix in="SourceAlpha" type="matrix" values="0 0 0 0 0 0 0 0 0 0 0 0 0 0 0 0 0 0 127 0" result="hardAlpha"/>
<feOffset/>
<feGaussianBlur stdDeviation="1"/>
<feComposite in2="hardAlpha" operator="arithmetic" k2="-1" k3="1"/>
<feColorMatrix type="matrix" values="0 0 0 0 0.942 0 0 0 0 0.94 0 0 0 0 1 0 0 0 0.1 0"/>
<feBlend mode="hard-light" in2="shape" result="effect1_innerShadow_1241_497"/>
</filter>
</defs>
</svg>
