<svg width="10" height="10" viewBox="0 0 10 10" fill="none" xmlns="http://www.w3.org/2000/svg">
<g filter="url(#filter0_i_1695_73)">
<path fill-rule="evenodd" clip-rule="evenodd" d="M3.01124 1.7918C3.23656 1.63235 3.54893 1.68567 3.7085 1.91095L4.43585 2.93788C4.6893 3.29573 4.81603 3.47465 4.99216 3.49583C5.01674 3.49879 5.04154 3.49945 5.06624 3.49782C5.24326 3.48614 5.37942 3.31429 5.65174 2.97058L6.50831 1.88946C6.67975 1.67318 6.99403 1.63707 7.21045 1.80841C7.42682 1.9798 7.46374 2.29409 7.29249 2.51055L6.18884 3.90351C6.05967 4.06654 5.99509 4.14805 5.97287 4.21124C5.89924 4.42058 6.0101 4.64984 6.2199 4.72213C6.28323 4.74395 6.38722 4.74395 6.59522 4.74395C6.8435 4.74421 7.04536 4.94582 7.04542 5.19415C7.04542 5.44252 6.84353 5.64409 6.59522 5.64434H5.85059C5.65724 5.64434 5.50049 5.80109 5.50049 5.99444C5.50049 6.1878 5.65724 6.34454 5.85059 6.34454H6.49463C6.74316 6.34454 6.94483 6.54621 6.94483 6.79473C6.94457 7.04304 6.743 7.24493 6.49463 7.24493H6.05518C5.91125 7.24493 5.83928 7.24493 5.78086 7.26324C5.65587 7.30241 5.55798 7.40031 5.5188 7.5253C5.50049 7.58371 5.50049 7.65568 5.50049 7.79962C5.50049 8.07565 5.27649 8.29944 5.00049 8.29962C4.72435 8.29962 4.50049 8.07576 4.50049 7.79962C4.50049 7.65568 4.50049 7.58371 4.48219 7.5253C4.44301 7.40031 4.34512 7.30241 4.22013 7.26324C4.16171 7.24493 4.08974 7.24493 3.94581 7.24493H3.49463C3.24632 7.24486 3.0447 7.043 3.04444 6.79473C3.04444 6.54625 3.24616 6.34461 3.49463 6.34454H4.1504C4.34375 6.34454 4.50049 6.1878 4.50049 5.99444C4.50049 5.80109 4.34375 5.64434 4.1504 5.64434H3.39503C3.1465 5.64434 2.94483 5.44268 2.94483 5.19415C2.94488 4.94566 3.14653 4.74395 3.39503 4.74395C3.67066 4.74395 3.80848 4.74395 3.8915 4.70345C4.05027 4.62599 4.13943 4.45355 4.11084 4.27922C4.09589 4.18807 4.01622 4.07562 3.85686 3.85071L2.8921 2.48907C2.73253 2.26374 2.78592 1.95141 3.01124 1.7918Z" fill="white"/>
</g>
<defs>
<filter id="filter0_i_1695_73" x="0" y="0" width="10" height="10" filterUnits="userSpaceOnUse" color-interpolation-filters="sRGB">
<feFlood flood-opacity="0" result="BackgroundImageFix"/>
<feBlend mode="normal" in="SourceGraphic" in2="BackgroundImageFix" result="shape"/>
<feColorMatrix in="SourceAlpha" type="matrix" values="0 0 0 0 0 0 0 0 0 0 0 0 0 0 0 0 0 0 127 0" result="hardAlpha"/>
<feOffset/>
<feGaussianBlur stdDeviation="1"/>
<feComposite in2="hardAlpha" operator="arithmetic" k2="-1" k3="1"/>
<feColorMatrix type="matrix" values="0 0 0 0 0.942 0 0 0 0 0.94 0 0 0 0 1 0 0 0 0.1 0"/>
<feBlend mode="hard-light" in2="shape" result="effect1_innerShadow_1695_73"/>
</filter>
</defs>
</svg>
