<svg width="10" height="10" viewBox="0 0 10 10" fill="none" xmlns="http://www.w3.org/2000/svg">
<g filter="url(#filter0_i_1241_491)">
<path d="M2.5 2C2.77614 2 3 2.22386 3 2.5V5.86C3 6.36757 3 6.62135 3.14376 6.78967C3.16417 6.81357 3.18643 6.83583 3.21033 6.85624C3.37865 7 3.63243 7 4.14 7H7.5C7.77614 7 8 7.22386 8 7.5C8 7.77614 7.77614 8 7.5 8H2.7002C2.3136 8 2 7.6864 2 7.2998V2.5C2 2.22386 2.22386 2 2.5 2ZM7.14648 2.14648C7.34175 1.95122 7.65825 1.95122 7.85352 2.14648C8.04878 2.34175 8.04878 2.65825 7.85352 2.85352L4.85352 5.85352C4.65825 6.04878 4.34175 6.04878 4.14648 5.85352C3.95122 5.65825 3.95122 5.34175 4.14648 5.14648L7.14648 2.14648Z" fill="white"/>
</g>
<defs>
<filter id="filter0_i_1241_491" x="0" y="0" width="10" height="10" filterUnits="userSpaceOnUse" color-interpolation-filters="sRGB">
<feFlood flood-opacity="0" result="BackgroundImageFix"/>
<feBlend mode="normal" in="SourceGraphic" in2="BackgroundImageFix" result="shape"/>
<feColorMatrix in="SourceAlpha" type="matrix" values="0 0 0 0 0 0 0 0 0 0 0 0 0 0 0 0 0 0 127 0" result="hardAlpha"/>
<feOffset/>
<feGaussianBlur stdDeviation="1"/>
<feComposite in2="hardAlpha" operator="arithmetic" k2="-1" k3="1"/>
<feColorMatrix type="matrix" values="0 0 0 0 0.942 0 0 0 0 0.94 0 0 0 0 1 0 0 0 0.1 0"/>
<feBlend mode="hard-light" in2="shape" result="effect1_innerShadow_1241_491"/>
</filter>
</defs>
</svg>
