<svg width="10" height="10" viewBox="0 0 10 10" fill="none" xmlns="http://www.w3.org/2000/svg">
<g filter="url(#filter0_i_1378_270)">
<path d="M6.89941 2.00049C7.23078 2.00049 7.5 2.26873 7.5 2.6001C7.49975 2.93126 7.23063 3.19971 6.89941 3.19971H6.35961C6.02123 3.19971 5.85204 3.19971 5.73983 3.29554C5.7239 3.30915 5.70906 3.32399 5.69545 3.33993C5.59961 3.45214 5.59961 3.62133 5.59961 3.95971V7.3999C5.59933 7.7309 5.33102 7.9993 5 7.99951C4.66898 7.9993 4.39969 7.7309 4.39941 7.3999V3.95971C4.39941 3.62133 4.39941 3.45214 4.30358 3.33993C4.28997 3.32399 4.27513 3.30915 4.25919 3.29554C4.14698 3.19971 3.97779 3.19971 3.63941 3.19971H3.09961C2.76857 3.1995 2.50025 2.93113 2.5 2.6001C2.5 2.26886 2.76842 2.0007 3.09961 2.00049H6.89941Z" fill="white"/>
</g>
<defs>
<filter id="filter0_i_1378_270" x="0" y="0" width="10" height="10" filterUnits="userSpaceOnUse" color-interpolation-filters="sRGB">
<feFlood flood-opacity="0" result="BackgroundImageFix"/>
<feBlend mode="normal" in="SourceGraphic" in2="BackgroundImageFix" result="shape"/>
<feColorMatrix in="SourceAlpha" type="matrix" values="0 0 0 0 0 0 0 0 0 0 0 0 0 0 0 0 0 0 127 0" result="hardAlpha"/>
<feOffset/>
<feGaussianBlur stdDeviation="1"/>
<feComposite in2="hardAlpha" operator="arithmetic" k2="-1" k3="1"/>
<feColorMatrix type="matrix" values="0 0 0 0 0.942 0 0 0 0 0.94 0 0 0 0 1 0 0 0 0.1 0"/>
<feBlend mode="hard-light" in2="shape" result="effect1_innerShadow_1378_270"/>
</filter>
</defs>
</svg>
