<svg width="10" height="10" viewBox="0 0 10 10" fill="none" xmlns="http://www.w3.org/2000/svg">
<g filter="url(#filter0_i_1728_159)">
<path d="M6.0453 5.77111C6.39259 5.77111 6.56676 5.77071 6.68593 5.90294C6.69994 5.91852 6.71898 5.94559 6.72987 5.96349C6.82237 6.11567 6.78179 6.2506 6.70058 6.52111C6.48106 7.25218 5.91593 7.77111 5.00526 7.77111C4.0947 7.77103 3.52944 7.25214 3.30995 6.52111C3.22878 6.25075 3.18831 6.11559 3.28065 5.96349C3.29154 5.94559 3.31058 5.91852 3.3246 5.90294C3.44375 5.77054 3.61792 5.77111 3.96523 5.77111H6.0453ZM6.80312 2.2838C6.90341 2.21745 7.03384 2.21755 7.13417 2.2838C7.20178 2.32853 7.25661 2.4389 7.36562 2.65978C7.39789 2.72517 7.41397 2.75806 7.43593 2.78478C7.46837 2.82424 7.51045 2.85496 7.558 2.87365C7.59019 2.88628 7.6265 2.89149 7.69862 2.90197C7.94243 2.93739 8.06487 2.955 8.12831 3.00548C8.22223 3.08038 8.26185 3.20414 8.22987 3.31993C8.20823 3.39807 8.12016 3.48488 7.94374 3.65685C7.89172 3.70756 7.86565 3.73322 7.84706 3.76232C7.81961 3.80536 7.80324 3.85491 7.80019 3.90587C7.79819 3.94024 7.80455 3.9761 7.81679 4.04747C7.85839 4.29005 7.87925 4.41195 7.85097 4.4879C7.80885 4.60047 7.70342 4.67679 7.58339 4.68224C7.50242 4.68579 7.39309 4.62883 7.17519 4.51427C7.1106 4.48031 7.07782 4.46341 7.04433 4.4547C6.99499 4.4419 6.94328 4.44194 6.89394 4.4547C6.86044 4.46341 6.82767 4.48031 6.76308 4.51427C6.54505 4.62889 6.43586 4.68579 6.35487 4.68224C6.23474 4.67688 6.12944 4.60054 6.0873 4.4879C6.05897 4.41196 6.07986 4.29013 6.12148 4.04747C6.13371 3.97614 6.14007 3.94022 6.13808 3.90587C6.13503 3.85495 6.11861 3.80534 6.0912 3.76232C6.07263 3.73324 6.04647 3.70748 5.99452 3.65685C5.8181 3.48488 5.72906 3.39807 5.70741 3.31993C5.67551 3.20414 5.71598 3.08033 5.80995 3.00548C5.87339 2.955 5.99583 2.93739 6.23964 2.90197C6.31161 2.89151 6.3481 2.88627 6.38026 2.87365C6.42772 2.85495 6.46994 2.82418 6.50233 2.78478C6.52424 2.75808 6.54042 2.72507 6.57265 2.65978C6.68146 2.4393 6.73566 2.32865 6.80312 2.2838ZM2.86562 2.25939C2.9659 2.19325 3.09644 2.19312 3.19667 2.25939C3.26429 2.30412 3.31908 2.41541 3.42812 2.63634C3.46025 2.70146 3.4765 2.73467 3.49843 2.76134C3.53086 2.80062 3.57308 2.83062 3.6205 2.84923C3.65267 2.86183 3.68903 2.86708 3.76112 2.87755C4.0047 2.91295 4.12643 2.93158 4.18983 2.98204C4.28385 3.05699 4.32448 3.18062 4.29237 3.2965C4.27074 3.37459 4.1825 3.46062 4.00624 3.63243C3.95399 3.68336 3.92722 3.70874 3.90858 3.7379C3.8811 3.78093 3.86578 3.83049 3.86269 3.88146C3.86062 3.91599 3.86599 3.95219 3.87831 4.02404C3.91996 4.26686 3.9409 4.38853 3.91249 4.46447C3.87026 4.57702 3.76503 4.65352 3.64491 4.6588C3.56393 4.66236 3.45471 4.60544 3.23671 4.49083C3.17244 4.45705 3.14014 4.44001 3.10683 4.43126C3.05733 4.4184 3.00495 4.4184 2.95546 4.43126C2.92201 4.43998 2.88911 4.45692 2.8246 4.49083C2.60724 4.60511 2.49826 4.66216 2.41737 4.6588C2.29718 4.65353 2.19101 4.57713 2.14882 4.46447C2.12041 4.38853 2.14135 4.26686 2.183 4.02404C2.19533 3.95212 2.20167 3.916 2.1996 3.88146C2.19651 3.83048 2.18022 3.78094 2.15273 3.7379C2.13411 3.70885 2.10814 3.68321 2.05605 3.63243C1.87971 3.46055 1.7916 3.3746 1.76991 3.2965C1.73778 3.18053 1.77829 3.05698 1.87245 2.98204C1.9359 2.93159 2.05742 2.91297 2.30116 2.87755C2.37334 2.86706 2.40958 2.86187 2.44179 2.84923C2.48921 2.83058 2.53145 2.80066 2.56386 2.76134C2.5858 2.73465 2.60198 2.70157 2.63417 2.63634C2.7432 2.41541 2.798 2.30412 2.86562 2.25939Z" fill="white"/>
</g>
<defs>
<filter id="filter0_i_1728_159" x="0" y="0" width="10" height="10" filterUnits="userSpaceOnUse" color-interpolation-filters="sRGB">
<feFlood flood-opacity="0" result="BackgroundImageFix"/>
<feBlend mode="normal" in="SourceGraphic" in2="BackgroundImageFix" result="shape"/>
<feColorMatrix in="SourceAlpha" type="matrix" values="0 0 0 0 0 0 0 0 0 0 0 0 0 0 0 0 0 0 127 0" result="hardAlpha"/>
<feOffset/>
<feGaussianBlur stdDeviation="1"/>
<feComposite in2="hardAlpha" operator="arithmetic" k2="-1" k3="1"/>
<feColorMatrix type="matrix" values="0 0 0 0 0.942 0 0 0 0 0.94 0 0 0 0 1 0 0 0 0.1 0"/>
<feBlend mode="hard-light" in2="shape" result="effect1_innerShadow_1728_159"/>
</filter>
</defs>
</svg>
