<svg width="10" height="10" viewBox="0 0 10 10" fill="none" xmlns="http://www.w3.org/2000/svg">
<g filter="url(#filter0_i_1377_159)">
<path d="M6.79929 2.00043C7.13052 2.00043 7.39966 2.26885 7.39987 2.60004C7.39987 2.93141 7.13066 3.19965 6.79929 3.19965H4.39938C4.21292 3.19965 4.11968 3.19965 4.04614 3.23012C3.94819 3.27072 3.87036 3.34855 3.82976 3.4465C3.79929 3.52004 3.79929 3.61328 3.79929 3.79974C3.79929 3.98621 3.79929 4.07945 3.82976 4.15299C3.87036 4.25094 3.94819 4.32877 4.04614 4.36936C4.11968 4.39984 4.21292 4.39984 4.39938 4.39984H6.19968C6.53081 4.4 6.7991 4.66932 6.79929 5.00043C6.79916 5.3316 6.53083 5.59988 6.19968 5.60004H4.39938C4.21292 5.60004 4.11968 5.60004 4.04614 5.63051C3.94819 5.67111 3.87036 5.74894 3.82976 5.84689C3.79929 5.92043 3.79929 6.01367 3.79929 6.20013C3.79929 6.3866 3.79929 6.47984 3.82976 6.55338C3.87036 6.65133 3.94819 6.72916 4.04614 6.76975C4.11968 6.80023 4.21292 6.80023 4.39938 6.80023H6.79929C7.13052 6.80023 7.39966 7.06865 7.39987 7.39984C7.39984 7.73118 7.13064 7.99945 6.79929 7.99945H3.76999C3.65829 7.99945 3.5193 8.00114 3.40085 7.98676C3.26848 7.9706 3.08322 7.92766 2.9155 7.78461C2.87977 7.75406 2.84543 7.71975 2.81491 7.68402C2.6718 7.51608 2.62884 7.33003 2.61276 7.19769C2.59848 7.07935 2.60007 6.94099 2.60007 6.82953V3.17035C2.60006 3.05867 2.59838 2.91962 2.61276 2.80121C2.62892 2.66883 2.67185 2.48356 2.81491 2.31586L2.86886 2.26191C2.89094 2.23983 2.90197 2.22879 2.91382 2.21866C2.91558 2.21716 2.91734 2.21568 2.91912 2.21421C2.93115 2.20428 2.94392 2.19531 2.96947 2.17736L3.04343 2.12543C3.17241 2.05233 3.30157 2.02523 3.40085 2.01312C3.5193 1.99873 3.65829 2.00042 3.76999 2.00043H6.79929Z" fill="white"/>
</g>
<defs>
<filter id="filter0_i_1377_159" x="0" y="0" width="10" height="10" filterUnits="userSpaceOnUse" color-interpolation-filters="sRGB">
<feFlood flood-opacity="0" result="BackgroundImageFix"/>
<feBlend mode="normal" in="SourceGraphic" in2="BackgroundImageFix" result="shape"/>
<feColorMatrix in="SourceAlpha" type="matrix" values="0 0 0 0 0 0 0 0 0 0 0 0 0 0 0 0 0 0 127 0" result="hardAlpha"/>
<feOffset/>
<feGaussianBlur stdDeviation="1"/>
<feComposite in2="hardAlpha" operator="arithmetic" k2="-1" k3="1"/>
<feColorMatrix type="matrix" values="0 0 0 0 0.942 0 0 0 0 0.94 0 0 0 0 1 0 0 0 0.1 0"/>
<feBlend mode="hard-light" in2="shape" result="effect1_innerShadow_1377_159"/>
</filter>
</defs>
</svg>
