<svg width="10" height="10" viewBox="0 0 10 10" fill="none" xmlns="http://www.w3.org/2000/svg">
<g filter="url(#filter0_i_1136_3441)">
<path d="M3.91445 2.9076C4.3969 2.41535 4.63813 2.16923 4.93643 2.14545C4.97875 2.14207 5.02126 2.14207 5.06357 2.14545C5.36188 2.16923 5.6031 2.41535 6.08555 2.9076L6.58392 3.41608L7.09241 3.91445C7.58466 4.3969 7.83078 4.63813 7.85456 4.93643C7.85793 4.97875 7.85793 5.02126 7.85456 5.06357C7.83078 5.36188 7.58466 5.6031 7.09241 6.08555L6.58392 6.58392L6.08555 7.09241C5.6031 7.58466 5.36188 7.83078 5.06357 7.85456C5.02126 7.85793 4.97875 7.85793 4.93643 7.85456C4.63813 7.83078 4.3969 7.58466 3.91445 7.09241L3.41608 6.58392L2.9076 6.08555C2.41535 5.6031 2.16923 5.36188 2.14545 5.06357C2.14207 5.02126 2.14207 4.97875 2.14545 4.93643C2.16923 4.63813 2.41535 4.3969 2.9076 3.91445L3.41608 3.41608L3.91445 2.9076Z" fill="white"/>
</g>
<defs>
<filter id="filter0_i_1136_3441" x="0" y="0" width="10" height="10" filterUnits="userSpaceOnUse" color-interpolation-filters="sRGB">
<feFlood flood-opacity="0" result="BackgroundImageFix"/>
<feBlend mode="normal" in="SourceGraphic" in2="BackgroundImageFix" result="shape"/>
<feColorMatrix in="SourceAlpha" type="matrix" values="0 0 0 0 0 0 0 0 0 0 0 0 0 0 0 0 0 0 127 0" result="hardAlpha"/>
<feOffset/>
<feGaussianBlur stdDeviation="1"/>
<feComposite in2="hardAlpha" operator="arithmetic" k2="-1" k3="1"/>
<feColorMatrix type="matrix" values="0 0 0 0 0.942 0 0 0 0 0.94 0 0 0 0 1 0 0 0 0.1 0"/>
<feBlend mode="hard-light" in2="shape" result="effect1_innerShadow_1136_3441"/>
</filter>
</defs>
</svg>
