<svg width="10" height="10" viewBox="0 0 10 10" fill="none" xmlns="http://www.w3.org/2000/svg">
<g filter="url(#filter0_i_1728_86)">
<path d="M3.60187 2.71015C3.87252 2.65617 4.13559 2.83207 4.18976 3.10273C4.24364 3.37321 4.06856 3.63628 3.79816 3.69062C3.61935 3.72641 3.52994 3.7443 3.48063 3.77714C3.4228 3.81565 3.39587 3.8485 3.36945 3.91276C3.34692 3.96755 3.34691 4.05534 3.34689 4.2309C3.34683 4.62421 3.29854 4.97556 3.25909 5.29902C3.19755 5.80379 3.15613 6.25687 3.28839 6.80781C3.33949 7.02238 3.20706 7.23774 2.99249 7.28925C2.77805 7.34046 2.56285 7.20861 2.51105 6.99433C2.34339 6.29592 2.40174 5.72246 2.46515 5.20234C2.51467 4.7962 2.56316 4.43033 2.54051 4.02473C2.53312 3.89257 2.4188 3.79715 2.28644 3.79902C2.23002 3.79981 2.18381 3.79979 2.15167 3.8H2.09991C1.82378 3.8 1.59993 3.57613 1.59991 3.3C1.60013 3.02403 1.8239 2.8 2.09991 2.8H2.14484C2.17475 2.79981 2.21891 2.79978 2.27277 2.79902C2.3809 2.79749 2.53006 2.79433 2.69366 2.78828C3.03417 2.77566 3.39682 2.75119 3.60187 2.71015ZM6.4339 2.71894C6.61618 2.76954 6.95779 2.79522 7.29913 2.80293C7.46017 2.80655 7.60761 2.80533 7.71417 2.8039C7.76704 2.80319 7.81006 2.8027 7.83917 2.80195C7.85359 2.80158 7.86508 2.8012 7.87238 2.80097H7.88214C8.1579 2.79134 8.3898 3.00666 8.39972 3.28242C8.40949 3.55813 8.19389 3.78982 7.91827 3.8H7.91339C7.91097 3.80008 7.90693 3.80081 7.90265 3.80097C7.89373 3.80125 7.8806 3.80154 7.86456 3.80195C7.83178 3.80279 7.78436 3.80313 7.72687 3.8039C7.62013 3.80533 7.53675 3.89504 7.54202 4.00166C7.56613 4.48942 7.50624 4.91401 7.45929 5.29902C7.39775 5.80379 7.35633 6.25687 7.48859 6.80781C7.5397 7.02239 7.40726 7.23774 7.19269 7.28925C6.97826 7.34042 6.76303 7.2086 6.71124 6.99433C6.54358 6.29592 6.60193 5.72245 6.66534 5.20234C6.70644 4.86533 6.74708 4.55602 6.74683 4.22874C6.7467 4.04922 6.74663 3.95947 6.69274 3.88223C6.685 3.87113 6.67653 3.86058 6.66736 3.85063C6.60356 3.78136 6.491 3.75641 6.26588 3.70653C6.23146 3.6989 6.19818 3.69068 6.16632 3.68183C5.90028 3.60787 5.74473 3.33264 5.81866 3.0666C5.89264 2.80059 6.16788 2.64502 6.4339 2.71894ZM4.99933 4.40058C5.49933 4.40058 5.79875 4.90058 5.79913 5.40058C5.79943 5.90047 5.4988 6.4005 4.99933 6.40058C4.49978 6.40058 4.1996 5.90051 4.19952 5.40058C4.19953 4.90066 4.49948 4.40075 4.99933 4.40058Z" fill="white"/>
</g>
<defs>
<filter id="filter0_i_1728_86" x="0" y="0" width="10" height="10" filterUnits="userSpaceOnUse" color-interpolation-filters="sRGB">
<feFlood flood-opacity="0" result="BackgroundImageFix"/>
<feBlend mode="normal" in="SourceGraphic" in2="BackgroundImageFix" result="shape"/>
<feColorMatrix in="SourceAlpha" type="matrix" values="0 0 0 0 0 0 0 0 0 0 0 0 0 0 0 0 0 0 127 0" result="hardAlpha"/>
<feOffset/>
<feGaussianBlur stdDeviation="1"/>
<feComposite in2="hardAlpha" operator="arithmetic" k2="-1" k3="1"/>
<feColorMatrix type="matrix" values="0 0 0 0 0.942 0 0 0 0 0.94 0 0 0 0 1 0 0 0 0.1 0"/>
<feBlend mode="hard-light" in2="shape" result="effect1_innerShadow_1728_86"/>
</filter>
</defs>
</svg>
