<svg width="10" height="10" viewBox="0 0 10 10" fill="none" xmlns="http://www.w3.org/2000/svg">
<g filter="url(#filter0_i_1141_507)">
<path d="M4.71793 3.01848C5.13126 3.01848 5.46239 3.16807 5.68668 3.41692C5.90289 3.65715 5.99321 3.96054 5.99332 4.23137C5.99332 4.51999 5.87228 4.77837 5.7316 4.98918C5.58937 5.20214 5.40235 5.40213 5.21793 5.58098C5.03429 5.75904 4.83168 5.93595 4.66422 6.08781C4.62303 6.12516 4.65078 6.19426 4.70638 6.19426H5.84293C6.06362 6.19426 6.24295 6.37307 6.24332 6.59367C6.24332 6.81459 6.06384 6.99406 5.84293 6.99406H4.17984C4.137 6.99408 4.01864 6.99798 3.90836 6.96379C3.75793 6.91702 3.65496 6.81893 3.58511 6.70695C3.56348 6.67215 3.53986 6.62156 3.52652 6.58293C3.49518 6.492 3.4655 6.36238 3.50797 6.2177C3.54409 6.09507 3.6254 6.00478 3.63882 5.9882C3.77295 5.82269 3.95305 5.65289 4.12711 5.49504C4.3098 5.32937 4.49044 5.17243 4.66129 5.00676C4.83125 4.84192 4.97098 4.68798 5.06656 4.54485C5.16361 4.3994 5.19254 4.29769 5.19254 4.23137C5.19243 4.12758 5.15762 4.02408 5.09293 3.95207C5.03588 3.88889 4.92882 3.81926 4.71793 3.81926C4.50692 3.81932 4.39989 3.88885 4.34293 3.95207C4.27824 4.02408 4.24342 4.12758 4.24332 4.23137C4.24332 4.45228 4.06384 4.63176 3.84293 4.63176C3.62213 4.63162 3.44254 4.45219 3.44254 4.23137C3.44264 3.96054 3.53297 3.65715 3.74918 3.41692C3.97342 3.16797 4.30457 3.01854 4.71793 3.01848ZM1.88297 3.0175L1.92762 3.02973C1.94531 3.03457 1.95415 3.03699 1.96272 3.04021C1.96399 3.04068 1.96526 3.04117 1.96651 3.04167C1.97502 3.04506 1.98319 3.04922 1.99954 3.05753L2.07828 3.09758C2.27596 3.22749 2.30996 3.43667 2.31949 3.53508C2.32966 3.64034 2.32393 3.77215 2.31949 3.89153L2.24455 5.89857C2.24153 5.97948 2.24002 6.01994 2.25014 6.05255C2.26889 6.11298 2.31512 6.16097 2.3748 6.18196C2.40701 6.19328 2.4475 6.19328 2.52847 6.19328C2.74932 6.19328 2.92876 6.37187 2.92886 6.5927C2.9288 6.81355 2.74935 6.99309 2.52847 6.99309H1.1232C0.902441 6.99295 0.722876 6.81347 0.722809 6.5927C0.722914 6.37196 0.902464 6.19342 1.1232 6.19328C1.23349 6.19328 1.28864 6.19328 1.33121 6.17175C1.36702 6.15363 1.39655 6.12515 1.41597 6.09003C1.43905 6.04827 1.44106 5.99316 1.44509 5.88294L1.49934 4.39908C1.50384 4.27584 1.36039 4.20385 1.26675 4.2841C1.0991 4.42761 0.846047 4.40857 0.702301 4.24113C0.558707 4.07355 0.577968 3.8205 0.74527 3.67668C0.873621 3.56667 1.03436 3.43626 1.18472 3.31633C1.27725 3.24253 1.37939 3.15954 1.46988 3.10539C1.54445 3.06082 1.69786 2.98228 1.88297 3.0175ZM7.99332 3.00578C8.76101 3.00593 9.27731 3.4107 9.38589 3.95305C9.3896 3.97113 9.39146 3.98017 9.39247 3.98923C9.39262 3.99057 9.39276 3.99191 9.39288 3.99325C9.39371 4.00233 9.39371 4.01145 9.39371 4.02971V4.03117C9.39371 4.35102 9.30003 4.60045 9.16568 4.79279C9.11516 4.86511 9.0899 4.90127 9.08283 4.91605C9.04568 4.99367 9.04579 5.01348 9.08379 5.09069C9.09102 5.10539 9.11802 5.14315 9.17203 5.21867C9.3124 5.41504 9.39362 5.66137 9.39371 5.95598V5.95839C9.39371 5.9762 9.39371 5.9851 9.39292 5.99396C9.3928 5.99527 9.39267 5.99658 9.39253 5.99788C9.39157 6.00672 9.38982 6.01545 9.38633 6.03291L9.38589 6.03508C9.27724 6.57736 8.7609 6.98123 7.99332 6.98137C7.6501 6.98137 7.38308 6.90373 7.17398 6.76848C6.96916 6.63584 6.85368 6.46772 6.78531 6.36516C6.6631 6.18138 6.71295 5.93292 6.89664 5.81047C7.08037 5.68855 7.32894 5.73825 7.45132 5.9218C7.50788 6.00662 7.54897 6.05742 7.60953 6.0966C7.66613 6.13314 7.77456 6.18156 7.99332 6.18156C8.32558 6.18148 8.48037 6.07588 8.54987 5.98341C8.56127 5.96826 8.56696 5.96068 8.57708 5.9242C8.57784 5.92146 8.58032 5.9108 8.58085 5.90801C8.5879 5.87081 8.58536 5.85737 8.58028 5.83049C8.56736 5.76217 8.54483 5.71595 8.52164 5.68352C8.48335 5.62999 8.426 5.58602 8.35074 5.54973C8.27458 5.51306 8.19212 5.49028 8.11636 5.47356C8.09995 5.46994 8.02467 5.45441 8.00601 5.45012C7.99219 5.44692 7.95605 5.43831 7.9191 5.42375C7.9024 5.41715 7.85918 5.39942 7.81363 5.36418C7.7785 5.3369 7.68434 5.25309 7.66129 5.1093L7.65827 5.0756C7.65692 5.06058 7.65625 5.05307 7.65614 5.04554C7.65613 5.04442 7.65612 5.04331 7.65613 5.04219C7.65615 5.03466 7.65673 5.02714 7.65791 5.01211L7.66031 4.98137C7.68135 4.84452 7.7672 4.76294 7.7941 4.73918C7.83354 4.7045 7.87152 4.68438 7.88687 4.67668C7.92049 4.65987 7.95393 4.64821 7.96793 4.64348C7.98729 4.63697 8.05982 4.61436 8.07828 4.60832C8.15456 4.58334 8.24056 4.55044 8.32144 4.50285C8.44437 4.43043 8.54737 4.3318 8.58023 4.1563C8.58533 4.12909 8.58787 4.11549 8.58061 4.07805C8.58006 4.07524 8.57751 4.06452 8.57673 4.06176C8.56636 4.02507 8.56061 4.01754 8.54911 4.00248C8.47893 3.9106 8.32376 3.80665 7.99332 3.80656C7.77502 3.80656 7.66622 3.85405 7.60953 3.89055C7.54911 3.92965 7.5077 3.98084 7.45132 4.06535C7.32886 4.24905 7.08041 4.29892 6.89664 4.17668C6.7129 4.05419 6.66296 3.80578 6.78531 3.62199C6.85372 3.51939 6.96936 3.35116 7.17398 3.21867C7.38304 3.08353 7.65025 3.00578 7.99332 3.00578Z" fill="white"/>
</g>
<defs>
<filter id="filter0_i_1141_507" x="0" y="0" width="10" height="10" filterUnits="userSpaceOnUse" color-interpolation-filters="sRGB">
<feFlood flood-opacity="0" result="BackgroundImageFix"/>
<feBlend mode="normal" in="SourceGraphic" in2="BackgroundImageFix" result="shape"/>
<feColorMatrix in="SourceAlpha" type="matrix" values="0 0 0 0 0 0 0 0 0 0 0 0 0 0 0 0 0 0 127 0" result="hardAlpha"/>
<feOffset/>
<feGaussianBlur stdDeviation="1"/>
<feComposite in2="hardAlpha" operator="arithmetic" k2="-1" k3="1"/>
<feColorMatrix type="matrix" values="0 0 0 0 0.942 0 0 0 0 0.94 0 0 0 0 1 0 0 0 0.1 0"/>
<feBlend mode="hard-light" in2="shape" result="effect1_innerShadow_1141_507"/>
</filter>
</defs>
</svg>
