<svg width="10" height="10" viewBox="0 0 10 10" fill="none" xmlns="http://www.w3.org/2000/svg">
<g filter="url(#filter0_i_1727_279)">
<path fill-rule="evenodd" clip-rule="evenodd" d="M3.04626 5.99624C3.24156 5.80143 3.55818 5.80113 3.7533 5.99624L3.76111 6.00308C3.77206 6.01285 3.79138 6.02931 3.81775 6.04995C3.87143 6.09193 3.95439 6.15137 4.06384 6.21108C4.28358 6.33091 4.60191 6.44929 4.99939 6.44936C5.39667 6.44927 5.71522 6.33085 5.93494 6.21108C6.04432 6.15137 6.12839 6.09189 6.18201 6.04995C6.20823 6.02941 6.22779 6.01277 6.23865 6.00308L6.24646 5.99624L6.32458 5.93179C6.5186 5.80411 6.78282 5.82557 6.95349 5.99624C7.14847 6.19132 7.14817 6.508 6.95349 6.70327L6.93689 6.71987C6.92904 6.72731 6.91816 6.737 6.90564 6.74819C6.8799 6.7712 6.84312 6.8019 6.79822 6.83706C6.70827 6.90744 6.57925 6.99906 6.41443 7.08901C6.08432 7.26907 5.60142 7.44927 4.99939 7.44936C4.39749 7.44929 3.91543 7.26902 3.58533 7.08901C3.42019 6.99894 3.29061 6.90753 3.20056 6.83706C3.15561 6.80187 3.11988 6.77122 3.09412 6.74819C3.08139 6.73682 3.07082 6.72741 3.06287 6.71987L3.04626 6.70327C2.851 6.50801 2.851 6.1915 3.04626 5.99624ZM2.04724 2.76186C2.15133 2.56727 2.39348 2.49392 2.58826 2.5978L3.92224 3.30874C4.27468 3.49709 4.27475 4.00326 3.92224 4.19155L2.58826 4.90347C2.39345 5.00736 2.1513 4.9331 2.04724 4.73843C1.94331 4.54357 2.01652 4.30143 2.2113 4.19741L2.42119 4.08537C2.68167 3.94633 2.81192 3.8768 2.82332 3.77171C2.82487 3.75738 2.82487 3.74291 2.82332 3.72858C2.81192 3.62349 2.68167 3.55396 2.42119 3.41492L2.2113 3.30288C2.01664 3.19882 1.94334 2.95667 2.04724 2.76186ZM7.4115 2.5978C7.60625 2.49414 7.8485 2.5673 7.95251 2.76186C8.05613 2.95652 7.98279 3.19878 7.78845 3.30288L7.57857 3.41492C7.31808 3.55396 7.18784 3.62349 7.17644 3.72858C7.17488 3.74291 7.17488 3.75738 7.17644 3.77171C7.18784 3.8768 7.31808 3.94633 7.57857 4.08537L7.78845 4.19741C7.9829 4.30153 8.0563 4.54372 7.95251 4.73843C7.84861 4.93318 7.60634 5.00709 7.4115 4.90347L6.07751 4.19155C5.72457 4.00332 5.72457 3.49697 6.07751 3.30874L7.4115 2.5978Z" fill="white"/>
</g>
<defs>
<filter id="filter0_i_1727_279" x="0" y="0" width="10" height="10" filterUnits="userSpaceOnUse" color-interpolation-filters="sRGB">
<feFlood flood-opacity="0" result="BackgroundImageFix"/>
<feBlend mode="normal" in="SourceGraphic" in2="BackgroundImageFix" result="shape"/>
<feColorMatrix in="SourceAlpha" type="matrix" values="0 0 0 0 0 0 0 0 0 0 0 0 0 0 0 0 0 0 127 0" result="hardAlpha"/>
<feOffset/>
<feGaussianBlur stdDeviation="1"/>
<feComposite in2="hardAlpha" operator="arithmetic" k2="-1" k3="1"/>
<feColorMatrix type="matrix" values="0 0 0 0 0.942 0 0 0 0 0.94 0 0 0 0 1 0 0 0 0.1 0"/>
<feBlend mode="hard-light" in2="shape" result="effect1_innerShadow_1727_279"/>
</filter>
</defs>
</svg>
