<svg width="10" height="10" viewBox="0 0 10 10" fill="none" xmlns="http://www.w3.org/2000/svg">
<g filter="url(#filter0_i_1141_576)">
<path d="M5.81885 2.36154C5.98449 2.0749 6.35135 1.97658 6.63818 2.14182C6.92516 2.3075 7.0236 2.67515 6.85791 2.96213L4.15869 7.63889C3.99297 7.92576 3.62531 8.0233 3.33838 7.85764C3.05168 7.69186 2.95307 7.32515 3.11865 7.0383L5.81885 2.36154ZM7.1499 5.19553C7.49122 5.1956 7.75367 5.38987 7.91064 5.60959C8.0682 5.8303 8.1499 6.11034 8.1499 6.39572C8.14982 6.68092 8.0681 6.96029 7.91064 7.18088C7.75367 7.4006 7.49122 7.59584 7.1499 7.59592C6.80859 7.59592 6.54618 7.40056 6.38916 7.18088C6.23171 6.96029 6.14999 6.68092 6.1499 6.39572C6.1499 6.11026 6.23151 5.83033 6.38916 5.60959C6.54616 5.38983 6.80848 5.19553 7.1499 5.19553ZM7.04932 7.08127C7.08174 7.09052 7.11553 7.09592 7.1499 7.09592C7.18308 7.0959 7.2152 7.08993 7.24658 7.08127C7.21523 7.08991 7.18306 7.09492 7.1499 7.09494C7.08418 7.09494 7.02184 7.07642 6.96436 7.04416C6.9917 7.05949 7.01985 7.07284 7.04932 7.08127ZM6.6792 6.63596C6.68137 6.64426 6.68462 6.65222 6.68701 6.66037C6.6754 6.62069 6.66594 6.57928 6.65967 6.53635L6.6792 6.63596ZM2.8501 2.29514C3.19132 2.29529 3.4539 2.48952 3.61084 2.7092C3.76845 2.92991 3.85008 3.20992 3.8501 3.49533C3.85006 3.78052 3.76822 4.05987 3.61084 4.28049C3.4539 4.5002 3.19136 4.69537 2.8501 4.69553C2.50871 4.69553 2.24636 4.50023 2.08936 4.28049C1.93186 4.05983 1.85013 3.78062 1.8501 3.49533C1.85011 3.20987 1.93169 2.92993 2.08936 2.7092C2.24638 2.48954 2.50881 2.29514 2.8501 2.29514ZM3.3501 3.49533C3.35009 3.59019 3.33546 3.68042 3.31104 3.76291C3.32307 3.7223 3.33391 3.67999 3.34033 3.63596L3.3501 3.49533Z" fill="white"/>
</g>
<defs>
<filter id="filter0_i_1141_576" x="0" y="0" width="10" height="10" filterUnits="userSpaceOnUse" color-interpolation-filters="sRGB">
<feFlood flood-opacity="0" result="BackgroundImageFix"/>
<feBlend mode="normal" in="SourceGraphic" in2="BackgroundImageFix" result="shape"/>
<feColorMatrix in="SourceAlpha" type="matrix" values="0 0 0 0 0 0 0 0 0 0 0 0 0 0 0 0 0 0 127 0" result="hardAlpha"/>
<feOffset/>
<feGaussianBlur stdDeviation="1"/>
<feComposite in2="hardAlpha" operator="arithmetic" k2="-1" k3="1"/>
<feColorMatrix type="matrix" values="0 0 0 0 0.942 0 0 0 0 0.94 0 0 0 0 1 0 0 0 0.1 0"/>
<feBlend mode="hard-light" in2="shape" result="effect1_innerShadow_1141_576"/>
</filter>
</defs>
</svg>
