<svg width="10" height="10" viewBox="0 0 10 10" fill="none" xmlns="http://www.w3.org/2000/svg">
<g filter="url(#filter0_i_1728_149)">
<path fill-rule="evenodd" clip-rule="evenodd" d="M6.03146 5.42747C6.37841 5.42747 6.55205 5.42801 6.67111 5.55931C6.68513 5.57482 6.70508 5.60101 6.71603 5.61888C6.80875 5.77035 6.76878 5.90655 6.68869 6.17845C6.47342 6.90925 5.91911 7.42733 5.02658 7.42747C4.13383 7.42747 3.57879 6.90935 3.36349 6.17845C3.28341 5.90659 3.24344 5.77033 3.33615 5.61888C3.34709 5.60101 3.36702 5.57485 3.38107 5.55931C3.50017 5.42783 3.67437 5.42747 4.0217 5.42747H6.03146ZM3.31271 2.81908C3.50927 2.64354 3.84163 2.43612 4.12423 2.69701C4.55708 3.09666 4.02179 4.39585 3.13888 4.39622C2.25581 4.39622 1.71129 3.09683 2.16134 2.69701C2.4544 2.43684 2.78127 2.64289 2.97384 2.8181C3.05873 2.89533 3.10179 2.93363 3.13595 2.93626C3.14187 2.93671 3.1446 2.93668 3.1506 2.93626C3.18476 2.93373 3.22742 2.89526 3.31271 2.81908ZM7.03439 2.8181C7.22985 2.64253 7.56079 2.43505 7.84494 2.69603C8.27941 3.09629 7.75203 4.39427 6.86935 4.39427C5.9866 4.39427 5.43494 3.09616 5.88205 2.69603C6.17344 2.43583 6.50191 2.64092 6.69552 2.81615C6.78082 2.89334 6.82347 2.93164 6.85763 2.93431C6.86371 2.93478 6.86621 2.93473 6.87228 2.93431C6.90646 2.93191 6.94938 2.89447 7.03439 2.8181Z" fill="white"/>
</g>
<defs>
<filter id="filter0_i_1728_149" x="0" y="0" width="10" height="10" filterUnits="userSpaceOnUse" color-interpolation-filters="sRGB">
<feFlood flood-opacity="0" result="BackgroundImageFix"/>
<feBlend mode="normal" in="SourceGraphic" in2="BackgroundImageFix" result="shape"/>
<feColorMatrix in="SourceAlpha" type="matrix" values="0 0 0 0 0 0 0 0 0 0 0 0 0 0 0 0 0 0 127 0" result="hardAlpha"/>
<feOffset/>
<feGaussianBlur stdDeviation="1"/>
<feComposite in2="hardAlpha" operator="arithmetic" k2="-1" k3="1"/>
<feColorMatrix type="matrix" values="0 0 0 0 0.942 0 0 0 0 0.94 0 0 0 0 1 0 0 0 0.1 0"/>
<feBlend mode="hard-light" in2="shape" result="effect1_innerShadow_1728_149"/>
</filter>
</defs>
</svg>
