<svg width="10" height="10" viewBox="0 0 10 10" fill="none" xmlns="http://www.w3.org/2000/svg">
<g filter="url(#filter0_i_1136_3445)">
<path d="M4.2373 2.14243C4.58936 1.9382 4.76539 1.83609 4.95796 1.82596C4.98597 1.82449 5.01403 1.82449 5.04203 1.82596C5.23461 1.83609 5.41064 1.9382 5.76269 2.14243L6.42725 2.52793L7.09337 2.9107C7.44627 3.11348 7.62271 3.21487 7.72778 3.37658C7.74305 3.40009 7.75708 3.42439 7.76981 3.44938C7.85732 3.62122 7.85691 3.82472 7.85607 4.23173L7.8545 5L7.85607 5.76826C7.85691 6.17527 7.85732 6.37877 7.76981 6.55061C7.75708 6.5756 7.74305 6.5999 7.72778 6.62342C7.62271 6.78513 7.44627 6.88652 7.09337 7.0893L6.42725 7.47207L5.76269 7.85757C5.41064 8.06179 5.23461 8.1639 5.04203 8.17403C5.01403 8.17551 4.98597 8.17551 4.95796 8.17403C4.76539 8.1639 4.58936 8.06179 4.2373 7.85756L3.57275 7.47207L2.90662 7.0893C2.55373 6.88652 2.37728 6.78513 2.27222 6.62342C2.25694 6.5999 2.24291 6.5756 2.23018 6.55061C2.14267 6.37877 2.14309 6.17527 2.14392 5.76827L2.1455 5L2.14392 4.23173C2.14309 3.82472 2.14267 3.62122 2.23018 3.44938C2.24291 3.42439 2.25694 3.40009 2.27222 3.37658C2.37728 3.21487 2.55373 3.11348 2.90662 2.9107L3.57275 2.52793L4.2373 2.14243Z" fill="white"/>
</g>
<defs>
<filter id="filter0_i_1136_3445" x="0" y="0" width="10" height="10" filterUnits="userSpaceOnUse" color-interpolation-filters="sRGB">
<feFlood flood-opacity="0" result="BackgroundImageFix"/>
<feBlend mode="normal" in="SourceGraphic" in2="BackgroundImageFix" result="shape"/>
<feColorMatrix in="SourceAlpha" type="matrix" values="0 0 0 0 0 0 0 0 0 0 0 0 0 0 0 0 0 0 127 0" result="hardAlpha"/>
<feOffset/>
<feGaussianBlur stdDeviation="1"/>
<feComposite in2="hardAlpha" operator="arithmetic" k2="-1" k3="1"/>
<feColorMatrix type="matrix" values="0 0 0 0 0.942 0 0 0 0 0.94 0 0 0 0 1 0 0 0 0.1 0"/>
<feBlend mode="hard-light" in2="shape" result="effect1_innerShadow_1136_3445"/>
</filter>
</defs>
</svg>
