<svg width="10" height="10" viewBox="0 0 10 10" fill="none" xmlns="http://www.w3.org/2000/svg">
<g filter="url(#filter0_i_1141_604)">
<path d="M6.39258 3.06113C7.07259 2.92524 7.64609 3.13053 8.03223 3.55527C8.39496 3.95451 8.54972 4.49793 8.5498 4.99961C8.54976 5.50782 8.38512 6.05148 8.02051 6.44785C7.63459 6.86703 7.06305 7.07697 6.38965 6.93906L6.3584 6.93125C5.89958 6.8089 5.55106 6.56388 5.27389 6.27943C5.13599 6.13791 4.90116 6.13944 4.76446 6.28212C4.47465 6.58464 4.104 6.83974 3.60742 6.93906C2.9275 7.07492 2.3539 6.86958 1.96777 6.44492C1.60486 6.04561 1.45024 5.50143 1.4502 4.99961C1.45028 4.49792 1.60503 3.95451 1.96777 3.55527C2.35391 3.13053 2.92741 2.92524 3.60742 3.06113C4.09708 3.15908 4.46409 3.40198 4.75247 3.69202C4.89047 3.83082 5.12236 3.83016 5.25973 3.69075C5.54613 3.40013 5.91037 3.15758 6.39258 3.06113ZM3.39258 4.13926C3.07306 4.07536 2.89604 4.16954 2.78223 4.29453C2.64542 4.44509 2.54989 4.70179 2.5498 4.99961C2.54985 5.29754 2.64537 5.5541 2.78223 5.70469C2.89603 5.82981 3.07286 5.92488 3.39258 5.86094C3.75266 5.78878 3.98731 5.54957 4.25672 5.14464C4.32128 5.04761 4.32062 4.9208 4.2546 4.82475C3.99007 4.43994 3.75436 4.21177 3.39258 4.13926ZM7.21777 4.29453C7.10396 4.16954 6.92693 4.07536 6.60742 4.13926C6.25816 4.20925 6.02601 4.43568 5.76623 4.81859C5.70059 4.91534 5.70096 5.04259 5.76696 5.1391C6.02405 5.51506 6.26317 5.75977 6.62207 5.86192C6.91745 5.91927 7.09249 5.83133 7.21094 5.70274C7.35217 5.5492 7.45015 5.29127 7.4502 4.99961C7.45011 4.7018 7.35457 4.44509 7.21777 4.29453Z" fill="white"/>
</g>
<defs>
<filter id="filter0_i_1141_604" x="0" y="0" width="10" height="10" filterUnits="userSpaceOnUse" color-interpolation-filters="sRGB">
<feFlood flood-opacity="0" result="BackgroundImageFix"/>
<feBlend mode="normal" in="SourceGraphic" in2="BackgroundImageFix" result="shape"/>
<feColorMatrix in="SourceAlpha" type="matrix" values="0 0 0 0 0 0 0 0 0 0 0 0 0 0 0 0 0 0 127 0" result="hardAlpha"/>
<feOffset/>
<feGaussianBlur stdDeviation="1"/>
<feComposite in2="hardAlpha" operator="arithmetic" k2="-1" k3="1"/>
<feColorMatrix type="matrix" values="0 0 0 0 0.942 0 0 0 0 0.94 0 0 0 0 1 0 0 0 0.1 0"/>
<feBlend mode="hard-light" in2="shape" result="effect1_innerShadow_1141_604"/>
</filter>
</defs>
</svg>
