<svg width="10" height="10" viewBox="0 0 10 10" fill="none" xmlns="http://www.w3.org/2000/svg">
<g filter="url(#filter0_i_1727_264)">
<path fill-rule="evenodd" clip-rule="evenodd" d="M4.99951 5.70426C5.60175 5.70426 6.08437 5.88549 6.41455 6.06559C6.57931 6.1555 6.70838 6.24619 6.79834 6.31656C6.84339 6.35182 6.87996 6.38238 6.90576 6.40543C6.91854 6.41686 6.92905 6.42719 6.93701 6.43473L6.95036 6.44808C6.95058 6.44829 6.95082 6.44847 6.95109 6.4486L6.9523 6.44921C6.95251 6.44931 6.95264 6.44952 6.95264 6.44975C6.95264 6.45008 6.95291 6.45035 6.95324 6.45035H6.9533C6.9535 6.45035 6.95369 6.45044 6.95381 6.4506L7.01709 6.52945C7.14494 6.72339 7.12411 6.98661 6.95361 7.15738C6.78267 7.32815 6.51872 7.34917 6.32471 7.22086L6.24879 7.15954C6.24862 7.15941 6.24844 7.15929 6.24824 7.15919L6.24709 7.15862C6.24678 7.15846 6.24658 7.15814 6.24658 7.15779C6.24658 7.15753 6.24648 7.15728 6.24628 7.15712C6.24453 7.15562 6.24158 7.15398 6.23877 7.15152C6.22792 7.14183 6.20872 7.12547 6.18213 7.10465C6.12846 7.06265 6.0448 7.00339 5.93506 6.94352C5.71525 6.82365 5.39714 6.70426 4.99951 6.70426C4.60194 6.70434 4.28371 6.82366 4.06397 6.94352C3.95448 7.00329 3.87148 7.0627 3.81787 7.10465C3.79134 7.12542 3.77211 7.14181 3.76123 7.15152C3.75798 7.15435 3.75417 7.15578 3.75244 7.15738C3.55721 7.35209 3.24151 7.35228 3.04639 7.15738C2.85146 6.96224 2.85138 6.64578 3.04618 6.45056C3.04631 6.45043 3.04649 6.45035 3.04667 6.45035H3.04676C3.04709 6.45035 3.04736 6.45008 3.04736 6.44975C3.04736 6.44952 3.04749 6.44931 3.0477 6.44921L3.04891 6.4486C3.04918 6.44847 3.04943 6.44829 3.04964 6.44808L3.06299 6.43473C3.07097 6.42716 3.0814 6.41691 3.09424 6.40543C3.12001 6.3824 3.15571 6.35177 3.20068 6.31656C3.29069 6.24613 3.42041 6.15563 3.58545 6.06559C3.91556 5.88552 4.39745 5.70434 4.99951 5.70426ZM3.75293 7.15787C3.75311 7.15805 3.75298 7.15836 3.75273 7.15836C3.75257 7.15836 3.75244 7.15849 3.75244 7.15865V7.15896C3.75244 7.15917 3.75227 7.15934 3.75207 7.15934C3.75179 7.15934 3.75161 7.15905 3.75174 7.1588L3.75244 7.15738L3.75293 7.15787ZM3.52393 2.81363C3.68014 2.65747 3.93414 2.65744 4.09033 2.81363C4.2464 2.96984 4.24645 3.22387 4.09033 3.38004L3.9352 3.53517C3.81557 3.6548 3.75575 3.71462 3.74996 3.78818C3.74914 3.79862 3.74914 3.80912 3.74996 3.81956C3.75575 3.89312 3.81557 3.95293 3.9352 4.07257L4.09033 4.2277C4.24646 4.38387 4.24641 4.6379 4.09033 4.7941C3.93414 4.9503 3.68014 4.95026 3.52393 4.7941L3.3688 4.63898C3.24916 4.51934 3.18935 4.45952 3.11579 4.45373C3.10534 4.45291 3.09485 4.45291 3.08441 4.45373C3.01085 4.45952 2.95103 4.51934 2.8314 4.63898L2.67627 4.7941C2.5201 4.95027 2.26608 4.95019 2.10986 4.7941C1.95365 4.63789 1.95365 4.38391 2.10986 4.2277L2.26499 4.07257C2.38463 3.95293 2.44444 3.89312 2.45023 3.81956C2.45105 3.80912 2.45105 3.79862 2.45023 3.78818C2.44444 3.71462 2.38463 3.6548 2.26499 3.53517L2.10986 3.38004C1.95366 3.22383 1.95366 2.96984 2.10986 2.81363C2.26608 2.65755 2.5201 2.65747 2.67627 2.81363L2.8314 2.96876C2.95103 3.0884 3.01085 3.14821 3.08441 3.154C3.09485 3.15482 3.10534 3.15482 3.11579 3.154C3.18935 3.14821 3.24916 3.0884 3.3688 2.96876L3.52393 2.81363ZM7.32373 2.81363C7.47992 2.65746 7.73393 2.6575 7.89014 2.81363C8.04634 2.96984 8.04633 3.22383 7.89014 3.38004L7.73501 3.53517C7.61537 3.6548 7.55556 3.71462 7.54977 3.78818C7.54895 3.79862 7.54895 3.80912 7.54977 3.81956C7.55556 3.89312 7.61537 3.95293 7.73501 4.07257L7.89014 4.2277C8.04634 4.3839 8.04634 4.63789 7.89014 4.7941C7.73392 4.95023 7.47991 4.95028 7.32373 4.7941L7.1686 4.63898C7.04897 4.51934 6.98915 4.45952 6.91559 4.45373C6.90515 4.45291 6.89466 4.45291 6.88421 4.45373C6.81065 4.45952 6.75084 4.51934 6.6312 4.63898L6.47607 4.7941C6.31987 4.9503 6.06588 4.95031 5.90967 4.7941C5.75353 4.63789 5.75349 4.38388 5.90967 4.2277L6.0648 4.07257C6.18443 3.95293 6.24425 3.89312 6.25004 3.81956C6.25086 3.80912 6.25086 3.79862 6.25004 3.78818C6.24425 3.71462 6.18443 3.6548 6.0648 3.53517L5.90967 3.38004C5.75349 3.22386 5.75354 2.96985 5.90967 2.81363C6.06588 2.65744 6.31987 2.65743 6.47607 2.81363L6.6312 2.96876C6.75084 3.0884 6.81065 3.14821 6.88421 3.154C6.89466 3.15482 6.90515 3.15482 6.91559 3.154C6.98915 3.14821 7.04897 3.0884 7.1686 2.96876L7.32373 2.81363Z" fill="white"/>
</g>
<defs>
<filter id="filter0_i_1727_264" x="0" y="0" width="10" height="10" filterUnits="userSpaceOnUse" color-interpolation-filters="sRGB">
<feFlood flood-opacity="0" result="BackgroundImageFix"/>
<feBlend mode="normal" in="SourceGraphic" in2="BackgroundImageFix" result="shape"/>
<feColorMatrix in="SourceAlpha" type="matrix" values="0 0 0 0 0 0 0 0 0 0 0 0 0 0 0 0 0 0 127 0" result="hardAlpha"/>
<feOffset/>
<feGaussianBlur stdDeviation="1"/>
<feComposite in2="hardAlpha" operator="arithmetic" k2="-1" k3="1"/>
<feColorMatrix type="matrix" values="0 0 0 0 0.942 0 0 0 0 0.94 0 0 0 0 1 0 0 0 0.1 0"/>
<feBlend mode="hard-light" in2="shape" result="effect1_innerShadow_1727_264"/>
</filter>
</defs>
</svg>
