<svg width="10" height="10" viewBox="0 0 10 10" fill="none" xmlns="http://www.w3.org/2000/svg">
<g filter="url(#filter0_i_1731_91)">
<path d="M4.99921 5.70047C5.60138 5.70047 6.08406 5.88172 6.41425 6.0618C6.57908 6.15173 6.70805 6.24237 6.79803 6.31277C6.84317 6.3481 6.87962 6.37855 6.90546 6.40164C6.91833 6.41315 6.92871 6.42336 6.93671 6.43094L6.95038 6.44461L6.95233 6.44559V6.44656H6.95331L7.01678 6.52567C7.14474 6.71961 7.12385 6.98278 6.95331 7.15359C6.78248 7.32401 6.51926 7.34501 6.32538 7.21707L6.24823 7.15555L6.24628 7.15457V7.15359C6.24454 7.15199 6.24151 7.15045 6.23846 7.14774C6.22758 7.13801 6.20852 7.12176 6.18182 7.10086C6.12813 7.05884 6.04456 6.99962 5.93475 6.93973C5.71495 6.81988 5.39677 6.70047 4.99921 6.70047C4.60182 6.70063 4.28333 6.81991 4.06366 6.93973C3.95435 6.99943 3.87111 7.05896 3.81757 7.10086C3.79118 7.12152 3.77176 7.13806 3.76093 7.14774C3.75775 7.1504 3.75382 7.15204 3.75214 7.15359C3.55683 7.34812 3.2411 7.34858 3.04608 7.15359C2.85116 6.95846 2.85132 6.6418 3.04608 6.44656H3.04706V6.44559L3.04901 6.44461L3.06268 6.43094C3.07061 6.42343 3.08122 6.41302 3.09393 6.40164C3.11965 6.37866 3.15555 6.34789 3.20038 6.31277C3.29032 6.24239 3.42028 6.15178 3.58514 6.0618C3.91519 5.88177 4.39733 5.70063 4.99921 5.70047ZM3.75311 7.15457H3.75214V7.15555H3.75116L3.75214 7.15359L3.75311 7.15457ZM7.47772 2.94949C7.78148 2.94949 8.0285 3.19652 8.0285 3.50027C8.02835 3.8039 7.78139 4.05008 7.47772 4.05008C7.22529 4.05019 7.03823 4.1375 6.91132 4.22586C6.84721 4.2705 6.80001 4.31461 6.77069 4.345C6.75643 4.3598 6.74694 4.37173 6.74237 4.37723L6.74139 4.3782L6.74042 4.37723C6.56067 4.61872 6.21974 4.67106 5.97577 4.49344C5.73089 4.31463 5.67643 3.97119 5.85468 3.72586H5.85565V3.72488L5.85663 3.72391L5.86151 3.71707C5.8638 3.714 5.86627 3.7103 5.86932 3.70633C5.87593 3.69781 5.88554 3.68731 5.89569 3.67508C5.91606 3.65053 5.94376 3.61856 5.9787 3.58231C6.04861 3.50979 6.14965 3.41601 6.28241 3.32352C6.54988 3.13729 6.95242 2.94961 7.47772 2.94949ZM2.59979 2.94949C3.09442 2.94952 3.49512 3.1436 3.75604 3.31668C3.88847 3.40457 3.99292 3.49271 4.06561 3.55984C4.10218 3.59362 4.13226 3.62271 4.1535 3.64481C4.16389 3.65561 4.17228 3.66491 4.17889 3.67215C4.18223 3.67581 4.18533 3.67926 4.18768 3.68192C4.18865 3.683 4.18982 3.68394 4.19061 3.68484L4.19159 3.6868L4.19354 3.68875L4.25702 3.77957C4.38266 4.00213 4.33994 4.28967 4.13983 4.46414C3.91088 4.66343 3.56394 4.63909 3.36444 4.41043C3.36352 4.40945 3.36088 4.40888 3.35956 4.4075C3.35196 4.39961 3.33827 4.38577 3.31952 4.36844C3.2808 4.33267 3.22195 4.28201 3.14764 4.2327C2.99454 4.13119 2.80494 4.05008 2.59979 4.05008C2.2963 4.04995 2.05025 3.80373 2.04999 3.50027C2.0501 3.19672 2.29625 2.94967 2.59979 2.94949Z" fill="white"/>
</g>
<defs>
<filter id="filter0_i_1731_91" x="0" y="0" width="10" height="10" filterUnits="userSpaceOnUse" color-interpolation-filters="sRGB">
<feFlood flood-opacity="0" result="BackgroundImageFix"/>
<feBlend mode="normal" in="SourceGraphic" in2="BackgroundImageFix" result="shape"/>
<feColorMatrix in="SourceAlpha" type="matrix" values="0 0 0 0 0 0 0 0 0 0 0 0 0 0 0 0 0 0 127 0" result="hardAlpha"/>
<feOffset/>
<feGaussianBlur stdDeviation="1"/>
<feComposite in2="hardAlpha" operator="arithmetic" k2="-1" k3="1"/>
<feColorMatrix type="matrix" values="0 0 0 0 0.942 0 0 0 0 0.94 0 0 0 0 1 0 0 0 0.1 0"/>
<feBlend mode="hard-light" in2="shape" result="effect1_innerShadow_1731_91"/>
</filter>
</defs>
</svg>
