<svg width="10" height="10" viewBox="0 0 10 10" fill="none" xmlns="http://www.w3.org/2000/svg">
<g filter="url(#filter0_i_1223_1392)">
<path d="M4.78615 2.75034C5.03452 2.45433 5.47535 2.41533 5.7715 2.66342L7.91701 4.46323C7.9388 4.48152 7.95661 4.50353 7.9756 4.52377C7.98419 4.53297 7.99476 4.54039 8.00294 4.55014C8.00414 4.55156 8.00469 4.55359 8.00587 4.55502C8.024 4.57693 8.03864 4.6008 8.05373 4.62436C8.06466 4.6414 8.07666 4.65747 8.08595 4.67514C8.09666 4.69558 8.10374 4.71737 8.11232 4.73862C8.12067 4.75923 8.13044 4.77902 8.13673 4.80014C8.14338 4.82253 8.14603 4.84563 8.15041 4.8685C8.15454 4.89011 8.16102 4.91114 8.1631 4.93295C8.16522 4.95504 8.16308 4.97716 8.1631 4.99936C8.16311 5.02156 8.16519 5.04368 8.1631 5.06577C8.16105 5.08758 8.15451 5.1086 8.15041 5.13022C8.14606 5.1531 8.14335 5.17617 8.13673 5.19858C8.13047 5.21972 8.12065 5.23947 8.11232 5.2601C8.10377 5.28137 8.09664 5.30311 8.08595 5.32358C8.07667 5.34128 8.06465 5.35729 8.05373 5.37436C8.03866 5.39796 8.02399 5.42175 8.00587 5.4437C8.00453 5.44533 8.00431 5.44793 8.00294 5.44955C7.99492 5.45912 7.98402 5.46592 7.9756 5.47495C7.95646 5.49539 7.939 5.51801 7.91701 5.53647L5.7715 7.33627C5.47535 7.58439 5.03453 7.54537 4.78615 7.24936C4.53775 6.95328 4.57616 6.51253 4.87209 6.26401C5.06426 6.10253 5.16034 6.02179 5.17383 5.9523C5.18791 5.8797 5.16079 5.80525 5.10329 5.75873C5.04827 5.7142 4.92276 5.7142 4.67175 5.7142H2.53615C2.14963 5.7142 1.83609 5.40049 1.83595 5.01401C1.83595 4.62741 2.14955 4.31381 2.53615 4.31381H4.66195C4.94857 4.31381 5.09188 4.31381 5.15018 4.25674C5.19349 4.21435 5.21524 4.15461 5.20933 4.09429C5.20137 4.01309 5.09161 3.92095 4.87209 3.73666C4.57594 3.48817 4.53766 3.04649 4.78615 2.75034Z" fill="white"/>
</g>
<defs>
<filter id="filter0_i_1223_1392" x="0" y="0" width="10" height="10" filterUnits="userSpaceOnUse" color-interpolation-filters="sRGB">
<feFlood flood-opacity="0" result="BackgroundImageFix"/>
<feBlend mode="normal" in="SourceGraphic" in2="BackgroundImageFix" result="shape"/>
<feColorMatrix in="SourceAlpha" type="matrix" values="0 0 0 0 0 0 0 0 0 0 0 0 0 0 0 0 0 0 127 0" result="hardAlpha"/>
<feOffset/>
<feGaussianBlur stdDeviation="1"/>
<feComposite in2="hardAlpha" operator="arithmetic" k2="-1" k3="1"/>
<feColorMatrix type="matrix" values="0 0 0 0 0.942 0 0 0 0 0.94 0 0 0 0 1 0 0 0 0.1 0"/>
<feBlend mode="hard-light" in2="shape" result="effect1_innerShadow_1223_1392"/>
</filter>
</defs>
</svg>
