<svg width="10" height="10" viewBox="0 0 10 10" fill="none" xmlns="http://www.w3.org/2000/svg">
<g filter="url(#filter0_i_1141_612)">
<path d="M3.13514 2.80289C3.38851 2.44103 3.88706 2.35283 4.24897 2.60609L6.70658 4.32621C6.71262 4.33044 6.71795 4.33635 6.72384 4.34071C6.81963 4.39703 6.9059 4.47302 6.97381 4.56997C7.22723 4.93188 7.13959 5.43106 6.7777 5.68449L4.32009 7.40461C3.95817 7.65803 3.45899 7.57042 3.20557 7.2085C2.9523 6.84662 3.04058 6.34808 3.40237 6.09467L3.80501 5.81251C4.2868 5.47488 4.5277 5.30607 4.54783 5.07365C4.55032 5.04495 4.55032 5.0161 4.54784 4.9874C4.52774 4.75498 4.28687 4.58613 3.80513 4.24843L3.33194 3.91672C2.97014 3.66339 2.88203 3.16479 3.13514 2.80289Z" fill="white"/>
</g>
<defs>
<filter id="filter0_i_1141_612" x="0" y="0" width="10" height="10" filterUnits="userSpaceOnUse" color-interpolation-filters="sRGB">
<feFlood flood-opacity="0" result="BackgroundImageFix"/>
<feBlend mode="normal" in="SourceGraphic" in2="BackgroundImageFix" result="shape"/>
<feColorMatrix in="SourceAlpha" type="matrix" values="0 0 0 0 0 0 0 0 0 0 0 0 0 0 0 0 0 0 127 0" result="hardAlpha"/>
<feOffset/>
<feGaussianBlur stdDeviation="1"/>
<feComposite in2="hardAlpha" operator="arithmetic" k2="-1" k3="1"/>
<feColorMatrix type="matrix" values="0 0 0 0 0.942 0 0 0 0 0.94 0 0 0 0 1 0 0 0 0.1 0"/>
<feBlend mode="hard-light" in2="shape" result="effect1_innerShadow_1141_612"/>
</filter>
</defs>
</svg>
