<svg width="10" height="10" viewBox="0 0 10 10" fill="none" xmlns="http://www.w3.org/2000/svg">
<g filter="url(#filter0_i_1727_299)">
<path d="M6.03906 5.59999C6.38639 5.59999 6.56052 5.59954 6.67969 5.73182C6.69357 5.74725 6.71269 5.77351 6.72363 5.79139C6.81622 5.94362 6.77557 6.07941 6.69434 6.34999C6.47479 7.08098 5.90962 7.59999 4.99902 7.59999C4.08852 7.59989 3.5232 7.08098 3.30371 6.34999C3.22247 6.07941 3.18183 5.94362 3.27441 5.79139C3.28534 5.7735 3.30539 5.74732 3.31934 5.73182C3.43847 5.5998 3.61205 5.59999 3.95898 5.59999H6.03906ZM2.04688 2.61073C2.15094 2.41639 2.39324 2.34313 2.58789 2.44667L3.92188 3.1576C4.27482 3.34584 4.27481 3.85218 3.92188 4.04042L2.58789 4.75233C2.39299 4.85627 2.15085 4.78217 2.04688 4.58729C1.94333 4.39252 2.01633 4.15021 2.21094 4.04628L2.42082 3.93424C2.68131 3.79519 2.81155 3.72567 2.82295 3.62058C2.82451 3.60624 2.82451 3.59178 2.82295 3.57744C2.81155 3.47235 2.68131 3.40283 2.42082 3.26378L2.21094 3.15174C2.01658 3.04756 1.94305 2.8054 2.04688 2.61073ZM7.41113 2.44667C7.60578 2.34286 7.84794 2.41643 7.95215 2.61073C8.05604 2.80553 7.98274 3.04768 7.78809 3.15174L7.5782 3.26378C7.31772 3.40283 7.18747 3.47235 7.17607 3.57744C7.17452 3.59178 7.17452 3.60624 7.17607 3.62058C7.18747 3.72567 7.31772 3.79519 7.5782 3.93424L7.78809 4.04628C7.98278 4.15025 8.05588 4.39247 7.95215 4.58729C7.84817 4.78218 7.60604 4.85628 7.41113 4.75233L6.07715 4.04042C5.72462 3.85201 5.72436 3.34578 6.07715 3.1576L7.41113 2.44667Z" fill="white"/>
</g>
<defs>
<filter id="filter0_i_1727_299" x="0" y="0" width="10" height="10" filterUnits="userSpaceOnUse" color-interpolation-filters="sRGB">
<feFlood flood-opacity="0" result="BackgroundImageFix"/>
<feBlend mode="normal" in="SourceGraphic" in2="BackgroundImageFix" result="shape"/>
<feColorMatrix in="SourceAlpha" type="matrix" values="0 0 0 0 0 0 0 0 0 0 0 0 0 0 0 0 0 0 127 0" result="hardAlpha"/>
<feOffset/>
<feGaussianBlur stdDeviation="1"/>
<feComposite in2="hardAlpha" operator="arithmetic" k2="-1" k3="1"/>
<feColorMatrix type="matrix" values="0 0 0 0 0.942 0 0 0 0 0.94 0 0 0 0 1 0 0 0 0.1 0"/>
<feBlend mode="hard-light" in2="shape" result="effect1_innerShadow_1727_299"/>
</filter>
</defs>
</svg>
