<svg width="10" height="10" viewBox="0 0 10 10" fill="none" xmlns="http://www.w3.org/2000/svg">
<g filter="url(#filter0_i_1136_3433)">
<path d="M3.99347 3.45669C4.39068 2.6056 4.58928 2.18005 4.89926 2.12726C4.96594 2.1159 5.03406 2.1159 5.10075 2.12726C5.41072 2.18005 5.60933 2.6056 6.00653 3.45669C6.08419 3.62308 6.12302 3.70628 6.18308 3.77293C6.19698 3.78834 6.21166 3.80303 6.22708 3.81692C6.29373 3.87699 6.37692 3.91582 6.54331 3.99347C7.39441 4.39068 7.81995 4.58928 7.87275 4.89926C7.88411 4.96594 7.88411 5.03406 7.87275 5.10075C7.81995 5.41072 7.39441 5.60933 6.54331 6.00653C6.37692 6.08419 6.29373 6.12302 6.22708 6.18308C6.21166 6.19698 6.19698 6.21166 6.18308 6.22708C6.12302 6.29373 6.08419 6.37692 6.00653 6.54331C5.60933 7.39441 5.41072 7.81995 5.10075 7.87275C5.03406 7.88411 4.96594 7.88411 4.89926 7.87275C4.58928 7.81995 4.39068 7.39441 3.99347 6.54331C3.91582 6.37692 3.87699 6.29373 3.81692 6.22708C3.80303 6.21166 3.78834 6.19698 3.77293 6.18308C3.70628 6.12302 3.62308 6.08419 3.45669 6.00653C2.6056 5.60933 2.18005 5.41072 2.12726 5.10075C2.1159 5.03406 2.1159 4.96594 2.12726 4.89926C2.18005 4.58928 2.6056 4.39068 3.45669 3.99347C3.62308 3.91582 3.70628 3.87699 3.77293 3.81692C3.78834 3.80303 3.80303 3.78834 3.81692 3.77293C3.87699 3.70628 3.91582 3.62308 3.99347 3.45669Z" fill="white"/>
</g>
<defs>
<filter id="filter0_i_1136_3433" x="0" y="0" width="10" height="10" filterUnits="userSpaceOnUse" color-interpolation-filters="sRGB">
<feFlood flood-opacity="0" result="BackgroundImageFix"/>
<feBlend mode="normal" in="SourceGraphic" in2="BackgroundImageFix" result="shape"/>
<feColorMatrix in="SourceAlpha" type="matrix" values="0 0 0 0 0 0 0 0 0 0 0 0 0 0 0 0 0 0 127 0" result="hardAlpha"/>
<feOffset/>
<feGaussianBlur stdDeviation="1"/>
<feComposite in2="hardAlpha" operator="arithmetic" k2="-1" k3="1"/>
<feColorMatrix type="matrix" values="0 0 0 0 0.942 0 0 0 0 0.94 0 0 0 0 1 0 0 0 0.1 0"/>
<feBlend mode="hard-light" in2="shape" result="effect1_innerShadow_1136_3433"/>
</filter>
</defs>
</svg>
