<svg width="10" height="10" viewBox="0 0 10 10" fill="none" xmlns="http://www.w3.org/2000/svg">
<g filter="url(#filter0_i_1141_522)">
<path d="M4.81363 2.10001C5.46511 2.10001 5.98364 2.33391 6.33414 2.72305C6.6726 3.09912 6.81354 3.57435 6.81363 3.99942C6.81363 4.48925 6.59291 4.90268 6.33414 5.22891C6.07568 5.55467 5.74024 5.84349 5.42105 6.09219C5.25912 6.21836 5.09375 6.34016 4.93765 6.4545C4.83126 6.53242 4.88646 6.69962 5.01833 6.69962H6.61343C6.9446 6.69962 7.21369 6.96813 7.21402 7.29922C7.21402 7.6306 6.9448 7.89981 6.61343 7.89981H3.71304C3.66745 7.89982 3.52141 7.90414 3.38492 7.86856C3.18762 7.81708 3.03248 7.69845 2.92496 7.53555C2.89483 7.48983 2.86341 7.42946 2.8439 7.37833C2.79518 7.25035 2.75793 7.07298 2.81656 6.87247C2.8612 6.72008 2.95531 6.5995 2.96695 6.5834C3.16985 6.30125 3.48197 6.04582 3.76675 5.82852C3.91559 5.71496 4.07526 5.59812 4.22867 5.48575C4.38415 5.37186 4.53649 5.25987 4.68277 5.1459C4.98047 4.91396 5.22566 4.69548 5.39371 4.4838C5.56138 4.27244 5.61343 4.11613 5.61343 3.99942C5.61334 3.82473 5.55388 3.6495 5.44254 3.52579C5.34297 3.41533 5.16152 3.29922 4.81363 3.29922C4.4657 3.29925 4.28426 3.41532 4.18472 3.52579C4.07338 3.6495 4.01392 3.82473 4.01382 3.99942C4.01382 4.33079 3.74461 4.60001 3.41324 4.60001C3.08209 4.59974 2.81363 4.33063 2.81363 3.99942C2.81372 3.57435 2.95466 3.09912 3.29312 2.72305C3.6436 2.33387 4.16214 2.10003 4.81363 2.10001Z" fill="white"/>
</g>
<defs>
<filter id="filter0_i_1141_522" x="0" y="0" width="10" height="10" filterUnits="userSpaceOnUse" color-interpolation-filters="sRGB">
<feFlood flood-opacity="0" result="BackgroundImageFix"/>
<feBlend mode="normal" in="SourceGraphic" in2="BackgroundImageFix" result="shape"/>
<feColorMatrix in="SourceAlpha" type="matrix" values="0 0 0 0 0 0 0 0 0 0 0 0 0 0 0 0 0 0 127 0" result="hardAlpha"/>
<feOffset/>
<feGaussianBlur stdDeviation="1"/>
<feComposite in2="hardAlpha" operator="arithmetic" k2="-1" k3="1"/>
<feColorMatrix type="matrix" values="0 0 0 0 0.942 0 0 0 0 0.94 0 0 0 0 1 0 0 0 0.1 0"/>
<feBlend mode="hard-light" in2="shape" result="effect1_innerShadow_1141_522"/>
</filter>
</defs>
</svg>
