<svg width="10" height="10" viewBox="0 0 10 10" fill="none" xmlns="http://www.w3.org/2000/svg">
<g filter="url(#filter0_i_1141_519)">
<path d="M5.22949 2.05212L5.34277 2.08435L5.42188 2.11951L5.49707 2.16345L5.58984 2.23669C5.7832 2.41743 5.81525 2.65338 5.82422 2.75037C5.83545 2.8722 5.82788 3.0205 5.82324 3.13416L5.691 6.36459C5.68381 6.54004 5.68022 6.62777 5.72819 6.68657C5.73499 6.6949 5.74245 6.70266 5.75049 6.7098C5.80728 6.76013 5.89508 6.76013 6.07068 6.76013H6.25C6.58137 6.76013 6.84961 7.02935 6.84961 7.36072C6.84929 7.69182 6.58118 7.96033 6.25 7.96033H3.84961C3.51877 7.95994 3.25032 7.69158 3.25 7.36072C3.25 7.02959 3.51857 6.76052 3.84961 6.76013H4.10879C4.27181 6.76013 4.35332 6.76013 4.40869 6.71457C4.41657 6.70808 4.42395 6.701 4.43075 6.69339C4.47853 6.63992 4.48184 6.55848 4.48848 6.39559L4.5726 4.32985C4.57767 4.20543 4.5802 4.14322 4.56643 4.1058C4.52978 4.00628 4.4176 3.9519 4.31677 3.98476C4.27886 3.99712 4.23278 4.03661 4.14062 4.1156C3.88917 4.33086 3.51056 4.30225 3.29492 4.05115C3.0794 3.79965 3.10806 3.42015 3.35938 3.20447C3.65278 2.95298 4.05423 2.63313 4.36719 2.38708C4.45585 2.31738 4.5708 2.22548 4.67578 2.16345C4.7601 2.11373 4.97027 2.00123 5.22949 2.05212Z" fill="white"/>
</g>
<defs>
<filter id="filter0_i_1141_519" x="0" y="0" width="10" height="10" filterUnits="userSpaceOnUse" color-interpolation-filters="sRGB">
<feFlood flood-opacity="0" result="BackgroundImageFix"/>
<feBlend mode="normal" in="SourceGraphic" in2="BackgroundImageFix" result="shape"/>
<feColorMatrix in="SourceAlpha" type="matrix" values="0 0 0 0 0 0 0 0 0 0 0 0 0 0 0 0 0 0 127 0" result="hardAlpha"/>
<feOffset/>
<feGaussianBlur stdDeviation="1"/>
<feComposite in2="hardAlpha" operator="arithmetic" k2="-1" k3="1"/>
<feColorMatrix type="matrix" values="0 0 0 0 0.942 0 0 0 0 0.94 0 0 0 0 1 0 0 0 0.1 0"/>
<feBlend mode="hard-light" in2="shape" result="effect1_innerShadow_1141_519"/>
</filter>
</defs>
</svg>
