<svg width="10" height="10" viewBox="0 0 10 10" fill="none" xmlns="http://www.w3.org/2000/svg">
<g filter="url(#filter0_i_1136_3421)">
<path d="M4.25138 2.55824C4.57659 2.14197 4.7392 1.93383 4.95468 1.91422C4.98483 1.91148 5.01517 1.91148 5.04532 1.91422C5.2608 1.93383 5.42341 2.14197 5.74862 2.55824L6.98279 4.13797C7.21848 4.43965 7.33632 4.5905 7.35245 4.76606C7.35478 4.79136 7.35549 4.81679 7.35459 4.84219C7.34835 5.01838 7.23917 5.17561 7.0208 5.49006L5.7803 7.27637C5.44584 7.758 5.2786 7.99882 5.04812 8.0211C5.01611 8.02419 4.98389 8.02419 4.95189 8.0211C4.7214 7.99882 4.55417 7.758 4.2197 7.27637L2.9792 5.49006C2.76083 5.17561 2.65165 5.01838 2.64541 4.84219C2.64451 4.81679 2.64522 4.79136 2.64755 4.76606C2.66368 4.5905 2.78153 4.43965 3.01722 4.13797L4.25138 2.55824Z" fill="white"/>
</g>
<defs>
<filter id="filter0_i_1136_3421" x="0" y="0" width="10" height="10" filterUnits="userSpaceOnUse" color-interpolation-filters="sRGB">
<feFlood flood-opacity="0" result="BackgroundImageFix"/>
<feBlend mode="normal" in="SourceGraphic" in2="BackgroundImageFix" result="shape"/>
<feColorMatrix in="SourceAlpha" type="matrix" values="0 0 0 0 0 0 0 0 0 0 0 0 0 0 0 0 0 0 127 0" result="hardAlpha"/>
<feOffset/>
<feGaussianBlur stdDeviation="1"/>
<feComposite in2="hardAlpha" operator="arithmetic" k2="-1" k3="1"/>
<feColorMatrix type="matrix" values="0 0 0 0 0.942 0 0 0 0 0.94 0 0 0 0 1 0 0 0 0.1 0"/>
<feBlend mode="hard-light" in2="shape" result="effect1_innerShadow_1136_3421"/>
</filter>
</defs>
</svg>
