<svg width="10" height="10" viewBox="0 0 10 10" fill="none" xmlns="http://www.w3.org/2000/svg">
<g filter="url(#filter0_i_1378_252)">
<path d="M5.96286 2.18892C6.18997 1.94774 6.56925 1.93648 6.81052 2.16353C7.05172 2.39054 7.06371 2.76986 6.83688 3.01118L5.72503 4.19234C5.57624 4.3504 5.50185 4.42943 5.48969 4.52654C5.48795 4.54045 5.48719 4.55446 5.48741 4.56848C5.48893 4.66633 5.55429 4.75298 5.68502 4.92628L7.27829 7.03853C7.47778 7.30297 7.42541 7.67875 7.1611 7.87837C6.89658 8.07796 6.51987 8.02571 6.32028 7.76118L4.96781 5.96814C4.78944 5.73167 4.70025 5.61343 4.57756 5.59601C4.56031 5.59356 4.54288 5.59261 4.52547 5.59319C4.40161 5.59728 4.3002 5.70521 4.09736 5.92106L3.95439 6.07321C3.88209 6.15014 3.84595 6.18861 3.82522 6.23566C3.82218 6.24257 3.8194 6.24958 3.81689 6.2567C3.79977 6.30517 3.79977 6.35796 3.79977 6.46354V7.39986C3.79974 7.73115 3.53145 7.99939 3.20016 7.99947C2.86881 7.99947 2.60059 7.7312 2.60056 7.39986V2.60005C2.60062 2.26873 2.86883 2.00044 3.20016 2.00044C3.53143 2.00052 3.79971 2.26878 3.79977 2.60005V3.04967C3.79977 3.62254 3.79977 3.90898 3.95676 3.99412C3.97776 4.00551 4.00005 4.01435 4.02315 4.02045C4.19581 4.06606 4.39214 3.8575 4.78481 3.44036L5.96286 2.18892Z" fill="white"/>
</g>
<defs>
<filter id="filter0_i_1378_252" x="0" y="0" width="10" height="10" filterUnits="userSpaceOnUse" color-interpolation-filters="sRGB">
<feFlood flood-opacity="0" result="BackgroundImageFix"/>
<feBlend mode="normal" in="SourceGraphic" in2="BackgroundImageFix" result="shape"/>
<feColorMatrix in="SourceAlpha" type="matrix" values="0 0 0 0 0 0 0 0 0 0 0 0 0 0 0 0 0 0 127 0" result="hardAlpha"/>
<feOffset/>
<feGaussianBlur stdDeviation="1"/>
<feComposite in2="hardAlpha" operator="arithmetic" k2="-1" k3="1"/>
<feColorMatrix type="matrix" values="0 0 0 0 0.942 0 0 0 0 0.94 0 0 0 0 1 0 0 0 0.1 0"/>
<feBlend mode="hard-light" in2="shape" result="effect1_innerShadow_1378_252"/>
</filter>
</defs>
</svg>
