<svg width="10" height="10" viewBox="0 0 10 10" fill="none" xmlns="http://www.w3.org/2000/svg">
<g filter="url(#filter0_i_1722_231)">
<path d="M6.30029 6.1499C6.57622 6.15012 6.80025 6.37393 6.80029 6.6499C6.80029 6.92591 6.57625 7.14968 6.30029 7.1499H3.70068C3.42454 7.1499 3.20068 6.92604 3.20068 6.6499C3.20073 6.3738 3.42457 6.1499 3.70068 6.1499H6.30029ZM2.8999 2.8501C3.4001 2.8501 3.69971 3.2501 3.69971 3.8501C3.69966 4.45003 3.39987 4.8501 2.8999 4.8501C2.40003 4.85001 2.10013 4.44997 2.1001 3.8501C2.1001 3.25016 2.3998 2.85019 2.8999 2.8501ZM7.1001 2.8501C7.6003 2.8501 7.89991 3.2501 7.8999 3.8501C7.89986 4.45003 7.60007 4.8501 7.1001 4.8501C6.60027 4.84998 6.30033 4.44994 6.30029 3.8501C6.3003 3.25019 6.60004 2.85022 7.1001 2.8501Z" fill="white"/>
</g>
<defs>
<filter id="filter0_i_1722_231" x="0" y="0" width="10" height="10" filterUnits="userSpaceOnUse" color-interpolation-filters="sRGB">
<feFlood flood-opacity="0" result="BackgroundImageFix"/>
<feBlend mode="normal" in="SourceGraphic" in2="BackgroundImageFix" result="shape"/>
<feColorMatrix in="SourceAlpha" type="matrix" values="0 0 0 0 0 0 0 0 0 0 0 0 0 0 0 0 0 0 127 0" result="hardAlpha"/>
<feOffset/>
<feGaussianBlur stdDeviation="1"/>
<feComposite in2="hardAlpha" operator="arithmetic" k2="-1" k3="1"/>
<feColorMatrix type="matrix" values="0 0 0 0 0.942 0 0 0 0 0.94 0 0 0 0 1 0 0 0 0.1 0"/>
<feBlend mode="hard-light" in2="shape" result="effect1_innerShadow_1722_231"/>
</filter>
</defs>
</svg>
