<svg width="10" height="10" viewBox="0 0 10 10" fill="none" xmlns="http://www.w3.org/2000/svg">
<g filter="url(#filter0_i_1223_1379)">
<path d="M4.79163 2.49265C4.50422 2.48903 4.16283 2.76276 3.48108 3.311L2.85413 3.81491C2.21238 4.33098 1.89144 4.58946 1.86096 4.92819C1.85672 4.97555 1.85674 5.02341 1.86096 5.07077C1.89132 5.4096 2.21229 5.66791 2.85413 6.18405L3.48108 6.68893C4.16272 7.23709 4.50425 7.51091 4.79163 7.50729C5.0267 7.5042 5.24844 7.39763 5.39807 7.21628C5.45593 7.1461 5.49526 7.05435 5.52202 6.93397C5.60542 6.55882 5.64713 6.37125 5.74123 6.28587C5.75509 6.27329 5.76389 6.26623 5.77918 6.25543C5.88295 6.1821 6.03291 6.1821 6.33283 6.1821H7.34241C7.78424 6.1821 8.14221 5.82314 8.14221 5.38132V4.58151C8.14209 4.13979 7.78416 3.78171 7.34241 3.78171H6.33113C6.03803 3.78171 5.89147 3.78171 5.78916 3.71144C5.77375 3.70086 5.76564 3.69456 5.7516 3.68222C5.65835 3.6003 5.61038 3.41104 5.51443 3.0325C5.48792 2.9279 5.45061 2.84636 5.39807 2.78268C5.24844 2.6015 5.02658 2.49574 4.79163 2.49265Z" fill="white"/>
</g>
<defs>
<filter id="filter0_i_1223_1379" x="0" y="0" width="10" height="10" filterUnits="userSpaceOnUse" color-interpolation-filters="sRGB">
<feFlood flood-opacity="0" result="BackgroundImageFix"/>
<feBlend mode="normal" in="SourceGraphic" in2="BackgroundImageFix" result="shape"/>
<feColorMatrix in="SourceAlpha" type="matrix" values="0 0 0 0 0 0 0 0 0 0 0 0 0 0 0 0 0 0 127 0" result="hardAlpha"/>
<feOffset/>
<feGaussianBlur stdDeviation="1"/>
<feComposite in2="hardAlpha" operator="arithmetic" k2="-1" k3="1"/>
<feColorMatrix type="matrix" values="0 0 0 0 0.942 0 0 0 0 0.94 0 0 0 0 1 0 0 0 0.1 0"/>
<feBlend mode="hard-light" in2="shape" result="effect1_innerShadow_1223_1379"/>
</filter>
</defs>
</svg>
