<svg width="10" height="10" viewBox="0 0 10 10" fill="none" xmlns="http://www.w3.org/2000/svg">
<g filter="url(#filter0_i_1720_211)">
<path d="M6.04022 5.65039C6.38771 5.65039 6.56146 5.65039 6.68064 5.7829C6.69465 5.79848 6.71415 5.8247 6.72504 5.8426C6.81762 5.99489 6.77695 6.13015 6.69561 6.40067C6.47583 7.13169 5.91006 7.65039 4.99951 7.65039C4.08919 7.65025 3.5239 7.13159 3.3043 6.40069C3.22301 6.13011 3.18237 5.99482 3.27495 5.84257C3.28584 5.82466 3.30533 5.79845 3.31935 5.78287C3.43853 5.65039 3.61228 5.65039 3.95978 5.65039H6.04022ZM2.8999 2.34961C3.39997 2.34961 3.69955 2.74987 3.69971 3.34961C3.6997 3.94961 3.3999 4.34961 2.8999 4.34961C2.4 4.34952 2.10009 3.94954 2.1001 3.34961C2.10026 2.74994 2.39993 2.3497 2.8999 2.34961ZM7.1001 2.34961C7.60017 2.34961 7.89975 2.74987 7.8999 3.34961C7.8999 3.94961 7.6001 4.34961 7.1001 4.34961C6.60023 4.34949 6.30029 3.94952 6.30029 3.34961C6.30045 2.74996 6.60016 2.34973 7.1001 2.34961Z" fill="white"/>
</g>
<defs>
<filter id="filter0_i_1720_211" x="0" y="0" width="10" height="10" filterUnits="userSpaceOnUse" color-interpolation-filters="sRGB">
<feFlood flood-opacity="0" result="BackgroundImageFix"/>
<feBlend mode="normal" in="SourceGraphic" in2="BackgroundImageFix" result="shape"/>
<feColorMatrix in="SourceAlpha" type="matrix" values="0 0 0 0 0 0 0 0 0 0 0 0 0 0 0 0 0 0 127 0" result="hardAlpha"/>
<feOffset/>
<feGaussianBlur stdDeviation="1"/>
<feComposite in2="hardAlpha" operator="arithmetic" k2="-1" k3="1"/>
<feColorMatrix type="matrix" values="0 0 0 0 0.942 0 0 0 0 0.94 0 0 0 0 1 0 0 0 0.1 0"/>
<feBlend mode="hard-light" in2="shape" result="effect1_innerShadow_1720_211"/>
</filter>
</defs>
</svg>
