<svg width="10" height="10" viewBox="0 0 10 10" fill="none" xmlns="http://www.w3.org/2000/svg">
<g filter="url(#filter0_i_1731_124)">
<path d="M4.99926 5.60021C5.90972 5.60021 6.47495 6.11842 6.69457 6.84923C6.77581 7.11981 6.81646 7.25559 6.72387 7.40782C6.71296 7.42571 6.69387 7.45189 6.67992 7.46739C6.56075 7.59985 6.38678 7.60021 6.0393 7.60021H3.95922C3.61211 7.60021 3.43871 7.59962 3.31957 7.46739C3.30556 7.45182 3.28554 7.42573 3.27465 7.40782C3.18206 7.25559 3.22271 7.11981 3.30395 6.84923C3.52351 6.11841 4.0889 5.60031 4.99926 5.60021ZM2.04711 2.61095C2.15118 2.41661 2.39347 2.34335 2.58813 2.44689L3.92211 3.15782C4.27505 3.34606 4.27505 3.8524 3.92211 4.04064L2.58813 4.75255C2.39322 4.85649 2.15108 4.7824 2.04711 4.58751C1.94356 4.39274 2.01656 4.15043 2.21117 4.0465L2.42106 3.93446C2.68154 3.79541 2.81179 3.72589 2.82319 3.6208C2.82474 3.60646 2.82474 3.592 2.82319 3.57766C2.81179 3.47257 2.68154 3.40305 2.42106 3.264L2.21117 3.15197C2.01682 3.04778 1.94329 2.80562 2.04711 2.61095ZM7.41137 2.44689C7.60602 2.34308 7.84818 2.41665 7.95238 2.61095C8.05628 2.80576 7.98298 3.0479 7.78832 3.15197L7.57844 3.264C7.31795 3.40305 7.18771 3.47257 7.17631 3.57766C7.17475 3.592 7.17475 3.60646 7.17631 3.6208C7.18771 3.72589 7.31795 3.79541 7.57844 3.93446L7.78832 4.0465C7.98302 4.15047 8.05611 4.39269 7.95238 4.58751C7.84841 4.7824 7.60628 4.8565 7.41137 4.75255L6.07738 4.04064C5.72486 3.85223 5.7246 3.346 6.07738 3.15782L7.41137 2.44689Z" fill="white"/>
</g>
<defs>
<filter id="filter0_i_1731_124" x="0" y="0" width="10" height="10" filterUnits="userSpaceOnUse" color-interpolation-filters="sRGB">
<feFlood flood-opacity="0" result="BackgroundImageFix"/>
<feBlend mode="normal" in="SourceGraphic" in2="BackgroundImageFix" result="shape"/>
<feColorMatrix in="SourceAlpha" type="matrix" values="0 0 0 0 0 0 0 0 0 0 0 0 0 0 0 0 0 0 127 0" result="hardAlpha"/>
<feOffset/>
<feGaussianBlur stdDeviation="1"/>
<feComposite in2="hardAlpha" operator="arithmetic" k2="-1" k3="1"/>
<feColorMatrix type="matrix" values="0 0 0 0 0.942 0 0 0 0 0.94 0 0 0 0 1 0 0 0 0.1 0"/>
<feBlend mode="hard-light" in2="shape" result="effect1_innerShadow_1731_124"/>
</filter>
</defs>
</svg>
