<svg width="10" height="10" viewBox="0 0 10 10" fill="none" xmlns="http://www.w3.org/2000/svg">
<g filter="url(#filter0_i_1378_262)">
<path d="M5.35008 2.00048C6.48193 2.00066 7.39964 2.91846 7.39989 4.05029C7.39975 5.18221 6.48199 6.09991 5.35008 6.10009H4.5593C4.22092 6.10009 4.05173 6.10009 3.93952 6.19593C3.92359 6.20954 3.90875 6.22438 3.89514 6.24031C3.7993 6.35252 3.7993 6.52171 3.7993 6.86009V7.39989C3.79927 7.73124 3.53104 7.9995 3.19969 7.9995C2.86839 7.99945 2.60012 7.7312 2.60008 7.39989V3.1997C2.60008 3.11495 2.59946 3.02061 2.60497 2.93993C2.6109 2.85372 2.6259 2.73926 2.67625 2.61767L2.71825 2.52782C2.82687 2.32525 3.00303 2.16539 3.21727 2.07665L3.30711 2.04443C3.39451 2.0189 3.47496 2.00979 3.53954 2.00536C3.62032 1.99985 3.71445 2.00048 3.7993 2.00048H5.35008ZM3.7993 4.13989C3.7993 4.47827 3.7993 4.64746 3.89514 4.75967C3.90875 4.77561 3.92359 4.79045 3.93952 4.80406C4.05173 4.89989 4.22092 4.89989 4.5593 4.89989H5.35008C5.81925 4.89972 6.19955 4.51946 6.19969 4.05029C6.19944 3.5812 5.81918 3.19988 5.35008 3.1997H4.5593C4.22092 3.1997 4.05173 3.1997 3.93952 3.29554C3.92359 3.30915 3.90875 3.32399 3.89514 3.33992C3.7993 3.45213 3.7993 3.62132 3.7993 3.9597V4.13989Z" fill="white"/>
</g>
<defs>
<filter id="filter0_i_1378_262" x="0" y="0" width="10" height="10" filterUnits="userSpaceOnUse" color-interpolation-filters="sRGB">
<feFlood flood-opacity="0" result="BackgroundImageFix"/>
<feBlend mode="normal" in="SourceGraphic" in2="BackgroundImageFix" result="shape"/>
<feColorMatrix in="SourceAlpha" type="matrix" values="0 0 0 0 0 0 0 0 0 0 0 0 0 0 0 0 0 0 127 0" result="hardAlpha"/>
<feOffset/>
<feGaussianBlur stdDeviation="1"/>
<feComposite in2="hardAlpha" operator="arithmetic" k2="-1" k3="1"/>
<feColorMatrix type="matrix" values="0 0 0 0 0.942 0 0 0 0 0.94 0 0 0 0 1 0 0 0 0.1 0"/>
<feBlend mode="hard-light" in2="shape" result="effect1_innerShadow_1378_262"/>
</filter>
</defs>
</svg>
