<svg width="10" height="10" viewBox="0 0 10 10" fill="none" xmlns="http://www.w3.org/2000/svg">
<g filter="url(#filter0_i_1378_264)">
<path d="M4.79993 2C6.34632 2 7.59973 3.34315 7.59973 5C7.59973 5.31754 7.55303 5.62321 7.46717 5.91018C7.37648 6.21333 7.33113 6.3649 7.35514 6.46832C7.35921 6.48581 7.36209 6.49563 7.36814 6.51254C7.40389 6.61251 7.5022 6.69675 7.69884 6.86525L7.79114 6.94434C8.04243 7.15997 8.07098 7.53853 7.85559 7.79004C7.63996 8.0416 7.26148 8.07103 7.00989 7.85547L6.95596 7.80914C6.75466 7.63623 6.65401 7.54978 6.54889 7.52989C6.53071 7.52645 6.5213 7.52523 6.50285 7.52391C6.39614 7.51634 6.24559 7.58939 5.94449 7.73551C5.59536 7.90492 5.20841 8 4.79993 8C3.25362 7.99989 2.00012 6.65678 2.00012 5C2.00012 3.34322 3.25362 2.00011 4.79993 2ZM4.79993 3.2002C3.99297 3.20031 3.20032 3.92665 3.20032 5C3.20032 6.07335 3.99297 6.79969 4.79993 6.7998C5.60695 6.7998 6.40051 6.07344 6.40051 5C6.40051 3.92656 5.60695 3.2002 4.79993 3.2002Z" fill="white"/>
</g>
<defs>
<filter id="filter0_i_1378_264" x="0" y="0" width="10" height="10" filterUnits="userSpaceOnUse" color-interpolation-filters="sRGB">
<feFlood flood-opacity="0" result="BackgroundImageFix"/>
<feBlend mode="normal" in="SourceGraphic" in2="BackgroundImageFix" result="shape"/>
<feColorMatrix in="SourceAlpha" type="matrix" values="0 0 0 0 0 0 0 0 0 0 0 0 0 0 0 0 0 0 127 0" result="hardAlpha"/>
<feOffset/>
<feGaussianBlur stdDeviation="1"/>
<feComposite in2="hardAlpha" operator="arithmetic" k2="-1" k3="1"/>
<feColorMatrix type="matrix" values="0 0 0 0 0.942 0 0 0 0 0.94 0 0 0 0 1 0 0 0 0.1 0"/>
<feBlend mode="hard-light" in2="shape" result="effect1_innerShadow_1378_264"/>
</filter>
</defs>
</svg>
