<svg width="10" height="10" viewBox="0 0 10 10" fill="none" xmlns="http://www.w3.org/2000/svg">
<g filter="url(#filter0_i_1728_78)">
<path fill-rule="evenodd" clip-rule="evenodd" d="M3.04632 5.69678C3.24158 5.50152 3.55809 5.50152 3.75335 5.69678L3.76117 5.70361C3.77214 5.7134 3.79156 5.72995 3.81781 5.75049C3.87149 5.79246 3.95453 5.85195 4.0639 5.91162C4.28364 6.03144 4.60199 6.14982 4.99945 6.1499C5.39687 6.14988 5.71522 6.03142 5.93499 5.91162C6.04461 5.85183 6.12836 5.7925 6.18206 5.75049C6.20849 5.7298 6.22776 5.71338 6.2387 5.70361L6.24652 5.69678L6.32464 5.63232C6.51871 5.50426 6.78272 5.52595 6.95355 5.69678C7.1485 5.89203 7.14862 6.20863 6.95355 6.40381L6.93695 6.42041C6.92901 6.42793 6.9184 6.43737 6.9057 6.44873C6.87986 6.47181 6.84338 6.5023 6.79827 6.5376C6.70823 6.60805 6.57954 6.69952 6.41449 6.78955C6.08432 6.96964 5.60163 7.14988 4.99945 7.1499C4.39756 7.14982 3.91549 6.96956 3.58538 6.78955C3.42033 6.69952 3.29067 6.60806 3.20062 6.5376C3.15576 6.50248 3.11993 6.47174 3.09417 6.44873C3.08154 6.43744 3.07086 6.42792 3.06292 6.42041L3.04632 6.40381C2.85108 6.20857 2.85113 5.89205 3.04632 5.69678ZM3.09906 2.8501C3.48924 2.8501 3.79089 3.00506 3.9848 3.14697C4.08205 3.21819 4.1575 3.28923 4.20941 3.34424C4.23548 3.37189 4.25643 3.39671 4.27191 3.41553C4.27956 3.42483 4.28634 3.43335 4.29144 3.43994C4.29385 3.44306 4.29643 3.44629 4.29827 3.44873C4.29898 3.44966 4.29963 3.45082 4.30023 3.45166L4.30218 3.45361V3.45459C4.29771 3.4581 4.25684 3.48858 3.89886 3.75049L4.30316 3.45459C4.46619 3.67743 4.41755 3.99074 4.19476 4.15381C3.99987 4.29616 3.73597 4.27668 3.5639 4.12061L3.49749 4.04736V4.04834C3.4944 4.04467 3.48909 4.03843 3.48187 4.03076C3.46306 4.01084 3.43292 3.98213 3.39398 3.95361C3.31477 3.8957 3.21587 3.8501 3.09906 3.8501C2.98236 3.85027 2.88325 3.89569 2.80413 3.95361C2.76531 3.9821 2.73495 4.01092 2.71624 4.03076L2.69964 4.04834C2.53592 4.26794 2.22593 4.3157 2.00433 4.15381C1.78178 3.99077 1.73317 3.67735 1.89593 3.45459L1.89691 3.45361L1.89788 3.45166C1.89857 3.45073 1.89994 3.44976 1.90081 3.44873C1.90268 3.44625 1.90516 3.44315 1.90765 3.43994C1.91269 3.43343 1.91865 3.42474 1.9262 3.41553C1.94164 3.39675 1.96267 3.37186 1.9887 3.34424C2.04052 3.28929 2.11613 3.2182 2.21331 3.14697C2.4071 3.00509 2.709 2.85027 3.09906 2.8501ZM6.89984 2.8501C7.29016 2.85013 7.5917 3.00502 7.78558 3.14697C7.88291 3.21825 7.95829 3.28922 8.01019 3.34424C8.03632 3.37195 8.05721 3.39671 8.07269 3.41553C8.08038 3.42489 8.08711 3.43334 8.09222 3.43994C8.09467 3.44311 8.09721 3.44628 8.09906 3.44873C8.09978 3.44971 8.10038 3.45081 8.10101 3.45166L8.10296 3.45361V3.45459C8.10031 3.45676 8.06817 3.48086 7.69964 3.75049L8.10394 3.45459C8.26688 3.6774 8.21827 3.99075 7.99554 4.15381C7.80065 4.29639 7.53685 4.2767 7.36468 4.12061L7.29827 4.04736V4.04834C7.29521 4.0447 7.28996 4.03853 7.28265 4.03076C7.26387 4.01085 7.23379 3.9822 7.19476 3.95361C7.11553 3.89562 7.01674 3.85013 6.89984 3.8501C6.78296 3.85015 6.68412 3.89563 6.60492 3.95361C6.56596 3.98216 6.53579 4.01087 6.51702 4.03076L6.50042 4.04834C6.33678 4.26814 6.0268 4.31568 5.80511 4.15381C5.58224 3.99076 5.53366 3.67746 5.69671 3.45459L5.69769 3.45361L5.69867 3.45166C5.69942 3.45066 5.70071 3.4499 5.7016 3.44873C5.70351 3.44619 5.70587 3.44325 5.70843 3.43994C5.71351 3.43337 5.71934 3.42483 5.72699 3.41553C5.74247 3.3967 5.76335 3.37196 5.78949 3.34424C5.84136 3.28923 5.91677 3.21827 6.0141 3.14697C6.20796 3.00504 6.50959 2.85015 6.89984 2.8501Z" fill="white"/>
</g>
<defs>
<filter id="filter0_i_1728_78" x="0" y="0" width="10" height="10" filterUnits="userSpaceOnUse" color-interpolation-filters="sRGB">
<feFlood flood-opacity="0" result="BackgroundImageFix"/>
<feBlend mode="normal" in="SourceGraphic" in2="BackgroundImageFix" result="shape"/>
<feColorMatrix in="SourceAlpha" type="matrix" values="0 0 0 0 0 0 0 0 0 0 0 0 0 0 0 0 0 0 127 0" result="hardAlpha"/>
<feOffset/>
<feGaussianBlur stdDeviation="1"/>
<feComposite in2="hardAlpha" operator="arithmetic" k2="-1" k3="1"/>
<feColorMatrix type="matrix" values="0 0 0 0 0.942 0 0 0 0 0.94 0 0 0 0 1 0 0 0 0.1 0"/>
<feBlend mode="hard-light" in2="shape" result="effect1_innerShadow_1728_78"/>
</filter>
</defs>
</svg>
