<svg width="10" height="10" viewBox="0 0 10 10" fill="none" xmlns="http://www.w3.org/2000/svg">
<g filter="url(#filter0_i_1223_1387)">
<path d="M5.21385 7.24966C4.96548 7.54567 4.52465 7.58467 4.2285 7.33658L2.08299 5.53677C2.06119 5.51848 2.04339 5.49647 2.0244 5.47623C2.01581 5.46703 2.00524 5.45961 1.99706 5.44986C1.99586 5.44844 1.99531 5.44641 1.99413 5.44498C1.976 5.42307 1.96136 5.3992 1.94627 5.37564C1.93534 5.3586 1.92334 5.34253 1.91405 5.32486C1.90334 5.30442 1.89626 5.28263 1.88768 5.26138C1.87933 5.24077 1.86956 5.22098 1.86327 5.19986C1.85662 5.17747 1.85397 5.15437 1.84959 5.1315C1.84546 5.10989 1.83898 5.08886 1.8369 5.06705C1.83478 5.04496 1.83692 5.02284 1.8369 5.00064C1.83689 4.97844 1.83481 4.95632 1.8369 4.93423C1.83895 4.91242 1.84549 4.8914 1.84959 4.86978C1.85394 4.8469 1.85665 4.82383 1.86327 4.80142C1.86953 4.78028 1.87935 4.76053 1.88768 4.7399C1.89623 4.71863 1.90336 4.69689 1.91405 4.67642C1.92333 4.65872 1.93535 4.64271 1.94627 4.62564C1.96134 4.60204 1.97601 4.57825 1.99413 4.5563C1.99547 4.55467 1.99569 4.55207 1.99706 4.55045C2.00508 4.54088 2.01598 4.53408 2.0244 4.52505C2.04354 4.50461 2.061 4.48199 2.08299 4.46353L4.2285 2.66373C4.52465 2.41561 4.96547 2.45463 5.21385 2.75064C5.46225 3.04672 5.42384 3.48747 5.12791 3.73599C4.93574 3.89747 4.83966 3.97821 4.82617 4.0477C4.81209 4.1203 4.83921 4.19475 4.89671 4.24127C4.95173 4.2858 5.07724 4.2858 5.32825 4.2858H7.46385C7.85037 4.2858 8.16391 4.59951 8.16405 4.98599C8.16405 5.37259 7.85045 5.68619 7.46385 5.68619H5.33805C5.05143 5.68619 4.90812 5.68619 4.84982 5.74326C4.80651 5.78565 4.78476 5.84539 4.79067 5.90571C4.79863 5.98691 4.90839 6.07905 5.12791 6.26334C5.42406 6.51183 5.46234 6.95351 5.21385 7.24966Z" fill="white"/>
</g>
<defs>
<filter id="filter0_i_1223_1387" x="0" y="0" width="10" height="10" filterUnits="userSpaceOnUse" color-interpolation-filters="sRGB">
<feFlood flood-opacity="0" result="BackgroundImageFix"/>
<feBlend mode="normal" in="SourceGraphic" in2="BackgroundImageFix" result="shape"/>
<feColorMatrix in="SourceAlpha" type="matrix" values="0 0 0 0 0 0 0 0 0 0 0 0 0 0 0 0 0 0 127 0" result="hardAlpha"/>
<feOffset/>
<feGaussianBlur stdDeviation="1"/>
<feComposite in2="hardAlpha" operator="arithmetic" k2="-1" k3="1"/>
<feColorMatrix type="matrix" values="0 0 0 0 0.942 0 0 0 0 0.94 0 0 0 0 1 0 0 0 0.1 0"/>
<feBlend mode="hard-light" in2="shape" result="effect1_innerShadow_1223_1387"/>
</filter>
</defs>
</svg>
