<svg width="10" height="10" viewBox="0 0 10 10" fill="none" xmlns="http://www.w3.org/2000/svg">
<g filter="url(#filter0_i_1136_3437)">
<path d="M4.16684 2.63414C4.45382 2.17459 4.59732 1.94481 4.78448 1.87278C4.9232 1.81939 5.0768 1.81939 5.21552 1.87278C5.40269 1.94481 5.54618 2.17459 5.83317 2.63414C5.93827 2.80243 5.99082 2.88658 6.06282 2.94735C6.1172 2.99325 6.17931 3.0291 6.24624 3.05325C6.33487 3.08522 6.43402 3.08866 6.63232 3.09553C7.17379 3.11429 7.44453 3.12367 7.6005 3.24975C7.7161 3.34318 7.7929 3.4762 7.81602 3.62303C7.84722 3.82114 7.71997 4.0603 7.46548 4.53862C7.37229 4.71378 7.32569 4.80136 7.30906 4.89411C7.2965 4.96415 7.2965 5.03586 7.30906 5.1059C7.32569 5.19864 7.37229 5.28623 7.46549 5.46139C7.71997 5.93971 7.84722 6.17886 7.81602 6.37697C7.7929 6.5238 7.7161 6.65682 7.6005 6.75026C7.44453 6.87633 7.17379 6.88571 6.63232 6.90448C6.43402 6.91135 6.33487 6.91479 6.24624 6.94676C6.17931 6.9709 6.1172 7.00676 6.06282 7.05265C5.99082 7.11343 5.93827 7.19757 5.83317 7.36587C5.54618 7.82542 5.40269 8.05519 5.21552 8.12723C5.0768 8.18062 4.9232 8.18062 4.78448 8.12723C4.59732 8.05519 4.45382 7.82542 4.16684 7.36587C4.06174 7.19757 4.00919 7.11343 3.93718 7.05265C3.88281 7.00676 3.8207 6.9709 3.75377 6.94676C3.66513 6.91479 3.56598 6.91135 3.36769 6.90448C2.82621 6.88571 2.55547 6.87633 2.3995 6.75026C2.28391 6.65682 2.20711 6.5238 2.18399 6.37697C2.15279 6.17886 2.28003 5.93971 2.53452 5.46139C2.62772 5.28623 2.67432 5.19864 2.69095 5.1059C2.7035 5.03586 2.7035 4.96415 2.69095 4.89411C2.67432 4.80136 2.62772 4.71378 2.53452 4.53862C2.28003 4.0603 2.15279 3.82114 2.18399 3.62303C2.20711 3.4762 2.28391 3.34318 2.3995 3.24975C2.55547 3.12367 2.82621 3.11429 3.36769 3.09553C3.56598 3.08866 3.66513 3.08522 3.75377 3.05325C3.8207 3.0291 3.88281 2.99325 3.93718 2.94735C4.00919 2.88658 4.06174 2.80243 4.16684 2.63414Z" fill="white"/>
</g>
<defs>
<filter id="filter0_i_1136_3437" x="0" y="0" width="10" height="10" filterUnits="userSpaceOnUse" color-interpolation-filters="sRGB">
<feFlood flood-opacity="0" result="BackgroundImageFix"/>
<feBlend mode="normal" in="SourceGraphic" in2="BackgroundImageFix" result="shape"/>
<feColorMatrix in="SourceAlpha" type="matrix" values="0 0 0 0 0 0 0 0 0 0 0 0 0 0 0 0 0 0 127 0" result="hardAlpha"/>
<feOffset/>
<feGaussianBlur stdDeviation="1"/>
<feComposite in2="hardAlpha" operator="arithmetic" k2="-1" k3="1"/>
<feColorMatrix type="matrix" values="0 0 0 0 0.942 0 0 0 0 0.94 0 0 0 0 1 0 0 0 0.1 0"/>
<feBlend mode="hard-light" in2="shape" result="effect1_innerShadow_1136_3437"/>
</filter>
</defs>
</svg>
