<svg width="10" height="10" viewBox="0 0 10 10" fill="none" xmlns="http://www.w3.org/2000/svg">
<g filter="url(#filter0_i_1141_596)">
<path d="M2.55734 5.72868C3.67903 5.09801 4.63804 5.52488 5.25168 5.7609C5.58439 5.88886 5.81292 5.96575 6.03195 5.9777C6.21753 5.98782 6.42812 5.95143 6.70383 5.76188C7.02228 5.54327 7.4575 5.62432 7.67648 5.94254C7.89548 6.26109 7.81529 6.69713 7.4968 6.91618C6.97254 7.27657 6.45766 7.40253 5.95578 7.37516C5.48739 7.34961 5.06584 7.1895 4.74875 7.06754C4.06256 6.80363 3.7209 6.68054 3.24289 6.94938C2.90601 7.13857 2.47922 7.01861 2.28976 6.6818C2.10066 6.34493 2.22057 5.91811 2.55734 5.72868ZM4.10519 2.63297C4.57418 2.68038 4.98741 2.86861 5.28195 2.99821C5.61223 3.14353 5.8239 3.23069 6.03586 3.25211C6.20898 3.26958 6.41993 3.24472 6.71945 3.05094C7.04397 2.84103 7.47817 2.93451 7.6882 3.25895C7.89792 3.58346 7.80458 4.01675 7.48019 4.22672C6.92984 4.58279 6.40329 4.69596 5.89523 4.64469C5.42618 4.5973 5.01305 4.40907 4.71848 4.27946C4.38836 4.13421 4.17644 4.04799 3.96457 4.02653C3.79145 4.00906 3.57953 4.03293 3.28 4.22672C2.95552 4.43646 2.52223 4.344 2.31223 4.01969C2.10232 3.69513 2.1957 3.26093 2.52023 3.05094C3.07045 2.69507 3.59726 2.58172 4.10519 2.63297Z" fill="white"/>
</g>
<defs>
<filter id="filter0_i_1141_596" x="0" y="0" width="10" height="10" filterUnits="userSpaceOnUse" color-interpolation-filters="sRGB">
<feFlood flood-opacity="0" result="BackgroundImageFix"/>
<feBlend mode="normal" in="SourceGraphic" in2="BackgroundImageFix" result="shape"/>
<feColorMatrix in="SourceAlpha" type="matrix" values="0 0 0 0 0 0 0 0 0 0 0 0 0 0 0 0 0 0 127 0" result="hardAlpha"/>
<feOffset/>
<feGaussianBlur stdDeviation="1"/>
<feComposite in2="hardAlpha" operator="arithmetic" k2="-1" k3="1"/>
<feColorMatrix type="matrix" values="0 0 0 0 0.942 0 0 0 0 0.94 0 0 0 0 1 0 0 0 0.1 0"/>
<feBlend mode="hard-light" in2="shape" result="effect1_innerShadow_1141_596"/>
</filter>
</defs>
</svg>
