<svg width="10" height="10" viewBox="0 0 10 10" fill="none" xmlns="http://www.w3.org/2000/svg">
<g filter="url(#filter0_i_1159_310)">
<path d="M5.27321 1.53166C5.71673 1.34439 6.25519 1.37406 6.85817 1.5385C7.17754 1.62582 7.36604 1.95534 7.27907 2.27483C7.19185 2.59428 6.86225 2.78261 6.54274 2.69572C6.04686 2.56049 5.82174 2.60278 5.74001 2.63713C5.6956 2.65598 5.64549 2.68941 5.60329 2.84026C5.55506 3.01307 5.54426 3.25604 5.55641 3.57072C5.55856 3.62624 5.55964 3.654 5.56509 3.67941C5.59038 3.79717 5.68817 3.89125 5.80682 3.91196C5.83242 3.91643 5.86201 3.91643 5.92117 3.91643H6.30055C6.63166 3.91667 6.90007 4.18587 6.90016 4.51701C6.90009 4.84817 6.63167 5.11638 6.30055 5.11662H6.08617C5.95092 5.11662 5.88329 5.11662 5.83083 5.13703C5.74839 5.1691 5.68644 5.23293 5.65686 5.31629C5.63803 5.36934 5.64012 5.43908 5.6443 5.57854C5.65712 6.00635 5.65269 6.50643 5.5652 6.96623C5.47987 7.41421 5.29554 7.92957 4.86305 8.26701C4.4017 8.62657 3.8034 8.67573 3.14235 8.49553C2.82296 8.40821 2.63446 8.0787 2.72145 7.7592C2.80875 7.43967 3.13915 7.25114 3.45876 7.3383C3.89683 7.45762 4.06227 7.37022 4.12575 7.32072C4.21791 7.24862 4.32193 7.08054 4.38649 6.74162C4.44873 6.4143 4.45627 6.02066 4.44411 5.61467C4.4382 5.41747 4.43524 5.31886 4.38468 5.24585C4.36273 5.21414 4.3337 5.18596 4.30135 5.16497C4.22685 5.11662 4.12593 5.11662 3.9241 5.11662H3.70094C3.36962 5.11662 3.10043 4.84832 3.10036 4.51701C3.10045 4.18572 3.36963 3.91643 3.70094 3.91643H4.07352C4.23635 3.91643 4.36348 3.77933 4.35719 3.61662C4.34436 3.28453 4.34626 2.8826 4.44801 2.51799C4.55568 2.13254 4.79306 1.73463 5.27321 1.53166Z" fill="white"/>
</g>
<defs>
<filter id="filter0_i_1159_310" x="0" y="0" width="10" height="10" filterUnits="userSpaceOnUse" color-interpolation-filters="sRGB">
<feFlood flood-opacity="0" result="BackgroundImageFix"/>
<feBlend mode="normal" in="SourceGraphic" in2="BackgroundImageFix" result="shape"/>
<feColorMatrix in="SourceAlpha" type="matrix" values="0 0 0 0 0 0 0 0 0 0 0 0 0 0 0 0 0 0 127 0" result="hardAlpha"/>
<feOffset/>
<feGaussianBlur stdDeviation="1"/>
<feComposite in2="hardAlpha" operator="arithmetic" k2="-1" k3="1"/>
<feColorMatrix type="matrix" values="0 0 0 0 0.942 0 0 0 0 0.94 0 0 0 0 1 0 0 0 0.1 0"/>
<feBlend mode="hard-light" in2="shape" result="effect1_innerShadow_1159_310"/>
</filter>
</defs>
</svg>
