<svg width="10" height="10" viewBox="0 0 10 10" fill="none" xmlns="http://www.w3.org/2000/svg">
<g filter="url(#filter0_i_1141_621)">
<path d="M2.81726 7.49192C2.81726 7.10532 3.13086 6.79172 3.51746 6.79172H6.51714C6.90374 6.79172 7.21734 7.10532 7.21734 7.49192C7.21728 7.87847 6.9037 8.19213 6.51714 8.19213H3.51746C3.1309 8.19213 2.81732 7.87847 2.81726 7.49192ZM3.19084 2.00701C3.38422 1.67252 3.81256 1.55766 4.14723 1.75082L6.7457 3.25136C7.08007 3.44473 7.19419 3.87244 7.0012 4.20705C6.92159 4.34494 6.80126 4.44345 6.66491 4.50053L4.10579 5.97827C3.7711 6.17149 3.34279 6.05664 3.1494 5.72209C2.95613 5.38732 3.07088 4.95903 3.40559 4.7657L3.55495 4.67937C4.15847 4.33055 4.46024 4.15613 4.48445 3.89927C4.4874 3.86798 4.4874 3.83648 4.48443 3.80519C4.4601 3.54834 4.15826 3.37406 3.55458 3.0255L3.44702 2.9634C3.11235 2.77006 2.99757 2.34176 3.19084 2.00701Z" fill="white"/>
</g>
<defs>
<filter id="filter0_i_1141_621" x="0" y="0" width="10" height="10" filterUnits="userSpaceOnUse" color-interpolation-filters="sRGB">
<feFlood flood-opacity="0" result="BackgroundImageFix"/>
<feBlend mode="normal" in="SourceGraphic" in2="BackgroundImageFix" result="shape"/>
<feColorMatrix in="SourceAlpha" type="matrix" values="0 0 0 0 0 0 0 0 0 0 0 0 0 0 0 0 0 0 127 0" result="hardAlpha"/>
<feOffset/>
<feGaussianBlur stdDeviation="1"/>
<feComposite in2="hardAlpha" operator="arithmetic" k2="-1" k3="1"/>
<feColorMatrix type="matrix" values="0 0 0 0 0.942 0 0 0 0 0.94 0 0 0 0 1 0 0 0 0.1 0"/>
<feBlend mode="hard-light" in2="shape" result="effect1_innerShadow_1141_621"/>
</filter>
</defs>
</svg>
