<svg width="10" height="10" viewBox="0 0 10 10" fill="none" xmlns="http://www.w3.org/2000/svg">
<g filter="url(#filter0_i_1141_608)">
<path d="M6.86486 2.80289C6.61149 2.44103 6.11294 2.35283 5.75103 2.60609L3.29342 4.32621C3.28738 4.33044 3.28205 4.33635 3.27616 4.34071C3.18037 4.39703 3.0941 4.47302 3.02619 4.56997C2.77277 4.93188 2.86041 5.43106 3.2223 5.68449L5.67991 7.40461C6.04183 7.65803 6.54101 7.57042 6.79443 7.2085C7.0477 6.84662 6.95942 6.34808 6.59763 6.09467L6.19499 5.81251C5.7132 5.47488 5.4723 5.30607 5.45217 5.07365C5.44968 5.04495 5.44968 5.0161 5.45216 4.9874C5.47226 4.75498 5.71313 4.58613 6.19487 4.24843L6.66806 3.91672C7.02986 3.66339 7.11797 3.16479 6.86486 2.80289Z" fill="white"/>
</g>
<defs>
<filter id="filter0_i_1141_608" x="0" y="0" width="10" height="10" filterUnits="userSpaceOnUse" color-interpolation-filters="sRGB">
<feFlood flood-opacity="0" result="BackgroundImageFix"/>
<feBlend mode="normal" in="SourceGraphic" in2="BackgroundImageFix" result="shape"/>
<feColorMatrix in="SourceAlpha" type="matrix" values="0 0 0 0 0 0 0 0 0 0 0 0 0 0 0 0 0 0 127 0" result="hardAlpha"/>
<feOffset/>
<feGaussianBlur stdDeviation="1"/>
<feComposite in2="hardAlpha" operator="arithmetic" k2="-1" k3="1"/>
<feColorMatrix type="matrix" values="0 0 0 0 0.942 0 0 0 0 0.94 0 0 0 0 1 0 0 0 0.1 0"/>
<feBlend mode="hard-light" in2="shape" result="effect1_innerShadow_1141_608"/>
</filter>
</defs>
</svg>
