<svg width="10" height="10" viewBox="0 0 10 10" fill="none" xmlns="http://www.w3.org/2000/svg">
<g filter="url(#filter0_i_1706_86)">
<path d="M7.27733 2.00976C7.35078 2.01869 7.4512 2.03927 7.55272 2.09667L7.60963 2.13662C7.62582 2.14798 7.63391 2.15366 7.6417 2.15972C7.64956 2.16584 7.65719 2.17225 7.66457 2.17894C7.67188 2.18556 7.67887 2.19255 7.69286 2.20654C7.70684 2.22052 7.71383 2.22751 7.72046 2.23482C7.72714 2.24221 7.73355 2.24983 7.73967 2.25769C7.74573 2.26548 7.75141 2.27358 7.76277 2.28976L7.80272 2.34667C7.86029 2.44825 7.88067 2.5485 7.88963 2.62206C7.90013 2.70848 7.8994 2.80791 7.8994 2.87988V7.12011C7.8994 7.19207 7.90013 7.2915 7.88963 7.37792C7.87768 7.47603 7.84497 7.62194 7.73143 7.75488C7.70779 7.78249 7.68191 7.80841 7.65428 7.83202C7.52129 7.94551 7.37539 7.97831 7.27733 7.99023C7.19096 8.00068 7.09138 7.99999 7.01952 7.99999H6.09959C5.82364 7.99977 5.59959 7.776 5.59959 7.49999C5.5996 7.22399 5.82364 7.00021 6.09959 6.99999H6.1992C6.48028 6.99999 6.62082 6.99999 6.72175 6.9325C6.76533 6.90335 6.80276 6.86593 6.8319 6.82235C6.8994 6.72141 6.8994 6.58088 6.8994 6.2998C6.8994 6.01872 6.8994 5.87818 6.8319 5.77725C6.80276 5.73367 6.76533 5.69624 6.72175 5.6671C6.62082 5.5996 6.48028 5.5996 6.1992 5.5996H3.85959C3.52122 5.5996 3.35203 5.5996 3.23981 5.69544C3.22388 5.70905 3.20904 5.72389 3.19543 5.73982C3.09959 5.85203 3.09959 6.02122 3.09959 6.3596V7.49999C3.09959 7.77613 2.87574 7.99999 2.59959 7.99999C2.32363 7.99978 2.09959 7.776 2.09959 7.49999V2.87988C2.09959 2.80792 2.09887 2.70847 2.10936 2.62206C2.1213 2.524 2.15413 2.37802 2.26756 2.24511L2.29801 2.21467C2.32011 2.19256 2.33117 2.1815 2.34304 2.17136C2.34479 2.16986 2.34656 2.16837 2.34835 2.1669C2.36039 2.15696 2.37318 2.14798 2.39877 2.13001L2.44627 2.09667C2.54768 2.03922 2.64816 2.01874 2.72166 2.00976C2.80792 1.99928 2.90754 1.99999 2.97948 1.99999H7.01952C7.09138 1.99999 7.19096 1.99931 7.27733 2.00976ZM3.09959 3.89941C3.09959 4.18049 3.09959 4.32102 3.16709 4.42196C3.19623 4.46554 3.23366 4.50296 3.27724 4.5321C3.37817 4.5996 3.51871 4.5996 3.79979 4.5996C4.08087 4.5996 4.22141 4.5996 4.32234 4.5321C4.36592 4.50296 4.40334 4.46554 4.43249 4.42196C4.49998 4.32102 4.49998 4.18049 4.49998 3.89941V3.70019C4.49998 3.41911 4.49998 3.27857 4.43249 3.17764C4.40334 3.13406 4.36592 3.09663 4.32234 3.06749C4.22141 2.99999 4.08087 2.99999 3.79979 2.99999C3.51871 2.99999 3.37817 2.99999 3.27724 3.06749C3.23366 3.09663 3.19623 3.13406 3.16709 3.17764C3.09959 3.27857 3.09959 3.41911 3.09959 3.70019V3.89941ZM5.49998 3.89989C5.49998 4.18051 5.49998 4.32081 5.56727 4.42164C5.59651 4.46546 5.63413 4.50307 5.67795 4.53232C5.77877 4.5996 5.91908 4.5996 6.19969 4.5996C6.48031 4.5996 6.62061 4.5996 6.72144 4.53232C6.76526 4.50307 6.80287 4.46546 6.83211 4.42164C6.8994 4.32081 6.8994 4.18051 6.8994 3.89989V3.6997C6.8994 3.41909 6.8994 3.27878 6.83211 3.17796C6.80287 3.13413 6.76526 3.09652 6.72144 3.06728C6.62061 2.99999 6.48031 2.99999 6.19969 2.99999C5.91908 2.99999 5.77877 2.99999 5.67795 3.06728C5.63413 3.09652 5.59651 3.13413 5.56727 3.17796C5.49998 3.27878 5.49998 3.41909 5.49998 3.6997V3.89989Z" fill="white"/>
</g>
<defs>
<filter id="filter0_i_1706_86" x="0" y="0" width="10" height="10" filterUnits="userSpaceOnUse" color-interpolation-filters="sRGB">
<feFlood flood-opacity="0" result="BackgroundImageFix"/>
<feBlend mode="normal" in="SourceGraphic" in2="BackgroundImageFix" result="shape"/>
<feColorMatrix in="SourceAlpha" type="matrix" values="0 0 0 0 0 0 0 0 0 0 0 0 0 0 0 0 0 0 127 0" result="hardAlpha"/>
<feOffset/>
<feGaussianBlur stdDeviation="1"/>
<feComposite in2="hardAlpha" operator="arithmetic" k2="-1" k3="1"/>
<feColorMatrix type="matrix" values="0 0 0 0 0.942 0 0 0 0 0.94 0 0 0 0 1 0 0 0 0.1 0"/>
<feBlend mode="hard-light" in2="shape" result="effect1_innerShadow_1706_86"/>
</filter>
</defs>
</svg>
