<svg width="10" height="10" viewBox="0 0 10 10" fill="none" xmlns="http://www.w3.org/2000/svg">
<g filter="url(#filter0_i_1706_88)">
<path d="M4.99954 1.24978C5.24806 1.24978 5.44972 1.45146 5.44974 1.69997V1.97243C5.44974 2.04255 5.50658 2.09939 5.57669 2.09939C6.49395 2.09962 7.23486 2.8482 7.2261 3.7654C7.22507 3.87091 7.21403 3.97397 7.19394 4.07373C7.11315 4.47496 7.07276 4.67558 7.07932 4.73681C7.08156 4.75773 7.07947 4.74296 7.08313 4.76369C7.09383 4.82433 7.18406 4.99757 7.36452 5.34406C7.48999 5.58495 7.56099 5.8587 7.56107 6.14919C7.56107 7.11563 6.77748 7.8991 5.81107 7.89919C5.61151 7.89919 5.44974 8.06097 5.44974 8.26052V8.29958C5.44974 8.54811 5.24807 8.74978 4.99954 8.74978C4.75124 8.74951 4.54935 8.54794 4.54935 8.29958C4.54935 8.29922 4.54935 8.29904 4.54935 8.29889C4.54918 8.07821 4.37033 7.89936 4.14965 7.89919C4.1495 7.89919 4.14932 7.89919 4.14896 7.89919H3.73196C3.63466 7.89919 3.51581 7.89976 3.41458 7.88747C3.30177 7.87373 3.14569 7.8381 3.00443 7.71755C2.97416 7.6917 2.94531 7.66285 2.91946 7.63259C2.79904 7.49131 2.76326 7.33519 2.74954 7.22243C2.73727 7.12123 2.73782 7.00232 2.73782 6.90505V3.09353C2.73782 2.99623 2.73725 2.87731 2.74954 2.77615C2.76331 2.66338 2.79908 2.50711 2.91946 2.36599L2.95737 2.32808C2.97964 2.30581 2.99078 2.29467 3.00274 2.28446C3.00451 2.28295 3.0063 2.28145 3.00809 2.27997C3.02023 2.26996 3.03313 2.26093 3.05894 2.24287L3.11185 2.20583C3.22065 2.14412 3.32994 2.12142 3.41458 2.11111C3.51579 2.09883 3.63468 2.09939 3.73196 2.09939H4.14993C4.37052 2.09939 4.54935 1.92056 4.54935 1.69997C4.54936 1.45162 4.75124 1.25004 4.99954 1.24978ZM5.44974 6.53786C5.44974 6.73742 5.61151 6.89919 5.81107 6.89919C6.2252 6.8991 6.56107 6.56335 6.56107 6.14919C6.56081 5.73526 6.22504 5.39929 5.81107 5.39919C5.61151 5.39919 5.44974 5.56097 5.44974 5.76052V6.53786ZM3.73782 6.49343C3.73782 6.49878 3.73782 6.50146 3.73785 6.50372C3.74031 6.72109 3.91592 6.89671 4.1333 6.89917C4.13556 6.89919 4.13824 6.89919 4.14359 6.89919C4.14893 6.89919 4.15161 6.89919 4.15387 6.89917C4.37125 6.89671 4.54686 6.72109 4.54932 6.50372C4.54935 6.50146 4.54935 6.49878 4.54935 6.49343V5.80495C4.54935 5.7996 4.54935 5.79693 4.54932 5.79467C4.54686 5.57729 4.37125 5.40168 4.15387 5.39922C4.15161 5.39919 4.14893 5.39919 4.14359 5.39919C4.13824 5.39919 4.13556 5.39919 4.1333 5.39922C3.91592 5.40168 3.74031 5.57729 3.73785 5.79467C3.73782 5.79693 3.73782 5.7996 3.73782 5.80495V6.49343ZM5.44974 4.27224C5.44974 4.34235 5.50658 4.39919 5.57669 4.39919C5.93298 4.39896 6.2226 4.11197 6.2261 3.75564C6.22943 3.39451 5.93784 3.09962 5.57669 3.09939C5.50658 3.09939 5.44974 3.15623 5.44974 3.22634V4.27224ZM3.73782 3.99343C3.73782 3.99878 3.73782 4.00146 3.73785 4.00372C3.74031 4.22109 3.91592 4.39671 4.1333 4.39917C4.13556 4.39919 4.13824 4.39919 4.14359 4.39919C4.14893 4.39919 4.15161 4.39919 4.15387 4.39917C4.37125 4.39671 4.54686 4.22109 4.54932 4.00372C4.54935 4.00146 4.54935 3.99878 4.54935 3.99343V3.50515C4.54935 3.4998 4.54935 3.49713 4.54932 3.49486C4.54686 3.27749 4.37125 3.10187 4.15387 3.09941C4.15161 3.09939 4.14893 3.09939 4.14359 3.09939C4.13824 3.09939 4.13556 3.09939 4.1333 3.09941C3.91592 3.10187 3.74031 3.27749 3.73785 3.49486C3.73782 3.49713 3.73782 3.4998 3.73782 3.50515V3.99343Z" fill="white"/>
</g>
<defs>
<filter id="filter0_i_1706_88" x="0" y="0" width="10" height="10" filterUnits="userSpaceOnUse" color-interpolation-filters="sRGB">
<feFlood flood-opacity="0" result="BackgroundImageFix"/>
<feBlend mode="normal" in="SourceGraphic" in2="BackgroundImageFix" result="shape"/>
<feColorMatrix in="SourceAlpha" type="matrix" values="0 0 0 0 0 0 0 0 0 0 0 0 0 0 0 0 0 0 127 0" result="hardAlpha"/>
<feOffset/>
<feGaussianBlur stdDeviation="1"/>
<feComposite in2="hardAlpha" operator="arithmetic" k2="-1" k3="1"/>
<feColorMatrix type="matrix" values="0 0 0 0 0.942 0 0 0 0 0.94 0 0 0 0 1 0 0 0 0.1 0"/>
<feBlend mode="hard-light" in2="shape" result="effect1_innerShadow_1706_88"/>
</filter>
</defs>
</svg>
