<svg width="10" height="10" viewBox="0 0 10 10" fill="none" xmlns="http://www.w3.org/2000/svg">
<g filter="url(#filter0_i_1141_546)">
<path d="M4.99951 2.15039C5.69231 2.15039 6.2593 2.53843 6.62939 3.06934C6.99796 3.59819 7.19967 4.29795 7.19971 5.0498C7.19957 6.50301 6.38438 7.84961 4.99951 7.84961C3.61512 7.84913 2.80043 6.50276 2.80029 5.0498C2.80033 4.29811 3.00219 3.59815 3.37061 3.06934C3.74056 2.53867 4.30707 2.15065 4.99951 2.15039ZM4.99951 3.34961C4.79254 3.34986 4.55966 3.46218 4.35498 3.75586C4.1488 4.05192 3.99955 4.50212 3.99951 5.0498C3.99963 6.19549 4.58454 6.64985 4.99951 6.65039C5.41451 6.65039 5.99939 6.19621 5.99951 5.0498C5.99948 4.50199 5.85129 4.05192 5.64502 3.75586C5.4401 3.46185 5.20666 3.34961 4.99951 3.34961Z" fill="white"/>
</g>
<defs>
<filter id="filter0_i_1141_546" x="0" y="0" width="10" height="10" filterUnits="userSpaceOnUse" color-interpolation-filters="sRGB">
<feFlood flood-opacity="0" result="BackgroundImageFix"/>
<feBlend mode="normal" in="SourceGraphic" in2="BackgroundImageFix" result="shape"/>
<feColorMatrix in="SourceAlpha" type="matrix" values="0 0 0 0 0 0 0 0 0 0 0 0 0 0 0 0 0 0 127 0" result="hardAlpha"/>
<feOffset/>
<feGaussianBlur stdDeviation="1"/>
<feComposite in2="hardAlpha" operator="arithmetic" k2="-1" k3="1"/>
<feColorMatrix type="matrix" values="0 0 0 0 0.942 0 0 0 0 0.94 0 0 0 0 1 0 0 0 0.1 0"/>
<feBlend mode="hard-light" in2="shape" result="effect1_innerShadow_1141_546"/>
</filter>
</defs>
</svg>
