<svg width="10" height="10" viewBox="0 0 10 10" fill="none" xmlns="http://www.w3.org/2000/svg">
<g filter="url(#filter0_i_1136_3447)">
<path d="M4.33744 2.3209C4.64545 2.17172 4.79946 2.09713 4.96393 2.0897C4.98796 2.08862 5.01204 2.08862 5.03607 2.0897C5.20054 2.09713 5.35455 2.17172 5.66256 2.3209L6.17149 2.56738L6.68151 2.8116C6.99018 2.9594 7.14452 3.0333 7.25287 3.15726C7.2687 3.17537 7.28371 3.19419 7.29785 3.21366C7.39459 3.34688 7.4323 3.51379 7.50771 3.84762L7.63231 4.39919L7.75937 4.95021C7.83627 5.28369 7.87472 5.45044 7.84535 5.61244C7.84106 5.63611 7.83571 5.65958 7.8293 5.68277C7.78547 5.84146 7.67848 5.97501 7.4645 6.2421L7.11094 6.68342L6.75936 7.12632C6.54658 7.39436 6.44019 7.52839 6.29523 7.60644C6.27404 7.61784 6.25236 7.62828 6.23023 7.63774C6.07883 7.70241 5.90771 7.70203 5.56547 7.70126L5 7.7L4.43453 7.70126C4.09229 7.70203 3.92117 7.70241 3.76977 7.63774C3.74764 7.62828 3.72596 7.61784 3.70477 7.60644C3.55981 7.52839 3.45342 7.39436 3.24063 7.12632L2.88906 6.68342L2.5355 6.2421C2.32152 5.97501 2.21453 5.84146 2.1707 5.68277C2.16429 5.65958 2.15894 5.63611 2.15465 5.61244C2.12528 5.45044 2.16373 5.28369 2.24063 4.95021L2.36769 4.39919L2.49229 3.84762C2.5677 3.51379 2.60541 3.34688 2.70215 3.21366C2.71629 3.19419 2.7313 3.17537 2.74713 3.15726C2.85548 3.0333 3.00982 2.9594 3.31849 2.8116L3.82851 2.56738L4.33744 2.3209Z" fill="white"/>
</g>
<defs>
<filter id="filter0_i_1136_3447" x="0" y="0" width="10" height="10" filterUnits="userSpaceOnUse" color-interpolation-filters="sRGB">
<feFlood flood-opacity="0" result="BackgroundImageFix"/>
<feBlend mode="normal" in="SourceGraphic" in2="BackgroundImageFix" result="shape"/>
<feColorMatrix in="SourceAlpha" type="matrix" values="0 0 0 0 0 0 0 0 0 0 0 0 0 0 0 0 0 0 127 0" result="hardAlpha"/>
<feOffset/>
<feGaussianBlur stdDeviation="1"/>
<feComposite in2="hardAlpha" operator="arithmetic" k2="-1" k3="1"/>
<feColorMatrix type="matrix" values="0 0 0 0 0.942 0 0 0 0 0.94 0 0 0 0 1 0 0 0 0.1 0"/>
<feBlend mode="hard-light" in2="shape" result="effect1_innerShadow_1136_3447"/>
</filter>
</defs>
</svg>
