<svg width="10" height="10" viewBox="0 0 10 10" fill="none" xmlns="http://www.w3.org/2000/svg">
<g filter="url(#filter0_i_1721_221)">
<path fill-rule="evenodd" clip-rule="evenodd" d="M5.55693 5.98638C5.75132 5.87953 6.00109 5.81315 6.29716 5.90337C6.56642 5.98565 6.8256 6.18426 7.09501 6.48052C7.24362 6.64399 7.23211 6.89735 7.06865 7.04595C6.90517 7.19423 6.65172 7.18196 6.50322 7.01861C6.27304 6.76551 6.13181 6.68881 6.06376 6.66802C6.0232 6.65571 5.99759 6.6574 5.94267 6.68755C5.90775 6.70679 5.86693 6.73473 5.81279 6.77642C5.76749 6.81132 5.69298 6.87211 5.62822 6.919C5.48975 7.01917 5.27811 7.14947 4.99931 7.14947C4.72067 7.14927 4.50973 7.01912 4.37138 6.919C4.30643 6.87198 4.2311 6.81128 4.18583 6.77642C4.13178 6.73481 4.09181 6.70675 4.05693 6.68755C4.00175 6.65726 3.97574 6.65553 3.93486 6.66802C3.86654 6.68909 3.72512 6.76593 3.4954 7.01861C3.34677 7.18187 3.09337 7.19449 2.92997 7.04595C2.76691 6.89737 2.75531 6.64388 2.90361 6.48052C3.17303 6.18418 3.43221 5.98576 3.70146 5.90337C3.99783 5.81282 4.24812 5.87946 4.44267 5.98638C4.53248 6.03579 4.61132 6.09429 4.67411 6.14263C4.74571 6.19776 4.78667 6.23185 4.84013 6.27056C4.9382 6.34153 4.97815 6.34952 4.99931 6.34966C5.0203 6.34966 5.05965 6.34205 5.15849 6.27056C5.21215 6.23172 5.2538 6.19783 5.32548 6.14263C5.38823 6.09433 5.46722 6.03576 5.55693 5.98638ZM2.04716 3.06158C2.15122 2.86693 2.39338 2.79366 2.58818 2.89751L3.92216 3.60845C4.2751 3.79669 4.2751 4.30303 3.92216 4.49126L2.58818 5.20318C2.39339 5.30682 2.15112 5.23278 2.04716 5.03814C1.9433 4.8434 2.0167 4.60124 2.21122 4.49712L2.42111 4.38509C2.68159 4.24604 2.81184 4.17652 2.82324 4.07143C2.82479 4.05709 2.82479 4.04263 2.82324 4.02829C2.81184 3.9232 2.68159 3.85368 2.42111 3.71463L2.21122 3.60259C2.01673 3.49858 1.94358 3.2563 2.04716 3.06158ZM7.41142 2.89751C7.60622 2.79362 7.84837 2.86692 7.95243 3.06158C8.05619 3.25635 7.98297 3.49856 7.78837 3.60259L7.57849 3.71463C7.318 3.85368 7.18776 3.9232 7.17636 4.02829C7.1748 4.04263 7.1748 4.05709 7.17636 4.07143C7.18776 4.17652 7.318 4.24604 7.57849 4.38509L7.78837 4.49712C7.98315 4.60114 8.05636 4.84328 7.95243 5.03814C7.84835 5.23274 7.6062 5.30706 7.41142 5.20318L6.07743 4.49126C5.72466 4.30307 5.72486 3.79683 6.07743 3.60845L7.41142 2.89751Z" fill="white"/>
</g>
<defs>
<filter id="filter0_i_1721_221" x="0" y="0" width="10" height="10" filterUnits="userSpaceOnUse" color-interpolation-filters="sRGB">
<feFlood flood-opacity="0" result="BackgroundImageFix"/>
<feBlend mode="normal" in="SourceGraphic" in2="BackgroundImageFix" result="shape"/>
<feColorMatrix in="SourceAlpha" type="matrix" values="0 0 0 0 0 0 0 0 0 0 0 0 0 0 0 0 0 0 127 0" result="hardAlpha"/>
<feOffset/>
<feGaussianBlur stdDeviation="1"/>
<feComposite in2="hardAlpha" operator="arithmetic" k2="-1" k3="1"/>
<feColorMatrix type="matrix" values="0 0 0 0 0.942 0 0 0 0 0.94 0 0 0 0 1 0 0 0 0.1 0"/>
<feBlend mode="hard-light" in2="shape" result="effect1_innerShadow_1721_221"/>
</filter>
</defs>
</svg>
