<svg width="10" height="10" viewBox="0 0 10 10" fill="none" xmlns="http://www.w3.org/2000/svg">
<g filter="url(#filter0_i_1376_137)">
<path d="M5.27666 2C6.24958 2.00025 7.0351 2.7937 7.02568 3.7666C7.0239 3.94768 6.99451 4.12201 6.94164 4.28576C6.86101 4.53549 6.82069 4.66036 6.82635 4.7216C6.8277 4.73623 6.82737 4.73385 6.83003 4.7483C6.84115 4.80878 6.9121 4.91558 7.05398 5.1292C7.24818 5.42156 7.36157 5.77218 7.36162 6.14941C7.36162 7.17113 6.53275 7.99999 5.51103 8H3.69756C3.63191 8 3.55001 8.00028 3.47881 7.99512C3.40173 7.98951 3.29085 7.97457 3.17216 7.92188C2.96846 7.83135 2.80561 7.66858 2.71513 7.46484C2.66242 7.3461 2.64847 7.23527 2.64287 7.1582C2.63772 7.08716 2.63798 7.00599 2.63799 6.94043V3.01367C2.63798 2.95196 2.63087 2.78644 2.67705 2.63574L2.71611 2.53125C2.82145 2.29632 3.02422 2.1157 3.27373 2.03906L3.38701 2.01367C3.44355 2.00481 3.49806 2.0012 3.54424 2H5.27666ZM3.8372 6.2298C3.8372 6.48359 3.8372 6.61048 3.90908 6.69464C3.91929 6.70659 3.93042 6.71772 3.94237 6.72793C4.02653 6.7998 4.15342 6.7998 4.4072 6.7998H5.51103C5.87001 6.79979 6.16142 6.50839 6.16142 6.14941C6.16128 5.79055 5.86992 5.50001 5.51103 5.5H4.4072C4.15342 5.5 4.02653 5.5 3.94237 5.57188C3.93042 5.58208 3.91929 5.59321 3.90908 5.60517C3.8372 5.68932 3.8372 5.81622 3.8372 6.07V6.2298ZM3.8372 3.74951C3.8372 3.98435 3.8372 4.10177 3.89934 4.18262C3.91522 4.20328 3.93373 4.22179 3.95439 4.23767C4.03524 4.2998 4.15266 4.2998 4.3875 4.2998H5.27666C5.57809 4.29955 5.82349 4.05636 5.82646 3.75488C5.82936 3.44927 5.58225 3.19947 5.27666 3.19922H4.3875C4.15266 3.19922 4.03524 3.19922 3.95439 3.26135C3.93373 3.27724 3.91522 3.29574 3.89934 3.31641C3.8372 3.39725 3.8372 3.51467 3.8372 3.74951Z" fill="white"/>
</g>
<defs>
<filter id="filter0_i_1376_137" x="0" y="0" width="10" height="10" filterUnits="userSpaceOnUse" color-interpolation-filters="sRGB">
<feFlood flood-opacity="0" result="BackgroundImageFix"/>
<feBlend mode="normal" in="SourceGraphic" in2="BackgroundImageFix" result="shape"/>
<feColorMatrix in="SourceAlpha" type="matrix" values="0 0 0 0 0 0 0 0 0 0 0 0 0 0 0 0 0 0 127 0" result="hardAlpha"/>
<feOffset/>
<feGaussianBlur stdDeviation="1"/>
<feComposite in2="hardAlpha" operator="arithmetic" k2="-1" k3="1"/>
<feColorMatrix type="matrix" values="0 0 0 0 0.942 0 0 0 0 0.94 0 0 0 0 1 0 0 0 0.1 0"/>
<feBlend mode="hard-light" in2="shape" result="effect1_innerShadow_1376_137"/>
</filter>
</defs>
</svg>
