<svg width="10" height="10" viewBox="0 0 10 10" fill="none" xmlns="http://www.w3.org/2000/svg">
<g filter="url(#filter0_i_1141_543)">
<path d="M3.73322 7.88814C3.40381 7.85384 3.16397 7.55941 3.19806 7.22993C3.23221 6.90038 3.52766 6.66068 3.85724 6.69478C4.44603 6.75563 4.80867 6.61273 5.04962 6.41939C5.14519 6.34268 5.23058 6.25076 5.30646 6.14604C5.3133 6.13659 5.29619 6.16021 5.30124 6.15222C5.41965 5.96502 5.28765 5.70638 5.06659 5.69244C5.05715 5.69185 5.03641 5.69185 4.99493 5.69185C4.43654 5.69178 3.93087 5.53573 3.55743 5.20161C3.17796 4.86207 2.99502 4.39159 2.99493 3.89204C2.99496 3.39255 3.17813 2.92205 3.55743 2.58247C3.93086 2.24842 4.43659 2.09133 4.99493 2.09126C5.55341 2.09129 6.05895 2.24833 6.43243 2.58247C6.7996 2.91101 6.9814 3.36162 6.99295 3.84303C6.99297 3.84379 6.99316 3.84455 6.9935 3.84523C6.9938 3.84584 6.99399 3.84649 6.99397 3.84716C6.99396 3.84806 6.9939 3.84915 6.99396 3.85005C6.99418 3.85299 6.99462 3.85727 6.99493 3.86177C6.99558 3.87121 6.99602 3.88405 6.99689 3.89986C6.99868 3.93231 7.00132 3.97814 7.00275 4.03462C7.0056 4.14775 7.00537 4.30711 6.99591 4.49556C6.97718 4.86813 6.91928 5.37798 6.75372 5.88911C6.58894 6.3978 6.30324 6.95149 5.8006 7.35493C5.28224 7.7709 4.59415 7.97718 3.73322 7.88814ZM4.99493 4.49165C5.33626 4.49163 5.53115 4.39785 5.63263 4.30708C5.72794 4.22175 5.79564 4.09209 5.79572 3.89204C5.79569 3.69179 5.72802 3.56139 5.63263 3.47603C5.53111 3.3853 5.33607 3.29148 4.99493 3.29146C4.65423 3.29153 4.45979 3.38539 4.35822 3.47603C4.26281 3.5614 4.19515 3.69178 4.19513 3.89204C4.1952 4.09218 4.26285 4.22176 4.35822 4.30708C4.45971 4.39778 4.65393 4.49159 4.99493 4.49165Z" fill="white"/>
</g>
<defs>
<filter id="filter0_i_1141_543" x="0" y="0" width="10" height="10" filterUnits="userSpaceOnUse" color-interpolation-filters="sRGB">
<feFlood flood-opacity="0" result="BackgroundImageFix"/>
<feBlend mode="normal" in="SourceGraphic" in2="BackgroundImageFix" result="shape"/>
<feColorMatrix in="SourceAlpha" type="matrix" values="0 0 0 0 0 0 0 0 0 0 0 0 0 0 0 0 0 0 127 0" result="hardAlpha"/>
<feOffset/>
<feGaussianBlur stdDeviation="1"/>
<feComposite in2="hardAlpha" operator="arithmetic" k2="-1" k3="1"/>
<feColorMatrix type="matrix" values="0 0 0 0 0.942 0 0 0 0 0.94 0 0 0 0 1 0 0 0 0.1 0"/>
<feBlend mode="hard-light" in2="shape" result="effect1_innerShadow_1141_543"/>
</filter>
</defs>
</svg>
