<svg width="10" height="10" viewBox="0 0 10 10" fill="none" xmlns="http://www.w3.org/2000/svg">
<g filter="url(#filter0_i_1141_599)">
<path d="M5.87451 2.18817C6.04028 1.90156 6.40703 1.80294 6.69385 1.96844C6.98082 2.13413 7.07926 2.50178 6.91357 2.78876C6.85026 2.89804 6.92911 3.03485 7.05541 3.03485H7.1001C7.48662 3.03492 7.80026 3.34852 7.80029 3.73505C7.80029 4.1216 7.48664 4.43517 7.1001 4.43524H6.27986C6.13939 4.43524 6.06916 4.43524 6.00892 4.46331C5.99303 4.47071 5.97781 4.4795 5.96345 4.48956C5.90903 4.5277 5.87392 4.58853 5.80369 4.71017C5.61291 5.04067 5.51752 5.20591 5.56524 5.33728C5.57723 5.3703 5.59494 5.40095 5.61754 5.42785C5.70745 5.53485 5.89825 5.53485 6.27986 5.53485H7.1001C7.48657 5.53492 7.80018 5.84859 7.80029 6.23505C7.80029 6.6216 7.48664 6.93517 7.1001 6.93524H4.8481C4.69617 6.93524 4.62021 6.93524 4.55604 6.96793C4.54671 6.97269 4.53763 6.97793 4.52885 6.98363C4.46845 7.02285 4.43046 7.08863 4.35449 7.22019L4.01318 7.81122C3.8475 8.09819 3.48082 8.19662 3.19385 8.03094C2.90691 7.86528 2.80854 7.49857 2.97412 7.21161L3.01681 7.13749C3.06861 7.04755 3.0037 6.93524 2.8999 6.93524C2.51333 6.93521 2.19971 6.62162 2.19971 6.23505C2.19982 5.84857 2.5134 5.53489 2.8999 5.53485H3.62444C3.7649 5.53485 3.83514 5.53485 3.89538 5.50678C3.91127 5.49938 3.92648 5.49059 3.94084 5.48053C3.99527 5.44239 4.03038 5.38157 4.1006 5.25992C4.29138 4.92943 4.38677 4.76418 4.33906 4.63282C4.32706 4.5998 4.30936 4.56914 4.28676 4.54224C4.19685 4.43524 4.00604 4.43524 3.62444 4.43524H2.8999C2.51333 4.43521 2.19971 4.12162 2.19971 3.73505C2.19974 3.3485 2.51335 3.03489 2.8999 3.03485H5.05631C5.20818 3.03485 5.28412 3.03485 5.34828 3.00218C5.35761 2.99742 5.36668 2.99219 5.37546 2.98649C5.43585 2.94729 5.47385 2.88154 5.54983 2.75004L5.87451 2.18817Z" fill="white"/>
</g>
<defs>
<filter id="filter0_i_1141_599" x="0" y="0" width="10" height="10" filterUnits="userSpaceOnUse" color-interpolation-filters="sRGB">
<feFlood flood-opacity="0" result="BackgroundImageFix"/>
<feBlend mode="normal" in="SourceGraphic" in2="BackgroundImageFix" result="shape"/>
<feColorMatrix in="SourceAlpha" type="matrix" values="0 0 0 0 0 0 0 0 0 0 0 0 0 0 0 0 0 0 127 0" result="hardAlpha"/>
<feOffset/>
<feGaussianBlur stdDeviation="1"/>
<feComposite in2="hardAlpha" operator="arithmetic" k2="-1" k3="1"/>
<feColorMatrix type="matrix" values="0 0 0 0 0.942 0 0 0 0 0.94 0 0 0 0 1 0 0 0 0.1 0"/>
<feBlend mode="hard-light" in2="shape" result="effect1_innerShadow_1141_599"/>
</filter>
</defs>
</svg>
