<svg width="10" height="10" viewBox="0 0 10 10" fill="none" xmlns="http://www.w3.org/2000/svg">
<g filter="url(#filter0_i_1378_276)">
<path d="M5.07669 2.00837C5.26248 2.03209 5.38833 2.13277 5.45657 2.21052C5.51613 2.27855 5.5473 2.34531 5.55814 2.3697C5.57089 2.3985 5.57915 2.42392 5.58255 2.43415L5.59134 2.46052L5.8785 3.3866C6.10075 4.10335 6.21187 4.46172 6.40705 4.48346C6.43269 4.48631 6.45859 4.48585 6.48411 4.48208C6.67838 4.45337 6.7766 4.09125 6.97305 3.367L7.22025 2.45564C7.30696 2.13604 7.63689 1.94635 7.95657 2.03278C8.27621 2.11946 8.46487 2.44942 8.37845 2.76911L7.09525 7.50544C7.09411 7.50963 7.09166 7.52158 7.08841 7.53278C7.08545 7.5429 7.07745 7.56817 7.06595 7.59724C7.0566 7.62078 7.0288 7.68877 6.9722 7.75935C6.90803 7.83915 6.78297 7.95117 6.58841 7.98005C6.53656 7.98772 6.48328 7.98876 6.43118 7.98298C6.23562 7.96112 6.10652 7.85335 6.03958 7.77595C5.98087 7.70792 5.95032 7.64224 5.93997 7.61872C5.92735 7.58997 5.91889 7.5643 5.91556 7.55427C5.91195 7.54339 5.90812 7.53225 5.90677 7.5279L5.54395 6.35822C5.33393 5.68113 5.22892 5.34258 5.03754 5.31814C5.01231 5.31492 4.98677 5.31492 4.96154 5.31814C4.77017 5.34258 4.66516 5.68113 4.45513 6.35822L4.09232 7.5279C4.09097 7.53225 4.08715 7.54335 4.08353 7.55427C4.08019 7.56432 4.07177 7.58992 4.05911 7.61872C4.04875 7.64226 4.01832 7.70787 3.9595 7.77595C3.89252 7.85338 3.76359 7.9612 3.5679 7.98298C3.51581 7.98875 3.46252 7.98773 3.41068 7.98005C3.21626 7.95109 3.09101 7.83911 3.02689 7.75935C2.97069 7.68923 2.94263 7.62209 2.93314 7.59821C2.92157 7.56902 2.91364 7.54293 2.91068 7.53278C2.90744 7.52161 2.90497 7.50961 2.90384 7.50544L1.62064 2.76911C1.53428 2.4495 1.723 2.11953 2.04251 2.03278C2.36224 1.94619 2.69206 2.13601 2.77884 2.45564L3.02596 3.3682C3.22207 4.09239 3.32012 4.45448 3.51437 4.48328C3.53988 4.48706 3.56578 4.48753 3.59142 4.48469C3.7866 4.46305 3.89789 4.10481 4.12048 3.38832L4.40872 2.46052L4.41653 2.43415C4.41994 2.42396 4.42908 2.39868 4.44193 2.3697C4.45271 2.34541 4.48285 2.27867 4.54251 2.21052C4.61066 2.13275 4.73643 2.03218 4.92239 2.00837C4.97352 2.00184 5.02556 2.00188 5.07669 2.00837Z" fill="white"/>
</g>
<defs>
<filter id="filter0_i_1378_276" x="0" y="0" width="10" height="10" filterUnits="userSpaceOnUse" color-interpolation-filters="sRGB">
<feFlood flood-opacity="0" result="BackgroundImageFix"/>
<feBlend mode="normal" in="SourceGraphic" in2="BackgroundImageFix" result="shape"/>
<feColorMatrix in="SourceAlpha" type="matrix" values="0 0 0 0 0 0 0 0 0 0 0 0 0 0 0 0 0 0 127 0" result="hardAlpha"/>
<feOffset/>
<feGaussianBlur stdDeviation="1"/>
<feComposite in2="hardAlpha" operator="arithmetic" k2="-1" k3="1"/>
<feColorMatrix type="matrix" values="0 0 0 0 0.942 0 0 0 0 0.94 0 0 0 0 1 0 0 0 0.1 0"/>
<feBlend mode="hard-light" in2="shape" result="effect1_innerShadow_1378_276"/>
</filter>
</defs>
</svg>
