<svg width="10" height="10" viewBox="0 0 10 10" fill="none" xmlns="http://www.w3.org/2000/svg">
<g filter="url(#filter0_i_1695_104)">
<path d="M5.80023 1.70087C6.79407 1.7011 7.59996 2.5068 7.60004 3.50067C7.59987 4.49447 6.79401 5.30024 5.80023 5.30048H4.90033C4.67947 5.30048 4.50043 5.47952 4.50043 5.70038C4.50043 5.92124 4.67947 6.10028 4.90033 6.10028H5.60004C5.87585 6.10051 6.09982 6.32446 6.10004 6.60028C6.09987 6.87614 5.87588 7.10005 5.60004 7.10028H5.20062C4.91954 7.10028 4.779 7.10028 4.67807 7.16778C4.63449 7.19692 4.59707 7.23435 4.56792 7.27793C4.50043 7.37886 4.50043 7.5194 4.50043 7.80048C4.50026 8.07627 4.27618 8.30013 4.00043 8.30048C3.72439 8.30048 3.50059 8.07648 3.50043 7.80048V7.60028C3.50043 7.50735 3.50043 7.46088 3.49274 7.42224C3.46118 7.26357 3.33714 7.13953 3.17846 7.10797C3.13982 7.10028 3.09336 7.10028 3.00043 7.10028C2.72439 7.10028 2.50059 6.87628 2.50043 6.60028C2.50064 6.32432 2.72442 6.10028 3.00043 6.10028H3.10052C3.32138 6.10028 3.50043 5.92124 3.50043 5.70038C3.50043 5.47952 3.32138 5.30048 3.10052 5.30048H3.00043C2.72439 5.30048 2.50059 5.07648 2.50043 4.80048C2.50057 4.52446 2.72437 4.30048 3.00043 4.30048C3.09336 4.30048 3.13982 4.30048 3.17846 4.29279C3.33714 4.26123 3.46118 4.13719 3.49274 3.97851C3.50043 3.93987 3.50043 3.89341 3.50043 3.80048V2.64325C3.50068 2.12283 3.92237 1.70101 4.44281 1.70087H5.80023ZM4.50043 3.54048C4.50043 3.87885 4.50043 4.04804 4.59626 4.16026C4.60987 4.17619 4.62471 4.19103 4.64065 4.20464C4.75286 4.30048 4.92205 4.30048 5.26043 4.30048H5.80023C6.24173 4.30024 6.59987 3.94218 6.60004 3.50067C6.59996 3.05908 6.24178 2.7011 5.80023 2.70087H5.26043C4.92205 2.70087 4.75286 2.70087 4.64065 2.7967C4.62471 2.81031 4.60987 2.82515 4.59626 2.84109C4.50043 2.9533 4.50043 3.12249 4.50043 3.46087V3.54048Z" fill="white"/>
</g>
<defs>
<filter id="filter0_i_1695_104" x="0" y="0" width="10" height="10" filterUnits="userSpaceOnUse" color-interpolation-filters="sRGB">
<feFlood flood-opacity="0" result="BackgroundImageFix"/>
<feBlend mode="normal" in="SourceGraphic" in2="BackgroundImageFix" result="shape"/>
<feColorMatrix in="SourceAlpha" type="matrix" values="0 0 0 0 0 0 0 0 0 0 0 0 0 0 0 0 0 0 127 0" result="hardAlpha"/>
<feOffset/>
<feGaussianBlur stdDeviation="1"/>
<feComposite in2="hardAlpha" operator="arithmetic" k2="-1" k3="1"/>
<feColorMatrix type="matrix" values="0 0 0 0 0.942 0 0 0 0 0.94 0 0 0 0 1 0 0 0 0.1 0"/>
<feBlend mode="hard-light" in2="shape" result="effect1_innerShadow_1695_104"/>
</filter>
</defs>
</svg>
