<svg width="10" height="10" viewBox="0 0 10 10" fill="none" xmlns="http://www.w3.org/2000/svg">
<g filter="url(#filter0_i_1136_3419)">
<path d="M3.38868 3.72454C3.66953 3.11604 3.80995 2.81178 4.0646 2.62762C4.10151 2.60093 4.13991 2.57636 4.17961 2.55404C4.45354 2.39999 4.78863 2.39999 5.45882 2.39999H6.61829C7.37451 2.39999 7.75263 2.39999 7.93279 2.62771C7.95767 2.65915 7.97934 2.69301 7.99746 2.72878C8.12872 2.98779 7.97026 3.3311 7.65336 4.01772L6.61134 6.27545C6.33049 6.88395 6.19006 7.18821 5.93541 7.37237C5.8985 7.39906 5.8601 7.42363 5.8204 7.44595C5.54648 7.59999 5.21138 7.59999 4.54119 7.59999H3.38172C2.6255 7.59999 2.24738 7.59999 2.06722 7.37228C2.04234 7.34084 2.02067 7.30698 2.00255 7.27121C1.8713 7.0122 2.02975 6.66889 2.34665 5.98227L3.38868 3.72454Z" fill="white"/>
</g>
<defs>
<filter id="filter0_i_1136_3419" x="0" y="0" width="10" height="10" filterUnits="userSpaceOnUse" color-interpolation-filters="sRGB">
<feFlood flood-opacity="0" result="BackgroundImageFix"/>
<feBlend mode="normal" in="SourceGraphic" in2="BackgroundImageFix" result="shape"/>
<feColorMatrix in="SourceAlpha" type="matrix" values="0 0 0 0 0 0 0 0 0 0 0 0 0 0 0 0 0 0 127 0" result="hardAlpha"/>
<feOffset/>
<feGaussianBlur stdDeviation="1"/>
<feComposite in2="hardAlpha" operator="arithmetic" k2="-1" k3="1"/>
<feColorMatrix type="matrix" values="0 0 0 0 0.942 0 0 0 0 0.94 0 0 0 0 1 0 0 0 0.1 0"/>
<feBlend mode="hard-light" in2="shape" result="effect1_innerShadow_1136_3419"/>
</filter>
</defs>
</svg>
