<svg width="10" height="10" viewBox="0 0 10 10" fill="none" xmlns="http://www.w3.org/2000/svg">
<g filter="url(#filter0_i_1205_4736)">
<path d="M6.31387 2.24873C6.50747 1.9804 6.88206 1.91897 7.15079 2.11201C7.41958 2.30555 7.4808 2.68101 7.28751 2.94991L5.70845 5.14248C5.65799 5.21255 5.63276 5.24758 5.61849 5.28751C5.61638 5.29339 5.61447 5.29933 5.61274 5.30533C5.60098 5.34608 5.60098 5.38925 5.60098 5.47559V7.39912C5.60098 7.73044 5.33169 7.99962 5.0004 7.99971C4.66911 7.99961 4.40079 7.73043 4.40079 7.39912V5.47568C4.40079 5.3893 4.40079 5.3461 4.38902 5.30534C4.38729 5.29934 4.38537 5.2934 4.38327 5.28752C4.36898 5.24757 4.34373 5.21252 4.29323 5.14244L2.71329 2.94991C2.52001 2.68101 2.58122 2.30554 2.85001 2.11201C3.11882 1.91889 3.49435 1.98016 3.6879 2.24873L4.53797 3.4296C4.73702 3.70611 4.83655 3.84437 4.97208 3.85726C4.99094 3.85906 5.00993 3.85906 5.02879 3.85727C5.16432 3.84443 5.2639 3.7062 5.46305 3.42976L6.31387 2.24873Z" fill="white"/>
</g>
<defs>
<filter id="filter0_i_1205_4736" x="0" y="0" width="10" height="10" filterUnits="userSpaceOnUse" color-interpolation-filters="sRGB">
<feFlood flood-opacity="0" result="BackgroundImageFix"/>
<feBlend mode="normal" in="SourceGraphic" in2="BackgroundImageFix" result="shape"/>
<feColorMatrix in="SourceAlpha" type="matrix" values="0 0 0 0 0 0 0 0 0 0 0 0 0 0 0 0 0 0 127 0" result="hardAlpha"/>
<feOffset/>
<feGaussianBlur stdDeviation="1"/>
<feComposite in2="hardAlpha" operator="arithmetic" k2="-1" k3="1"/>
<feColorMatrix type="matrix" values="0 0 0 0 0.942 0 0 0 0 0.94 0 0 0 0 1 0 0 0 0.1 0"/>
<feBlend mode="hard-light" in2="shape" result="effect1_innerShadow_1205_4736"/>
</filter>
</defs>
</svg>
