<svg width="10" height="10" viewBox="0 0 10 10" fill="none" xmlns="http://www.w3.org/2000/svg">
<g filter="url(#filter0_i_1141_540)">
<path d="M4.99951 2.1001C5.55974 2.1001 6.0581 2.25538 6.42627 2.56592C6.79962 2.88104 6.99933 3.32481 6.99951 3.79932C6.99951 3.99122 6.96618 4.17739 6.90204 4.35193C6.80113 4.62651 6.75067 4.7638 6.75344 4.82423C6.75416 4.84005 6.7537 4.83494 6.75582 4.85064C6.76391 4.91059 6.83699 5.0347 6.98314 5.28291C7.11983 5.51507 7.19966 5.78769 7.19971 6.1001C7.19945 7.28652 6.05043 7.8999 4.99951 7.8999C3.9488 7.89961 2.80055 7.28624 2.80029 6.1001C2.80034 5.78764 2.88018 5.515 3.0169 5.28283C3.16312 5.03453 3.23623 4.91038 3.2443 4.85032C3.24641 4.83462 3.24595 4.83968 3.24667 4.82386C3.24939 4.76332 3.1988 4.62628 3.09762 4.3522C3.03315 4.17756 2.99951 3.99128 2.99951 3.79932C2.99969 3.3248 3.20036 2.88104 3.57373 2.56592C3.94177 2.25533 4.43942 2.10023 4.99951 2.1001ZM4.99951 5.49951C4.25141 5.49977 3.99971 5.8868 3.99951 6.1001C3.99982 6.31343 4.25157 6.69945 4.99951 6.69971C5.74803 6.69971 5.9992 6.3135 5.99951 6.1001C5.99931 5.88673 5.74819 5.49951 4.99951 5.49951ZM4.99951 3.29932C4.65669 3.29945 4.45395 3.39378 4.34814 3.48291C4.24797 3.56748 4.19987 3.67442 4.19971 3.79932C4.19971 3.92289 4.24775 4.03022 4.34912 4.11572C4.45592 4.2056 4.65904 4.29918 4.99951 4.29932C5.34046 4.29932 5.54401 4.20567 5.65088 4.11572C5.75247 4.03017 5.80029 3.92302 5.80029 3.79932C5.80013 3.67439 5.75209 3.56749 5.65186 3.48291C5.54591 3.39377 5.34255 3.29932 4.99951 3.29932Z" fill="white"/>
</g>
<defs>
<filter id="filter0_i_1141_540" x="0" y="0" width="10" height="10" filterUnits="userSpaceOnUse" color-interpolation-filters="sRGB">
<feFlood flood-opacity="0" result="BackgroundImageFix"/>
<feBlend mode="normal" in="SourceGraphic" in2="BackgroundImageFix" result="shape"/>
<feColorMatrix in="SourceAlpha" type="matrix" values="0 0 0 0 0 0 0 0 0 0 0 0 0 0 0 0 0 0 127 0" result="hardAlpha"/>
<feOffset/>
<feGaussianBlur stdDeviation="1"/>
<feComposite in2="hardAlpha" operator="arithmetic" k2="-1" k3="1"/>
<feColorMatrix type="matrix" values="0 0 0 0 0.942 0 0 0 0 0.94 0 0 0 0 1 0 0 0 0.1 0"/>
<feBlend mode="hard-light" in2="shape" result="effect1_innerShadow_1141_540"/>
</filter>
</defs>
</svg>
