<svg width="10" height="10" viewBox="0 0 10 10" fill="none" xmlns="http://www.w3.org/2000/svg">
<g filter="url(#filter0_i_1141_581)">
<path d="M7.40887 2.3169C7.79537 2.31698 8.10842 2.63043 8.10848 3.01694C8.10848 3.40347 7.79543 3.71728 7.40893 3.71739L6.86538 3.71692C6.74893 3.71682 6.6907 3.71677 6.64382 3.74422C6.63703 3.74819 6.63049 3.75255 6.62422 3.75729C6.58089 3.79006 6.55859 3.84385 6.51401 3.95143L5.03178 7.52779C5.03092 7.52987 5.02954 7.53203 5.02866 7.5341C5.01432 7.56761 4.99665 7.59931 4.97712 7.63039C4.97085 7.64045 4.96509 7.65073 4.95836 7.66039C4.94006 7.68647 4.91917 7.71045 4.89716 7.73407C4.88766 7.74433 4.87839 7.75461 4.86834 7.76423C4.84953 7.78212 4.82895 7.79786 4.80788 7.8138C4.78955 7.82777 4.77162 7.84185 4.75209 7.8539C4.74682 7.85713 4.74239 7.86176 4.737 7.86487C4.72533 7.87161 4.71177 7.87467 4.69989 7.88066C4.67673 7.8924 4.65395 7.90421 4.62965 7.91332C4.60908 7.92097 4.58827 7.92675 4.56736 7.93237C4.54324 7.93893 4.51917 7.9446 4.49439 7.94856C4.47772 7.95115 4.4611 7.95238 4.44439 7.95375C4.41374 7.95641 4.38328 7.95768 4.35222 7.95622C4.34099 7.95565 4.32994 7.95408 4.31877 7.95298C4.28368 7.94962 4.24896 7.94452 4.21404 7.93564C4.20643 7.93369 4.19926 7.93042 4.19172 7.92823C4.16718 7.9211 4.14153 7.91687 4.11737 7.90688C4.10582 7.90209 4.0955 7.89406 4.08434 7.88873C4.08027 7.88678 4.07661 7.88404 4.07256 7.882C4.03515 7.86326 3.99983 7.84307 3.96726 7.81876C3.96315 7.81568 3.95976 7.81169 3.95571 7.80851C3.92274 7.78273 3.89272 7.75495 3.86534 7.72425C3.86423 7.723 3.86315 7.72176 3.86205 7.72051C3.8321 7.68644 3.80596 7.65031 3.78332 7.61148C3.78271 7.61044 3.78112 7.60962 3.78052 7.60858L2.99419 6.24662C2.94355 6.15892 2.91824 6.11507 2.87798 6.08892C2.87213 6.08512 2.86608 6.08162 2.85986 6.07845C2.81709 6.05665 2.76645 6.05664 2.66519 6.05662L2.6522 6.05662C2.2658 6.05638 1.95259 5.74303 1.95259 5.35658C1.95269 4.97007 2.2661 4.65698 2.65263 4.65697L3.25245 4.65684C3.50612 4.64448 3.75796 4.76873 3.89368 5.00381C4.0544 5.28217 4.13475 5.42135 4.24409 5.42636C4.25892 5.42704 4.27379 5.42606 4.28841 5.42345C4.39615 5.4042 4.45666 5.25807 4.57768 4.96579L5.49838 2.74221C5.61905 2.45104 5.91351 2.28703 6.21175 2.31569L7.40887 2.3169Z" fill="white"/>
</g>
<defs>
<filter id="filter0_i_1141_581" x="0" y="0" width="10" height="10" filterUnits="userSpaceOnUse" color-interpolation-filters="sRGB">
<feFlood flood-opacity="0" result="BackgroundImageFix"/>
<feBlend mode="normal" in="SourceGraphic" in2="BackgroundImageFix" result="shape"/>
<feColorMatrix in="SourceAlpha" type="matrix" values="0 0 0 0 0 0 0 0 0 0 0 0 0 0 0 0 0 0 127 0" result="hardAlpha"/>
<feOffset/>
<feGaussianBlur stdDeviation="1"/>
<feComposite in2="hardAlpha" operator="arithmetic" k2="-1" k3="1"/>
<feColorMatrix type="matrix" values="0 0 0 0 0.942 0 0 0 0 0.94 0 0 0 0 1 0 0 0 0.1 0"/>
<feBlend mode="hard-light" in2="shape" result="effect1_innerShadow_1141_581"/>
</filter>
</defs>
</svg>
