<svg width="10" height="10" viewBox="0 0 10 10" fill="none" xmlns="http://www.w3.org/2000/svg">
<g filter="url(#filter0_i_1141_565)">
<path d="M5.00003 2.66711C5.44173 2.66726 5.79984 3.02616 5.79984 3.4679V3.53026C5.79984 3.73825 5.79984 3.84224 5.85313 3.89976C5.87642 3.92489 5.90577 3.94362 5.93837 3.95415C6.01298 3.97825 6.1073 3.93443 6.29593 3.8468C6.69636 3.66007 7.17268 3.83309 7.35941 4.23352C7.54606 4.63392 7.37305 5.11027 6.97269 5.297L6.78751 5.38286C6.61903 5.46098 6.53479 5.50004 6.50528 5.57373C6.50157 5.58299 6.49856 5.59251 6.49627 5.60221C6.47806 5.67948 6.52454 5.75986 6.61751 5.92063L6.74027 6.13293C6.96093 6.51552 6.82983 7.00485 6.4473 7.22571C6.06474 7.4464 5.57542 7.3152 5.35452 6.93274L5.32776 6.88644C5.18796 6.64455 5.11806 6.5236 5.0152 6.514C5.00267 6.51283 4.99006 6.51284 4.97753 6.51404C4.87469 6.52389 4.80507 6.645 4.66584 6.88722L4.63968 6.93274C4.41867 7.3151 3.92942 7.44655 3.54691 7.22571C3.16445 7.00477 3.03413 6.51549 3.25491 6.13293L3.3785 5.91785C3.47069 5.75739 3.51679 5.67716 3.49855 5.60011C3.49626 5.59043 3.49325 5.58093 3.48955 5.5717C3.46006 5.49821 3.37616 5.4592 3.20836 5.38116L3.02737 5.297C2.62695 5.11027 2.45393 4.63395 2.64066 4.23352C2.82738 3.83317 3.30277 3.66019 3.70316 3.8468C3.89251 3.93497 3.98718 3.97905 4.06206 3.95471C4.09434 3.94421 4.12341 3.92568 4.14655 3.90085C4.20023 3.84324 4.20023 3.73881 4.20023 3.52994V3.4679C4.20023 3.02607 4.5582 2.66711 5.00003 2.66711Z" fill="white"/>
</g>
<defs>
<filter id="filter0_i_1141_565" x="0" y="0" width="10" height="10" filterUnits="userSpaceOnUse" color-interpolation-filters="sRGB">
<feFlood flood-opacity="0" result="BackgroundImageFix"/>
<feBlend mode="normal" in="SourceGraphic" in2="BackgroundImageFix" result="shape"/>
<feColorMatrix in="SourceAlpha" type="matrix" values="0 0 0 0 0 0 0 0 0 0 0 0 0 0 0 0 0 0 127 0" result="hardAlpha"/>
<feOffset/>
<feGaussianBlur stdDeviation="1"/>
<feComposite in2="hardAlpha" operator="arithmetic" k2="-1" k3="1"/>
<feColorMatrix type="matrix" values="0 0 0 0 0.942 0 0 0 0 0.94 0 0 0 0 1 0 0 0 0.1 0"/>
<feBlend mode="hard-light" in2="shape" result="effect1_innerShadow_1141_565"/>
</filter>
</defs>
</svg>
