<svg width="10" height="10" viewBox="0 0 10 10" fill="none" xmlns="http://www.w3.org/2000/svg">
<g filter="url(#filter0_i_1141_528)">
<path d="M6.20563 2.10213C6.53611 2.12367 6.7875 2.40927 6.76617 2.73982L6.62376 4.94154C6.61468 5.08191 6.72609 5.20076 6.86676 5.20076C7.19785 5.20093 7.46714 5.46929 7.46735 5.80037C7.46711 6.13143 7.19784 6.40078 6.86676 6.40096C6.813 6.40096 6.78613 6.40096 6.76325 6.40451C6.6415 6.42342 6.54369 6.51484 6.51661 6.63504C6.51153 6.65763 6.50972 6.68444 6.50609 6.73808L6.46539 7.34041C6.44314 7.67072 6.15707 7.92084 5.82672 7.899C5.49655 7.8768 5.24659 7.59146 5.26813 7.26131L5.28502 7.00904C5.30304 6.73997 5.31205 6.60543 5.24011 6.51464C5.22994 6.5018 5.21873 6.48981 5.20659 6.4788C5.12081 6.40096 4.98598 6.40096 4.7163 6.40096H3.33356C2.80075 6.40096 2.41667 5.8892 2.565 5.37752L3.39117 2.53377C3.48356 2.21554 3.81611 2.0322 4.13434 2.12459C4.45213 2.21715 4.63561 2.5498 4.54352 2.86775L4.07756 4.47175C3.98597 4.78705 3.94017 4.9447 4.00979 5.05791C4.01951 5.07371 4.03067 5.08858 4.04313 5.10232C4.13243 5.20076 4.2966 5.20076 4.62493 5.20076H4.86951C5.10876 5.20076 5.22838 5.20076 5.31076 5.13444C5.3225 5.12499 5.33351 5.11467 5.34369 5.10357C5.41519 5.02564 5.4229 4.90626 5.43833 4.66751L5.56793 2.6617C5.58948 2.33122 5.87508 2.0808 6.20563 2.10213Z" fill="white"/>
</g>
<defs>
<filter id="filter0_i_1141_528" x="0" y="0" width="10" height="10" filterUnits="userSpaceOnUse" color-interpolation-filters="sRGB">
<feFlood flood-opacity="0" result="BackgroundImageFix"/>
<feBlend mode="normal" in="SourceGraphic" in2="BackgroundImageFix" result="shape"/>
<feColorMatrix in="SourceAlpha" type="matrix" values="0 0 0 0 0 0 0 0 0 0 0 0 0 0 0 0 0 0 127 0" result="hardAlpha"/>
<feOffset/>
<feGaussianBlur stdDeviation="1"/>
<feComposite in2="hardAlpha" operator="arithmetic" k2="-1" k3="1"/>
<feColorMatrix type="matrix" values="0 0 0 0 0.942 0 0 0 0 0.94 0 0 0 0 1 0 0 0 0.1 0"/>
<feBlend mode="hard-light" in2="shape" result="effect1_innerShadow_1141_528"/>
</filter>
</defs>
</svg>
