<svg width="10" height="10" viewBox="0 0 10 10" fill="none" xmlns="http://www.w3.org/2000/svg">
<g filter="url(#filter0_i_1141_556)">
<path d="M3.02024 3.02024C3.29352 2.74697 3.73639 2.74646 4.00978 3.01955L4.32472 3.33449C4.62721 3.63698 4.77846 3.78823 4.96469 3.80142C4.9882 3.80308 5.0118 3.80308 5.03532 3.80142C5.22154 3.78823 5.37279 3.63698 5.67529 3.33449L5.98954 3.02024C6.26291 2.74687 6.7064 2.74687 6.97976 3.02024C7.25301 3.29362 7.25309 3.73714 6.97976 4.01046L6.66552 4.32471C6.36302 4.62721 6.21177 4.77846 6.19858 4.96469C6.19692 4.9882 6.19692 5.0118 6.19858 5.03531C6.21177 5.22154 6.36302 5.37279 6.66552 5.67529L6.97976 5.98954C7.25313 6.2629 7.25313 6.70639 6.97976 6.97976C6.70639 7.25307 6.26289 7.25311 5.98954 6.97976L5.67529 6.66551C5.37279 6.36302 5.22154 6.21177 5.03532 6.19858C5.0118 6.19692 4.9882 6.19692 4.96469 6.19858C4.77846 6.21177 4.62721 6.36302 4.32472 6.66551L4.01047 6.97976C3.73714 7.25309 3.29362 7.253 3.02024 6.97976C2.74688 6.70639 2.74688 6.2629 3.02024 5.98954L3.33449 5.67529C3.63699 5.37279 3.78824 5.22154 3.80142 5.03531C3.80309 5.0118 3.80309 4.9882 3.80142 4.96469C3.78824 4.77846 3.63699 4.62721 3.33449 4.32471L3.01955 4.00977C2.74649 3.7364 2.74703 3.29352 3.02024 3.02024Z" fill="white"/>
</g>
<defs>
<filter id="filter0_i_1141_556" x="0" y="0" width="10" height="10" filterUnits="userSpaceOnUse" color-interpolation-filters="sRGB">
<feFlood flood-opacity="0" result="BackgroundImageFix"/>
<feBlend mode="normal" in="SourceGraphic" in2="BackgroundImageFix" result="shape"/>
<feColorMatrix in="SourceAlpha" type="matrix" values="0 0 0 0 0 0 0 0 0 0 0 0 0 0 0 0 0 0 127 0" result="hardAlpha"/>
<feOffset/>
<feGaussianBlur stdDeviation="1"/>
<feComposite in2="hardAlpha" operator="arithmetic" k2="-1" k3="1"/>
<feColorMatrix type="matrix" values="0 0 0 0 0.942 0 0 0 0 0.94 0 0 0 0 1 0 0 0 0.1 0"/>
<feBlend mode="hard-light" in2="shape" result="effect1_innerShadow_1141_556"/>
</filter>
</defs>
</svg>
