<svg width="10" height="10" viewBox="0 0 10 10" fill="none" xmlns="http://www.w3.org/2000/svg">
<g filter="url(#filter0_i_1728_109)">
<path fill-rule="evenodd" clip-rule="evenodd" d="M2.69456 5.28613C2.89502 5.30718 3.00694 5.49623 3.22972 5.87402C3.34444 6.06858 3.44322 6.2594 3.48948 6.40039C3.63691 6.85038 3.38772 7.49999 2.65257 7.5C1.91768 7.49986 1.66831 6.85032 1.81566 6.40039C1.86193 6.2594 1.96167 6.06858 2.0764 5.87402C2.2992 5.49621 2.41096 5.30703 2.61155 5.28613C2.63656 5.28355 2.66961 5.28353 2.69456 5.28613ZM5.75511 5.85059C6.25266 5.8799 6.91749 6.02685 7.60277 6.48438C7.832 6.63783 7.89367 6.94825 7.74046 7.17773C7.58708 7.40724 7.2767 7.46872 7.0471 7.31543C6.53441 6.97315 6.04836 6.86938 5.69554 6.84863C5.51846 6.83826 5.37431 6.84906 5.27855 6.86133C5.23099 6.86743 5.19523 6.8736 5.17405 6.87793C5.16465 6.87986 5.15801 6.88101 5.15452 6.88184C4.8885 6.95352 4.61467 6.79723 4.54222 6.53125C4.46973 6.26494 4.6266 5.98969 4.8928 5.91699L5.02464 6.39941L4.89378 5.91699H4.89573L4.89769 5.91602C4.89934 5.91558 4.9014 5.91559 4.90355 5.91504C4.90815 5.91386 4.91436 5.91178 4.92112 5.91016C4.93459 5.90694 4.95226 5.90286 4.97386 5.89844C5.01747 5.88952 5.07756 5.87863 5.15159 5.86914C5.29977 5.85017 5.5072 5.83601 5.75511 5.85059ZM3.22484 2.5C3.72478 2.50022 4.02464 2.90017 4.02464 3.5C4.0246 4.09977 3.72455 4.49978 3.22484 4.5C2.72487 4.5 2.42409 4.09994 2.42405 3.5C2.42406 2.9 2.72464 2.5 3.22484 2.5ZM7.42503 2.5C7.92502 2.50019 8.22484 2.90014 8.22484 3.5C8.22479 4.09979 7.92479 4.49981 7.42503 4.5C6.92506 4.5 6.62429 4.09994 6.62425 3.5C6.62425 2.9 6.92483 2.5 7.42503 2.5Z" fill="white"/>
</g>
<defs>
<filter id="filter0_i_1728_109" x="0" y="0" width="10" height="10" filterUnits="userSpaceOnUse" color-interpolation-filters="sRGB">
<feFlood flood-opacity="0" result="BackgroundImageFix"/>
<feBlend mode="normal" in="SourceGraphic" in2="BackgroundImageFix" result="shape"/>
<feColorMatrix in="SourceAlpha" type="matrix" values="0 0 0 0 0 0 0 0 0 0 0 0 0 0 0 0 0 0 127 0" result="hardAlpha"/>
<feOffset/>
<feGaussianBlur stdDeviation="1"/>
<feComposite in2="hardAlpha" operator="arithmetic" k2="-1" k3="1"/>
<feColorMatrix type="matrix" values="0 0 0 0 0.942 0 0 0 0 0.94 0 0 0 0 1 0 0 0 0.1 0"/>
<feBlend mode="hard-light" in2="shape" result="effect1_innerShadow_1728_109"/>
</filter>
</defs>
</svg>
