<svg width="10" height="10" viewBox="0 0 10 10" fill="none" xmlns="http://www.w3.org/2000/svg">
<g filter="url(#filter0_i_1223_1363)">
<path d="M2.75034 5.21385C2.45433 4.96548 2.41533 4.52465 2.66342 4.2285L4.46323 2.08299C4.48152 2.06119 4.50353 2.04339 4.52377 2.0244C4.53297 2.01581 4.54039 2.00524 4.55014 1.99706C4.55156 1.99586 4.55359 1.99531 4.55502 1.99413C4.57693 1.976 4.6008 1.96136 4.62436 1.94627C4.6414 1.93534 4.65747 1.92334 4.67514 1.91405C4.69558 1.90334 4.71737 1.89626 4.73862 1.88768C4.75923 1.87933 4.77902 1.86956 4.80014 1.86327C4.82253 1.85662 4.84563 1.85397 4.8685 1.84959C4.89011 1.84546 4.91114 1.83898 4.93295 1.8369C4.95504 1.83478 4.97716 1.83692 4.99936 1.8369C5.02156 1.83689 5.04368 1.83481 5.06577 1.8369C5.08758 1.83895 5.1086 1.84549 5.13022 1.84959C5.1531 1.85394 5.17617 1.85665 5.19858 1.86327C5.21972 1.86953 5.23947 1.87935 5.2601 1.88768C5.28137 1.89623 5.30311 1.90336 5.32358 1.91405C5.34128 1.92333 5.35729 1.93535 5.37436 1.94627C5.39796 1.96134 5.42175 1.97601 5.4437 1.99413C5.44533 1.99547 5.44793 1.99569 5.44955 1.99706C5.45912 2.00508 5.46592 2.01598 5.47495 2.0244C5.49539 2.04354 5.51801 2.061 5.53647 2.08299L7.33627 4.2285C7.58439 4.52465 7.54537 4.96547 7.24936 5.21385C6.95328 5.46225 6.51253 5.42384 6.26401 5.12791C6.10253 4.93574 6.02179 4.83966 5.9523 4.82617C5.8797 4.81209 5.80525 4.83921 5.75873 4.89671C5.7142 4.95173 5.7142 5.07724 5.7142 5.32825V7.46385C5.7142 7.85037 5.40049 8.16391 5.01401 8.16405C4.62741 8.16405 4.31381 7.85045 4.31381 7.46385V5.33805C4.31381 5.05143 4.31381 4.90812 4.25674 4.84982C4.21435 4.80651 4.15461 4.78476 4.09429 4.79067C4.01309 4.79863 3.92095 4.90839 3.73666 5.12791C3.48817 5.42406 3.04649 5.46234 2.75034 5.21385Z" fill="white"/>
</g>
<defs>
<filter id="filter0_i_1223_1363" x="0" y="0" width="10" height="10" filterUnits="userSpaceOnUse" color-interpolation-filters="sRGB">
<feFlood flood-opacity="0" result="BackgroundImageFix"/>
<feBlend mode="normal" in="SourceGraphic" in2="BackgroundImageFix" result="shape"/>
<feColorMatrix in="SourceAlpha" type="matrix" values="0 0 0 0 0 0 0 0 0 0 0 0 0 0 0 0 0 0 127 0" result="hardAlpha"/>
<feOffset/>
<feGaussianBlur stdDeviation="1"/>
<feComposite in2="hardAlpha" operator="arithmetic" k2="-1" k3="1"/>
<feColorMatrix type="matrix" values="0 0 0 0 0.942 0 0 0 0 0.94 0 0 0 0 1 0 0 0 0.1 0"/>
<feBlend mode="hard-light" in2="shape" result="effect1_innerShadow_1223_1363"/>
</filter>
</defs>
</svg>
