<svg width="10" height="10" viewBox="0 0 10 10" fill="none" xmlns="http://www.w3.org/2000/svg">
<g filter="url(#filter0_i_1695_102)">
<path d="M5.60004 1.7002C6.24375 1.70023 6.74808 1.87607 7.09418 2.05664C7.26662 2.14663 7.40046 2.23823 7.49359 2.30957C7.54006 2.34518 7.57729 2.37585 7.60394 2.39941C7.6172 2.41115 7.62784 2.42184 7.63617 2.42969C7.64019 2.43346 7.64406 2.43669 7.64691 2.43945L7.65257 2.44511C7.6527 2.44524 7.65277 2.44542 7.65277 2.4456C7.65277 2.44598 7.65308 2.44629 7.65346 2.44629C7.65364 2.44629 7.65382 2.44636 7.65395 2.44649C7.84875 2.64172 7.84868 2.95818 7.65375 3.15332C7.48282 3.32425 7.21893 3.34513 7.02484 3.2168L6.95097 3.15751C6.95075 3.15733 6.95046 3.15723 6.95017 3.15723C6.94984 3.15723 6.94951 3.15709 6.94927 3.15685L6.94804 3.15562C6.94782 3.1554 6.94769 3.1551 6.94769 3.15479C6.94769 3.15447 6.94757 3.15417 6.94735 3.15395L6.94672 3.15332C6.94537 3.1521 6.94288 3.15112 6.94086 3.14941C6.93051 3.14026 6.91184 3.12394 6.88519 3.10352C6.83153 3.06241 6.7461 3.00328 6.63129 2.94336C6.40245 2.824 6.05602 2.70023 5.60004 2.7002C5.06114 2.70026 4.66249 2.95071 4.38031 3.35938C4.30798 3.46415 4.39093 3.59961 4.51825 3.59961H5.80023C6.07615 3.59971 6.30001 3.82372 6.30023 4.09961C6.30023 4.37569 6.07629 4.59951 5.80023 4.59961H4.351C4.32073 4.59961 4.3056 4.59961 4.28606 4.60153C4.11093 4.61877 3.9444 4.78529 3.92716 4.96041C3.92523 4.97995 3.92523 4.98664 3.92523 5C3.92523 5.01338 3.92523 5.02007 3.92716 5.03964C3.94442 5.2147 4.11094 5.38121 4.286 5.39846C4.30557 5.40039 4.32071 5.40039 4.351 5.40039H5.80023C6.07629 5.40049 6.30023 5.62431 6.30023 5.90039C6.30001 6.17628 6.07615 6.40029 5.80023 6.40039H4.51825C4.39094 6.40039 4.308 6.53584 4.38031 6.64062C4.66248 7.04916 5.06124 7.29974 5.60004 7.2998C6.05612 7.29977 6.40245 7.17603 6.63129 7.05664C6.746 6.99678 6.83149 6.93857 6.88519 6.89746C6.91177 6.8771 6.93044 6.86076 6.94086 6.85156C6.94419 6.84861 6.94653 6.8459 6.94808 6.84433C6.9483 6.8441 6.94867 6.84426 6.94867 6.84458C6.94867 6.84467 6.94863 6.84476 6.94856 6.84483L6.94672 6.84668L7.02484 6.78223C7.21892 6.65409 7.4829 6.67583 7.65375 6.84668C7.82443 7.01755 7.84632 7.28158 7.7182 7.47559L7.65375 7.55371L7.63617 7.57129C7.62787 7.57911 7.61709 7.58896 7.60394 7.60059C7.57729 7.62415 7.54006 7.65482 7.49359 7.69043C7.40046 7.76177 7.26662 7.85337 7.09418 7.94336C6.74808 8.12393 6.24375 8.29977 5.60004 8.2998C4.68923 8.29974 3.99983 7.8501 3.55707 7.20898C3.48824 7.10926 3.4255 7.00488 3.36857 6.89678C3.2383 6.64943 3.17316 6.52575 3.09069 6.46965C3.07705 6.46037 3.06809 6.45497 3.05352 6.44722C2.96546 6.40039 2.84821 6.40039 2.61372 6.40039H2.30023C2.02422 6.40039 1.80045 6.17635 1.80023 5.90039C1.80023 5.62425 2.02409 5.40039 2.30023 5.40039H2.54377C2.75925 5.40039 2.92524 5.21548 2.92523 5C2.92524 4.78451 2.75926 4.59961 2.54377 4.59961H2.30023C2.02409 4.59961 1.80023 4.37575 1.80023 4.09961C1.80045 3.82365 2.02422 3.59961 2.30023 3.59961H2.61365C2.84815 3.59961 2.96539 3.59961 3.05345 3.55279C3.06802 3.54504 3.07698 3.53964 3.09062 3.53035C3.17309 3.47426 3.23825 3.35056 3.36857 3.10315C3.42549 2.99509 3.48822 2.89075 3.55707 2.79102C3.99983 2.14978 4.68912 1.70026 5.60004 1.7002Z" fill="white"/>
</g>
<defs>
<filter id="filter0_i_1695_102" x="0" y="0" width="10" height="10" filterUnits="userSpaceOnUse" color-interpolation-filters="sRGB">
<feFlood flood-opacity="0" result="BackgroundImageFix"/>
<feBlend mode="normal" in="SourceGraphic" in2="BackgroundImageFix" result="shape"/>
<feColorMatrix in="SourceAlpha" type="matrix" values="0 0 0 0 0 0 0 0 0 0 0 0 0 0 0 0 0 0 127 0" result="hardAlpha"/>
<feOffset/>
<feGaussianBlur stdDeviation="1"/>
<feComposite in2="hardAlpha" operator="arithmetic" k2="-1" k3="1"/>
<feColorMatrix type="matrix" values="0 0 0 0 0.942 0 0 0 0 0.94 0 0 0 0 1 0 0 0 0.1 0"/>
<feBlend mode="hard-light" in2="shape" result="effect1_innerShadow_1695_102"/>
</filter>
</defs>
</svg>
