<svg width="10" height="10" viewBox="0 0 10 10" fill="none" xmlns="http://www.w3.org/2000/svg">
<g filter="url(#filter0_i_1376_151)">
<path d="M4.39989 2.00048C6.05634 2.00069 7.39866 3.34306 7.39891 4.9995C7.39882 6.65608 6.05644 7.99929 4.39989 7.9995H3.6245C3.60943 7.99951 3.58123 7.99971 3.55516 7.99853C3.03916 7.97464 2.62581 7.56143 2.60204 7.0454C2.60084 7.01919 2.60106 6.99109 2.60106 6.97607V3.02392C2.60106 3.00898 2.60085 2.98082 2.60204 2.95458L2.61082 2.85888C2.67756 2.3881 3.07132 2.02386 3.55516 2.00146L3.6245 2.00048H4.39989ZM3.80028 6.20068C3.80028 6.38669 3.80028 6.47969 3.83061 6.55308C3.87121 6.65131 3.94925 6.72935 4.04749 6.76995C4.12087 6.80029 4.21388 6.80029 4.39989 6.80029C5.39369 6.80007 6.1996 5.99334 6.19969 4.9995C6.19944 4.0058 5.3936 3.19991 4.39989 3.1997C4.21388 3.1997 4.12087 3.1997 4.04749 3.23003C3.94925 3.27063 3.87121 3.34867 3.83061 3.44691C3.80028 3.52029 3.80028 3.6133 3.80028 3.79931V6.20068Z" fill="white"/>
</g>
<defs>
<filter id="filter0_i_1376_151" x="0" y="0" width="10" height="10" filterUnits="userSpaceOnUse" color-interpolation-filters="sRGB">
<feFlood flood-opacity="0" result="BackgroundImageFix"/>
<feBlend mode="normal" in="SourceGraphic" in2="BackgroundImageFix" result="shape"/>
<feColorMatrix in="SourceAlpha" type="matrix" values="0 0 0 0 0 0 0 0 0 0 0 0 0 0 0 0 0 0 127 0" result="hardAlpha"/>
<feOffset/>
<feGaussianBlur stdDeviation="1"/>
<feComposite in2="hardAlpha" operator="arithmetic" k2="-1" k3="1"/>
<feColorMatrix type="matrix" values="0 0 0 0 0.942 0 0 0 0 0.94 0 0 0 0 1 0 0 0 0.1 0"/>
<feBlend mode="hard-light" in2="shape" result="effect1_innerShadow_1376_151"/>
</filter>
</defs>
</svg>
