<svg width="10" height="10" viewBox="0 0 10 10" fill="none" xmlns="http://www.w3.org/2000/svg">
<g filter="url(#filter0_i_1727_293)">
<path d="M5.00049 4.6499C5.7004 4.65004 6.29991 5.35058 6.30029 6.25049C6.30054 7.15034 5.69905 7.8501 4.99951 7.8501C4.30014 7.84984 3.70081 7.15018 3.70068 6.25049C3.70069 5.35049 4.30049 4.6499 5.00049 4.6499ZM2.8999 2.1499C3.40003 2.1499 3.69962 2.55005 3.69971 3.1499C3.6997 3.7499 3.3999 4.1499 2.8999 4.1499C2.4 4.14981 2.10009 3.74984 2.1001 3.1499C2.10019 2.55012 2.39988 2.14999 2.8999 2.1499ZM7.1001 2.1499C7.60022 2.1499 7.89982 2.55005 7.8999 3.1499C7.8999 3.7499 7.6001 4.1499 7.1001 4.1499C6.60023 4.14978 6.30029 3.74981 6.30029 3.1499C6.30039 2.55014 6.60011 2.15002 7.1001 2.1499Z" fill="white"/>
</g>
<defs>
<filter id="filter0_i_1727_293" x="0" y="0" width="10" height="10" filterUnits="userSpaceOnUse" color-interpolation-filters="sRGB">
<feFlood flood-opacity="0" result="BackgroundImageFix"/>
<feBlend mode="normal" in="SourceGraphic" in2="BackgroundImageFix" result="shape"/>
<feColorMatrix in="SourceAlpha" type="matrix" values="0 0 0 0 0 0 0 0 0 0 0 0 0 0 0 0 0 0 127 0" result="hardAlpha"/>
<feOffset/>
<feGaussianBlur stdDeviation="1"/>
<feComposite in2="hardAlpha" operator="arithmetic" k2="-1" k3="1"/>
<feColorMatrix type="matrix" values="0 0 0 0 0.942 0 0 0 0 0.94 0 0 0 0 1 0 0 0 0.1 0"/>
<feBlend mode="hard-light" in2="shape" result="effect1_innerShadow_1727_293"/>
</filter>
</defs>
</svg>
