<svg width="10" height="10" viewBox="0 0 10 10" fill="none" xmlns="http://www.w3.org/2000/svg">
<g filter="url(#filter0_i_1205_4734)">
<path d="M6.32846 2.23042C6.53274 1.96992 6.90946 1.92387 7.17026 2.12788C7.43085 2.33216 7.47687 2.70983 7.2728 2.97065L6.01426 4.57792C5.89414 4.73133 5.83408 4.80804 5.82652 4.8972C5.82543 4.91005 5.82517 4.92294 5.82574 4.93582C5.82971 5.02522 5.88663 5.10428 6.00049 5.2624L7.28745 7.04975C7.4807 7.31859 7.41938 7.69407 7.15073 7.88764C6.88196 8.08087 6.50743 8.01941 6.31381 7.75092L5.46308 6.56938C5.2639 6.29276 5.16431 6.15444 5.02874 6.14159C5.00987 6.1398 4.99088 6.1398 4.97201 6.1416C4.83644 6.1545 4.7369 6.29285 4.53782 6.56955L3.68784 7.75092C3.49433 8.01968 3.11883 8.08083 2.84995 7.88764C2.58104 7.69403 2.51965 7.31867 2.71323 7.04975L3.99947 5.26225C4.11321 5.10419 4.17008 5.02516 4.17404 4.93581C4.17461 4.92294 4.17435 4.91005 4.17326 4.89721C4.16571 4.80809 4.10571 4.73141 3.9857 4.57805L2.72787 2.97065C2.52368 2.70974 2.56957 2.33213 2.83041 2.12788C3.09132 1.92382 3.46898 1.96963 3.67319 2.23042L4.55157 3.35312C4.74656 3.60234 4.84406 3.72696 4.97321 3.73872C4.99128 3.74037 5.00946 3.74037 5.02753 3.73873C5.15669 3.72701 5.25423 3.60244 5.4493 3.35328L6.32846 2.23042Z" fill="white"/>
</g>
<defs>
<filter id="filter0_i_1205_4734" x="0" y="0" width="10" height="10" filterUnits="userSpaceOnUse" color-interpolation-filters="sRGB">
<feFlood flood-opacity="0" result="BackgroundImageFix"/>
<feBlend mode="normal" in="SourceGraphic" in2="BackgroundImageFix" result="shape"/>
<feColorMatrix in="SourceAlpha" type="matrix" values="0 0 0 0 0 0 0 0 0 0 0 0 0 0 0 0 0 0 127 0" result="hardAlpha"/>
<feOffset/>
<feGaussianBlur stdDeviation="1"/>
<feComposite in2="hardAlpha" operator="arithmetic" k2="-1" k3="1"/>
<feColorMatrix type="matrix" values="0 0 0 0 0.942 0 0 0 0 0.94 0 0 0 0 1 0 0 0 0.1 0"/>
<feBlend mode="hard-light" in2="shape" result="effect1_innerShadow_1205_4734"/>
</filter>
</defs>
</svg>
