<svg width="10" height="10" viewBox="0 0 10 10" fill="none" xmlns="http://www.w3.org/2000/svg">
<g filter="url(#filter0_i_1699_177)">
<path fill-rule="evenodd" clip-rule="evenodd" d="M7.80475 1.7238C8.07449 1.78178 8.2462 2.04774 8.18854 2.31755L7.81231 4.07237C7.78842 4.18379 7.77648 4.2395 7.7751 4.28482C7.76761 4.53189 7.94178 4.74735 8.18492 4.79182C8.22953 4.79998 8.2865 4.79998 8.40045 4.79998C8.67637 4.80023 8.90044 5.024 8.90045 5.29998C8.90045 5.57596 8.67638 5.79973 8.40045 5.79998H8.21039C7.8626 5.79998 7.68871 5.79998 7.55944 5.89068C7.54088 5.9037 7.52323 5.91797 7.50661 5.93338C7.39083 6.04077 7.35438 6.2108 7.28149 6.55086L7.00494 7.84099C7.00388 7.84614 6.99534 7.88648 6.98346 7.92302C6.97739 7.94167 6.9587 7.99889 6.91705 8.05974C6.87162 8.12589 6.76496 8.24383 6.57916 8.27361C6.53445 8.28073 6.48843 8.2824 6.44342 8.27752C6.25598 8.25699 6.14323 8.14387 6.09479 8.08025C6.05002 8.0214 6.02845 7.9655 6.02155 7.94744C6.00749 7.91063 5.99702 7.86972 5.99615 7.86638L5.55717 6.22813C5.5425 6.17337 5.53516 6.14599 5.52612 6.12221C5.45888 5.94545 5.29767 5.82175 5.10953 5.80256C5.08422 5.79998 5.05588 5.79998 4.99919 5.79998C4.94247 5.79998 4.91411 5.79998 4.8888 5.80256C4.70059 5.82177 4.53934 5.94555 4.47216 6.1224C4.46312 6.14619 4.45579 6.17359 4.44113 6.22838L4.00299 7.86638C4.00176 7.87113 3.9914 7.91134 3.9776 7.94744C3.97059 7.96577 3.94902 8.0216 3.90436 8.08025C3.8557 8.144 3.74304 8.25718 3.55573 8.27752C3.5108 8.28232 3.4646 8.28075 3.41998 8.27361C3.23424 8.24357 3.1273 8.12573 3.08209 8.05974C3.04035 7.9987 3.02167 7.94141 3.01569 7.92302C3.0036 7.88582 2.995 7.84486 2.9942 7.84099L2.71766 6.55086C2.64476 6.2108 2.60832 6.04077 2.49253 5.93338C2.47591 5.91797 2.45826 5.9037 2.43971 5.89068C2.31044 5.79998 2.13654 5.79998 1.78876 5.79998H1.70026C1.42411 5.79998 1.20026 5.57612 1.20026 5.29998C1.20027 5.02385 1.42412 4.79998 1.70026 4.79998C1.72203 4.79998 1.73292 4.79998 1.74157 4.79968C2.04568 4.78915 2.26996 4.5117 2.2165 4.21213C2.21498 4.20362 2.21269 4.19297 2.20813 4.17168L1.81061 2.31755C1.753 2.04782 1.92575 1.78185 2.19537 1.7238C2.46527 1.66616 2.73129 1.83867 2.78912 2.10857L3.32079 4.58789C3.34732 4.7116 3.45666 4.79998 3.58318 4.79998C3.70465 4.79998 3.81098 4.71838 3.8424 4.60104L4.49811 2.15252C4.49814 2.15241 4.50959 2.10984 4.52448 2.07146C4.53195 2.05225 4.55445 1.9958 4.60065 1.9367C4.6523 1.87074 4.76073 1.76919 4.93365 1.74627L4.97001 1.74359C4.99002 1.74212 5.01011 1.74212 5.03012 1.74359C5.0543 1.74537 5.07828 1.74929 5.10178 1.75531L5.18463 1.77654C5.29012 1.81779 5.36073 1.88726 5.39948 1.9367C5.44568 1.99576 5.46814 2.05216 5.47565 2.07146C5.49038 2.10943 5.50077 2.15145 5.50104 2.15252L6.15662 4.60058C6.18812 4.71819 6.29469 4.79998 6.41644 4.79998C6.54326 4.79998 6.65284 4.7114 6.67944 4.5874L7.211 2.10857C7.26883 1.8387 7.53489 1.66623 7.80475 1.7238Z" fill="white"/>
</g>
<defs>
<filter id="filter0_i_1699_177" x="0" y="0" width="10" height="10" filterUnits="userSpaceOnUse" color-interpolation-filters="sRGB">
<feFlood flood-opacity="0" result="BackgroundImageFix"/>
<feBlend mode="normal" in="SourceGraphic" in2="BackgroundImageFix" result="shape"/>
<feColorMatrix in="SourceAlpha" type="matrix" values="0 0 0 0 0 0 0 0 0 0 0 0 0 0 0 0 0 0 127 0" result="hardAlpha"/>
<feOffset/>
<feGaussianBlur stdDeviation="1"/>
<feComposite in2="hardAlpha" operator="arithmetic" k2="-1" k3="1"/>
<feColorMatrix type="matrix" values="0 0 0 0 0.942 0 0 0 0 0.94 0 0 0 0 1 0 0 0 0.1 0"/>
<feBlend mode="hard-light" in2="shape" result="effect1_innerShadow_1699_177"/>
</filter>
</defs>
</svg>
