<svg width="10" height="10" viewBox="0 0 10 10" fill="none" xmlns="http://www.w3.org/2000/svg">
<g filter="url(#filter0_i_1695_100)">
<path fill-rule="evenodd" clip-rule="evenodd" d="M5.01083 1.8371C5.50647 1.63459 6.49881 1.55627 7.18466 2.37909C7.3613 2.59105 7.33187 2.90633 7.12021 3.08319C6.90807 3.25997 6.59289 3.23185 6.41611 3.01971C6.10252 2.64351 5.63482 2.66195 5.38974 2.7619C5.04993 2.90091 4.90486 3.11142 4.83115 3.40253C4.79485 3.54616 4.77728 3.70547 4.77155 3.88247C4.76173 4.18593 4.75682 4.33766 4.85276 4.45412C4.86559 4.4697 4.88215 4.4868 4.89731 4.50014C5.01061 4.59979 5.17636 4.59979 5.50786 4.59979H5.90048C6.17626 4.60006 6.40025 4.82401 6.40048 5.09979C6.40036 5.37566 6.17632 5.59953 5.90048 5.59979H5.58385C5.26722 5.59979 5.10891 5.59979 5.004 5.67563C4.9871 5.68785 4.97637 5.69681 4.96132 5.71126C4.86795 5.80091 4.83452 5.98485 4.76767 6.35272C4.70207 6.71321 4.66927 6.89346 4.67901 6.9589C4.70655 7.14383 4.76884 7.21848 4.94585 7.27868C5.00849 7.29999 5.1462 7.29999 5.42163 7.29999H6.80087C7.07647 7.30046 7.30064 7.52433 7.30087 7.79999C7.30065 8.07564 7.07647 8.29951 6.80087 8.29999H3.58115C3.47338 8.29999 3.36247 8.30012 3.27939 8.29413C3.23994 8.29127 3.17346 8.28493 3.10458 8.26483C3.06045 8.25193 2.8589 8.19089 2.75888 7.97186C2.73911 7.92845 2.72519 7.88408 2.71689 7.8371C2.67365 7.59092 2.81789 7.4223 2.84189 7.39374C2.88704 7.34007 2.93802 7.2969 2.96982 7.27167C3.03703 7.2184 3.13214 7.1538 3.22763 7.08807C3.55708 6.86109 3.71313 6.55942 3.78329 6.17401C3.80486 6.05533 3.81565 5.99599 3.80056 5.92094C3.77661 5.80183 3.66901 5.67292 3.5561 5.62806C3.48496 5.59979 3.40715 5.59979 3.25152 5.59979H3.20029C2.92431 5.59969 2.69943 5.37577 2.69931 5.09979C2.69954 4.82391 2.92437 4.5999 3.20029 4.59979C3.35333 4.59979 3.42986 4.59979 3.48839 4.5814C3.61758 4.54081 3.70824 4.45061 3.74949 4.32164C3.76818 4.26319 3.76861 4.17956 3.76946 4.0123C3.77094 3.72291 3.79346 3.43016 3.8624 3.15741C4.00429 2.59691 4.34291 2.11048 5.01083 1.8371Z" fill="white"/>
</g>
<defs>
<filter id="filter0_i_1695_100" x="0" y="0" width="10" height="10" filterUnits="userSpaceOnUse" color-interpolation-filters="sRGB">
<feFlood flood-opacity="0" result="BackgroundImageFix"/>
<feBlend mode="normal" in="SourceGraphic" in2="BackgroundImageFix" result="shape"/>
<feColorMatrix in="SourceAlpha" type="matrix" values="0 0 0 0 0 0 0 0 0 0 0 0 0 0 0 0 0 0 127 0" result="hardAlpha"/>
<feOffset/>
<feGaussianBlur stdDeviation="1"/>
<feComposite in2="hardAlpha" operator="arithmetic" k2="-1" k3="1"/>
<feColorMatrix type="matrix" values="0 0 0 0 0.942 0 0 0 0 0.94 0 0 0 0 1 0 0 0 0.1 0"/>
<feBlend mode="hard-light" in2="shape" result="effect1_innerShadow_1695_100"/>
</filter>
</defs>
</svg>
