<svg width="10" height="10" viewBox="0 0 10 10" fill="none" xmlns="http://www.w3.org/2000/svg">
<g filter="url(#filter0_i_1141_512)">
<path d="M1.48715 3.32668C1.69946 2.89391 2.34133 2.90848 2.53403 3.35011L2.56821 3.45168L3.31821 6.50441C3.37091 6.71889 3.23968 6.93601 3.02524 6.98878C2.81095 7.04123 2.59371 6.91001 2.54086 6.69582L2.46981 6.40772C2.46173 6.37492 2.45768 6.35853 2.44621 6.34824C2.44456 6.34676 2.44281 6.34539 2.44098 6.34414C2.42824 6.33546 2.41135 6.33546 2.37758 6.33546H1.53012C1.52657 6.33546 1.52304 6.33539 1.51951 6.33527C1.47237 6.33361 1.4488 6.33277 1.43582 6.34089C1.43364 6.34226 1.43245 6.34311 1.43047 6.34475C1.41867 6.35451 1.4133 6.37279 1.40257 6.40936L1.31332 6.71339C1.25073 6.92511 1.02805 7.04635 0.816254 6.9839C0.604748 6.92119 0.483373 6.69851 0.545746 6.48683L1.44809 3.42628L1.48715 3.32668ZM5.0018 2.99953C5.64121 2.99967 6.15889 3.52128 6.15512 4.16066C6.15387 4.35082 6.10536 4.52971 6.02238 4.68729C6.00369 4.72277 5.99435 4.74051 5.99614 4.75589C5.99642 4.75833 5.99674 4.76006 5.99735 4.76245C6.00117 4.77745 6.01617 4.79063 6.04618 4.817C6.30595 5.04526 6.47026 5.37954 6.47055 5.75246C6.47068 6.44109 5.91208 6.99938 5.22348 6.99953H4.59262C4.24935 6.99951 3.97067 6.72168 3.97055 6.37843V3.57961C3.97103 3.25976 4.23073 2.99978 4.55063 2.99953H5.0018ZM8.20102 2.99953C8.59992 2.994 8.89154 3.19984 9.07797 3.39894C9.26217 3.59575 9.37661 3.81891 9.43051 3.92921C9.52709 4.12735 9.44466 4.36619 9.24692 4.46339C9.04843 4.56038 8.80874 4.47829 8.71176 4.2798C8.66561 4.18538 8.59342 4.05206 8.49399 3.94582C8.39672 3.84193 8.30557 3.79808 8.21176 3.79933C8.17997 3.8 8.07653 3.82324 7.96078 4.05324C7.84912 4.27536 7.7714 4.61741 7.77133 5.03566C7.77133 5.45428 7.84924 5.77324 7.9559 5.97218C8.0619 6.16972 8.16091 6.19785 8.21176 6.19875C8.30661 6.20001 8.39868 6.15575 8.49692 6.05324C8.59778 5.94774 8.66868 5.81924 8.72055 5.72511C8.82726 5.53226 9.07032 5.46175 9.26352 5.56789C9.45683 5.67444 9.528 5.91843 9.42172 6.11183C9.37367 6.19903 9.25767 6.41504 9.07504 6.60597C8.88969 6.7996 8.59891 7.00407 8.20102 6.99855C7.75849 6.99224 7.43896 6.70081 7.25082 6.35011C7.06319 6.00014 6.97055 5.54011 6.97055 5.03566C6.97062 4.53095 7.06323 4.05729 7.24594 3.69386C7.42404 3.33985 7.7392 3.00611 8.20102 2.99953ZM4.77133 6.10472C4.77133 6.14702 4.77133 6.16817 4.78331 6.18219C4.78501 6.18419 4.78687 6.18604 4.78886 6.18774C4.80289 6.19972 4.82403 6.19972 4.86633 6.19972H5.22348C5.47003 6.19958 5.67054 5.99996 5.67075 5.75343C5.67048 5.50694 5.46999 5.30631 5.22348 5.30617H4.86633C4.82403 5.30617 4.80289 5.30617 4.78886 5.31815C4.78687 5.31985 4.78501 5.3217 4.78331 5.3237C4.77133 5.33772 4.77133 5.35887 4.77133 5.40117V6.10472ZM1.69684 5.41286C1.68133 5.46553 1.67358 5.49186 1.68518 5.51079C1.68679 5.51343 1.68865 5.51592 1.69073 5.51822C1.70562 5.53468 1.73307 5.53468 1.78797 5.53468H2.13456C2.18721 5.53468 2.21353 5.53468 2.22834 5.51897C2.23041 5.51677 2.23228 5.51439 2.23392 5.51185C2.24565 5.49373 2.23937 5.46816 2.22681 5.41703L2.06917 4.77508C2.03735 4.6455 2.02144 4.58071 1.98848 4.57561C1.98417 4.57494 1.97979 4.57484 1.97545 4.57531C1.94229 4.57891 1.92345 4.64291 1.88578 4.77091L1.69684 5.41286ZM4.77133 4.41136C4.77133 4.45366 4.77133 4.47481 4.78331 4.48884C4.78501 4.49083 4.78687 4.49268 4.78886 4.49438C4.80289 4.50636 4.82403 4.50636 4.86633 4.50636H5.0018C5.19584 4.50622 5.3541 4.34887 5.35532 4.1548C5.35607 3.9594 5.19728 3.80045 5.0018 3.80031H4.86633C4.82403 3.80031 4.80289 3.80031 4.78886 3.81229C4.78687 3.81399 4.78501 3.81584 4.78331 3.81784C4.77133 3.83186 4.77133 3.85301 4.77133 3.89531V4.41136Z" fill="white"/>
</g>
<defs>
<filter id="filter0_i_1141_512" x="0" y="0" width="10" height="10" filterUnits="userSpaceOnUse" color-interpolation-filters="sRGB">
<feFlood flood-opacity="0" result="BackgroundImageFix"/>
<feBlend mode="normal" in="SourceGraphic" in2="BackgroundImageFix" result="shape"/>
<feColorMatrix in="SourceAlpha" type="matrix" values="0 0 0 0 0 0 0 0 0 0 0 0 0 0 0 0 0 0 127 0" result="hardAlpha"/>
<feOffset/>
<feGaussianBlur stdDeviation="1"/>
<feComposite in2="hardAlpha" operator="arithmetic" k2="-1" k3="1"/>
<feColorMatrix type="matrix" values="0 0 0 0 0.942 0 0 0 0 0.94 0 0 0 0 1 0 0 0 0.1 0"/>
<feBlend mode="hard-light" in2="shape" result="effect1_innerShadow_1141_512"/>
</filter>
</defs>
</svg>
