<svg width="10" height="10" viewBox="0 0 10 10" fill="none" xmlns="http://www.w3.org/2000/svg">
<g filter="url(#filter0_i_1728_97)">
<path fill-rule="evenodd" clip-rule="evenodd" d="M6.03902 5.25C6.38645 5.25 6.56047 5.24944 6.67964 5.38184C6.69356 5.3973 6.71265 5.42351 6.72359 5.44141C6.81618 5.59364 6.77553 5.72942 6.69429 6C6.47472 6.73093 5.90953 7.25 4.99898 7.25C4.08849 7.24993 3.5232 6.73094 3.30366 6C3.22243 5.72942 3.18178 5.59364 3.27437 5.44141C3.28525 5.42356 3.30436 5.39737 3.31831 5.38184C3.43746 5.24941 3.61161 5.25 3.95894 5.25H6.03902ZM3.09956 2.75C3.48984 2.75005 3.79144 2.90493 3.98531 3.04688C4.08252 3.11809 4.15806 3.18917 4.20991 3.24414C4.23593 3.27175 4.25699 3.29667 4.27241 3.31543C4.28001 3.32468 4.28689 3.33331 4.29195 3.33984C4.29433 3.34291 4.29699 3.34625 4.29878 3.34863C4.2994 3.34951 4.30017 3.3508 4.30074 3.35156L4.30269 3.35352V3.35449C4.29941 3.35713 4.26404 3.38358 3.89937 3.65039L4.30366 3.35449C4.46636 3.5773 4.41793 3.89073 4.19527 4.05371C4.00048 4.19616 3.73656 4.17637 3.56441 4.02051L3.498 3.94727V3.94824C3.49497 3.94464 3.48957 3.93831 3.48238 3.93066C3.46364 3.91079 3.4334 3.88204 3.39449 3.85352C3.31527 3.79554 3.21643 3.75005 3.09956 3.75C2.98266 3.75005 2.88386 3.79552 2.80464 3.85352C2.7657 3.88206 2.7355 3.91078 2.71675 3.93066L2.70015 3.94824C2.53652 4.16778 2.22644 4.21532 2.00484 4.05371C1.78203 3.89071 1.73356 3.57735 1.89644 3.35449L1.89741 3.35352L1.89839 3.35156C1.8991 3.3506 1.90044 3.34972 1.90132 3.34863C1.9032 3.34613 1.90565 3.34309 1.90816 3.33984C1.91321 3.33331 1.91912 3.32468 1.92671 3.31543C1.94217 3.29663 1.96312 3.27182 1.98921 3.24414C2.04107 3.18915 2.11652 3.11816 2.21382 3.04688C2.40769 2.90493 2.70928 2.75005 3.09956 2.75ZM6.89937 2.75C7.28974 2.75 7.59121 2.90491 7.78511 3.04688C7.88244 3.11816 7.95782 3.18912 8.00972 3.24414C8.03582 3.27183 8.05675 3.29662 8.07222 3.31543C8.07989 3.32476 8.08666 3.33327 8.09175 3.33984C8.09418 3.34298 8.09676 3.34621 8.09859 3.34863C8.09927 3.34957 8.09993 3.35075 8.10054 3.35156L8.10249 3.35352V3.35449C8.09791 3.35809 8.05657 3.38891 7.69917 3.65039L8.10347 3.35449C8.26633 3.57732 8.2178 3.89069 7.99507 4.05371C7.80023 4.19602 7.53628 4.17649 7.36421 4.02051L7.29781 3.94727V3.94824C7.29475 3.94461 7.28947 3.9384 7.28218 3.93066C7.2634 3.91075 7.23333 3.8821 7.19429 3.85352C7.11503 3.7955 7.01632 3.75 6.89937 3.75C6.78255 3.7501 6.68362 3.79555 6.60445 3.85352C6.56563 3.882 6.53526 3.91083 6.51656 3.93066L6.49995 3.94824C6.33623 4.16771 6.0262 4.2155 5.80464 4.05371C5.5819 3.89075 5.53353 3.57734 5.69624 3.35449L5.69722 3.35352L5.6982 3.35156C5.69887 3.35066 5.70026 3.34962 5.70113 3.34863C5.70297 3.34618 5.70551 3.34301 5.70796 3.33984C5.71298 3.33335 5.71901 3.32461 5.72652 3.31543C5.74194 3.29667 5.76302 3.27174 5.78902 3.24414C5.84083 3.1892 5.91645 3.1181 6.01363 3.04688C6.20746 2.90495 6.50918 2.7501 6.89937 2.75Z" fill="white"/>
</g>
<defs>
<filter id="filter0_i_1728_97" x="0" y="0" width="10" height="10" filterUnits="userSpaceOnUse" color-interpolation-filters="sRGB">
<feFlood flood-opacity="0" result="BackgroundImageFix"/>
<feBlend mode="normal" in="SourceGraphic" in2="BackgroundImageFix" result="shape"/>
<feColorMatrix in="SourceAlpha" type="matrix" values="0 0 0 0 0 0 0 0 0 0 0 0 0 0 0 0 0 0 127 0" result="hardAlpha"/>
<feOffset/>
<feGaussianBlur stdDeviation="1"/>
<feComposite in2="hardAlpha" operator="arithmetic" k2="-1" k3="1"/>
<feColorMatrix type="matrix" values="0 0 0 0 0.942 0 0 0 0 0.94 0 0 0 0 1 0 0 0 0.1 0"/>
<feBlend mode="hard-light" in2="shape" result="effect1_innerShadow_1728_97"/>
</filter>
</defs>
</svg>
