<svg width="10" height="10" viewBox="0 0 10 10" fill="none" xmlns="http://www.w3.org/2000/svg">
<g filter="url(#filter0_i_1141_534)">
<path d="M6.26793 2.11284C6.59722 2.14786 6.83585 2.44269 6.80113 2.77202C6.76617 3.10147 6.47045 3.34108 6.14098 3.3062C5.54995 3.2437 5.18723 3.38617 4.94664 3.57866C4.85102 3.65523 4.76558 3.74711 4.68969 3.85189C4.6849 3.85851 4.69687 3.84198 4.69114 3.85123C4.5759 4.0374 4.70614 4.2925 4.92452 4.30835C4.93537 4.30913 4.95834 4.30913 5.00426 4.30913C5.56268 4.30913 6.06827 4.46532 6.44176 4.79936C6.82124 5.13894 7.0042 5.60936 7.00426 6.10893C7.00422 6.60856 6.82129 7.07892 6.44176 7.4185C6.06825 7.75262 5.56274 7.90874 5.00426 7.90874C4.44585 7.90868 3.9402 7.75261 3.56676 7.4185C3.19849 7.08886 3.01663 6.63604 3.00621 6.15288C3.00599 6.14996 3.00556 6.14573 3.00523 6.14116C3.00456 6.13165 3.00323 6.11823 3.0023 6.1021C3.00044 6.06953 2.99897 6.02307 2.99742 5.96635C2.99433 5.85307 2.99322 5.69391 3.0023 5.50542C3.0203 5.1323 3.07763 4.62167 3.24254 4.10991C3.40677 3.60047 3.69283 3.04556 4.19664 2.64214C4.71614 2.2263 5.40533 2.02153 6.26793 2.11284ZM5.00426 5.50932C4.6632 5.50938 4.46904 5.60318 4.36754 5.69389C4.2722 5.77924 4.2045 5.90881 4.20445 6.10893C4.20449 6.30916 4.27214 6.43959 4.36754 6.52495C4.46913 6.61557 4.66356 6.70947 5.00426 6.70952C5.34537 6.70952 5.54039 6.61566 5.64195 6.52495C5.73735 6.43959 5.80403 6.30916 5.80406 6.10893C5.80401 5.90881 5.73727 5.77924 5.64195 5.69389C5.54048 5.6031 5.34572 5.50932 5.00426 5.50932Z" fill="white"/>
</g>
<defs>
<filter id="filter0_i_1141_534" x="0" y="0" width="10" height="10" filterUnits="userSpaceOnUse" color-interpolation-filters="sRGB">
<feFlood flood-opacity="0" result="BackgroundImageFix"/>
<feBlend mode="normal" in="SourceGraphic" in2="BackgroundImageFix" result="shape"/>
<feColorMatrix in="SourceAlpha" type="matrix" values="0 0 0 0 0 0 0 0 0 0 0 0 0 0 0 0 0 0 127 0" result="hardAlpha"/>
<feOffset/>
<feGaussianBlur stdDeviation="1"/>
<feComposite in2="hardAlpha" operator="arithmetic" k2="-1" k3="1"/>
<feColorMatrix type="matrix" values="0 0 0 0 0.942 0 0 0 0 0.94 0 0 0 0 1 0 0 0 0.1 0"/>
<feBlend mode="hard-light" in2="shape" result="effect1_innerShadow_1141_534"/>
</filter>
</defs>
</svg>
