<svg width="10" height="10" viewBox="0 0 10 10" fill="none" xmlns="http://www.w3.org/2000/svg">
<g filter="url(#filter0_i_1378_266)">
<path d="M5.35008 2.00047C6.48208 2.00065 7.39989 2.91824 7.39989 4.05028C7.3998 4.49954 7.25477 4.91434 7.00923 5.25149C6.69503 5.68292 6.53793 5.89863 6.53501 6.02367C6.53444 6.04796 6.53468 6.0533 6.53738 6.07745C6.55127 6.20175 6.67206 6.34018 6.91364 6.61706L7.25243 7.00536C7.47017 7.25514 7.44362 7.63429 7.19383 7.85204C6.94416 8.06915 6.56576 8.04368 6.34813 7.79442L5.09186 6.35286C4.99286 6.23926 4.94335 6.18246 4.87933 6.14796C4.86353 6.13944 4.84717 6.132 4.83037 6.12568C4.7623 6.10008 4.68696 6.10008 4.53627 6.10008C4.22004 6.10008 4.06193 6.10008 3.95354 6.18448C3.92747 6.20479 3.90401 6.22825 3.8837 6.25432C3.7993 6.36271 3.7993 6.52082 3.7993 6.83705V7.39989C3.7992 7.73117 3.531 7.9995 3.19969 7.9995C2.86859 7.99925 2.60018 7.73102 2.60008 7.39989V3.19969C2.60008 3.11487 2.59946 3.02071 2.60497 2.93993C2.61087 2.85373 2.6259 2.73937 2.67625 2.61766L2.71825 2.52782C2.82678 2.32522 3.00312 2.16547 3.21727 2.07664L3.30711 2.04442C3.39434 2.01893 3.47502 2.00979 3.53954 2.00536C3.62021 1.99985 3.71454 2.00047 3.7993 2.00047H5.35008ZM3.7993 4.13989C3.7993 4.47827 3.7993 4.64745 3.89514 4.75967C3.90875 4.7756 3.92359 4.79044 3.93952 4.80405C4.05173 4.89989 4.22092 4.89989 4.5593 4.89989H5.35008C5.81921 4.89971 6.19948 4.5194 6.19969 4.05028C6.19969 3.58098 5.81934 3.19987 5.35008 3.19969H4.5593C4.22092 3.19969 4.05173 3.19969 3.93952 3.29553C3.92359 3.30914 3.90875 3.32398 3.89514 3.33991C3.7993 3.45212 3.7993 3.62131 3.7993 3.95969V4.13989Z" fill="white"/>
</g>
<defs>
<filter id="filter0_i_1378_266" x="0" y="0" width="10" height="10" filterUnits="userSpaceOnUse" color-interpolation-filters="sRGB">
<feFlood flood-opacity="0" result="BackgroundImageFix"/>
<feBlend mode="normal" in="SourceGraphic" in2="BackgroundImageFix" result="shape"/>
<feColorMatrix in="SourceAlpha" type="matrix" values="0 0 0 0 0 0 0 0 0 0 0 0 0 0 0 0 0 0 127 0" result="hardAlpha"/>
<feOffset/>
<feGaussianBlur stdDeviation="1"/>
<feComposite in2="hardAlpha" operator="arithmetic" k2="-1" k3="1"/>
<feColorMatrix type="matrix" values="0 0 0 0 0.942 0 0 0 0 0.94 0 0 0 0 1 0 0 0 0.1 0"/>
<feBlend mode="hard-light" in2="shape" result="effect1_innerShadow_1378_266"/>
</filter>
</defs>
</svg>
